<svg xmlns="http://www.w3.org/2000/svg" width="153" height="153" viewBox="0 0 153 153">
  <g id="Grupo_183471" data-name="Grupo 183471" transform="translate(-11203 9158)">
    <g id="Grupo_183113" data-name="Grupo 183113" transform="translate(11203 -9158)">
      <g id="Grupo_183109" data-name="Grupo 183109">
        <circle id="Elipse_5517" data-name="Elipse 5517" cx="76.5" cy="76.5" r="76.5" fill="#fff"/>
      </g>
    </g>
    <path id="Trazado_213579" data-name="Trazado 213579" d="M21.613,14H1.139A1.14,1.14,0,0,1,0,12.856V7.56A7.569,7.569,0,0,1,7.56,0h.8a1.14,1.14,0,0,1,0,2.28h-.8A5.286,5.286,0,0,0,2.28,7.56v4.156H20.474V7.56a5.286,5.286,0,0,0-5.28-5.28h-.8a1.14,1.14,0,0,1,0-2.28h.8a7.568,7.568,0,0,1,7.559,7.56v5.3A1.14,1.14,0,0,1,21.613,14" transform="matrix(1, -0.017, 0.017, 1, 11268.15, -9098.566)"/>
    <path id="Trazado_213580" data-name="Trazado 213580" d="M1.141,9.971A1.24,1.24,0,0,1,.983,9.96,1.138,1.138,0,0,1,.011,8.675L1.076.983A1.14,1.14,0,1,1,3.334,1.3L2.269,8.987a1.141,1.141,0,0,1-1.128.984" transform="matrix(1, -0.017, 0.017, 1, 11275.322, -9094.667)"/>
    <path id="Trazado_213581" data-name="Trazado 213581" d="M2.2,9.97a1.139,1.139,0,0,1-1.128-.984L.011,1.295A1.14,1.14,0,1,1,2.269.982L3.333,8.673a1.138,1.138,0,0,1-.972,1.285A1.237,1.237,0,0,1,2.2,9.97" transform="matrix(1, -0.017, 0.017, 1, 11280.527, -9094.758)"/>
    <path id="Trazado_213582" data-name="Trazado 213582" d="M6.11,12.22a6.11,6.11,0,1,1,6.11-6.11,6.117,6.117,0,0,1-6.11,6.11m0-9.941A3.83,3.83,0,1,0,9.941,6.11,3.836,3.836,0,0,0,6.11,2.279" transform="matrix(1, -0.017, 0.017, 1, 11273.174, -9112.67)"/>
    <path id="Trazado_213588" data-name="Trazado 213588" d="M1.139,12.6A1.14,1.14,0,0,1,0,11.456,15.258,15.258,0,0,1,4.866.3a1.139,1.139,0,1,1,1.55,1.671,12.979,12.979,0,0,0-4.137,9.482A1.14,1.14,0,0,1,1.139,12.6" transform="matrix(1, -0.017, 0.017, 1, 11264.151, -9108.068)"/>
    <path id="Trazado_213589" data-name="Trazado 213589" d="M5.641,12.6A1.14,1.14,0,0,1,4.5,11.456,12.978,12.978,0,0,0,.364,1.975,1.14,1.14,0,0,1,1.915.3,15.266,15.266,0,0,1,6.781,11.456,1.139,1.139,0,0,1,5.641,12.6" transform="matrix(1, -0.017, 0.017, 1, 11287.788, -9108.481)"/>
    <g id="Grupo_183032" data-name="Grupo 183032" transform="matrix(0.017, -1, 1, 0.017, 11290.774, -9050.915)">
      <path id="Trazado_213583" data-name="Trazado 213583" d="M15.315,10.321H1.141A1.14,1.14,0,0,1,0,9.181V5.514A5.58,5.58,0,0,1,4.583.019,1.14,1.14,0,1,1,4.99,2.262,3.3,3.3,0,0,0,2.28,5.514V8.042h11.9V5.514A3.3,3.3,0,0,0,11.46,2.262a1.14,1.14,0,0,1,.4-2.244,5.578,5.578,0,0,1,4.591,5.5V9.181a1.14,1.14,0,0,1-1.139,1.139" transform="translate(10.321 0) rotate(90)"/>
      <path id="Trazado_213584" data-name="Trazado 213584" d="M1.141,7.606a1.241,1.241,0,0,1-.158-.011A1.138,1.138,0,0,1,.011,6.309L.747.984A1.14,1.14,0,0,1,3.005,1.3L2.268,6.622a1.139,1.139,0,0,1-1.127.984" transform="translate(7.606 4.917) rotate(90)"/>
      <path id="Trazado_213585" data-name="Trazado 213585" d="M1.876,7.6A1.139,1.139,0,0,1,.749,6.621L.011,1.3A1.139,1.139,0,1,1,2.268.983l.738,5.326a1.138,1.138,0,0,1-.972,1.285,1.24,1.24,0,0,1-.158.011" transform="translate(7.605 8.523) rotate(90)"/>
      <path id="Trazado_213586" data-name="Trazado 213586" d="M4.581,9.161A4.58,4.58,0,1,1,9.162,4.58,4.586,4.586,0,0,1,4.581,9.161m0-6.882a2.3,2.3,0,1,0,2.3,2.3,2.3,2.3,0,0,0-2.3-2.3" transform="translate(20.093 3.647) rotate(90)"/>
    </g>
    <path id="Trazado_213587" data-name="Trazado 213587" d="M20.226,40.451A20.226,20.226,0,1,1,40.453,20.225,20.249,20.249,0,0,1,20.226,40.451m0-38.172A17.947,17.947,0,1,0,38.174,20.225,17.966,17.966,0,0,0,20.226,2.279" transform="translate(11299.857 -9118) rotate(90)"/>
    <path id="Trazado_213590" data-name="Trazado 213590" d="M15.863,31.725A15.863,15.863,0,1,1,31.725,15.863,15.881,15.881,0,0,1,15.863,31.725m0-29.446A13.584,13.584,0,1,0,29.446,15.863,13.6,13.6,0,0,0,15.863,2.279" transform="translate(11315.264 -9076.677) rotate(90)"/>
    <g id="Grupo_183033" data-name="Grupo 183033" transform="matrix(-0.017, -1, 1, -0.017, 11252.588, -9050.5)">
      <path id="Trazado_213591" data-name="Trazado 213591" d="M15.314,10.321H1.139A1.139,1.139,0,0,1,0,9.181V5.514A5.579,5.579,0,0,1,4.583.019a1.14,1.14,0,0,1,.406,2.243,3.3,3.3,0,0,0-2.71,3.252V8.042h11.9V5.514a3.3,3.3,0,0,0-2.715-3.252,1.14,1.14,0,0,1,.4-2.244,5.578,5.578,0,0,1,4.591,5.5V9.181a1.139,1.139,0,0,1-1.139,1.139" transform="translate(10.321 0) rotate(90)"/>
      <path id="Trazado_213592" data-name="Trazado 213592" d="M1.141,7.605a1.241,1.241,0,0,1-.158-.011A1.139,1.139,0,0,1,.011,6.309L.749.983A1.14,1.14,0,0,1,3.007,1.3L2.268,6.621a1.139,1.139,0,0,1-1.127.984" transform="translate(7.605 4.916) rotate(90)"/>
      <path id="Trazado_213593" data-name="Trazado 213593" d="M1.876,7.6A1.139,1.139,0,0,1,.749,6.62L.011,1.295A1.14,1.14,0,0,1,2.269.982l.738,5.326a1.141,1.141,0,0,1-.973,1.285,1.241,1.241,0,0,1-.158.011" transform="translate(7.605 8.52) rotate(90)"/>
      <path id="Trazado_213594" data-name="Trazado 213594" d="M4.581,9.161A4.58,4.58,0,1,1,9.162,4.58,4.587,4.587,0,0,1,4.581,9.161m0-6.882a2.3,2.3,0,1,0,2.3,2.3,2.3,2.3,0,0,0-2.3-2.3" transform="translate(20.093 3.645) rotate(90)"/>
    </g>
    <path id="Trazado_213596" data-name="Trazado 213596" d="M1.14,5.219a1.14,1.14,0,0,1-.407-2.2L8.428.075A1.14,1.14,0,1,1,9.242,2.2l-7.7,2.938a1.139,1.139,0,0,1-.406.076" transform="translate(11294.025 -9082.857) rotate(90)"/>
    <path id="Trazado_213597" data-name="Trazado 213597" d="M15.863,31.725A15.863,15.863,0,1,1,31.725,15.863,15.881,15.881,0,0,1,15.863,31.725m0-29.446A13.584,13.584,0,1,0,29.446,15.863,13.6,13.6,0,0,0,15.863,2.279" transform="translate(11275.726 -9076.553) rotate(90)"/>
    <path id="Trazado_213598" data-name="Trazado 213598" d="M8.835,5.219a1.139,1.139,0,0,1-.406-.076L.734,2.2A1.14,1.14,0,1,1,1.547.075l7.7,2.939a1.14,1.14,0,0,1-.407,2.2" transform="translate(11270.455 -9082.731) rotate(90)"/>
  </g>
</svg>
