<svg xmlns="http://www.w3.org/2000/svg" xmlns:xlink="http://www.w3.org/1999/xlink" width="153" height="153" viewBox="0 0 153 153">
  <defs>
    <clipPath id="clip-path">
      <rect id="Rectángulo_57602" data-name="Rectángulo 57602" width="53.271" height="66.855" fill="#12263f"/>
    </clipPath>
  </defs>
  <g id="Grupo_183468" data-name="Grupo 183468" transform="translate(-718 -2463.75)">
    <circle id="Elipse_5516" data-name="Elipse 5516" cx="76.5" cy="76.5" r="76.5" transform="translate(718 2463.75)" fill="#fff"/>
    <g id="Grupo_183026" data-name="Grupo 183026" transform="translate(767.063 2506.75)">
      <g id="Grupo_183025" data-name="Grupo 183025" clip-path="url(#clip-path)">
        <path id="Trazado_213533" data-name="Trazado 213533" d="M43.115,54.724a1.049,1.049,0,0,1-.988-1.1V48.537a9.365,9.365,0,0,1,1.962-5.793l3.1-3.932a5.654,5.654,0,0,0,1.184-3.5V25.25a1.4,1.4,0,0,0-1.313-1.461H36.4a1.912,1.912,0,0,0,0,3.8h4.992a2.269,2.269,0,0,1,2.135,2.378v4.318a.993.993,0,1,1-1.974,0V29.969a.171.171,0,0,0-.161-.181H36.4a3.911,3.911,0,0,1-3.683-4.1,3.911,3.911,0,0,1,3.683-4.1H47.065a3.492,3.492,0,0,1,3.286,3.658V35.314a8,8,0,0,1-1.675,4.949l-3.1,3.932A7.016,7.016,0,0,0,44.1,48.537v5.088a1.047,1.047,0,0,1-.986,1.1" transform="translate(2.92 4.591)" fill="#12263f"/>
        <path id="Trazado_213534" data-name="Trazado 213534" d="M41.016,25.846H35.484a1.048,1.048,0,0,1-.987-1.1V16.1a3.988,3.988,0,0,1,3.752-4.177A3.987,3.987,0,0,1,42,16.1v8.651a1.047,1.047,0,0,1-.986,1.1m-4.545-2.2h3.559V16.1a1.789,1.789,0,1,0-3.559,0Z" transform="translate(3.079 2.534)" fill="#12263f"/>
        <path id="Trazado_213535" data-name="Trazado 213535" d="M27.172,55.9a1.048,1.048,0,0,1-.987-1.1V47.879a7.245,7.245,0,0,0-.355-2.247l-.6-1.841a18.056,18.056,0,0,1-.889-5.617V20.229a3.988,3.988,0,0,1,3.752-4.177,3.987,3.987,0,0,1,3.753,4.177v3.759a3.986,3.986,0,0,1-3.753,4.177,3.433,3.433,0,0,1-1.779-.5V38.175a15.69,15.69,0,0,0,.769,4.866l.6,1.842a9.634,9.634,0,0,1,.474,3V54.8a1.048,1.048,0,0,1-.987,1.1m-.857-31.913a1.789,1.789,0,1,0,3.559,0V20.229a1.789,1.789,0,1,0-3.559,0Z" transform="translate(2.173 3.413)" fill="#12263f"/>
        <path id="Trazado_213536" data-name="Trazado 213536" d="M46.094,25.453H40.563a1.048,1.048,0,0,1-.987-1.1V17.943a3.987,3.987,0,0,1,3.753-4.177,3.986,3.986,0,0,1,3.752,4.177v6.411a1.047,1.047,0,0,1-.987,1.1m-4.544-2.2h3.558V17.943a1.789,1.789,0,1,0-3.558,0Z" transform="translate(3.533 2.927)" fill="#12263f"/>
        <path id="Trazado_213537" data-name="Trazado 213537" d="M33.171,29.987a3.986,3.986,0,0,1-3.752-4.177V17.679A3.986,3.986,0,0,1,33.171,13.5a3.986,3.986,0,0,1,3.753,4.177v6.866a1.089,1.089,0,0,1-.709,1.054,1.862,1.862,0,0,0-1.231,1.81,2.062,2.062,0,0,0,.158.783,1.214,1.214,0,0,1,.021.856,1.047,1.047,0,0,1-.536.612,3.4,3.4,0,0,1-1.455.326m0-14.288a1.889,1.889,0,0,0-1.779,1.98V25.81a1.911,1.911,0,0,0,1.634,1.974q-.016-.186-.016-.375a4.133,4.133,0,0,1,1.94-3.6V17.679a1.889,1.889,0,0,0-1.779-1.98" transform="translate(2.626 2.871)" fill="#12263f"/>
        <path id="Trazado_213538" data-name="Trazado 213538" d="M45.906,52.638H25.2a1.047,1.047,0,0,1-.987-1.1V48.2a1.047,1.047,0,0,1,.987-1.1h20.7a1.047,1.047,0,0,1,.987,1.1V51.54a1.047,1.047,0,0,1-.987,1.1m-19.716-2.2H44.919V49.3H26.191Z" transform="translate(2.162 10.015)" fill="#12263f"/>
        <path id="Trazado_213539" data-name="Trazado 213539" d="M48.446,56.255h-25.4a1.048,1.048,0,0,1-.987-1.1v-4.2a1.048,1.048,0,0,1,.987-1.1h25.4a1.047,1.047,0,0,1,.986,1.1v4.2a1.047,1.047,0,0,1-.986,1.1m-24.41-2.2H47.458v-2H24.036Z" transform="translate(1.969 10.6)" fill="#12263f"/>
        <path id="Trazado_213540" data-name="Trazado 213540" d="M29.013,55.782H4.7a1.048,1.048,0,0,1-.987-1.1V1.1A1.048,1.048,0,0,1,4.7,0H38.232a1.048,1.048,0,0,1,.987,1.1V11.7a.993.993,0,1,1-1.974,0V2.2H5.692V53.585H29.013a1.1,1.1,0,0,1,0,2.2" transform="translate(0.332 0)" fill="#12263f"/>
        <path id="Trazado_213541" data-name="Trazado 213541" d="M23.047,58.7H.987A1.047,1.047,0,0,1,0,57.6V4.012a1.047,1.047,0,0,1,.987-1.1h4.05a1.048,1.048,0,0,1,.987,1.1V54.065a1.048,1.048,0,0,1-.987,1.1,1.047,1.047,0,0,1-.987-1.1V5.11H1.974V56.5H23.047a1.1,1.1,0,0,1,0,2.2" transform="translate(0 0.62)" fill="#12263f"/>
        <path id="Trazado_213542" data-name="Trazado 213542" d="M52.284,55.518H.987a1.1,1.1,0,0,1,0-2.2h51.3a1.1,1.1,0,0,1,0,2.2" transform="translate(0 11.337)" fill="#12263f"/>
        <path id="Trazado_213543" data-name="Trazado 213543" d="M27.729,7.718H13.616a1.047,1.047,0,0,1-.987-1.1,1.047,1.047,0,0,1,.987-1.1H27.729a1.048,1.048,0,0,1,.987,1.1,1.048,1.048,0,0,1-.987,1.1" transform="translate(1.127 1.174)" fill="#12263f"/>
        <path id="Trazado_213544" data-name="Trazado 213544" d="M32.4,12.983H9.649a1.1,1.1,0,0,1,0-2.2H32.4a1.1,1.1,0,0,1,0,2.2" transform="translate(0.773 2.294)" fill="#12263f"/>
        <path id="Trazado_213545" data-name="Trazado 213545" d="M22.273,18.249H9.649a1.1,1.1,0,0,1,0-2.2H22.273a1.1,1.1,0,0,1,0,2.2" transform="translate(0.773 3.413)" fill="#12263f"/>
        <path id="Trazado_213546" data-name="Trazado 213546" d="M22.273,23.515H9.649a1.1,1.1,0,0,1,0-2.2H22.273a1.1,1.1,0,0,1,0,2.2" transform="translate(0.773 4.533)" fill="#12263f"/>
        <path id="Trazado_213547" data-name="Trazado 213547" d="M22.273,28.781H9.649a1.1,1.1,0,0,1,0-2.2H22.273a1.1,1.1,0,0,1,0,2.2" transform="translate(0.773 5.652)" fill="#12263f"/>
        <path id="Trazado_213548" data-name="Trazado 213548" d="M22.273,34.047H9.649a1.1,1.1,0,0,1,0-2.2H22.273a1.1,1.1,0,0,1,0,2.2" transform="translate(0.773 6.772)" fill="#12263f"/>
        <path id="Trazado_213549" data-name="Trazado 213549" d="M22.273,39.313H9.649a1.1,1.1,0,0,1,0-2.2H22.273a1.1,1.1,0,0,1,0,2.2" transform="translate(0.773 7.892)" fill="#12263f"/>
      </g>
    </g>
  </g>
</svg>
