<svg xmlns="http://www.w3.org/2000/svg" xmlns:xlink="http://www.w3.org/1999/xlink" width="500" height="533.767" viewBox="0 0 500 533.767">
  <defs>
    <clipPath id="clip-path">
      <rect id="Rectángulo_57011" data-name="Rectángulo 57011" width="43.505" height="62.428" fill="none"/>
    </clipPath>
    <clipPath id="clip-path-2">
      <rect id="Rectángulo_57012" data-name="Rectángulo 57012" width="56.879" height="59.632" fill="#12263f"/>
    </clipPath>
    <clipPath id="clip-path-3">
      <rect id="Rectángulo_57013" data-name="Rectángulo 57013" width="45.702" height="35.104" fill="#061321"/>
    </clipPath>
  </defs>
  <g id="Grupo_183470" data-name="Grupo 183470" transform="translate(-184 -5471.657)">
    <path id="Trazado_210903" data-name="Trazado 210903" d="M750.732,0l-35.607,25.87-13.6,41.861,13.6,41.862,35.125,25.521.482.349H794.75l35.607-25.87,13.6-41.862-.393-1.208L830.357,25.872,794.75,0Z" transform="translate(-335.447 5471.656)" fill="#00a3be"/>
    <path id="Trazado_210904" data-name="Trazado 210904" d="M950,203.483l-13.6,41.862-35.607,25.87H856.777l-.482-.349-19.837-36.629,84.656-61.507,28.493,29.545Z" transform="translate(-438.75 5335.906)" fill="#027f8c"/>
    <path id="Trazado_210905" data-name="Trazado 210905" d="M825.931,183.467,799.77,164.46l-9.992-30.754,9.992-30.753,26.161-19.007h32.336l26.161,19.007,9.992,30.753-9.992,30.754-26.161,19.007Z" transform="translate(-404.871 5405.682)" fill="#fff"/>
    <path id="Trazado_210906" data-name="Trazado 210906" d="M750.732,1592.291l-35.607,25.87-13.6,41.861,13.6,41.862L750.25,1727.4l.482.349H794.75l35.607-25.87,13.6-41.862-.393-1.208-13.206-40.653-35.607-25.87Z" transform="translate(-335.447 4277.671)" fill="#e5e4e3"/>
    <path id="Trazado_210907" data-name="Trazado 210907" d="M836.457,1826.524l19.837,36.63.482.349h44.018l35.607-25.87L950,1795.77l-.393-1.208-28.493-29.545Z" transform="translate(-438.749 4141.922)" fill="#9e9d9d"/>
    <path id="Trazado_210908" data-name="Trazado 210908" d="M825.931,1775.753l-26.161-19.007-9.992-30.754,9.992-30.753,26.161-19.007h32.336l26.161,19.007,9.992,30.753-9.992,30.754-26.161,19.007Z" transform="translate(-404.871 4211.701)" fill="#fff"/>
    <path id="Trazado_210909" data-name="Trazado 210909" d="M1426.878,1195.372l-35.608,25.87-13.6,41.861,13.6,41.862,35.126,25.521.482.349H1470.9l35.607-25.87,13.6-41.862-.393-1.208-13.206-40.653-35.607-25.87Z" transform="translate(-836.102 4575.302)" fill="#12263f"/>
    <path id="Trazado_210910" data-name="Trazado 210910" d="M1512.6,1429.6l19.837,36.63.482.349h44.017l35.607-25.87,13.6-41.862-.393-1.208L1597.26,1368.1Z" transform="translate(-942.146 4440.954)" fill="#061321"/>
    <path id="Trazado_210911" data-name="Trazado 210911" d="M1502.078,1378.834l-26.161-19.007-9.993-30.754,9.993-30.753,26.161-19.007h32.336l26.161,19.007,9.993,30.753-9.993,30.754-26.161,19.007Z" transform="translate(-905.46 4507.958)" fill="#fff"/>
    <path id="Trazado_210912" data-name="Trazado 210912" d="M1426.878,401.536l-35.608,25.87-13.6,41.861,13.6,41.862,35.126,25.521.482.349H1470.9l35.607-25.87,13.6-41.862-.393-1.208L1506.5,427.406l-35.607-25.87Z" transform="translate(-836.102 5170.564)" fill="#32d9cb"/>
    <path id="Trazado_210913" data-name="Trazado 210913" d="M1512.6,635.769l19.837,36.629.482.349h44.017l35.607-25.87,13.6-41.862-.393-1.208-28.493-29.545Z" transform="translate(-942.146 5039.017)" fill="#14a392"/>
    <path id="Trazado_210914" data-name="Trazado 210914" d="M1502.078,585l-26.161-19.007-9.993-30.754,9.993-30.753,26.161-19.007h32.336l26.161,19.007,9.993,30.753-9.993,30.754L1534.414,585Z" transform="translate(-905.46 5105.95)" fill="#fff"/>
    <path id="Trazado_210915" data-name="Trazado 210915" d="M49.205,1195.372,13.6,1221.242,0,1263.1l13.6,41.862,35.126,25.521.482.349H93.223l35.607-25.87,13.6-41.862-.393-1.208-13.206-40.653-35.607-25.87Z" transform="translate(184 4575.302)" fill="#678589"/>
    <path id="Trazado_210916" data-name="Trazado 210916" d="M248.473,1398.851l-13.6,41.862-35.607,25.87H155.25l-.482-.349L134.93,1429.6l84.656-61.507,28.493,29.545Z" transform="translate(77.956 4440.955)" fill="#496466"/>
    <path id="Trazado_210917" data-name="Trazado 210917" d="M124.4,1378.834l-26.161-19.007-9.992-30.754,9.992-30.753,26.161-19.007h32.336L182.9,1298.32l9.992,30.753-9.992,30.754-26.161,19.007Z" transform="translate(114.642 4507.958)" fill="#fff"/>
    <path id="Trazado_210918" data-name="Trazado 210918" d="M49.205,401.536,13.6,427.406,0,469.267l13.6,41.862,35.126,25.521.482.349H93.223l35.607-25.87,13.6-41.862-.393-1.208L128.83,427.406l-35.607-25.87Z" transform="translate(184 5170.564)" fill="#f37f4c"/>
    <path id="Trazado_210919" data-name="Trazado 210919" d="M248.473,605.015l-13.6,41.862-35.607,25.87H155.25l-.482-.349L134.93,635.769l84.656-61.507,28.493,29.545Z" transform="translate(77.956 5039.018)" fill="#c14d25"/>
    <path id="Trazado_210920" data-name="Trazado 210920" d="M124.4,585,98.244,565.992l-9.992-30.754,9.992-30.753L124.4,485.477h32.336L182.9,504.484l9.992,30.753L182.9,565.992,156.741,585Z" transform="translate(114.642 5105.95)" fill="#fff"/>
    <path id="Icon_map-doctor" data-name="Icon map-doctor" d="M34.229,10.311H30.293V6.134A5.36,5.36,0,0,0,24.943.72H14.863A5.36,5.36,0,0,0,9.512,6.134v4.177H5.576A4.767,4.767,0,0,0,.72,15.056V33.445a4.847,4.847,0,0,0,4.856,4.84H34.229a4.849,4.849,0,0,0,4.856-4.841V15.056A4.768,4.768,0,0,0,34.229,10.311ZM12.709,6.134a2.308,2.308,0,0,1,2.154-2.217h10.08A2.31,2.31,0,0,1,27.1,6.134v4.177H12.709ZM28.694,27.9H23.1V33.49H16.705V27.9H11.111V21.5h5.595V15.906H23.1V21.5h5.595V27.9Z" transform="translate(414.098 5915.815)" fill="#12263f"/>
    <path id="Icon_material-attach-money" data-name="Icon material-attach-money" d="M19.87,19.478c-4.3-1.119-5.688-2.275-5.688-4.076,0-2.067,1.915-3.508,5.119-3.508,3.375,0,4.626,1.612,4.74,3.981h4.19a7.558,7.558,0,0,0-6.086-7.224V4.5H16.457V8.6c-3.678.8-6.636,3.185-6.636,6.844,0,4.38,3.621,6.56,8.911,7.83,4.74,1.138,5.688,2.806,5.688,4.569,0,1.308-.929,3.394-5.119,3.394-3.906,0-5.441-1.744-5.65-3.981H9.48c.228,4.152,3.337,6.484,6.977,7.261v4.114h5.688V34.551c3.7-.7,6.636-2.844,6.636-6.731C28.781,22.436,24.174,20.6,19.87,19.478Z" transform="translate(236.219 5603.911)" fill="#12263f"/>
    <g id="Grupo_181906" data-name="Grupo 181906" transform="translate(-423.318 -395.788)">
      <path id="Trazado_211005" data-name="Trazado 211005" d="M40.541,25.336l12.893-2.515a2.983,2.983,0,0,1,3.3,1.432c.555,1.234-.4,2.48-1.648,3.094l-22.5,8.667a38.4,38.4,0,0,1-11.944,1.822A30.716,30.716,0,0,1,13.3,37.02l-2.551-.7" transform="translate(651.426 6030.104)" fill="none" stroke="#12263f" stroke-linecap="round" stroke-linejoin="round" stroke-width="4"/>
      <path id="Trazado_211006" data-name="Trazado 211006" d="M17.229,39.362l-4.944,3.017L.75,22.767,5.694,19.75Z" transform="translate(644.946 6028.579)" fill="none" stroke="#12263f" stroke-linecap="round" stroke-linejoin="round" stroke-width="4"/>
      <path id="Trazado_211007" data-name="Trazado 211007" d="M24.525,30.819H40.18a3.957,3.957,0,0,0,4.12-3.772,3.957,3.957,0,0,0-4.12-3.772H29.469l-1.406-.966a20.657,20.657,0,0,0-11.669-3.56,21,21,0,0,0-7.722,1.463L4.75,21.767" transform="translate(647.538 6028.07)" fill="none" stroke="#12263f" stroke-linecap="round" stroke-linejoin="round" stroke-width="4"/>
    </g>
    <g id="Grupo_181911" data-name="Grupo 181911" transform="translate(-423.318 -201.057)">
      <path id="Trazado_211005-2" data-name="Trazado 211005" d="M40.541,25.336l12.893-2.515a2.983,2.983,0,0,1,3.3,1.432c.555,1.234-.4,2.48-1.648,3.094l-22.5,8.667a38.4,38.4,0,0,1-11.944,1.822A30.716,30.716,0,0,1,13.3,37.02l-2.551-.7" transform="translate(651.426 6030.104)" fill="none" stroke="#12263f" stroke-linecap="round" stroke-linejoin="round" stroke-width="4"/>
      <path id="Trazado_211006-2" data-name="Trazado 211006" d="M17.229,39.362l-4.944,3.017L.75,22.767,5.694,19.75Z" transform="translate(644.946 6028.579)" fill="none" stroke="#12263f" stroke-linecap="round" stroke-linejoin="round" stroke-width="4"/>
      <path id="Trazado_211007-2" data-name="Trazado 211007" d="M24.525,30.819H40.18a3.957,3.957,0,0,0,4.12-3.772,3.957,3.957,0,0,0-4.12-3.772H29.469l-1.406-.966a20.657,20.657,0,0,0-11.669-3.56,21,21,0,0,0-7.722,1.463L4.75,21.767" transform="translate(647.538 6028.07)" fill="none" stroke="#12263f" stroke-linecap="round" stroke-linejoin="round" stroke-width="4"/>
    </g>
    <g id="Grupo_181908" data-name="Grupo 181908" transform="translate(592 5806.001)">
      <g id="Grupo_181907" data-name="Grupo 181907" transform="translate(0 -0.001)" clip-path="url(#clip-path)">
        <path id="Trazado_211008" data-name="Trazado 211008" d="M2.637,50.587A21.192,21.192,0,0,1,.372,41.072v-.038a21.32,21.32,0,0,1,6.285-15.1,21.577,21.577,0,0,1,4.6-3.5v3.63A18.566,18.566,0,0,0,8.82,28.112,18.234,18.234,0,0,0,3.448,41.034v.038a18.158,18.158,0,0,0,1.674,7.6M32.247,22.433a21.7,21.7,0,0,1,4.614,3.515l0,0a21.316,21.316,0,0,1,6.27,15.08v.037a21.184,21.184,0,0,1-2.267,9.528l-2.483-1.914a18.173,18.173,0,0,0,1.672-7.615v-.037a18.232,18.232,0,0,0-5.368-12.9v-.007a18.532,18.532,0,0,0-2.44-2.051ZM16.413,58.549v-4.7a5.335,5.335,0,0,1,.529-2.309,5.405,5.405,0,0,1,1.035-1.457,5.332,5.332,0,0,1,3.771-1.574h.012a5.365,5.365,0,0,1,5.246,4.394,11.121,11.121,0,0,1,.085,1.982V58.55a18.268,18.268,0,0,0,5.465-2.75l2.516,1.938A21.247,21.247,0,0,1,21.78,62.427h-.039A21.271,21.271,0,0,1,8.428,57.741L10.952,55.8a18.29,18.29,0,0,0,5.461,2.752m7.6.661V53.847A2.254,2.254,0,0,0,21.76,51.59h-.012a2.257,2.257,0,0,0-2.258,2.253V59.21a18.37,18.37,0,0,0,2.251.14h.039a18.059,18.059,0,0,0,2.234-.14M0,56.488,14.334,42.235V20.747l3.078-3.66V39.545l2.8-2.8V7.841H15.964V4.763h4.249V0h3.078V4.764h4.249V7.84H23.291v28.9l2.8,2.8V17.086l3.075,3.66v21.49L43.5,56.488l-2.381,1.857L21.751,39.59,2.381,58.345Z" transform="translate(0 0.001)" fill="#1f1a17" fill-rule="evenodd"/>
      </g>
    </g>
    <g id="Grupo_181910" data-name="Grupo 181910" transform="translate(580 5608.411)">
      <g id="Grupo_181909" data-name="Grupo 181909" transform="translate(0 0)" clip-path="url(#clip-path-2)">
        <path id="Trazado_211009" data-name="Trazado 211009" d="M40.192,34.74a17.09,17.09,0,0,0,9.87-5.636,1.987,1.987,0,0,0,.468-1.649c3.989-4.682,6.35-11.255,6.35-16.181,0-8-3.766-8.69-10.114-10.114A1.851,1.851,0,0,0,44.893,0a2.392,2.392,0,0,0-2.584,2.116,2.58,2.58,0,0,0,2.584,2.34,1.886,1.886,0,0,0,1.18-.468H46.3c5.88,1.18,7.528,1.649,7.528,7.286,0,4.214-2.116,10.319-5.636,14.551a2.129,2.129,0,0,0-1.649.693c-1.649,1.892-4.476,4.233-7.772,4.233-3.522,0-6.331-2.34-7.98-4.233a2.152,2.152,0,0,0-1.649-.693c-3.3-4.233-5.655-10.337-5.655-14.551,0-5.638,1.649-6.106,7.528-7.286a3.561,3.561,0,0,0,1.649.468,2.533,2.533,0,0,0,2.359-2.34A2.32,2.32,0,0,0,32.663,0a2.228,2.228,0,0,0-2.117,1.16c-6.33,1.424-10.094,2.117-10.094,10.114,0,4.926,2.34,11.5,6.348,16.425a4.221,4.221,0,0,0,.468,1.649C30.3,32.4,33.6,34.273,36.9,34.74v9.872c0,6.8-5.881,12.192-13.166,12.192-7.268,0-13.166-5.394-13.166-12.192V35.9a8.338,8.338,0,0,0,7.3-8.2c0-4.457-3.989-8.222-8.934-8.222C4.233,19.477,0,23.241,0,27.7c0,4.214,3.277,7.511,7.51,8.2v8.71c0,8.2,7.286,15.02,16.22,15.02s16.239-6.817,16.239-15.02V34.74Zm-31.258-1.4A5.989,5.989,0,0,0,15.04,27.7c0-3.052-2.829-5.394-6.106-5.394-3.071,0-5.9,2.342-5.9,5.394a5.939,5.939,0,0,0,5.9,5.638" transform="translate(0 0)" fill="#12263f" fill-rule="evenodd"/>
      </g>
    </g>
    <path id="Icon_material-people-outline" data-name="Icon material-people-outline" d="M40.931,27.852A30.493,30.493,0,0,0,29.483,30.4a30.009,30.009,0,0,0-11.448-2.544C12.515,27.852,1.5,30.6,1.5,36.119v7H57.467v-7C57.467,30.6,46.452,27.852,40.931,27.852ZM30.755,39.3H5.316v-3.18c0-1.374,6.513-4.452,12.72-4.452s12.72,3.078,12.72,4.452Zm22.9,0H34.571v-3.18a4.629,4.629,0,0,0-1.323-3.1,24.543,24.543,0,0,1,7.683-1.348c6.207,0,12.72,3.078,12.72,4.452ZM18.036,25.308a8.9,8.9,0,1,0-8.9-8.9A8.914,8.914,0,0,0,18.036,25.308Zm0-13.992A5.088,5.088,0,1,1,12.948,16.4,5.1,5.1,0,0,1,18.036,11.316Zm22.9,13.992a8.9,8.9,0,1,0-8.9-8.9A8.914,8.914,0,0,0,40.931,25.308Zm0-13.992A5.088,5.088,0,1,1,35.843,16.4,5.1,5.1,0,0,1,40.931,11.316Z" transform="translate(408.533 5510.651)"/>
    <g id="Grupo_181913" data-name="Grupo 181913" transform="translate(239.298 5802.11)">
      <g id="Grupo_181912" data-name="Grupo 181912" clip-path="url(#clip-path-3)">
        <path id="Trazado_211010" data-name="Trazado 211010" d="M259.954,0q-11.122,17.534-2.808,34.357Q268.379,25.61,259.954,0" transform="translate(-238.244)" fill="#061321" fill-rule="evenodd"/>
        <path id="Trazado_211011" data-name="Trazado 211011" d="M401.327,298.07q-18.679.32-22.8,16.155,13.448,4.492,22.8-16.155" transform="translate(-355.625 -280.033)" fill="#061321" fill-rule="evenodd"/>
        <path id="Trazado_211012" data-name="Trazado 211012" d="M0,368.531q14.1.243,17.211,12.2Q7.052,384.118,0,368.531" transform="translate(0 -346.23)" fill="#061321" fill-rule="evenodd"/>
      </g>
    </g>
    <g id="Grupo_183099" data-name="Grupo 183099" transform="translate(3981.429 11603.102)">
      <ellipse id="Elipse_5575" data-name="Elipse 5575" cx="102" cy="101.5" rx="102" ry="101.5" transform="translate(-3646.429 -5959.102)" fill="#00a3be"/>
      <path id="Trazado_214076" data-name="Trazado 214076" d="M482.422,555.26c10.317.966,17.746,1.482,24.555,14.689s19.192,49.441,19.192,49.441l-3.986,8.47s-1.993,4.733-8.22,11.957-.5.747-8.719,11.459c-4.127-1.341-4.187,7.827-6.477,4.484-8.8-12.843-18.271-51.35-18.271-51.35Z" transform="translate(-3977.12 -6434.844)" fill="#ececec"/>
      <path id="Trazado_214078" data-name="Trazado 214078" d="M272.094,587.138c1.51-25.2-7.222-34.912-18.535-37.392a131.147,131.147,0,0,0-34.951-1.139c-17.352,3.272-37.565,10.389-49.465,14.51,0,0-2.905,4.258-6.1,21.869-2.269,12.512-4.9,27.521-8.241,51.286-2.044,14.53-9.958,21.356,0,25.377,2.41,1.016,11.221,6.417,14.34,7.224,30.763,11.21,69.239,8.933,100.447-16.9,3.795-7.74-4.178-10.883-4.169-21.4.871-18.375,6.2-35.512,6.673-43.431" transform="translate(-3748.257 -6429.772)" fill="#f5f5f5"/>
      <path id="Trazado_214079" data-name="Trazado 214079" d="M363.982,276.622a16.108,16.108,0,0,0,1.99-2.9c.814-1.475,2.171-4.822.681-6.208,2.293-1.172,4.642-3.253,4.7-6.029.056-2.636-2.039-2.733-4.143-2.9,4.9-1.985,7.452-6.838,8.072-8.452s.636-3.148.16-3.731c-.681-.832-1.43.114-5.8.317a24.5,24.5,0,0,1-13.361-3.561,48.667,48.667,0,0,0-10.558-5,59.721,59.721,0,0,0-11.578-2.762c-8.309-1.086-31.569.912-34.726,16.545-11.235,1.427-13.346,19.4-10.432,27.126,5.366,14.222,10.643,23.693,13.239,33.89.593-.389,38.844-20.658,47.653-26.426l9.9-6.483a19.445,19.445,0,0,0,4.2-3.423" transform="translate(-3843.959 -6213.622)" fill="#2b454e"/>
      <path id="Trazado_214080" data-name="Trazado 214080" d="M337.928,323.841c4.985-1.985,9.243-6.335,10.047-11.641l-2.954-3.652c-8.477,4.109-24.08,3.334-27.765,4.36s7.708,2.1,14.542,2.475c1.553.226.571,1.011-1.768,1.419a46.95,46.95,0,0,1-8.324.638c-1.452.043-1.454,1.047.5,1.718a27.758,27.758,0,0,0,6.853.973c-.638,1.121-4.884,1.721-6.168,1.836-2.49.223-4.95-.461-7,.238s3.954,2.168,6.182,2.574c5.279.96,10.873,1.047,15.857-.939" transform="translate(-3863.073 -6264.347)" fill="#375a64"/>
      <path id="Trazado_214081" data-name="Trazado 214081" d="M289.227,348.493c6.46,5.231,10.972.634,10.972.634l-1.51,33.963c8.166,11.547,28.373,16.623,34.782,21.9,1.742-3.5,3.641-13.562-.028-21.526l.669-8.12a43.189,43.189,0,0,0,9.046-.077,22.9,22.9,0,0,0,7.9-2.493c3.91-2.178,6.061-4.752,8.16-9.934,3.189-7.872,3.892-25.56,3.031-31.385,1.258-11.147.828-17.56-2.158-24.313-5.687-5.452-21.81-6.5-36.769-2.885-.42,3.684-1.61,6.74-4.729,10.67a15.619,15.619,0,0,1-5.834,4.207c-.692,7.158-1.062,9.081-2.524,12.191-.814,1.792-2.392,4.462-5.984,2.988-1.7-.7-2.813-4.559-4.487-7.166-2.251-3.506-9.708-5.418-13.662,1.809-4,7.362-1.284,15.929,3.123,19.535" transform="translate(-3841.435 -6259.92)" fill="#ffaaa9"/>
      <path id="Trazado_214082" data-name="Trazado 214082" d="M377.664,484.253c-7.432-1.055-20.614-4.432-24.272-9.151s-6.206-15.362-6.206-15.362.991,11.879,3.691,17.137,9.071,7.6,13.716,9.226,12.707,2.665,12.707,2.665Z" transform="translate(-3884.992 -6368.832)" fill="#ff9090"/>
      <path id="Trazado_214083" data-name="Trazado 214083" d="M426.6,346.8l-7.566,1.861a4.089,4.089,0,0,1,2.947-4.831,3.8,3.8,0,0,1,4.619,2.97" transform="translate(-3934.582 -6288.657)" fill="#1a2e35"/>
      <path id="Trazado_214084" data-name="Trazado 214084" d="M505.438,350.426l7.523,2.028a4.088,4.088,0,0,0-2.84-4.894,3.8,3.8,0,0,0-4.683,2.866" transform="translate(-3994.357 -6291.217)" fill="#1a2e35"/>
      <path id="Trazado_214085" data-name="Trazado 214085" d="M432.745,460.282l9.561,4.127a5.465,5.465,0,0,1-7.039,2.765,5.081,5.081,0,0,1-2.521-6.892" transform="translate(-3943.769 -6369.207)" fill="#c76668"/>
      <path id="Trazado_214086" data-name="Trazado 214086" d="M432.97,466.891a5.084,5.084,0,0,1,4.865,5.224,5.175,5.175,0,0,1-2.559-.375,5.015,5.015,0,0,1-3.023-4.807,5.053,5.053,0,0,1,.717-.042" transform="translate(-3943.778 -6373.773)" fill="#ff9090"/>
      <path id="Trazado_214087" data-name="Trazado 214087" d="M406.349,372.1c-.469-.074-.959-.146-1.467-.213-4.738-.631-10.968-.989-14.809-.107-4.813,1.112-6.586,2.483-9.2,2.4-2.791-.112-4.446-1.609-9.381-3.073-3.935-1.159-10.617-1.267-15.76-.991-.552.03-1.088.065-1.6.1l-17.122,5.063c.51,1,1.137,2.293,1.513,3.05l14.391-3.882c.221.322.445.611.591.824a3.073,3.073,0,0,1,.435,1.115c.4,1.908.457,5.538,1.353,7.587a8.986,8.986,0,0,0,1.815,2.774,7.829,7.829,0,0,0,.971.835c.185.131.37.255.569.379a9.4,9.4,0,0,0,1.714.816c.1.035.194.07.291.1.149.047.3.1.462.142s.318.084.485.126a12.894,12.894,0,0,0,1.549.275c.214.031.438.054.666.075.268.02.549.039.838.05,6.484.259,9.4-2.4,11.231-5.2s1.723-6.831,4.712-6.713c.1.005.194.011.284.025a2.1,2.1,0,0,1,.261.048c2.174.542,1.622,4.221,2.811,6.932a10.343,10.343,0,0,0,1.9,2.981c.15.162.3.316.47.467.083.079.167.15.254.221s.175.144.267.214.161.123.245.181c.143.1.2.142.266.182s.139.091.213.133c.047.031.1.062.147.091a9.791,9.791,0,0,0,2.512,1.019c.076.019.155.04.235.058a15.22,15.22,0,0,0,3.138.4c6.074.2,8.41-2.911,9.557-4.887s1.794-5.572,2.427-7.453a2.335,2.335,0,0,1,.628-.967,5.163,5.163,0,0,0,1.581-2.724,2.2,2.2,0,0,0-1.446-2.46m-31.935,9.511a8.562,8.562,0,0,1-2.553,3.887h0c-1.493,1.251-3.767,2.185-7.242,2.01-3.514-.174-5.464-1.56-6.576-3.141-.07-.1-.137-.2-.194-.292s-.123-.194-.177-.29-.1-.18-.147-.272-.083-.163-.12-.244a1.929,1.929,0,0,1-.089-.193q-.045-.09-.077-.174c-.04-.1-.08-.2-.116-.29v0a8.684,8.684,0,0,1-.276-.846c0-.006,0-.012-.007-.021-.047-.173-.091-.343-.129-.505-.068-.294-.12-.57-.161-.812-.009-.053-.017-.106-.026-.156l-.027-.149c-.349-2.009-.643-5.943.539-6.785,1.141-.81,4.2-1.651,9-1.055.163.013.336.036.511.063.735.105,1.465.243,2.18.419.285.067.565.142.841.218a20.445,20.445,0,0,1,2.1.7c.223.088.437.178.638.268.244.1.473.217.69.33.046.023.092.046.137.072a2.8,2.8,0,0,1,.25.139,4.155,4.155,0,0,1,1.366,1.1c.872,1.256.386,3.827-.331,6.022m28.229.172c-.492,1.54-1.551,4.865-5.047,6.209a9.438,9.438,0,0,1-3.645.572c-3.83-.075-5.886-1.573-6.991-3.243a.22.22,0,0,1-.018-.03c-.044-.065-.083-.127-.119-.188s-.09-.148-.129-.217c-.021-.036-.043-.075-.064-.113-.057-.107-.113-.216-.161-.322-.059-.125-.114-.248-.165-.375-.027-.06-.051-.121-.074-.182-.014-.036-.024-.068-.037-.1-.02-.052-.036-.1-.053-.153s-.03-.082-.039-.118a9.14,9.14,0,0,1-.351-1.5c-.326-2.232-.392-4.82.611-6.01s4.667-2.4,8.126-2.658c.8-.059,1.541-.08,2.23-.067l.263.007.283.011c.263.01.521.029.767.047.093.007.185.015.279.025.124.014.245.025.361.041.206.022.406.051.6.083.393.062.761.134,1.1.218.087.022.175.044.259.067a.368.368,0,0,1,.068.019c.055.015.115.03.175.05.087.022.178.052.261.079.107.032.214.071.313.105.186.067.354.135.511.208a.89.89,0,0,1,.09.04,4.222,4.222,0,0,1,1.14.716c.97.915.085,4.81-.539,6.784" transform="translate(-3877.962 -6306.809)" fill="#1a2e35"/>
      <path id="Trazado_214088" data-name="Trazado 214088" d="M424.66,390.308a3.189,3.189,0,1,0,3.367-3,3.189,3.189,0,0,0-3.367,3" transform="translate(-3938.529 -6318.773)" fill="#1a2e35"/>
      <path id="Trazado_214089" data-name="Trazado 214089" d="M502.5,393.357a3.189,3.189,0,1,0,3.367-3,3.189,3.189,0,0,0-3.367,3" transform="translate(-3992.32 -6320.88)" fill="#1a2e35"/>
      <path id="Trazado_214090" data-name="Trazado 214090" d="M479.544,407.044l-.2.064-12.082,4.516-.733-12.547c.863-2.272,1.38-4.431,3.574-4.345a1.435,1.435,0,0,1,.287.029,1.4,1.4,0,0,1,.268.046c.018,0,.018,0,.035.02l1.658,2.28Z" transform="translate(-3967.467 -6323.906)" fill="#ff9090"/>
      <path id="Trazado_214091" data-name="Trazado 214091" d="M456.372,630.472a14.031,14.031,0,0,0,2.31-7.386l-4.732-4.475-.942,6.577Z" transform="translate(-3958.124 -6478.624)" fill="#2b454e"/>
      <path id="Trazado_214092" data-name="Trazado 214092" d="M379.665,618.549l-12.533-9.471-11.185,6.737,19.418,11.174Z" transform="translate(-3891.047 -6472.036)" fill="#2b454e"/>
      <path id="Trazado_214093" data-name="Trazado 214093" d="M305.945,524.052l-.207,4.654c-.019,2.671,2.488,7.937,14.022,16.269,5.278,3.812,11.675,5.53,14.94,7.774a17.541,17.541,0,0,1,5.475,5.6s-3.672-2.759-10.465.911c-5.521,2.984-12.416,7.652-15.147,7.015-2.658-.619-8.605-4.961-14.247-14a76.847,76.847,0,0,1-6.458-12.191s2.929-3.767,5.567-7.561c3.319-4.772,3.864-8.469,6.52-8.469" transform="translate(-3848.139 -6413.276)" fill="#ececec"/>
      <path id="Trazado_214094" data-name="Trazado 214094" d="M443.727,568.761c6.525-6.563,9.6,3.035,11.08,1.578,1.105-1.091-1.116-21.92-10.437-31.223l-.67,8.119Z" transform="translate(-3951.69 -6423.688)" fill="#ececec"/>
      <path id="Trazado_214095" data-name="Trazado 214095" d="M421.8,687.68c.2,7.935-.517,26.654-3.9,52.761-.829,6.4,6.83,20.6,9.063,20.608s7.844-11.687,9.333-18.7c1.335-17.276-5.592-45.251-8.948-54.932Z" transform="translate(-3932.365 -6526.174)" fill="#375a64"/>
      <path id="Trazado_214096" data-name="Trazado 214096" d="M440.144,688.357c-.1-.327-.2-.651-.3-.94l-6.652.315.037,2.782a11.366,11.366,0,0,0,6.914-2.158" transform="translate(-3944.43 -6526.174)" fill="#2b454e"/>
      <path id="Trazado_214097" data-name="Trazado 214097" d="M423.1,639.378a28.228,28.228,0,0,1,6.267.051,14.9,14.9,0,0,1,3.363,5.284s-.4,5.824-2.832,9.395a7.947,7.947,0,0,1-6.652.315s-3.585-2.854-4.446-6.605c-.016-3.19,2.779-7.6,4.3-8.44" transform="translate(-3934.485 -6492.865)" fill="#375a64"/>
      <path id="Trazado_214103" data-name="Trazado 214103" d="M128.666,609.078c-12.993,5.034-18.943,8.434-24.407,28.834s-7.175,21.432-9.846,36.854-1.246,13.95-1,14.2c37.615,31.637,34.183,17.322,38.724,21.871l-1.531-3.923s9.836-40.465,11.779-49.815,4.426-40.318-13.721-48.02" transform="translate(-3707.78 -6472.036)" fill="#ececec"/>
    </g>
  </g>
</svg>
