<svg xmlns="http://www.w3.org/2000/svg" xmlns:xlink="http://www.w3.org/1999/xlink" width="820" height="515.39" viewBox="0 0 820 515.39">
  <defs>
    <filter id="Trazado_214710">
      <feOffset dy="6" input="SourceAlpha"/>
      <feGaussianBlur stdDeviation="7" result="blur"/>
      <feFlood flood-opacity="0.161" result="color"/>
      <feComposite operator="out" in="SourceGraphic" in2="blur"/>
      <feComposite operator="in" in="color"/>
      <feComposite operator="in" in2="SourceGraphic"/>
    </filter>
  </defs>
  <g id="Grupo_183474" data-name="Grupo 183474" transform="translate(-390 -1862.305)">
    <path id="Trazado_214700" data-name="Trazado 214700" d="M0,0H408a10,10,0,0,1,10,10V42a10,10,0,0,1-10,10H0Z" transform="translate(687 2035.695)" fill="#00a3be"/>
    <path id="Trazado_214701" data-name="Trazado 214701" d="M0,0H408a10,10,0,0,1,10,10V42a10,10,0,0,1-10,10H0Z" transform="translate(687 2087.695)" fill="#32d9cb"/>
    <path id="Trazado_214702" data-name="Trazado 214702" d="M0,0H408a10,10,0,0,1,10,10V43a10,10,0,0,1-10,10H0Z" transform="translate(687 2139.695)" fill="#a6e65a"/>
    <path id="Trazado_214703" data-name="Trazado 214703" d="M0,0H408a10,10,0,0,1,10,10V42a10,10,0,0,1-10,10H0Z" transform="translate(687 2192.695)" fill="#afafaf"/>
    <path id="Trazado_214704" data-name="Trazado 214704" d="M0,0H408a10,10,0,0,1,10,10V43a10,10,0,0,1-10,10H0Z" transform="translate(687 2244.695)" fill="#f37f4c"/>
    <path id="Trazado_214705" data-name="Trazado 214705" d="M-78.534-3.3h7.458V0H-82.819V-17.773h4.285ZM-65.118,0h-4.126V-18.75h4.126Zm10.4-1.428A4.241,4.241,0,0,1-58.246.244a4.16,4.16,0,0,1-3.29-1.263,5.314,5.314,0,0,1-1.117-3.632v-8.557h4.114v8.582a1.479,1.479,0,0,0,1.648,1.7,2.15,2.15,0,0,0,2.014-1.013v-9.265h4.138V0H-54.6Zm11.5-3.467,2.087-8.313H-36.8L-41.107,0h-4.2l-4.309-13.208h4.346ZM-31.232,0h-4.126V-13.208h4.126ZM-35.6-16.626a1.852,1.852,0,0,1,.635-1.449,2.386,2.386,0,0,1,1.648-.565,2.386,2.386,0,0,1,1.648.565,1.852,1.852,0,0,1,.635,1.449,1.852,1.852,0,0,1-.635,1.449,2.386,2.386,0,0,1-1.648.565,2.386,2.386,0,0,1-1.648-.565A1.852,1.852,0,0,1-35.6-16.626ZM-21.259,0a4.645,4.645,0,0,1-.391-1.184A3.825,3.825,0,0,1-24.823.244,4.686,4.686,0,0,1-28-.885,3.594,3.594,0,0,1-29.3-3.723,3.694,3.694,0,0,1-27.716-6.97a8.085,8.085,0,0,1,4.614-1.1h1.27v-.7q0-1.828-1.575-1.828a1.287,1.287,0,0,0-1.465,1.447h-4.114a3.688,3.688,0,0,1,1.63-3.109A6.849,6.849,0,0,1-23.2-13.452a6,6,0,0,1,3.992,1.233,4.287,4.287,0,0,1,1.5,3.381v5.847a5.988,5.988,0,0,0,.562,2.783V0Zm-2.576-2.686a2.3,2.3,0,0,0,1.276-.33,2.066,2.066,0,0,0,.726-.745V-5.872h-1.2q-2.148,0-2.148,1.929a1.178,1.178,0,0,0,.378.909A1.369,1.369,0,0,0-23.834-2.686ZM-9.723-6.7a8.068,8.068,0,0,1,1.355-4.944,4.46,4.46,0,0,1,3.784-1.807,3.793,3.793,0,0,1,2.979,1.392V-18.75H2.521V0h-3.7l-.208-1.416A3.9,3.9,0,0,1-4.608.244,4.452,4.452,0,0,1-8.344-1.562,8.324,8.324,0,0,1-9.723-6.7Zm4.114.256q0,3.516,2.051,3.516A2.025,2.025,0,0,0-1.605-4.077V-9.106a1.971,1.971,0,0,0-1.929-1.172q-1.9,0-2.063,3.076ZM11.249.244A6.79,6.79,0,0,1,6.329-1.569a6.26,6.26,0,0,1-1.88-4.718v-.342A8.111,8.111,0,0,1,5.2-10.205a5.493,5.493,0,0,1,2.191-2.4,6.615,6.615,0,0,1,3.418-.848A5.717,5.717,0,0,1,15.2-11.725a6.788,6.788,0,0,1,1.611,4.816v1.6H8.636A2.965,2.965,0,0,0,9.6-3.564a2.869,2.869,0,0,0,1.929.635A3.7,3.7,0,0,0,14.581-4.3l1.88,2.222A5.255,5.255,0,0,1,14.282-.385,7.363,7.363,0,0,1,11.249.244Zm-.464-10.522q-1.807,0-2.148,2.393h4.15V-8.2a2.038,2.038,0,0,0-.5-1.532A1.992,1.992,0,0,0,10.785-10.278ZM29.034,0H24.908V-13.208h4.126Zm-4.37-16.626a1.852,1.852,0,0,1,.635-1.449,2.386,2.386,0,0,1,1.648-.565,2.386,2.386,0,0,1,1.648.565,1.852,1.852,0,0,1,.635,1.449,1.852,1.852,0,0,1-.635,1.449,2.386,2.386,0,0,1-1.648.565,2.386,2.386,0,0,1-1.648-.565A1.852,1.852,0,0,1,24.664-16.626ZM31.049-6.7A8.068,8.068,0,0,1,32.4-11.646a4.46,4.46,0,0,1,3.784-1.807,3.793,3.793,0,0,1,2.979,1.392V-18.75h4.126V0h-3.7l-.208-1.416A3.9,3.9,0,0,1,36.163.244a4.452,4.452,0,0,1-3.735-1.807A8.324,8.324,0,0,1,31.049-6.7Zm4.114.256q0,3.516,2.051,3.516a2.025,2.025,0,0,0,1.953-1.147V-9.106a1.971,1.971,0,0,0-1.929-1.172q-1.9,0-2.063,3.076ZM52.02.244A6.79,6.79,0,0,1,47.1-1.569a6.26,6.26,0,0,1-1.88-4.718v-.342a8.111,8.111,0,0,1,.751-3.577,5.493,5.493,0,0,1,2.191-2.4,6.615,6.615,0,0,1,3.418-.848,5.717,5.717,0,0,1,4.395,1.727,6.788,6.788,0,0,1,1.611,4.816v1.6H49.408a2.965,2.965,0,0,0,.964,1.746A2.869,2.869,0,0,0,52.3-2.93,3.7,3.7,0,0,0,55.353-4.3l1.88,2.222A5.255,5.255,0,0,1,55.054-.385,7.363,7.363,0,0,1,52.02.244Zm-.464-10.522q-1.807,0-2.148,2.393h4.15V-8.2a2.038,2.038,0,0,0-.5-1.532A1.992,1.992,0,0,0,51.556-10.278ZM66.681,0a4.645,4.645,0,0,1-.391-1.184A3.825,3.825,0,0,1,63.116.244,4.686,4.686,0,0,1,59.943-.885a3.594,3.594,0,0,1-1.306-2.838A3.694,3.694,0,0,1,60.223-6.97a8.085,8.085,0,0,1,4.614-1.1h1.27v-.7q0-1.828-1.575-1.828a1.287,1.287,0,0,0-1.465,1.447H58.954a3.688,3.688,0,0,1,1.63-3.109,6.849,6.849,0,0,1,4.156-1.195,6,6,0,0,1,3.992,1.233,4.287,4.287,0,0,1,1.5,3.381v5.847a5.988,5.988,0,0,0,.562,2.783V0ZM64.105-2.686a2.3,2.3,0,0,0,1.276-.33,2.066,2.066,0,0,0,.726-.745V-5.872h-1.2q-2.148,0-2.148,1.929a1.178,1.178,0,0,0,.378.909A1.369,1.369,0,0,0,64.105-2.686Zm15.32-1.025a.95.95,0,0,0-.549-.842,8.356,8.356,0,0,0-2.087-.659,9.519,9.519,0,0,1-2.539-.9,4.253,4.253,0,0,1-1.526-1.349A3.221,3.221,0,0,1,72.2-9.277a3.651,3.651,0,0,1,1.5-3,6.185,6.185,0,0,1,3.931-1.178,6.853,6.853,0,0,1,4.2,1.184,3.7,3.7,0,0,1,1.587,3.113H79.291q0-1.587-1.672-1.587a1.658,1.658,0,0,0-1.086.36,1.115,1.115,0,0,0-.439.9,1.023,1.023,0,0,0,.537.891,5.075,5.075,0,0,0,1.715.562,14.821,14.821,0,0,1,2.069.525q2.979,1.025,2.979,3.674A3.459,3.459,0,0,1,81.787-.891,7.039,7.039,0,0,1,77.631.244,7.184,7.184,0,0,1,74.6-.366a5.062,5.062,0,0,1-2.075-1.66,3.759,3.759,0,0,1-.745-2.209h3.845a1.59,1.59,0,0,0,.61,1.337,2.511,2.511,0,0,0,1.5.421A1.975,1.975,0,0,0,79-2.82,1.093,1.093,0,0,0,79.425-3.711Z" transform="translate(945 2072.695)" fill="#12263f"/>
    <path id="Trazado_214706" data-name="Trazado 214706" d="M-68.628-3.32H-74.5L-75.525,0H-80.1l6.519-17.773h4.028L-62.988,0h-4.6Zm-4.846-3.308h3.821l-1.917-6.165Zm14.783-6.58.134,1.55a4.479,4.479,0,0,1,3.772-1.794A3.768,3.768,0,0,1-51.7-12.219a5.87,5.87,0,0,1,1.056,3.711V0h-4.126V-8.337a2.229,2.229,0,0,0-.4-1.471,1.864,1.864,0,0,0-1.465-.47,1.962,1.962,0,0,0-1.794.952V0h-4.114V-13.208ZM-40.93,0a4.645,4.645,0,0,1-.391-1.184A3.825,3.825,0,0,1-44.495.244,4.686,4.686,0,0,1-47.668-.885a3.594,3.594,0,0,1-1.306-2.838A3.694,3.694,0,0,1-47.388-6.97a8.085,8.085,0,0,1,4.614-1.1h1.27v-.7q0-1.828-1.575-1.828a1.287,1.287,0,0,0-1.465,1.447h-4.114a3.688,3.688,0,0,1,1.63-3.109,6.849,6.849,0,0,1,4.156-1.195,6,6,0,0,1,3.992,1.233,4.287,4.287,0,0,1,1.5,3.381v5.847a5.988,5.988,0,0,0,.562,2.783V0Zm-2.576-2.686a2.3,2.3,0,0,0,1.276-.33A2.066,2.066,0,0,0-41.5-3.76V-5.872h-1.2q-2.148,0-2.148,1.929a1.178,1.178,0,0,0,.378.909A1.369,1.369,0,0,0-43.506-2.686ZM-42.48-18.75h4.346l-3.394,3.833-3.357-.006ZM-30.762,0h-4.126V-18.75h4.126Zm6.873,0h-4.126V-13.208h4.126Zm-4.37-16.626a1.852,1.852,0,0,1,.635-1.449,2.386,2.386,0,0,1,1.648-.565,2.386,2.386,0,0,1,1.648.565,1.852,1.852,0,0,1,.635,1.449,1.852,1.852,0,0,1-.635,1.449,2.386,2.386,0,0,1-1.648.565,2.386,2.386,0,0,1-1.648-.565A1.852,1.852,0,0,1-28.259-16.626ZM-14.441-3.711a.95.95,0,0,0-.549-.842,8.356,8.356,0,0,0-2.087-.659,9.519,9.519,0,0,1-2.539-.9,4.253,4.253,0,0,1-1.526-1.349,3.221,3.221,0,0,1-.525-1.819,3.651,3.651,0,0,1,1.5-3,6.185,6.185,0,0,1,3.931-1.178,6.853,6.853,0,0,1,4.2,1.184,3.7,3.7,0,0,1,1.587,3.113h-4.126q0-1.587-1.672-1.587a1.658,1.658,0,0,0-1.086.36,1.115,1.115,0,0,0-.439.9,1.023,1.023,0,0,0,.537.891,5.075,5.075,0,0,0,1.715.562,14.821,14.821,0,0,1,2.069.525q2.979,1.025,2.979,3.674A3.459,3.459,0,0,1-12.079-.891,7.039,7.039,0,0,1-16.235.244a7.184,7.184,0,0,1-3.027-.61,5.062,5.062,0,0,1-2.075-1.66,3.759,3.759,0,0,1-.745-2.209h3.845a1.59,1.59,0,0,0,.61,1.337,2.511,2.511,0,0,0,1.5.421,1.975,1.975,0,0,0,1.263-.342A1.093,1.093,0,0,0-14.441-3.711ZM-4.211,0H-8.337V-13.208h4.126Zm-4.37-16.626a1.852,1.852,0,0,1,.635-1.449A2.386,2.386,0,0,1-6.3-18.64a2.386,2.386,0,0,1,1.648.565,1.852,1.852,0,0,1,.635,1.449,1.852,1.852,0,0,1-.635,1.449,2.386,2.386,0,0,1-1.648.565,2.386,2.386,0,0,1-1.648-.565A1.852,1.852,0,0,1-8.582-16.626ZM5.237-3.711a.95.95,0,0,0-.549-.842A8.356,8.356,0,0,0,2.6-5.212a9.519,9.519,0,0,1-2.539-.9A4.253,4.253,0,0,1-1.465-7.458,3.221,3.221,0,0,1-1.99-9.277a3.651,3.651,0,0,1,1.5-3,6.185,6.185,0,0,1,3.931-1.178,6.853,6.853,0,0,1,4.2,1.184A3.7,3.7,0,0,1,9.229-9.155H5.1q0-1.587-1.672-1.587a1.658,1.658,0,0,0-1.086.36,1.115,1.115,0,0,0-.439.9,1.023,1.023,0,0,0,.537.891,5.075,5.075,0,0,0,1.715.562,14.821,14.821,0,0,1,2.069.525Q9.2-6.482,9.2-3.833A3.459,3.459,0,0,1,7.6-.891,7.039,7.039,0,0,1,3.442.244,7.184,7.184,0,0,1,.415-.366,5.062,5.062,0,0,1-1.66-2.026,3.759,3.759,0,0,1-2.4-4.236H1.44A1.59,1.59,0,0,0,2.051-2.9a2.511,2.511,0,0,0,1.5.421A1.975,1.975,0,0,0,4.816-2.82,1.093,1.093,0,0,0,5.237-3.711Zm23.5-3.369H21.826V0H17.542V-17.773h11.89v3.308h-7.6v4.089h6.909Zm17.529-1.44a10.481,10.481,0,0,1-.964,4.6A7.127,7.127,0,0,1,42.56-.836,7.631,7.631,0,0,1,38.513.244,7.739,7.739,0,0,1,34.485-.8a7.115,7.115,0,0,1-2.74-2.985A10.179,10.179,0,0,1,30.713-8.24v-1a10.527,10.527,0,0,1,.958-4.608,7.11,7.11,0,0,1,2.747-3.082,7.684,7.684,0,0,1,4.071-1.086,7.609,7.609,0,0,1,4.028,1.074,7.238,7.238,0,0,1,2.753,3.058,10.225,10.225,0,0,1,.995,4.547Zm-4.358-.745a7.474,7.474,0,0,0-.885-4.022,2.839,2.839,0,0,0-2.533-1.373q-3.223,0-3.406,4.834l-.012,1.306A7.687,7.687,0,0,0,35.938-4.5a2.834,2.834,0,0,0,2.576,1.4,2.8,2.8,0,0,0,2.5-1.379,7.477,7.477,0,0,0,.891-3.967ZM48.474,0V-17.773H54.2a8.422,8.422,0,0,1,4.236,1.068,7.508,7.508,0,0,1,2.936,3.015,9.1,9.1,0,0,1,1.068,4.364v.818a9.156,9.156,0,0,1-1.031,4.376A7.54,7.54,0,0,1,58.5-1.1,8.236,8.236,0,0,1,54.321,0Zm4.285-14.465V-3.3h1.489A3.333,3.333,0,0,0,57.08-4.608a6.431,6.431,0,0,0,.989-3.9v-.769a6.378,6.378,0,0,0-.989-3.882A3.391,3.391,0,0,0,54.2-14.465ZM74.475-3.32H68.6L67.578,0H63l6.519-17.773h4.028L80.115,0h-4.6ZM69.629-6.628H73.45l-1.917-6.165Z" transform="translate(946 2124.695)" fill="#12263f"/>
    <path id="Trazado_214707" data-name="Trazado 214707" d="M-88.629-6.018a6.491,6.491,0,0,1-1,3.278,6.041,6.041,0,0,1-2.57,2.2,8.746,8.746,0,0,1-3.778.781A6.979,6.979,0,0,1-101.5-2.039a9.425,9.425,0,0,1-2.014-6.445v-.879a10.758,10.758,0,0,1,.909-4.572,6.891,6.891,0,0,1,2.618-3.027,7.306,7.306,0,0,1,3.955-1.068,7.661,7.661,0,0,1,5.2,1.7,6.728,6.728,0,0,1,2.234,4.694h-4.272a3.183,3.183,0,0,0-.818-2.332,3.364,3.364,0,0,0-2.344-.708,2.559,2.559,0,0,0-2.344,1.2,7.689,7.689,0,0,0-.781,3.821V-8.4a8.508,8.508,0,0,0,.714,4.065,2.613,2.613,0,0,0,2.46,1.221,3.29,3.29,0,0,0,2.258-.7,2.953,2.953,0,0,0,.83-2.209ZM-78.8-9.485l-1.355-.1a2.434,2.434,0,0,0-2.49,1.221V0h-4.114V-13.208H-82.9l.134,1.7a3.186,3.186,0,0,1,2.893-1.941,4.012,4.012,0,0,1,1.147.146ZM-71.161.244A6.79,6.79,0,0,1-76.08-1.569a6.26,6.26,0,0,1-1.88-4.718v-.342a8.111,8.111,0,0,1,.751-3.577,5.493,5.493,0,0,1,2.191-2.4,6.615,6.615,0,0,1,3.418-.848,5.717,5.717,0,0,1,4.395,1.727,6.788,6.788,0,0,1,1.611,4.816v1.6h-8.179a2.965,2.965,0,0,0,.964,1.746,2.869,2.869,0,0,0,1.929.635A3.7,3.7,0,0,0-67.828-4.3l1.88,2.222A5.255,5.255,0,0,1-68.127-.385,7.363,7.363,0,0,1-71.161.244Zm-.464-10.522q-1.807,0-2.148,2.393h4.15V-8.2a2.038,2.038,0,0,0-.5-1.532A1.992,1.992,0,0,0-71.625-10.278ZM-56.5,0a4.645,4.645,0,0,1-.391-1.184A3.825,3.825,0,0,1-60.065.244,4.686,4.686,0,0,1-63.239-.885a3.594,3.594,0,0,1-1.306-2.838A3.694,3.694,0,0,1-62.958-6.97a8.085,8.085,0,0,1,4.614-1.1h1.27v-.7q0-1.828-1.575-1.828a1.287,1.287,0,0,0-1.465,1.447h-4.114a3.688,3.688,0,0,1,1.63-3.109,6.849,6.849,0,0,1,4.156-1.195,6,6,0,0,1,3.992,1.233,4.287,4.287,0,0,1,1.5,3.381v5.847a5.988,5.988,0,0,0,.562,2.783V0Zm-2.576-2.686a2.3,2.3,0,0,0,1.276-.33,2.066,2.066,0,0,0,.726-.745V-5.872h-1.2q-2.148,0-2.148,1.929a1.178,1.178,0,0,0,.378.909A1.369,1.369,0,0,0-59.076-2.686Zm13.989-.244a1.83,1.83,0,0,0,1.343-.47,1.723,1.723,0,0,0,.464-1.312h3.857a4.566,4.566,0,0,1-1.556,3.564A5.789,5.789,0,0,1-44.989.244,5.862,5.862,0,0,1-49.53-1.562a7.118,7.118,0,0,1-1.66-5v-.171a8.045,8.045,0,0,1,.739-3.534,5.377,5.377,0,0,1,2.13-2.356,6.351,6.351,0,0,1,3.3-.824,5.716,5.716,0,0,1,4.089,1.428,5.066,5.066,0,0,1,1.514,3.87H-43.28a2.258,2.258,0,0,0-.5-1.575,1.728,1.728,0,0,0-1.343-.549q-1.6,0-1.868,2.039a14.385,14.385,0,0,0-.085,1.782A5.65,5.65,0,0,0-46.6-3.7,1.648,1.648,0,0,0-45.087-2.93ZM-33.344,0h-4.126V-13.208h4.126Zm-4.37-16.626a1.852,1.852,0,0,1,.635-1.449,2.386,2.386,0,0,1,1.648-.565,2.386,2.386,0,0,1,1.648.565,1.852,1.852,0,0,1,.635,1.449,1.852,1.852,0,0,1-.635,1.449,2.386,2.386,0,0,1-1.648.565,2.386,2.386,0,0,1-1.648-.565A1.852,1.852,0,0,1-37.714-16.626Zm6.384,9.9a7.8,7.8,0,0,1,.769-3.522,5.5,5.5,0,0,1,2.209-2.374,6.654,6.654,0,0,1,3.381-.83,6.073,6.073,0,0,1,4.675,1.837,7.05,7.05,0,0,1,1.709,5v.146a6.84,6.84,0,0,1-1.715,4.9A6.089,6.089,0,0,1-24.945.244a6.159,6.159,0,0,1-4.529-1.691A6.613,6.613,0,0,1-31.317-6.03Zm4.114.256a4.914,4.914,0,0,0,.574,2.686,1.911,1.911,0,0,0,1.7.854q2.2,0,2.246-3.381v-.415q0-3.552-2.271-3.552-2.063,0-2.234,3.064Zm2.808-12.28h4.346l-3.394,3.833-3.357-.006Zm11.414,5.542.134,1.55a4.479,4.479,0,0,1,3.772-1.794,3.768,3.768,0,0,1,3.082,1.233A5.87,5.87,0,0,1-4.95-8.508V0H-9.076V-8.337a2.229,2.229,0,0,0-.4-1.471,1.864,1.864,0,0,0-1.465-.47,1.962,1.962,0,0,0-1.794.952V0h-4.114V-13.208ZM9.137-2.93A1.83,1.83,0,0,0,10.48-3.4a1.723,1.723,0,0,0,.464-1.312H14.8a4.566,4.566,0,0,1-1.556,3.564A5.789,5.789,0,0,1,9.235.244,5.862,5.862,0,0,1,4.694-1.562a7.118,7.118,0,0,1-1.66-5v-.171a8.045,8.045,0,0,1,.739-3.534A5.377,5.377,0,0,1,5.9-12.628a6.351,6.351,0,0,1,3.3-.824,5.716,5.716,0,0,1,4.089,1.428A5.066,5.066,0,0,1,14.8-8.154H10.944a2.258,2.258,0,0,0-.5-1.575A1.728,1.728,0,0,0,9.1-10.278q-1.6,0-1.868,2.039a14.385,14.385,0,0,0-.085,1.782A5.65,5.65,0,0,0,7.623-3.7,1.648,1.648,0,0,0,9.137-2.93Zm6.885-3.8a7.8,7.8,0,0,1,.769-3.522A5.5,5.5,0,0,1,19-12.622a6.654,6.654,0,0,1,3.381-.83,6.073,6.073,0,0,1,4.675,1.837,7.05,7.05,0,0,1,1.709,5v.146a6.84,6.84,0,0,1-1.715,4.9A6.089,6.089,0,0,1,22.406.244a6.159,6.159,0,0,1-4.529-1.691A6.613,6.613,0,0,1,16.034-6.03Zm4.114.256a4.914,4.914,0,0,0,.574,2.686,1.911,1.911,0,0,0,1.7.854q2.2,0,2.246-3.381v-.415q0-3.552-2.271-3.552-2.063,0-2.234,3.064ZM34.918,0H30.792V-18.75h4.126Zm8.923.244a6.79,6.79,0,0,1-4.919-1.813,6.26,6.26,0,0,1-1.88-4.718v-.342a8.111,8.111,0,0,1,.751-3.577,5.493,5.493,0,0,1,2.191-2.4,6.615,6.615,0,0,1,3.418-.848A5.717,5.717,0,0,1,47.8-11.725a6.788,6.788,0,0,1,1.611,4.816v1.6H41.229a2.965,2.965,0,0,0,.964,1.746,2.869,2.869,0,0,0,1.929.635A3.7,3.7,0,0,0,47.174-4.3l1.88,2.222A5.255,5.255,0,0,1,46.875-.385,7.363,7.363,0,0,1,43.842.244Zm-.464-10.522q-1.807,0-2.148,2.393h4.15V-8.2a2.038,2.038,0,0,0-.5-1.532A1.992,1.992,0,0,0,43.378-10.278ZM56.647-2.93A1.83,1.83,0,0,0,57.99-3.4a1.723,1.723,0,0,0,.464-1.312h3.857a4.566,4.566,0,0,1-1.556,3.564A5.789,5.789,0,0,1,56.744.244,5.862,5.862,0,0,1,52.2-1.562a7.118,7.118,0,0,1-1.66-5v-.171a8.045,8.045,0,0,1,.739-3.534,5.377,5.377,0,0,1,2.13-2.356,6.351,6.351,0,0,1,3.3-.824A5.716,5.716,0,0,1,60.8-12.024a5.066,5.066,0,0,1,1.514,3.87H58.453a2.258,2.258,0,0,0-.5-1.575,1.728,1.728,0,0,0-1.343-.549q-1.6,0-1.868,2.039a14.385,14.385,0,0,0-.085,1.782A5.65,5.65,0,0,0,55.133-3.7,1.648,1.648,0,0,0,56.647-2.93ZM68.842-16.492v3.284h2.173v2.856H68.842v6.042a1.543,1.543,0,0,0,.269,1.038,1.44,1.44,0,0,0,1.062.293A6.035,6.035,0,0,0,71.2-3.052V-.11a7.592,7.592,0,0,1-2.319.354,4.309,4.309,0,0,1-3.137-1A4.1,4.1,0,0,1,64.728-3.8v-6.555H63.043v-2.856h1.685v-3.284ZM76.971,0H72.845V-13.208h4.126ZM72.6-16.626a1.852,1.852,0,0,1,.635-1.449,2.386,2.386,0,0,1,1.648-.565,2.386,2.386,0,0,1,1.648.565,1.852,1.852,0,0,1,.635,1.449,1.852,1.852,0,0,1-.635,1.449,2.386,2.386,0,0,1-1.648.565,2.386,2.386,0,0,1-1.648-.565A1.852,1.852,0,0,1,72.6-16.626ZM84.772-4.9l2.087-8.313h4.333L86.884,0h-4.2L78.375-13.208h4.346ZM99.677,0a4.645,4.645,0,0,1-.391-1.184A3.825,3.825,0,0,1,96.112.244,4.686,4.686,0,0,1,92.938-.885a3.594,3.594,0,0,1-1.306-2.838A3.694,3.694,0,0,1,93.219-6.97a8.085,8.085,0,0,1,4.614-1.1H99.1v-.7q0-1.828-1.575-1.828a1.287,1.287,0,0,0-1.465,1.447H91.949a3.688,3.688,0,0,1,1.63-3.109,6.849,6.849,0,0,1,4.156-1.195,6,6,0,0,1,3.992,1.233,4.287,4.287,0,0,1,1.5,3.381v5.847a5.988,5.988,0,0,0,.562,2.783V0ZM97.1-2.686a2.3,2.3,0,0,0,1.276-.33A2.066,2.066,0,0,0,99.1-3.76V-5.872h-1.2q-2.148,0-2.148,1.929a1.178,1.178,0,0,0,.378.909A1.369,1.369,0,0,0,97.1-2.686Z" transform="translate(946 2177.695)" fill="#12263f"/>
    <path id="Trazado_214708" data-name="Trazado 214708" d="M-63.824-6.018a6.491,6.491,0,0,1-1,3.278,6.041,6.041,0,0,1-2.57,2.2,8.746,8.746,0,0,1-3.778.781,6.979,6.979,0,0,1-5.518-2.283A9.425,9.425,0,0,1-78.7-8.484v-.879a10.758,10.758,0,0,1,.909-4.572,6.891,6.891,0,0,1,2.618-3.027,7.306,7.306,0,0,1,3.955-1.068,7.661,7.661,0,0,1,5.2,1.7,6.728,6.728,0,0,1,2.234,4.694H-68.06a3.183,3.183,0,0,0-.818-2.332,3.364,3.364,0,0,0-2.344-.708,2.559,2.559,0,0,0-2.344,1.2,7.689,7.689,0,0,0-.781,3.821V-8.4a8.508,8.508,0,0,0,.714,4.065,2.613,2.613,0,0,0,2.46,1.221,3.29,3.29,0,0,0,2.258-.7,2.953,2.953,0,0,0,.83-2.209Zm1.318-.708a7.8,7.8,0,0,1,.769-3.522,5.5,5.5,0,0,1,2.209-2.374,6.654,6.654,0,0,1,3.381-.83,6.073,6.073,0,0,1,4.675,1.837,7.05,7.05,0,0,1,1.709,5v.146a6.84,6.84,0,0,1-1.715,4.9A6.089,6.089,0,0,1-56.122.244a6.159,6.159,0,0,1-4.529-1.691A6.613,6.613,0,0,1-62.494-6.03Zm4.114.256a4.914,4.914,0,0,0,.574,2.686,1.911,1.911,0,0,0,1.7.854q2.2,0,2.246-3.381v-.415q0-3.552-2.271-3.552-2.063,0-2.234,3.064Zm14.221-6.738.134,1.55a4.479,4.479,0,0,1,3.772-1.794,3.768,3.768,0,0,1,3.082,1.233,5.87,5.87,0,0,1,1.056,3.711V0h-4.126V-8.337a2.229,2.229,0,0,0-.4-1.471,1.864,1.864,0,0,0-1.465-.47,1.962,1.962,0,0,0-1.794.952V0h-4.114V-13.208ZM-28.583-4.9l2.087-8.313h4.333L-26.471,0h-4.2l-4.309-13.208h4.346ZM-14.7.244a6.79,6.79,0,0,1-4.919-1.813A6.26,6.26,0,0,1-21.5-6.287v-.342a8.111,8.111,0,0,1,.751-3.577,5.493,5.493,0,0,1,2.191-2.4,6.615,6.615,0,0,1,3.418-.848,5.717,5.717,0,0,1,4.395,1.727A6.788,6.788,0,0,1-9.137-6.909v1.6h-8.179a2.965,2.965,0,0,0,.964,1.746,2.869,2.869,0,0,0,1.929.635A3.7,3.7,0,0,0-11.371-4.3l1.88,2.222A5.255,5.255,0,0,1-11.67-.385,7.363,7.363,0,0,1-14.7.244Zm-.464-10.522q-1.807,0-2.148,2.393h4.15V-8.2a2.038,2.038,0,0,0-.5-1.532A1.992,1.992,0,0,0-15.167-10.278ZM.507-9.485l-1.355-.1a2.434,2.434,0,0,0-2.49,1.221V0H-7.452V-13.208h3.857l.134,1.7A3.185,3.185,0,0,1-.568-13.452a4.012,4.012,0,0,1,1.147.146Zm8.4,5.774a.95.95,0,0,0-.549-.842,8.356,8.356,0,0,0-2.087-.659,9.519,9.519,0,0,1-2.539-.9A4.253,4.253,0,0,1,2.2-7.458a3.221,3.221,0,0,1-.525-1.819,3.651,3.651,0,0,1,1.5-3,6.185,6.185,0,0,1,3.931-1.178,6.853,6.853,0,0,1,4.2,1.184A3.7,3.7,0,0,1,12.9-9.155H8.771q0-1.587-1.672-1.587a1.658,1.658,0,0,0-1.086.36,1.115,1.115,0,0,0-.439.9,1.023,1.023,0,0,0,.537.891,5.075,5.075,0,0,0,1.715.562,14.821,14.821,0,0,1,2.069.525q2.979,1.025,2.979,3.674A3.459,3.459,0,0,1,11.267-.891,7.039,7.039,0,0,1,7.111.244a7.184,7.184,0,0,1-3.027-.61,5.062,5.062,0,0,1-2.075-1.66,3.759,3.759,0,0,1-.745-2.209H5.109A1.59,1.59,0,0,0,5.719-2.9a2.511,2.511,0,0,0,1.5.421A1.975,1.975,0,0,0,8.484-2.82,1.093,1.093,0,0,0,8.905-3.711ZM22.235,0a4.645,4.645,0,0,1-.391-1.184A3.825,3.825,0,0,1,18.671.244,4.686,4.686,0,0,1,15.5-.885a3.594,3.594,0,0,1-1.306-2.838A3.694,3.694,0,0,1,15.778-6.97a8.085,8.085,0,0,1,4.614-1.1h1.27v-.7q0-1.828-1.575-1.828a1.287,1.287,0,0,0-1.465,1.447H14.508a3.688,3.688,0,0,1,1.63-3.109,6.849,6.849,0,0,1,4.156-1.195,6,6,0,0,1,3.992,1.233,4.287,4.287,0,0,1,1.5,3.381v5.847a5.988,5.988,0,0,0,.562,2.783V0ZM19.659-2.686a2.3,2.3,0,0,0,1.276-.33,2.066,2.066,0,0,0,.726-.745V-5.872h-1.2q-2.148,0-2.148,1.929a1.178,1.178,0,0,0,.378.909A1.369,1.369,0,0,0,19.659-2.686Zm13.2-13.806v3.284h2.173v2.856H32.855v6.042a1.543,1.543,0,0,0,.269,1.038,1.44,1.44,0,0,0,1.062.293,6.035,6.035,0,0,0,1.025-.073V-.11a7.592,7.592,0,0,1-2.319.354,4.309,4.309,0,0,1-3.137-1A4.1,4.1,0,0,1,28.741-3.8v-6.555H27.057v-2.856h1.685v-3.284ZM35.76-6.726a7.8,7.8,0,0,1,.769-3.522,5.5,5.5,0,0,1,2.209-2.374,6.654,6.654,0,0,1,3.381-.83A6.073,6.073,0,0,1,46.8-11.615a7.05,7.05,0,0,1,1.709,5v.146a6.84,6.84,0,0,1-1.715,4.9A6.089,6.089,0,0,1,42.145.244a6.159,6.159,0,0,1-4.529-1.691A6.613,6.613,0,0,1,35.773-6.03Zm4.114.256a4.914,4.914,0,0,0,.574,2.686,1.911,1.911,0,0,0,1.7.854q2.2,0,2.246-3.381v-.415q0-3.552-2.271-3.552-2.063,0-2.234,3.064ZM58.307-9.485l-1.355-.1a2.434,2.434,0,0,0-2.49,1.221V0H50.348V-13.208h3.857l.134,1.7a3.185,3.185,0,0,1,2.893-1.941,4.012,4.012,0,0,1,1.147.146ZM64.13,0H60V-13.208H64.13ZM59.76-16.626a1.852,1.852,0,0,1,.635-1.449,2.386,2.386,0,0,1,1.648-.565,2.386,2.386,0,0,1,1.648.565,1.852,1.852,0,0,1,.635,1.449,1.852,1.852,0,0,1-.635,1.449,2.386,2.386,0,0,1-1.648.565,2.386,2.386,0,0,1-1.648-.565A1.852,1.852,0,0,1,59.76-16.626Zm6.384,9.9a7.8,7.8,0,0,1,.769-3.522,5.5,5.5,0,0,1,2.209-2.374,6.654,6.654,0,0,1,3.381-.83,6.073,6.073,0,0,1,4.675,1.837,7.05,7.05,0,0,1,1.709,5v.146a6.84,6.84,0,0,1-1.715,4.9A6.089,6.089,0,0,1,72.528.244,6.159,6.159,0,0,1,68-1.447,6.613,6.613,0,0,1,66.156-6.03Zm4.114.256a4.915,4.915,0,0,0,.574,2.686,1.911,1.911,0,0,0,1.7.854q2.2,0,2.246-3.381v-.415q0-3.552-2.271-3.552-2.063,0-2.234,3.064Z" transform="translate(947 2229.695)" fill="#12263f"/>
    <path id="Trazado_214709" data-name="Trazado 214709" d="M-66.388-17.773l3.967,12.366,3.955-12.366h5.64V0h-4.3V-4.15l.415-8.5L-61,0h-2.832l-4.309-12.659.415,8.508V0h-4.285V-17.773ZM-42.853,0a4.645,4.645,0,0,1-.391-1.184A3.825,3.825,0,0,1-46.417.244,4.686,4.686,0,0,1-49.591-.885,3.594,3.594,0,0,1-50.9-3.723,3.694,3.694,0,0,1-49.31-6.97a8.085,8.085,0,0,1,4.614-1.1h1.27v-.7q0-1.828-1.575-1.828a1.287,1.287,0,0,0-1.465,1.447H-50.58a3.688,3.688,0,0,1,1.63-3.109,6.849,6.849,0,0,1,4.156-1.195A6,6,0,0,1-40.8-12.219a4.287,4.287,0,0,1,1.5,3.381v5.847a5.988,5.988,0,0,0,.562,2.783V0Zm-2.576-2.686a2.3,2.3,0,0,0,1.276-.33,2.066,2.066,0,0,0,.726-.745V-5.872h-1.2q-2.148,0-2.148,1.929a1.178,1.178,0,0,0,.378.909A1.369,1.369,0,0,0-45.428-2.686Zm20.667-3.821a7.965,7.965,0,0,1-1.385,4.913A4.442,4.442,0,0,1-29.889.244,3.808,3.808,0,0,1-32.88-1.086V5.078h-4.114V-13.208h3.845l.122,1.221a3.808,3.808,0,0,1,3.113-1.465,4.478,4.478,0,0,1,3.8,1.8A8.063,8.063,0,0,1-24.762-6.7Zm-4.114-.256q0-3.516-2.051-3.516a1.936,1.936,0,0,0-1.953,1.05v5.2A2,2,0,0,0-30.9-2.93q1.965,0,2.026-3.394ZM-15.509,0A4.645,4.645,0,0,1-15.9-1.184,3.825,3.825,0,0,1-19.073.244,4.686,4.686,0,0,1-22.247-.885a3.594,3.594,0,0,1-1.306-2.838A3.694,3.694,0,0,1-21.967-6.97a8.085,8.085,0,0,1,4.614-1.1h1.27v-.7q0-1.828-1.575-1.828a1.287,1.287,0,0,0-1.465,1.447h-4.114a3.688,3.688,0,0,1,1.63-3.109,6.849,6.849,0,0,1,4.156-1.195,6,6,0,0,1,3.992,1.233,4.287,4.287,0,0,1,1.5,3.381v5.847A5.988,5.988,0,0,0-11.4-.208V0Zm-2.576-2.686a2.3,2.3,0,0,0,1.276-.33,2.066,2.066,0,0,0,.726-.745V-5.872h-1.2q-2.148,0-2.148,1.929a1.178,1.178,0,0,0,.378.909A1.369,1.369,0,0,0-18.085-2.686ZM.433-13.208l.134,1.55A4.541,4.541,0,0,1,4.34-13.452a3.343,3.343,0,0,1,3.381,1.99,4.4,4.4,0,0,1,3.882-1.99q4.016,0,4.126,4.858V0H11.6V-8.337a2.518,2.518,0,0,0-.342-1.477,1.455,1.455,0,0,0-1.245-.464A1.949,1.949,0,0,0,8.2-9.192l.012.171V0H4.083V-8.313a2.647,2.647,0,0,0-.33-1.5A1.451,1.451,0,0,0,2.5-10.278,1.973,1.973,0,0,0,.69-9.192V0H-3.424V-13.208ZM24.469.244A6.79,6.79,0,0,1,19.55-1.569a6.26,6.26,0,0,1-1.88-4.718v-.342a8.111,8.111,0,0,1,.751-3.577,5.493,5.493,0,0,1,2.191-2.4,6.615,6.615,0,0,1,3.418-.848,5.717,5.717,0,0,1,4.395,1.727,6.788,6.788,0,0,1,1.611,4.816v1.6H21.857a2.965,2.965,0,0,0,.964,1.746,2.869,2.869,0,0,0,1.929.635A3.7,3.7,0,0,0,27.8-4.3l1.88,2.222A5.255,5.255,0,0,1,27.5-.385,7.363,7.363,0,0,1,24.469.244Zm-.464-10.522q-1.807,0-2.148,2.393h4.15V-8.2a2.038,2.038,0,0,0-.5-1.532A1.992,1.992,0,0,0,24.005-10.278Zm11.462-2.93.134,1.55a4.479,4.479,0,0,1,3.772-1.794,3.768,3.768,0,0,1,3.082,1.233,5.87,5.87,0,0,1,1.056,3.711V0H39.386V-8.337a2.229,2.229,0,0,0-.4-1.471,1.864,1.864,0,0,0-1.465-.47,1.962,1.962,0,0,0-1.794.952V0H31.61V-13.208ZM50.58-16.492v3.284h2.173v2.856H50.58v6.042a1.543,1.543,0,0,0,.269,1.038,1.44,1.44,0,0,0,1.062.293,6.035,6.035,0,0,0,1.025-.073V-.11a7.592,7.592,0,0,1-2.319.354,4.309,4.309,0,0,1-3.137-1A4.1,4.1,0,0,1,46.466-3.8v-6.555H44.781v-2.856h1.685v-3.284ZM61.81,0a4.645,4.645,0,0,1-.391-1.184A3.825,3.825,0,0,1,58.246.244,4.686,4.686,0,0,1,55.072-.885a3.594,3.594,0,0,1-1.306-2.838A3.694,3.694,0,0,1,55.353-6.97a8.085,8.085,0,0,1,4.614-1.1h1.27v-.7q0-1.828-1.575-1.828A1.287,1.287,0,0,0,58.2-9.148H54.083a3.688,3.688,0,0,1,1.63-3.109,6.849,6.849,0,0,1,4.156-1.195,6,6,0,0,1,3.992,1.233,4.287,4.287,0,0,1,1.5,3.381v5.847a5.988,5.988,0,0,0,.562,2.783V0ZM59.235-2.686a2.3,2.3,0,0,0,1.276-.33,2.066,2.066,0,0,0,.726-.745V-5.872h-1.2q-2.148,0-2.148,1.929a1.178,1.178,0,0,0,.378.909A1.369,1.369,0,0,0,59.235-2.686ZM71.979,0H67.853V-18.75h4.126Z" transform="translate(946 2277.695)" fill="#12263f"/>
    <g data-type="innerShadowGroup">
      <path id="Trazado_214710-2" data-name="Trazado 214710" d="M209,0C324.428,0,418,93.349,418,208.5S324.428,417,209,417,0,323.651,0,208.5,93.572,0,209,0Z" transform="translate(390 1960.695)" fill="#f3f9ff"/>
      <g transform="matrix(1, 0, 0, 1, 390, 1862.3)" filter="url(#Trazado_214710)">
        <path id="Trazado_214710-3" data-name="Trazado 214710" d="M209,0C324.428,0,418,93.349,418,208.5S324.428,417,209,417,0,323.651,0,208.5,93.572,0,209,0Z" transform="translate(0 98.39)" fill="#fff"/>
      </g>
    </g>
    <path id="Trazado_210167" data-name="Trazado 210167" d="M175.72,159.3a35.576,35.576,0,1,0-60.766,25.119,40.377,40.377,0,0,1,10.453,17.948l2.869,10.609H151.6l2.717-10.048a40.471,40.471,0,0,1,10.772-18.26A35.465,35.465,0,0,0,175.72,159.3" transform="translate(459.23 2006.216)" fill="#f4d242"/>
    <path id="Trazado_210168" data-name="Trazado 210168" d="M248.059,610.779h-11.37a6.033,6.033,0,0,1-6.161-5.4l-.96-11.651,25.752-.165-1.1,11.816a6.033,6.033,0,0,1-6.161,5.4" transform="translate(356.702 1620.836)" fill="#59595b"/>
    <path id="Trazado_210169" data-name="Trazado 210169" d="M259.273,621.826c-7.193.308-14.413-.061-21.605.257a.491.491,0,0,0,.036.981c7.2.239,14.416-.207,21.616.022.808.026.772-1.3-.046-1.26" transform="translate(350.433 1597.656)" fill="#808183"/>
    <path id="Trazado_210170" data-name="Trazado 210170" d="M259.273,639.207c-7.193.308-14.413-.061-21.605.257a.491.491,0,0,0,.036.981c7.2.239,14.416-.207,21.616.022.808.026.772-1.3-.046-1.26" transform="translate(350.433 1583.4)" fill="#808183"/>
    <path id="Trazado_210171" data-name="Trazado 210171" d="M293.754,4.151c0,2.293-1.219,10.534-2.723,10.534s-2.723-8.242-2.723-10.534S289.528,0,291.032,0s2.723,1.858,2.723,4.151" transform="translate(308.521 2107.695)" fill="#f4d242"/>
    <path id="Trazado_210172" data-name="Trazado 210172" d="M478.419,87.4c-1.739,1.494-7.2,7.79-6.216,8.931s8.026-3.306,9.765-4.8,2.354-3.63,1.374-4.77-3.184-.854-4.923.64" transform="translate(157.781 2037.106)" fill="#f4d242"/>
    <path id="Trazado_210173" data-name="Trazado 210173" d="M531.6,273.22c-2.274.289-10.6.118-10.794-1.374s7.833-3.739,10.107-4.028,4.272.686,4.461,2.178-1.5,2.935-3.775,3.224" transform="translate(117.821 1888.065)" fill="#f4d242"/>
    <path id="Trazado_210174" data-name="Trazado 210174" d="M92.489,72.826c1.8,1.414,7.542,7.455,6.615,8.639s-8.168-2.938-9.973-4.352-2.517-3.519-1.59-4.7,3.142-1,4.947.416" transform="translate(473.529 2048.941)" fill="#f4d242"/>
    <path id="Trazado_210175" data-name="Trazado 210175" d="M3.79,240.444c2.274.289,10.6.118,10.793-1.374s-7.833-3.739-10.107-4.028S.2,235.728.015,237.22s1.5,2.935,3.775,3.224" transform="translate(545 1914.949)" fill="#f4d242"/>
    <path id="Trazado_210176" data-name="Trazado 210176" d="M252.226,340.414a9.155,9.155,0,0,1-2.68-3.163,11.212,11.212,0,0,0,2.1-5.726,35.858,35.858,0,0,0,.2-3.662,3.15,3.15,0,0,0-1.136-2.918c-.891-.655-2.082-.064-2.766.572a6.613,6.613,0,0,0-1.476,2.935,13.17,13.17,0,0,0-.218,6.245,12.388,12.388,0,0,0,.595,2.106,5.475,5.475,0,0,1-1.709.91c-1.944.622-3.419-.5-4.319-2.155-.148-.272-.288-.561-.42-.861.153-.409.3-.819.435-1.224a25.551,25.551,0,0,0,1.192-6.1c.137-1.713.186-3.761-1.462-4.776a1.085,1.085,0,0,0-1.458.382c-2.408,3.341-2.273,7.773-.965,11.564a25.2,25.2,0,0,1-1.465,2.929c-.6,1.04-1.757,2.644-3.155,2.441-1.3-.189-2.343-1.824-2.99-2.834a11.55,11.55,0,0,1-1.14-2.354q.248-.653.461-1.321a24.2,24.2,0,0,0,1.011-5.4c.121-1.526.17-3.67-1.5-4.4a1.082,1.082,0,0,0-1.46.383,15.283,15.283,0,0,0-.822,10.294c.031.117.068.233.1.35a22.616,22.616,0,0,1-4.42,6.991c-.839.911.489,2.254,1.362,1.362a23.749,23.749,0,0,0,4.135-5.731,15.006,15.006,0,0,0,1.08,1.735c1.09,1.509,2.456,2.923,4.417,3.029,1.832.1,3.319-1.441,4.312-2.78a14.511,14.511,0,0,0,1.263-2.071,5.627,5.627,0,0,0,3.954,2.81,6.511,6.511,0,0,0,4.522-1.166,13.5,13.5,0,0,0,2.957,3.5,1.2,1.2,0,1,0,1.461-1.893m-12.254-14.838A13.345,13.345,0,0,1,239.8,328a20.356,20.356,0,0,1-.47,2.8,9.777,9.777,0,0,1,.639-5.223m8.311,5.361a10.126,10.126,0,0,1,.6-2.591,5.331,5.331,0,0,1,.518-1.072,2.284,2.284,0,0,1,.168-.208,1.679,1.679,0,0,1,.041.258,18.409,18.409,0,0,1-.737,6.546,6.454,6.454,0,0,1-.3.743,12.167,12.167,0,0,1-.289-3.677" transform="translate(362.503 1843.213)" fill="#fff"/>
    <path id="Trazado_210177" data-name="Trazado 210177" d="M343.821,390.447c-3.783,11.546-7.765,23.034-12.043,34.406a1.128,1.128,0,0,0,2.094.835c4.263-11.389,8.222-22.882,11.773-34.513.366-1.2-1.429-1.937-1.825-.728" transform="translate(272.932 1787.946)" fill="#fff"/>
    <path id="Trazado_210178" data-name="Trazado 210178" d="M207.582,384.107c3.019,11.769,5.839,23.6,8.347,35.484a1.128,1.128,0,0,0,2.215-.422c-2.53-11.895-5.372-23.714-8.632-35.43-.336-1.208-2.246-.865-1.93.368" transform="translate(374.764 1793.558)" fill="#fff"/>
    <path id="Trazado_214713" data-name="Trazado 214713" d="M0,0H108.212V123.92H0Z" transform="translate(545 2107.695)" fill="none"/>
    <path id="Trazado_214711" data-name="Trazado 214711" d="M10,136.782a10,10,0,0,1-10-10v-95.7a10,10,0,0,1,10-10H415.594L483.5,0l-3.949,21.081H515a10,10,0,0,1,10,10v95.7a10,10,0,0,1-10,10Z" transform="translate(1210 1999.087) rotate(180)" fill="#f6f6f6"/>
    <path id="Trazado_214712" data-name="Trazado 214712" d="M22.3,12.023H17.532L16.461,15H14.915L19.258,3.625h1.313L24.922,15H23.383ZM17.985,10.8h3.867l-1.937-5.32Zm15.383.07a5.062,5.062,0,0,1-.883,3.109,2.829,2.829,0,0,1-2.391,1.18,3.1,3.1,0,0,1-2.422-.977v4.07H26.227V6.547h1.32l.07.938a2.977,2.977,0,0,1,2.453-1.094,2.882,2.882,0,0,1,2.41,1.148,5.117,5.117,0,0,1,.887,3.2ZM31.922,10.7a3.735,3.735,0,0,0-.609-2.258,1.963,1.963,0,0,0-1.672-.828,2.125,2.125,0,0,0-1.969,1.164V12.82a2.129,2.129,0,0,0,1.984,1.156,1.954,1.954,0,0,0,1.652-.824A4.077,4.077,0,0,0,31.922,10.7ZM36.774,15H35.329V3h1.445Zm3.883,0H39.211V6.547h1.445ZM39.094,4.3a.863.863,0,0,1,.215-.594.807.807,0,0,1,.637-.242.819.819,0,0,1,.641.242.854.854,0,0,1,.219.594.826.826,0,0,1-.219.586.834.834,0,0,1-.641.234.821.821,0,0,1-.637-.234A.834.834,0,0,1,39.094,4.3Zm7.266,9.672a2.082,2.082,0,0,0,1.352-.469,1.649,1.649,0,0,0,.641-1.172h1.367a2.621,2.621,0,0,1-.5,1.383,3.293,3.293,0,0,1-1.23,1.047,3.55,3.55,0,0,1-1.629.391A3.482,3.482,0,0,1,43.614,14a4.59,4.59,0,0,1-1.02-3.152v-.242a5.089,5.089,0,0,1,.453-2.2,3.451,3.451,0,0,1,1.3-1.492,3.7,3.7,0,0,1,2-.531,3.39,3.39,0,0,1,2.363.852,3.043,3.043,0,0,1,1,2.211H48.352a1.992,1.992,0,0,0-.621-1.348,1.932,1.932,0,0,0-1.379-.527,2.023,2.023,0,0,0-1.707.793,3.724,3.724,0,0,0-.605,2.293v.273a3.65,3.65,0,0,0,.6,2.25A2.033,2.033,0,0,0,46.36,13.977ZM56.563,15a3.036,3.036,0,0,1-.2-.891,3.225,3.225,0,0,1-2.406,1.047,2.984,2.984,0,0,1-2.051-.707,2.287,2.287,0,0,1-.8-1.793,2.39,2.39,0,0,1,1-2.051,4.733,4.733,0,0,1,2.824-.73h1.406V9.211A1.623,1.623,0,0,0,55.883,8a1.821,1.821,0,0,0-1.336-.449,2.107,2.107,0,0,0-1.3.391,1.151,1.151,0,0,0-.523.945H51.274a2,2,0,0,1,.449-1.223,3.066,3.066,0,0,1,1.219-.934,4.1,4.1,0,0,1,1.691-.344,3.342,3.342,0,0,1,2.289.73,2.635,2.635,0,0,1,.859,2.012v3.891a4.757,4.757,0,0,0,.3,1.852V15Zm-2.4-1.1a2.54,2.54,0,0,0,1.289-.352,2.127,2.127,0,0,0,.883-.914V10.9H55.2q-2.656,0-2.656,1.555A1.316,1.316,0,0,0,53,13.516,1.742,1.742,0,0,0,54.165,13.9Zm7.25-7.352.047,1.063a3.08,3.08,0,0,1,2.531-1.219q2.68,0,2.7,3.023V15H65.25V9.406a1.946,1.946,0,0,0-.418-1.352,1.675,1.675,0,0,0-1.277-.437,2.086,2.086,0,0,0-1.234.375,2.546,2.546,0,0,0-.828.984V15H60.047V6.547ZM68.524,10.7a4.952,4.952,0,0,1,.922-3.129,3.137,3.137,0,0,1,4.766-.168V3h1.445V15H74.329l-.07-.906a2.943,2.943,0,0,1-2.414,1.063,2.887,2.887,0,0,1-2.395-1.2,5.008,5.008,0,0,1-.926-3.141Zm1.445.164a3.749,3.749,0,0,0,.594,2.25,1.92,1.92,0,0,0,1.641.813A2.108,2.108,0,0,0,74.211,12.7V8.813a2.125,2.125,0,0,0-1.992-1.2,1.929,1.929,0,0,0-1.656.82A4.128,4.128,0,0,0,69.969,10.867Zm7.547-.172A4.993,4.993,0,0,1,78,8.461,3.643,3.643,0,0,1,79.364,6.93a3.7,3.7,0,0,1,1.988-.539,3.565,3.565,0,0,1,2.793,1.2,4.6,4.6,0,0,1,1.066,3.18v.1a5.036,5.036,0,0,1-.473,2.215,3.589,3.589,0,0,1-1.352,1.527,3.743,3.743,0,0,1-2.02.547,3.556,3.556,0,0,1-2.785-1.2A4.575,4.575,0,0,1,77.516,10.8Zm1.453.172a3.616,3.616,0,0,0,.652,2.258,2.211,2.211,0,0,0,3.5-.012,3.955,3.955,0,0,0,.648-2.418,3.61,3.61,0,0,0-.66-2.254,2.1,2.1,0,0,0-1.754-.863,2.075,2.075,0,0,0-1.727.852A3.925,3.925,0,0,0,78.969,10.867Zm15.523,4.289a3.693,3.693,0,0,1-2.8-1.129,4.19,4.19,0,0,1-1.078-3.02v-.266A5.073,5.073,0,0,1,91.1,8.5a3.748,3.748,0,0,1,1.344-1.547,3.378,3.378,0,0,1,1.871-.559,3.166,3.166,0,0,1,2.563,1.086,4.7,4.7,0,0,1,.914,3.109v.6H92.063a3,3,0,0,0,.73,2.02,2.3,2.3,0,0,0,1.777.77,2.517,2.517,0,0,0,1.3-.312,3.259,3.259,0,0,0,.93-.828l.883.688A3.55,3.55,0,0,1,94.493,15.156Zm-.18-7.578a1.928,1.928,0,0,0-1.469.637A3.1,3.1,0,0,0,92.11,10h4.234V9.891a2.753,2.753,0,0,0-.594-1.707A1.815,1.815,0,0,0,94.313,7.578Zm10.07,5.18a1.064,1.064,0,0,0-.441-.91,4.249,4.249,0,0,0-1.539-.559,7.277,7.277,0,0,1-1.742-.562,2.479,2.479,0,0,1-.953-.781A1.869,1.869,0,0,1,99.4,8.867a2.193,2.193,0,0,1,.879-1.758,3.432,3.432,0,0,1,2.246-.719,3.532,3.532,0,0,1,2.332.742,2.357,2.357,0,0,1,.895,1.9H104.3a1.3,1.3,0,0,0-.5-1.023,1.888,1.888,0,0,0-1.27-.43,1.976,1.976,0,0,0-1.234.344,1.082,1.082,0,0,0-.445.9.877.877,0,0,0,.414.789,5.1,5.1,0,0,0,1.5.508,7.8,7.8,0,0,1,1.754.578,2.558,2.558,0,0,1,1,.809,1.988,1.988,0,0,1,.324,1.152,2.163,2.163,0,0,1-.906,1.816,3.8,3.8,0,0,1-2.352.684,4.257,4.257,0,0,1-1.8-.359,2.922,2.922,0,0,1-1.223-1A2.42,2.42,0,0,1,99.11,12.4h1.445a1.5,1.5,0,0,0,.582,1.152,2.258,2.258,0,0,0,1.434.426,2.331,2.331,0,0,0,1.316-.332A1.02,1.02,0,0,0,104.383,12.758ZM109.672,4.5V6.547h1.578V7.664h-1.578v5.249a1.173,1.173,0,0,0,.211.763.888.888,0,0,0,.719.254,3.5,3.5,0,0,0,.688-.094V15a4.215,4.215,0,0,1-1.109.155,1.8,1.8,0,0,1-1.461-.586,2.517,2.517,0,0,1-.492-1.664V7.664h-1.539V6.547h1.539V4.5ZM118.157,15a3.036,3.036,0,0,1-.2-.891,3.225,3.225,0,0,1-2.406,1.047,2.984,2.984,0,0,1-2.051-.707,2.288,2.288,0,0,1-.8-1.793,2.39,2.39,0,0,1,1-2.051,4.733,4.733,0,0,1,2.824-.73h1.406V9.211A1.623,1.623,0,0,0,117.477,8a1.821,1.821,0,0,0-1.336-.449,2.108,2.108,0,0,0-1.3.391,1.151,1.151,0,0,0-.523.945h-1.453a2,2,0,0,1,.449-1.223,3.066,3.066,0,0,1,1.219-.934,4.1,4.1,0,0,1,1.691-.344,3.342,3.342,0,0,1,2.289.73,2.635,2.635,0,0,1,.859,2.012v3.891a4.757,4.757,0,0,0,.3,1.852V15Zm-2.4-1.1a2.54,2.54,0,0,0,1.289-.352,2.127,2.127,0,0,0,.883-.914V10.9H116.8q-2.656,0-2.656,1.555a1.316,1.316,0,0,0,.453,1.063A1.742,1.742,0,0,0,115.758,13.9Zm10.8-1.141a1.064,1.064,0,0,0-.441-.91,4.249,4.249,0,0,0-1.539-.559,7.277,7.277,0,0,1-1.742-.562,2.479,2.479,0,0,1-.953-.781,1.869,1.869,0,0,1-.309-1.078,2.193,2.193,0,0,1,.879-1.758,3.432,3.432,0,0,1,2.246-.719,3.532,3.532,0,0,1,2.332.742,2.357,2.357,0,0,1,.895,1.9h-1.453a1.3,1.3,0,0,0-.5-1.023,1.888,1.888,0,0,0-1.27-.43,1.976,1.976,0,0,0-1.234.344,1.082,1.082,0,0,0-.445.9.877.877,0,0,0,.414.789,5.1,5.1,0,0,0,1.5.508,7.8,7.8,0,0,1,1.754.578,2.558,2.558,0,0,1,1,.809,1.988,1.988,0,0,1,.324,1.152,2.163,2.163,0,0,1-.906,1.816,3.8,3.8,0,0,1-2.352.684,4.257,4.257,0,0,1-1.8-.359,2.922,2.922,0,0,1-1.223-1,2.42,2.42,0,0,1-.441-1.395h1.445a1.5,1.5,0,0,0,.582,1.152,2.258,2.258,0,0,0,1.434.426,2.331,2.331,0,0,0,1.316-.332A1.02,1.02,0,0,0,126.563,12.758Zm9.25-8.258V6.547h1.578V7.664h-1.578v5.249a1.173,1.173,0,0,0,.211.763.888.888,0,0,0,.719.254,3.5,3.5,0,0,0,.688-.094V15a4.215,4.215,0,0,1-1.109.155,1.8,1.8,0,0,1-1.461-.586,2.517,2.517,0,0,1-.492-1.664V7.664h-1.539V6.547h1.539V4.5Zm6.773,10.656a3.693,3.693,0,0,1-2.8-1.129,4.19,4.19,0,0,1-1.078-3.02v-.266a5.073,5.073,0,0,1,.48-2.246,3.748,3.748,0,0,1,1.344-1.547,3.378,3.378,0,0,1,1.871-.559,3.166,3.166,0,0,1,2.563,1.086,4.7,4.7,0,0,1,.914,3.109v.6h-5.727a3,3,0,0,0,.73,2.02,2.3,2.3,0,0,0,1.777.77,2.517,2.517,0,0,0,1.3-.312,3.258,3.258,0,0,0,.93-.828l.883.688A3.55,3.55,0,0,1,142.586,15.156Zm-.18-7.578a1.928,1.928,0,0,0-1.469.637A3.1,3.1,0,0,0,140.2,10h4.234V9.891a2.753,2.753,0,0,0-.594-1.707A1.815,1.815,0,0,0,142.407,7.578Zm.7-4.562h1.75l-2.094,2.3-1.164,0Zm7.836,10.961a2.082,2.082,0,0,0,1.352-.469,1.649,1.649,0,0,0,.641-1.172h1.367a2.621,2.621,0,0,1-.5,1.383,3.293,3.293,0,0,1-1.23,1.047,3.55,3.55,0,0,1-1.629.391A3.482,3.482,0,0,1,148.2,14a4.59,4.59,0,0,1-1.02-3.152v-.242a5.089,5.089,0,0,1,.453-2.2,3.451,3.451,0,0,1,1.3-1.492,3.7,3.7,0,0,1,2-.531,3.39,3.39,0,0,1,2.363.852,3.043,3.043,0,0,1,1,2.211h-1.367a1.992,1.992,0,0,0-.621-1.348,1.932,1.932,0,0,0-1.379-.527,2.023,2.023,0,0,0-1.707.793,3.724,3.724,0,0,0-.605,2.293v.273a3.65,3.65,0,0,0,.6,2.25A2.033,2.033,0,0,0,150.946,13.977Zm6.352-7.43.047,1.063a3.08,3.08,0,0,1,2.531-1.219q2.68,0,2.7,3.023V15h-1.445V9.406a1.946,1.946,0,0,0-.418-1.352,1.675,1.675,0,0,0-1.277-.437,2.086,2.086,0,0,0-1.234.375,2.546,2.546,0,0,0-.828.984V15H155.93V6.547ZM166.329,15h-1.445V6.547h1.445ZM164.766,4.3a.863.863,0,0,1,.215-.594.807.807,0,0,1,.637-.242.819.819,0,0,1,.641.242.854.854,0,0,1,.219.594.826.826,0,0,1-.219.586.834.834,0,0,1-.641.234.821.821,0,0,1-.637-.234A.834.834,0,0,1,164.766,4.3Zm7.266,9.672a2.082,2.082,0,0,0,1.352-.469,1.649,1.649,0,0,0,.641-1.172h1.367a2.621,2.621,0,0,1-.5,1.383,3.293,3.293,0,0,1-1.23,1.047,3.55,3.55,0,0,1-1.629.391A3.482,3.482,0,0,1,169.286,14a4.59,4.59,0,0,1-1.02-3.152v-.242a5.089,5.089,0,0,1,.453-2.2,3.451,3.451,0,0,1,1.3-1.492,3.7,3.7,0,0,1,2-.531,3.39,3.39,0,0,1,2.363.852,3.043,3.043,0,0,1,1,2.211h-1.367a1.992,1.992,0,0,0-.621-1.348,1.932,1.932,0,0,0-1.379-.527,2.023,2.023,0,0,0-1.707.793,3.724,3.724,0,0,0-.605,2.293v.273a3.65,3.65,0,0,0,.6,2.25A2.033,2.033,0,0,0,172.032,13.977ZM182.235,15a3.036,3.036,0,0,1-.2-.891,3.225,3.225,0,0,1-2.406,1.047,2.984,2.984,0,0,1-2.051-.707,2.287,2.287,0,0,1-.8-1.793,2.39,2.39,0,0,1,1-2.051,4.733,4.733,0,0,1,2.824-.73h1.406V9.211A1.623,1.623,0,0,0,181.555,8a1.821,1.821,0,0,0-1.336-.449,2.107,2.107,0,0,0-1.3.391,1.151,1.151,0,0,0-.523.945h-1.453a2,2,0,0,1,.449-1.223,3.066,3.066,0,0,1,1.219-.934,4.1,4.1,0,0,1,1.691-.344,3.342,3.342,0,0,1,2.289.73,2.635,2.635,0,0,1,.859,2.012v3.891a4.757,4.757,0,0,0,.3,1.852V15Zm-2.4-1.1a2.54,2.54,0,0,0,1.289-.352,2.127,2.127,0,0,0,.883-.914V10.9h-1.133q-2.656,0-2.656,1.555a1.316,1.316,0,0,0,.453,1.063A1.742,1.742,0,0,0,179.836,13.9Zm10.8-1.141a1.064,1.064,0,0,0-.441-.91,4.249,4.249,0,0,0-1.539-.559,7.277,7.277,0,0,1-1.742-.562,2.479,2.479,0,0,1-.953-.781,1.869,1.869,0,0,1-.309-1.078,2.193,2.193,0,0,1,.879-1.758,3.432,3.432,0,0,1,2.246-.719,3.532,3.532,0,0,1,2.332.742,2.357,2.357,0,0,1,.895,1.9h-1.453a1.3,1.3,0,0,0-.5-1.023,1.888,1.888,0,0,0-1.27-.43,1.976,1.976,0,0,0-1.234.344,1.082,1.082,0,0,0-.445.9.877.877,0,0,0,.414.789,5.1,5.1,0,0,0,1.5.508,7.8,7.8,0,0,1,1.754.578,2.558,2.558,0,0,1,1,.809,1.988,1.988,0,0,1,.324,1.152,2.163,2.163,0,0,1-.906,1.816,3.8,3.8,0,0,1-2.352.684,4.257,4.257,0,0,1-1.8-.359,2.922,2.922,0,0,1-1.223-1,2.42,2.42,0,0,1-.441-1.395h1.445a1.5,1.5,0,0,0,.582,1.152,2.258,2.258,0,0,0,1.434.426,2.331,2.331,0,0,0,1.316-.332A1.02,1.02,0,0,0,190.641,12.758Zm10.68,1.219a2.082,2.082,0,0,0,1.352-.469,1.649,1.649,0,0,0,.641-1.172h1.367a2.621,2.621,0,0,1-.5,1.383,3.293,3.293,0,0,1-1.23,1.047,3.55,3.55,0,0,1-1.629.391A3.482,3.482,0,0,1,198.575,14a4.59,4.59,0,0,1-1.02-3.152v-.242a5.089,5.089,0,0,1,.453-2.2,3.451,3.451,0,0,1,1.3-1.492,3.7,3.7,0,0,1,2-.531,3.39,3.39,0,0,1,2.363.852,3.043,3.043,0,0,1,1,2.211h-1.367a1.992,1.992,0,0,0-.621-1.348,1.932,1.932,0,0,0-1.379-.527,2.023,2.023,0,0,0-1.707.793A3.724,3.724,0,0,0,199,10.664v.273a3.65,3.65,0,0,0,.6,2.25A2.033,2.033,0,0,0,201.321,13.977Zm9.07-6.133a4.331,4.331,0,0,0-.711-.055A1.9,1.9,0,0,0,207.75,9v6h-1.445V6.547h1.406l.023.977a2.251,2.251,0,0,1,2.016-1.133,1.477,1.477,0,0,1,.641.109Zm4.688,7.313a3.693,3.693,0,0,1-2.8-1.129,4.19,4.19,0,0,1-1.078-3.02v-.266a5.073,5.073,0,0,1,.48-2.246,3.748,3.748,0,0,1,1.344-1.547,3.378,3.378,0,0,1,1.871-.559,3.166,3.166,0,0,1,2.563,1.086,4.7,4.7,0,0,1,.914,3.109v.6h-5.727a3,3,0,0,0,.73,2.02,2.3,2.3,0,0,0,1.777.77,2.517,2.517,0,0,0,1.3-.312,3.258,3.258,0,0,0,.93-.828l.883.688A3.55,3.55,0,0,1,215.079,15.156Zm-.18-7.578a1.928,1.928,0,0,0-1.469.637A3.1,3.1,0,0,0,212.7,10h4.234V9.891a2.753,2.753,0,0,0-.594-1.707A1.815,1.815,0,0,0,214.9,7.578ZM225.266,15a3.036,3.036,0,0,1-.2-.891,3.225,3.225,0,0,1-2.406,1.047,2.984,2.984,0,0,1-2.051-.707,2.287,2.287,0,0,1-.8-1.793,2.39,2.39,0,0,1,1-2.051,4.733,4.733,0,0,1,2.824-.73h1.406V9.211A1.623,1.623,0,0,0,224.586,8a1.821,1.821,0,0,0-1.336-.449,2.107,2.107,0,0,0-1.3.391,1.151,1.151,0,0,0-.523.945h-1.453a2,2,0,0,1,.449-1.223,3.066,3.066,0,0,1,1.219-.934,4.1,4.1,0,0,1,1.691-.344,3.342,3.342,0,0,1,2.289.73,2.635,2.635,0,0,1,.859,2.012v3.891a4.757,4.757,0,0,0,.3,1.852V15Zm-2.4-1.1a2.54,2.54,0,0,0,1.289-.352,2.127,2.127,0,0,0,.883-.914V10.9h-1.133q-2.656,0-2.656,1.555a1.316,1.316,0,0,0,.453,1.063A1.742,1.742,0,0,0,222.868,13.9Zm7.844-9.4V6.547h1.578V7.664h-1.578v5.249a1.173,1.173,0,0,0,.211.763.888.888,0,0,0,.719.254,3.5,3.5,0,0,0,.688-.094V15a4.215,4.215,0,0,1-1.109.155,1.8,1.8,0,0,1-1.461-.586,2.517,2.517,0,0,1-.492-1.664V7.664h-1.539V6.547h1.539V4.5ZM235.547,15H234.1V6.547h1.445ZM233.985,4.3a.863.863,0,0,1,.215-.594.807.807,0,0,1,.637-.242.819.819,0,0,1,.641.242.854.854,0,0,1,.219.594.826.826,0,0,1-.219.586.834.834,0,0,1-.641.234.821.821,0,0,1-.637-.234A.834.834,0,0,1,233.985,4.3Zm6.664,8.734,2.094-6.492h1.477L241.188,15h-1.1l-3.062-8.453H238.5ZM250.711,15a3.036,3.036,0,0,1-.2-.891,3.225,3.225,0,0,1-2.406,1.047,2.984,2.984,0,0,1-2.051-.707,2.287,2.287,0,0,1-.8-1.793,2.39,2.39,0,0,1,1-2.051,4.733,4.733,0,0,1,2.824-.73h1.406V9.211A1.623,1.623,0,0,0,250.032,8a1.821,1.821,0,0,0-1.336-.449,2.107,2.107,0,0,0-1.3.391,1.151,1.151,0,0,0-.523.945h-1.453a2,2,0,0,1,.449-1.223,3.066,3.066,0,0,1,1.219-.934,4.1,4.1,0,0,1,1.691-.344,3.342,3.342,0,0,1,2.289.73,2.635,2.635,0,0,1,.859,2.012v3.891a4.757,4.757,0,0,0,.3,1.852V15Zm-2.4-1.1a2.54,2.54,0,0,0,1.289-.352,2.127,2.127,0,0,0,.883-.914V10.9h-1.133q-2.656,0-2.656,1.555a1.316,1.316,0,0,0,.453,1.063A1.742,1.742,0,0,0,248.313,13.9Zm10.8-1.141a1.064,1.064,0,0,0-.441-.91,4.249,4.249,0,0,0-1.539-.559,7.276,7.276,0,0,1-1.742-.562,2.479,2.479,0,0,1-.953-.781,1.869,1.869,0,0,1-.309-1.078,2.193,2.193,0,0,1,.879-1.758,3.432,3.432,0,0,1,2.246-.719,3.532,3.532,0,0,1,2.332.742,2.357,2.357,0,0,1,.895,1.9h-1.453a1.3,1.3,0,0,0-.5-1.023,1.888,1.888,0,0,0-1.27-.43,1.976,1.976,0,0,0-1.234.344,1.082,1.082,0,0,0-.445.9.877.877,0,0,0,.414.789,5.1,5.1,0,0,0,1.5.508,7.8,7.8,0,0,1,1.754.578,2.559,2.559,0,0,1,1,.809,1.988,1.988,0,0,1,.324,1.152,2.163,2.163,0,0,1-.906,1.816,3.8,3.8,0,0,1-2.352.684,4.257,4.257,0,0,1-1.8-.359,2.922,2.922,0,0,1-1.223-1,2.42,2.42,0,0,1-.441-1.395h1.445a1.5,1.5,0,0,0,.582,1.152,2.258,2.258,0,0,0,1.434.426,2.331,2.331,0,0,0,1.316-.332A1.02,1.02,0,0,0,259.118,12.758Zm12.211,0a1.064,1.064,0,0,0-.441-.91,4.249,4.249,0,0,0-1.539-.559,7.276,7.276,0,0,1-1.742-.562,2.478,2.478,0,0,1-.953-.781,1.869,1.869,0,0,1-.309-1.078,2.193,2.193,0,0,1,.879-1.758,3.432,3.432,0,0,1,2.246-.719,3.532,3.532,0,0,1,2.332.742,2.357,2.357,0,0,1,.895,1.9h-1.453a1.3,1.3,0,0,0-.5-1.023,1.888,1.888,0,0,0-1.27-.43,1.976,1.976,0,0,0-1.234.344,1.082,1.082,0,0,0-.445.9.877.877,0,0,0,.414.789,5.1,5.1,0,0,0,1.5.508,7.8,7.8,0,0,1,1.754.578,2.559,2.559,0,0,1,1,.809,1.988,1.988,0,0,1,.324,1.152,2.163,2.163,0,0,1-.906,1.816,3.8,3.8,0,0,1-2.352.684,4.257,4.257,0,0,1-1.8-.359,2.922,2.922,0,0,1-1.223-1,2.42,2.42,0,0,1-.441-1.395H267.5a1.5,1.5,0,0,0,.582,1.152,2.258,2.258,0,0,0,1.434.426,2.331,2.331,0,0,0,1.316-.332A1.02,1.02,0,0,0,271.329,12.758Zm6.836,2.4a3.693,3.693,0,0,1-2.8-1.129,4.19,4.19,0,0,1-1.078-3.02v-.266a5.073,5.073,0,0,1,.48-2.246,3.748,3.748,0,0,1,1.344-1.547,3.378,3.378,0,0,1,1.871-.559,3.166,3.166,0,0,1,2.563,1.086,4.7,4.7,0,0,1,.914,3.109v.6h-5.727a3,3,0,0,0,.73,2.02,2.3,2.3,0,0,0,1.777.77,2.517,2.517,0,0,0,1.3-.312,3.259,3.259,0,0,0,.93-.828l.883.688A3.55,3.55,0,0,1,278.165,15.156Zm-.18-7.578a1.928,1.928,0,0,0-1.469.637A3.1,3.1,0,0,0,275.782,10h4.234V9.891a2.753,2.753,0,0,0-.594-1.707A1.815,1.815,0,0,0,277.985,7.578Zm12.5,6.4a2.082,2.082,0,0,0,1.352-.469,1.649,1.649,0,0,0,.641-1.172h1.367a2.621,2.621,0,0,1-.5,1.383,3.293,3.293,0,0,1-1.23,1.047,3.55,3.55,0,0,1-1.629.391A3.482,3.482,0,0,1,287.739,14a4.59,4.59,0,0,1-1.02-3.152v-.242a5.089,5.089,0,0,1,.453-2.2,3.451,3.451,0,0,1,1.3-1.492,3.7,3.7,0,0,1,2-.531,3.39,3.39,0,0,1,2.363.852,3.043,3.043,0,0,1,1,2.211h-1.367a1.992,1.992,0,0,0-.621-1.348,1.932,1.932,0,0,0-1.379-.527,2.023,2.023,0,0,0-1.707.793,3.724,3.724,0,0,0-.605,2.293v.273a3.65,3.65,0,0,0,.6,2.25A2.033,2.033,0,0,0,290.485,13.977Zm4.6-3.281a4.993,4.993,0,0,1,.488-2.234,3.643,3.643,0,0,1,1.359-1.531,3.7,3.7,0,0,1,1.988-.539,3.565,3.565,0,0,1,2.793,1.2,4.6,4.6,0,0,1,1.066,3.18v.1a5.036,5.036,0,0,1-.473,2.215,3.589,3.589,0,0,1-1.352,1.527,3.743,3.743,0,0,1-2.02.547,3.556,3.556,0,0,1-2.785-1.2,4.575,4.575,0,0,1-1.066-3.164Zm1.453.172a3.616,3.616,0,0,0,.652,2.258,2.211,2.211,0,0,0,3.5-.012,3.955,3.955,0,0,0,.648-2.418,3.61,3.61,0,0,0-.66-2.254,2.1,2.1,0,0,0-1.754-.863,2.075,2.075,0,0,0-1.727.852A3.925,3.925,0,0,0,296.54,10.867Zm9.422-4.32.047,1.063a3.08,3.08,0,0,1,2.531-1.219q2.68,0,2.7,3.023V15H309.8V9.406a1.946,1.946,0,0,0-.418-1.352,1.675,1.675,0,0,0-1.277-.437,2.086,2.086,0,0,0-1.234.375,2.546,2.546,0,0,0-.828.984V15h-1.445V6.547Zm12.383,6.211a1.064,1.064,0,0,0-.441-.91,4.249,4.249,0,0,0-1.539-.559,7.276,7.276,0,0,1-1.742-.562,2.478,2.478,0,0,1-.953-.781,1.869,1.869,0,0,1-.309-1.078,2.193,2.193,0,0,1,.879-1.758,3.432,3.432,0,0,1,2.246-.719,3.532,3.532,0,0,1,2.332.742,2.357,2.357,0,0,1,.895,1.9h-1.453a1.3,1.3,0,0,0-.5-1.023,1.888,1.888,0,0,0-1.27-.43,1.976,1.976,0,0,0-1.234.344,1.082,1.082,0,0,0-.445.9.877.877,0,0,0,.414.789,5.1,5.1,0,0,0,1.5.508,7.8,7.8,0,0,1,1.754.578,2.559,2.559,0,0,1,1,.809,1.988,1.988,0,0,1,.324,1.152,2.163,2.163,0,0,1-.906,1.816,3.8,3.8,0,0,1-2.352.684,4.257,4.257,0,0,1-1.8-.359,2.922,2.922,0,0,1-1.223-1,2.42,2.42,0,0,1-.441-1.395h1.445a1.5,1.5,0,0,0,.582,1.152,2.258,2.258,0,0,0,1.434.426,2.331,2.331,0,0,0,1.316-.332A1.02,1.02,0,0,0,318.344,12.758ZM323.633,4.5V6.547h1.578V7.664h-1.578v5.249a1.173,1.173,0,0,0,.211.763.888.888,0,0,0,.719.254,3.5,3.5,0,0,0,.688-.094V15a4.215,4.215,0,0,1-1.109.155,1.8,1.8,0,0,1-1.461-.586,2.517,2.517,0,0,1-.492-1.664V7.664h-1.539V6.547h1.539V4.5Zm7.352,3.344a4.331,4.331,0,0,0-.711-.055A1.9,1.9,0,0,0,328.344,9v6H326.9V6.547h1.406l.023.977a2.251,2.251,0,0,1,2.016-1.133,1.477,1.477,0,0,1,.641.109Zm6.547,6.32a3.07,3.07,0,0,1-2.477.992A2.628,2.628,0,0,1,333,14.371a3.4,3.4,0,0,1-.715-2.324v-5.5h1.445v5.461q0,1.922,1.563,1.922a2.163,2.163,0,0,0,2.2-1.234V6.547h1.445V15h-1.375Zm6.367-1.281,1.969-6.336h1.547l-3.4,9.758q-.789,2.109-2.508,2.109l-.273-.023-.539-.1V17.117l.391.031a1.923,1.923,0,0,0,1.145-.3,2.149,2.149,0,0,0,.676-1.086l.32-.859-3.016-8.359h1.578Zm8.211,2.273a3.693,3.693,0,0,1-2.8-1.129,4.19,4.19,0,0,1-1.078-3.02v-.266a5.073,5.073,0,0,1,.48-2.246,3.748,3.748,0,0,1,1.344-1.547,3.378,3.378,0,0,1,1.871-.559,3.166,3.166,0,0,1,2.563,1.086,4.7,4.7,0,0,1,.914,3.109v.6H349.68a3,3,0,0,0,.73,2.02,2.3,2.3,0,0,0,1.777.77,2.517,2.517,0,0,0,1.3-.312,3.259,3.259,0,0,0,.93-.828l.883.688A3.55,3.55,0,0,1,352.11,15.156Zm-.18-7.578a1.928,1.928,0,0,0-1.469.637A3.1,3.1,0,0,0,349.727,10h4.234V9.891a2.753,2.753,0,0,0-.594-1.707A1.815,1.815,0,0,0,351.93,7.578Zm12.617,7.578a3.693,3.693,0,0,1-2.8-1.129,4.19,4.19,0,0,1-1.078-3.02v-.266a5.073,5.073,0,0,1,.48-2.246A3.748,3.748,0,0,1,362.5,6.949a3.378,3.378,0,0,1,1.871-.559,3.166,3.166,0,0,1,2.563,1.086,4.7,4.7,0,0,1,.914,3.109v.6h-5.727a3,3,0,0,0,.73,2.02,2.3,2.3,0,0,0,1.777.77,2.517,2.517,0,0,0,1.3-.312,3.259,3.259,0,0,0,.93-.828l.883.688A3.55,3.55,0,0,1,364.547,15.156Zm-.18-7.578a1.928,1.928,0,0,0-1.469.637A3.1,3.1,0,0,0,362.165,10H366.4V9.891a2.753,2.753,0,0,0-.594-1.707A1.815,1.815,0,0,0,364.368,7.578ZM371.086,15h-1.445V3h1.445ZM75.747,34.867a5.062,5.062,0,0,1-.883,3.109,2.829,2.829,0,0,1-2.391,1.18,3.1,3.1,0,0,1-2.422-.977v4.07H68.606v-11.7h1.32l.07.938a2.977,2.977,0,0,1,2.453-1.094,2.882,2.882,0,0,1,2.41,1.148,5.117,5.117,0,0,1,.887,3.2ZM74.3,34.7a3.735,3.735,0,0,0-.609-2.258,1.963,1.963,0,0,0-1.672-.828,2.125,2.125,0,0,0-1.969,1.164V36.82a2.129,2.129,0,0,0,1.984,1.156,1.954,1.954,0,0,0,1.652-.824A4.077,4.077,0,0,0,74.3,34.7ZM79.153,39H77.708V27h1.445Zm7.531,0a3.036,3.036,0,0,1-.2-.891,3.225,3.225,0,0,1-2.406,1.047,2.984,2.984,0,0,1-2.051-.707,2.288,2.288,0,0,1-.8-1.793,2.39,2.39,0,0,1,1-2.051,4.733,4.733,0,0,1,2.824-.73h1.406v-.664A1.623,1.623,0,0,0,86,32a1.821,1.821,0,0,0-1.336-.449,2.108,2.108,0,0,0-1.3.391,1.151,1.151,0,0,0-.523.945H81.4a2,2,0,0,1,.449-1.223,3.066,3.066,0,0,1,1.219-.934,4.1,4.1,0,0,1,1.691-.344,3.342,3.342,0,0,1,2.289.73,2.635,2.635,0,0,1,.859,2.012v3.891a4.757,4.757,0,0,0,.3,1.852V39Zm-2.4-1.1a2.54,2.54,0,0,0,1.289-.352,2.127,2.127,0,0,0,.883-.914V34.9H85.325q-2.656,0-2.656,1.555a1.316,1.316,0,0,0,.453,1.063A1.742,1.742,0,0,0,84.286,37.9Zm7.25-7.352.047,1.063a3.08,3.08,0,0,1,2.531-1.219q2.68,0,2.7,3.023V39H95.372V33.406a1.946,1.946,0,0,0-.418-1.352,1.675,1.675,0,0,0-1.277-.437,2.086,2.086,0,0,0-1.234.375,2.546,2.546,0,0,0-.828.984V39H90.168V30.547Zm14.93,8.609a3.693,3.693,0,0,1-2.8-1.129,4.19,4.19,0,0,1-1.078-3.02v-.266a5.073,5.073,0,0,1,.48-2.246,3.748,3.748,0,0,1,1.344-1.547,3.378,3.378,0,0,1,1.871-.559,3.166,3.166,0,0,1,2.563,1.086,4.7,4.7,0,0,1,.914,3.109v.6h-5.727a3,3,0,0,0,.73,2.02,2.3,2.3,0,0,0,1.777.77,2.517,2.517,0,0,0,1.3-.312,3.259,3.259,0,0,0,.93-.828l.883.688A3.55,3.55,0,0,1,106.465,39.156Zm-.18-7.578a1.928,1.928,0,0,0-1.469.637A3.1,3.1,0,0,0,104.083,34h4.234v-.109a2.753,2.753,0,0,0-.594-1.707A1.815,1.815,0,0,0,106.286,31.578Zm10.07,5.18a1.064,1.064,0,0,0-.441-.91,4.249,4.249,0,0,0-1.539-.559,7.277,7.277,0,0,1-1.742-.562,2.479,2.479,0,0,1-.953-.781,1.869,1.869,0,0,1-.309-1.078,2.193,2.193,0,0,1,.879-1.758,3.432,3.432,0,0,1,2.246-.719,3.532,3.532,0,0,1,2.332.742,2.357,2.357,0,0,1,.895,1.9H116.27a1.3,1.3,0,0,0-.5-1.023,1.888,1.888,0,0,0-1.27-.43,1.976,1.976,0,0,0-1.234.344,1.082,1.082,0,0,0-.445.9.877.877,0,0,0,.414.789,5.1,5.1,0,0,0,1.5.508,7.8,7.8,0,0,1,1.754.578,2.558,2.558,0,0,1,1,.809,1.988,1.988,0,0,1,.324,1.152,2.163,2.163,0,0,1-.906,1.816,3.8,3.8,0,0,1-2.352.684,4.257,4.257,0,0,1-1.8-.359,2.922,2.922,0,0,1-1.223-1,2.42,2.42,0,0,1-.441-1.395h1.445a1.5,1.5,0,0,0,.582,1.152,2.258,2.258,0,0,0,1.434.426,2.331,2.331,0,0,0,1.316-.332A1.02,1.02,0,0,0,116.356,36.758Zm5.289-8.258v2.047h1.578v1.117h-1.578v5.249a1.173,1.173,0,0,0,.211.763.888.888,0,0,0,.719.254,3.5,3.5,0,0,0,.688-.094V39a4.215,4.215,0,0,1-1.109.155,1.8,1.8,0,0,1-1.461-.586,2.517,2.517,0,0,1-.492-1.664V31.664h-1.539V30.547H120.2V28.5ZM129,31.844a4.331,4.331,0,0,0-.711-.055A1.9,1.9,0,0,0,126.356,33v6h-1.445V30.547h1.406l.023.977a2.251,2.251,0,0,1,2.016-1.133A1.477,1.477,0,0,1,129,30.5ZM135.231,39a3.036,3.036,0,0,1-.2-.891,3.225,3.225,0,0,1-2.406,1.047,2.984,2.984,0,0,1-2.051-.707,2.287,2.287,0,0,1-.8-1.793,2.39,2.39,0,0,1,1-2.051,4.733,4.733,0,0,1,2.824-.73H135v-.664A1.623,1.623,0,0,0,134.551,32a1.821,1.821,0,0,0-1.336-.449,2.107,2.107,0,0,0-1.3.391,1.151,1.151,0,0,0-.523.945h-1.453a2,2,0,0,1,.449-1.223,3.066,3.066,0,0,1,1.219-.934,4.1,4.1,0,0,1,1.691-.344,3.342,3.342,0,0,1,2.289.73,2.635,2.635,0,0,1,.859,2.012v3.891a4.757,4.757,0,0,0,.3,1.852V39Zm-2.4-1.1a2.54,2.54,0,0,0,1.289-.352,2.127,2.127,0,0,0,.883-.914V34.9h-1.133q-2.656,0-2.656,1.555a1.316,1.316,0,0,0,.453,1.063A1.742,1.742,0,0,0,132.833,37.9Zm7.844-9.4v2.047h1.578v1.117h-1.578v5.249a1.173,1.173,0,0,0,.211.763.888.888,0,0,0,.719.254,3.5,3.5,0,0,0,.688-.094V39a4.215,4.215,0,0,1-1.109.155,1.8,1.8,0,0,1-1.461-.586,2.517,2.517,0,0,1-.492-1.664V31.664h-1.539V30.547h1.539V28.5Zm6.773,10.656a3.693,3.693,0,0,1-2.8-1.129,4.19,4.19,0,0,1-1.078-3.02v-.266a5.073,5.073,0,0,1,.48-2.246,3.748,3.748,0,0,1,1.344-1.547,3.378,3.378,0,0,1,1.871-.559,3.166,3.166,0,0,1,2.563,1.086,4.7,4.7,0,0,1,.914,3.109v.6H145.02a3,3,0,0,0,.73,2.02,2.3,2.3,0,0,0,1.777.77,2.517,2.517,0,0,0,1.3-.312,3.258,3.258,0,0,0,.93-.828l.883.688A3.55,3.55,0,0,1,147.45,39.156Zm-.18-7.578a1.928,1.928,0,0,0-1.469.637A3.1,3.1,0,0,0,145.067,34H149.3v-.109a2.753,2.753,0,0,0-.594-1.707A1.815,1.815,0,0,0,147.27,31.578Zm.7-4.562h1.75l-2.094,2.3-1.164,0Zm4.1,7.688a4.968,4.968,0,0,1,.914-3.145,3.151,3.151,0,0,1,4.836-.074l.07-.937h1.32V38.8a3.439,3.439,0,0,1-.973,2.586,3.589,3.589,0,0,1-2.613.945,4.348,4.348,0,0,1-1.789-.391,3.08,3.08,0,0,1-1.336-1.07l.75-.867a2.826,2.826,0,0,0,2.273,1.148,2.214,2.214,0,0,0,1.645-.594,2.269,2.269,0,0,0,.59-1.672v-.727a2.971,2.971,0,0,1-2.367,1,2.887,2.887,0,0,1-2.4-1.2A5.224,5.224,0,0,1,152.075,34.7Zm1.453.164a3.79,3.79,0,0,0,.586,2.246,1.9,1.9,0,0,0,1.641.816,2.117,2.117,0,0,0,2.008-1.242V32.828a2.142,2.142,0,0,0-1.992-1.211,1.921,1.921,0,0,0-1.648.82A4.128,4.128,0,0,0,153.528,34.867ZM162.965,39H161.52V30.547h1.445ZM161.4,28.3a.863.863,0,0,1,.215-.594.807.807,0,0,1,.637-.242.819.819,0,0,1,.641.242.854.854,0,0,1,.219.594.826.826,0,0,1-.219.586.834.834,0,0,1-.641.234.821.821,0,0,1-.637-.234A.834.834,0,0,1,161.4,28.3Zm7.266,9.672a2.082,2.082,0,0,0,1.352-.469,1.649,1.649,0,0,0,.641-1.172h1.367a2.621,2.621,0,0,1-.5,1.383,3.293,3.293,0,0,1-1.23,1.047,3.55,3.55,0,0,1-1.629.391A3.482,3.482,0,0,1,165.922,38a4.59,4.59,0,0,1-1.02-3.152v-.242a5.089,5.089,0,0,1,.453-2.2,3.451,3.451,0,0,1,1.3-1.492,3.7,3.7,0,0,1,2-.531,3.39,3.39,0,0,1,2.363.852,3.043,3.043,0,0,1,1,2.211h-1.367a1.992,1.992,0,0,0-.621-1.348,1.932,1.932,0,0,0-1.379-.527,2.023,2.023,0,0,0-1.707.793,3.724,3.724,0,0,0-.605,2.293v.273a3.65,3.65,0,0,0,.6,2.25A2.033,2.033,0,0,0,168.668,37.977Zm4.6-3.281a4.993,4.993,0,0,1,.488-2.234,3.642,3.642,0,0,1,1.359-1.531,3.7,3.7,0,0,1,1.988-.539,3.565,3.565,0,0,1,2.793,1.2,4.6,4.6,0,0,1,1.066,3.18v.1a5.036,5.036,0,0,1-.473,2.215,3.589,3.589,0,0,1-1.352,1.527,3.743,3.743,0,0,1-2.02.547,3.556,3.556,0,0,1-2.785-1.2A4.575,4.575,0,0,1,173.27,34.8Zm1.453.172a3.616,3.616,0,0,0,.652,2.258,2.211,2.211,0,0,0,3.5-.012,3.954,3.954,0,0,0,.648-2.418,3.61,3.61,0,0,0-.66-2.254,2.1,2.1,0,0,0-1.754-.863,2.075,2.075,0,0,0-1.727.852A3.925,3.925,0,0,0,174.723,34.867Zm11.664-.164a4.952,4.952,0,0,1,.922-3.129,3.137,3.137,0,0,1,4.766-.168V27h1.445V39h-1.328l-.07-.906a2.943,2.943,0,0,1-2.414,1.063,2.887,2.887,0,0,1-2.395-1.2,5.008,5.008,0,0,1-.926-3.141Zm1.445.164a3.749,3.749,0,0,0,.594,2.25,1.919,1.919,0,0,0,1.641.813,2.108,2.108,0,0,0,2.008-1.234V32.813a2.125,2.125,0,0,0-1.992-1.2,1.929,1.929,0,0,0-1.656.82A4.128,4.128,0,0,0,187.833,34.867Zm11.438,4.289a3.693,3.693,0,0,1-2.8-1.129,4.19,4.19,0,0,1-1.078-3.02v-.266a5.073,5.073,0,0,1,.48-2.246,3.748,3.748,0,0,1,1.344-1.547,3.378,3.378,0,0,1,1.871-.559,3.166,3.166,0,0,1,2.563,1.086,4.7,4.7,0,0,1,.914,3.109v.6H196.84a3,3,0,0,0,.73,2.02,2.3,2.3,0,0,0,1.777.77,2.517,2.517,0,0,0,1.3-.312,3.258,3.258,0,0,0,.93-.828l.883.688A3.55,3.55,0,0,1,199.27,39.156Zm-.18-7.578a1.928,1.928,0,0,0-1.469.637A3.1,3.1,0,0,0,196.887,34h4.234v-.109a2.753,2.753,0,0,0-.594-1.707A1.815,1.815,0,0,0,199.09,31.578ZM209.77,39h-1.445V27h1.445Zm7.531,0a3.036,3.036,0,0,1-.2-.891,3.225,3.225,0,0,1-2.406,1.047,2.984,2.984,0,0,1-2.051-.707,2.287,2.287,0,0,1-.8-1.793,2.39,2.39,0,0,1,1-2.051,4.733,4.733,0,0,1,2.824-.73h1.406v-.664A1.623,1.623,0,0,0,216.622,32a1.821,1.821,0,0,0-1.336-.449,2.107,2.107,0,0,0-1.3.391,1.151,1.151,0,0,0-.523.945h-1.453a2,2,0,0,1,.449-1.223,3.066,3.066,0,0,1,1.219-.934,4.1,4.1,0,0,1,1.691-.344,3.342,3.342,0,0,1,2.289.73,2.635,2.635,0,0,1,.859,2.012v3.891a4.757,4.757,0,0,0,.3,1.852V39Zm-2.4-1.1a2.54,2.54,0,0,0,1.289-.352,2.127,2.127,0,0,0,.883-.914V34.9h-1.133q-2.656,0-2.656,1.555a1.316,1.316,0,0,0,.453,1.063A1.742,1.742,0,0,0,214.9,37.9Zm9.461-3.2a4.993,4.993,0,0,1,.488-2.234,3.642,3.642,0,0,1,1.359-1.531,3.7,3.7,0,0,1,1.988-.539,3.565,3.565,0,0,1,2.793,1.2,4.6,4.6,0,0,1,1.066,3.18v.1a5.036,5.036,0,0,1-.473,2.215,3.589,3.589,0,0,1-1.352,1.527,3.743,3.743,0,0,1-2.02.547,3.556,3.556,0,0,1-2.785-1.2,4.575,4.575,0,0,1-1.066-3.164Zm1.453.172a3.616,3.616,0,0,0,.652,2.258,2.211,2.211,0,0,0,3.5-.012,3.954,3.954,0,0,0,.648-2.418,3.61,3.61,0,0,0-.66-2.254,2.1,2.1,0,0,0-1.754-.863,2.075,2.075,0,0,0-1.727.852A3.925,3.925,0,0,0,225.817,34.867Zm12.141-3.023a4.331,4.331,0,0,0-.711-.055A1.9,1.9,0,0,0,235.317,33v6h-1.445V30.547h1.406l.023.977a2.251,2.251,0,0,1,2.016-1.133,1.477,1.477,0,0,1,.641.109Zm.836,2.859a4.968,4.968,0,0,1,.914-3.145,3.151,3.151,0,0,1,4.836-.074l.07-.937h1.32V38.8a3.439,3.439,0,0,1-.973,2.586,3.589,3.589,0,0,1-2.613.945,4.348,4.348,0,0,1-1.789-.391,3.08,3.08,0,0,1-1.336-1.07l.75-.867a2.826,2.826,0,0,0,2.273,1.148,2.214,2.214,0,0,0,1.645-.594,2.269,2.269,0,0,0,.59-1.672v-.727a2.971,2.971,0,0,1-2.367,1,2.887,2.887,0,0,1-2.4-1.2A5.224,5.224,0,0,1,238.793,34.7Zm1.453.164a3.79,3.79,0,0,0,.586,2.246,1.9,1.9,0,0,0,1.641.816,2.117,2.117,0,0,0,2.008-1.242V32.828a2.142,2.142,0,0,0-1.992-1.211,1.921,1.921,0,0,0-1.648.82A4.128,4.128,0,0,0,240.247,34.867ZM253.333,39a3.036,3.036,0,0,1-.2-.891,3.225,3.225,0,0,1-2.406,1.047,2.984,2.984,0,0,1-2.051-.707,2.287,2.287,0,0,1-.8-1.793,2.39,2.39,0,0,1,1-2.051,4.733,4.733,0,0,1,2.824-.73h1.406v-.664A1.623,1.623,0,0,0,252.653,32a1.821,1.821,0,0,0-1.336-.449,2.107,2.107,0,0,0-1.3.391,1.151,1.151,0,0,0-.523.945h-1.453a2,2,0,0,1,.449-1.223,3.066,3.066,0,0,1,1.219-.934,4.1,4.1,0,0,1,1.691-.344,3.342,3.342,0,0,1,2.289.73,2.635,2.635,0,0,1,.859,2.012v3.891a4.757,4.757,0,0,0,.3,1.852V39Zm-2.4-1.1a2.54,2.54,0,0,0,1.289-.352,2.127,2.127,0,0,0,.883-.914V34.9h-1.133q-2.656,0-2.656,1.555a1.316,1.316,0,0,0,.453,1.063A1.742,1.742,0,0,0,250.934,37.9Zm7.25-7.352.047,1.063a3.08,3.08,0,0,1,2.531-1.219q2.68,0,2.7,3.023V39H262.02V33.406a1.946,1.946,0,0,0-.418-1.352,1.675,1.675,0,0,0-1.277-.437,2.086,2.086,0,0,0-1.234.375,2.546,2.546,0,0,0-.828.984V39h-1.445V30.547ZM267.215,39H265.77V30.547h1.445Zm-1.562-10.7a.863.863,0,0,1,.215-.594.807.807,0,0,1,.637-.242.819.819,0,0,1,.641.242.854.854,0,0,1,.219.594.826.826,0,0,1-.219.586.834.834,0,0,1-.641.234.821.821,0,0,1-.637-.234A.834.834,0,0,1,265.653,28.3Zm5.234,9.516h4.945V39h-6.711V37.938l4.664-6.2h-4.594v-1.2H275.6V31.57ZM282.676,39a3.036,3.036,0,0,1-.2-.891,3.225,3.225,0,0,1-2.406,1.047,2.984,2.984,0,0,1-2.051-.707,2.288,2.288,0,0,1-.8-1.793,2.39,2.39,0,0,1,1-2.051,4.733,4.733,0,0,1,2.824-.73h1.406v-.664A1.623,1.623,0,0,0,282,32a1.821,1.821,0,0,0-1.336-.449,2.108,2.108,0,0,0-1.3.391,1.151,1.151,0,0,0-.523.945h-1.453a2,2,0,0,1,.449-1.223,3.066,3.066,0,0,1,1.219-.934,4.1,4.1,0,0,1,1.691-.344,3.342,3.342,0,0,1,2.289.73,2.635,2.635,0,0,1,.859,2.012v3.891a4.757,4.757,0,0,0,.3,1.852V39Zm-2.4-1.1a2.54,2.54,0,0,0,1.289-.352,2.126,2.126,0,0,0,.883-.914V34.9h-1.133q-2.656,0-2.656,1.555a1.316,1.316,0,0,0,.453,1.063A1.742,1.742,0,0,0,280.278,37.9Zm9.273.078a2.082,2.082,0,0,0,1.352-.469,1.649,1.649,0,0,0,.641-1.172h1.367a2.621,2.621,0,0,1-.5,1.383,3.293,3.293,0,0,1-1.23,1.047,3.55,3.55,0,0,1-1.629.391A3.482,3.482,0,0,1,286.805,38a4.59,4.59,0,0,1-1.02-3.152v-.242a5.089,5.089,0,0,1,.453-2.2,3.451,3.451,0,0,1,1.3-1.492,3.7,3.7,0,0,1,2-.531,3.39,3.39,0,0,1,2.363.852,3.043,3.043,0,0,1,1,2.211h-1.367a1.992,1.992,0,0,0-.621-1.348,1.932,1.932,0,0,0-1.379-.527,2.023,2.023,0,0,0-1.707.793,3.724,3.724,0,0,0-.605,2.293v.273a3.65,3.65,0,0,0,.6,2.25A2.033,2.033,0,0,0,289.551,37.977ZM296.106,39h-1.445V30.547h1.445Zm-1.562-10.7a.863.863,0,0,1,.215-.594.807.807,0,0,1,.637-.242.819.819,0,0,1,.641.242.854.854,0,0,1,.219.594.826.826,0,0,1-.219.586.834.834,0,0,1-.641.234.821.821,0,0,1-.637-.234A.834.834,0,0,1,294.543,28.3Zm3.492,6.391a4.993,4.993,0,0,1,.488-2.234,3.643,3.643,0,0,1,1.359-1.531,3.7,3.7,0,0,1,1.988-.539,3.565,3.565,0,0,1,2.793,1.2,4.6,4.6,0,0,1,1.066,3.18v.1a5.036,5.036,0,0,1-.473,2.215,3.589,3.589,0,0,1-1.352,1.527,3.743,3.743,0,0,1-2.02.547,3.556,3.556,0,0,1-2.785-1.2,4.575,4.575,0,0,1-1.066-3.164Zm1.453.172a3.616,3.616,0,0,0,.652,2.258,2.211,2.211,0,0,0,3.5-.012,3.955,3.955,0,0,0,.648-2.418,3.61,3.61,0,0,0-.66-2.254,2.1,2.1,0,0,0-1.754-.863,2.075,2.075,0,0,0-1.727.852A3.925,3.925,0,0,0,299.489,34.867Zm3.039-7.852h1.75l-2.094,2.3-1.164,0Zm6.383,3.531.047,1.063a3.08,3.08,0,0,1,2.531-1.219q2.68,0,2.7,3.023V39h-1.445V33.406a1.946,1.946,0,0,0-.418-1.352,1.675,1.675,0,0,0-1.277-.437,2.086,2.086,0,0,0-1.234.375,2.546,2.546,0,0,0-.828.984V39h-1.445V30.547Zm7.492,7.7a.905.905,0,0,1,.223-.625.848.848,0,0,1,.668-.25.874.874,0,0,1,.676.25.887.887,0,0,1,.23.625.839.839,0,0,1-.23.6.89.89,0,0,1-.676.242.8.8,0,0,1-.891-.844Z" transform="translate(771.999 1892.695)" fill="#12263f"/>
  </g>
</svg>
