<svg xmlns="http://www.w3.org/2000/svg" xmlns:xlink="http://www.w3.org/1999/xlink" width="42.262" height="53.68" viewBox="0 0 42.262 53.68">
  <defs>
    <clipPath id="clip-path">
      <rect id="Rectángulo_57824" data-name="Rectángulo 57824" width="42.262" height="53.68" transform="translate(0 0)" fill="#fff"/>
    </clipPath>
  </defs>
  <g id="Grupo_183196" data-name="Grupo 183196" transform="translate(0 0)">
    <g id="Grupo_183195" data-name="Grupo 183195" clip-path="url(#clip-path)">
      <path id="Trazado_214133" data-name="Trazado 214133" d="M.906,42.328A.906.906,0,0,1,0,41.422V6.487A6.494,6.494,0,0,1,6.487,0H37.564a.906.906,0,0,1,.906.906V7.078a.906.906,0,1,1-1.812,0V1.811H6.487A4.68,4.68,0,0,0,1.812,6.487V36.929a6.47,6.47,0,0,1,4.675-1.994H10.6a.906.906,0,1,1,0,1.812H6.487a4.68,4.68,0,0,0-4.675,4.675.906.906,0,0,1-.906.906" fill="#fff"/>
      <path id="Trazado_214134" data-name="Trazado 214134" d="M16.963,47.91H6.487A6.487,6.487,0,0,1,0,41.224a6.658,6.658,0,0,1,6.718-6.288h4.557a.906.906,0,1,1,0,1.812H6.721a4.833,4.833,0,0,0-4.907,4.53A4.673,4.673,0,0,0,6.487,46.1H16.963a.906.906,0,1,1,0,1.812" fill="#fff"/>
      <path id="Trazado_214135" data-name="Trazado 214135" d="M14.852,42.328H7.708a.906.906,0,1,1,0-1.812h7.144a.906.906,0,1,1,0,1.812" fill="#fff"/>
      <path id="Trazado_214136" data-name="Trazado 214136" d="M35.469,23.614a.906.906,0,0,1-.906-.906V16.234a.906.906,0,0,1,1.812,0v6.474a.906.906,0,0,1-.906.906" fill="#fff"/>
      <path id="Trazado_214137" data-name="Trazado 214137" d="M30.363,23.614a.906.906,0,0,1-.906-.906V10.885a.906.906,0,1,1,1.812,0V22.708a.906.906,0,0,1-.906.906" fill="#fff"/>
      <path id="Trazado_214138" data-name="Trazado 214138" d="M25.257,23.554a.906.906,0,0,1-.906-.906V10.886a.906.906,0,0,1,1.812,0V22.648a.906.906,0,0,1-.906.906" fill="#fff"/>
      <path id="Trazado_214139" data-name="Trazado 214139" d="M20.152,30.973a.906.906,0,0,1-.906-.906V21.675a.905.905,0,1,1,1.811,0v8.392a.906.906,0,0,1-.9.906" fill="#fff"/>
      <path id="Trazado_214140" data-name="Trazado 214140" d="M38.386,47.91H20.151A.906.906,0,0,1,19.245,47V42.213l-4.228-4.542a8.69,8.69,0,0,1-2.337-5.939V21.846A4.309,4.309,0,0,1,16.5,17.5a4.22,4.22,0,0,1,2.748.724v-7.2a3.527,3.527,0,0,1,2.837-3.541,3.486,3.486,0,0,1,2.318.39,3.448,3.448,0,0,1,6.8.009,3.491,3.491,0,0,1,2.334-.4,3.528,3.528,0,0,1,2.838,3.541v2.17a3.46,3.46,0,0,1,5.106,3.179V34.805a.9.9,0,0,1-.041.268L40.4,38.434a24.555,24.555,0,0,0-1.1,7.285V47a.906.906,0,0,1-.906.906M21.057,46.1H37.48v-.379A26.362,26.362,0,0,1,38.667,37.9l1-3.23v-18.3a1.741,1.741,0,0,0-1.34-1.756,1.647,1.647,0,0,0-1.954,1.619.906.906,0,1,1-1.812,0V11.023a1.741,1.741,0,0,0-1.34-1.756,1.647,1.647,0,0,0-1.954,1.619.906.906,0,1,1-1.812,0v-2.3a1.741,1.741,0,0,0-1.34-1.756,1.65,1.65,0,0,0-1.954,1.62v2.431a.906.906,0,0,1-1.812,0A1.647,1.647,0,0,0,22.4,9.267a1.741,1.741,0,0,0-1.339,1.756V21.675a.906.906,0,1,1-1.812,0,2.384,2.384,0,0,0-.771-1.752,2.355,2.355,0,0,0-1.82-.615,2.487,2.487,0,0,0-2.162,2.538v9.886a6.89,6.89,0,0,0,1.851,4.7l4.471,4.8a.9.9,0,0,1,.243.617Z" fill="#fff"/>
      <path id="Trazado_214141" data-name="Trazado 214141" d="M6.721,36.747a.906.906,0,0,1-.906-.9L5.581.912A.906.906,0,0,1,7.393.9l.234,34.936a.906.906,0,0,1-.9.912Z" fill="#fff"/>
      <path id="Trazado_214142" data-name="Trazado 214142" d="M41.356,53.68H16.963a.906.906,0,0,1-.906-.906V47a.906.906,0,0,1,.906-.906H41.356a.906.906,0,0,1,.906.906v5.771a.906.906,0,0,1-.906.906M17.869,51.868H40.45V47.909H17.869Z" fill="#fff"/>
      <path id="Trazado_214143" data-name="Trazado 214143" d="M24.474,53.681a3.792,3.792,0,1,1,3.791-3.791,3.8,3.8,0,0,1-3.791,3.791m0-5.771a1.979,1.979,0,1,0,1.979,1.98,1.981,1.981,0,0,0-1.979-1.98" fill="#fff"/>
    </g>
  </g>
</svg>
