<svg id="Grupo_183242" data-name="Grupo 183242" xmlns="http://www.w3.org/2000/svg" xmlns:xlink="http://www.w3.org/1999/xlink" width="169.354" height="277.18" viewBox="0 0 169.354 277.18">
  <defs>
    <clipPath id="clip-path">
      <rect id="Rectángulo_57985" data-name="Rectángulo 57985" width="169.354" height="277.18" fill="none"/>
    </clipPath>
  </defs>
  <g id="Grupo_183241" data-name="Grupo 183241" clip-path="url(#clip-path)">
    <path id="Trazado_214260" data-name="Trazado 214260" d="M158.83,360.723l-3.071,2.446s-8.4-2.954-10.3,6.837c0,0-.5,4.173,2.19,4.18s1.583-.456,5.4-.346,6.979-1.864,7.538-4.9l1.825-2.573Z" transform="translate(-98.998 -247.765)" fill="#ea8e50"/>
    <path id="Trazado_214261" data-name="Trazado 214261" d="M183.69,239.269c-2.45-2.509-2.253-4.364-2.253-4.364s28.369-22.782,31.246-24.637c1.961-1.265,22.853-19.432,32.619-30.508,4.844-5.494,10.845-3.362,17.71-1.43l5.654,1.591c6.826,1.921,8.6,11.286,3,15.837-15.775,12.817-42.018,27.233-46.928,30.262-12.19,7.521-36.049,16.459-36.049,16.459a15.171,15.171,0,0,1-5-3.21" transform="translate(-123.511 -121.061)" fill="#1e3d70"/>
    <path id="Trazado_214262" data-name="Trazado 214262" d="M27.805,824.462s-6.885,5.059-17.434,2.386c0,0-8.505-1.9-10.371,2.26,0,0,13.045,6.5,16.345,8.278a39.482,39.482,0,0,1,6.919,5.089,3.466,3.466,0,0,0,4.953-.375c.574-.692,1.23-1.516,1.95-2.473,2.011-2.673,6.7-11.31,6.7-11.31Z" transform="translate(0 -566.287)" fill="#233862"/>
    <path id="Trazado_214263" data-name="Trazado 214263" d="M127.846,130.623c0-26.076-21.551-47.215-48.135-47.215s-48.135,21.139-48.135,47.215,21.551,47.215,48.135,47.215,48.135-21.139,48.135-47.215" transform="translate(-21.495 -57.289)" fill="#e2810e"/>
    <path id="Trazado_214264" data-name="Trazado 214264" d="M141,130.623c0-26.076-21.551-47.215-48.135-47.215s-48.136,21.139-48.136,47.215,21.551,47.215,48.136,47.215S141,156.7,141,130.623" transform="translate(-30.449 -57.289)" fill="#ffb93e"/>
    <path id="Trazado_214265" data-name="Trazado 214265" d="M70.978,172.029a42.439,42.439,0,0,1,0-60.836,44.463,44.463,0,0,1,62.022,0,42.438,42.438,0,0,1,0,60.836,44.464,44.464,0,0,1-62.022,0M60.749,141.611c0,22.3,18.5,40.452,41.24,40.452s41.24-18.147,41.24-40.452-18.5-40.451-41.24-40.451-41.24,18.146-41.24,40.451" transform="translate(-39.574 -67.719)" fill="#ffa412"/>
    <path id="Trazado_214266" data-name="Trazado 214266" d="M149.252,180.986a4.919,4.919,0,0,0,1.527,1.653,6.325,6.325,0,0,0,2.308.941,9.547,9.547,0,0,0,3.052.081,11.412,11.412,0,0,0,2.882-.721,6.385,6.385,0,0,0,3.9-4.351,10.067,10.067,0,0,0,.2-4l10.509-1.223a16.335,16.335,0,0,1-.484,6.977,13.6,13.6,0,0,1-2.92,5.128,15.542,15.542,0,0,1-4.653,3.447,24.848,24.848,0,0,1-5.68,1.971l.794,6.561-5.782.673-.8-6.593a22.333,22.333,0,0,1-6.106-.633,14.853,14.853,0,0,1-4.892-2.186,11.9,11.9,0,0,1-3.412-3.669,12.819,12.819,0,0,1-1.669-5.114,12.012,12.012,0,0,1,3.191-10.2,22,22,0,0,1,4.585-3.709q2.727-1.694,6.1-3.4a33.933,33.933,0,0,0,3.468-1.966,9.937,9.937,0,0,0,2.171-1.865,4.825,4.825,0,0,0,1.032-1.985,6.45,6.45,0,0,0,.095-2.262,7.043,7.043,0,0,0-.64-2.244,4.9,4.9,0,0,0-1.35-1.709,5.384,5.384,0,0,0-2.094-1,8.044,8.044,0,0,0-2.872-.12,6.227,6.227,0,0,0-4.58,2.532q-1.562,2.182-1.08,6.158l-10.509,1.223a17.627,17.627,0,0,1,.24-6.093,13.716,13.716,0,0,1,2.186-4.942,14.011,14.011,0,0,1,3.943-3.684,18.394,18.394,0,0,1,5.476-2.284l-.87-7.189,5.818-.677.858,7.091a20.67,20.67,0,0,1,6.075.687,15.33,15.33,0,0,1,4.866,2.273,12.042,12.042,0,0,1,3.4,3.7,13.974,13.974,0,0,1,1.171,10.751,12.554,12.554,0,0,1-2.721,4.483,21.755,21.755,0,0,1-4.607,3.678,69.534,69.534,0,0,1-6.162,3.321,26.6,26.6,0,0,0-3.337,1.833,9.923,9.923,0,0,0-2.153,1.864,5.144,5.144,0,0,0-1.077,2.074,6.966,6.966,0,0,0-.1,2.5,5.876,5.876,0,0,0,.711,2.219" transform="translate(-92.163 -92.391)" fill="#ffa412"/>
    <path id="Trazado_214267" data-name="Trazado 214267" d="M74.436,551.606s4.192,9.481,13.869,7.738c0,0,19.746-16,33.291-32.612,4.4-5.4,8.144-10.859,10.346-15.858,8.982-20.4,33.224-50.821,48.638-66.24l-38.563-13.684s-12.352,24.372-28.787,54.309c-11.844,21.57-25.805,46.03-38.793,66.346" transform="translate(-50.672 -296.001)" fill="#2b478b"/>
    <path id="Trazado_214268" data-name="Trazado 214268" d="M195.948,485.26l8.367,41.472c4.4-5.4,8.145-10.859,10.346-15.858,8.982-20.4,33.225-50.821,48.638-66.24L224.735,430.95s-12.352,24.372-28.787,54.309" transform="translate(-133.392 -296.001)" fill="#233862"/>
    <path id="Trazado_214269" data-name="Trazado 214269" d="M264.217,832.937s.42,7.566-8.93,8.575c0,0-5.343.028-5.358,4.843l27.176.084a20.375,20.375,0,0,0,.98-6.1c.147-3.195-3.157-11.547-3.157-11.547Z" transform="translate(-170.139 -569.259)" fill="#233862"/>
    <path id="Trazado_214270" data-name="Trazado 214270" d="M263.17,427.269s-17.18,18.516-28.085,51.875c-5.934,18.15,10.875,63.783,14.152,79.638,0,0,11.276.939,18.985-1.985,0,0,.586-32.747-3.923-57.987-2.523-14.125,22.62-30.21,33.606-55.733,7.474-17.364-1.618-17.069-12.793-17.486Z" transform="translate(-159.178 -292.32)" fill="#2b478b"/>
    <path id="Trazado_214271" data-name="Trazado 214271" d="M387.859,117.024c9.558,5.294,29.126.411,29.126.411s-7.946-8.911-4.336-23.262l-7.5,3.738-8.061,4.016a64.41,64.41,0,0,0-.884,7.087c-.092,1.172-.175,2.482-.232,3.913a25.222,25.222,0,0,0-8.109,4.1" transform="translate(-264.035 -64.683)" fill="#ffb07b"/>
    <path id="Trazado_214272" data-name="Trazado 214272" d="M278.074,238.942c0,1.648,1.935,2.437,2.346,2.517,3.855.691,14.62,4.8,24.317,5.74,8.165.839,15.745.043,24.074-1.6,1.1-.218,3.692-.9,3.876-1.938.23-1.132,32.124-63.776,7.33-90.685-.582-.631-5.476.506-9.952,1.548a18.7,18.7,0,0,1-11.311-.907l-4.2,2.166c-5.155,2.817-14.908,12.827-16.049,20.681-.579,3.994-2.908,6.952-3.582,10.466q-.375,1.95-.766,3.806-.762,3.64-1.57,6.932c-1.458,5.94-3,11.054-4.509,15.472-1.608,4.691-3.186,8.593-4.6,11.856-1.828,4.232-3.372,7.4-4.338,9.817a11.916,11.916,0,0,0-1.072,4.127" transform="translate(-189.299 -104.949)" fill="#d2e3fc"/>
    <path id="Trazado_214273" data-name="Trazado 214273" d="M281.434,281.448c45.023-20.806,60.615-60.758,60.615-60.758s-36.58,13.235-45.6,16.681q-.761,3.64-1.57,6.932c-1.458,5.94-3,11.054-4.509,15.472-1.608,4.691-3.186,8.593-4.6,11.856-1.828,4.232-3.373,7.4-4.338,9.817" transform="translate(-191.586 -151.582)" fill="#a4c8fc"/>
    <path id="Trazado_214274" data-name="Trazado 214274" d="M162.5,375.677l-3.891,1.4s-7.791-5.4-12.642,3.385c0,0-1.755,3.839,1.023,4.672s1.767.049,5.671,1.324,7.749.357,9.224-2.379l2.644-1.9Z" transform="translate(-98.998 -257.868)" fill="#ffb07b"/>
    <path id="Trazado_214275" data-name="Trazado 214275" d="M184.426,248.6c-1.439-3.681-2.095-5.349-2.095-5.349s29.4-23.5,32.393-25.52c2.041-1.374,22.362-16.273,32.269-27.885a20.965,20.965,0,0,1,20.157-6.851l6.171,1.27a8.947,8.947,0,0,1,4.092,15.645c-16.28,13.689-43.738,29.568-48.858,32.87-12.709,8.2-40.821,19.687-40.821,19.687a7.158,7.158,0,0,1-3.309-3.868" transform="translate(-124.122 -125.392)" fill="#d2e3fc"/>
    <path id="Trazado_214276" data-name="Trazado 214276" d="M413.985,117.213c9.4.518,15.512-7.094,15.512-7.094a74.783,74.783,0,0,1-6.567-4.009l-8.061,4.016a64.4,64.4,0,0,0-.884,7.087" transform="translate(-281.82 -72.882)" fill="#ea8e50"/>
    <path id="Trazado_214277" data-name="Trazado 214277" d="M399.681,59.751s14.241,10.025,20.47,1.229,12.261-13.425,3.431-20.2-12.992-4.633-15.8-2.193-11.647,18.327-8.1,21.161" transform="translate(-271.521 -24.886)" fill="#ffb07b"/>
    <path id="Trazado_214278" data-name="Trazado 214278" d="M422.011,5.76A22.189,22.189,0,0,1,423.67,0s.894,3.631,7.659,3.13,17.49.653,21.064,8.215a16.024,16.024,0,0,1,.61,1.484,17.215,17.215,0,0,0,.8-4.189c1.286,3.256,0,7.328,0,7.328h0c.019.118.035.237.053.356,1.493,1.238,2.747,5.088,2.747,5.088a4.675,4.675,0,0,0-2.529-2.206c.03,5.885-2.4,11.638-6.673,13.35-6.245,2.5-6.194.594-12.475,4.68,0,0-1.685-2.05-.536-3.427s5.489-3.381,3.064-5.385-3.319.251-4.213-1.127,3.575-5.385-2.17-9.141-9.575-9.015-9.064-12.4" transform="translate(-287.253)" fill="#233862"/>
  </g>
</svg>
