<svg xmlns="http://www.w3.org/2000/svg" xmlns:xlink="http://www.w3.org/1999/xlink" width="153" height="153" viewBox="0 0 153 153">
  <defs>
    <clipPath id="clip-path">
      <rect id="Rectángulo_57601" data-name="Rectángulo 57601" width="81.681" height="66.854" fill="#12263f"/>
    </clipPath>
  </defs>
  <g id="Grupo_183467" data-name="Grupo 183467" transform="translate(-339 -2446.75)">
    <circle id="Elipse_5515" data-name="Elipse 5515" cx="76.5" cy="76.5" r="76.5" transform="translate(339 2446.75)" fill="#fff"/>
    <g id="Grupo_183023" data-name="Grupo 183023" transform="translate(375 2489.75)" clip-path="url(#clip-path)">
      <path id="Trazado_213512" data-name="Trazado 213512" d="M22.961,60.869H6.666a1.31,1.31,0,0,1-1.31-1.309V33.525H4.025A4.031,4.031,0,0,1,0,29.5V15.241a4.935,4.935,0,0,1,4.931-4.93H9a1.309,1.309,0,1,1,0,2.617H4.931a2.314,2.314,0,0,0-2.312,2.312V29.5a1.408,1.408,0,0,0,1.407,1.407H6.666a1.309,1.309,0,0,1,1.309,1.309V58.252H21.653V32.215a1.309,1.309,0,0,1,1.309-1.309H25.6A1.409,1.409,0,0,0,27.009,29.5V15.241A2.315,2.315,0,0,0,24.7,12.928H20.622a1.309,1.309,0,0,1,0-2.617H24.7a4.935,4.935,0,0,1,4.93,4.93V29.5A4.03,4.03,0,0,1,25.6,33.525H24.27V59.56a1.309,1.309,0,0,1-1.309,1.309" transform="translate(0 5.986)" fill="#12263f"/>
      <path id="Trazado_213513" data-name="Trazado 213513" d="M4.7,30.588a1.309,1.309,0,0,1-1.309-1.309V16.68a1.309,1.309,0,0,1,2.617,0v12.6A1.309,1.309,0,0,1,4.7,30.588" transform="translate(1.967 8.923)" fill="#12263f"/>
      <path id="Trazado_213514" data-name="Trazado 213514" d="M15.009,30.588A1.309,1.309,0,0,1,13.7,29.279V16.68a1.309,1.309,0,0,1,2.617,0v12.6a1.309,1.309,0,0,1-1.309,1.309" transform="translate(7.953 8.923)" fill="#12263f"/>
      <path id="Trazado_213515" data-name="Trazado 213515" d="M9.853,50.867a1.309,1.309,0,0,1-1.309-1.309V28.851a1.309,1.309,0,1,1,2.617,0V49.558a1.309,1.309,0,0,1-1.309,1.309" transform="translate(4.96 15.988)" fill="#12263f"/>
      <path id="Trazado_213516" data-name="Trazado 213516" d="M11.986,14.235A7.118,7.118,0,1,1,19.1,7.119a7.125,7.125,0,0,1-7.119,7.117m0-11.618a4.5,4.5,0,1,0,4.5,4.5,4.5,4.5,0,0,0-4.5-4.5" transform="translate(2.826 0)" fill="#12263f"/>
      <path id="Trazado_213517" data-name="Trazado 213517" d="M10.961,29.174a1.306,1.306,0,0,1-.847-.311L7.1,26.3A1.309,1.309,0,0,1,6.64,25.18l1-10.863a1.309,1.309,0,1,1,2.606.239L9.31,24.742l1.652,1.405,1.647-1.4L11.6,14.565a1.309,1.309,0,1,1,2.6-.258L15.282,25.17a1.313,1.313,0,0,1-.455,1.127l-3.019,2.565a1.306,1.306,0,0,1-.847.311" transform="translate(3.851 7.62)" fill="#12263f"/>
      <path id="Trazado_213518" data-name="Trazado 213518" d="M38.265,60.835H21.971a1.31,1.31,0,0,1-1.31-1.309V33.583h-.879a1.309,1.309,0,1,1,0-2.617h2.189a1.309,1.309,0,0,1,1.309,1.309V58.218H36.957V32.274a1.309,1.309,0,0,1,1.309-1.309h2.641a1.409,1.409,0,0,0,1.407-1.407V15.3A2.315,2.315,0,0,0,40,12.989H35.926a1.309,1.309,0,0,1,0-2.619H40A4.936,4.936,0,0,1,44.93,15.3V29.559a4.028,4.028,0,0,1-4.024,4.024H39.574V59.526a1.309,1.309,0,0,1-1.309,1.309" transform="translate(10.723 6.02)" fill="#12263f"/>
      <path id="Trazado_213519" data-name="Trazado 213519" d="M24.142,12.988H20.068a1.309,1.309,0,0,1,0-2.617h4.074a1.309,1.309,0,0,1,0,2.617" transform="translate(10.889 6.02)" fill="#12263f"/>
      <path id="Trazado_213520" data-name="Trazado 213520" d="M21.166,30.646a1.309,1.309,0,0,1-1.309-1.309v-12.6a1.309,1.309,0,1,1,2.617,0v12.6a1.309,1.309,0,0,1-1.309,1.309" transform="translate(11.527 8.956)" fill="#12263f"/>
      <path id="Trazado_213521" data-name="Trazado 213521" d="M31.477,30.646a1.309,1.309,0,0,1-1.309-1.309v-12.6a1.309,1.309,0,1,1,2.617,0v12.6a1.309,1.309,0,0,1-1.309,1.309" transform="translate(17.512 8.956)" fill="#12263f"/>
      <path id="Trazado_213522" data-name="Trazado 213522" d="M26.321,50.832a1.309,1.309,0,0,1-1.309-1.309V28.911a1.309,1.309,0,1,1,2.617,0V49.523a1.308,1.308,0,0,1-1.309,1.309" transform="translate(14.519 16.023)" fill="#12263f"/>
      <path id="Trazado_213523" data-name="Trazado 213523" d="M28.454,14.3a7.118,7.118,0,1,1,7.118-7.119A7.126,7.126,0,0,1,28.454,14.3m0-11.618a4.5,4.5,0,1,0,4.5,4.5,4.5,4.5,0,0,0-4.5-4.5" transform="translate(12.386 0.035)" fill="#12263f"/>
      <path id="Trazado_213524" data-name="Trazado 213524" d="M27.429,29.233a1.306,1.306,0,0,1-.847-.311l-3.017-2.565a1.306,1.306,0,0,1-.457-1.117l1-10.863a1.309,1.309,0,1,1,2.606.239L25.778,24.8l1.652,1.405,1.647-1.4L28.069,14.624a1.309,1.309,0,1,1,2.606-.258L31.75,25.229a1.313,1.313,0,0,1-.455,1.127l-3.019,2.565a1.306,1.306,0,0,1-.847.311" transform="translate(13.411 7.654)" fill="#12263f"/>
      <path id="Trazado_213525" data-name="Trazado 213525" d="M54.65,60.8H38.356a1.31,1.31,0,0,1-1.31-1.309V33.643h-.651a1.309,1.309,0,1,1,0-2.617h1.961a1.308,1.308,0,0,1,1.309,1.309V58.183H53.342V32.335a1.307,1.307,0,0,1,1.309-1.309h2.641A1.41,1.41,0,0,0,58.7,29.618V15.36a2.315,2.315,0,0,0-2.312-2.312H52.311a1.309,1.309,0,0,1,0-2.619h4.074a4.936,4.936,0,0,1,4.93,4.931V29.618a4.03,4.03,0,0,1-4.024,4.025H55.959V59.492A1.309,1.309,0,0,1,54.65,60.8" transform="translate(20.366 6.054)" fill="#12263f"/>
      <path id="Trazado_213526" data-name="Trazado 213526" d="M40.61,13.046H36.536a1.309,1.309,0,0,1,0-2.617H40.61a1.309,1.309,0,0,1,0,2.617" transform="translate(20.449 6.054)" fill="#12263f"/>
      <path id="Trazado_213527" data-name="Trazado 213527" d="M37.634,30.706A1.308,1.308,0,0,1,36.325,29.4V16.8a1.309,1.309,0,1,1,2.617,0V29.4a1.309,1.309,0,0,1-1.309,1.309" transform="translate(21.086 8.991)" fill="#12263f"/>
      <path id="Trazado_213528" data-name="Trazado 213528" d="M47.945,30.706A1.308,1.308,0,0,1,46.636,29.4V16.8a1.309,1.309,0,1,1,2.617,0V29.4a1.309,1.309,0,0,1-1.309,1.309" transform="translate(27.071 8.991)" fill="#12263f"/>
      <path id="Trazado_213529" data-name="Trazado 213529" d="M42.789,50.8a1.308,1.308,0,0,1-1.309-1.309V28.97a1.309,1.309,0,1,1,2.617,0V49.489A1.309,1.309,0,0,1,42.789,50.8" transform="translate(24.078 16.057)" fill="#12263f"/>
      <path id="Trazado_213530" data-name="Trazado 213530" d="M44.922,14.354a7.118,7.118,0,1,1,7.119-7.117,7.126,7.126,0,0,1-7.119,7.117m0-11.618a4.5,4.5,0,1,0,4.5,4.5,4.5,4.5,0,0,0-4.5-4.5" transform="translate(21.945 0.069)" fill="#12263f"/>
      <path id="Trazado_213531" data-name="Trazado 213531" d="M43.9,29.291a1.306,1.306,0,0,1-.847-.311l-3.017-2.565a1.306,1.306,0,0,1-.457-1.117l1-10.863a1.309,1.309,0,1,1,2.606.239L42.245,24.86,43.9,26.265l1.647-1.4L44.537,14.683a1.309,1.309,0,1,1,2.606-.258l1.075,10.863a1.313,1.313,0,0,1-.455,1.127L44.744,28.98a1.306,1.306,0,0,1-.847.311" transform="translate(22.97 7.689)" fill="#12263f"/>
      <path id="Trazado_213532" data-name="Trazado 213532" d="M77.793,43.261H2.5a1.309,1.309,0,1,1,0-2.617H77.793a1.309,1.309,0,0,1,0,2.617" transform="translate(0.693 23.593)" fill="#12263f"/>
    </g>
  </g>
</svg>
