<svg xmlns="http://www.w3.org/2000/svg" xmlns:xlink="http://www.w3.org/1999/xlink" width="311.699" height="303.097" viewBox="0 0 311.699 303.097">
  <defs>
    <clipPath id="clip-path">
      <rect id="Rectángulo_57984" data-name="Rectángulo 57984" width="311.699" height="303.097" fill="none"/>
    </clipPath>
  </defs>
  <g id="Grupo_183240" data-name="Grupo 183240" clip-path="url(#clip-path)">
    <path id="Trazado_214217" data-name="Trazado 214217" d="M408,583.983c-.006-.169.928-19.253-8.291-23.644l.651-.625c4.223,1.475,8.9,6.034,10.777,12.471,1.392,4.784.334,5.835.341,6.016Z" transform="translate(-287.541 -402.648)" fill="#a4c8fc"/>
    <path id="Trazado_214218" data-name="Trazado 214218" d="M343.226,508.742s-1.053,9.817,4.089,13.993,14.534,1.13,14.534,1.13,1.053-9.817-4.089-13.993-14.534-1.129-14.534-1.129" transform="translate(-246.846 -365.208)" fill="#a4c8fc"/>
    <path id="Trazado_214219" data-name="Trazado 214219" d="M421.634,534.961a111.3,111.3,0,0,1,5.007-48.484,90.7,90.7,0,0,0,3.612-44.672h6.015c.155.872.573,20.9-5.832,48.346-5.764,24.7,5,44.811,2.708,44.811Z" transform="translate(-302.751 -317.826)" fill="#a4c8fc"/>
    <path id="Trazado_214220" data-name="Trazado 214220" d="M466.175,489.976c.032-.128,2.9-16.6,10.624-18.469a14.363,14.363,0,0,0-10.29,7.523c-1.824,3.422-1.185,4.391-1.219,4.527Z" transform="translate(-334.661 -339.193)" fill="#a4c8fc"/>
    <path id="Trazado_214221" data-name="Trazado 214221" d="M100.606,291.308s-8.33-11.762-17.791-15.216c0,0,3.538,27.587-1.636,27.928S79.453,273,79.453,273s-24.645-13.684-34.653-13.3c0,0,14.169,27.566,9.07,26.623S32.7,257.372,32.7,257.372,6.975,251.034,1.9,266.2s1.214,23.263,5.01,24.452,28.533,2.316,27.7,5.488-17.824,7.331-26.964,3.9c0,0,8.786,25.962,22.344,25.467s18.22-8.6,26.6-8.749,14.352,2.451,10.047,4.454-18.341-.336-25.418,5-12.741,8.547-.372,11.849,31.039-.427,39.9-6.33c.026-.017,7.253-.591,12.944,32.87,2.194,12.9.507,32.034.507,32.034l4.591-.7c2.547-37.506-10.989-68.688-10.989-68.688s22.967-16.98,12.8-35.936" transform="translate(0 -184.204)" fill="#a4c8fc"/>
    <path id="Trazado_214222" data-name="Trazado 214222" d="M575.136,363.894s-27.672-11.627-17.767-32.778c0,0,8.341-13.243,18.4-17.544,0,0-2.213,30.12,3.417,30.186s.046-33.74.046-33.74,25.918-16.287,36.791-16.464c0,0-13.741,30.722-8.268,29.4s21.257-32.627,21.257-32.627,27.515-8.385,33.91,7.758.052,25.3-3.993,26.808-30.8,4.189-29.715,7.58,19.757,6.9,29.465,2.639c0,0-8,28.667-22.73,28.929s-20.261-8.249-29.361-7.922-15.417,3.5-10.631,5.42,19.867-1.443,27.854,3.927,14.318,8.518,1.1,12.826-37.7,5.322-43.737-4.537Z" transform="translate(-399.42 -207.289)" fill="#d2e3fc"/>
    <path id="Trazado_214223" data-name="Trazado 214223" d="M691.266,347.276s-70.192,31.841-75.534,59.153c0,0,1.682,11.758-4.072,26.114l.589,5.2s5.63-18.559,9.519-21.459c0,0-18.9-21.054,69.5-69.012" transform="translate(-440.016 -249.824)" fill="#a4c8fc"/>
    <path id="Trazado_214224" data-name="Trazado 214224" d="M600.63,641.864s-9.305,18.335-.548,38.381l2.8-1.1s-5.4-22.56-.819-34.732-1.435-2.545-1.435-2.545" transform="translate(-428.986 -459.145)" fill="#a4c8fc"/>
    <path id="Trazado_214225" data-name="Trazado 214225" d="M154.932,87.59c11.341,12.069,5.441,36.037,5.441,36.037s-24.289,4.4-35.63-7.669S119.3,79.922,119.3,79.922s24.288-4.4,35.63,7.668" transform="translate(-84.72 -56.932)" fill="#a4c8fc"/>
    <path id="Trazado_214226" data-name="Trazado 214226" d="M158.865,87.59c11.341,12.069,5.441,36.037,5.441,36.037L123.235,79.922s24.288-4.4,35.63,7.668" transform="translate(-88.653 -56.932)" fill="#d2e3fc"/>
    <path id="Trazado_214227" data-name="Trazado 214227" d="M718.929,221.689c-5.919,6.856-19.292,5.012-19.292,5.012s-3.777-12.961,2.142-19.817,19.292-5.012,19.292-5.012,3.777,12.96-2.142,19.817" transform="translate(-502.451 -145.062)" fill="#a4c8fc"/>
    <path id="Trazado_214228" data-name="Trazado 214228" d="M500.214,462.064c-3.968,1.1-8.56-2.97-8.56-2.97s1.84-5.854,5.807-6.955,8.56,2.97,8.56,2.97-1.84,5.854-5.807,6.955" transform="translate(-353.686 -325.126)" fill="#a4c8fc"/>
    <path id="Trazado_214229" data-name="Trazado 214229" d="M229.3,8.28c2.719,6.449-3.142,15.078-3.142,15.078s-10.27-1.827-12.989-8.276S216.306,0,216.306,0,226.576,1.831,229.3,8.28" transform="translate(-152.829 -0.004)" fill="#a4c8fc"/>
    <path id="Trazado_214230" data-name="Trazado 214230" d="M251.9,76.167a60.52,60.52,0,1,1,67.606,52.485A60.519,60.519,0,0,1,251.9,76.167" transform="translate(-180.868 -5.814)" fill="#e2810e"/>
    <path id="Trazado_214231" data-name="Trazado 214231" d="M233.236,78.517A60.52,60.52,0,1,1,300.842,131a60.52,60.52,0,0,1-67.606-52.485" transform="translate(-167.44 -7.504)" fill="#ffb93e"/>
    <path id="Trazado_214232" data-name="Trazado 214232" d="M314.273,141.979a55.139,55.139,0,1,1,36.667-20.894,54.778,54.778,0,0,1-36.667,20.894M300.908,35.827a51.85,51.85,0,1,0,57.921,44.967,51.909,51.909,0,0,0-57.921-44.967" transform="translate(-181.454 -23.109)" fill="#ffa412"/>
    <path id="Trazado_214233" data-name="Trazado 214233" d="M400.286,138.963a9.089,9.089,0,0,0-.529-3.16,6.647,6.647,0,0,0-1.675-2.469A12.567,12.567,0,0,0,395.1,131.3a33.182,33.182,0,0,0-4.456-1.807,86.843,86.843,0,0,1-8.218-3.256,27.453,27.453,0,0,1-6.336-3.954,16.143,16.143,0,0,1-4.112-5.274,18.22,18.22,0,0,1-.26-13.856,15.324,15.324,0,0,1,3.646-5.243,19.132,19.132,0,0,1,5.706-3.655,25.512,25.512,0,0,1,7.469-1.828l-.065-9.152,7.366-.053.066,9.28a22.88,22.88,0,0,1,7.2,2.044,17.3,17.3,0,0,1,9.026,10.007,23.015,23.015,0,0,1,1.275,7.711l-13.305.1q-.037-5.132-2.333-7.66a7.789,7.789,0,0,0-6.119-2.5,9.913,9.913,0,0,0-3.564.6,6.712,6.712,0,0,0-2.452,1.6,6.255,6.255,0,0,0-1.41,2.384,9.2,9.2,0,0,0-.439,2.954,8.425,8.425,0,0,0,.481,2.861,6.233,6.233,0,0,0,1.605,2.363A12.592,12.592,0,0,0,388.871,117a42.516,42.516,0,0,0,4.641,1.956q4.477,1.636,8.15,3.363a27.774,27.774,0,0,1,6.313,4,15.59,15.59,0,0,1,5.614,12.47,16.661,16.661,0,0,1-1.264,6.766,15.137,15.137,0,0,1-3.669,5.2A18.473,18.473,0,0,1,402.9,154.3a27.556,27.556,0,0,1-7.515,1.765l.061,8.51-7.32.052-.061-8.468a30.9,30.9,0,0,1-7.4-1.614,19.58,19.58,0,0,1-6.357-3.654,17.519,17.519,0,0,1-4.463-6.063,21.328,21.328,0,0,1-1.72-8.8l13.305-.095a13.144,13.144,0,0,0,.888,5.061,8.5,8.5,0,0,0,2.3,3.234,8.247,8.247,0,0,0,3.258,1.687,14.126,14.126,0,0,0,3.71.465,11.793,11.793,0,0,0,3.794-.583,7.87,7.87,0,0,0,2.728-1.559,6.265,6.265,0,0,0,1.641-2.343,7.632,7.632,0,0,0,.532-2.934" transform="translate(-264.824 -59.871)" fill="#ffa412"/>
    <path id="Trazado_214234" data-name="Trazado 214234" d="M393.573,752.943l0,.049-1.206,18.539-4.481,68.831H304.12l-4.932-67.888-1.359-18.711-.059-.82Z" transform="translate(-214.21 -541.653)" fill="#739af0"/>
    <path id="Trazado_214235" data-name="Trazado 214235" d="M393.722,753.118l-1.206,18.539a146.734,146.734,0,0,0-46.692-7.479c-28.851,0-46.483,8.422-46.483,8.422l-1.359-18.711Z" transform="translate(-214.362 -541.779)" fill="#618dd8"/>
    <path id="Trazado_214236" data-name="Trazado 214236" d="M385.711,757.54H283.96l-1.165-11.83H387Z" transform="translate(-203.437 -536.45)" fill="#739af0"/>
    <path id="Trazado_214237" data-name="Trazado 214237" d="M398.292,1067H311.442l-.995-4.121h88.947Z" transform="translate(-223.33 -764.613)" fill="#618dd8"/>
    <path id="Trazado_214238" data-name="Trazado 214238" d="M712.447,509.469s-4.3-.839-5.287,0-5.65,5.58-4.651,7.137,5.789-1.289,6.786-1.557,3.781-1.356,3.781-1.356Z" transform="translate(-505.271 -366.234)" fill="#ffb27d"/>
    <path id="Trazado_214239" data-name="Trazado 214239" d="M901.207,685.1l4.612,1.717s20.034-27.785,22.5-52.232a37.137,37.137,0,0,0-.659-12.5s.2-1.118.538-3.1c.158-.923.354-2.033.576-3.306.651-3.732,1.548-8.838,2.572-14.652,2.357-13.379,5.411-30.483,7.784-43.056l-1.243-.4-13.447-4.338-2.779-8.826-10.013-2.636s-2.237,4.375-4.237,25.044c-.369,2.712-.7,5.7-.956,8.944a176.982,176.982,0,0,0,.953,36.206q.689,5.389,1.758,11.112a49.57,49.57,0,0,1,.384,10.973c-1.009,19.984-8.345,51.041-8.345,51.041" transform="translate(-648.31 -389.744)" fill="#2b478b"/>
    <path id="Trazado_214240" data-name="Trazado 214240" d="M919.914,575.765l21.742,43.225c.158-.923.354-2.033.577-3.306.651-3.732,1.547-8.838,2.572-14.652,2.358-13.379,5.411-30.483,7.784-43.056l-1.243-.4L937.9,553.24l-2.779-8.827-10.013-2.636s-2.237,4.376-4.237,25.045c-.368,2.711-.7,5.7-.956,8.943" transform="translate(-661.768 -389.744)" fill="#233862"/>
    <path id="Trazado_214241" data-name="Trazado 214241" d="M954,534.434l.5-4.316c8.433,2.24,30.963-6.259,30.963-6.259s8.169,7.181,7.1,24.394c-.523,8.4-1.48,44.1-2.478,54.667-.361,3.829-.677,6.554-.806,7.642a.019.019,0,0,0,0,.011,1.511,1.511,0,0,0,.245.935,49.651,49.651,0,0,1,3.687,7.753c9.8,26.123-1.51,58.293-1.51,58.293l-2.936-1.183s-6.438-35.8-11.668-51.618a31.341,31.341,0,0,0-2.519-6.05c-2.274-3.67-4.385-9.668-6.3-16.8-3.621-13.487-6.535-31.032-8.475-44.574-.267.012-5.8-22.892-5.8-22.892" transform="translate(-686.288 -376.854)" fill="#2b478b"/>
    <path id="Trazado_214242" data-name="Trazado 214242" d="M738.28,387.975l.629,4.224s.279,0,.768-.035c1.536-.1,5.271-.314,9.494-.768,6.352-.628,13.892-1.745,16.894-3.6,4.572-2.792,12.077-11.344,16.964-19.9a5.642,5.642,0,0,0,.349-.628c2.548-4.538,4.328-9.041,4.468-12.635a18.059,18.059,0,0,0-.593-5.725,14.6,14.6,0,0,0-2.583-5.166,2.613,2.613,0,0,0-.489-.594,12.053,12.053,0,0,0-3.316-2.827c-.838-.349-1.745.07-2.687,1.082v.035a16.008,16.008,0,0,0-2.409,3.561c-.035.035-.07.07-.07.1-.174.314-.349.663-.558,1.047a.867.867,0,0,0-.139.244q-.576,1.2-1.152,2.513c-4.293,9.354-8.866,23.526-12.67,27.749-1.641,1.815-9.145,5.375-15.114,8.029-4.293,1.885-7.784,3.281-7.784,3.281" transform="translate(-531.104 -244.74)" fill="#ffb27d"/>
    <path id="Trazado_214243" data-name="Trazado 214243" d="M896.592,294.52a26.257,26.257,0,0,0,9.711,2.275c14.5.794,17.789-11.915,18.388-20.349a12.16,12.16,0,0,0-4.975-.629c-1.028.056-2.1.162-2.986.271-1.774-.926-4.959-5.426-6.8-12.954l-.625.29-10.461,4.918s1.111,3.4,1.932,6.661c.64,2.549,1.1,5.012.715,5.7-.825.335-1.318.546-1.318.546a.027.027,0,0,1,0,.011,71.828,71.828,0,0,0-3.577,13.259" transform="translate(-644.99 -189.294)" fill="#ffb27d"/>
    <path id="Trazado_214244" data-name="Trazado 214244" d="M880.55,335.833c.109.29.23.572.361.862,3.672,7.908,10.469,40.665,10.469,40.665-.968,5.889,44.26-1.156,44.377-6.518,1.593-5.686-5.652-14.822-9.738-19.4a13.027,13.027,0,0,1-1.371-1.845,12.863,12.863,0,0,1-1.853-5.407c-.8-7.6-.5-14.726-.565-19.057h0c-.8-.591-1.57-1.137-2.289-1.657a20.444,20.444,0,0,1-2.787-2.312,4.217,4.217,0,0,1-1.337-2.632,14,14,0,0,1,.056-2.207c.034-.35.079-.7.132-1.051a29.9,29.9,0,0,1,2.1-7.015c-3.89-1.574-10.808-.636-10.808-.636s.008.384.012,1.013c.022,2.527,0,9.015-.81,10.242-1.013,1.529-19.543,8.228-20.522,6.153-.964-2.041,1.675-11.6,1.773-11.963a.029.029,0,0,0,0-.011c-6.206,2.436-8.424,4.481-8.424,4.481,3.74,2.425-1.676,10.63,1.216,18.3" transform="translate(-632.575 -221.095)" fill="#f99746"/>
    <path id="Trazado_214245" data-name="Trazado 214245" d="M885.393,145.5c.023-.629.509-7.4,10.825-7.755,0,0-5.073.6-5.949,2.835,0,0,3.454-2.756,6.267-1.869s4.465,5.815,4.482,7.436-1.546,6.847-3.332,7.291a5.45,5.45,0,0,1-2.162,0,24.328,24.328,0,0,1,1.386,2.473c4.116,8.45-.129,16.709-3.614,15.8-2.235-.585-2.868,3.229-2.868,3.229l-21.714-17.579s7.976-16.5,16.679-11.859" transform="translate(-624.935 -99.093)" fill="#2c3a64"/>
    <path id="Trazado_214246" data-name="Trazado 214246" d="M904.616,269.094s1.112,3.4,1.932,6.661c6.115-1.706,7.971-8.134,8.53-11.579Z" transform="translate(-650.763 -190.044)" fill="#ed985f"/>
    <path id="Trazado_214247" data-name="Trazado 214247" d="M876.182,226.326s14.629-3.386,12.38-12.463-1.875-15.628-11.31-13.851-10.385,5.69-10.371,8.9,5.438,18.058,9.3,17.412" transform="translate(-623.616 -143.676)" fill="#ffb27d"/>
    <path id="Trazado_214248" data-name="Trazado 214248" d="M862.281,199.52c1.573-3.29,3.424-3.115,4.581-2.531a10.494,10.494,0,0,1,13.616-1.164,17.865,17.865,0,0,0,8.219,8.831s-2.247,2.3-8.761,2.251a10.722,10.722,0,0,1-5.81-2.188,35.018,35.018,0,0,0,7.628,5.689c-8.154-1.561-13.621-11-14.182-12a11.77,11.77,0,0,0-2.123,5.025c-.151,2.492.706,7.33-.721,7.514,0,0-4.806-6.489-2.448-11.423" transform="translate(-619.839 -139.435)" fill="#2c3a64"/>
    <path id="Trazado_214249" data-name="Trazado 214249" d="M868.949,343.655s-3.522,6.144-4.05,7.725c0,0,4.568-.176,6.412,3.338,0,0,.442-10.235-2.363-11.063" transform="translate(-622.191 -247.219)" fill="#f99746"/>
    <path id="Trazado_214250" data-name="Trazado 214250" d="M955.363,401.778c8.921-.094,16.474-9.358,21.091-16.761a12.859,12.859,0,0,1-1.853-5.407c-.8-7.6-.5-14.726-.565-19.057h0c-.8-.591-1.57-1.137-2.289-1.657a20.438,20.438,0,0,1-2.787-2.312c-7.305,12.347-25.693,45.323-13.6,45.195" transform="translate(-684.379 -256.519)" fill="#ed7d2b"/>
    <path id="Trazado_214251" data-name="Trazado 214251" d="M845.5,373.188l1.222,4.467s1.536-.279,3.979-.733c.733-.14,1.152-.244,1.152-.244,1.954-.384,4.293-.908,6.841-1.466h.035c4.363-1.048,9.249-2.3,13.369-3.7a36.742,36.742,0,0,0,7.12-3.176,4.22,4.22,0,0,0,.489-.349c4.084-2.966,8.935-11.693,12.705-21.047.524-1.291,1.012-2.583,1.5-3.839a95.5,95.5,0,0,0,3.979-13.264,37.467,37.467,0,0,0,.943-6.318,15.37,15.37,0,0,0,.035-1.78c-.07-10.122-5.1-11.518-5.1-11.518-.1-.035-.209-.07-.349-.1-.872-.14-1.78.453-2.723,1.605a31.726,31.726,0,0,0-3.735,6.6c-1.989,4.5-4.084,10.332-6.038,16.127-1.082,3.176-2.129,6.352-3.176,9.284-.594,1.78-1.187,3.455-1.745,4.991a48.121,48.121,0,0,1-2.932,6.806,16.92,16.92,0,0,1-4.294,3.874,156.315,156.315,0,0,1-13.822,8.586c-1.955,1.117-3.8,2.13-5.341,2.967-2.478,1.362-4.119,2.234-4.119,2.234" transform="translate(-608.235 -223.077)" fill="#ffb27d"/>
    <path id="Trazado_214252" data-name="Trazado 214252" d="M993.313,318.379c6.719-1.853,11.9,3.394,11.9,3.394-.084-10.106-5.115-11.489-5.115-11.489-2.024-.838-4.369,2.667-6.788,8.1" transform="translate(-714.569 -223.124)" fill="#f99746"/>
    <path id="Trazado_214253" data-name="Trazado 214253" d="M1027.515,1046.534h23.23a12.751,12.751,0,0,0-.657-6.226c-1.162-2.578-2.983-3.749-2.547-6.868a8.366,8.366,0,0,1-7.24,2.77c-.411.667-2.656,4.237-4.031,5.225-1.518,1.091-8.287.7-8.755,5.1" transform="translate(-739.174 -743.437)" fill="#233862"/>
    <path id="Trazado_214254" data-name="Trazado 214254" d="M849.77,1049.2H873s.868-3.7-.657-6.226c-1.35-2.231-.833-3.5.167-5.348a9.028,9.028,0,0,1-3.913.737,8.191,8.191,0,0,1-3.455-1.215c-1,1.14-5.281,5.992-6.619,6.953-1.518,1.091-8.288.7-8.755,5.1" transform="translate(-611.307 -746.108)" fill="#233862"/>
    <path id="Trazado_214255" data-name="Trazado 214255" d="M635.681,539.39l-5.521-13.467a3.733,3.733,0,0,0-4.437-2.175,23.013,23.013,0,0,0-7.2-8.193,17.14,17.14,0,0,0-9.721-3.2,13.774,13.774,0,0,0-5.188,1.027c-7.849,3.217-11.367,13.134-8.487,22.873l-.429.175s-1.342-.093-3.592-.093c-7.109,0-23.27.945-34.608,8.82a3.132,3.132,0,0,0-.741,1.917,3.012,3.012,0,0,0,.24,1.27s18.2-11.785,35.034.326q1.551,1.111,3.012,2.064l1.51,3.685a12.037,12.037,0,0,0,15.66,6.554l15.417-6.318,3.213-1.317a10.722,10.722,0,0,0,5.839-13.95m-29.889-10.916-6.279,2.576a3.68,3.68,0,0,0-2.164,4.3l-.673.276c-2.555-8.873.562-17.821,7.571-20.694a11.826,11.826,0,0,1,3.02-.8,14.637,14.637,0,0,1,9.614,2.329,21.153,21.153,0,0,1,7.281,7.9l-.927.379a3.683,3.683,0,0,0-4.554-1.542l-6.283,2.576a3.105,3.105,0,0,0-4.043-1.7l-.87.358a3.107,3.107,0,0,0-1.692,4.043" transform="translate(-399.798 -368.579)" fill="#c94c43"/>
    <path id="Trazado_214256" data-name="Trazado 214256" d="M594.042,625.014q-1.465-.956-3.012-2.065C574.2,610.838,556,622.624,556,622.624a3.012,3.012,0,0,1-.24-1.27c2.547-1.678,12.1-7.259,23.929-5.352,13.864,2.236,16.372,4.165,14.358,9.012" transform="translate(-399.798 -442.858)" fill="#b23b38"/>
    <path id="Trazado_214257" data-name="Trazado 214257" d="M761.894,553.341l-3.213,1.316c4.816-2.629-1.149-13.739-4.637-21.073s-8.765-3.982-8.765-3.982a4.2,4.2,0,0,0-3.8-2.326,2.93,2.93,0,0,0-1.943-2.845l.87-.358a3.105,3.105,0,0,1,4.043,1.7l6.283-2.576a3.684,3.684,0,0,1,4.554,1.542l.927-.379a21.154,21.154,0,0,0-7.281-7.9,14.638,14.638,0,0,0-9.614-2.329,6.825,6.825,0,0,0,1.535-1.775,17.139,17.139,0,0,1,9.721,3.2,23.014,23.014,0,0,1,7.2,8.193,3.733,3.733,0,0,1,4.437,2.175l5.521,13.467a10.722,10.722,0,0,1-5.839,13.95" transform="translate(-531.85 -368.58)" fill="#b23b38"/>
    <path id="Trazado_214258" data-name="Trazado 214258" d="M789.679,533.352c2.234.942,5.375,4.223,10.4,2.234a77.964,77.964,0,0,1,9.25-2.827c.733-.14,1.152-.244,1.152-.244l-1.99-5.795a1.1,1.1,0,0,1-.244.07c-1.291.279-7.853,1.675-10.925.978-3.455-.8-9.25,3.351-9.25,3.351s-.628,1.326,1.606,2.234" transform="translate(-566.866 -378.913)" fill="#ffb27d"/>
    <path id="Trazado_214259" data-name="Trazado 214259" d="M549.819,653.307c0-2.1-3.8-8.566-3.8-8.566s-3.8,6.47-3.8,8.566a3.8,3.8,0,0,0,7.591,0" transform="translate(-390.068 -463.814)" fill="#afcdfb"/>
  </g>
</svg>
