<svg xmlns="http://www.w3.org/2000/svg" width="820" height="341" viewBox="0 0 820 341">
  <g id="Grupo_183473" data-name="Grupo 183473" transform="translate(-390 -4897)">
    <g id="Trazado_214701" data-name="Trazado 214701" transform="translate(390 4897)" fill="#fff">
      <path d="M 164.5 62.5 L 0.5 62.5 L 0.5 0.5 L 164.5 0.5 L 164.5 62.5 Z" stroke="none"/>
      <path d="M 1 1 L 1 62 L 164 62 L 164 1 L 1 1 M 0 0 L 165 0 L 165 63 L 0 63 L 0 0 Z" stroke="none" fill="#707070"/>
    </g>
    <g id="Trazado_214694" data-name="Trazado 214694" transform="translate(390 4959)" fill="#fff">
      <path d="M 164.5 138.5 L 0.5 138.5 L 0.5 0.5 L 164.5 0.5 L 164.5 138.5 Z" stroke="none"/>
      <path d="M 1 1 L 1 138 L 164 138 L 164 1 L 1 1 M 0 0 L 165 0 L 165 139 L 0 139 L 0 0 Z" stroke="none" fill="#707070"/>
    </g>
    <g id="Trazado_214685" data-name="Trazado 214685" transform="translate(554 4959)" fill="#fff">
      <path d="M 164.5 138.5 L 0.5 138.5 L 0.5 0.5 L 164.5 0.5 L 164.5 138.5 Z" stroke="none"/>
      <path d="M 1 1 L 1 138 L 164 138 L 164 1 L 1 1 M 0 0 L 165 0 L 165 139 L 0 139 L 0 0 Z" stroke="none" fill="#707070"/>
    </g>
    <g id="Trazado_214686" data-name="Trazado 214686" transform="translate(717 4959)" fill="#fff">
      <path d="M 165.5 138.5 L 0.5 138.5 L 0.5 0.5 L 165.5 0.5 L 165.5 138.5 Z" stroke="none"/>
      <path d="M 1 1 L 1 138 L 165 138 L 165 1 L 1 1 M 0 0 L 166 0 L 166 139 L 0 139 L 0 0 Z" stroke="none" fill="#707070"/>
    </g>
    <g id="Trazado_214687" data-name="Trazado 214687" transform="translate(881 4959)" fill="#fff">
      <path d="M 164.5 138.5 L 0.5 138.5 L 0.5 0.5 L 164.5 0.5 L 164.5 138.5 Z" stroke="none"/>
      <path d="M 1 1 L 1 138 L 164 138 L 164 1 L 1 1 M 0 0 L 165 0 L 165 139 L 0 139 L 0 0 Z" stroke="none" fill="#707070"/>
    </g>
    <g id="Trazado_214688" data-name="Trazado 214688" transform="translate(1045 4959)" fill="#fff">
      <path d="M 164.5 138.5 L 0.5 138.5 L 0.5 0.5 L 164.5 0.5 L 164.5 138.5 Z" stroke="none"/>
      <path d="M 1 1 L 1 138 L 164 138 L 164 1 L 1 1 M 0 0 L 165 0 L 165 139 L 0 139 L 0 0 Z" stroke="none" fill="#707070"/>
    </g>
    <path id="Trazado_214706" data-name="Trazado 214706" d="M43.621,12.023H38.855L37.785,15H36.238L40.582,3.625h1.313L46.246,15H44.707ZM39.309,10.8h3.867l-1.937-5.32Zm9.977,2.977h5.391V15h-6.9V3.625h1.508ZM58,15H56.5V3.625H58Zm9.164-2.977H62.395L61.324,15H59.777L64.121,3.625h1.313L69.785,15H68.246ZM62.848,10.8h3.867l-1.937-5.32ZM71.316,15V3.625h3.211a5.169,5.169,0,0,1,2.625.656,4.438,4.438,0,0,1,1.762,1.867,6.078,6.078,0,0,1,.629,2.781v.727a6.1,6.1,0,0,1-.621,2.82,4.369,4.369,0,0,1-1.773,1.859A5.5,5.5,0,0,1,74.465,15Zm1.5-10.148v8.922h1.578a3.434,3.434,0,0,0,2.7-1.079,4.458,4.458,0,0,0,.965-3.073V8.957a4.529,4.529,0,0,0-.91-3.014,3.239,3.239,0,0,0-2.582-1.091ZM90.559,9.68A7.037,7.037,0,0,1,90,12.6,4.261,4.261,0,0,1,88.4,14.5,4.4,4.4,0,0,1,82,12.613a6.752,6.752,0,0,1-.59-2.832v-.82a6.953,6.953,0,0,1,.57-2.9,4.218,4.218,0,0,1,4-2.594,4.41,4.41,0,0,1,2.41.66A4.253,4.253,0,0,1,90,6.043a7.071,7.071,0,0,1,.563,2.918Zm-1.492-.734a5.1,5.1,0,0,0-.812-3.105A2.68,2.68,0,0,0,85.98,4.758,2.651,2.651,0,0,0,83.742,5.84a5,5,0,0,0-.84,3V9.68a5.107,5.107,0,0,0,.824,3.082,2.888,2.888,0,0,0,4.52.063,5.079,5.079,0,0,0,.82-3.035Zm7.094.984a7.053,7.053,0,0,1-2.809-1.363,2.6,2.6,0,0,1-.879-2,2.751,2.751,0,0,1,1.074-2.223,4.269,4.269,0,0,1,2.793-.879,4.66,4.66,0,0,1,2.09.453,3.436,3.436,0,0,1,1.422,1.25,3.2,3.2,0,0,1,.5,1.742H98.848a2.08,2.08,0,0,0-.656-1.627A2.669,2.669,0,0,0,96.34,4.7a2.732,2.732,0,0,0-1.73.489,1.632,1.632,0,0,0-.621,1.358,1.468,1.468,0,0,0,.59,1.178,5.785,5.785,0,0,0,2.008.88,9.316,9.316,0,0,1,2.219.88A3.367,3.367,0,0,1,99.992,10.6a2.861,2.861,0,0,1,.387,1.508A2.658,2.658,0,0,1,99.3,14.324a4.6,4.6,0,0,1-2.883.832,5.347,5.347,0,0,1-2.187-.449,3.681,3.681,0,0,1-1.566-1.23,3,3,0,0,1-.551-1.773h1.508a1.959,1.959,0,0,0,.762,1.629,3.207,3.207,0,0,0,2.035.6,2.948,2.948,0,0,0,1.82-.484,1.573,1.573,0,0,0,.633-1.32,1.545,1.545,0,0,0-.586-1.293A6.755,6.755,0,0,0,96.16,9.93ZM20.145,33.742h-4.93v4.031h5.727V39H13.715V27.625h7.148v1.227H15.215v3.664h4.93Zm6.016.188a7.053,7.053,0,0,1-2.809-1.363,2.6,2.6,0,0,1-.879-2,2.751,2.751,0,0,1,1.074-2.223,4.269,4.269,0,0,1,2.793-.879,4.66,4.66,0,0,1,2.09.453,3.436,3.436,0,0,1,1.422,1.25,3.2,3.2,0,0,1,.5,1.742H28.848a2.08,2.08,0,0,0-.656-1.627A2.669,2.669,0,0,0,26.34,28.7a2.732,2.732,0,0,0-1.73.489,1.632,1.632,0,0,0-.621,1.358,1.468,1.468,0,0,0,.59,1.178,5.786,5.786,0,0,0,2.008.88,9.316,9.316,0,0,1,2.219.88A3.367,3.367,0,0,1,29.992,34.6a2.861,2.861,0,0,1,.387,1.508A2.658,2.658,0,0,1,29.3,38.324a4.6,4.6,0,0,1-2.883.832,5.347,5.347,0,0,1-2.187-.449,3.681,3.681,0,0,1-1.566-1.23,3,3,0,0,1-.551-1.773h1.508a1.959,1.959,0,0,0,.762,1.629,3.207,3.207,0,0,0,2.035.6,2.948,2.948,0,0,0,1.82-.484,1.573,1.573,0,0,0,.633-1.32,1.545,1.545,0,0,0-.586-1.293A6.755,6.755,0,0,0,26.16,33.93Zm14-5.078H36.5V39H35.012V28.852H31.363V27.625h8.8ZM46.02,34.4H43.348V39H41.84V27.625h3.766a4.457,4.457,0,0,1,2.957.875A3.148,3.148,0,0,1,49.6,31.047a3.062,3.062,0,0,1-.574,1.852,3.428,3.428,0,0,1-1.6,1.18L50.1,38.906V39H48.488Zm-2.672-1.227h2.3a2.6,2.6,0,0,0,1.777-.579,1.959,1.959,0,0,0,.66-1.55,2.062,2.062,0,0,0-.629-1.62,2.663,2.663,0,0,0-1.816-.571h-2.3ZM57.98,36.023H53.215L52.145,39H50.6l4.344-11.375h1.313L60.605,39H59.066ZM53.668,34.8h3.867L55.6,29.477Zm15.32-5.945H65.332V39H63.84V28.852H60.191V27.625h8.8Zm8.117,4.891h-4.93v4.031H77.9V39H70.676V27.625h7.148v1.227H72.176v3.664h4.93ZM74.9,24.5h1.75l-2.094,2.3-1.164,0ZM88.168,37.508a3.465,3.465,0,0,1-1.613,1.238,6.517,6.517,0,0,1-2.41.41,4.674,4.674,0,0,1-2.469-.652,4.346,4.346,0,0,1-1.668-1.855,6.408,6.408,0,0,1-.605-2.789v-.992a5.982,5.982,0,0,1,1.2-3.984,4.179,4.179,0,0,1,3.371-1.414,4.316,4.316,0,0,1,2.867.91,3.965,3.965,0,0,1,1.328,2.582h-1.5A2.48,2.48,0,0,0,83.98,28.7a2.655,2.655,0,0,0-2.285,1.06,5.173,5.173,0,0,0-.785,3.069v.93a4.848,4.848,0,0,0,.875,3.046,2.836,2.836,0,0,0,2.367,1.13,5.229,5.229,0,0,0,1.477-.187,2.283,2.283,0,0,0,1.047-.631V34.563H84.043V33.336h4.125ZM92.277,39h-1.5V27.625h1.5Zm11.109-3.609a4.185,4.185,0,0,1-1.332,2.785,4.365,4.365,0,0,1-2.98.98,4.008,4.008,0,0,1-3.23-1.445,5.815,5.815,0,0,1-1.215-3.867V32.75a6.481,6.481,0,0,1,.566-2.789A4.231,4.231,0,0,1,96.8,28.113a4.47,4.47,0,0,1,2.406-.645,4.11,4.11,0,0,1,2.906,1.012,4.235,4.235,0,0,1,1.273,2.8h-1.508a3.268,3.268,0,0,0-.848-1.975,2.565,2.565,0,0,0-1.824-.611,2.684,2.684,0,0,0-2.254,1.063,4.882,4.882,0,0,0-.816,3.026v1.1a5.018,5.018,0,0,0,.773,2.948,2.5,2.5,0,0,0,2.164,1.095,2.886,2.886,0,0,0,1.918-.566,3.143,3.143,0,0,0,.887-1.973Zm10.8-1.711a7.037,7.037,0,0,1-.562,2.918,4.261,4.261,0,0,1-1.594,1.9,4.4,4.4,0,0,1-6.4-1.887,6.752,6.752,0,0,1-.59-2.832v-.82a6.953,6.953,0,0,1,.57-2.9,4.218,4.218,0,0,1,4-2.594,4.41,4.41,0,0,1,2.41.66,4.253,4.253,0,0,1,1.605,1.914,7.071,7.071,0,0,1,.563,2.918Zm-1.492-.734a5.1,5.1,0,0,0-.812-3.105,2.68,2.68,0,0,0-2.273-1.082,2.651,2.651,0,0,0-2.238,1.082,5,5,0,0,0-.84,3v.836a5.107,5.107,0,0,0,.824,3.082,2.888,2.888,0,0,0,4.52.063,5.079,5.079,0,0,0,.82-3.035Zm7.094.984a7.053,7.053,0,0,1-2.809-1.363,2.6,2.6,0,0,1-.879-2,2.751,2.751,0,0,1,1.074-2.223,4.269,4.269,0,0,1,2.793-.879,4.66,4.66,0,0,1,2.09.453,3.436,3.436,0,0,1,1.422,1.25,3.2,3.2,0,0,1,.5,1.742h-1.508a2.08,2.08,0,0,0-.656-1.627,2.669,2.669,0,0,0-1.852-.592,2.732,2.732,0,0,0-1.73.489,1.632,1.632,0,0,0-.621,1.358,1.468,1.468,0,0,0,.59,1.178,5.786,5.786,0,0,0,2.008.88,9.316,9.316,0,0,1,2.219.88,3.367,3.367,0,0,1,1.188,1.121A2.861,2.861,0,0,1,124,36.109a2.658,2.658,0,0,1-1.078,2.215,4.6,4.6,0,0,1-2.883.832,5.347,5.347,0,0,1-2.187-.449,3.681,3.681,0,0,1-1.566-1.23,3,3,0,0,1-.551-1.773h1.508a1.959,1.959,0,0,0,.762,1.629,3.207,3.207,0,0,0,2.035.6,2.948,2.948,0,0,0,1.82-.484,1.573,1.573,0,0,0,.633-1.32,1.545,1.545,0,0,0-.586-1.293A6.755,6.755,0,0,0,119.785,33.93Z" transform="translate(400 4909)" fill="#12263f"/>
    <g id="Trazado_214702" data-name="Trazado 214702" transform="translate(554 4897)" fill="#fff">
      <path d="M 164.5 62.5 L 0.5 62.5 L 0.5 0.5 L 164.5 0.5 L 164.5 62.5 Z" stroke="none"/>
      <path d="M 1 1 L 1 62 L 164 62 L 164 1 L 1 1 M 0 0 L 165 0 L 165 63 L 0 63 L 0 0 Z" stroke="none" fill="#707070"/>
    </g>
    <path id="Trazado_214707" data-name="Trazado 214707" d="M12.7,12.023H7.93L6.859,15H5.313L9.656,3.625h1.313L15.32,15H13.781ZM8.383,10.8H12.25l-1.937-5.32Zm16.75.594A4.185,4.185,0,0,1,23.8,14.176a4.365,4.365,0,0,1-2.98.98,4.008,4.008,0,0,1-3.23-1.445,5.815,5.815,0,0,1-1.215-3.867V8.75a6.481,6.481,0,0,1,.566-2.789,4.231,4.231,0,0,1,1.605-1.848,4.47,4.47,0,0,1,2.406-.645A4.11,4.11,0,0,1,23.859,4.48a4.235,4.235,0,0,1,1.273,2.8H23.625a3.268,3.268,0,0,0-.848-1.975A2.565,2.565,0,0,0,20.953,4.7,2.684,2.684,0,0,0,18.7,5.759a4.882,4.882,0,0,0-.816,3.026v1.1a5.018,5.018,0,0,0,.773,2.948A2.5,2.5,0,0,0,20.82,13.93a2.886,2.886,0,0,0,1.918-.566,3.143,3.143,0,0,0,.887-1.973Zm9.68-6.539H31.156V15H29.664V4.852H26.016V3.625h8.8ZM38.109,15h-1.5V3.625h1.5Zm6.508-1.992,3.25-9.383h1.641L45.289,15H43.961L39.75,3.625h1.633ZM52.641,15h-1.5V3.625h1.5Zm2.742,0V3.625h3.211a5.169,5.169,0,0,1,2.625.656A4.438,4.438,0,0,1,62.98,6.148a6.078,6.078,0,0,1,.629,2.781v.727a6.1,6.1,0,0,1-.621,2.82,4.369,4.369,0,0,1-1.773,1.859A5.5,5.5,0,0,1,58.531,15Zm1.5-10.148v8.922h1.578a3.434,3.434,0,0,0,2.7-1.079,4.458,4.458,0,0,0,.965-3.073V8.957a4.529,4.529,0,0,0-.91-3.014,3.239,3.239,0,0,0-2.582-1.091Zm15.109,7.172H67.227L66.156,15H64.609L68.953,3.625h1.313L74.617,15H73.078ZM67.68,10.8h3.867l-1.937-5.32ZM76.148,15V3.625h3.211a5.169,5.169,0,0,1,2.625.656,4.438,4.438,0,0,1,1.762,1.867,6.078,6.078,0,0,1,.629,2.781v.727a6.1,6.1,0,0,1-.621,2.82,4.369,4.369,0,0,1-1.773,1.859A5.5,5.5,0,0,1,79.3,15Zm1.5-10.148v8.922h1.578a3.434,3.434,0,0,0,2.7-1.079,4.458,4.458,0,0,0,.965-3.073V8.957a4.529,4.529,0,0,0-.91-3.014A3.239,3.239,0,0,0,79.4,4.852ZM93.07,9.742h-4.93v4.031h5.727V15H86.641V3.625h7.148V4.852H88.141V8.516h4.93Zm6.016.188a7.053,7.053,0,0,1-2.809-1.363,2.6,2.6,0,0,1-.879-2,2.751,2.751,0,0,1,1.074-2.223,4.269,4.269,0,0,1,2.793-.879,4.66,4.66,0,0,1,2.09.453,3.436,3.436,0,0,1,1.422,1.25,3.2,3.2,0,0,1,.5,1.742h-1.508a2.08,2.08,0,0,0-.656-1.627A2.669,2.669,0,0,0,99.266,4.7a2.732,2.732,0,0,0-1.73.489,1.632,1.632,0,0,0-.621,1.358A1.468,1.468,0,0,0,97.5,7.72a5.785,5.785,0,0,0,2.008.88,9.316,9.316,0,0,1,2.219.88,3.367,3.367,0,0,1,1.188,1.121,2.861,2.861,0,0,1,.387,1.508,2.658,2.658,0,0,1-1.078,2.215,4.6,4.6,0,0,1-2.883.832,5.347,5.347,0,0,1-2.187-.449,3.681,3.681,0,0,1-1.566-1.23,3,3,0,0,1-.551-1.773h1.508a1.959,1.959,0,0,0,.762,1.629,3.207,3.207,0,0,0,2.035.6,2.948,2.948,0,0,0,1.82-.484,1.573,1.573,0,0,0,.633-1.32,1.545,1.545,0,0,0-.586-1.293A6.755,6.755,0,0,0,99.086,9.93Zm-59,25.461a4.185,4.185,0,0,1-1.332,2.785,4.365,4.365,0,0,1-2.98.98,4.008,4.008,0,0,1-3.23-1.445,5.815,5.815,0,0,1-1.215-3.867V32.75a6.481,6.481,0,0,1,.566-2.789A4.231,4.231,0,0,1,33.5,28.113a4.47,4.47,0,0,1,2.406-.645,4.11,4.11,0,0,1,2.906,1.012,4.235,4.235,0,0,1,1.273,2.8H38.578a3.268,3.268,0,0,0-.848-1.975,2.565,2.565,0,0,0-1.824-.611,2.684,2.684,0,0,0-2.254,1.063,4.882,4.882,0,0,0-.816,3.026v1.1a5.018,5.018,0,0,0,.773,2.948,2.5,2.5,0,0,0,2.164,1.095,2.886,2.886,0,0,0,1.918-.566,3.143,3.143,0,0,0,.887-1.973Zm3.555,2.383h5.391V39h-6.9V27.625h1.508Zm13.531-1.75H52.406L51.336,39H49.789l4.344-11.375h1.313L59.8,39H58.258ZM52.859,34.8h3.867l-1.937-5.32Zm11.555,2.211,3.25-9.383H69.3L65.086,39H63.758L59.547,27.625H61.18Zm12.844-3.266h-4.93v4.031h5.727V39H70.828V27.625h7.148v1.227H72.328v3.664h4.93Z" transform="translate(592 4909)" fill="#12263f"/>
    <g id="Trazado_214703" data-name="Trazado 214703" transform="translate(717 4897)" fill="#fff">
      <path d="M 165.5 62.5 L 0.5 62.5 L 0.5 0.5 L 165.5 0.5 L 165.5 62.5 Z" stroke="none"/>
      <path d="M 1 1 L 1 62 L 165 62 L 165 1 L 1 1 M 0 0 L 166 0 L 166 63 L 0 63 L 0 0 Z" stroke="none" fill="#707070"/>
    </g>
    <path id="Trazado_214708" data-name="Trazado 214708" d="M12.637,10.547V15h-1.5V3.625h4.2a4.215,4.215,0,0,1,2.926.953A3.231,3.231,0,0,1,19.316,7.1a3.189,3.189,0,0,1-1.035,2.551,4.4,4.4,0,0,1-2.965.895Zm0-1.227h2.7a2.7,2.7,0,0,0,1.844-.567,2.075,2.075,0,0,0,.641-1.64,2.143,2.143,0,0,0-.641-1.628,2.525,2.525,0,0,0-1.758-.634H12.637ZM25.4,10.4H22.73V15H21.223V3.625h3.766a4.457,4.457,0,0,1,2.957.875A3.148,3.148,0,0,1,28.98,7.047,3.062,3.062,0,0,1,28.406,8.9a3.428,3.428,0,0,1-1.6,1.18l2.672,4.828V15H27.871ZM22.73,9.172h2.3a2.6,2.6,0,0,0,1.777-.579,1.959,1.959,0,0,0,.66-1.55,2.062,2.062,0,0,0-.629-1.62,2.663,2.663,0,0,0-1.816-.571h-2.3Zm17.1.508A7.037,7.037,0,0,1,39.27,12.6a4.261,4.261,0,0,1-1.594,1.9,4.4,4.4,0,0,1-6.4-1.887,6.752,6.752,0,0,1-.59-2.832v-.82a6.953,6.953,0,0,1,.57-2.9,4.218,4.218,0,0,1,4-2.594,4.41,4.41,0,0,1,2.41.66A4.253,4.253,0,0,1,39.27,6.043a7.071,7.071,0,0,1,.563,2.918ZM38.34,8.945a5.1,5.1,0,0,0-.812-3.105,2.68,2.68,0,0,0-2.273-1.082A2.651,2.651,0,0,0,33.016,5.84a5,5,0,0,0-.84,3V9.68A5.107,5.107,0,0,0,33,12.762a2.888,2.888,0,0,0,4.52.063,5.079,5.079,0,0,0,.82-3.035Zm5.242,1.6V15h-1.5V3.625h4.2a4.215,4.215,0,0,1,2.926.953A3.231,3.231,0,0,1,50.262,7.1a3.189,3.189,0,0,1-1.035,2.551,4.4,4.4,0,0,1-2.965.895Zm0-1.227h2.7a2.7,2.7,0,0,0,1.844-.567,2.075,2.075,0,0,0,.641-1.64,2.143,2.143,0,0,0-.641-1.628,2.525,2.525,0,0,0-1.758-.634H43.582Zm16.6-5.7v7.734a3.628,3.628,0,0,1-1.012,2.633,4.077,4.077,0,0,1-2.723,1.148l-.4.016a4.258,4.258,0,0,1-2.977-1.008,3.6,3.6,0,0,1-1.125-2.773V3.625h1.484v7.7a2.6,2.6,0,0,0,.68,1.918,3.111,3.111,0,0,0,3.887,0,2.6,2.6,0,0,0,.676-1.914V3.625Zm8.8,6.117h-4.93v4.031h5.727V15H62.551V3.625H69.7V4.852H64.051V8.516h4.93ZM75,9.93a7.053,7.053,0,0,1-2.809-1.363,2.6,2.6,0,0,1-.879-2,2.751,2.751,0,0,1,1.074-2.223,4.269,4.269,0,0,1,2.793-.879,4.66,4.66,0,0,1,2.09.453,3.436,3.436,0,0,1,1.422,1.25,3.2,3.2,0,0,1,.5,1.742H77.684a2.08,2.08,0,0,0-.656-1.627A2.669,2.669,0,0,0,75.176,4.7a2.732,2.732,0,0,0-1.73.489,1.632,1.632,0,0,0-.621,1.358,1.468,1.468,0,0,0,.59,1.178,5.785,5.785,0,0,0,2.008.88,9.316,9.316,0,0,1,2.219.88A3.367,3.367,0,0,1,78.828,10.6a2.861,2.861,0,0,1,.387,1.508,2.658,2.658,0,0,1-1.078,2.215,4.6,4.6,0,0,1-2.883.832,5.347,5.347,0,0,1-2.187-.449,3.681,3.681,0,0,1-1.566-1.23,3,3,0,0,1-.551-1.773h1.508a1.959,1.959,0,0,0,.762,1.629,3.207,3.207,0,0,0,2.035.6,2.948,2.948,0,0,0,1.82-.484,1.573,1.573,0,0,0,.633-1.32,1.545,1.545,0,0,0-.586-1.293A6.755,6.755,0,0,0,75,9.93ZM89,4.852H85.34V15H83.848V4.852H80.2V3.625H89Zm7.352,7.172H91.582L90.512,15H88.965L93.309,3.625h1.313L98.973,15H97.434ZM92.035,10.8H95.9l-1.937-5.32ZM19.555,39V27.625h3.211a5.169,5.169,0,0,1,2.625.656,4.438,4.438,0,0,1,1.762,1.867,6.078,6.078,0,0,1,.629,2.781v.727a6.1,6.1,0,0,1-.621,2.82,4.369,4.369,0,0,1-1.773,1.859A5.5,5.5,0,0,1,22.7,39Zm1.5-10.148v8.922h1.578a3.434,3.434,0,0,0,2.7-1.079,4.458,4.458,0,0,0,.965-3.073v-.665a4.529,4.529,0,0,0-.91-3.014A3.239,3.239,0,0,0,22.8,28.852Zm15.422,4.891h-4.93v4.031h5.727V39H30.047V27.625H37.2v1.227H31.547v3.664h4.93Zm10.391,3.266,3.25-9.383h1.641L47.539,39H46.211L42,27.625h1.633Zm12.109-.984H54.211L53.141,39H51.594l4.344-11.375H57.25L61.6,39H60.063ZM54.664,34.8h3.867l-1.937-5.32Zm9.977,2.977h5.391V39h-6.9V27.625h1.508ZM79.984,33.68a7.037,7.037,0,0,1-.562,2.918,4.261,4.261,0,0,1-1.594,1.9,4.4,4.4,0,0,1-6.4-1.887,6.752,6.752,0,0,1-.59-2.832v-.82a6.953,6.953,0,0,1,.57-2.9,4.218,4.218,0,0,1,4-2.594,4.41,4.41,0,0,1,2.41.66,4.253,4.253,0,0,1,1.605,1.914,7.071,7.071,0,0,1,.563,2.918Zm-1.492-.734a5.1,5.1,0,0,0-.812-3.105,2.68,2.68,0,0,0-2.273-1.082,2.651,2.651,0,0,0-2.238,1.082,5,5,0,0,0-.84,3v.836a5.107,5.107,0,0,0,.824,3.082,2.888,2.888,0,0,0,4.52.063,5.079,5.079,0,0,0,.82-3.035ZM86.406,34.4H83.734V39H82.227V27.625h3.766a4.457,4.457,0,0,1,2.957.875,3.148,3.148,0,0,1,1.035,2.547A3.062,3.062,0,0,1,89.41,32.9a3.428,3.428,0,0,1-1.6,1.18l2.672,4.828V39H88.875Zm-2.672-1.227h2.3a2.6,2.6,0,0,0,1.777-.579,1.959,1.959,0,0,0,.66-1.55,2.062,2.062,0,0,0-.629-1.62,2.663,2.663,0,0,0-1.816-.571h-2.3Z" transform="translate(755 4909)" fill="#12263f"/>
    <g id="Trazado_214704" data-name="Trazado 214704" transform="translate(881 4897)" fill="#fff">
      <path d="M 164.5 62.5 L 0.5 62.5 L 0.5 0.5 L 164.5 0.5 L 164.5 62.5 Z" stroke="none"/>
      <path d="M 1 1 L 1 62 L 164 62 L 164 1 L 1 1 M 0 0 L 165 0 L 165 63 L 0 63 L 0 0 Z" stroke="none" fill="#707070"/>
    </g>
    <path id="Trazado_214709" data-name="Trazado 214709" d="M11.988,10.4H9.316V15H7.809V3.625h3.766a4.457,4.457,0,0,1,2.957.875,3.148,3.148,0,0,1,1.035,2.547A3.062,3.062,0,0,1,14.992,8.9a3.428,3.428,0,0,1-1.6,1.18l2.672,4.828V15H14.457ZM9.316,9.172h2.3A2.6,2.6,0,0,0,13.4,8.593a1.959,1.959,0,0,0,.66-1.55,2.062,2.062,0,0,0-.629-1.62,2.663,2.663,0,0,0-1.816-.571h-2.3Zm14.781.57h-4.93v4.031h5.727V15H17.668V3.625h7.148V4.852H19.168V8.516H24.1Zm4.172,4.031H33.66V15h-6.9V3.625H28.27ZM41.8,12.023H37.035L35.965,15H34.418L38.762,3.625h1.313L44.426,15H42.887ZM37.488,10.8h3.867l-1.937-5.32Zm16.75.594a4.185,4.185,0,0,1-1.332,2.785,4.365,4.365,0,0,1-2.98.98,4.008,4.008,0,0,1-3.23-1.445A5.815,5.815,0,0,1,45.48,9.844V8.75a6.481,6.481,0,0,1,.566-2.789,4.231,4.231,0,0,1,1.605-1.848,4.47,4.47,0,0,1,2.406-.645A4.11,4.11,0,0,1,52.965,4.48a4.235,4.235,0,0,1,1.273,2.8H52.73a3.268,3.268,0,0,0-.848-1.975A2.565,2.565,0,0,0,50.059,4.7,2.684,2.684,0,0,0,47.8,5.759a4.882,4.882,0,0,0-.816,3.026v1.1a5.018,5.018,0,0,0,.773,2.948,2.5,2.5,0,0,0,2.164,1.095,2.887,2.887,0,0,0,1.918-.566,3.143,3.143,0,0,0,.887-1.973ZM57.895,15h-1.5V3.625h1.5ZM69.387,9.68a7.037,7.037,0,0,1-.562,2.918,4.261,4.261,0,0,1-1.594,1.9,4.4,4.4,0,0,1-6.4-1.887,6.752,6.752,0,0,1-.59-2.832v-.82a6.953,6.953,0,0,1,.57-2.9,4.218,4.218,0,0,1,4-2.594,4.41,4.41,0,0,1,2.41.66,4.253,4.253,0,0,1,1.605,1.914,7.071,7.071,0,0,1,.563,2.918Zm-1.492-.734a5.1,5.1,0,0,0-.812-3.105,2.68,2.68,0,0,0-2.273-1.082A2.651,2.651,0,0,0,62.57,5.84a5,5,0,0,0-.84,3V9.68a5.107,5.107,0,0,0,.824,3.082,2.888,2.888,0,0,0,4.52.063,5.079,5.079,0,0,0,.82-3.035ZM65.543.578h1.75L65.2,2.875l-1.164,0ZM80.379,15H78.871L73.145,6.234V15H71.637V3.625h1.508l5.742,8.8v-8.8h1.492Zm14.992-3.609a4.185,4.185,0,0,1-1.332,2.785,4.365,4.365,0,0,1-2.98.98,4.008,4.008,0,0,1-3.23-1.445,5.815,5.815,0,0,1-1.215-3.867V8.75a6.481,6.481,0,0,1,.566-2.789,4.231,4.231,0,0,1,1.605-1.848,4.47,4.47,0,0,1,2.406-.645A4.11,4.11,0,0,1,94.1,4.48a4.235,4.235,0,0,1,1.273,2.8H93.863a3.268,3.268,0,0,0-.848-1.975A2.565,2.565,0,0,0,91.191,4.7a2.684,2.684,0,0,0-2.254,1.063,4.882,4.882,0,0,0-.816,3.026v1.1a5.018,5.018,0,0,0,.773,2.948,2.5,2.5,0,0,0,2.164,1.095,2.886,2.886,0,0,0,1.918-.566,3.143,3.143,0,0,0,.887-1.973Zm10.8-1.711a7.037,7.037,0,0,1-.562,2.918,4.261,4.261,0,0,1-1.594,1.9,4.4,4.4,0,0,1-6.4-1.887,6.752,6.752,0,0,1-.59-2.832v-.82a6.953,6.953,0,0,1,.57-2.9,4.218,4.218,0,0,1,4-2.594,4.41,4.41,0,0,1,2.41.66,4.253,4.253,0,0,1,1.605,1.914,7.071,7.071,0,0,1,.563,2.918Zm-1.492-.734a5.1,5.1,0,0,0-.812-3.105,2.68,2.68,0,0,0-2.273-1.082A2.651,2.651,0,0,0,99.352,5.84a5,5,0,0,0-.84,3V9.68a5.107,5.107,0,0,0,.824,3.082,2.888,2.888,0,0,0,4.52.063,5.079,5.079,0,0,0,.82-3.035ZM117.16,15h-1.508l-5.727-8.766V15h-1.508V3.625h1.508l5.742,8.8v-8.8h1.492Zm-104,22.773h5.391V39h-6.9V27.625H13.16ZM28.5,33.68a7.037,7.037,0,0,1-.562,2.918,4.261,4.261,0,0,1-1.594,1.9,4.4,4.4,0,0,1-6.4-1.887,6.752,6.752,0,0,1-.59-2.832v-.82a6.953,6.953,0,0,1,.57-2.9,4.218,4.218,0,0,1,4-2.594,4.41,4.41,0,0,1,2.41.66,4.253,4.253,0,0,1,1.605,1.914,7.071,7.071,0,0,1,.563,2.918Zm-1.492-.734A5.1,5.1,0,0,0,26.2,29.84a2.68,2.68,0,0,0-2.273-1.082,2.651,2.651,0,0,0-2.238,1.082,5,5,0,0,0-.84,3v.836a5.107,5.107,0,0,0,.824,3.082,2.888,2.888,0,0,0,4.52.063,5.079,5.079,0,0,0,.82-3.035Zm7.094.984A7.053,7.053,0,0,1,31.3,32.566a2.6,2.6,0,0,1-.879-2,2.751,2.751,0,0,1,1.074-2.223,4.269,4.269,0,0,1,2.793-.879,4.66,4.66,0,0,1,2.09.453,3.436,3.436,0,0,1,1.422,1.25,3.2,3.2,0,0,1,.5,1.742H36.793a2.08,2.08,0,0,0-.656-1.627,2.669,2.669,0,0,0-1.852-.592,2.732,2.732,0,0,0-1.73.489,1.632,1.632,0,0,0-.621,1.358,1.468,1.468,0,0,0,.59,1.178,5.786,5.786,0,0,0,2.008.88,9.316,9.316,0,0,1,2.219.88A3.367,3.367,0,0,1,37.938,34.6a2.861,2.861,0,0,1,.387,1.508,2.658,2.658,0,0,1-1.078,2.215,4.6,4.6,0,0,1-2.883.832,5.347,5.347,0,0,1-2.187-.449,3.681,3.681,0,0,1-1.566-1.23,3,3,0,0,1-.551-1.773h1.508a1.959,1.959,0,0,0,.762,1.629,3.207,3.207,0,0,0,2.035.6,2.948,2.948,0,0,0,1.82-.484,1.573,1.573,0,0,0,.633-1.32,1.545,1.545,0,0,0-.586-1.293A6.755,6.755,0,0,0,34.105,33.93Zm18.469,1.461a4.185,4.185,0,0,1-1.332,2.785,4.365,4.365,0,0,1-2.98.98,4.008,4.008,0,0,1-3.23-1.445,5.815,5.815,0,0,1-1.215-3.867V32.75a6.481,6.481,0,0,1,.566-2.789,4.231,4.231,0,0,1,1.605-1.848,4.47,4.47,0,0,1,2.406-.645A4.11,4.11,0,0,1,51.3,28.48a4.235,4.235,0,0,1,1.273,2.8H51.066a3.268,3.268,0,0,0-.848-1.975,2.565,2.565,0,0,0-1.824-.611,2.684,2.684,0,0,0-2.254,1.063,4.882,4.882,0,0,0-.816,3.026v1.1a5.018,5.018,0,0,0,.773,2.948,2.5,2.5,0,0,0,2.164,1.095,2.886,2.886,0,0,0,1.918-.566,3.143,3.143,0,0,0,.887-1.973Zm3.555,2.383H61.52V39h-6.9V27.625h1.508ZM64.84,39h-1.5V27.625h1.5Zm9.172-5.258h-4.93v4.031h5.727V39H67.582V27.625H74.73v1.227H69.082v3.664h4.93ZM85.418,39H83.91l-5.727-8.766V39H76.676V27.625h1.508l5.742,8.8v-8.8h1.492Zm10.3-10.148H92.059V39H90.566V28.852H86.918V27.625h8.8Zm8.117,4.891H98.9v4.031h5.727V39H97.4V27.625h7.148v1.227H98.9v3.664h4.93Zm6.016.188a7.053,7.053,0,0,1-2.809-1.363,2.6,2.6,0,0,1-.879-2,2.751,2.751,0,0,1,1.074-2.223,4.269,4.269,0,0,1,2.793-.879,4.66,4.66,0,0,1,2.09.453,3.436,3.436,0,0,1,1.422,1.25,3.2,3.2,0,0,1,.5,1.742h-1.508a2.08,2.08,0,0,0-.656-1.627,2.669,2.669,0,0,0-1.852-.592,2.732,2.732,0,0,0-1.73.489,1.632,1.632,0,0,0-.621,1.358,1.468,1.468,0,0,0,.59,1.178,5.786,5.786,0,0,0,2.008.88,9.316,9.316,0,0,1,2.219.88A3.367,3.367,0,0,1,113.68,34.6a2.861,2.861,0,0,1,.387,1.508,2.658,2.658,0,0,1-1.078,2.215,4.6,4.6,0,0,1-2.883.832,5.347,5.347,0,0,1-2.187-.449,3.681,3.681,0,0,1-1.566-1.23A3,3,0,0,1,105.8,35.7h1.508a1.959,1.959,0,0,0,.762,1.629,3.207,3.207,0,0,0,2.035.6,2.948,2.948,0,0,0,1.82-.484,1.573,1.573,0,0,0,.633-1.32,1.545,1.545,0,0,0-.586-1.293A6.755,6.755,0,0,0,109.848,33.93Z" transform="translate(921 4909)" fill="#12263f"/>
    <g id="Trazado_214705" data-name="Trazado 214705" transform="translate(1045 4897)" fill="#fff">
      <path d="M 164.5 62.5 L 0.5 62.5 L 0.5 0.5 L 164.5 0.5 L 164.5 62.5 Z" stroke="none"/>
      <path d="M 1 1 L 1 62 L 164 62 L 164 1 L 1 1 M 0 0 L 165 0 L 165 63 L 0 63 L 0 0 Z" stroke="none" fill="#707070"/>
    </g>
    <path id="Trazado_214710" data-name="Trazado 214710" d="M5.371,9.93A7.053,7.053,0,0,1,2.563,8.566a2.6,2.6,0,0,1-.879-2A2.751,2.751,0,0,1,2.758,4.348a4.269,4.269,0,0,1,2.793-.879,4.66,4.66,0,0,1,2.09.453,3.436,3.436,0,0,1,1.422,1.25,3.2,3.2,0,0,1,.5,1.742H8.059A2.08,2.08,0,0,0,7.4,5.287,2.669,2.669,0,0,0,5.551,4.7a2.732,2.732,0,0,0-1.73.489A1.632,1.632,0,0,0,3.2,6.542a1.468,1.468,0,0,0,.59,1.178A5.785,5.785,0,0,0,5.8,8.6a9.316,9.316,0,0,1,2.219.88A3.367,3.367,0,0,1,9.2,10.6a2.861,2.861,0,0,1,.387,1.508,2.658,2.658,0,0,1-1.078,2.215,4.6,4.6,0,0,1-2.883.832,5.347,5.347,0,0,1-2.187-.449,3.681,3.681,0,0,1-1.566-1.23A3,3,0,0,1,1.324,11.7H2.832a1.959,1.959,0,0,0,.762,1.629,3.207,3.207,0,0,0,2.035.6,2.948,2.948,0,0,0,1.82-.484,1.573,1.573,0,0,0,.633-1.32A1.545,1.545,0,0,0,7.5,10.832,6.755,6.755,0,0,0,5.371,9.93Zm12.57-.187h-4.93v4.031h5.727V15H11.512V3.625H18.66V4.852H13.012V8.516h4.93ZM29,13.508a3.465,3.465,0,0,1-1.613,1.238,6.517,6.517,0,0,1-2.41.41,4.674,4.674,0,0,1-2.469-.652,4.346,4.346,0,0,1-1.668-1.855,6.408,6.408,0,0,1-.605-2.789V8.867a5.982,5.982,0,0,1,1.2-3.984,4.179,4.179,0,0,1,3.371-1.414,4.316,4.316,0,0,1,2.867.91A3.965,3.965,0,0,1,29,6.961H27.5A2.48,2.48,0,0,0,24.816,4.7a2.655,2.655,0,0,0-2.285,1.06,5.173,5.173,0,0,0-.785,3.069v.93a4.848,4.848,0,0,0,.875,3.046,2.836,2.836,0,0,0,2.367,1.13,5.228,5.228,0,0,0,1.477-.187,2.283,2.283,0,0,0,1.047-.631V10.563H24.879V9.336H29Zm4.438-9.883,3.719,9.281,3.719-9.281h1.945V15h-1.5V10.57l.141-4.781L37.73,15H36.582L32.855,5.813,33,10.57V15H31.5V3.625ZM51.9,9.742h-4.93v4.031H52.7V15H45.473V3.625h7.148V4.852H46.973V8.516H51.9ZM63.309,15H61.8L56.074,6.234V15H54.566V3.625h1.508l5.742,8.8v-8.8h1.492Zm10.3-10.148H69.949V15H68.457V4.852H64.809V3.625h8.8ZM83.824,9.68a7.037,7.037,0,0,1-.562,2.918,4.261,4.261,0,0,1-1.594,1.9,4.4,4.4,0,0,1-6.4-1.887,6.752,6.752,0,0,1-.59-2.832v-.82a6.953,6.953,0,0,1,.57-2.9,4.218,4.218,0,0,1,4-2.594,4.41,4.41,0,0,1,2.41.66,4.253,4.253,0,0,1,1.605,1.914,7.071,7.071,0,0,1,.563,2.918Zm-1.492-.734A5.1,5.1,0,0,0,81.52,5.84a2.68,2.68,0,0,0-2.273-1.082A2.651,2.651,0,0,0,77.008,5.84a5,5,0,0,0-.84,3V9.68a5.107,5.107,0,0,0,.824,3.082,2.888,2.888,0,0,0,4.52.063,5.079,5.079,0,0,0,.82-3.035ZM90.035,15V3.625h3.211a5.169,5.169,0,0,1,2.625.656,4.438,4.438,0,0,1,1.762,1.867,6.078,6.078,0,0,1,.629,2.781v.727a6.1,6.1,0,0,1-.621,2.82,4.369,4.369,0,0,1-1.773,1.859A5.5,5.5,0,0,1,93.184,15Zm1.5-10.148v8.922h1.578a3.434,3.434,0,0,0,2.7-1.079,4.458,4.458,0,0,0,.965-3.073V8.957a4.529,4.529,0,0,0-.91-3.014,3.239,3.239,0,0,0-2.582-1.091Zm15.422,4.891h-4.93v4.031h5.727V15h-7.227V3.625h7.148V4.852h-5.648V8.516h4.93ZM28.3,35.391a4.185,4.185,0,0,1-1.332,2.785,4.365,4.365,0,0,1-2.98.98,4.008,4.008,0,0,1-3.23-1.445,5.815,5.815,0,0,1-1.215-3.867V32.75a6.481,6.481,0,0,1,.566-2.789,4.231,4.231,0,0,1,1.605-1.848,4.47,4.47,0,0,1,2.406-.645,4.11,4.11,0,0,1,2.906,1.012,4.235,4.235,0,0,1,1.273,2.8H26.789a3.268,3.268,0,0,0-.848-1.975,2.565,2.565,0,0,0-1.824-.611,2.684,2.684,0,0,0-2.254,1.063,4.882,4.882,0,0,0-.816,3.026v1.1a5.018,5.018,0,0,0,.773,2.948,2.5,2.5,0,0,0,2.164,1.095,2.886,2.886,0,0,0,1.918-.566,3.143,3.143,0,0,0,.887-1.973Zm3.555,2.383h5.391V39h-6.9V27.625h1.508ZM40.563,39h-1.5V27.625h1.5Zm9.172-5.258H44.8v4.031h5.727V39H43.3V27.625h7.148v1.227H44.8v3.664h4.93ZM61.141,39H59.633l-5.727-8.766V39H52.4V27.625h1.508l5.742,8.8v-8.8h1.492Zm10.3-10.148H67.781V39H66.289V28.852H62.641V27.625h8.8Zm8.117,4.891h-4.93v4.031h5.727V39H73.125V27.625h7.148v1.227H74.625v3.664h4.93Zm6.016.188a7.053,7.053,0,0,1-2.809-1.363,2.6,2.6,0,0,1-.879-2,2.751,2.751,0,0,1,1.074-2.223,4.269,4.269,0,0,1,2.793-.879,4.66,4.66,0,0,1,2.09.453,3.436,3.436,0,0,1,1.422,1.25,3.2,3.2,0,0,1,.5,1.742H88.258a2.08,2.08,0,0,0-.656-1.627A2.669,2.669,0,0,0,85.75,28.7a2.732,2.732,0,0,0-1.73.489,1.632,1.632,0,0,0-.621,1.358,1.468,1.468,0,0,0,.59,1.178A5.786,5.786,0,0,0,86,32.6a9.316,9.316,0,0,1,2.219.88A3.367,3.367,0,0,1,89.4,34.6a2.861,2.861,0,0,1,.387,1.508,2.658,2.658,0,0,1-1.078,2.215,4.6,4.6,0,0,1-2.883.832,5.347,5.347,0,0,1-2.187-.449,3.681,3.681,0,0,1-1.566-1.23,3,3,0,0,1-.551-1.773h1.508a1.959,1.959,0,0,0,.762,1.629,3.207,3.207,0,0,0,2.035.6,2.948,2.948,0,0,0,1.82-.484,1.573,1.573,0,0,0,.633-1.32,1.545,1.545,0,0,0-.586-1.293A6.755,6.755,0,0,0,85.57,33.93Z" transform="translate(1086 4909)" fill="#12263f"/>
    <path id="Trazado_214695" data-name="Trazado 214695" d="M20.207,10.4H17.535V15H16.027V3.625h3.766A4.457,4.457,0,0,1,22.75,4.5a3.148,3.148,0,0,1,1.035,2.547A3.062,3.062,0,0,1,23.211,8.9a3.428,3.428,0,0,1-1.6,1.18l2.672,4.828V15H22.676ZM17.535,9.172h2.3a2.6,2.6,0,0,0,1.777-.579,1.959,1.959,0,0,0,.66-1.55,2.062,2.062,0,0,0-.629-1.62,2.663,2.663,0,0,0-1.816-.571h-2.3Zm14.781.57h-4.93v4.031h5.727V15H25.887V3.625h7.148V4.852H27.387V8.516h4.93Zm11.031,1.648a4.185,4.185,0,0,1-1.332,2.785,4.365,4.365,0,0,1-2.98.98,4.008,4.008,0,0,1-3.23-1.445A5.815,5.815,0,0,1,34.59,9.844V8.75a6.481,6.481,0,0,1,.566-2.789,4.231,4.231,0,0,1,1.605-1.848,4.47,4.47,0,0,1,2.406-.645A4.11,4.11,0,0,1,42.074,4.48a4.235,4.235,0,0,1,1.273,2.8H41.84a3.268,3.268,0,0,0-.848-1.975A2.565,2.565,0,0,0,39.168,4.7a2.684,2.684,0,0,0-2.254,1.063A4.882,4.882,0,0,0,36.1,8.785v1.1a5.018,5.018,0,0,0,.773,2.948,2.5,2.5,0,0,0,2.164,1.095,2.887,2.887,0,0,0,1.918-.566,3.143,3.143,0,0,0,.887-1.973ZM53.4,3.625v7.734a3.628,3.628,0,0,1-1.012,2.633,4.077,4.077,0,0,1-2.723,1.148l-.4.016a4.258,4.258,0,0,1-2.977-1.008,3.6,3.6,0,0,1-1.125-2.773V3.625h1.484v7.7a2.6,2.6,0,0,0,.68,1.918,3.111,3.111,0,0,0,3.887,0,2.6,2.6,0,0,0,.676-1.914V3.625ZM59.941,10.4H57.27V15H55.762V3.625h3.766a4.457,4.457,0,0,1,2.957.875A3.148,3.148,0,0,1,63.52,7.047,3.062,3.062,0,0,1,62.945,8.9a3.428,3.428,0,0,1-1.6,1.18l2.672,4.828V15H62.41ZM57.27,9.172h2.3a2.6,2.6,0,0,0,1.777-.579,1.959,1.959,0,0,0,.66-1.55,2.062,2.062,0,0,0-.629-1.62,2.663,2.663,0,0,0-1.816-.571h-2.3Zm11.7.758a7.053,7.053,0,0,1-2.809-1.363,2.6,2.6,0,0,1-.879-2,2.751,2.751,0,0,1,1.074-2.223,4.269,4.269,0,0,1,2.793-.879,4.66,4.66,0,0,1,2.09.453,3.436,3.436,0,0,1,1.422,1.25,3.2,3.2,0,0,1,.5,1.742H71.66A2.08,2.08,0,0,0,71,5.287,2.669,2.669,0,0,0,69.152,4.7a2.732,2.732,0,0,0-1.73.489A1.632,1.632,0,0,0,66.8,6.542a1.468,1.468,0,0,0,.59,1.178A5.785,5.785,0,0,0,69.4,8.6a9.316,9.316,0,0,1,2.219.88A3.367,3.367,0,0,1,72.8,10.6a2.861,2.861,0,0,1,.387,1.508,2.658,2.658,0,0,1-1.078,2.215,4.6,4.6,0,0,1-2.883.832,5.347,5.347,0,0,1-2.187-.449,3.681,3.681,0,0,1-1.566-1.23,3,3,0,0,1-.551-1.773h1.508a1.959,1.959,0,0,0,.762,1.629,3.207,3.207,0,0,0,2.035.6,2.948,2.948,0,0,0,1.82-.484,1.573,1.573,0,0,0,.633-1.32,1.545,1.545,0,0,0-.586-1.293A6.755,6.755,0,0,0,68.973,9.93Zm14.891-.25A7.037,7.037,0,0,1,83.3,12.6a4.261,4.261,0,0,1-1.594,1.9,4.4,4.4,0,0,1-6.4-1.887,6.752,6.752,0,0,1-.59-2.832v-.82a6.953,6.953,0,0,1,.57-2.9,4.218,4.218,0,0,1,4-2.594,4.41,4.41,0,0,1,2.41.66A4.253,4.253,0,0,1,83.3,6.043a7.071,7.071,0,0,1,.563,2.918Zm-1.492-.734a5.1,5.1,0,0,0-.812-3.105,2.68,2.68,0,0,0-2.273-1.082A2.651,2.651,0,0,0,77.047,5.84a5,5,0,0,0-.84,3V9.68a5.107,5.107,0,0,0,.824,3.082,2.888,2.888,0,0,0,4.52.063,5.079,5.079,0,0,0,.82-3.035Zm7.094.984a7.053,7.053,0,0,1-2.809-1.363,2.6,2.6,0,0,1-.879-2,2.751,2.751,0,0,1,1.074-2.223,4.269,4.269,0,0,1,2.793-.879,4.66,4.66,0,0,1,2.09.453,3.436,3.436,0,0,1,1.422,1.25,3.2,3.2,0,0,1,.5,1.742H92.152A2.08,2.08,0,0,0,91.5,5.287,2.669,2.669,0,0,0,89.645,4.7a2.732,2.732,0,0,0-1.73.489,1.632,1.632,0,0,0-.621,1.358,1.468,1.468,0,0,0,.59,1.178,5.785,5.785,0,0,0,2.008.88,9.316,9.316,0,0,1,2.219.88A3.367,3.367,0,0,1,93.3,10.6a2.861,2.861,0,0,1,.387,1.508,2.658,2.658,0,0,1-1.078,2.215,4.6,4.6,0,0,1-2.883.832,5.347,5.347,0,0,1-2.187-.449,3.681,3.681,0,0,1-1.566-1.23,3,3,0,0,1-.551-1.773h1.508a1.959,1.959,0,0,0,.762,1.629,3.207,3.207,0,0,0,2.035.6,2.948,2.948,0,0,0,1.82-.484,1.573,1.573,0,0,0,.633-1.32,1.545,1.545,0,0,0-.586-1.293A6.755,6.755,0,0,0,89.465,9.93ZM40.086,35.391a4.185,4.185,0,0,1-1.332,2.785,4.365,4.365,0,0,1-2.98.98,4.008,4.008,0,0,1-3.23-1.445,5.815,5.815,0,0,1-1.215-3.867V32.75a6.481,6.481,0,0,1,.566-2.789A4.231,4.231,0,0,1,33.5,28.113a4.47,4.47,0,0,1,2.406-.645,4.11,4.11,0,0,1,2.906,1.012,4.235,4.235,0,0,1,1.273,2.8H38.578a3.268,3.268,0,0,0-.848-1.975,2.565,2.565,0,0,0-1.824-.611,2.684,2.684,0,0,0-2.254,1.063,4.882,4.882,0,0,0-.816,3.026v1.1a5.018,5.018,0,0,0,.773,2.948,2.5,2.5,0,0,0,2.164,1.095,2.886,2.886,0,0,0,1.918-.566,3.143,3.143,0,0,0,.887-1.973Zm3.555,2.383h5.391V39h-6.9V27.625h1.508Zm13.531-1.75H52.406L51.336,39H49.789l4.344-11.375h1.313L59.8,39H58.258ZM52.859,34.8h3.867l-1.937-5.32Zm11.555,2.211,3.25-9.383H69.3L65.086,39H63.758L59.547,27.625H61.18Zm12.844-3.266h-4.93v4.031h5.727V39H70.828V27.625h7.148v1.227H72.328v3.664h4.93Z" transform="translate(583 5010)" fill="#12263f"/>
    <path id="Trazado_214698" data-name="Trazado 214698" d="M29.172,11.391a4.185,4.185,0,0,1-1.332,2.785,4.365,4.365,0,0,1-2.98.98,4.008,4.008,0,0,1-3.23-1.445,5.815,5.815,0,0,1-1.215-3.867V8.75a6.481,6.481,0,0,1,.566-2.789,4.231,4.231,0,0,1,1.605-1.848,4.47,4.47,0,0,1,2.406-.645A4.11,4.11,0,0,1,27.9,4.48a4.235,4.235,0,0,1,1.273,2.8H27.664a3.268,3.268,0,0,0-.848-1.975A2.565,2.565,0,0,0,24.992,4.7a2.684,2.684,0,0,0-2.254,1.063,4.882,4.882,0,0,0-.816,3.026v1.1a5.018,5.018,0,0,0,.773,2.948,2.5,2.5,0,0,0,2.164,1.095,2.886,2.886,0,0,0,1.918-.566,3.143,3.143,0,0,0,.887-1.973Zm8.328.633H32.734L31.664,15H30.117L34.461,3.625h1.313L40.125,15H38.586ZM33.188,10.8h3.867l-1.937-5.32ZM50.4,15H48.891L43.164,6.234V15H41.656V3.625h1.508l5.742,8.8v-8.8H50.4Zm9.086-2.977H54.719L53.648,15H52.1L56.445,3.625h1.313L62.109,15H60.57ZM55.172,10.8h3.867L57.1,5.477Zm9.977,2.977h5.391V15h-6.9V3.625h1.508ZM78.68,9.742H73.75v4.031h5.727V15H72.25V3.625H79.4V4.852H73.75V8.516h4.93ZM84.7,9.93a7.053,7.053,0,0,1-2.809-1.363,2.6,2.6,0,0,1-.879-2,2.751,2.751,0,0,1,1.074-2.223,4.269,4.269,0,0,1,2.793-.879,4.66,4.66,0,0,1,2.09.453,3.436,3.436,0,0,1,1.422,1.25,3.2,3.2,0,0,1,.5,1.742H87.383a2.08,2.08,0,0,0-.656-1.627A2.669,2.669,0,0,0,84.875,4.7a2.732,2.732,0,0,0-1.73.489,1.632,1.632,0,0,0-.621,1.358,1.468,1.468,0,0,0,.59,1.178,5.785,5.785,0,0,0,2.008.88,9.316,9.316,0,0,1,2.219.88A3.367,3.367,0,0,1,88.527,10.6a2.861,2.861,0,0,1,.387,1.508,2.658,2.658,0,0,1-1.078,2.215,4.6,4.6,0,0,1-2.883.832,5.347,5.347,0,0,1-2.187-.449,3.681,3.681,0,0,1-1.566-1.23,3,3,0,0,1-.551-1.773h1.508a1.959,1.959,0,0,0,.762,1.629,3.207,3.207,0,0,0,2.035.6,2.948,2.948,0,0,0,1.82-.484,1.573,1.573,0,0,0,.633-1.32,1.545,1.545,0,0,0-.586-1.293A6.755,6.755,0,0,0,84.7,9.93Z" transform="translate(918 5019)" fill="#12263f"/>
    <g id="Trazado_214689" data-name="Trazado 214689" transform="translate(390 5097)" fill="#fff">
      <path d="M 412.5 51.5 L 0.5 51.5 L 0.5 0.5 L 412.5 0.5 L 412.5 51.5 Z" stroke="none"/>
      <path d="M 1 1 L 1 51 L 412 51 L 412 1 L 1 1 M 0 0 L 413 0 L 413 52 L 0 52 L 0 0 Z" stroke="none" fill="#707070"/>
    </g>
    <g id="Trazado_214690" data-name="Trazado 214690" transform="translate(390 5148)" fill="#fff">
      <path d="M 412.5 89.5 L 0.5 89.5 L 0.5 0.5 L 412.5 0.5 L 412.5 89.5 Z" stroke="none"/>
      <path d="M 1 1 L 1 89 L 412 89 L 412 1 L 1 1 M 0 0 L 413 0 L 413 90 L 0 90 L 0 0 Z" stroke="none" fill="#707070"/>
    </g>
    <g id="Trazado_214691" data-name="Trazado 214691" transform="translate(797 5097)" fill="#fff">
      <path d="M 412.5 51.5 L 0.5 51.5 L 0.5 0.5 L 412.5 0.5 L 412.5 51.5 Z" stroke="none"/>
      <path d="M 1 1 L 1 51 L 412 51 L 412 1 L 1 1 M 0 0 L 413 0 L 413 52 L 0 52 L 0 0 Z" stroke="none" fill="#707070"/>
    </g>
    <g id="Trazado_214684" data-name="Trazado 214684" transform="translate(797 5148)" fill="#fff">
      <path d="M 412.5 89.5 L 0.5 89.5 L 0.5 0.5 L 412.5 0.5 L 412.5 89.5 Z" stroke="none"/>
      <path d="M 1 1 L 1 89 L 412 89 L 412 1 L 1 1 M 0 0 L 413 0 L 413 90 L 0 90 L 0 0 Z" stroke="none" fill="#707070"/>
    </g>
    <path id="Trazado_214699" data-name="Trazado 214699" d="M0,0H164.087" transform="translate(554.087 5005.054)" fill="none" stroke="#707070" stroke-width="1"/>
    <path id="Trazado_214696" data-name="Trazado 214696" d="M0,0H164.087" transform="translate(554.087 5053.801)" fill="none" stroke="#707070" stroke-width="1"/>
    <path id="Trazado_214700" data-name="Trazado 214700" d="M0,0H164.087" transform="translate(881.608 5003.748)" fill="none" stroke="#707070" stroke-width="1"/>
    <path id="Trazado_214697" data-name="Trazado 214697" d="M0,0H164.087" transform="translate(881.608 5052.495)" fill="none" stroke="#707070" stroke-width="1"/>
    <path id="Trazado_214692" data-name="Trazado 214692" d="M-85.746-5.258h-4.93v4.031h5.727V0h-7.227V-11.375h7.148v1.227h-5.648v3.664h4.93Zm6.016.188a7.053,7.053,0,0,1-2.809-1.363,2.6,2.6,0,0,1-.879-2,2.751,2.751,0,0,1,1.074-2.223,4.269,4.269,0,0,1,2.793-.879,4.66,4.66,0,0,1,2.09.453,3.436,3.436,0,0,1,1.422,1.25,3.2,3.2,0,0,1,.5,1.742h-1.508A2.08,2.08,0,0,0-77.7-9.713a2.669,2.669,0,0,0-1.852-.592,2.732,2.732,0,0,0-1.73.489A1.632,1.632,0,0,0-81.9-8.458a1.468,1.468,0,0,0,.59,1.178A5.785,5.785,0,0,0-79.3-6.4a9.316,9.316,0,0,1,2.219.88A3.367,3.367,0,0,1-75.9-4.4a2.861,2.861,0,0,1,.387,1.508A2.658,2.658,0,0,1-76.59-.676a4.6,4.6,0,0,1-2.883.832A5.347,5.347,0,0,1-81.66-.293a3.681,3.681,0,0,1-1.566-1.23A3,3,0,0,1-83.777-3.3h1.508a1.959,1.959,0,0,0,.762,1.629,3.207,3.207,0,0,0,2.035.6,2.948,2.948,0,0,0,1.82-.484,1.573,1.573,0,0,0,.633-1.32,1.545,1.545,0,0,0-.586-1.293A6.755,6.755,0,0,0-79.73-5.07Zm14-5.078h-3.656V0h-1.492V-10.148h-3.648v-1.227h8.8ZM-59.871-4.6h-2.672V0h-1.508V-11.375h3.766a4.457,4.457,0,0,1,2.957.875,3.148,3.148,0,0,1,1.035,2.547A3.062,3.062,0,0,1-56.867-6.1a3.428,3.428,0,0,1-1.6,1.18l2.672,4.828V0H-57.4Zm-2.672-1.227h2.3a2.6,2.6,0,0,0,1.777-.579,1.959,1.959,0,0,0,.66-1.55,2.062,2.062,0,0,0-.629-1.62,2.663,2.663,0,0,0-1.816-.571h-2.3Zm16.359-5.547v7.734A3.628,3.628,0,0,1-47.2-1.008,4.077,4.077,0,0,1-49.918.141l-.4.016A4.258,4.258,0,0,1-53.293-.852a3.6,3.6,0,0,1-1.125-2.773v-7.75h1.484v7.7a2.6,2.6,0,0,0,.68,1.918,2.612,2.612,0,0,0,1.938.684,2.63,2.63,0,0,0,1.949-.68,2.6,2.6,0,0,0,.676-1.914v-7.711Zm10.734,7.766A4.185,4.185,0,0,1-36.781-.824a4.365,4.365,0,0,1-2.98.98,4.008,4.008,0,0,1-3.23-1.445,5.815,5.815,0,0,1-1.215-3.867V-6.25a6.481,6.481,0,0,1,.566-2.789,4.231,4.231,0,0,1,1.605-1.848,4.47,4.47,0,0,1,2.406-.645,4.11,4.11,0,0,1,2.906,1.012,4.235,4.235,0,0,1,1.273,2.8h-1.508A3.268,3.268,0,0,0-37.8-9.693a2.565,2.565,0,0,0-1.824-.611,2.684,2.684,0,0,0-2.254,1.063A4.882,4.882,0,0,0-42.7-6.215v1.1a5.018,5.018,0,0,0,.773,2.948A2.5,2.5,0,0,0-39.762-1.07a2.887,2.887,0,0,0,1.918-.566,3.143,3.143,0,0,0,.887-1.973Zm9.68-6.539h-3.656V0h-1.492V-10.148h-3.648v-1.227h8.8Zm9.7-1.227v7.734a3.628,3.628,0,0,1-1.012,2.633A4.077,4.077,0,0,1-19.809.141l-.4.016A4.258,4.258,0,0,1-23.184-.852a3.6,3.6,0,0,1-1.125-2.773v-7.75h1.484v7.7a2.6,2.6,0,0,0,.68,1.918,2.612,2.612,0,0,0,1.938.684,2.63,2.63,0,0,0,1.949-.68,2.6,2.6,0,0,0,.676-1.914v-7.711ZM-9.535-4.6h-2.672V0h-1.508V-11.375h3.766a4.457,4.457,0,0,1,2.957.875A3.148,3.148,0,0,1-5.957-7.953,3.062,3.062,0,0,1-6.531-6.1a3.428,3.428,0,0,1-1.6,1.18L-5.457-.094V0H-7.066Zm-2.672-1.227h2.3a2.6,2.6,0,0,0,1.777-.579,1.959,1.959,0,0,0,.66-1.55,2.062,2.062,0,0,0-.629-1.62,2.663,2.663,0,0,0-1.816-.571h-2.3ZM2.426-2.977H-2.34L-3.41,0H-4.957L-.613-11.375H.7L5.051,0H3.512ZM-1.887-4.2H1.98L.043-9.523ZM10.543,0V-11.375h3.211a5.169,5.169,0,0,1,2.625.656,4.438,4.438,0,0,1,1.762,1.867A6.078,6.078,0,0,1,18.77-6.07v.727a6.1,6.1,0,0,1-.621,2.82A4.369,4.369,0,0,1,16.375-.664,5.5,5.5,0,0,1,13.691,0Zm1.5-10.148v8.922h1.578a3.434,3.434,0,0,0,2.7-1.079,4.458,4.458,0,0,0,.965-3.073v-.665a4.529,4.529,0,0,0-.91-3.014,3.239,3.239,0,0,0-2.582-1.091ZM27.465-5.258h-4.93v4.031h5.727V0H21.035V-11.375h7.148v1.227H22.535v3.664h4.93ZM42.457-3.609A4.185,4.185,0,0,1,41.125-.824a4.365,4.365,0,0,1-2.98.98,4.008,4.008,0,0,1-3.23-1.445A5.815,5.815,0,0,1,33.7-5.156V-6.25a6.481,6.481,0,0,1,.566-2.789,4.231,4.231,0,0,1,1.605-1.848,4.47,4.47,0,0,1,2.406-.645,4.11,4.11,0,0,1,2.906,1.012,4.235,4.235,0,0,1,1.273,2.8H40.949A3.268,3.268,0,0,0,40.1-9.693a2.565,2.565,0,0,0-1.824-.611,2.684,2.684,0,0,0-2.254,1.063,4.882,4.882,0,0,0-.816,3.026v1.1a5.018,5.018,0,0,0,.773,2.948A2.5,2.5,0,0,0,38.145-1.07a2.887,2.887,0,0,0,1.918-.566,3.143,3.143,0,0,0,.887-1.973Zm10.8-1.711A7.037,7.037,0,0,1,52.691-2.4,4.261,4.261,0,0,1,51.1-.5a4.385,4.385,0,0,1-2.406.656A4.347,4.347,0,0,1,46.309-.5,4.363,4.363,0,0,1,44.7-2.387a6.752,6.752,0,0,1-.59-2.832v-.82a6.953,6.953,0,0,1,.57-2.9,4.347,4.347,0,0,1,1.613-1.926,4.329,4.329,0,0,1,2.387-.668,4.41,4.41,0,0,1,2.41.66,4.253,4.253,0,0,1,1.605,1.914,7.071,7.071,0,0,1,.563,2.918Zm-1.492-.734a5.1,5.1,0,0,0-.812-3.105,2.68,2.68,0,0,0-2.273-1.082A2.651,2.651,0,0,0,46.438-9.16a5,5,0,0,0-.84,3v.836a5.107,5.107,0,0,0,.824,3.082,2.662,2.662,0,0,0,2.27,1.121,2.652,2.652,0,0,0,2.25-1.059,5.079,5.079,0,0,0,.82-3.035Zm7.094.984a7.053,7.053,0,0,1-2.809-1.363,2.6,2.6,0,0,1-.879-2,2.752,2.752,0,0,1,1.074-2.223,4.269,4.269,0,0,1,2.793-.879,4.66,4.66,0,0,1,2.09.453,3.436,3.436,0,0,1,1.422,1.25,3.2,3.2,0,0,1,.5,1.742H61.543a2.08,2.08,0,0,0-.656-1.627,2.669,2.669,0,0,0-1.852-.592,2.732,2.732,0,0,0-1.73.489,1.632,1.632,0,0,0-.621,1.358,1.468,1.468,0,0,0,.59,1.178,5.785,5.785,0,0,0,2.008.88,9.316,9.316,0,0,1,2.219.88A3.367,3.367,0,0,1,62.688-4.4a2.861,2.861,0,0,1,.387,1.508A2.658,2.658,0,0,1,62-.676a4.6,4.6,0,0,1-2.883.832,5.347,5.347,0,0,1-2.187-.449,3.681,3.681,0,0,1-1.566-1.23A3,3,0,0,1,54.809-3.3h1.508a1.959,1.959,0,0,0,.762,1.629,3.207,3.207,0,0,0,2.035.6,2.948,2.948,0,0,0,1.82-.484,1.573,1.573,0,0,0,.633-1.32,1.545,1.545,0,0,0-.586-1.293A6.755,6.755,0,0,0,58.855-5.07Zm14-5.078H69.2V0H67.707V-10.148H64.059v-1.227h8.8ZM83.074-5.32A7.037,7.037,0,0,1,82.512-2.4,4.261,4.261,0,0,1,80.918-.5a4.385,4.385,0,0,1-2.406.656A4.347,4.347,0,0,1,76.129-.5a4.363,4.363,0,0,1-1.613-1.883,6.752,6.752,0,0,1-.59-2.832v-.82a6.953,6.953,0,0,1,.57-2.9,4.347,4.347,0,0,1,1.613-1.926,4.329,4.329,0,0,1,2.387-.668,4.41,4.41,0,0,1,2.41.66,4.253,4.253,0,0,1,1.605,1.914,7.071,7.071,0,0,1,.563,2.918Zm-1.492-.734A5.1,5.1,0,0,0,80.77-9.16,2.68,2.68,0,0,0,78.5-10.242,2.651,2.651,0,0,0,76.258-9.16a5,5,0,0,0-.84,3v.836a5.107,5.107,0,0,0,.824,3.082,2.662,2.662,0,0,0,2.27,1.121,2.652,2.652,0,0,0,2.25-1.059,5.079,5.079,0,0,0,.82-3.035Zm7.094.984a7.053,7.053,0,0,1-2.809-1.363,2.6,2.6,0,0,1-.879-2,2.751,2.751,0,0,1,1.074-2.223,4.269,4.269,0,0,1,2.793-.879,4.66,4.66,0,0,1,2.09.453,3.436,3.436,0,0,1,1.422,1.25,3.2,3.2,0,0,1,.5,1.742H91.363a2.08,2.08,0,0,0-.656-1.627,2.669,2.669,0,0,0-1.852-.592,2.732,2.732,0,0,0-1.73.489A1.632,1.632,0,0,0,86.5-8.458a1.468,1.468,0,0,0,.59,1.178A5.785,5.785,0,0,0,89.1-6.4a9.316,9.316,0,0,1,2.219.88A3.367,3.367,0,0,1,92.508-4.4a2.861,2.861,0,0,1,.387,1.508A2.658,2.658,0,0,1,91.816-.676a4.6,4.6,0,0,1-2.883.832,5.347,5.347,0,0,1-2.187-.449,3.681,3.681,0,0,1-1.566-1.23A3,3,0,0,1,84.629-3.3h1.508A1.959,1.959,0,0,0,86.9-1.668a3.207,3.207,0,0,0,2.035.6,2.948,2.948,0,0,0,1.82-.484,1.573,1.573,0,0,0,.633-1.32A1.545,1.545,0,0,0,90.8-4.168,6.755,6.755,0,0,0,88.676-5.07Z" transform="translate(585 5128)" fill="#12263f"/>
    <path id="Trazado_214693" data-name="Trazado 214693" d="M-77.766-5.023h-4.773V0h-1.5V-11.375h7.047v1.227h-5.547v3.9h4.773Zm10.578-6.352v7.734A3.628,3.628,0,0,1-68.2-1.008,4.077,4.077,0,0,1-70.922.141l-.4.016A4.258,4.258,0,0,1-74.3-.852a3.6,3.6,0,0,1-1.125-2.773v-7.75h1.484v7.7a2.6,2.6,0,0,0,.68,1.918,2.612,2.612,0,0,0,1.938.684,2.63,2.63,0,0,0,1.949-.68A2.6,2.6,0,0,0-68.7-3.664v-7.711Zm8.8,6.117h-4.93v4.031h5.727V0H-64.82V-11.375h7.148v1.227H-63.32v3.664h4.93ZM-46.984,0h-1.508l-5.727-8.766V0h-1.508V-11.375h1.508l5.742,8.8v-8.8h1.492Zm10.3-10.148h-3.656V0h-1.492V-10.148h-3.648v-1.227h8.8Zm8.117,4.891H-33.5v4.031h5.727V0H-35V-11.375h7.148v1.227H-33.5v3.664h4.93Zm6.016.188a7.053,7.053,0,0,1-2.809-1.363,2.6,2.6,0,0,1-.879-2,2.751,2.751,0,0,1,1.074-2.223,4.269,4.269,0,0,1,2.793-.879,4.66,4.66,0,0,1,2.09.453,3.436,3.436,0,0,1,1.422,1.25,3.2,3.2,0,0,1,.5,1.742h-1.508a2.08,2.08,0,0,0-.656-1.627,2.669,2.669,0,0,0-1.852-.592,2.732,2.732,0,0,0-1.73.489,1.632,1.632,0,0,0-.621,1.358,1.468,1.468,0,0,0,.59,1.178,5.785,5.785,0,0,0,2.008.88,9.316,9.316,0,0,1,2.219.88A3.367,3.367,0,0,1-18.723-4.4a2.861,2.861,0,0,1,.387,1.508A2.658,2.658,0,0,1-19.414-.676,4.6,4.6,0,0,1-22.3.156a5.347,5.347,0,0,1-2.187-.449,3.681,3.681,0,0,1-1.566-1.23A3,3,0,0,1-26.6-3.3h1.508a1.959,1.959,0,0,0,.762,1.629,3.207,3.207,0,0,0,2.035.6,2.948,2.948,0,0,0,1.82-.484,1.573,1.573,0,0,0,.633-1.32,1.545,1.545,0,0,0-.586-1.293A6.755,6.755,0,0,0-22.555-5.07ZM-12.453,0V-11.375h3.211a5.169,5.169,0,0,1,2.625.656A4.438,4.438,0,0,1-4.855-8.852,6.078,6.078,0,0,1-4.227-6.07v.727a6.1,6.1,0,0,1-.621,2.82A4.369,4.369,0,0,1-6.621-.664,5.5,5.5,0,0,1-9.3,0Zm1.5-10.148v8.922h1.578a3.434,3.434,0,0,0,2.7-1.079,4.458,4.458,0,0,0,.965-3.073v-.665a4.529,4.529,0,0,0-.91-3.014A3.239,3.239,0,0,0-9.2-10.148ZM4.469-5.258H-.461v4.031H5.266V0H-1.961V-11.375H5.188v1.227H-.461v3.664h4.93ZM12.7,0H11.2V-11.375h1.5ZM24.188,0H22.68L16.953-8.766V0H15.445V-11.375h1.508L22.7-2.57v-8.8h1.492ZM35.25-1.492A3.465,3.465,0,0,1,33.637-.254a6.517,6.517,0,0,1-2.41.41A4.674,4.674,0,0,1,28.758-.5,4.346,4.346,0,0,1,27.09-2.352a6.408,6.408,0,0,1-.605-2.789v-.992a5.982,5.982,0,0,1,1.2-3.984,4.179,4.179,0,0,1,3.371-1.414,4.316,4.316,0,0,1,2.867.91A3.965,3.965,0,0,1,35.25-8.039h-1.5A2.48,2.48,0,0,0,31.063-10.3a2.655,2.655,0,0,0-2.285,1.06,5.173,5.173,0,0,0-.785,3.069v.93A4.848,4.848,0,0,0,28.867-2.2a2.836,2.836,0,0,0,2.367,1.13,5.228,5.228,0,0,0,1.477-.187,2.283,2.283,0,0,0,1.047-.631V-4.437H31.125V-5.664H35.25ZM41.922-4.6H39.25V0H37.742V-11.375h3.766a4.457,4.457,0,0,1,2.957.875A3.148,3.148,0,0,1,45.5-7.953,3.062,3.062,0,0,1,44.926-6.1a3.428,3.428,0,0,1-1.6,1.18L46-.094V0H44.391ZM39.25-5.828h2.3a2.6,2.6,0,0,0,1.777-.579,1.959,1.959,0,0,0,.66-1.55,2.062,2.062,0,0,0-.629-1.62,2.663,2.663,0,0,0-1.816-.571h-2.3Zm14.781.57H49.1v4.031h5.727V0H47.6V-11.375H54.75v1.227H49.1v3.664h4.93Zm6.016.188a7.053,7.053,0,0,1-2.809-1.363,2.6,2.6,0,0,1-.879-2,2.752,2.752,0,0,1,1.074-2.223,4.269,4.269,0,0,1,2.793-.879,4.66,4.66,0,0,1,2.09.453,3.436,3.436,0,0,1,1.422,1.25,3.2,3.2,0,0,1,.5,1.742H62.734a2.08,2.08,0,0,0-.656-1.627,2.669,2.669,0,0,0-1.852-.592,2.732,2.732,0,0,0-1.73.489,1.632,1.632,0,0,0-.621,1.358,1.468,1.468,0,0,0,.59,1.178,5.785,5.785,0,0,0,2.008.88,9.316,9.316,0,0,1,2.219.88A3.367,3.367,0,0,1,63.879-4.4a2.861,2.861,0,0,1,.387,1.508A2.658,2.658,0,0,1,63.188-.676,4.6,4.6,0,0,1,60.3.156a5.347,5.347,0,0,1-2.187-.449,3.681,3.681,0,0,1-1.566-1.23A3,3,0,0,1,56-3.3h1.508a1.959,1.959,0,0,0,.762,1.629,3.207,3.207,0,0,0,2.035.6,2.948,2.948,0,0,0,1.82-.484,1.573,1.573,0,0,0,.633-1.32,1.545,1.545,0,0,0-.586-1.293A6.755,6.755,0,0,0,60.047-5.07Zm14.891-.25A7.037,7.037,0,0,1,74.375-2.4,4.261,4.261,0,0,1,72.781-.5a4.385,4.385,0,0,1-2.406.656A4.347,4.347,0,0,1,67.992-.5a4.363,4.363,0,0,1-1.613-1.883,6.752,6.752,0,0,1-.59-2.832v-.82a6.953,6.953,0,0,1,.57-2.9,4.347,4.347,0,0,1,1.613-1.926,4.329,4.329,0,0,1,2.387-.668,4.41,4.41,0,0,1,2.41.66,4.253,4.253,0,0,1,1.605,1.914,7.071,7.071,0,0,1,.563,2.918Zm-1.492-.734a5.1,5.1,0,0,0-.812-3.105,2.68,2.68,0,0,0-2.273-1.082A2.651,2.651,0,0,0,68.121-9.16a5,5,0,0,0-.84,3v.836a5.107,5.107,0,0,0,.824,3.082,2.662,2.662,0,0,0,2.27,1.121,2.652,2.652,0,0,0,2.25-1.059,5.079,5.079,0,0,0,.82-3.035Zm7.094.984A7.053,7.053,0,0,1,77.73-6.434a2.6,2.6,0,0,1-.879-2,2.751,2.751,0,0,1,1.074-2.223,4.269,4.269,0,0,1,2.793-.879,4.66,4.66,0,0,1,2.09.453,3.436,3.436,0,0,1,1.422,1.25,3.2,3.2,0,0,1,.5,1.742H83.227a2.08,2.08,0,0,0-.656-1.627,2.669,2.669,0,0,0-1.852-.592,2.732,2.732,0,0,0-1.73.489,1.632,1.632,0,0,0-.621,1.358,1.468,1.468,0,0,0,.59,1.178,5.785,5.785,0,0,0,2.008.88,9.316,9.316,0,0,1,2.219.88A3.367,3.367,0,0,1,84.371-4.4a2.861,2.861,0,0,1,.387,1.508A2.658,2.658,0,0,1,83.68-.676,4.6,4.6,0,0,1,80.8.156a5.347,5.347,0,0,1-2.187-.449,3.681,3.681,0,0,1-1.566-1.23A3,3,0,0,1,76.492-3.3H78a1.959,1.959,0,0,0,.762,1.629,3.207,3.207,0,0,0,2.035.6,2.948,2.948,0,0,0,1.82-.484,1.573,1.573,0,0,0,.633-1.32,1.545,1.545,0,0,0-.586-1.293A6.755,6.755,0,0,0,80.539-5.07Z" transform="translate(1008 5128)" fill="#12263f"/>
  </g>
</svg>
