<svg xmlns="http://www.w3.org/2000/svg" xmlns:xlink="http://www.w3.org/1999/xlink" width="136" height="136" viewBox="0 0 136 136">
  <defs>
    <clipPath id="clip-path">
      <rect id="Rectángulo_57641" data-name="Rectángulo 57641" width="58.713" height="69" fill="#fff"/>
    </clipPath>
  </defs>
  <g id="Grupo_183470" data-name="Grupo 183470" transform="translate(-285 -4864)">
    <circle id="Elipse_5546" data-name="Elipse 5546" cx="68" cy="68" r="68" transform="translate(285 4864)" fill="#00a3be"/>
    <g id="Grupo_183064" data-name="Grupo 183064" transform="translate(322.204 4897)">
      <g id="Grupo_183063" data-name="Grupo 183063" transform="translate(0 0)" clip-path="url(#clip-path)">
        <path id="Trazado_213798" data-name="Trazado 213798" d="M14.127,24.234a1.11,1.11,0,0,1-1.11-1.11V20.012a1.11,1.11,0,0,1,2.22,0v3.112a1.111,1.111,0,0,1-1.11,1.11" transform="translate(4.434 6.438)" fill="#fff"/>
        <path id="Trazado_213799" data-name="Trazado 213799" d="M21.706,24.234a1.111,1.111,0,0,1-1.11-1.11V20.012a1.11,1.11,0,0,1,2.22,0v3.112a1.111,1.111,0,0,1-1.11,1.11" transform="translate(7.015 6.438)" fill="#fff"/>
        <path id="Trazado_213800" data-name="Trazado 213800" d="M31.586,25.705H9.786a1.111,1.111,0,0,1-1.11-1.11v-2.05A8.019,8.019,0,0,1,15.427,14.6a1.11,1.11,0,1,1,.357,2.191A5.809,5.809,0,0,0,10.9,22.545v.94H30.476v-.94a5.809,5.809,0,0,0-4.888-5.758,1.11,1.11,0,0,1,.357-2.191A8.017,8.017,0,0,1,32.7,22.545V24.6a1.11,1.11,0,0,1-1.11,1.11" transform="translate(2.955 4.967)" fill="#fff"/>
        <path id="Trazado_213801" data-name="Trazado 213801" d="M20.56,38.925a.824.824,0,0,1-.114-.007A18.5,18.5,0,1,1,39.371,27.765a1.11,1.11,0,0,1-2.042-.873,16.294,16.294,0,1,0-16.658,9.819,1.11,1.11,0,0,1-.111,2.215" transform="translate(1.303 0.678)" fill="#fff"/>
        <path id="Trazado_213802" data-name="Trazado 213802" d="M35.054,11.423a1.109,1.109,0,0,1-.973-.574A21.4,21.4,0,0,0,25.037,2.1,1.11,1.11,0,0,1,26.046.122a23.62,23.62,0,0,1,9.978,9.654,1.11,1.11,0,0,1-.434,1.508,1.1,1.1,0,0,1-.536.139" transform="translate(8.322 0)" fill="#fff"/>
        <path id="Trazado_213803" data-name="Trazado 213803" d="M3.4,30.268a1.11,1.11,0,0,1-1-.621,23.67,23.67,0,0,1,1.5-23.425A1.11,1.11,0,1,1,5.758,7.446,21.458,21.458,0,0,0,4.4,28.668a1.11,1.11,0,0,1-.508,1.485,1.1,1.1,0,0,1-.488.114" transform="translate(0 1.95)" fill="#fff"/>
        <path id="Trazado_213804" data-name="Trazado 213804" d="M19.209,18.112A6.193,6.193,0,1,1,25.4,11.918a6.2,6.2,0,0,1-6.194,6.194m0-10.166a3.973,3.973,0,1,0,3.972,3.972,3.978,3.978,0,0,0-3.972-3.972" transform="translate(4.433 1.95)" fill="#fff"/>
        <path id="Trazado_213805" data-name="Trazado 213805" d="M26.479,46.094a1.111,1.111,0,0,1-1.11-1.11V41.872a1.11,1.11,0,0,1,2.22,0v3.112a1.111,1.111,0,0,1-1.11,1.11" transform="translate(8.641 13.884)" fill="#fff"/>
        <path id="Trazado_213806" data-name="Trazado 213806" d="M34.058,46.094a1.111,1.111,0,0,1-1.11-1.11V41.872a1.11,1.11,0,1,1,2.22,0v3.112a1.11,1.11,0,0,1-1.11,1.11" transform="translate(11.223 13.884)" fill="#fff"/>
        <path id="Trazado_213807" data-name="Trazado 213807" d="M43.938,47.565h-21.8a1.111,1.111,0,0,1-1.111-1.11v-2.05a8.017,8.017,0,0,1,6.751-7.948,1.11,1.11,0,0,1,.357,2.191,5.809,5.809,0,0,0-4.887,5.758v.94H42.828v-.94a5.809,5.809,0,0,0-4.888-5.758,1.11,1.11,0,0,1,.357-2.191,8.017,8.017,0,0,1,6.751,7.948v2.05a1.11,1.11,0,0,1-1.11,1.11" transform="translate(7.162 12.412)" fill="#fff"/>
        <path id="Trazado_213808" data-name="Trazado 213808" d="M34.691,60.876A18.513,18.513,0,1,1,53.2,42.364,18.534,18.534,0,0,1,34.691,60.876m0-34.8A16.292,16.292,0,1,0,50.983,42.364,16.311,16.311,0,0,0,34.691,26.071" transform="translate(5.51 8.124)" fill="#fff"/>
        <path id="Trazado_213809" data-name="Trazado 213809" d="M13.279,44.153a1.111,1.111,0,0,1-1.1-.964,24.5,24.5,0,0,1-.214-3.228,24.094,24.094,0,0,1,1.475-8.329,1.11,1.11,0,0,1,2.085.765,21.874,21.874,0,0,0-1.338,7.564,22.388,22.388,0,0,0,.194,2.936,1.111,1.111,0,0,1-.955,1.247,1.382,1.382,0,0,1-.147.009" transform="translate(4.075 10.526)" fill="#fff"/>
        <path id="Trazado_213810" data-name="Trazado 213810" d="M41.745,25.443a1.107,1.107,0,0,1-.6-.177,21.729,21.729,0,0,0-8.117-3.172,1.109,1.109,0,1,1,.378-2.187A23.922,23.922,0,0,1,42.349,23.4a1.11,1.11,0,0,1-.6,2.043" transform="translate(10.935 6.775)" fill="#fff"/>
        <path id="Trazado_213811" data-name="Trazado 213811" d="M31.561,39.972a6.193,6.193,0,1,1,6.194-6.194,6.2,6.2,0,0,1-6.194,6.194m0-10.166a3.973,3.973,0,1,0,3.974,3.972,3.977,3.977,0,0,0-3.974-3.972" transform="translate(8.64 9.396)" fill="#fff"/>
        <path id="Trazado_213812" data-name="Trazado 213812" d="M16.366,49.678H4.936a1.11,1.11,0,0,1-1.11-1.11V27.012a1.11,1.11,0,0,1,2.22,0V47.458h10.32a1.11,1.11,0,0,1,0,2.22" transform="translate(1.303 8.823)" fill="#fff"/>
        <path id="Trazado_213813" data-name="Trazado 213813" d="M46.154,33.564a1.111,1.111,0,0,1-1.11-1.11V12.009H34.724a1.111,1.111,0,0,1,0-2.221h11.43a1.111,1.111,0,0,1,1.11,1.11V32.454a1.111,1.111,0,0,1-1.11,1.11" transform="translate(11.449 3.334)" fill="#fff"/>
      </g>
    </g>
  </g>
</svg>
