<svg id="Grupo_181917" data-name="Grupo 181917" xmlns="http://www.w3.org/2000/svg" xmlns:xlink="http://www.w3.org/1999/xlink" width="104" height="114.283" viewBox="0 0 104 114.283">
  <defs>
    <clipPath id="clip-path">
      <rect id="Rectángulo_57015" data-name="Rectángulo 57015" width="104" height="114.283" fill="#12263f"/>
    </clipPath>
  </defs>
  <g id="Grupo_181916" data-name="Grupo 181916" transform="translate(0 0)" clip-path="url(#clip-path)">
    <path id="Trazado_211020" data-name="Trazado 211020" d="M40.235,55.93A7.408,7.408,0,0,1,33.7,52.005L23.306,32.493a7.4,7.4,0,0,1,3.052-10L45.479,12.309a7.407,7.407,0,0,1,10,3.052l10.39,19.512a7.4,7.4,0,0,1-3.052,10.005L43.7,55.059a7.368,7.368,0,0,1-3.465.87m8.714-40.612a3.5,3.5,0,0,0-1.649.413L28.18,25.912a3.518,3.518,0,0,0-1.454,4.761l10.39,19.51a3.515,3.515,0,0,0,4.761,1.454L61,41.456A3.521,3.521,0,0,0,62.451,36.7L52.062,17.183a3.521,3.521,0,0,0-3.114-1.865" transform="translate(25.549 13.032)" fill="#12263f"/>
    <path id="Trazado_211021" data-name="Trazado 211021" d="M25.838,40.562a1.908,1.908,0,0,1-.567-.086,1.939,1.939,0,0,1-1.144-.941l-4.641-8.718a1.939,1.939,0,0,1,.8-2.622L30.6,22.7a1.936,1.936,0,0,1,2.62.8L37.86,32.22a1.94,1.94,0,0,1-.8,2.622L26.749,40.335a1.949,1.949,0,0,1-.911.227m-2.021-9.856L26.635,36l6.9-3.67-2.821-5.3Z" transform="translate(21.931 25.596)" fill="#12263f"/>
    <path id="Trazado_211022" data-name="Trazado 211022" d="M9.316,61.84a4.139,4.139,0,0,1-3.655-2.188L.485,49.931a4.142,4.142,0,0,1,1.7-5.6L38.975,24.751a4.137,4.137,0,0,1,5.593,1.707l5.176,9.721a4.142,4.142,0,0,1-1.707,5.6L11.254,61.357a4.1,4.1,0,0,1-1.938.483M40.9,28.149c-.1.021-36.884,19.607-36.884,19.607a.294.294,0,0,0-.109.351L9.081,57.83a.259.259,0,0,0,.351.107L46.215,38.352A.291.291,0,0,0,46.324,38L41.148,28.28a.292.292,0,0,0-.25-.13" transform="translate(0.001 27.631)" fill="#12263f"/>
    <path id="Trazado_211023" data-name="Trazado 211023" d="M36.845,47.218a1.907,1.907,0,0,1-.567-.086,1.935,1.935,0,0,1-1.144-.943l-4.01-7.531a1.937,1.937,0,0,1,.8-2.62L51.679,25.517a1.923,1.923,0,0,1,1.478-.141,1.943,1.943,0,0,1,1.144.943l4.01,7.533a1.937,1.937,0,0,1-.8,2.62L37.756,46.991a1.955,1.955,0,0,1-.911.227m-1.39-8.671,2.188,4.113,16.338-8.7-2.188-4.113Z" transform="translate(35.184 28.8)" fill="#12263f"/>
    <path id="Trazado_211024" data-name="Trazado 211024" d="M38.8,56.413a4.12,4.12,0,0,1-3.638-2.179l-3.66-6.87a4.123,4.123,0,0,1,1.7-5.565L58.122,28.533a4.111,4.111,0,0,1,5.563,1.7l3.657,6.87a4.116,4.116,0,0,1-1.7,5.563L40.729,55.931a4.082,4.082,0,0,1-1.925.481M60.037,31.934c-.092.021-25.011,13.286-25.011,13.286a.238.238,0,0,0-.1.323l3.657,6.868a.258.258,0,0,0,.321.1L63.824,39.244a.237.237,0,0,0,.1-.321l-3.66-6.87a.262.262,0,0,0-.227-.12" transform="translate(35.333 31.944)" fill="#12263f"/>
    <path id="Trazado_211025" data-name="Trazado 211025" d="M41.373,55.539A5.411,5.411,0,0,1,36.6,52.675l-1.966-3.692a1.941,1.941,0,0,1,.8-2.622L59.592,33.5a1.937,1.937,0,0,1,2.622.8l1.966,3.692a5.406,5.406,0,0,1-2.229,7.3L43.906,54.9a5.358,5.358,0,0,1-2.532.635m-2.406-6.667,1.054,1.981a1.521,1.521,0,0,0,2.062.631l18.045-9.608a1.526,1.526,0,0,0,.631-2.062L59.7,37.832Z" transform="translate(39.185 37.891)" fill="#12263f"/>
    <path id="Trazado_211026" data-name="Trazado 211026" d="M27.713,30.066A1.936,1.936,0,0,1,26,29.039l-4.01-7.531a1.941,1.941,0,0,1,.8-2.62L42.548,8.369a1.938,1.938,0,0,1,2.622.8l4.01,7.531a1.942,1.942,0,0,1-.8,2.622L28.625,29.839a1.942,1.942,0,0,1-.911.227M26.323,21.4l2.188,4.111,16.338-8.7L42.662,12.7Z" transform="translate(24.788 9.272)" fill="#12263f"/>
    <path id="Trazado_211027" data-name="Trazado 211027" d="M25.132,30.736a4.249,4.249,0,0,1-1.206-.18,4.092,4.092,0,0,1-2.43-2l-3.657-6.87a4.11,4.11,0,0,1,1.7-5.561L44.452,2.854a4.119,4.119,0,0,1,5.563,1.7l3.66,6.872a4.121,4.121,0,0,1-1.7,5.563L27.059,30.251a4.1,4.1,0,0,1-1.927.486M46.385,6.247a.232.232,0,0,0-.111.028L21.357,19.541a.235.235,0,0,0-.1.319l3.66,6.872a.26.26,0,0,0,.319.1L50.156,13.566a.238.238,0,0,0,.094-.325L46.595,6.373a.239.239,0,0,0-.21-.126" transform="translate(19.762 2.702)" fill="#12263f"/>
    <path id="Trazado_211028" data-name="Trazado 211028" d="M21.272,22.267a1.936,1.936,0,0,1-1.711-1.027l-1.968-3.692a5.41,5.41,0,0,1,2.231-7.3L37.869.637a5.4,5.4,0,0,1,7.3,2.229l1.968,3.692a1.944,1.944,0,0,1-.8,2.622L22.183,22.04a1.942,1.942,0,0,1-.911.227M40.405,3.877a1.513,1.513,0,0,0-.714.18L21.646,13.664a1.528,1.528,0,0,0-.631,2.064l1.054,1.981L42.807,6.668,41.753,4.688a1.512,1.512,0,0,0-.9-.744,1.6,1.6,0,0,0-.447-.066" transform="translate(19.317 0.001)" fill="#12263f"/>
    <path id="Trazado_211029" data-name="Trazado 211029" d="M27.189,41.719a1.961,1.961,0,0,1-.631-.1c-6.444-2.222-10.735-12.074-11.2-13.19a1.936,1.936,0,1,1,3.57-1.5c1.091,2.59,4.812,9.618,8.891,11.026a1.937,1.937,0,0,1-.629,3.769" transform="translate(17.316 29.31)" fill="#12263f"/>
    <path id="Trazado_211030" data-name="Trazado 211030" d="M24.073,43.377a1.917,1.917,0,0,1-.631-.107C17,41.052,12.707,31.2,12.239,30.084a1.937,1.937,0,1,1,3.572-1.5c1.091,2.59,4.812,9.62,8.893,11.026a1.937,1.937,0,0,1-.631,3.769" transform="translate(13.765 31.2)" fill="#12263f"/>
    <path id="Trazado_211031" data-name="Trazado 211031" d="M20.956,45.037a1.971,1.971,0,0,1-.631-.1C13.879,42.71,9.59,32.859,9.122,31.744a1.937,1.937,0,0,1,3.572-1.5c1.091,2.59,4.812,9.618,8.893,11.026a1.937,1.937,0,0,1-.631,3.769" transform="translate(10.215 33.09)" fill="#12263f"/>
    <path id="Trazado_211032" data-name="Trazado 211032" d="M17.84,46.7a1.9,1.9,0,0,1-.631-.107C10.763,44.371,6.474,34.518,6.006,33.4a1.937,1.937,0,1,1,3.572-1.5c1.089,2.59,4.81,9.618,8.891,11.026A1.937,1.937,0,0,1,17.84,46.7" transform="translate(6.667 34.979)" fill="#12263f"/>
    <path id="Trazado_211033" data-name="Trazado 211033" d="M14.722,48.356a1.971,1.971,0,0,1-.631-.1C7.647,46.029,3.356,36.178,2.89,35.063a1.937,1.937,0,1,1,3.572-1.5c1.089,2.59,4.812,9.618,8.891,11.026a1.937,1.937,0,0,1-.631,3.769" transform="translate(3.118 36.87)" fill="#12263f"/>
    <path id="Trazado_211034" data-name="Trazado 211034" d="M47.68,29.04a1.95,1.95,0,0,1-.567-.086L29.032,23.436a1.938,1.938,0,0,1,1.131-3.707l18.084,5.52a1.937,1.937,0,0,1-.567,3.79" transform="translate(31.499 22.373)" fill="#12263f"/>
    <path id="Trazado_211035" data-name="Trazado 211035" d="M69.448,59.44h-43A1.937,1.937,0,0,1,24.507,57.5V50.1a1.937,1.937,0,0,1,1.938-1.938h43A1.939,1.939,0,0,1,71.386,50.1V57.5a1.939,1.939,0,0,1-1.938,1.938M28.383,55.565H67.51V52.034H28.383Z" transform="translate(27.909 54.843)" fill="#12263f"/>
    <path id="Trazado_211036" data-name="Trazado 211036" d="M62.617,55.465H28.529a1.937,1.937,0,0,1-1.938-1.938,8.39,8.39,0,0,1,8.38-8.382h21.2a8.39,8.39,0,0,1,8.38,8.382,1.937,1.937,0,0,1-1.938,1.938M30.9,51.589h29.34a4.511,4.511,0,0,0-4.068-2.569h-21.2A4.511,4.511,0,0,0,30.9,51.589" transform="translate(30.282 51.412)" fill="#12263f"/>
    <path id="Trazado_211037" data-name="Trazado 211037" d="M20.373,55.5h-3.1a1.938,1.938,0,0,1,0-3.876h3.1a1.938,1.938,0,0,1,0,3.876" transform="translate(17.465 58.787)" fill="#12263f"/>
    <path id="Trazado_211038" data-name="Trazado 211038" d="M14.881,55.5H8.942a1.938,1.938,0,0,1,0-3.876h5.939a1.938,1.938,0,0,1,0,3.876" transform="translate(7.976 58.787)" fill="#12263f"/>
    <path id="Trazado_211039" data-name="Trazado 211039" d="M5.037,55.5h-3.1a1.938,1.938,0,0,1,0-3.876h3.1a1.938,1.938,0,0,1,0,3.876" transform="translate(0 58.787)" fill="#12263f"/>
    <path id="Trazado_211040" data-name="Trazado 211040" d="M82.947,55.5H18.723a1.938,1.938,0,0,1,0-3.876H82.947a1.938,1.938,0,0,1,0,3.876" transform="translate(19.115 58.787)" fill="#12263f"/>
  </g>
</svg>
