<svg id="Grupo_181919" data-name="Grupo 181919" xmlns="http://www.w3.org/2000/svg" xmlns:xlink="http://www.w3.org/1999/xlink" width="136.19" height="116.673" viewBox="0 0 136.19 116.673">
  <defs>
    <clipPath id="clip-path">
      <rect id="Rectángulo_57016" data-name="Rectángulo 57016" width="136.19" height="116.673" fill="#12263f"/>
    </clipPath>
  </defs>
  <g id="Grupo_181918" data-name="Grupo 181918" transform="translate(0 0)" clip-path="url(#clip-path)">
    <path id="Trazado_211041" data-name="Trazado 211041" d="M22.484,37.092a2.058,2.058,0,0,1-2.112-2V24.2a2.115,2.115,0,0,1,4.224,0V35.1a2.056,2.056,0,0,1-2.112,2" transform="translate(31.588 31.342)" fill="#12263f"/>
    <path id="Trazado_211042" data-name="Trazado 211042" d="M26.046,46.091a2.058,2.058,0,0,1-2.112-2V24.2a2.115,2.115,0,0,1,4.224,0V44.095a2.056,2.056,0,0,1-2.112,2" transform="translate(37.111 31.342)" fill="#12263f"/>
    <path id="Trazado_211043" data-name="Trazado 211043" d="M29.608,46.032a2.058,2.058,0,0,1-2.112-2V24.248a2.115,2.115,0,0,1,4.224,0V44.036a2.056,2.056,0,0,1-2.112,2" transform="translate(42.635 31.401)" fill="#12263f"/>
    <path id="Trazado_211044" data-name="Trazado 211044" d="M33.171,36.678a2.058,2.058,0,0,1-2.112-2V18.012a2.115,2.115,0,0,1,4.224,0v16.67a2.056,2.056,0,0,1-2.112,2" transform="translate(48.159 22.603)" fill="#12263f"/>
    <path id="Trazado_211045" data-name="Trazado 211045" d="M41.629,85.815a7.029,7.029,0,0,1-1.186-.1,6.51,6.51,0,0,1-5.185-4.533,7.088,7.088,0,0,1-3.9.444,6.5,6.5,0,0,1-5.463-6.421V72.292a7.075,7.075,0,0,1-3.622.335,6.5,6.5,0,0,1-5.463-6.421V38.36A21.759,21.759,0,0,1,17.9,31.579l.865-2.631A38.761,38.761,0,0,0,20.7,16.831V13.32a7.046,7.046,0,0,1-3.78-6.168A7.375,7.375,0,0,1,24.489,0h29.1a7.375,7.375,0,0,1,7.565,7.152,7.049,7.049,0,0,1-3.777,6.168v5.117a10.112,10.112,0,0,0,2.961,7.118l4.428,4.495A14.655,14.655,0,0,1,69.06,40.364V57a7.89,7.89,0,0,1-7.249,7.777,8.339,8.339,0,0,1-4.433-.851V75.205a6.5,6.5,0,0,1-5.461,6.421,7.111,7.111,0,0,1-3.864-.427,6.279,6.279,0,0,1-2.14,3.147,6.9,6.9,0,0,1-4.285,1.469M39.206,75.434v3.861a2.482,2.482,0,0,0,1.969,2.489,2.536,2.536,0,0,0,2.023-.5,2.245,2.245,0,0,0,.87-1.763v-4.09a2.115,2.115,0,0,1,4.224,0,2.253,2.253,0,0,0,.87,1.763,2.545,2.545,0,0,0,2.023.5,2.484,2.484,0,0,0,1.969-2.489V57.284a2.116,2.116,0,0,1,4.226,0,3.408,3.408,0,0,0,1.209,2.6,3.832,3.832,0,0,0,2.859.911A3.778,3.778,0,0,0,64.834,57V40.364a10.781,10.781,0,0,0-3.16-7.591l-4.425-4.5a13.968,13.968,0,0,1-4.1-9.838v-6.4a2.015,2.015,0,0,1,1.461-1.9,3.164,3.164,0,0,0,2.318-2.98,3.259,3.259,0,0,0-3.341-3.159h-29.1A3.256,3.256,0,0,0,21.15,7.152a3.161,3.161,0,0,0,2.316,2.98,2.011,2.011,0,0,1,1.461,1.9v4.8a42.573,42.573,0,0,1-2.132,13.3l-.865,2.631a17.946,17.946,0,0,0-.9,5.6V66.206A2.482,2.482,0,0,0,23,68.694a2.544,2.544,0,0,0,2.02-.5,2.245,2.245,0,0,0,.87-1.763,2.117,2.117,0,0,1,4.226,0v8.77a2.482,2.482,0,0,0,1.969,2.489,2.524,2.524,0,0,0,2.023-.5,2.253,2.253,0,0,0,.87-1.763,2.115,2.115,0,0,1,4.224,0" transform="translate(26.064 0)" fill="#12263f"/>
    <path id="Trazado_211046" data-name="Trazado 211046" d="M35.639,8.156H20.45a2.058,2.058,0,0,1-2.114-2,2.057,2.057,0,0,1,2.114-2H35.639a2.054,2.054,0,0,1,2.112,2,2.056,2.056,0,0,1-2.112,2" transform="translate(28.431 5.875)" fill="#12263f"/>
    <path id="Trazado_211047" data-name="Trazado 211047" d="M36.9,8.156H30.766a2.056,2.056,0,0,1-2.112-2,2.054,2.054,0,0,1,2.112-2H36.9a2.054,2.054,0,0,1,2.112,2,2.056,2.056,0,0,1-2.112,2" transform="translate(44.43 5.875)" fill="#12263f"/>
    <path id="Trazado_211048" data-name="Trazado 211048" d="M34.926,40.654a2.171,2.171,0,0,1-1.495-.586l-2.558-2.421a1.918,1.918,0,0,1,0-2.824,2.2,2.2,0,0,1,2.987,0l2.558,2.421a1.918,1.918,0,0,1,0,2.824,2.16,2.16,0,0,1-1.492.586" transform="translate(46.91 48.323)" fill="#12263f"/>
    <path id="Trazado_211049" data-name="Trazado 211049" d="M67.79,85.272a7.742,7.742,0,0,1-5.349-2.1A6.848,6.848,0,0,1,60.5,76.29l-3.826-3.617a11.337,11.337,0,0,0-7.42-3.055L42.761,69.4A16.412,16.412,0,0,1,32.01,64.976l-5.428-5.131a1.918,1.918,0,0,1,0-2.824,2.2,2.2,0,0,1,2.987,0L35,62.152a12.083,12.083,0,0,0,7.914,3.255l6.491.219a15.654,15.654,0,0,1,10.256,4.22l4.79,4.529a1.916,1.916,0,0,1,.388,2.32,3.015,3.015,0,0,0,.592,3.658,3.563,3.563,0,0,0,4.724,0L90.73,60.9a3.043,3.043,0,0,0,0-4.466,3.465,3.465,0,0,0-3.869-.559,2.195,2.195,0,0,1-2.454-.367l-3.589-3.393a45.074,45.074,0,0,1-8.442-10.832l-1.354-2.438a18.968,18.968,0,0,0-3.553-4.557l-9.126-8.628a1.918,1.918,0,0,1,0-2.824,2.2,2.2,0,0,1,2.987,0l9.126,8.628a22.91,22.91,0,0,1,4.3,5.522l1.357,2.438A41.123,41.123,0,0,0,83.8,49.29l2.627,2.481a7.824,7.824,0,0,1,7.284,1.837,6.876,6.876,0,0,1,0,10.113L73.138,83.176a7.742,7.742,0,0,1-5.349,2.1" transform="translate(40.258 31.401)" fill="#12263f"/>
    <path id="Trazado_211050" data-name="Trazado 211050" d="M46.536,48.776a2.171,2.171,0,0,1-1.495-.586,1.922,1.922,0,0,1,0-2.824l10.74-10.154a2.2,2.2,0,0,1,2.989,0,1.922,1.922,0,0,1,0,2.824L48.031,48.19a2.171,2.171,0,0,1-1.495.586" transform="translate(68.882 48.872)" fill="#12263f"/>
    <path id="Trazado_211051" data-name="Trazado 211051" d="M41.751,50.018a2.171,2.171,0,0,1-1.495-.586,1.922,1.922,0,0,1,0-2.824l4.339-4.1a2.2,2.2,0,0,1,2.987,0,1.921,1.921,0,0,1,0,2.826l-4.336,4.1a2.171,2.171,0,0,1-1.495.586" transform="translate(61.463 59.167)" fill="#12263f"/>
    <path id="Trazado_211052" data-name="Trazado 211052" d="M22.593,39.755a2.169,2.169,0,0,1-1.492-.584,1.92,1.92,0,0,1,0-2.824l.936-.887a2.2,2.2,0,0,1,2.987,0,1.92,1.92,0,0,1,0,2.824l-.936.885a2.171,2.171,0,0,1-1.495.586" transform="translate(31.757 49.221)" fill="#12263f"/>
    <path id="Trazado_211053" data-name="Trazado 211053" d="M28.138,86.66a7.742,7.742,0,0,1-5.349-2.1L2.211,65.109A6.887,6.887,0,0,1,2.211,55,7.818,7.818,0,0,1,9.5,53.159l2.627-2.481a41.075,41.075,0,0,0,7.69-9.867l1.354-2.438a23,23,0,0,1,4.305-5.522l11.633-11a2.2,2.2,0,0,1,2.987,0,1.921,1.921,0,0,1,0,2.826l-11.633,11a19,19,0,0,0-3.553,4.56l-1.354,2.435A45.044,45.044,0,0,1,15.11,53.5l-3.589,3.393a2.2,2.2,0,0,1-2.454.367A3.474,3.474,0,0,0,5.2,57.82a3.043,3.043,0,0,0,0,4.466L25.776,81.74a3.563,3.563,0,0,0,4.724,0,3.015,3.015,0,0,0,.592-3.658,1.916,1.916,0,0,1,.388-2.32l4.79-4.529a15.653,15.653,0,0,1,10.253-4.22l6.494-.219a12.071,12.071,0,0,0,7.912-3.255l1.829-1.729a2.2,2.2,0,0,1,2.989,0,1.923,1.923,0,0,1,0,2.826l-1.826,1.727a16.407,16.407,0,0,1-10.751,4.422l-6.494.219a11.325,11.325,0,0,0-7.417,3.055L35.43,77.677a6.853,6.853,0,0,1-1.941,6.887,7.753,7.753,0,0,1-5.351,2.1" transform="translate(0 30.013)" fill="#12263f"/>
    <path id="Trazado_211054" data-name="Trazado 211054" d="M15.957,48.776a2.171,2.171,0,0,1-1.495-.586L3.722,38.036a1.922,1.922,0,0,1,0-2.824,2.2,2.2,0,0,1,2.987,0L17.451,45.366a1.922,1.922,0,0,1,0,2.824,2.171,2.171,0,0,1-1.495.586" transform="translate(4.813 48.872)" fill="#12263f"/>
    <path id="Trazado_211055" data-name="Trazado 211055" d="M16.849,50.018a2.171,2.171,0,0,1-1.495-.586l-4.336-4.1a1.921,1.921,0,0,1,0-2.826,2.2,2.2,0,0,1,2.987,0l4.339,4.1a1.922,1.922,0,0,1,0,2.824,2.171,2.171,0,0,1-1.495.586" transform="translate(16.124 59.167)" fill="#12263f"/>
    <path id="Trazado_211056" data-name="Trazado 211056" d="M23.456,50.093a2.171,2.171,0,0,1-1.495-.586L6.589,34.974a1.918,1.918,0,0,1,0-2.824,2.2,2.2,0,0,1,2.987,0L24.95,46.683a1.922,1.922,0,0,1,0,2.824,2.171,2.171,0,0,1-1.495.586" transform="translate(9.255 44.55)" fill="#12263f"/>
    <path id="Trazado_211057" data-name="Trazado 211057" d="M40.809,51.65a2.171,2.171,0,0,1-1.495-.586,1.922,1.922,0,0,1,0-2.824l17.38-16.428a2.2,2.2,0,0,1,2.987,0,1.922,1.922,0,0,1,0,2.824L42.3,51.064a2.16,2.16,0,0,1-1.492.586" transform="translate(60.002 44.071)" fill="#12263f"/>
    <path id="Trazado_211058" data-name="Trazado 211058" d="M44.047,12.457H20.3a2.058,2.058,0,0,1-2.112-2,2.058,2.058,0,0,1,2.112-2H44.047a2.056,2.056,0,0,1,2.112,2,2.056,2.056,0,0,1-2.112,2" transform="translate(28.196 11.941)" fill="#12263f"/>
  </g>
</svg>
