<svg xmlns="http://www.w3.org/2000/svg" xmlns:xlink="http://www.w3.org/1999/xlink" width="1094" height="926.34" viewBox="0 0 1094 926.34">
  <defs>
    <clipPath id="clip-path">
      <rect id="Rectángulo_56728" data-name="Rectángulo 56728" width="803.71" height="926.34" fill="none"/>
    </clipPath>
    <clipPath id="clip-path-2">
      <rect id="Rectángulo_56712" data-name="Rectángulo 56712" width="803.711" height="926.341" fill="none"/>
    </clipPath>
    <clipPath id="clip-path-3">
      <rect id="Rectángulo_56710" data-name="Rectángulo 56710" width="177.319" height="177.319" fill="none"/>
    </clipPath>
    <clipPath id="clip-path-4">
      <rect id="Rectángulo_56711" data-name="Rectángulo 56711" width="148.853" height="130.714" fill="none"/>
    </clipPath>
    <clipPath id="clip-path-5">
      <rect id="Rectángulo_56714" data-name="Rectángulo 56714" width="49.007" height="2.91" fill="none"/>
    </clipPath>
    <linearGradient id="linear-gradient" x1="-1.721" y1="50.597" x2="-1.712" y2="50.597" gradientUnits="objectBoundingBox">
      <stop offset="0" stop-color="#ff9f55"/>
      <stop offset="1" stop-color="#ffd255"/>
    </linearGradient>
    <clipPath id="clip-path-7">
      <rect id="Rectángulo_56724" data-name="Rectángulo 56724" width="111.388" height="78.579" rx="10.687" fill="none"/>
    </clipPath>
    <linearGradient id="linear-gradient-2" x1="-0.781" y1="3.095" x2="-0.777" y2="3.095" xlink:href="#linear-gradient"/>
  </defs>
  <g id="Grupo_183085" data-name="Grupo 183085" transform="translate(-285 -3050)">
    <g id="Grupo_181467" data-name="Grupo 181467" transform="translate(285 3050)" clip-path="url(#clip-path)">
      <g id="Grupo_181458" data-name="Grupo 181458" transform="translate(0 -0.001)">
        <g id="Grupo_181457" data-name="Grupo 181457" clip-path="url(#clip-path-2)">
          <path id="Trazado_210179" data-name="Trazado 210179" d="M753.752,416.729,37.876,3.418A25.251,25.251,0,0,0,0,25.286V851.908a25.251,25.251,0,0,0,37.876,21.868L753.752,460.465a25.251,25.251,0,0,0,0-43.736" transform="translate(0 0.003)" fill="#f37f4c"/>
          <path id="Trazado_210180" data-name="Trazado 210180" d="M114.382,602.254A82.293,82.293,0,0,0,126.1,622.018l-6.966,14.608,14.064,10.549,14.064,10.55,12.074-10.775a82.293,82.293,0,0,0,22.253,5.713l5.4,15.243,17.4-2.485,17.4-2.485.918-16.144a82.283,82.283,0,0,0,19.764-11.714l14.608,6.966,10.549-14.064,10.549-14.064-10.776-12.074a82.3,82.3,0,0,0,5.714-22.253l15.242-5.4-2.485-17.4-2.485-17.4-16.144-.918A82.308,82.308,0,0,0,255.534,518.7l6.966-14.607-14.064-10.55-14.064-10.549L222.3,493.768a82.279,82.279,0,0,0-22.252-5.714l-5.4-15.243-17.4,2.486-17.4,2.485-.918,16.144a82.3,82.3,0,0,0-19.764,11.714l-14.608-6.966L114,512.737,103.449,526.8l10.776,12.075a82.3,82.3,0,0,0-5.714,22.253l-15.242,5.4,2.485,17.4,2.485,17.4Zm67.725-92.881a61.6,61.6,0,1,1-52.278,69.694,61.6,61.6,0,0,1,52.278-69.694" transform="translate(-54.127 -274.388)" fill="#fff"/>
          <path id="Trazado_210181" data-name="Trazado 210181" d="M122.29,291.508a37.728,37.728,0,0,0,5.37,9.061l-3.193,6.7,6.447,4.837,6.448,4.837L142.9,312a37.75,37.75,0,0,0,10.2,2.62l2.475,6.987,7.979-1.139,7.979-1.14.421-7.4a37.764,37.764,0,0,0,9.061-5.37l6.7,3.193,4.837-6.448,4.836-6.448-4.94-5.535a37.74,37.74,0,0,0,2.62-10.2l6.987-2.476-1.139-7.979-1.139-7.979-7.4-.421A37.71,37.71,0,0,0,187,253.2l3.193-6.7-6.447-4.837-6.448-4.836-5.535,4.94a37.723,37.723,0,0,0-10.2-2.619l-2.475-6.988-7.979,1.139-7.979,1.139-.421,7.4a37.738,37.738,0,0,0-9.061,5.37l-6.7-3.194-4.837,6.448-4.836,6.448,4.94,5.535a37.725,37.725,0,0,0-2.62,10.2l-6.987,2.475,1.139,7.979,1.139,7.979Zm31.048-42.581a28.242,28.242,0,1,1-23.967,31.951,28.242,28.242,0,0,1,23.967-31.951" transform="translate(-65.352 -134.733)" fill="#fff"/>
          <path id="Trazado_210182" data-name="Trazado 210182" d="M1428.164,846.126s43.061-13.992,46.56-12.43,3.971,4.029-.01,5.511-41.29,14.769-41.29,14.769,53.209-7.669,56.371-7.063c1.852.355,3.039,5.062.968,6.059s-54.537,11.756-54.537,11.756,49.688-7.066,52.153-5.721c2.156,1.177,2.2,5.836-1.459,6.625s-49.551,10.077-49.551,10.077,36.365-2.762,37.754-.3c.849,1.507,2.058,5.516-7.333,5.92s-31.56,3.806-31.56,3.806Z" transform="translate(-828.816 -483.752)" fill="#eea886"/>
          <path id="Trazado_210183" data-name="Trazado 210183" d="M1315.1,852.254s13.934-5.539,14.933-14.332c.85-7.477,7.056-16.748,8.961-19.606,2.549-3.822,6.353-18.42,10.818-15.308s-5.183,24.328-6.38,29.161,17.822-5.467,22.58-4.536,17.714,34.286,3.954,39.8-31.5,2.01-33.755,3.478-9.88,4.422-9.88,4.422Z" transform="translate(-763.203 -465.763)" fill="#eea886"/>
          <path id="Trazado_210184" data-name="Trazado 210184" d="M474.447,1021.351c.312,4.03.648,7.867.96,11.3h-199.4c.072-3.359.168-7.172.24-11.3.671-33.245,1.655-87.742,1.223-108.323-.552-29.383-6.74-105.731-7.964-110.144,0,0-43.751-63.564-89.637,61.908-9.475,25.858,77.38,90.644,66.586,92.635-10.77,1.967-10.338,22.475-10.338,22.475S154.326,908.663,156,887.675c.935-11.657,64.979-181.048,74.766-188.052,6.668-4.8,48.548-21.588,70.255-29.815,10.051-3.838,17.7-6.5,19.285-6.6,4.965-.312,66.226,5.565,66.226,5.565s8.779,3,17.774,7.124c15.327,7.028,39.218,18.038,56.344,26.193,5.54,2.639,12.473,6.189,18.229,9.235q-1.044,31.23-3.694,67.017s-3.19,52.122-3.478,104.772c-2.758,11.921-2.279,39.625-2.279,39.625-.767,26.265,2.159,53.226,2.927,68.289.48,9.426,1.271,20.46,2.087,30.319" transform="translate(-90.52 -384.878)" fill="#dbd8e3"/>
          <path id="Trazado_210185" data-name="Trazado 210185" d="M815.554,1034.237c-2.878-18.637-5.613-38.042-7.867-56.608v-.144q-.54-4.534-1.08-8.995a2.952,2.952,0,0,0-.048-.456c-1.439-12.569-2.615-24.586-3.478-35.6a111.724,111.724,0,0,1,1.1-24.753c3.406-56.3,5.109-115.663,5.109-115.663,1.8-24.322,2.83-47.013,3.526-68.192,0,0-76.924-36.34-83.9-38.427,0,0,14.583,34.253,25.521,110.841,4.221,29.407,12.017,78.915,17.678,129.454,2.231,19.932,5.9,40.105,9.4,59.1,3.31,17.918,6.476,34.8,8.179,49.436.12.887.216,1.775.312,2.662.264,2.518.576,5.421.935,8.635h26.385c-.6-3.718-1.2-7.508-1.775-11.3" transform="translate(-423.016 -397.764)" fill="#323657"/>
          <path id="Trazado_210186" data-name="Trazado 210186" d="M284.02,936.479c-3.5,33.964-7.34,61.453-10.435,89.565-.408,3.741-.815,7.507-1.2,11.3H191.481q1.583-5.613,3.07-11.3c8.683-32.742,15.615-66.154,15.615-86.423,0,0-16.838-121.083-22.475-140.583,0,0-50.922,37.658-62.819,63.731-10.65,23.314,67.377,94.53,66.466,96.929-5.3,14.032-25.618,39.673-25.618,39.673S44.9,869.606,46.508,853.607c1.151-11.633,102.445-140.968,112.208-147.972,5.661-4.054,47.493-18.877,68.025-26.984,3.766-1.487,16-6.093,19.357-7.364,4.342,4.845,34.948,37.778,45.55,162.939,1.8,21.107-3.838,65.77-7.627,102.253" transform="translate(-26.981 -389.571)" fill="#323657"/>
          <path id="Trazado_210187" data-name="Trazado 210187" d="M549.171,588.085s-.421-21.031-8.526-63.578c-2.168-11.389,66.121,29.968,66.121,29.968s-.21,3.989-.348,9.377c-.073,2.846-.119,6.075-.1,9.313.009,1.144.018,2.278.046,3.4.064,3.01.2,5.892.457,8.342a39.157,39.157,0,0,0,2.278,8.206c2.817,6.5-36.93,11.426-59.928-5.031" transform="translate(-313.727 -303.238)" fill="#eea987"/>
          <path id="Trazado_210188" data-name="Trazado 210188" d="M652.794,731.256l11.32,15.209s-6.632,8.881-18.41,2.325Z" transform="translate(-374.726 -424.373)" fill="#d44040"/>
          <path id="Trazado_210189" data-name="Trazado 210189" d="M669.417,768.407S712.349,933.7,703.5,1062.367l-14.444,25.456-13.521-26.667S671.832,831.008,660.06,768Z" transform="translate(-383.057 -445.698)" fill="#d44040"/>
          <path id="Trazado_210190" data-name="Trazado 210190" d="M639.2,691.478l-12.121,14.18s-19.452-3.769-25.163-13.929,37.284-.251,37.284-.251" transform="translate(-349.01 -398.775)" fill="#eea987"/>
          <path id="Trazado_210191" data-name="Trazado 210191" d="M677.5,667.9s-1.408,10.809-14.9,26.589l14.728,19.787,7.971-41.047Z" transform="translate(-384.53 -387.604)" fill="#c4c1cc"/>
          <path id="Trazado_210192" data-name="Trazado 210192" d="M542.9,643.393s24.076,29.1,43.744,36.873L577.5,702.89l-45.775-49.214Z" transform="translate(-308.579 -373.383)" fill="#c4c1cc"/>
          <path id="Trazado_210193" data-name="Trazado 210193" d="M1067.125,854S963.365,966.73,938.879,960.706c-11.319-2.784-28.465-22.324-42.633-40.695-4.67-6.05-9.251-12.4-13.609-18.683a.041.041,0,0,1-.013-.026c-17.382-25.1-31-49.152-31-49.152s-51.378-60.212-10.149-87.052c0,0,17.375-1.753,27.259,5.537,9.125,6.731,31.327,49.119,34.931,56.977S935.3,890.859,937.919,892.5s30.151-14.889,44.87-24.8c23.785-16.009,53.668-43.91,53.668-43.91Z" transform="translate(-479.041 -443.905)" fill="#323657"/>
          <path id="Trazado_210194" data-name="Trazado 210194" d="M634.143,302.2s15,27.815,7.567,32.14c-6.144,3.574,7.2,30.87,8.944,35.33s-11.13,7.7-13.863,10.57-10.842,38.189-21.445,39.254-58.382-15.551-71.392-29.078-23.684-74.626-15-100.4,78.711-36.405,105.19,12.183" transform="translate(-305.143 -155.654)" fill="#eea886"/>
          <path id="Trazado_210195" data-name="Trazado 210195" d="M619.566,281.722s15.315-30.039-12.5-52.322-79.111,16.826-84.892,18.317-38.582,3.744-22.02,61.337c14.222,49.454,16.208,51.535,16.208,51.535s10.614-28.65,16.628-33.016c9.393-6.82,29.988-5.182,29.988-5.182s-9.813-26.054,5.522-29.742,35.552-16.687,51.068-10.927" transform="translate(-287.572 -129.154)" fill="#16202e"/>
          <path id="Trazado_210196" data-name="Trazado 210196" d="M585.284,407.329c-1.353-3.573-5.725-18.932-18.9-9.913s8.211,37.967,10.509,38.34,19.778,1.644,8.4-28.428" transform="translate(-326.218 -229.01)" fill="#eea886"/>
          <path id="Trazado_210197" data-name="Trazado 210197" d="M632.79,602.486c.009,1.144.018,2.278.046,3.4-39.062-13.109-46.627-32.841-46.627-32.841,12.185,8.618,46.682,20.125,46.682,20.125-.073,2.845-.119,6.074-.1,9.313" transform="translate(-340.198 -332.559)" fill="#a77860"/>
          <path id="Trazado_210198" data-name="Trazado 210198" d="M333.017,1356.882s3.7,3.1,7.613,3.065c6.763-.057,14.462-7.408,21.53-.731s-7.812,35.073-13.172,38.4-17.542-2.652-30.578-18.408,14.607-22.326,14.607-22.326" transform="translate(-182.757 -787.176)" fill="#eea886"/>
          <path id="Trazado_210199" data-name="Trazado 210199" d="M384.707,1358.559a280.545,280.545,0,0,1,28.257,11.813c12.789,6.24,27.8,15.771,26.265,19.009-2.324,4.918-13.732-4.3-26.829-9.632-12.058-4.9-10.508-1.893-10.508-1.893s-.394-.883,11.7,7.047c13,8.526,26.616,18.228,25.413,20.9-1.491,3.317-1.957,3.6-7.185,1.291,2.718,1.983,2.559,3.018,1.837,4.244-3.735,6.344-24.8-3.169-33.166-6.949,6.408,2.944,10.793,5.8,6,8.2-5.484,2.751-34.658-12.06-45.619-16.349-11.957-4.678,23.835-37.688,23.835-37.688" transform="translate(-208.009 -788.42)" fill="#eea886"/>
          <path id="Trazado_210200" data-name="Trazado 210200" d="M271.658,1286.842s-2.973,17.406-25.614,39.666c0,0-51.9-57.249-61.153-67.968l40.606-23.56Z" transform="translate(-107.299 -716.703)" fill="#323657"/>
          <rect id="Rectángulo_56694" data-name="Rectángulo 56694" width="714" height="11.297" transform="translate(47.528 636.473)" fill="#fff"/>
          <path id="Trazado_210207" data-name="Trazado 210207" d="M1348.178,1552.456c2.158,9.359,1.785,31.1,1.785,31.1.588,20.621-1.714,41.8-2.3,53.623-.016.365-.04.73-.055,1.1-.151,2.792-.333,5.75-.54,8.749h154.265c-.055-2.84-.111-5.767-.158-8.749-.309-17.457-.587-36.58-.611-50.23,35.255-9.311,73.325-21.462,72.612-30.345-.73-9.144-28.2-143.788-35.874-149.283-5.235-3.76-38.11-16.934-55.163-23.406-7.884-3.006-13.9-5.1-15.125-5.172-3.9-.246-51.99,4.362-51.99,4.362s-6.9,2.363-13.943,5.6c-12.032,5.52-30.781,14.149-44.241,20.558-4.345,2.062-9.779,4.862-14.3,7.257q.822,24.509,2.9,52.593s2.5,40.918,2.736,82.24m152.846,15.577c1.9-25.634,9.628-69.669,10.484-72.786.024,0,3.625,3.434,3.649,3.434,0-.016,1.19.167,1.205.151a9.1,9.1,0,0,1,1.094.413s23.343,32.605,23.6,50.134c.127,8.36-18.108,14.348-40.029,18.654" transform="translate(-779.124 -800.768)" fill="#dbd8e3"/>
          <path id="Trazado_210208" data-name="Trazado 210208" d="M1339.687,1657.134H1359.9c.46-2.847.96-5.767,1.483-8.749,3.427-19.3,7.932-41.1,10.335-62.507v-.008c4.441-39.665,10.557-78.529,13.856-101.617,8.59-60.112,20.043-87.007,20.043-87.007-5.473,1.634-65.854,30.171-65.854,30.171.539,16.616,1.348,34.446,2.76,53.521,0,0,1.332,46.6,4.013,90.806a88.293,88.293,0,0,1,.865,19.424c-.674,8.646-1.61,18.084-2.736,27.926-.016.135-.024.262-.04.373-.269,2.34-.555,4.688-.832,7.067,0,.04-.016.064-.016.1-.864,7.146-1.824,14.443-2.839,21.748q-.606,4.379-1.245,8.749" transform="translate(-777.469 -810.872)" fill="#323657"/>
          <path id="Trazado_210209" data-name="Trazado 210209" d="M1477.376,1583.99c4.592,10.834,20.416,37.587,20.416,37.587s11.453-2.808,28.3-7.17c1.11,9.558,2.229,18.552,3.3,27.332.357,2.934.715,5.845,1.055,8.748h60.1q-1.071-4.414-2.039-8.748c-3.672-16.275-6.249-31.416-6.622-42.464,40.3-11.508,79.8-24.4,79.187-30.575-.912-9.129-31.179-150.284-38.855-155.779-4.426-3.18-37.277-14.824-53.395-21.177-2.943-1.166-13-4.942-15.641-5.949-3.418,3.807-26.982,29.814-35.31,128.068-1.031,12.222,1.11,34.525,3.49,56.876-24.4,6.512-44.765,11.405-43.979,13.253m109.889-35.065c2.427-19.574,5.179-39.267,7.17-46.16,0,0,6.8,13.713,6.266,33.827-.1,4.061-5.274,8.225-13.435,12.333" transform="translate(-857.362 -804.226)" fill="#323657"/>
          <path id="Trazado_210210" data-name="Trazado 210210" d="M1570.348,1319.841s-6.115-11.556-4.426-44.368c.467-9.089-47.746,21.557-47.746,21.557s.166,3.133.27,7.361c.056,1.76.087,3.688.087,5.67,0,.548-.007,1.094-.007,1.642-.008.9-.016,1.785-.032,2.673-.023,1.1-.063,2.181-.119,3.22-.055,1.182-.135,2.3-.245,3.323a30.351,30.351,0,0,1-1.785,6.44c-2.213,5.1,35.953,5.394,54.005-7.519" transform="translate(-879.935 -739.225)" fill="#eea987"/>
          <path id="Trazado_210211" data-name="Trazado 210211" d="M1536.551,1433.253l-8.885,11.938s5.206,6.972,14.451,1.826Z" transform="translate(-886.56 -831.768)" fill="#e8734d"/>
          <path id="Trazado_210212" data-name="Trazado 210212" d="M1496.57,1462.416s-32.555,79.511-25.609,180.509l10.267,18.635,11.577-15.87s1.869-134.135,11.109-183.592Z" transform="translate(-853.088 -848.508)" fill="#e8734d"/>
          <path id="Trazado_210213" data-name="Trazado 210213" d="M1526.166,1402.03l9.515,11.13s15.269-2.959,19.751-10.934-29.266-.2-29.266-.2" transform="translate(-885.69 -811.675)" fill="#eea987"/>
          <path id="Trazado_210214" data-name="Trazado 210214" d="M1512.5,1383.519s1.105,8.485,11.7,20.872l-11.561,15.532-6.256-32.221Z" transform="translate(-874.208 -802.905)" fill="#c4c1cc"/>
          <path id="Trazado_210215" data-name="Trazado 210215" d="M1586.355,1359.2s-22.078,24.974-37.517,31.078l7.181,17.759,35.234-38.869Z" transform="translate(-898.847 -788.792)" fill="#c4c1cc"/>
          <path id="Trazado_210216" data-name="Trazado 210216" d="M1073.267,1643.633s29.306-28.421,48.526-33.15c8.886-2.185,20.589-14.451,31.71-28.871,3.666-4.748,7.261-9.733,10.682-14.665a.032.032,0,0,0,.01-.021c13.645-19.7,24.337-38.582,24.337-38.582s40.329-47.264,7.967-68.333c0,0-13.872-.3-21.479,3.832-7.823,4.248-24.51,39.072-27.339,45.24s-33.476,63.438-35.529,64.726-5.472,6-17.735,12.6c-15.014,8.083-38.6,31.743-38.6,31.743Z" transform="translate(-612.73 -847.294)" fill="#323657"/>
          <path id="Trazado_210217" data-name="Trazado 210217" d="M1407.328,1907.541s4.094-.165,5.848-1.11c0,0,3.062-1.965,5.323-3.23a17.7,17.7,0,0,1,1.786-.9c1.807-.717,5.988-1.751,9.845-4.692s16.416-14.689,16.416-14.689l-8.12-12.482-3.748-12.36s-29.289,2.913-33.2,5.234a11.537,11.537,0,0,0-1.076.721c-3.118,2.287-4.476,5.3-5.977,6.684-.547.512-5.649,5.973-5.364,8.189.392,3.075,1.912,5.047,3.819,5.98,0,0,1.034,5.987,4.128,8.662,0,0,.776,5.554,5.572,7.786,0,0,1.419,5.546,4.744,6.21" transform="translate(-806.118 -1078.308)" fill="#efaa88"/>
          <path id="Trazado_210218" data-name="Trazado 210218" d="M1483.81,1074.744s-52.942-12.762-41.789,54.265,23.849,72.468,56.1,59.1,30.008-56.235,31.929-77.213-29.3-35.177-46.239-36.156" transform="translate(-835.961 -623.149)" fill="#eea886"/>
          <path id="Trazado_210219" data-name="Trazado 210219" d="M1609.145,1179.718c.787-5.887,12.475-7.878,13.284.978s-5.655,24.283-10.056,22.692-4.312-15.552-3.228-23.67" transform="translate(-933.484 -681.704)" fill="#eea886"/>
          <path id="Trazado_210220" data-name="Trazado 210220" d="M1522.9,1123.646s-1.062-21.082-8.745-21.852-8.991,7.694-8.991,7.694l-7.791,1.352s2.726-18.424-4.908-21.762-49.918,9.432-56,3.923-2.635-42.913,8.591-47.874,42.192-15.992,64.533-.388c0,0,17.618-1.747,20.019,12.486s-1.768,55.936-6.7,66.42" transform="translate(-831.907 -601.631)" fill="#16202e"/>
          <path id="Trazado_210221" data-name="Trazado 210221" d="M1473.966,1833.306l21.859,37.581s57.908-14.92,71.419-18.73l-30.886-36.763s-45.538,10.4-62.392,17.912" transform="translate(-855.396 -1053.538)" fill="#323657"/>
          <path id="Trazado_210222" data-name="Trazado 210222" d="M1521.308,1343.945h.008c28.394-2.9,39.4-24.754,39.4-24.754-17.861,17.7-39.252,17.219-39.252,17.219,0,.548-.008,1.094-.008,1.642-.008.9-.016,1.785-.032,2.673-.024,1.1-.063,2.181-.119,3.22" transform="translate(-882.871 -765.573)" fill="#a77860"/>
          <path id="Trazado_210223" data-name="Trazado 210223" d="M1141.557,1662.011,1157,1805.59H953.734l-15.443-143.58Z" transform="translate(-544.525 -964.524)" fill="#ffc955"/>
          <rect id="Rectángulo_56695" data-name="Rectángulo 56695" width="33.949" height="12.917" transform="translate(594.702 828.148)" fill="#ffc955"/>
          <rect id="Rectángulo_56696" data-name="Rectángulo 56696" width="552.464" height="8.748" transform="translate(218.331 840.768)" fill="#12263f"/>
          <path id="Trazado_210224" data-name="Trazado 210224" d="M1194.014,1810.5c1.634,7.994-2.1,15.508-8.329,16.782s-12.611-4.174-14.245-12.169,2.1-15.508,8.329-16.781,12.612,4.174,14.245,12.169" transform="translate(-679.606 -1043.527)" fill="#cfa345"/>
          <path id="Trazado_210225" data-name="Trazado 210225" d="M363.252,1409.676H173.7a12.6,12.6,0,0,1-12.6-12.6V1214.641a12.6,12.6,0,0,1,12.6-12.6H363.251a12.6,12.6,0,0,1,12.6,12.6v182.437a12.6,12.6,0,0,1-12.6,12.6" transform="translate(-93.493 -697.588)" fill="#e0e0e0"/>
          <path id="Trazado_210226" data-name="Trazado 210226" d="M206.482,1494.643l-1.489-1.578,38.5-36.327,38.965,8.444,37.218-42.443,32.46,1.831,25.281-34.871,1.756,1.273L353.2,1426.8l-32.587-1.838-37.363,42.608-39.1-8.472Z" transform="translate(-118.965 -806.492)" fill="#377b93"/>
          <path id="Trazado_210227" data-name="Trazado 210227" d="M388.172,1563.188a5.784,5.784,0,1,1-6.877-4.429,5.784,5.784,0,0,1,6.877,4.429" transform="translate(-218.632 -904.527)" fill="#e6e6e6"/>
          <path id="Trazado_210228" data-name="Trazado 210228" d="M382.474,1569.627a6.869,6.869,0,1,1,5.26-8.166,6.876,6.876,0,0,1-5.26,8.166m-2.448-11.306a4.7,4.7,0,1,0,5.587,3.6,4.7,4.7,0,0,0-5.587-3.6" transform="translate(-217.134 -903.028)" fill="#377b93"/>
          <path id="Trazado_210229" data-name="Trazado 210229" d="M477,1462.727a5.784,5.784,0,1,1-6.877-4.429,5.784,5.784,0,0,1,6.877,4.429" transform="translate(-270.185 -846.226)" fill="#e6e6e6"/>
          <path id="Trazado_210230" data-name="Trazado 210230" d="M471.306,1469.164a6.869,6.869,0,1,1,5.26-8.167,6.876,6.876,0,0,1-5.26,8.167m-2.448-11.306a4.7,4.7,0,1,0,5.587,3.6,4.7,4.7,0,0,0-5.587-3.6" transform="translate(-268.686 -844.726)" fill="#377b93"/>
          <path id="Trazado_210231" data-name="Trazado 210231" d="M553.785,1465.8a5.784,5.784,0,1,1-6.877-4.429,5.784,5.784,0,0,1,6.877,4.429" transform="translate(-314.744 -848.01)" fill="#e6e6e6"/>
          <path id="Trazado_210232" data-name="Trazado 210232" d="M548.087,1472.238a6.869,6.869,0,1,1,5.259-8.167,6.876,6.876,0,0,1-5.259,8.167m-2.448-11.306a4.7,4.7,0,1,0,5.588,3.6,4.7,4.7,0,0,0-5.588-3.6" transform="translate(-313.245 -846.51)" fill="#377b93"/>
          <path id="Trazado_210233" data-name="Trazado 210233" d="M295.095,1544.311a5.784,5.784,0,1,1-6.877-4.429,5.784,5.784,0,0,1,6.877,4.429" transform="translate(-164.616 -893.572)" fill="#e6e6e6"/>
          <path id="Trazado_210234" data-name="Trazado 210234" d="M289.4,1550.748a6.869,6.869,0,1,1,5.26-8.167,6.876,6.876,0,0,1-5.26,8.167m-2.448-11.306a4.7,4.7,0,1,0,5.587,3.6,4.7,4.7,0,0,0-5.587-3.6" transform="translate(-163.117 -892.072)" fill="#377b93"/>
          <rect id="Rectángulo_56697" data-name="Rectángulo 56697" width="23.679" height="4.56" transform="translate(119.04 673.463)" fill="#fff"/>
          <rect id="Rectángulo_56698" data-name="Rectángulo 56698" width="23.679" height="4.56" transform="translate(135.509 626.671)" fill="#fff"/>
          <rect id="Rectángulo_56699" data-name="Rectángulo 56699" width="23.679" height="4.56" transform="translate(184.627 659.279)" fill="#fff"/>
          <rect id="Rectángulo_56700" data-name="Rectángulo 56700" width="23.679" height="4.56" transform="translate(205.866 595.242)" fill="#fff"/>
          <rect id="Rectángulo_56701" data-name="Rectángulo 56701" width="23.679" height="4.56" transform="translate(240.258 633.399)" fill="#fff"/>
          <rect id="Rectángulo_56702" data-name="Rectángulo 56702" width="84.33" height="8.277" transform="translate(83.407 520.324)" fill="#4e8c63"/>
          <rect id="Rectángulo_56703" data-name="Rectángulo 56703" width="84.33" height="8.277" transform="translate(83.407 542.592)" fill="#fff"/>
          <rect id="Rectángulo_56704" data-name="Rectángulo 56704" width="84.33" height="8.277" transform="translate(83.407 564.86)" fill="#fff"/>
          <rect id="Rectángulo_56705" data-name="Rectángulo 56705" width="14.076" height="8.277" transform="translate(184.949 520.324)" fill="#4e8c63"/>
          <rect id="Rectángulo_56706" data-name="Rectángulo 56706" width="14.076" height="8.277" transform="translate(184.949 542.592)" fill="#fff"/>
          <rect id="Rectángulo_56707" data-name="Rectángulo 56707" width="14.076" height="8.277" transform="translate(184.949 564.86)" fill="#fff"/>
          <path id="Trazado_210235" data-name="Trazado 210235" d="M999.026,1471.369s-11.069-25.078,1.773-23a46.792,46.792,0,0,1,8.858,10.976c3.4,5.578,10.464,20.336,10.2,25.329s-3.812,8.715-7.647,16.731c0,0-7.97,14.88-8.306,16.673l-8.425-4.375s7.14-14.227,12.172-26.734Z" transform="translate(-577.198 -840.469)" fill="#dbd8e3"/>
          <rect id="Rectángulo_56708" data-name="Rectángulo 56708" width="29.25" height="172.047" transform="translate(317.067 677.214) rotate(-80.337)" fill="#e8734d"/>
          <rect id="Rectángulo_56709" data-name="Rectángulo 56709" width="22.201" height="9.19" transform="matrix(0.168, -0.986, 0.986, 0.168, 308.599, 672.197)" fill="#2d3038"/>
          <path id="Trazado_210236" data-name="Trazado 210236" d="M810.231,1975.686h-2.089s.7-7.889-1.237-7.967-6.727,6.418-9.59,7.425-17.554,1.854-17.631-.851,5.644-3.79,7.423-4.562,10.44-9.2,11.986-10.208,4.187-8,4.187-8l8.2-.364s.464,6.534.961,9.993a30.472,30.472,0,0,1,.338,3.24c.078,2.939-2.551,11.291-2.551,11.291" transform="translate(-452.479 -1132.33)" fill="#eea886"/>
          <path id="Trazado_210237" data-name="Trazado 210237" d="M942.663,1972.768h-1.741v-7.343c-1.449.122-6.323,4.734-7.831,6.069s-3.576,1.274-9.928,1.677-6.95-3.4-5.945-4.693,4.254-1.86,5.945-2.668,8.362-8.333,10.142-10.112,2.862-6.876,2.862-6.876l7.423.647a45.456,45.456,0,0,0,.8,8.574v0a.161.161,0,0,1,.008.029q.108.5.238.979c1.1,4.066-1.971,13.713-1.971,13.713" transform="translate(-532.07 -1130.972)" fill="#eea886"/>
          <path id="Trazado_210238" data-name="Trazado 210238" d="M865.225,1601.948s-2.806,6.635-3.053,8.311-6.816,17.553-8.716,28.257c-1.138,6.408-4.277,26.467-4.532,29.018-.435,4.365-2.491,14-2.807,18.458-.177,2.492-12.452,40.748-15.423,60.722,0,0,7.06,1.046,12.362-.357a209.254,209.254,0,0,0,16.76-49.922c3.6-17.634,6.791-27.037,9.583-34.3s18.6-27.833,20.255-30.143,11.993-15.082,2.2-28.918-26.629-1.125-26.629-1.125" transform="translate(-482.083 -926.575)" fill="#323657"/>
          <path id="Trazado_210239" data-name="Trazado 210239" d="M956.32,1656.246c-.9,5.956.046,13.781,1.917,35.561s-3.274,48.148-3.274,48.148c-6.464,2.212-13.909,0-13.909,0,.171-1.531,0-53.084,0-57.677s-1.319-9.808-1.659-15.08c-.232-3.594-1.9-10.218-3.785-16.982-.564-2.026-1.146-4.063-1.713-6.036v0c-.319-1.105-.63-2.193-.934-3.244-2.649-9.187-6.211-44.664-6.211-44.664s19.746-15.9,29.359-.931,4.678,25.86,4.339,27.731-3.234,27.223-4.13,33.177" transform="translate(-537.828 -922.105)" fill="#323657"/>
          <path id="Trazado_210240" data-name="Trazado 210240" d="M958.015,1673.113c-.153.34-9.991,22.178-12.523,25.965-.564-2.026-1.146-4.063-1.712-6.036v0s13.906-19.447,14.235-19.927" transform="translate(-547.71 -970.967)" fill="#131521"/>
          <path id="Trazado_210241" data-name="Trazado 210241" d="M942.663,1983.579h-1.741v-7.343c-1.449.122-6.323,4.734-7.831,6.069s-3.576,1.274-9.928,1.677-6.95-3.4-5.945-4.693,4.254-1.86,5.945-2.668c6.795.363,15.086-9.19,19.066-9.17,2.115.01,2.095,1.182,2.159,1.4v0a.161.161,0,0,1,.008.029q.108.5.238.979c1.1,4.066-1.971,13.713-1.971,13.713" transform="translate(-532.07 -1141.783)" fill="#c6c9cc"/>
          <path id="Trazado_210242" data-name="Trazado 210242" d="M810.231,1989.169h-2.089s.7-7.889-1.237-7.966-6.727,6.418-9.59,7.425-17.554,1.854-17.631-.852,5.644-3.79,7.423-4.562c6.06-.014,15.916-6.684,18.973-8.036a11.033,11.033,0,0,1,6.364-.539,30.467,30.467,0,0,1,.338,3.24c.078,2.938-2.551,11.291-2.551,11.291" transform="translate(-452.479 -1145.813)" fill="#c6c9cc"/>
          <path id="Trazado_210243" data-name="Trazado 210243" d="M954.517,1402.88s3.151,8.336.7,14.778c0,0,11.553-.751,11.991-2.1s-.465-13.838,1.124-17.53-13.815,4.851-13.815,4.851" transform="translate(-553.941 -810.788)" fill="#eea886"/>
          <path id="Trazado_210244" data-name="Trazado 210244" d="M925.644,1437.995s-6.826,2.428-9.912,3.1-9.54,3.732-9.015,15.241,2.451,21.491,3.151,26.436.263,17.534-.875,23.649a86.524,86.524,0,0,0,35.621,0s-3.413-10.431-3.326-13.128,11.378-24.908,11.9-28.415,2.8-18.973-2.363-22.39-9.364-2.967-11.553-4.5-10.438-1.1-13.631,0" transform="translate(-526.183 -833.945)" fill="#dbd8e3"/>
          <path id="Trazado_210245" data-name="Trazado 210245" d="M945.189,1539.3c-27.962,7.418-50.213.028-50.213.028a69.253,69.253,0,0,0,4.6-12.361v0a74.122,74.122,0,0,0,1.722-8.294v0a75.136,75.136,0,0,0-.691-26.9c3.228-26.563,43.42-34.49,46.639-26.071s-6.237,44.606-6.717,47.708,4.657,25.891,4.657,25.891" transform="translate(-519.387 -848.73)" fill="#dbd8e3"/>
          <path id="Trazado_210246" data-name="Trazado 210246" d="M949.171,1329.931c-4.644-1.593-17.2-3.29-20.414,15.981s3.788,19.6,10.984,19.052,18.452-13.555,19.314-17.509,3.367-12.978-9.884-17.524" transform="translate(-538.525 -771.284)" fill="#eea886"/>
          <path id="Trazado_210247" data-name="Trazado 210247" d="M936.032,1335.206s3.834,8.2,8.865,11.062c0,0,3.151,8.717,9.975,12.242,0,0,18.108-12,7.6-26.25s-25.255-2.9-26.44,2.946" transform="translate(-543.214 -769.158)" fill="#16202e"/>
          <path id="Trazado_210248" data-name="Trazado 210248" d="M954.66,1366.455c.407-1,3.121-2.633,4.338.117s-3.153,7.6-4.351,7.335-1.534-3.648.013-7.452" transform="translate(-553.421 -792.189)" fill="#eea886"/>
          <path id="Trazado_210249" data-name="Trazado 210249" d="M987.752,1344.458c.4-.618,12.387-6.169,14.882,5.431s-9.657,25.088-11.786,30.887.962,19.394.962,19.394-7.313-6.911-9.524-14.146c-2.429-7.944-3.244-27.978,5.467-41.565" transform="translate(-569.106 -779.154)" fill="#16202e"/>
          <path id="Trazado_210250" data-name="Trazado 210250" d="M993.065,1346.042a12.1,12.1,0,0,0-4.144,7.486s-.689-3.574.792-5.758a3.309,3.309,0,0,1,3.353-1.728" transform="translate(-573.814 -781.133)" fill="#e54242"/>
          <path id="Trazado_210251" data-name="Trazado 210251" d="M905.947,1562.21a74.043,74.043,0,0,0,1.721-8.294l.337-2.557a8.621,8.621,0,0,0,2.127-3.237c.624-1.873,5.252-24.9,5.252-24.9s4.9,21.627-9.437,38.989" transform="translate(-525.754 -883.979)" fill="#1d3b54"/>
          <path id="Trazado_210252" data-name="Trazado 210252" d="M831.712,1619.311s-3.605,3.581-4.772,3.941-3.414-1.624-11.693-2.24c-.727-.054-2.005.6-1.7,1.56s3.9,3.573,5.446,3.972,8.818,3.29,12.365,1.87,5.959-5.931,5.959-5.931Z" transform="translate(-472.103 -939.744)" fill="#eea886"/>
          <path id="Trazado_210253" data-name="Trazado 210253" d="M877.517,1448.261s-9.575,3.8-10.142,17.1-1.087,20.256-1.607,22.31-1.513,10.31-3.923,15.277c-2.338,4.82-17.681,20.073-17.681,20.073l7.425,6.982s21.389-21.462,22.689-25.387,6.646-31.233,7.072-35.837c.344-3.711,5.238-20.245-3.834-20.521" transform="translate(-489.899 -840.477)" fill="#dbd8e3"/>
          <path id="Trazado_210254" data-name="Trazado 210254" d="M438.539,1378.775c-.016.455-.047.911-.078,1.366h17.51c.032-.455.048-.911.063-1.366Zm-195.3-4.837c0,.534,0,1.052.016,1.586.031,2.214.125,4.413.313,6.6a103.968,103.968,0,0,0,2.968,18.186,105.937,105.937,0,0,0,27.971,48.967c.518.534,1.037,1.037,1.554,1.539,2.088,2.01,4.272,3.942,6.533,5.764A105.923,105.923,0,0,0,349.7,1480.4c.424,0,.848,0,1.272-.016a105.862,105.862,0,0,0,52.909-14.793,106.817,106.817,0,0,0,46.737-57.683q1.248-3.746,2.245-7.6a107.047,107.047,0,0,0,2.592-14.087v-.016c.11-1.021.22-2.042.3-3.078.094-.99.173-1.979.219-2.984.032-.455.048-.911.063-1.366.047-1.005.079-1.995.094-3,.016-.612.016-1.225.016-1.837a106.462,106.462,0,0,0-90.27-105.221c-.99-.157-1.978-.3-2.984-.424-1.1-.126-2.2-.252-3.3-.346-.989-.094-1.995-.172-2.984-.235-2.293-.157-4.6-.221-6.91-.221-1.963,0-3.91.048-5.842.157-3.314.173-6.58.518-9.816.99a106.727,106.727,0,0,0-82.166,63.242c-.157.345-.3.707-.439,1.052-.157.329-.283.675-.409,1-.816,1.963-1.554,3.958-2.23,5.968a104.37,104.37,0,0,0-4.051,16.16c-.267,1.46-.471,2.936-.676,4.428-.016.251-.047.5-.078.77-.016.016-.016.031-.016.063a3.083,3.083,0,0,0-.031.377,3.742,3.742,0,0,0-.063.44v.109a.945.945,0,0,0-.032.22,2.359,2.359,0,0,0-.031.329c-.031.267-.063.534-.078.8-.157,1.633-.283,3.282-.361,4.932-.016.22-.031.455-.031.675q-.023.542-.048,1.083c-.046,1.209-.063,2.418-.063,3.644m23.856,33.121-.409-1.037c-.3-.769-.581-1.539-.864-2.324l-.643-1.885c-.157-.471-.315-.942-.456-1.413-.016-.032-.016-.063-.031-.094a1.7,1.7,0,0,1-.079-.267c-.251-.785-.471-1.585-.691-2.387l-.251-.926c-.235-.848-.44-1.712-.644-2.576-.016-.079-.047-.173-.063-.267-.172-.8-.345-1.6-.5-2.4-.079-.33-.142-.659-.2-.989-.189-1.005-.362-2.026-.519-3.046-.283-1.79-.487-3.6-.66-5.418-.063-.612-.11-1.241-.157-1.869,0,0,.015,0,0-.016,0-.2-.016-.392-.031-.6-.047-.848-.094-1.7-.126-2.544v-.251c-.016-.188-.016-.393-.016-.6-.016-.738-.031-1.476-.031-2.214,0-.691,0-1.383.031-2.058a77.727,77.727,0,0,1,.565-8.167,7.662,7.662,0,0,1,.094-.847.06.06,0,0,1,.016-.048c-.016-.016,0-.016,0-.016a.03.03,0,0,1,0-.047.582.582,0,0,1,.016-.173v-.031c0-.031,0-.047.016-.062a88.342,88.342,0,0,1,13.208-36.388,89.321,89.321,0,0,1,32.288-30.2,86.537,86.537,0,0,1,10.805-5.025c1.178-.456,2.386-.9,3.6-1.288a87.034,87.034,0,0,1,21.216-4.319c2.356-.2,4.727-.3,7.13-.3.723,0,1.43,0,2.152.032.832.016,1.648.047,2.481.078.6.031,1.193.079,1.79.126a4.663,4.663,0,0,1,.487.031c.989.063,1.995.157,2.984.267l.754.094c.392.047.8.095,1.193.157.456.047.9.109,1.351.188,1.006.141,1.994.314,2.984.487.094.016.188.031.267.047q1.154.213,2.308.471c.048.016.095.016.142.031.313.063.643.141.958.219.723.157,1.429.33,2.136.519a8.79,8.79,0,0,1,.926.235c.817.219,1.634.44,2.451.691.785.22,1.554.471,2.324.723.361.11.722.236,1.068.361,1.539.518,3.061,1.083,4.554,1.7.408.157.816.329,1.225.5.628.267,1.241.535,1.869.817.5.22,1,.44,1.492.691.738.33,1.46.691,2.183,1.052q1.224.612,2.4,1.272c.911.487,1.79.99,2.67,1.507,1.822,1.068,3.58,2.2,5.308,3.393.738.5,1.46,1.02,2.183,1.57.912.644,1.79,1.319,2.654,2.01.77.612,1.539,1.24,2.293,1.884.785.66,1.539,1.319,2.293,2.01a88.741,88.741,0,0,1,29.085,65.8c0,.612,0,1.225-.015,1.837-.016,1.005-.048,1.994-.11,3-.016.455-.047.911-.078,1.366-.078,1.005-.157,1.995-.267,2.984q-.425,4.24-1.257,8.354a86.736,86.736,0,0,1-2.245,8.826c-.707,2.293-1.508,4.555-2.4,6.753A88.946,88.946,0,0,1,350.97,1462.9c-.425.016-.848.016-1.272.016a88.965,88.965,0,0,1-78.6-47.239c-.393-.754-.785-1.507-1.163-2.261l-.691-1.445c-.282-.566-.533-1.131-.8-1.712l-.251-.565c-.221-.5-.44-1.006-.645-1.524Z" transform="translate(-141.159 -735.571)" fill="#12263f"/>
          <g id="Grupo_181453" data-name="Grupo 181453" transform="translate(119.876 549.713)" opacity="0.1">
            <g id="Grupo_181452" data-name="Grupo 181452">
              <g id="Grupo_181451" data-name="Grupo 181451" clip-path="url(#clip-path-3)">
                <path id="Trazado_210255" data-name="Trazado 210255" d="M285.648,1398.545a88.66,88.66,0,1,0,88.66-88.659,88.66,88.66,0,0,0-88.66,88.659" transform="translate(-285.648 -1309.886)" fill="#b8b8b8"/>
              </g>
            </g>
          </g>
          <g id="Grupo_181456" data-name="Grupo 181456" transform="translate(119.56 549.397)" opacity="0.3">
            <g id="Grupo_181455" data-name="Grupo 181455">
              <g id="Grupo_181454" data-name="Grupo 181454" clip-path="url(#clip-path-4)">
                <path id="Trazado_210256" data-name="Trazado 210256" d="M433.748,1332.3s-115.467-14.311-138.475,107.551h0A88.985,88.985,0,0,1,433.748,1332.3" transform="translate(-284.895 -1309.133)" fill="#869ac2"/>
              </g>
            </g>
          </g>
        </g>
      </g>
      <g id="Grupo_181460" data-name="Grupo 181460" transform="translate(84.327 779.128)">
        <g id="Grupo_181459" data-name="Grupo 181459" clip-path="url(#clip-path-5)">
          <rect id="Rectángulo_56713" data-name="Rectángulo 56713" width="49.007" height="2.91" fill="url(#linear-gradient)"/>
        </g>
      </g>
      <g id="Grupo_181462" data-name="Grupo 181462" transform="translate(0 -0.001)">
        <g id="Grupo_181461" data-name="Grupo 181461" clip-path="url(#clip-path-2)">
          <rect id="Rectángulo_56715" data-name="Rectángulo 56715" width="4.294" height="132.302" transform="translate(90.895 789.609)" fill="#706865"/>
          <rect id="Rectángulo_56716" data-name="Rectángulo 56716" width="34.065" height="4.155" transform="translate(125.664 778.304)" fill="#ccbdb7"/>
          <rect id="Rectángulo_56717" data-name="Rectángulo 56717" width="12.9" height="39.18" transform="translate(136.247 742.858)" fill="#ffab55"/>
          <rect id="Rectángulo_56718" data-name="Rectángulo 56718" width="188.739" height="7.522" transform="translate(66.747 782.087)" fill="#b59074"/>
          <path id="Trazado_210257" data-name="Trazado 210257" d="M51.535,1737.634s-2.064,28.949,3.592,32.414c3.544,2.17,17.672,9.49,17.252,10.863s-7.977,12.214-7.977,12.214-27.137-17.87-28.012-23.5c-.855-5.5,1.336-42.386,5.065-44.086,2.794-1.272,4.268-.22,7.789,2.394,4.941,3.668,2.29,9.7,2.29,9.7" transform="translate(-21.011 -1001.078)" fill="#ffc955"/>
          <path id="Trazado_210258" data-name="Trazado 210258" d="M183.306,1764.128l2.391-.884s-2.983-7-4.284-6.831a32.331,32.331,0,0,0-3.372.69Z" transform="translate(-103.324 -1019.307)" fill="#ead8cf"/>
          <path id="Trazado_210259" data-name="Trazado 210259" d="M170.738,1764.688c-.306-.228-5.085-9.4-5.085-9.4l-10.209,1.388,5.517,10.857Z" transform="translate(-90.21 -1018.659)" fill="#da9b5b"/>
          <path id="Trazado_210260" data-name="Trazado 210260" d="M136.959,2152.693s-.844,5.857-.949,6.737-9.388-.519-9.388-.519l-.751-6.973s9.928-.072,11.088.755" transform="translate(-73.048 -1248.846)" fill="#424773"/>
          <path id="Trazado_210261" data-name="Trazado 210261" d="M134.1,2167.47a25.06,25.06,0,0,0,5.785,5.068c2.844,1.538,7.314,2.148,9,3.74,1.214,1.149,4.422,6.1-7.392,6s-17.509.7-18.775-1.2,1.832-14.005,1.832-14.005,2.8,1.007,9.553.4" transform="translate(-71.041 -1257.63)" fill="#292c47"/>
          <path id="Trazado_210262" data-name="Trazado 210262" d="M278.664,2152.825s-.844,5.858-.949,6.737-9.387-.518-9.387-.518l-.752-6.974s9.928-.072,11.088.755" transform="translate(-155.284 -1248.923)" fill="#424773"/>
          <path id="Trazado_210263" data-name="Trazado 210263" d="M275.807,2167.6a25.054,25.054,0,0,0,5.785,5.068c2.844,1.539,13.311,2.8,14.993,4.395,1.214,1.15,3.233,5.777-13.389,5.344-11.809-.308-17.509.7-18.775-1.2s1.831-14,1.831-14,2.636,1.075,9.553.4" transform="translate(-153.278 -1257.707)" fill="#292c47"/>
          <path id="Trazado_210264" data-name="Trazado 210264" d="M69.317,1912.641s33.746,5.71,41.367,6.908,48.948,11.48,54.116,14.614c4.114,2.494-2.157,62.4-3.623,85.254H144.9l-1.18-68.559c-19.533.489-33.472-4.57-47.7-2.408s-26.083,5.231-35.121-6.893c0,0-.335-26.267,8.414-28.915" transform="translate(-35.344 -1109.974)" fill="#292c47"/>
          <path id="Trazado_210265" data-name="Trazado 210265" d="M93.4,2029.565l-15.863-.981-1.546-67.634c-8.409.21-11.291-.323-18.1-1.148l-12.807-29.77c11.224,2.244,47.187,11.315,51.982,14.223,4.114,2.5-2.2,62.454-3.67,85.31" transform="translate(-26.167 -1120.067)" fill="#292c47"/>
          <path id="Trazado_210266" data-name="Trazado 210266" d="M106.22,1610.412s12.37-3.419,17.09,6.185,2.58,27.808-3.655,29.521-15.2-.26-17.788-6.237-4.652-14.47-4.033-19.97,5.1-8.185,8.386-9.5" transform="translate(-56.712 -934.237)" fill="#eea886"/>
          <path id="Trazado_210267" data-name="Trazado 210267" d="M119.388,1680.107s-.136,7.3.669,8.86-17.226,1.166-17.226,1.166,2.842-8.77,1.23-16.241c-1.6-7.4,15.327,6.215,15.327,6.215" transform="translate(-59.677 -970.142)" fill="#eea886"/>
          <path id="Trazado_210268" data-name="Trazado 210268" d="M99.134,1633.529s.964,1.96,5.631,1.643,10.823-5.947,12.8-6.449,2.1-1.631,2.1-1.631l1.048,1.864,2.031.309s-1.38-5.643,1.626-7.63-1.354-17.991-16.572-14.13c0,0-11.615,2.127-11.771,8.612s.849,13.977,3.1,17.412" transform="translate(-55.721 -932.545)" fill="#3a3f47"/>
          <path id="Trazado_210269" data-name="Trazado 210269" d="M121.332,1705.771s-.051-2.975-1.4-3.26-14.174-2.049-15.828-1.4l-.71,3.928s3.189,1.963,17.937.731" transform="translate(-60.004 -987.133)" fill="#e2d2ca"/>
          <path id="Trazado_210270" data-name="Trazado 210270" d="M147.8,1647.271c-.347-2.439-3.119-5.239-4.706-1.442s1.072,9.329,2.853,9.032,2.322-4.282,1.853-7.59" transform="translate(-82.76 -954.053)" fill="#eea886"/>
          <path id="Trazado_210271" data-name="Trazado 210271" d="M274.108,1796.16a.035.035,0,0,0-.022,0c.092.04.106.044.022,0" transform="translate(-159.062 -1042.375)" fill="#323657"/>
          <path id="Trazado_210272" data-name="Trazado 210272" d="M98.921,1615.377s-15.083-.711-2.633,22.836Z" transform="translate(-53.022 -937.46)" fill="#3a3f47"/>
          <path id="Trazado_210273" data-name="Trazado 210273" d="M29.294,2161.535l1.122,3.156L77.824,2150l-2.272-6.391Z" transform="translate(-17 -1244.015)" fill="#918783"/>
          <rect id="Rectángulo_56719" data-name="Rectángulo 56719" width="5.388" height="51.542" transform="translate(57.061 852.197)" fill="#918783"/>
          <rect id="Rectángulo_56720" data-name="Rectángulo 56720" width="31.782" height="3.037" transform="translate(43.865 849.458)" fill="#5e5854"/>
          <path id="Trazado_210274" data-name="Trazado 210274" d="M189.367,2160.98l-1.122,3.156-47.408-14.689,2.083-6.793Z" transform="translate(-81.733 -1243.46)" fill="#918783"/>
          <path id="Trazado_210275" data-name="Trazado 210275" d="M155.965,2163.8v3.672l-15.128-18.023,2.083-6.793Z" transform="translate(-81.733 -1243.46)" fill="#918783"/>
          <path id="Trazado_210276" data-name="Trazado 210276" d="M254.781,2190.656a4.431,4.431,0,1,1-4.431-4.431,4.431,4.431,0,0,1,4.431,4.431" transform="translate(-142.716 -1268.745)" fill="#bfb2ac"/>
          <path id="Trazado_210277" data-name="Trazado 210277" d="M165.528,2190.656a4.431,4.431,0,1,1-4.43-4.431,4.431,4.431,0,0,1,4.43,4.431" transform="translate(-90.92 -1268.745)" fill="#bfb2ac"/>
          <path id="Trazado_210278" data-name="Trazado 210278" d="M27.6,2190.656a4.431,4.431,0,1,1-4.43-4.431,4.431,4.431,0,0,1,4.43,4.431" transform="translate(-10.873 -1268.745)" fill="#bfb2ac"/>
          <path id="Trazado_210279" data-name="Trazado 210279" d="M123.976,2008.229h-66.3a4.5,4.5,0,0,1-4.5-4.5v-2.513a4.5,4.5,0,0,1,4.5-4.495h66.3a4.5,4.5,0,0,1,4.5,4.495v2.513a4.5,4.5,0,0,1-4.5,4.5" transform="translate(-30.862 -1158.771)" fill="#e2d2ca"/>
          <rect id="Rectángulo_56721" data-name="Rectángulo 56721" width="4.294" height="132.302" transform="translate(227.044 789.609)" fill="#706865"/>
        </g>
      </g>
      <g id="Grupo_181464" data-name="Grupo 181464" transform="translate(87.003 683.152)">
        <g id="Grupo_181463" data-name="Grupo 181463" clip-path="url(#clip-path-7)">
          <rect id="Rectángulo_56723" data-name="Rectángulo 56723" width="111.387" height="78.579" fill="url(#linear-gradient-2)"/>
        </g>
      </g>
      <g id="Grupo_181466" data-name="Grupo 181466" transform="translate(0 -0.001)">
        <g id="Grupo_181465" data-name="Grupo 181465" clip-path="url(#clip-path-2)">
          <rect id="Rectángulo_56725" data-name="Rectángulo 56725" width="102.663" height="62.017" transform="translate(91.365 687.401)" fill="#f5f7ff"/>
          <rect id="Rectángulo_56726" data-name="Rectángulo 56726" width="102.663" height="4.935" transform="translate(91.365 687.401)" fill="#cecfd6"/>
          <path id="Trazado_210280" data-name="Trazado 210280" d="M245.709,1663.175H226.128a1.5,1.5,0,0,1-1.5-1.5v-1.592a1.5,1.5,0,0,1,1.5-1.5h19.581a1.5,1.5,0,0,1,1.5,1.5v1.592a1.5,1.5,0,0,1-1.5,1.5" transform="translate(-130.36 -962.536)" fill="#cecfd6"/>
          <path id="Trazado_210281" data-name="Trazado 210281" d="M244.112,1720H227.725a3.1,3.1,0,0,1-3.1-3.1v-36.957a3.1,3.1,0,0,1,3.1-3.1h16.387a3.1,3.1,0,0,1,3.1,3.1v36.957a3.1,3.1,0,0,1-3.1,3.1" transform="translate(-130.36 -973.138)" fill="#cecfd6"/>
          <path id="Trazado_210282" data-name="Trazado 210282" d="M354.185,1849.88v-1.4s-1.966-8.7-15.871-8.7-13.624,10.1-13.624,10.1Z" transform="translate(-188.429 -1067.693)" fill="#2e436e"/>
          <path id="Trazado_210283" data-name="Trazado 210283" d="M320.039,1835.414a13.717,13.717,0,0,0,4.127-.9c1.107-.668,7.729-5.121,9.283-4.408s11.906,3.883,11.547,5.4-1.317,1.368-2.047,1.1-8.246-1.845-8.909-1.579c0,0,7.383,2.693,7.412,4.658s-1.545,2.444-2.245,3.187-1.541,2.589-3.443,2.73-11.186-3.089-13.1-3.236-5.448.118-5.689-.193,3.061-6.753,3.061-6.753" transform="translate(-183.947 -1062.03)" fill="#eea886"/>
          <path id="Trazado_210284" data-name="Trazado 210284" d="M106.18,1715.523c-9.632-1.693-19.77-4.123-19.77-4.123l-17.938-.731s-16.463,3.624-22.946,6.553c-.615.277-.618,14.687-2.305,18.465l5.375,11.34s3.105,22.464,3.749,32.455c.3,4.586-.836,44.325-.836,44.325s1.612.8,13.854,2.145,42.831-.488,43.024-1.933-5.924-53.842-6.195-56.556c-.416-4.165,1.2-23.408,1.2-23.408,2.306,3.1,8.187,17.091,14.316,23.748,3.606,3.917,21.459,6.318,24.824,6.43,7.325.244,20.688,1.7,21.079.99.312-.428,1.164-11.861.327-12.14-.734-.245-25.547-1.673-31.9-5.046-2.326-1.234-9.279-16.4-9.279-16.4s-11.263-23.73-16.577-26.118" transform="translate(-25.083 -992.762)" fill="#ffc955"/>
          <path id="Trazado_210285" data-name="Trazado 210285" d="M54.56,1878.08H19.9a8.632,8.632,0,0,1-8.632-8.632V1814.8a8.632,8.632,0,0,1,8.632-8.632H54.56a8.632,8.632,0,0,1,8.632,8.632v54.649a8.631,8.631,0,0,1-8.632,8.632" transform="translate(-6.54 -1048.183)" fill="#e2d2ca"/>
          <path id="Trazado_210286" data-name="Trazado 210286" d="M75.638,1958.264c-7.653,0-13.863-2.571-18.456-7.642-10.38-11.459-8.515-31.6-8.43-32.456a2.889,2.889,0,0,1,5.75.568c-.022.229-1.676,18.49,6.974,28.022,3.5,3.855,8.132,5.73,14.162,5.73a2.889,2.889,0,1,1,0,5.778" transform="translate(-28.187 -1111.67)" fill="#e2d2ca"/>
          <path id="Trazado_210287" data-name="Trazado 210287" d="M289.291,1682.424a21.281,21.281,0,0,0,7.369,16.109c.244.211.494.418.747.617q.43.34.877.658a21.173,21.173,0,0,0,9.684,3.749q.944.116,1.915.148c.232.008.465.011.7.011q1.034,0,2.042-.1a21.29,21.29,0,0,0,13.068-6.194c.13-.132.26-.266.386-.4a20.766,20.766,0,0,0,1.352-1.582,21.292,21.292,0,1,0-38.14-13.018" transform="translate(-167.886 -964.014)" fill="#eef0f7"/>
          <path id="Trazado_210288" data-name="Trazado 210288" d="M306.978,1733.013l1.57,5.634a21.168,21.168,0,0,0,9.683,3.749q.945.116,1.916.148.347.011.7.011,1.034,0,2.042-.1a21.175,21.175,0,0,0,10.919-4.3c.3-1.863.624-3.924.909-5.854-1.565-.583-6.546-2.276-9.689-3.338l-.131-.044-.2-.069-.533-.18-.489-.166-1.261-.423h0l-.064-.022-.036,0-4.227.317-.709.053-.22.016-.1.024c-.255.066-1,.259-1.976.558h0c-2.5.766-6.565,2.221-8.1,3.982" transform="translate(-178.151 -1002.854)" fill="#d9c7c1"/>
          <path id="Trazado_210289" data-name="Trazado 210289" d="M331.427,1686.595s-5.069.856-4.209,8.792,5.334,7.236,5.634,7.225,4.5.1,4.722-9.607c0,0,.065-7.174-6.146-6.41" transform="translate(-189.84 -978.758)" fill="#eea987"/>
          <path id="Trazado_210290" data-name="Trazado 210290" d="M331.885,1718.087a18.277,18.277,0,0,1-.134,3.977c-.308.711,4.07,2.96,6.791.4a28.079,28.079,0,0,1-.379-4.831c.171-1.261-6.278.456-6.278.456" transform="translate(-192.519 -996.535)" fill="#eea987"/>
          <path id="Trazado_210291" data-name="Trazado 210291" d="M326.026,1701.923s-.562-.588-.76.016.9,3.279.83,3.4c0,0,.1.232.236.1a29.08,29.08,0,0,0-.306-3.518" transform="translate(-188.75 -987.538)" fill="#eea987"/>
          <path id="Trazado_210292" data-name="Trazado 210292" d="M351.517,1701.386s.538-.611.76-.015-.589,3.266-.69,3.431c0,0-.175.274-.312.149a29.384,29.384,0,0,1,.242-3.565" transform="translate(-203.84 -987.215)" fill="#eea987"/>
          <path id="Trazado_210293" data-name="Trazado 210293" d="M326.285,1690.643c.175,1.086.34,1.893.34,1.893l.738.964a19.479,19.479,0,0,1,.069-2.465c.043-.127.093-.352.144-.595.085-.4.172-.855.231-1.006.1-.241,4.345-1.482,8.13.26,0,0-.032.328-.03.694,0,.425.048.9.243.973.363.133.211,2.494.211,2.494l.59-.681s.171-1.233.339-2.65l0-.01c.038-.33.077-.67.114-1.008.084-1.426-.057-4.014-1.912-5.535-1.253-.536-3.253-.992-6.587.029a2.3,2.3,0,0,0-.979.257c-2.076,2.285-1.642,6.387-1.642,6.387" transform="translate(-189.333 -976.931)" fill="#e8734d"/>
          <path id="Trazado_210294" data-name="Trazado 210294" d="M338.778,1722.311a3.23,3.23,0,0,1-2.689,1.082,3.661,3.661,0,0,1-2.7-1.023,3.282,3.282,0,0,0,2.7,1.842,3.321,3.321,0,0,0,2.68-1.9" transform="translate(-193.481 -999.519)" fill="#c78d71"/>
          <path id="Trazado_210295" data-name="Trazado 210295" d="M338.608,1728.616a5.521,5.521,0,0,1-3.936,2.588c-1.635.141-3.051-1.932-3.714-2.948a9.9,9.9,0,0,1,7.65.36" transform="translate(-192.067 -1002.62)" fill="#eea987"/>
          <path id="Trazado_210296" data-name="Trazado 210296" d="M331.428,1727.3a14.067,14.067,0,0,0,3.244,2.811l-1.373,2.115-2.341-4.177Z" transform="translate(-192.067 -1002.416)" fill="#eddad3"/>
          <path id="Trazado_210297" data-name="Trazado 210297" d="M343.124,1728.059a9.427,9.427,0,0,1-3.316,2.494l1.507,2.179,2.634-3.812Z" transform="translate(-197.203 -1002.854)" fill="#eddad3"/>
          <path id="Trazado_210298" data-name="Trazado 210298" d="M338.181,1734l-1.176,1.79a2.449,2.449,0,0,0,2.384-.044Z" transform="translate(-195.576 -1006.303)" fill="#5073ab"/>
          <path id="Trazado_210299" data-name="Trazado 210299" d="M303.74,1733.276s.011.041.033.118c.13.459.626,2.226,1.273,4.576.244.212.494.418.747.617q.431.34.877.657a21.17,21.17,0,0,0,9.683,3.749c-.316-7.371-1.19-13.906-1.19-13.906q-1.036.273-1.964.54h0a45.119,45.119,0,0,0-9.076,3.428l-.021.011c-.244.136-.357.21-.357.21" transform="translate(-176.271 -1003.451)" fill="#323657"/>
          <path id="Trazado_210300" data-name="Trazado 210300" d="M350.064,1743.375a21.307,21.307,0,0,0,10.852-5.865c.131-.132.261-.266.387-.4.373-1.583.621-2.615.636-2.683v0s-2.634-1.731-11.954-4.218v.006c0,.213-.005,6.191.077,13.164" transform="translate(-203.11 -1004.1)" fill="#323657"/>
          <path id="Trazado_210301" data-name="Trazado 210301" d="M338.17,1737.839c.087,1.941.1,5.707.066,10,.232.008.465.011.7.011q1.034,0,2.042-.1a65.4,65.4,0,0,0-1.414-9.924c-.1-.43-.166-.644-.166-.644l-1.25.207c.009.135.016.282.023.443" transform="translate(-196.239 -1008.153)" fill="#5073ab"/>
          <path id="Trazado_210302" data-name="Trazado 210302" d="M301.181,1741.042a21.431,21.431,0,0,0,2.379,2.412c.244.211.494.418.747.616l-1.675-5.531v0a.144.144,0,0,0-.02.013,1.392,1.392,0,0,0-.324.327,10.421,10.421,0,0,0-1.107,2.164" transform="translate(-174.786 -1008.936)" fill="#323657"/>
          <path id="Trazado_210303" data-name="Trazado 210303" d="M376.03,1743.343c.131-.132.261-.266.387-.4q.715-.757,1.352-1.582a2.466,2.466,0,0,0-.714-1.1v0Z" transform="translate(-218.224 -1009.933)" fill="#323657"/>
        </g>
      </g>
    </g>
    <path id="Trazado_213910" data-name="Trazado 213910" d="M10,0H349a10,10,0,0,1,10,10V40a10,10,0,0,1-10,10H10A10,10,0,0,1,0,40V10A10,10,0,0,1,10,0Z" transform="translate(705 3111)" fill="#e8e8e8"/>
    <path id="Trazado_213911" data-name="Trazado 213911" d="M10,0H41A10,10,0,0,1,51,10V41A10,10,0,0,1,41,51H10A10,10,0,0,1,0,41V10A10,10,0,0,1,10,0Z" transform="translate(705 3111)" fill="#00a3be"/>
    <path id="Trazado_213912" data-name="Trazado 213912" d="M13.726-3.984H6.68L5.449,0H-.044L7.778-21.328h4.834L20.493,0H14.971ZM7.91-7.954H12.5l-2.3-7.4Z" transform="translate(721 3148)" fill="#fff"/>
    <path id="Trazado_213913" data-name="Trazado 213913" d="M5.019-12.8l2.856,8.9,2.848-8.9h4.061V0H11.689V-2.988l.3-6.117L8.895,0H6.855l-3.1-9.114.3,6.126V0H.967V-12.8ZM16.233-4.843a5.613,5.613,0,0,1,.554-2.536,3.96,3.96,0,0,1,1.591-1.709,4.791,4.791,0,0,1,2.435-.6,4.373,4.373,0,0,1,3.366,1.323,5.076,5.076,0,0,1,1.23,3.6v.105a4.925,4.925,0,0,1-1.235,3.529A4.384,4.384,0,0,1,20.83.176a4.434,4.434,0,0,1-3.261-1.217,4.761,4.761,0,0,1-1.327-3.3Zm2.962.185a3.538,3.538,0,0,0,.413,1.934,1.376,1.376,0,0,0,1.222.615q1.582,0,1.617-2.435v-.3q0-2.558-1.635-2.558-1.485,0-1.608,2.206Zm7.146-.167a5.809,5.809,0,0,1,.976-3.56,3.211,3.211,0,0,1,2.725-1.3,2.731,2.731,0,0,1,2.145,1V-13.5h2.971V0H32.493l-.149-1.02a2.8,2.8,0,0,1-2.32,1.2,3.205,3.205,0,0,1-2.689-1.3A5.993,5.993,0,0,1,26.341-4.825Zm2.962.185q0,2.531,1.477,2.531a1.458,1.458,0,0,0,1.406-.826V-6.557A1.419,1.419,0,0,0,30.8-7.4q-1.371,0-1.485,2.215ZM41.44.176A4.889,4.889,0,0,1,37.9-1.129a4.507,4.507,0,0,1-1.354-3.4v-.246a5.84,5.84,0,0,1,.541-2.575,3.955,3.955,0,0,1,1.578-1.727,4.763,4.763,0,0,1,2.461-.611,4.117,4.117,0,0,1,3.164,1.244,4.887,4.887,0,0,1,1.16,3.467v1.151H39.56a2.135,2.135,0,0,0,.694,1.257,2.066,2.066,0,0,0,1.389.457,2.662,2.662,0,0,0,2.2-.984l1.354,1.6A3.784,3.784,0,0,1,43.625-.277,5.3,5.3,0,0,1,41.44.176ZM41.106-7.4q-1.3,0-1.547,1.723h2.988v-.229a1.467,1.467,0,0,0-.36-1.1A1.434,1.434,0,0,0,41.106-7.4ZM49.764,0H46.793V-13.5h2.971Zm1.45-4.843a5.613,5.613,0,0,1,.554-2.536,3.96,3.96,0,0,1,1.591-1.709,4.791,4.791,0,0,1,2.435-.6,4.373,4.373,0,0,1,3.366,1.323,5.076,5.076,0,0,1,1.23,3.6v.105a4.925,4.925,0,0,1-1.235,3.529A4.384,4.384,0,0,1,55.811.176,4.434,4.434,0,0,1,52.55-1.042a4.761,4.761,0,0,1-1.327-3.3Zm2.962.185a3.538,3.538,0,0,0,.413,1.934,1.376,1.376,0,0,0,1.222.615q1.582,0,1.617-2.435v-.3q0-2.558-1.635-2.558-1.485,0-1.608,2.206ZM70.778.176a4.889,4.889,0,0,1-3.542-1.305,4.507,4.507,0,0,1-1.354-3.4v-.246a5.84,5.84,0,0,1,.541-2.575A3.955,3.955,0,0,1,68-9.075a4.763,4.763,0,0,1,2.461-.611,4.117,4.117,0,0,1,3.164,1.244,4.887,4.887,0,0,1,1.16,3.467v1.151H68.9a2.135,2.135,0,0,0,.694,1.257,2.066,2.066,0,0,0,1.389.457,2.662,2.662,0,0,0,2.2-.984l1.354,1.6A3.784,3.784,0,0,1,72.962-.277,5.3,5.3,0,0,1,70.778.176ZM70.444-7.4q-1.3,0-1.547,1.723h2.988v-.229a1.467,1.467,0,0,0-.36-1.1A1.434,1.434,0,0,0,70.444-7.4ZM79.1,0H76.131V-13.5H79.1Zm9.026-9.51.1,1.116A3.225,3.225,0,0,1,90.94-9.686,2.713,2.713,0,0,1,93.16-8.8a4.226,4.226,0,0,1,.76,2.672V0H90.949V-6a1.6,1.6,0,0,0-.29-1.059A1.342,1.342,0,0,0,89.6-7.4a1.413,1.413,0,0,0-1.292.686V0H85.351V-9.51ZM100.16.176a4.889,4.889,0,0,1-3.542-1.305,4.507,4.507,0,0,1-1.354-3.4v-.246a5.84,5.84,0,0,1,.541-2.575,3.955,3.955,0,0,1,1.578-1.727,4.763,4.763,0,0,1,2.461-.611,4.117,4.117,0,0,1,3.164,1.244,4.887,4.887,0,0,1,1.16,3.467v1.151H98.279a2.135,2.135,0,0,0,.694,1.257,2.066,2.066,0,0,0,1.389.457,2.662,2.662,0,0,0,2.2-.984l1.354,1.6a3.784,3.784,0,0,1-1.569,1.217A5.3,5.3,0,0,1,100.16.176ZM99.826-7.4q-1.3,0-1.547,1.723h2.988v-.229a1.467,1.467,0,0,0-.36-1.1A1.434,1.434,0,0,0,99.826-7.4Zm5.186,2.575a6.421,6.421,0,0,1,.475-2.549,3.821,3.821,0,0,1,1.362-1.709,3.591,3.591,0,0,1,2.065-.6,2.855,2.855,0,0,1,2.32,1l.105-.826h2.689V-.36a4.009,4.009,0,0,1-.584,2.184,3.75,3.75,0,0,1-1.692,1.424,6.219,6.219,0,0,1-2.566.5,5.365,5.365,0,0,1-2.026-.4,3.657,3.657,0,0,1-1.5-1.028L106.9.58a2.716,2.716,0,0,0,2.18.976A1.764,1.764,0,0,0,111.05-.466v-.3a2.781,2.781,0,0,1-2.153.94,3.437,3.437,0,0,1-2.812-1.332,5.517,5.517,0,0,1-1.072-3.564Zm2.971.185a3.383,3.383,0,0,0,.439,1.85,1.386,1.386,0,0,0,1.23.681,1.573,1.573,0,0,0,1.4-.642v-4a1.534,1.534,0,0,0-1.38-.65,1.4,1.4,0,0,0-1.239.708A3.858,3.858,0,0,0,107.982-4.641Zm7.356-.2a5.613,5.613,0,0,1,.554-2.536,3.96,3.96,0,0,1,1.591-1.709,4.791,4.791,0,0,1,2.435-.6,4.373,4.373,0,0,1,3.366,1.323,5.076,5.076,0,0,1,1.23,3.6v.105a4.925,4.925,0,0,1-1.235,3.529A4.384,4.384,0,0,1,119.936.176a4.434,4.434,0,0,1-3.261-1.217,4.761,4.761,0,0,1-1.327-3.3Zm2.962.185a3.538,3.538,0,0,0,.413,1.934,1.376,1.376,0,0,0,1.222.615q1.582,0,1.617-2.435v-.3q0-2.558-1.635-2.558-1.485,0-1.608,2.206Zm11.54,2.549a1.317,1.317,0,0,0,.967-.338,1.241,1.241,0,0,0,.334-.945h2.777A3.288,3.288,0,0,1,132.8-.826a4.168,4.168,0,0,1-2.887,1,4.22,4.22,0,0,1-3.27-1.3,5.125,5.125,0,0,1-1.2-3.6v-.123a5.792,5.792,0,0,1,.532-2.544,3.872,3.872,0,0,1,1.534-1.7,4.573,4.573,0,0,1,2.373-.593,4.116,4.116,0,0,1,2.944,1.028,3.647,3.647,0,0,1,1.09,2.786h-2.777A1.626,1.626,0,0,0,130.781-7a1.244,1.244,0,0,0-.967-.4q-1.151,0-1.345,1.468a10.357,10.357,0,0,0-.062,1.283,4.068,4.068,0,0,0,.343,1.986A1.187,1.187,0,0,0,129.841-2.109ZM138.3,0h-2.971V-9.51H138.3Zm-3.146-11.971a1.334,1.334,0,0,1,.457-1.043,1.718,1.718,0,0,1,1.187-.407,1.718,1.718,0,0,1,1.187.407,1.334,1.334,0,0,1,.457,1.043,1.334,1.334,0,0,1-.457,1.043,1.718,1.718,0,0,1-1.187.407,1.718,1.718,0,0,1-1.187-.407A1.334,1.334,0,0,1,135.149-11.971Zm4.6,7.128a5.613,5.613,0,0,1,.554-2.536,3.96,3.96,0,0,1,1.591-1.709,4.791,4.791,0,0,1,2.435-.6,4.373,4.373,0,0,1,3.366,1.323,5.076,5.076,0,0,1,1.23,3.6v.105a4.925,4.925,0,0,1-1.235,3.529A4.384,4.384,0,0,1,144.343.176a4.434,4.434,0,0,1-3.261-1.217,4.761,4.761,0,0,1-1.327-3.3Zm2.962.185a3.538,3.538,0,0,0,.413,1.934,1.376,1.376,0,0,0,1.222.615q1.582,0,1.617-2.435v-.3q0-2.558-1.635-2.558-1.485,0-1.608,2.206ZM154.934-5.2a13.431,13.431,0,0,1,.571-3.99,9.629,9.629,0,0,1,1.578-3.129,5.6,5.6,0,0,1,2.237-1.793l.563,1.459a5.73,5.73,0,0,0-1.9,2.826,13.782,13.782,0,0,0-.681,4.5v.387a14.051,14.051,0,0,0,.672,4.588A5.706,5.706,0,0,0,159.882,2.5l-.562,1.459a5.547,5.547,0,0,1-2.237-1.8A9.484,9.484,0,0,1,155.5-.958a13.5,13.5,0,0,1-.571-3.85ZM164.188,0h-2.971V-13.5h2.971Zm4.948,0h-2.971V-9.51h2.971ZM165.99-11.971a1.334,1.334,0,0,1,.457-1.043,1.718,1.718,0,0,1,1.187-.407,1.718,1.718,0,0,1,1.187.407,1.334,1.334,0,0,1,.457,1.043,1.334,1.334,0,0,1-.457,1.043,1.718,1.718,0,0,1-1.187.407,1.718,1.718,0,0,1-1.187-.407A1.334,1.334,0,0,1,165.99-11.971ZM175.562.176a4.889,4.889,0,0,1-3.542-1.305,4.507,4.507,0,0,1-1.354-3.4v-.246a5.84,5.84,0,0,1,.541-2.575,3.955,3.955,0,0,1,1.578-1.727,4.763,4.763,0,0,1,2.461-.611,4.117,4.117,0,0,1,3.164,1.244,4.887,4.887,0,0,1,1.16,3.467v1.151h-5.889a2.135,2.135,0,0,0,.694,1.257,2.066,2.066,0,0,0,1.389.457,2.662,2.662,0,0,0,2.2-.984l1.354,1.6a3.784,3.784,0,0,1-1.569,1.217A5.3,5.3,0,0,1,175.562.176ZM175.228-7.4q-1.3,0-1.547,1.723h2.988v-.229a1.467,1.467,0,0,0-.36-1.1A1.434,1.434,0,0,0,175.228-7.4ZM183.48-9.51l.1,1.116a3.225,3.225,0,0,1,2.716-1.292,2.713,2.713,0,0,1,2.219.888,4.226,4.226,0,0,1,.76,2.672V0H186.3V-6a1.6,1.6,0,0,0-.29-1.059,1.342,1.342,0,0,0-1.055-.338,1.413,1.413,0,0,0-1.292.686V0H180.7V-9.51Zm10.925,7.225h4.333V0h-8.077V-1.652l4.219-5.572h-4.034V-9.51h7.8v1.6Zm5.256-2.558a5.613,5.613,0,0,1,.554-2.536,3.96,3.96,0,0,1,1.591-1.709,4.791,4.791,0,0,1,2.435-.6,4.373,4.373,0,0,1,3.366,1.323,5.076,5.076,0,0,1,1.23,3.6v.105A4.925,4.925,0,0,1,207.6-1.129,4.384,4.384,0,0,1,204.258.176,4.434,4.434,0,0,1,201-1.042a4.761,4.761,0,0,1-1.327-3.3Zm2.962.185a3.538,3.538,0,0,0,.413,1.934,1.376,1.376,0,0,0,1.222.615q1.582,0,1.617-2.435v-.3q0-2.558-1.635-2.558-1.485,0-1.608,2.206Zm22.491.325a4.673,4.673,0,0,1-.721,2.36,4.35,4.35,0,0,1-1.85,1.586,6.3,6.3,0,0,1-2.72.563,5.025,5.025,0,0,1-3.973-1.644,6.786,6.786,0,0,1-1.45-4.641v-.633a7.746,7.746,0,0,1,.655-3.292,4.961,4.961,0,0,1,1.885-2.18,5.26,5.26,0,0,1,2.848-.769,5.516,5.516,0,0,1,3.744,1.226,4.844,4.844,0,0,1,1.608,3.379h-3.076a2.292,2.292,0,0,0-.589-1.679,2.422,2.422,0,0,0-1.687-.51A1.843,1.843,0,0,0,218.1-9.7a5.536,5.536,0,0,0-.562,2.751v.905a6.126,6.126,0,0,0,.514,2.927,1.882,1.882,0,0,0,1.771.879,2.369,2.369,0,0,0,1.626-.5,2.126,2.126,0,0,0,.6-1.591ZM231.794,0a3.344,3.344,0,0,1-.281-.853A2.754,2.754,0,0,1,229.228.176a3.374,3.374,0,0,1-2.285-.813A2.588,2.588,0,0,1,226-2.681a2.66,2.66,0,0,1,1.143-2.338,5.821,5.821,0,0,1,3.322-.791h.914v-.5q0-1.316-1.134-1.316a.927.927,0,0,0-1.055,1.042H226.23A2.655,2.655,0,0,1,227.4-8.825a4.931,4.931,0,0,1,2.993-.86,4.323,4.323,0,0,1,2.874.888,3.086,3.086,0,0,1,1.081,2.435v4.21a4.311,4.311,0,0,0,.4,2V0Zm-1.854-1.934a1.652,1.652,0,0,0,.918-.237,1.487,1.487,0,0,0,.523-.536V-4.228h-.861q-1.547,0-1.547,1.389a.848.848,0,0,0,.272.655A.986.986,0,0,0,229.939-1.934Zm8.771-7.576.1,1.116a3.225,3.225,0,0,1,2.716-1.292,2.713,2.713,0,0,1,2.219.888,4.226,4.226,0,0,1,.76,2.672V0h-2.971V-6a1.6,1.6,0,0,0-.29-1.059,1.342,1.342,0,0,0-1.055-.338,1.413,1.413,0,0,0-1.292.686V0h-2.962V-9.51Zm11.224,5.985,1.5-5.985h3.12L251.455,0h-3.023l-3.1-9.51h3.129ZM260.666,0a3.344,3.344,0,0,1-.281-.853A2.754,2.754,0,0,1,258.1.176a3.374,3.374,0,0,1-2.285-.813,2.588,2.588,0,0,1-.94-2.043,2.66,2.66,0,0,1,1.143-2.338,5.821,5.821,0,0,1,3.322-.791h.914v-.5q0-1.316-1.134-1.316a.927.927,0,0,0-1.055,1.042H255.1a2.655,2.655,0,0,1,1.173-2.239,4.931,4.931,0,0,1,2.993-.86,4.323,4.323,0,0,1,2.874.888,3.086,3.086,0,0,1,1.081,2.435v4.21a4.311,4.311,0,0,0,.4,2V0Zm-1.854-1.934a1.652,1.652,0,0,0,.918-.237,1.487,1.487,0,0,0,.523-.536V-4.228h-.861q-1.547,0-1.547,1.389a.848.848,0,0,0,.272.655A.986.986,0,0,0,258.812-1.934Zm11.03-.738a.684.684,0,0,0-.4-.606,6.016,6.016,0,0,0-1.5-.475,6.853,6.853,0,0,1-1.828-.646,3.062,3.062,0,0,1-1.1-.971,2.319,2.319,0,0,1-.378-1.31,2.628,2.628,0,0,1,1.081-2.158,4.453,4.453,0,0,1,2.83-.848,4.934,4.934,0,0,1,3.023.853,2.666,2.666,0,0,1,1.143,2.241h-2.971q0-1.143-1.2-1.143a1.194,1.194,0,0,0-.782.259.8.8,0,0,0-.316.646.737.737,0,0,0,.387.642,3.654,3.654,0,0,0,1.235.4,10.671,10.671,0,0,1,1.49.378A2.706,2.706,0,0,1,272.7-2.76a2.491,2.491,0,0,1-1.156,2.118,5.068,5.068,0,0,1-2.993.817,5.172,5.172,0,0,1-2.18-.439,3.645,3.645,0,0,1-1.494-1.2,2.707,2.707,0,0,1-.536-1.591h2.769a1.145,1.145,0,0,0,.439.962,1.808,1.808,0,0,0,1.081.3,1.422,1.422,0,0,0,.91-.246A.787.787,0,0,0,269.842-2.672Zm8.912-2.285a12.532,12.532,0,0,1-.606,3.92,10.008,10.008,0,0,1-1.674,3.186,5.574,5.574,0,0,1-2.307,1.806L273.6,2.5a5.787,5.787,0,0,0,1.89-2.812,13.577,13.577,0,0,0,.694-4.368v-.536a14.051,14.051,0,0,0-.672-4.588,5.706,5.706,0,0,0-1.912-2.848l.563-1.459a5.676,5.676,0,0,1,2.29,1.789,9.885,9.885,0,0,1,1.67,3.138,12.426,12.426,0,0,1,.628,3.845Z" transform="translate(772 3143)" fill="#12263f"/>
    <path id="Trazado_213906" data-name="Trazado 213906" d="M10,0H349a10,10,0,0,1,10,10V40a10,10,0,0,1-10,10H10A10,10,0,0,1,0,40V10A10,10,0,0,1,10,0Z" transform="translate(705 3179)" fill="#e8e8e8"/>
    <path id="Trazado_213907" data-name="Trazado 213907" d="M10,0H41A10,10,0,0,1,51,10V41A10,10,0,0,1,41,51H10A10,10,0,0,1,0,41V10A10,10,0,0,1,10,0Z" transform="translate(705 3179)" fill="#00a3be"/>
    <path id="Trazado_213908" data-name="Trazado 213908" d="M1.611,0V-21.328H9.272a10.849,10.849,0,0,1,6.262,1.509,5.02,5.02,0,0,1,2.146,4.38,5.075,5.075,0,0,1-.762,2.827,4.439,4.439,0,0,1-2.241,1.729,4.5,4.5,0,0,1,2.563,1.641,4.77,4.77,0,0,1,.894,2.93A5.647,5.647,0,0,1,16.15-1.6,9.446,9.446,0,0,1,10.269,0ZM6.753-9.067v5.112h3.369a3.2,3.2,0,0,0,2.139-.637,2.23,2.23,0,0,0,.747-1.794,2.364,2.364,0,0,0-2.651-2.681Zm0-3.369H9.434a3.808,3.808,0,0,0,2.4-.617,2.189,2.189,0,0,0,.718-1.778,2.3,2.3,0,0,0-.776-1.947,4.156,4.156,0,0,0-2.5-.595H6.753Z" transform="translate(721 3216)" fill="#fff"/>
    <path id="Trazado_213909" data-name="Trazado 213909" d="M9.026-5.1H4.052V0H.967V-12.8H9.527v2.382H4.052v2.944H9.026ZM13.8,0H10.828V-9.51H13.8ZM10.652-11.971a1.334,1.334,0,0,1,.457-1.043,1.718,1.718,0,0,1,1.187-.407,1.718,1.718,0,0,1,1.187.407,1.334,1.334,0,0,1,.457,1.043,1.334,1.334,0,0,1-.457,1.043,1.718,1.718,0,0,1-1.187.407,1.718,1.718,0,0,1-1.187-.407A1.334,1.334,0,0,1,10.652-11.971ZM18.747,0H15.776V-13.5h2.971ZM20.2-4.843a5.613,5.613,0,0,1,.554-2.536,3.96,3.96,0,0,1,1.591-1.709,4.791,4.791,0,0,1,2.435-.6,4.373,4.373,0,0,1,3.366,1.323,5.076,5.076,0,0,1,1.23,3.6v.105a4.925,4.925,0,0,1-1.235,3.529A4.384,4.384,0,0,1,24.794.176a4.434,4.434,0,0,1-3.261-1.217,4.761,4.761,0,0,1-1.327-3.3Zm2.962.185a3.538,3.538,0,0,0,.413,1.934,1.376,1.376,0,0,0,1.222.615q1.582,0,1.617-2.435v-.3q0-2.558-1.635-2.558-1.485,0-1.608,2.206Zm12.5,1.986a.684.684,0,0,0-.4-.606,6.016,6.016,0,0,0-1.5-.475A6.853,6.853,0,0,1,31.931-4.4a3.062,3.062,0,0,1-1.1-.971,2.319,2.319,0,0,1-.378-1.31,2.628,2.628,0,0,1,1.081-2.158,4.453,4.453,0,0,1,2.83-.848,4.934,4.934,0,0,1,3.023.853,2.666,2.666,0,0,1,1.143,2.241H35.561q0-1.143-1.2-1.143a1.194,1.194,0,0,0-.782.259.8.8,0,0,0-.316.646.737.737,0,0,0,.387.642,3.654,3.654,0,0,0,1.235.4,10.671,10.671,0,0,1,1.49.378A2.706,2.706,0,0,1,38.514-2.76,2.491,2.491,0,0,1,37.358-.642a5.068,5.068,0,0,1-2.993.817,5.172,5.172,0,0,1-2.18-.439,3.645,3.645,0,0,1-1.494-1.2,2.707,2.707,0,0,1-.536-1.591h2.769a1.145,1.145,0,0,0,.439.962,1.808,1.808,0,0,0,1.081.3,1.422,1.422,0,0,0,.91-.246A.787.787,0,0,0,35.657-2.672Zm3.867-2.171a5.613,5.613,0,0,1,.554-2.536,3.96,3.96,0,0,1,1.591-1.709,4.791,4.791,0,0,1,2.435-.6A4.373,4.373,0,0,1,47.47-8.363a5.076,5.076,0,0,1,1.23,3.6v.105a4.925,4.925,0,0,1-1.235,3.529A4.384,4.384,0,0,1,44.121.176,4.434,4.434,0,0,1,40.86-1.042a4.761,4.761,0,0,1-1.327-3.3Zm2.962.185A3.538,3.538,0,0,0,42.9-2.725a1.376,1.376,0,0,0,1.222.615q1.582,0,1.617-2.435v-.3Q45.738-7.4,44.1-7.4q-1.485,0-1.608,2.206ZM50.66,0V-7.453H49.28V-9.51h1.38v-.756a3.286,3.286,0,0,1,.958-2.522,3.785,3.785,0,0,1,2.689-.9A5.89,5.89,0,0,1,55.7-13.5l.009,2.18a2.706,2.706,0,0,0-.729-.079q-1.345,0-1.345,1.16v.729h1.854v2.057H53.631V0Zm9.1,0H56.777V-9.51h2.979ZM58.649-13.324h3.129l-2.443,2.76-2.417,0ZM67.017,0a3.344,3.344,0,0,1-.281-.853A2.754,2.754,0,0,1,64.45.176a3.374,3.374,0,0,1-2.285-.813,2.588,2.588,0,0,1-.94-2.043,2.66,2.66,0,0,1,1.143-2.338,5.821,5.821,0,0,1,3.322-.791H66.6v-.5q0-1.316-1.134-1.316a.927.927,0,0,0-1.055,1.042H61.453a2.655,2.655,0,0,1,1.173-2.239,4.931,4.931,0,0,1,2.993-.86,4.323,4.323,0,0,1,2.874.888,3.086,3.086,0,0,1,1.081,2.435v4.21a4.311,4.311,0,0,0,.4,2V0ZM65.162-1.934a1.652,1.652,0,0,0,.918-.237,1.487,1.487,0,0,0,.523-.536V-4.228h-.861q-1.547,0-1.547,1.389a.848.848,0,0,0,.272.655A.986.986,0,0,0,65.162-1.934ZM79.5-4.148,81.079-9.51h3.173l-3.876,11.1-.167.4a2.944,2.944,0,0,1-2.918,1.846,4.642,4.642,0,0,1-1.222-.175V1.556h.387a2.026,2.026,0,0,0,.954-.18A1.094,1.094,0,0,0,77.9.729L78.135.1,74.83-9.51h3.164Zm13.8.624L94.8-9.51h3.12L94.816,0H91.793l-3.1-9.51h3.129ZM104.027,0a3.344,3.344,0,0,1-.281-.853A2.754,2.754,0,0,1,101.461.176a3.374,3.374,0,0,1-2.285-.813,2.588,2.588,0,0,1-.94-2.043,2.66,2.66,0,0,1,1.143-2.338A5.821,5.821,0,0,1,102.7-5.81h.914v-.5q0-1.316-1.134-1.316a.927.927,0,0,0-1.055,1.042H98.464a2.655,2.655,0,0,1,1.173-2.239,4.931,4.931,0,0,1,2.993-.86A4.323,4.323,0,0,1,105.5-8.8a3.086,3.086,0,0,1,1.081,2.435v4.21a4.311,4.311,0,0,0,.4,2V0Zm-1.854-1.934a1.652,1.652,0,0,0,.918-.237,1.487,1.487,0,0,0,.523-.536V-4.228h-.861q-1.547,0-1.547,1.389a.848.848,0,0,0,.272.655A.986.986,0,0,0,102.173-1.934ZM111.349,0h-2.971V-13.5h2.971Zm1.45-4.843a5.613,5.613,0,0,1,.554-2.536,3.96,3.96,0,0,1,1.591-1.709,4.791,4.791,0,0,1,2.435-.6,4.373,4.373,0,0,1,3.366,1.323,5.076,5.076,0,0,1,1.23,3.6v.105a4.925,4.925,0,0,1-1.235,3.529A4.384,4.384,0,0,1,117.4.176a4.434,4.434,0,0,1-3.261-1.217,4.761,4.761,0,0,1-1.327-3.3Zm2.962.185a3.538,3.538,0,0,0,.413,1.934,1.376,1.376,0,0,0,1.222.615q1.582,0,1.617-2.435v-.3q0-2.558-1.635-2.558-1.485,0-1.608,2.206Zm13.271-2.171-.976-.07a1.752,1.752,0,0,0-1.793.879V0H123.3V-9.51h2.777l.1,1.222a2.294,2.294,0,0,1,2.083-1.4,2.888,2.888,0,0,1,.826.105Zm5.5,7a4.889,4.889,0,0,1-3.542-1.305,4.507,4.507,0,0,1-1.354-3.4v-.246a5.84,5.84,0,0,1,.541-2.575,3.955,3.955,0,0,1,1.578-1.727,4.763,4.763,0,0,1,2.461-.611,4.117,4.117,0,0,1,3.164,1.244,4.887,4.887,0,0,1,1.16,3.467v1.151h-5.889a2.135,2.135,0,0,0,.694,1.257,2.066,2.066,0,0,0,1.389.457,2.662,2.662,0,0,0,2.2-.984l1.354,1.6a3.784,3.784,0,0,1-1.569,1.217A5.3,5.3,0,0,1,134.534.176ZM134.2-7.4q-1.3,0-1.547,1.723h2.988v-.229a1.467,1.467,0,0,0-.36-1.1A1.434,1.434,0,0,0,134.2-7.4Zm10.512,4.729a.684.684,0,0,0-.4-.606,6.016,6.016,0,0,0-1.5-.475,6.853,6.853,0,0,1-1.828-.646,3.062,3.062,0,0,1-1.1-.971,2.319,2.319,0,0,1-.378-1.31,2.628,2.628,0,0,1,1.081-2.158,4.453,4.453,0,0,1,2.83-.848,4.934,4.934,0,0,1,3.023.853,2.666,2.666,0,0,1,1.143,2.241h-2.971q0-1.143-1.2-1.143a1.194,1.194,0,0,0-.782.259.8.8,0,0,0-.316.646.737.737,0,0,0,.387.642,3.654,3.654,0,0,0,1.235.4,10.671,10.671,0,0,1,1.49.378,2.706,2.706,0,0,1,2.145,2.646,2.491,2.491,0,0,1-1.156,2.118,5.068,5.068,0,0,1-2.993.817,5.172,5.172,0,0,1-2.18-.439,3.645,3.645,0,0,1-1.494-1.2,2.707,2.707,0,0,1-.536-1.591h2.769a1.145,1.145,0,0,0,.439.962,1.808,1.808,0,0,0,1.081.3,1.422,1.422,0,0,0,.91-.246A.787.787,0,0,0,144.712-2.672Zm12.744.563a1.317,1.317,0,0,0,.967-.338,1.241,1.241,0,0,0,.334-.945h2.777a3.288,3.288,0,0,1-1.121,2.566,4.168,4.168,0,0,1-2.887,1,4.22,4.22,0,0,1-3.27-1.3,5.125,5.125,0,0,1-1.2-3.6v-.123a5.792,5.792,0,0,1,.532-2.544,3.872,3.872,0,0,1,1.534-1.7,4.573,4.573,0,0,1,2.373-.593,4.116,4.116,0,0,1,2.944,1.028,3.647,3.647,0,0,1,1.09,2.786h-2.777A1.626,1.626,0,0,0,158.4-7a1.244,1.244,0,0,0-.967-.4q-1.151,0-1.345,1.468a10.357,10.357,0,0,0-.062,1.283,4.068,4.068,0,0,0,.343,1.986A1.187,1.187,0,0,0,157.456-2.109Zm4.957-2.733a5.613,5.613,0,0,1,.554-2.536,3.96,3.96,0,0,1,1.591-1.709,4.791,4.791,0,0,1,2.435-.6,4.373,4.373,0,0,1,3.366,1.323,5.076,5.076,0,0,1,1.23,3.6v.105a4.925,4.925,0,0,1-1.235,3.529A4.384,4.384,0,0,1,167.01.176a4.434,4.434,0,0,1-3.261-1.217,4.761,4.761,0,0,1-1.327-3.3Zm2.962.185a3.538,3.538,0,0,0,.413,1.934,1.376,1.376,0,0,0,1.222.615q1.582,0,1.617-2.435v-.3q0-2.558-1.635-2.558-1.485,0-1.608,2.206Zm13.271-2.171-.976-.07a1.752,1.752,0,0,0-1.793.879V0h-2.962V-9.51h2.777l.1,1.222a2.294,2.294,0,0,1,2.083-1.4,2.888,2.888,0,0,1,.826.105Zm9.9,2.145a5.735,5.735,0,0,1-1,3.538A3.2,3.2,0,0,1,184.852.176,2.742,2.742,0,0,1,182.7-.782V3.656h-2.962V-9.51H182.5l.088.879a2.742,2.742,0,0,1,2.241-1.055,3.224,3.224,0,0,1,2.733,1.3,5.805,5.805,0,0,1,.976,3.564Zm-2.962-.185q0-2.531-1.477-2.531a1.394,1.394,0,0,0-1.406.756V-2.9a1.439,1.439,0,0,0,1.424.791q1.415,0,1.459-2.443Zm3.894.026a5.613,5.613,0,0,1,.554-2.536,3.96,3.96,0,0,1,1.591-1.709,4.791,4.791,0,0,1,2.435-.6,4.373,4.373,0,0,1,3.366,1.323,5.076,5.076,0,0,1,1.23,3.6v.105a4.925,4.925,0,0,1-1.235,3.529A4.384,4.384,0,0,1,194.071.176a4.434,4.434,0,0,1-3.261-1.217,4.761,4.761,0,0,1-1.327-3.3Zm2.962.185a3.538,3.538,0,0,0,.413,1.934,1.376,1.376,0,0,0,1.222.615q1.582,0,1.617-2.435v-.3q0-2.558-1.635-2.558-1.485,0-1.608,2.206Zm13.271-2.171-.976-.07a1.752,1.752,0,0,0-1.793.879V0h-2.962V-9.51h2.777l.1,1.222a2.294,2.294,0,0,1,2.083-1.4,2.888,2.888,0,0,1,.826.105ZM211.869,0a3.344,3.344,0,0,1-.281-.853A2.754,2.754,0,0,1,209.3.176a3.374,3.374,0,0,1-2.285-.813,2.588,2.588,0,0,1-.94-2.043,2.66,2.66,0,0,1,1.143-2.338,5.821,5.821,0,0,1,3.322-.791h.914v-.5q0-1.316-1.134-1.316a.927.927,0,0,0-1.055,1.042h-2.962a2.655,2.655,0,0,1,1.173-2.239,4.931,4.931,0,0,1,2.993-.86,4.323,4.323,0,0,1,2.874.888,3.086,3.086,0,0,1,1.081,2.435v4.21a4.311,4.311,0,0,0,.4,2V0Zm-1.854-1.934a1.652,1.652,0,0,0,.918-.237,1.487,1.487,0,0,0,.523-.536V-4.228h-.861q-1.547,0-1.547,1.389a.848.848,0,0,0,.272.655A.986.986,0,0,0,210.015-1.934Zm9.5-9.94V-9.51h1.564v2.057h-1.564V-3.1a1.111,1.111,0,0,0,.193.747,1.037,1.037,0,0,0,.765.211,4.345,4.345,0,0,0,.738-.053V-.079a5.466,5.466,0,0,1-1.67.255,3.1,3.1,0,0,1-2.259-.721,2.954,2.954,0,0,1-.729-2.188v-4.72h-1.213V-9.51h1.213v-2.364ZM225.369,0H222.4V-9.51h2.971Zm-3.146-11.971a1.334,1.334,0,0,1,.457-1.043,1.718,1.718,0,0,1,1.187-.407,1.718,1.718,0,0,1,1.187.407,1.334,1.334,0,0,1,.457,1.043,1.334,1.334,0,0,1-.457,1.043,1.718,1.718,0,0,1-1.187.407,1.718,1.718,0,0,1-1.187-.407A1.334,1.334,0,0,1,222.223-11.971Zm8.763,8.446,1.5-5.985h3.12L232.506,0h-3.023l-3.1-9.51h3.129Zm5-1.318a5.613,5.613,0,0,1,.554-2.536,3.96,3.96,0,0,1,1.591-1.709,4.791,4.791,0,0,1,2.435-.6,4.373,4.373,0,0,1,3.366,1.323,5.076,5.076,0,0,1,1.23,3.6v.105a4.925,4.925,0,0,1-1.235,3.529A4.384,4.384,0,0,1,240.583.176a4.434,4.434,0,0,1-3.261-1.217A4.761,4.761,0,0,1,236-4.342Zm2.962.185a3.538,3.538,0,0,0,.413,1.934,1.376,1.376,0,0,0,1.222.615q1.582,0,1.617-2.435v-.3q0-2.558-1.635-2.558-1.485,0-1.608,2.206Zm12.5,1.986a.684.684,0,0,0-.4-.606,6.016,6.016,0,0,0-1.5-.475A6.853,6.853,0,0,1,247.72-4.4a3.062,3.062,0,0,1-1.1-.971,2.319,2.319,0,0,1-.378-1.31,2.628,2.628,0,0,1,1.081-2.158,4.453,4.453,0,0,1,2.83-.848,4.934,4.934,0,0,1,3.023.853,2.666,2.666,0,0,1,1.143,2.241H251.35q0-1.143-1.2-1.143a1.194,1.194,0,0,0-.782.259.8.8,0,0,0-.316.646.737.737,0,0,0,.387.642,3.654,3.654,0,0,0,1.235.4,10.671,10.671,0,0,1,1.49.378A2.706,2.706,0,0,1,254.3-2.76a2.491,2.491,0,0,1-1.156,2.118,5.068,5.068,0,0,1-2.993.817,5.172,5.172,0,0,1-2.18-.439,3.645,3.645,0,0,1-1.494-1.2,2.707,2.707,0,0,1-.536-1.591h2.769a1.145,1.145,0,0,0,.439.962,1.808,1.808,0,0,0,1.081.3,1.422,1.422,0,0,0,.91-.246A.787.787,0,0,0,251.446-2.672Z" transform="translate(782 3211)" fill="#12263f"/>
    <path id="Trazado_213902" data-name="Trazado 213902" d="M10,0H349a10,10,0,0,1,10,10V40a10,10,0,0,1-10,10H10A10,10,0,0,1,0,40V10A10,10,0,0,1,10,0Z" transform="translate(705 3247)" fill="#e8e8e8"/>
    <path id="Trazado_213903" data-name="Trazado 213903" d="M10,0H41A10,10,0,0,1,51,10V41A10,10,0,0,1,41,51H10A10,10,0,0,1,0,41V10A10,10,0,0,1,10,0Z" transform="translate(705 3247)" fill="#00a3be"/>
    <path id="Trazado_213904" data-name="Trazado 213904" d="M18.867-7.222a7.789,7.789,0,0,1-1.2,3.933A7.249,7.249,0,0,1,14.583-.645a10.5,10.5,0,0,1-4.534.938A8.375,8.375,0,0,1,3.428-2.446Q1.011-5.186,1.011-10.181v-1.055A12.91,12.91,0,0,1,2.1-16.721a8.269,8.269,0,0,1,3.142-3.633A8.767,8.767,0,0,1,9.99-21.636a9.193,9.193,0,0,1,6.24,2.043,8.074,8.074,0,0,1,2.681,5.632H13.784a3.82,3.82,0,0,0-.981-2.8,4.037,4.037,0,0,0-2.812-.85,3.071,3.071,0,0,0-2.812,1.436,9.226,9.226,0,0,0-.937,4.585v1.509A10.209,10.209,0,0,0,7.1-5.2a3.136,3.136,0,0,0,2.952,1.465,3.948,3.948,0,0,0,2.71-.835,3.544,3.544,0,0,0,1-2.651Z" transform="translate(721 3284)" fill="#fff"/>
    <path id="Trazado_213905" data-name="Trazado 213905" d="M11.8-6.135a7.546,7.546,0,0,1-.694,3.313A5.132,5.132,0,0,1,9.136-.6,5.494,5.494,0,0,1,6.223.176a5.572,5.572,0,0,1-2.9-.751A5.123,5.123,0,0,1,1.349-2.725,7.329,7.329,0,0,1,.606-5.933v-.721A7.58,7.58,0,0,1,1.3-9.971,5.119,5.119,0,0,1,3.274-12.19a5.533,5.533,0,0,1,2.931-.782,5.479,5.479,0,0,1,2.9.773A5.211,5.211,0,0,1,11.087-10,7.362,7.362,0,0,1,11.8-6.724ZM8.666-6.671a5.381,5.381,0,0,0-.637-2.9,2.044,2.044,0,0,0-1.824-.989q-2.32,0-2.452,3.48l-.009.94a5.535,5.535,0,0,0,.624,2.892A2.041,2.041,0,0,0,6.223-2.232a2.016,2.016,0,0,0,1.8-.993,5.383,5.383,0,0,0,.642-2.856Zm13.421,2a5.8,5.8,0,0,1-.967,3.595A3.238,3.238,0,0,1,18.4.176,2.81,2.81,0,0,1,16.058-.976L15.935,0H13.28V-13.5h2.962v4.755a2.711,2.711,0,0,1,2.136-.94A3.239,3.239,0,0,1,21.12-8.411a5.826,5.826,0,0,1,.967,3.586Zm-2.971-.189a3.866,3.866,0,0,0-.365-1.952A1.229,1.229,0,0,0,17.631-7.4a1.418,1.418,0,0,0-1.389.763v3.773a1.426,1.426,0,0,0,1.406.755,1.258,1.258,0,0,0,1.327-1.018A7.309,7.309,0,0,0,19.116-4.865ZM26.578-9.51V.325a3.452,3.452,0,0,1-.967,2.6,3.714,3.714,0,0,1-2.672.914,6.308,6.308,0,0,1-1.4-.149V1.45a5.667,5.667,0,0,0,.835.079A1.084,1.084,0,0,0,23.607.308V-9.51Zm-3.19-2.461a1.334,1.334,0,0,1,.457-1.043,1.718,1.718,0,0,1,1.187-.407,1.718,1.718,0,0,1,1.187.407,1.334,1.334,0,0,1,.457,1.043,1.334,1.334,0,0,1-.457,1.043,1.718,1.718,0,0,1-1.187.407,1.718,1.718,0,0,1-1.187-.407A1.334,1.334,0,0,1,23.388-11.971ZM32.854.176a4.889,4.889,0,0,1-3.542-1.305,4.507,4.507,0,0,1-1.354-3.4v-.246A5.84,5.84,0,0,1,28.5-7.348a3.955,3.955,0,0,1,1.578-1.727,4.763,4.763,0,0,1,2.461-.611A4.117,4.117,0,0,1,35.7-8.442a4.887,4.887,0,0,1,1.16,3.467v1.151H30.973a2.135,2.135,0,0,0,.694,1.257,2.066,2.066,0,0,0,1.389.457,2.662,2.662,0,0,0,2.2-.984l1.354,1.6A3.784,3.784,0,0,1,35.038-.277,5.3,5.3,0,0,1,32.854.176ZM32.52-7.4q-1.3,0-1.547,1.723h2.988v-.229a1.467,1.467,0,0,0-.36-1.1A1.434,1.434,0,0,0,32.52-7.4ZM41.5-11.874V-9.51h1.564v2.057H41.5V-3.1a1.111,1.111,0,0,0,.193.747,1.037,1.037,0,0,0,.765.211A4.345,4.345,0,0,0,43.2-2.2V-.079a5.466,5.466,0,0,1-1.67.255A3.1,3.1,0,0,1,39.27-.545a2.954,2.954,0,0,1-.729-2.188v-4.72H37.327V-9.51H38.54v-2.364ZM47.355,0H44.385V-9.51h2.971ZM44.209-11.971a1.334,1.334,0,0,1,.457-1.043,1.718,1.718,0,0,1,1.187-.407,1.718,1.718,0,0,1,1.187.407,1.334,1.334,0,0,1,.457,1.043,1.334,1.334,0,0,1-.457,1.043,1.718,1.718,0,0,1-1.187.407,1.718,1.718,0,0,1-1.187-.407A1.334,1.334,0,0,1,44.209-11.971Zm8.763,8.446,1.5-5.985h3.12L54.492,0H51.469l-3.1-9.51H51.5Zm5-1.318a5.613,5.613,0,0,1,.554-2.536,3.96,3.96,0,0,1,1.591-1.709,4.791,4.791,0,0,1,2.435-.6,4.373,4.373,0,0,1,3.366,1.323,5.076,5.076,0,0,1,1.23,3.6v.105a4.925,4.925,0,0,1-1.235,3.529A4.384,4.384,0,0,1,62.569.176a4.434,4.434,0,0,1-3.261-1.217,4.761,4.761,0,0,1-1.327-3.3Zm2.962.185a3.538,3.538,0,0,0,.413,1.934,1.376,1.376,0,0,0,1.222.615q1.582,0,1.617-2.435v-.3q0-2.558-1.635-2.558-1.485,0-1.608,2.206Zm12.5,1.986a.684.684,0,0,0-.4-.606,6.016,6.016,0,0,0-1.5-.475A6.853,6.853,0,0,1,69.706-4.4a3.062,3.062,0,0,1-1.1-.971,2.319,2.319,0,0,1-.378-1.31,2.628,2.628,0,0,1,1.081-2.158,4.453,4.453,0,0,1,2.83-.848,4.934,4.934,0,0,1,3.023.853,2.666,2.666,0,0,1,1.143,2.241H73.336q0-1.143-1.2-1.143a1.194,1.194,0,0,0-.782.259.8.8,0,0,0-.316.646.737.737,0,0,0,.387.642,3.654,3.654,0,0,0,1.235.4,10.671,10.671,0,0,1,1.49.378A2.706,2.706,0,0,1,76.289-2.76,2.491,2.491,0,0,1,75.133-.642a5.068,5.068,0,0,1-2.993.817,5.172,5.172,0,0,1-2.18-.439,3.645,3.645,0,0,1-1.494-1.2,2.707,2.707,0,0,1-.536-1.591H70.7a1.145,1.145,0,0,0,.439.962,1.808,1.808,0,0,0,1.081.3,1.422,1.422,0,0,0,.91-.246A.787.787,0,0,0,73.433-2.672ZM86.757.176a4.889,4.889,0,0,1-3.542-1.305,4.507,4.507,0,0,1-1.354-3.4v-.246A5.84,5.84,0,0,1,82.4-7.348a3.955,3.955,0,0,1,1.578-1.727,4.763,4.763,0,0,1,2.461-.611A4.117,4.117,0,0,1,89.6-8.442a4.887,4.887,0,0,1,1.16,3.467v1.151H84.876a2.135,2.135,0,0,0,.694,1.257,2.066,2.066,0,0,0,1.389.457,2.662,2.662,0,0,0,2.2-.984l1.354,1.6A3.784,3.784,0,0,1,88.941-.277,5.3,5.3,0,0,1,86.757.176ZM86.423-7.4q-1.3,0-1.547,1.723h2.988v-.229a1.467,1.467,0,0,0-.36-1.1A1.434,1.434,0,0,0,86.423-7.4ZM96.935-2.672a.684.684,0,0,0-.4-.606,6.016,6.016,0,0,0-1.5-.475A6.853,6.853,0,0,1,93.208-4.4a3.062,3.062,0,0,1-1.1-.971,2.319,2.319,0,0,1-.378-1.31,2.628,2.628,0,0,1,1.081-2.158,4.453,4.453,0,0,1,2.83-.848,4.934,4.934,0,0,1,3.023.853,2.666,2.666,0,0,1,1.143,2.241H96.838q0-1.143-1.2-1.143a1.194,1.194,0,0,0-.782.259.8.8,0,0,0-.316.646.737.737,0,0,0,.387.642,3.654,3.654,0,0,0,1.235.4,10.671,10.671,0,0,1,1.49.378A2.706,2.706,0,0,1,99.791-2.76,2.491,2.491,0,0,1,98.635-.642a5.068,5.068,0,0,1-2.993.817,5.172,5.172,0,0,1-2.18-.439,3.645,3.645,0,0,1-1.494-1.2,2.707,2.707,0,0,1-.536-1.591H94.2a1.145,1.145,0,0,0,.439.962,1.808,1.808,0,0,0,1.081.3,1.422,1.422,0,0,0,.91-.246A.787.787,0,0,0,96.935-2.672Zm7.69-9.2V-9.51h1.564v2.057h-1.564V-3.1a1.111,1.111,0,0,0,.193.747,1.037,1.037,0,0,0,.765.211,4.345,4.345,0,0,0,.738-.053V-.079a5.466,5.466,0,0,1-1.67.255,3.1,3.1,0,0,1-2.259-.721,2.954,2.954,0,0,1-.729-2.188v-4.72H100.45V-9.51h1.213v-2.364Zm8.481,5.045-.976-.07a1.752,1.752,0,0,0-1.793.879V0h-2.962V-9.51h2.777l.1,1.222a2.294,2.294,0,0,1,2.083-1.4,2.888,2.888,0,0,1,.826.105ZM119.268,0a3.344,3.344,0,0,1-.281-.853A2.754,2.754,0,0,1,116.7.176a3.374,3.374,0,0,1-2.285-.813,2.588,2.588,0,0,1-.94-2.043,2.66,2.66,0,0,1,1.143-2.338,5.821,5.821,0,0,1,3.322-.791h.914v-.5q0-1.316-1.134-1.316a.927.927,0,0,0-1.055,1.042H113.7a2.655,2.655,0,0,1,1.173-2.239,4.931,4.931,0,0,1,2.993-.86,4.323,4.323,0,0,1,2.874.888,3.086,3.086,0,0,1,1.081,2.435v4.21a4.311,4.311,0,0,0,.4,2V0Zm-1.854-1.934a1.652,1.652,0,0,0,.918-.237,1.487,1.487,0,0,0,.523-.536V-4.228h-.861q-1.547,0-1.547,1.389a.848.848,0,0,0,.272.655A.986.986,0,0,0,117.413-1.934Zm9.5-9.94V-9.51h1.564v2.057h-1.564V-3.1a1.111,1.111,0,0,0,.193.747,1.037,1.037,0,0,0,.765.211,4.345,4.345,0,0,0,.738-.053V-.079a5.466,5.466,0,0,1-1.67.255,3.1,3.1,0,0,1-2.259-.721,2.954,2.954,0,0,1-.729-2.188v-4.72h-1.213V-9.51h1.213v-2.364Zm7.33,12.05A4.889,4.889,0,0,1,130.7-1.129a4.507,4.507,0,0,1-1.354-3.4v-.246a5.84,5.84,0,0,1,.541-2.575,3.955,3.955,0,0,1,1.578-1.727,4.763,4.763,0,0,1,2.461-.611,4.117,4.117,0,0,1,3.164,1.244,4.887,4.887,0,0,1,1.16,3.467v1.151h-5.889a2.135,2.135,0,0,0,.694,1.257,2.066,2.066,0,0,0,1.389.457,2.662,2.662,0,0,0,2.2-.984L138-1.494a3.784,3.784,0,0,1-1.569,1.217A5.3,5.3,0,0,1,134.244.176ZM133.91-7.4q-1.3,0-1.547,1.723h2.988v-.229a1.467,1.467,0,0,0-.36-1.1A1.434,1.434,0,0,0,133.91-7.4Zm-.035-6.108H137l-2.443,2.76-2.417,0ZM139.1-4.825a6.421,6.421,0,0,1,.475-2.549,3.821,3.821,0,0,1,1.362-1.709,3.591,3.591,0,0,1,2.065-.6,2.855,2.855,0,0,1,2.32,1l.105-.826h2.689V-.36a4.009,4.009,0,0,1-.584,2.184,3.75,3.75,0,0,1-1.692,1.424,6.219,6.219,0,0,1-2.566.5,5.365,5.365,0,0,1-2.026-.4,3.657,3.657,0,0,1-1.5-1.028L140.985.58a2.716,2.716,0,0,0,2.18.976,1.764,1.764,0,0,0,1.969-2.021v-.3a2.781,2.781,0,0,1-2.153.94,3.437,3.437,0,0,1-2.812-1.332A5.517,5.517,0,0,1,139.1-4.72Zm2.971.185a3.383,3.383,0,0,0,.439,1.85,1.386,1.386,0,0,0,1.23.681,1.573,1.573,0,0,0,1.4-.642v-4a1.534,1.534,0,0,0-1.38-.65,1.4,1.4,0,0,0-1.239.708A3.858,3.858,0,0,0,142.066-4.641ZM152.921,0H149.95V-9.51h2.971Zm-3.146-11.971a1.334,1.334,0,0,1,.457-1.043,1.718,1.718,0,0,1,1.187-.407,1.718,1.718,0,0,1,1.187.407,1.334,1.334,0,0,1,.457,1.043,1.334,1.334,0,0,1-.457,1.043,1.718,1.718,0,0,1-1.187.407,1.718,1.718,0,0,1-1.187-.407A1.334,1.334,0,0,1,149.774-11.971Zm8.991,9.861a1.317,1.317,0,0,0,.967-.338,1.241,1.241,0,0,0,.334-.945h2.777a3.288,3.288,0,0,1-1.121,2.566,4.168,4.168,0,0,1-2.887,1,4.22,4.22,0,0,1-3.27-1.3,5.125,5.125,0,0,1-1.2-3.6v-.123A5.792,5.792,0,0,1,154.9-7.4a3.872,3.872,0,0,1,1.534-1.7,4.573,4.573,0,0,1,2.373-.593,4.116,4.116,0,0,1,2.944,1.028,3.647,3.647,0,0,1,1.09,2.786h-2.777A1.626,1.626,0,0,0,159.706-7a1.244,1.244,0,0,0-.967-.4q-1.151,0-1.345,1.468a10.357,10.357,0,0,0-.062,1.283,4.068,4.068,0,0,0,.343,1.986A1.187,1.187,0,0,0,158.766-2.109Zm4.957-2.733a5.613,5.613,0,0,1,.554-2.536,3.96,3.96,0,0,1,1.591-1.709,4.791,4.791,0,0,1,2.435-.6,4.373,4.373,0,0,1,3.366,1.323,5.076,5.076,0,0,1,1.23,3.6v.105a4.925,4.925,0,0,1-1.235,3.529A4.384,4.384,0,0,1,168.319.176a4.434,4.434,0,0,1-3.261-1.217,4.761,4.761,0,0,1-1.327-3.3Zm2.962.185a3.538,3.538,0,0,0,.413,1.934,1.376,1.376,0,0,0,1.222.615q1.582,0,1.617-2.435v-.3q0-2.558-1.635-2.558-1.485,0-1.608,2.206Zm12.5,1.986a.684.684,0,0,0-.4-.606,6.016,6.016,0,0,0-1.5-.475,6.853,6.853,0,0,1-1.828-.646,3.062,3.062,0,0,1-1.1-.971,2.319,2.319,0,0,1-.378-1.31,2.628,2.628,0,0,1,1.081-2.158,4.453,4.453,0,0,1,2.83-.848,4.934,4.934,0,0,1,3.023.853,2.666,2.666,0,0,1,1.143,2.241h-2.971q0-1.143-1.2-1.143a1.194,1.194,0,0,0-.782.259.8.8,0,0,0-.316.646.737.737,0,0,0,.387.642,3.654,3.654,0,0,0,1.235.4,10.671,10.671,0,0,1,1.49.378,2.706,2.706,0,0,1,2.145,2.646,2.491,2.491,0,0,1-1.156,2.118,5.068,5.068,0,0,1-2.993.817,5.172,5.172,0,0,1-2.18-.439,3.645,3.645,0,0,1-1.494-1.2,2.707,2.707,0,0,1-.536-1.591h2.769a1.145,1.145,0,0,0,.439.962,1.808,1.808,0,0,0,1.081.3,1.422,1.422,0,0,0,.91-.246A.787.787,0,0,0,179.183-2.672Z" transform="translate(809 3279)" fill="#12263f"/>
    <g id="Grupo_181469" data-name="Grupo 181469" transform="translate(1020 3599)">
      <rect id="Rectángulo_56729" data-name="Rectángulo 56729" width="359" height="50" rx="10" fill="#e8e8e8"/>
      <rect id="Rectángulo_56730" data-name="Rectángulo 56730" width="51" height="51" rx="10" fill="#32d9cb"/>
    </g>
    <path id="Trazado_213894" data-name="Trazado 213894" d="M1.611,0V-21.328h6.87a10.106,10.106,0,0,1,5.083,1.282,9.009,9.009,0,0,1,3.523,3.618,10.924,10.924,0,0,1,1.282,5.237v.981a10.987,10.987,0,0,1-1.238,5.251,9.048,9.048,0,0,1-3.486,3.633A9.884,9.884,0,0,1,8.628,0ZM6.753-17.358v13.4H8.54a4,4,0,0,0,3.4-1.575,7.717,7.717,0,0,0,1.187-4.68v-.923a7.653,7.653,0,0,0-1.187-4.658,4.069,4.069,0,0,0-3.457-1.567Z" transform="translate(1034 3636)" fill="#12263f"/>
    <path id="Trazado_213895" data-name="Trazado 213895" d="M8.9-5.432H4.052v3.059h5.73V0H.967V-12.8H9.8v2.382H4.052v2.7H8.9Zm6.979,2.76a.684.684,0,0,0-.4-.606,6.016,6.016,0,0,0-1.5-.475A6.853,6.853,0,0,1,12.155-4.4a3.062,3.062,0,0,1-1.1-.971,2.319,2.319,0,0,1-.378-1.31A2.628,2.628,0,0,1,11.76-8.837a4.453,4.453,0,0,1,2.83-.848,4.934,4.934,0,0,1,3.023.853,2.666,2.666,0,0,1,1.143,2.241H15.785q0-1.143-1.2-1.143a1.194,1.194,0,0,0-.782.259.8.8,0,0,0-.316.646.737.737,0,0,0,.387.642,3.654,3.654,0,0,0,1.235.4,10.671,10.671,0,0,1,1.49.378A2.706,2.706,0,0,1,18.738-2.76,2.491,2.491,0,0,1,17.583-.642,5.068,5.068,0,0,1,14.59.176a5.172,5.172,0,0,1-2.18-.439,3.645,3.645,0,0,1-1.494-1.2A2.707,2.707,0,0,1,10.38-3.05h2.769a1.145,1.145,0,0,0,.439.962,1.808,1.808,0,0,0,1.081.3,1.422,1.422,0,0,0,.91-.246A.787.787,0,0,0,15.882-2.672Zm7.69-9.2V-9.51h1.564v2.057H23.572V-3.1a1.111,1.111,0,0,0,.193.747,1.037,1.037,0,0,0,.765.211,4.345,4.345,0,0,0,.738-.053V-.079A5.466,5.466,0,0,1,23.6.176,3.1,3.1,0,0,1,21.34-.545a2.954,2.954,0,0,1-.729-2.188v-4.72H19.4V-9.51H20.61v-2.364Zm8.481,5.045-.976-.07a1.752,1.752,0,0,0-1.793.879V0H26.323V-9.51H29.1l.1,1.222a2.294,2.294,0,0,1,2.083-1.4,2.888,2.888,0,0,1,.826.105ZM38.215,0a3.344,3.344,0,0,1-.281-.853A2.754,2.754,0,0,1,35.648.176a3.374,3.374,0,0,1-2.285-.813,2.588,2.588,0,0,1-.94-2.043,2.66,2.66,0,0,1,1.143-2.338,5.821,5.821,0,0,1,3.322-.791H37.8v-.5q0-1.316-1.134-1.316a.927.927,0,0,0-1.055,1.042H32.651a2.655,2.655,0,0,1,1.173-2.239,4.931,4.931,0,0,1,2.993-.86,4.323,4.323,0,0,1,2.874.888,3.086,3.086,0,0,1,1.081,2.435v4.21a4.311,4.311,0,0,0,.4,2V0ZM36.36-1.934a1.652,1.652,0,0,0,.918-.237,1.487,1.487,0,0,0,.523-.536V-4.228H36.94q-1.547,0-1.547,1.389a.848.848,0,0,0,.272.655A.986.986,0,0,0,36.36-1.934Zm9.5-9.94V-9.51h1.564v2.057H45.861V-3.1a1.111,1.111,0,0,0,.193.747,1.037,1.037,0,0,0,.765.211,4.345,4.345,0,0,0,.738-.053V-.079a5.466,5.466,0,0,1-1.67.255,3.1,3.1,0,0,1-2.259-.721A2.954,2.954,0,0,1,42.9-2.733v-4.72H41.687V-9.51H42.9v-2.364ZM53.191.176a4.889,4.889,0,0,1-3.542-1.305,4.507,4.507,0,0,1-1.354-3.4v-.246a5.84,5.84,0,0,1,.541-2.575,3.955,3.955,0,0,1,1.578-1.727,4.763,4.763,0,0,1,2.461-.611,4.117,4.117,0,0,1,3.164,1.244A4.887,4.887,0,0,1,57.2-4.975v1.151H51.311A2.135,2.135,0,0,0,52-2.566a2.066,2.066,0,0,0,1.389.457,2.662,2.662,0,0,0,2.2-.984l1.354,1.6A3.784,3.784,0,0,1,55.375-.277,5.3,5.3,0,0,1,53.191.176ZM52.857-7.4q-1.3,0-1.547,1.723H54.3v-.229a1.467,1.467,0,0,0-.36-1.1A1.434,1.434,0,0,0,52.857-7.4Zm5.186,2.575a6.421,6.421,0,0,1,.475-2.549A3.821,3.821,0,0,1,59.88-9.083a3.591,3.591,0,0,1,2.065-.6,2.855,2.855,0,0,1,2.32,1l.105-.826h2.689V-.36a4.009,4.009,0,0,1-.584,2.184,3.75,3.75,0,0,1-1.692,1.424,6.219,6.219,0,0,1-2.566.5,5.365,5.365,0,0,1-2.026-.4,3.657,3.657,0,0,1-1.5-1.028L59.933.58a2.716,2.716,0,0,0,2.18.976A1.764,1.764,0,0,0,64.081-.466v-.3a2.781,2.781,0,0,1-2.153.94,3.437,3.437,0,0,1-2.812-1.332A5.517,5.517,0,0,1,58.043-4.72Zm2.971.185a3.383,3.383,0,0,0,.439,1.85,1.386,1.386,0,0,0,1.23.681,1.573,1.573,0,0,0,1.4-.642v-4A1.534,1.534,0,0,0,62.7-7.4a1.4,1.4,0,0,0-1.239.708A3.858,3.858,0,0,0,61.014-4.641ZM71.868,0H68.9V-9.51h2.971ZM68.722-11.971a1.334,1.334,0,0,1,.457-1.043,1.718,1.718,0,0,1,1.187-.407,1.718,1.718,0,0,1,1.187.407,1.334,1.334,0,0,1,.457,1.043,1.334,1.334,0,0,1-.457,1.043,1.718,1.718,0,0,1-1.187.407,1.718,1.718,0,0,1-1.187-.407A1.334,1.334,0,0,1,68.722-11.971ZM79.049,0a3.344,3.344,0,0,1-.281-.853A2.754,2.754,0,0,1,76.482.176,3.374,3.374,0,0,1,74.2-.637a2.588,2.588,0,0,1-.94-2.043A2.66,2.66,0,0,1,74.4-5.019a5.821,5.821,0,0,1,3.322-.791h.914v-.5q0-1.316-1.134-1.316a.927.927,0,0,0-1.055,1.042H73.485a2.655,2.655,0,0,1,1.173-2.239,4.931,4.931,0,0,1,2.993-.86,4.323,4.323,0,0,1,2.874.888,3.086,3.086,0,0,1,1.081,2.435v4.21a4.311,4.311,0,0,0,.4,2V0ZM77.194-1.934a1.652,1.652,0,0,0,.918-.237,1.487,1.487,0,0,0,.523-.536V-4.228h-.861q-1.547,0-1.547,1.389a.848.848,0,0,0,.272.655A.986.986,0,0,0,77.194-1.934Zm11.03-.738a.684.684,0,0,0-.4-.606,6.016,6.016,0,0,0-1.5-.475A6.853,6.853,0,0,1,84.5-4.4a3.062,3.062,0,0,1-1.1-.971,2.319,2.319,0,0,1-.378-1.31A2.628,2.628,0,0,1,84.1-8.837a4.453,4.453,0,0,1,2.83-.848,4.934,4.934,0,0,1,3.023.853A2.666,2.666,0,0,1,91.1-6.592H88.128q0-1.143-1.2-1.143a1.194,1.194,0,0,0-.782.259.8.8,0,0,0-.316.646.737.737,0,0,0,.387.642,3.654,3.654,0,0,0,1.235.4,10.671,10.671,0,0,1,1.49.378A2.706,2.706,0,0,1,91.081-2.76,2.491,2.491,0,0,1,89.925-.642a5.068,5.068,0,0,1-2.993.817,5.172,5.172,0,0,1-2.18-.439,3.645,3.645,0,0,1-1.494-1.2,2.707,2.707,0,0,1-.536-1.591h2.769a1.145,1.145,0,0,0,.439.962,1.808,1.808,0,0,0,1.081.3,1.422,1.422,0,0,0,.91-.246A.787.787,0,0,0,88.225-2.672Z" transform="translate(1173 3631)" fill="#12263f"/>
    <g id="Grupo_181470" data-name="Grupo 181470" transform="translate(1020 3667)">
      <rect id="Rectángulo_56729-2" data-name="Rectángulo 56729" width="359" height="50" rx="10" fill="#e8e8e8"/>
      <rect id="Rectángulo_56730-2" data-name="Rectángulo 56730" width="51" height="51" rx="10" fill="#32d9cb"/>
    </g>
    <path id="Trazado_213896" data-name="Trazado 213896" d="M14.839-9.053H6.753v5.1H16.3V0H1.611V-21.328H16.333v3.97H6.753v4.5h8.086Z" transform="translate(1034 3704)" fill="#12263f"/>
    <path id="Trazado_213897" data-name="Trazado 213897" d="M4.052-4.342V0H.967V-12.8H6.073a5.948,5.948,0,0,1,2.6.541,4.074,4.074,0,0,1,1.749,1.538,4.2,4.2,0,0,1,.62,2.263A3.7,3.7,0,0,1,9.7-5.462,5.561,5.561,0,0,1,6.021-4.342Zm0-2.382H6.073A1.906,1.906,0,0,0,7.44-7.172a1.665,1.665,0,0,0,.47-1.266A2.059,2.059,0,0,0,7.427-9.87a1.712,1.712,0,0,0-1.318-.545H4.052Zm8.007,1.881a5.613,5.613,0,0,1,.554-2.536A3.96,3.96,0,0,1,14.2-9.088a4.791,4.791,0,0,1,2.435-.6A4.373,4.373,0,0,1,20-8.363a5.076,5.076,0,0,1,1.23,3.6v.105A4.925,4.925,0,0,1,20-1.129,4.384,4.384,0,0,1,16.655.176a4.434,4.434,0,0,1-3.261-1.217,4.761,4.761,0,0,1-1.327-3.3Zm2.962.185a3.538,3.538,0,0,0,.413,1.934,1.376,1.376,0,0,0,1.222.615q1.582,0,1.617-2.435v-.3q0-2.558-1.635-2.558-1.485,0-1.608,2.206ZM25.664,0H22.693V-13.5h2.971Zm5.054,0H27.738V-9.51h2.979ZM29.61-13.324h3.129L30.3-10.564l-2.417,0Zm6.46,1.45V-9.51h1.564v2.057H36.07V-3.1a1.111,1.111,0,0,0,.193.747,1.037,1.037,0,0,0,.765.211,4.345,4.345,0,0,0,.738-.053V-.079A5.466,5.466,0,0,1,36.1.176a3.1,3.1,0,0,1-2.259-.721,2.954,2.954,0,0,1-.729-2.188v-4.72H31.9V-9.51h1.213v-2.364ZM41.924,0H38.953V-9.51h2.971ZM38.777-11.971a1.334,1.334,0,0,1,.457-1.043,1.718,1.718,0,0,1,1.187-.407,1.718,1.718,0,0,1,1.187.407,1.334,1.334,0,0,1,.457,1.043,1.334,1.334,0,0,1-.457,1.043,1.718,1.718,0,0,1-1.187.407,1.718,1.718,0,0,1-1.187-.407A1.334,1.334,0,0,1,38.777-11.971Zm8.991,9.861a1.317,1.317,0,0,0,.967-.338,1.241,1.241,0,0,0,.334-.945h2.777A3.288,3.288,0,0,1,50.726-.826a4.168,4.168,0,0,1-2.887,1,4.22,4.22,0,0,1-3.27-1.3,5.125,5.125,0,0,1-1.2-3.6v-.123A5.792,5.792,0,0,1,43.906-7.4a3.872,3.872,0,0,1,1.534-1.7,4.573,4.573,0,0,1,2.373-.593,4.116,4.116,0,0,1,2.944,1.028,3.647,3.647,0,0,1,1.09,2.786H49.069A1.626,1.626,0,0,0,48.709-7a1.244,1.244,0,0,0-.967-.4q-1.151,0-1.345,1.468a10.357,10.357,0,0,0-.062,1.283,4.068,4.068,0,0,0,.343,1.986A1.187,1.187,0,0,0,47.769-2.109ZM58.456,0a3.344,3.344,0,0,1-.281-.853A2.754,2.754,0,0,1,55.89.176,3.374,3.374,0,0,1,53.6-.637a2.588,2.588,0,0,1-.94-2.043,2.66,2.66,0,0,1,1.143-2.338,5.821,5.821,0,0,1,3.322-.791h.914v-.5q0-1.316-1.134-1.316a.927.927,0,0,0-1.055,1.042H52.893a2.655,2.655,0,0,1,1.173-2.239,4.931,4.931,0,0,1,2.993-.86,4.323,4.323,0,0,1,2.874.888,3.086,3.086,0,0,1,1.081,2.435v4.21a4.311,4.311,0,0,0,.4,2V0ZM56.6-1.934a1.652,1.652,0,0,0,.918-.237,1.487,1.487,0,0,0,.523-.536V-4.228h-.861q-1.547,0-1.547,1.389a.848.848,0,0,0,.272.655A.986.986,0,0,0,56.6-1.934Zm11.03-.738a.684.684,0,0,0-.4-.606,6.016,6.016,0,0,0-1.5-.475A6.853,6.853,0,0,1,63.905-4.4a3.062,3.062,0,0,1-1.1-.971,2.319,2.319,0,0,1-.378-1.31A2.628,2.628,0,0,1,63.51-8.837a4.453,4.453,0,0,1,2.83-.848,4.934,4.934,0,0,1,3.023.853,2.666,2.666,0,0,1,1.143,2.241H67.535q0-1.143-1.2-1.143a1.194,1.194,0,0,0-.782.259.8.8,0,0,0-.316.646.737.737,0,0,0,.387.642,3.654,3.654,0,0,0,1.235.4,10.671,10.671,0,0,1,1.49.378A2.706,2.706,0,0,1,70.488-2.76,2.491,2.491,0,0,1,69.333-.642,5.068,5.068,0,0,1,66.34.176a5.172,5.172,0,0,1-2.18-.439,3.645,3.645,0,0,1-1.494-1.2A2.707,2.707,0,0,1,62.13-3.05H64.9a1.145,1.145,0,0,0,.439.962,1.808,1.808,0,0,0,1.081.3,1.422,1.422,0,0,0,.91-.246A.787.787,0,0,0,67.632-2.672Z" transform="translate(1184 3699)" fill="#12263f"/>
    <g id="Grupo_181471" data-name="Grupo 181471" transform="translate(1020 3735)">
      <rect id="Rectángulo_56729-3" data-name="Rectángulo 56729" width="359" height="50" rx="10" fill="#e8e8e8"/>
      <rect id="Rectángulo_56730-3" data-name="Rectángulo 56730" width="51" height="51" rx="10" fill="#32d9cb"/>
    </g>
    <path id="Trazado_213898" data-name="Trazado 213898" d="M15.044-8.5H6.753V0H1.611V-21.328H15.879v3.97H6.753v4.907h8.291Z" transform="translate(1034 3772)" fill="#12263f"/>
    <path id="Trazado_213899" data-name="Trazado 213899" d="M4.052-4.342V0H.967V-12.8H6.073a5.948,5.948,0,0,1,2.6.541,4.074,4.074,0,0,1,1.749,1.538,4.2,4.2,0,0,1,.62,2.263A3.7,3.7,0,0,1,9.7-5.462,5.561,5.561,0,0,1,6.021-4.342Zm0-2.382H6.073A1.906,1.906,0,0,0,7.44-7.172a1.665,1.665,0,0,0,.47-1.266A2.059,2.059,0,0,0,7.427-9.87a1.712,1.712,0,0,0-1.318-.545H4.052ZM18.3-6.829l-.976-.07a1.752,1.752,0,0,0-1.793.879V0H12.568V-9.51h2.777l.1,1.222a2.294,2.294,0,0,1,2.083-1.4,2.888,2.888,0,0,1,.826.105Zm.378,1.986a5.613,5.613,0,0,1,.554-2.536,3.96,3.96,0,0,1,1.591-1.709,4.791,4.791,0,0,1,2.435-.6,4.373,4.373,0,0,1,3.366,1.323,5.076,5.076,0,0,1,1.23,3.6v.105a4.925,4.925,0,0,1-1.235,3.529A4.384,4.384,0,0,1,23.273.176a4.434,4.434,0,0,1-3.261-1.217,4.761,4.761,0,0,1-1.327-3.3Zm2.962.185a3.538,3.538,0,0,0,.413,1.934,1.376,1.376,0,0,0,1.222.615q1.582,0,1.617-2.435v-.3q0-2.558-1.635-2.558-1.485,0-1.608,2.206Zm7.172-.167a6.421,6.421,0,0,1,.475-2.549,3.821,3.821,0,0,1,1.362-1.709,3.591,3.591,0,0,1,2.065-.6,2.855,2.855,0,0,1,2.32,1l.105-.826h2.689V-.36a4.009,4.009,0,0,1-.584,2.184,3.75,3.75,0,0,1-1.692,1.424,6.219,6.219,0,0,1-2.566.5,5.365,5.365,0,0,1-2.026-.4,3.657,3.657,0,0,1-1.5-1.028L30.7.58a2.716,2.716,0,0,0,2.18.976A1.764,1.764,0,0,0,34.849-.466v-.3A2.781,2.781,0,0,1,32.7.176a3.437,3.437,0,0,1-2.812-1.332A5.517,5.517,0,0,1,28.811-4.72Zm2.971.185a3.383,3.383,0,0,0,.439,1.85,1.386,1.386,0,0,0,1.23.681,1.573,1.573,0,0,0,1.4-.642v-4a1.534,1.534,0,0,0-1.38-.65,1.4,1.4,0,0,0-1.239.708A3.858,3.858,0,0,0,31.781-4.641ZM45.264-6.829l-.976-.07a1.752,1.752,0,0,0-1.793.879V0H39.533V-9.51h2.777l.1,1.222a2.294,2.294,0,0,1,2.083-1.4,2.888,2.888,0,0,1,.826.105ZM51.425,0a3.344,3.344,0,0,1-.281-.853A2.754,2.754,0,0,1,48.858.176a3.374,3.374,0,0,1-2.285-.813,2.588,2.588,0,0,1-.94-2.043,2.66,2.66,0,0,1,1.143-2.338A5.821,5.821,0,0,1,50.1-5.81h.914v-.5q0-1.316-1.134-1.316a.927.927,0,0,0-1.055,1.042H45.861a2.655,2.655,0,0,1,1.173-2.239,4.931,4.931,0,0,1,2.993-.86A4.323,4.323,0,0,1,52.9-8.8a3.086,3.086,0,0,1,1.081,2.435v4.21a4.311,4.311,0,0,0,.4,2V0ZM49.57-1.934a1.652,1.652,0,0,0,.918-.237,1.487,1.487,0,0,0,.523-.536V-4.228H50.15q-1.547,0-1.547,1.389a.848.848,0,0,0,.272.655A.986.986,0,0,0,49.57-1.934ZM58.421-9.51l.1,1.116a3.27,3.27,0,0,1,2.716-1.292,2.407,2.407,0,0,1,2.435,1.433,3.165,3.165,0,0,1,2.795-1.433q2.892,0,2.971,3.5V0H66.463V-6a1.813,1.813,0,0,0-.246-1.063,1.048,1.048,0,0,0-.9-.334,1.4,1.4,0,0,0-1.31.782l.009.123V0H61.049V-5.985a1.906,1.906,0,0,0-.237-1.081,1.045,1.045,0,0,0-.905-.334,1.42,1.42,0,0,0-1.3.782V0H55.644V-9.51ZM76.482,0A3.344,3.344,0,0,1,76.2-.853,2.754,2.754,0,0,1,73.916.176a3.374,3.374,0,0,1-2.285-.813,2.588,2.588,0,0,1-.94-2.043,2.66,2.66,0,0,1,1.143-2.338,5.821,5.821,0,0,1,3.322-.791h.914v-.5q0-1.316-1.134-1.316a.927.927,0,0,0-1.055,1.042H70.919a2.655,2.655,0,0,1,1.173-2.239,4.931,4.931,0,0,1,2.993-.86,4.323,4.323,0,0,1,2.874.888A3.086,3.086,0,0,1,79.04-6.363v4.21a4.311,4.311,0,0,0,.4,2V0ZM74.628-1.934a1.652,1.652,0,0,0,.918-.237,1.487,1.487,0,0,0,.523-.536V-4.228h-.861q-1.547,0-1.547,1.389a.848.848,0,0,0,.272.655A.986.986,0,0,0,74.628-1.934Zm11.03-.738a.684.684,0,0,0-.4-.606,6.016,6.016,0,0,0-1.5-.475A6.853,6.853,0,0,1,81.932-4.4a3.062,3.062,0,0,1-1.1-.971,2.319,2.319,0,0,1-.378-1.31,2.628,2.628,0,0,1,1.081-2.158,4.453,4.453,0,0,1,2.83-.848,4.934,4.934,0,0,1,3.023.853,2.666,2.666,0,0,1,1.143,2.241H85.562q0-1.143-1.2-1.143a1.194,1.194,0,0,0-.782.259.8.8,0,0,0-.316.646.737.737,0,0,0,.387.642,3.654,3.654,0,0,0,1.235.4,10.671,10.671,0,0,1,1.49.378A2.706,2.706,0,0,1,88.515-2.76,2.491,2.491,0,0,1,87.359-.642a5.068,5.068,0,0,1-2.993.817,5.172,5.172,0,0,1-2.18-.439,3.645,3.645,0,0,1-1.494-1.2,2.707,2.707,0,0,1-.536-1.591h2.769a1.145,1.145,0,0,0,.439.962,1.808,1.808,0,0,0,1.081.3,1.422,1.422,0,0,0,.91-.246A.787.787,0,0,0,85.658-2.672Z" transform="translate(1176 3767)" fill="#12263f"/>
    <g id="Grupo_181472" data-name="Grupo 181472" transform="translate(1020 3803)">
      <rect id="Rectángulo_56729-4" data-name="Rectángulo 56729" width="359" height="50" rx="10" fill="#e8e8e8"/>
      <rect id="Rectángulo_56730-4" data-name="Rectángulo 56730" width="51" height="51" rx="10" fill="#32d9cb"/>
    </g>
    <path id="Trazado_213900" data-name="Trazado 213900" d="M19.072-2.637A8.267,8.267,0,0,1,15.6-.513a14.974,14.974,0,0,1-5.01.806A8.933,8.933,0,0,1,3.9-2.271,10.377,10.377,0,0,1,1.216-9.4L1.2-11.25a12.728,12.728,0,0,1,1.113-5.5A8.267,8.267,0,0,1,5.5-20.369a9.012,9.012,0,0,1,4.8-1.267,9.448,9.448,0,0,1,6.189,1.824,7.728,7.728,0,0,1,2.571,5.442H14.106a4.044,4.044,0,0,0-1.143-2.549,3.687,3.687,0,0,0-2.49-.762A3.355,3.355,0,0,0,7.485-16.04a8.76,8.76,0,0,0-1.069,4.688v1.289a8.576,8.576,0,0,0,1.091,4.8,3.86,3.86,0,0,0,3.435,1.6,4.32,4.32,0,0,0,2.988-.894V-7.866H10.356V-11.4h8.716Z" transform="translate(1034 3840)" fill="#12263f"/>
    <path id="Trazado_213901" data-name="Trazado 213901" d="M4.052-4.342V0H.967V-12.8H6.073a5.948,5.948,0,0,1,2.6.541,4.074,4.074,0,0,1,1.749,1.538,4.2,4.2,0,0,1,.62,2.263A3.7,3.7,0,0,1,9.7-5.462,5.561,5.561,0,0,1,6.021-4.342Zm0-2.382H6.073A1.906,1.906,0,0,0,7.44-7.172a1.665,1.665,0,0,0,.47-1.266A2.059,2.059,0,0,0,7.427-9.87a1.712,1.712,0,0,0-1.318-.545H4.052ZM18.3-6.829l-.976-.07a1.752,1.752,0,0,0-1.793.879V0H12.568V-9.51h2.777l.1,1.222a2.294,2.294,0,0,1,2.083-1.4,2.888,2.888,0,0,1,.826.105Zm5.5,7a4.889,4.889,0,0,1-3.542-1.305,4.507,4.507,0,0,1-1.354-3.4v-.246a5.84,5.84,0,0,1,.541-2.575,3.955,3.955,0,0,1,1.578-1.727,4.763,4.763,0,0,1,2.461-.611,4.117,4.117,0,0,1,3.164,1.244,4.887,4.887,0,0,1,1.16,3.467v1.151H21.92a2.135,2.135,0,0,0,.694,1.257A2.066,2.066,0,0,0,24-2.109a2.662,2.662,0,0,0,2.2-.984l1.354,1.6A3.784,3.784,0,0,1,25.985-.277,5.3,5.3,0,0,1,23.8.176ZM23.467-7.4q-1.3,0-1.547,1.723h2.988v-.229a1.467,1.467,0,0,0-.36-1.1A1.434,1.434,0,0,0,23.467-7.4ZM33.979-2.672a.684.684,0,0,0-.4-.606,6.016,6.016,0,0,0-1.5-.475A6.853,6.853,0,0,1,30.252-4.4a3.062,3.062,0,0,1-1.1-.971,2.319,2.319,0,0,1-.378-1.31,2.628,2.628,0,0,1,1.081-2.158,4.453,4.453,0,0,1,2.83-.848,4.934,4.934,0,0,1,3.023.853,2.666,2.666,0,0,1,1.143,2.241H33.882q0-1.143-1.2-1.143a1.194,1.194,0,0,0-.782.259.8.8,0,0,0-.316.646.737.737,0,0,0,.387.642,3.654,3.654,0,0,0,1.235.4,10.671,10.671,0,0,1,1.49.378A2.706,2.706,0,0,1,36.835-2.76,2.491,2.491,0,0,1,35.679-.642a5.068,5.068,0,0,1-2.993.817,5.172,5.172,0,0,1-2.18-.439,3.645,3.645,0,0,1-1.494-1.2,2.707,2.707,0,0,1-.536-1.591h2.769a1.145,1.145,0,0,0,.439.962,1.808,1.808,0,0,0,1.081.3,1.422,1.422,0,0,0,.91-.246A.787.787,0,0,0,33.979-2.672Zm9.905,1.644a3.054,3.054,0,0,1-2.54,1.2,3,3,0,0,1-2.369-.91,3.826,3.826,0,0,1-.8-2.615V-9.51h2.962v6.179a1.065,1.065,0,0,0,1.187,1.222,1.548,1.548,0,0,0,1.45-.729V-9.51h2.979V0H43.972ZM57.2-4.685a5.735,5.735,0,0,1-1,3.538A3.2,3.2,0,0,1,53.508.176a2.742,2.742,0,0,1-2.153-.958V3.656H48.393V-9.51h2.769l.088.879A2.742,2.742,0,0,1,53.49-9.686a3.224,3.224,0,0,1,2.733,1.3A5.805,5.805,0,0,1,57.2-4.825Zm-2.962-.185q0-2.531-1.477-2.531a1.394,1.394,0,0,0-1.406.756V-2.9a1.439,1.439,0,0,0,1.424.791q1.415,0,1.459-2.443Zm9.932,3.841a3.054,3.054,0,0,1-2.54,1.2,3,3,0,0,1-2.369-.91,3.826,3.826,0,0,1-.8-2.615V-9.51h2.962v6.179A1.065,1.065,0,0,0,62.6-2.109a1.548,1.548,0,0,0,1.45-.729V-9.51h2.979V0H64.257Zm9.088,1.2a4.889,4.889,0,0,1-3.542-1.305,4.507,4.507,0,0,1-1.354-3.4v-.246A5.84,5.84,0,0,1,68.9-7.348a3.955,3.955,0,0,1,1.578-1.727,4.763,4.763,0,0,1,2.461-.611A4.117,4.117,0,0,1,76.1-8.442a4.887,4.887,0,0,1,1.16,3.467v1.151H71.376a2.135,2.135,0,0,0,.694,1.257,2.066,2.066,0,0,0,1.389.457,2.662,2.662,0,0,0,2.2-.984l1.354,1.6A3.784,3.784,0,0,1,75.441-.277,5.3,5.3,0,0,1,73.257.176ZM72.923-7.4q-1.3,0-1.547,1.723h2.988v-.229a1.467,1.467,0,0,0-.36-1.1A1.434,1.434,0,0,0,72.923-7.4ZM83.435-2.672a.684.684,0,0,0-.4-.606,6.016,6.016,0,0,0-1.5-.475A6.853,6.853,0,0,1,79.708-4.4a3.062,3.062,0,0,1-1.1-.971,2.319,2.319,0,0,1-.378-1.31,2.628,2.628,0,0,1,1.081-2.158,4.453,4.453,0,0,1,2.83-.848,4.934,4.934,0,0,1,3.023.853,2.666,2.666,0,0,1,1.143,2.241H83.338q0-1.143-1.2-1.143a1.194,1.194,0,0,0-.782.259.8.8,0,0,0-.316.646.737.737,0,0,0,.387.642,3.654,3.654,0,0,0,1.235.4,10.671,10.671,0,0,1,1.49.378A2.706,2.706,0,0,1,86.291-2.76,2.491,2.491,0,0,1,85.135-.642a5.068,5.068,0,0,1-2.993.817,5.172,5.172,0,0,1-2.18-.439,3.645,3.645,0,0,1-1.494-1.2,2.707,2.707,0,0,1-.536-1.591H80.7a1.145,1.145,0,0,0,.439.962,1.808,1.808,0,0,0,1.081.3,1.422,1.422,0,0,0,.91-.246A.787.787,0,0,0,83.435-2.672Zm7.69-9.2V-9.51h1.564v2.057H91.125V-3.1a1.111,1.111,0,0,0,.193.747,1.037,1.037,0,0,0,.765.211,4.345,4.345,0,0,0,.738-.053V-.079a5.466,5.466,0,0,1-1.67.255,3.1,3.1,0,0,1-2.259-.721,2.954,2.954,0,0,1-.729-2.188v-4.72H86.95V-9.51h1.213v-2.364Zm2.092,7.031a5.613,5.613,0,0,1,.554-2.536,3.96,3.96,0,0,1,1.591-1.709,4.791,4.791,0,0,1,2.435-.6,4.373,4.373,0,0,1,3.366,1.323,5.076,5.076,0,0,1,1.23,3.6v.105a4.925,4.925,0,0,1-1.235,3.529A4.384,4.384,0,0,1,97.813.176a4.434,4.434,0,0,1-3.261-1.217,4.761,4.761,0,0,1-1.327-3.3Zm2.962.185a3.538,3.538,0,0,0,.413,1.934,1.376,1.376,0,0,0,1.222.615q1.582,0,1.617-2.435v-.3Q99.431-7.4,97.8-7.4q-1.485,0-1.608,2.206Zm12.5,1.986a.684.684,0,0,0-.4-.606,6.016,6.016,0,0,0-1.5-.475A6.853,6.853,0,0,1,104.95-4.4a3.062,3.062,0,0,1-1.1-.971,2.319,2.319,0,0,1-.378-1.31,2.628,2.628,0,0,1,1.081-2.158,4.453,4.453,0,0,1,2.83-.848,4.934,4.934,0,0,1,3.023.853,2.666,2.666,0,0,1,1.143,2.241H108.58q0-1.143-1.2-1.143a1.194,1.194,0,0,0-.782.259.8.8,0,0,0-.316.646.737.737,0,0,0,.387.642,3.654,3.654,0,0,0,1.235.4,10.671,10.671,0,0,1,1.49.378,2.706,2.706,0,0,1,2.145,2.646,2.491,2.491,0,0,1-1.156,2.118,5.068,5.068,0,0,1-2.993.817,5.172,5.172,0,0,1-2.18-.439,3.645,3.645,0,0,1-1.494-1.2,2.707,2.707,0,0,1-.536-1.591h2.769a1.145,1.145,0,0,0,.439.962,1.808,1.808,0,0,0,1.081.3,1.422,1.422,0,0,0,.91-.246A.787.787,0,0,0,108.677-2.672Z" transform="translate(1167 3835)" fill="#12263f"/>
  </g>
</svg>
