<svg xmlns="http://www.w3.org/2000/svg" xmlns:xlink="http://www.w3.org/1999/xlink" width="819.999" height="188.238" viewBox="0 0 819.999 188.238">
  <defs>
    <clipPath id="clip-path">
      <rect id="Rectángulo_57424" data-name="Rectángulo 57424" width="190" height="188.238" fill="none"/>
    </clipPath>
    <clipPath id="clip-path-2">
      <rect id="Rectángulo_57421" data-name="Rectángulo 57421" width="189.999" height="188.237" fill="#afafaf"/>
    </clipPath>
    <clipPath id="clip-path-3">
      <rect id="Rectángulo_57420" data-name="Rectángulo 57420" width="138.939" height="138.939" fill="#d2f9ff"/>
    </clipPath>
    <clipPath id="clip-path-4">
      <path id="Trazado_212857" data-name="Trazado 212857" d="M95,0A94.7,94.7,0,0,0,6.971,60.922,6.606,6.606,0,0,0,0,67.5v.028a6.6,6.6,0,1,0,10.288-5.461,90.555,90.555,0,0,1,169.424,0A6.589,6.589,0,1,0,190,67.528V67.5a6.606,6.606,0,0,0-6.971-6.579A94.7,94.7,0,0,0,95,0Z" transform="translate(0 -0.004)" fill="#00a3be"/>
    </clipPath>
    <clipPath id="clip-path-5">
      <path id="Trazado_212858" data-name="Trazado 212858" d="M177.776,658.836a6.581,6.581,0,0,0,2.643,7.183,90.567,90.567,0,0,1-168.954,0,6.556,6.556,0,1,0-3.311,1.166,94.074,94.074,0,0,0,175.576,0,6.6,6.6,0,1,0-5.953-8.349" transform="translate(-1.143 -653.995)" fill="#00a3be"/>
    </clipPath>
    <clipPath id="clip-path-6">
      <rect id="Rectángulo_57424-2" data-name="Rectángulo 57424" width="190" height="188.238" fill="#32d9cb"/>
    </clipPath>
    <clipPath id="clip-path-7">
      <rect id="Rectángulo_57421-2" data-name="Rectángulo 57421" width="189.999" height="188.237" fill="#32d9cb"/>
    </clipPath>
    <clipPath id="clip-path-8">
      <rect id="Rectángulo_57420-2" data-name="Rectángulo 57420" width="138.939" height="138.939" fill="#ccf6f3"/>
    </clipPath>
    <clipPath id="clip-path-9">
      <path id="Trazado_212857-2" data-name="Trazado 212857" d="M95,0A94.7,94.7,0,0,0,6.971,60.922,6.606,6.606,0,0,0,0,67.5v.028a6.6,6.6,0,1,0,10.288-5.461,90.555,90.555,0,0,1,169.424,0A6.589,6.589,0,1,0,190,67.528V67.5a6.606,6.606,0,0,0-6.971-6.579A94.7,94.7,0,0,0,95,0Z" transform="translate(0 -0.004)" fill="#32d9cb"/>
    </clipPath>
    <clipPath id="clip-path-10">
      <path id="Trazado_212858-2" data-name="Trazado 212858" d="M177.776,658.836a6.581,6.581,0,0,0,2.643,7.183,90.567,90.567,0,0,1-168.954,0,6.556,6.556,0,1,0-3.311,1.166,94.074,94.074,0,0,0,175.576,0,6.6,6.6,0,1,0-5.953-8.349" transform="translate(-1.143 -653.995)" fill="#32d9cb"/>
    </clipPath>
    <clipPath id="clip-path-12">
      <rect id="Rectángulo_57420-3" data-name="Rectángulo 57420" width="138.939" height="138.939" fill="#ffe5d9"/>
    </clipPath>
    <clipPath id="clip-path-13">
      <path id="Trazado_212857-3" data-name="Trazado 212857" d="M95,0A94.7,94.7,0,0,0,6.971,60.922,6.606,6.606,0,0,0,0,67.5v.028a6.6,6.6,0,1,0,10.288-5.461,90.555,90.555,0,0,1,169.424,0A6.589,6.589,0,1,0,190,67.528V67.5a6.606,6.606,0,0,0-6.971-6.579A94.7,94.7,0,0,0,95,0Z" transform="translate(0 -0.004)" fill="#f37f4c"/>
    </clipPath>
    <clipPath id="clip-path-14">
      <path id="Trazado_212858-3" data-name="Trazado 212858" d="M177.776,658.836a6.581,6.581,0,0,0,2.643,7.183,90.567,90.567,0,0,1-168.954,0,6.556,6.556,0,1,0-3.311,1.166,94.074,94.074,0,0,0,175.576,0,6.6,6.6,0,1,0-5.953-8.349" transform="translate(-1.143 -653.995)" fill="#f37f4c"/>
    </clipPath>
  </defs>
  <g id="Grupo_183474" data-name="Grupo 183474" transform="translate(-390 -894)">
    <g id="Grupo_183473" data-name="Grupo 183473">
      <g id="Grupo_182594" data-name="Grupo 182594" transform="translate(390 894)" clip-path="url(#clip-path)">
        <g id="Grupo_182589" data-name="Grupo 182589" transform="translate(0 0.001)">
          <g id="Grupo_182588" data-name="Grupo 182588" clip-path="url(#clip-path-2)">
            <g id="Grupo_182587" data-name="Grupo 182587" transform="translate(25.53 24.649)">
              <g id="Grupo_182586" data-name="Grupo 182586">
                <g id="Grupo_182585" data-name="Grupo 182585" clip-path="url(#clip-path-3)">
                  <path id="Trazado_212856" data-name="Trazado 212856" d="M284.4,209.915a69.47,69.47,0,1,1-69.469-69.47,69.469,69.469,0,0,1,69.469,69.47" transform="translate(-145.459 -140.445)" fill="#d2f9ff"/>
                </g>
              </g>
            </g>
          </g>
        </g>
        <g id="Grupo_182591" data-name="Grupo 182591" transform="translate(0 0.001)">
          <g id="Grupo_182590" data-name="Grupo 182590" clip-path="url(#clip-path-4)">
            <rect id="Rectángulo_57422" data-name="Rectángulo 57422" width="176.195" height="195.649" transform="translate(-36.347 46.289) rotate(-51.86)" fill="#00a3be"/>
          </g>
        </g>
        <g id="Grupo_182593" data-name="Grupo 182593" transform="translate(0.201 114.785)">
          <g id="Grupo_182592" data-name="Grupo 182592" clip-path="url(#clip-path-5)">
            <rect id="Rectángulo_57423" data-name="Rectángulo 57423" width="176.344" height="196.086" transform="matrix(0.618, -0.787, 0.787, 0.618, -36.766, 45.158)" fill="#00a3be"/>
          </g>
        </g>
      </g>
      <g id="Grupo_182594-2" data-name="Grupo 182594" transform="translate(705 894)" clip-path="url(#clip-path-6)">
        <g id="Grupo_182589-2" data-name="Grupo 182589" transform="translate(0 0.001)">
          <g id="Grupo_182588-2" data-name="Grupo 182588" clip-path="url(#clip-path-7)">
            <g id="Grupo_182587-2" data-name="Grupo 182587" transform="translate(25.53 24.649)" opacity="0.85">
              <g id="Grupo_182586-2" data-name="Grupo 182586">
                <g id="Grupo_182585-2" data-name="Grupo 182585" clip-path="url(#clip-path-8)">
                  <path id="Trazado_212856-2" data-name="Trazado 212856" d="M284.4,209.915a69.47,69.47,0,1,1-69.469-69.47,69.469,69.469,0,0,1,69.469,69.47" transform="translate(-145.459 -140.445)" fill="#ccf6f3"/>
                </g>
              </g>
            </g>
          </g>
        </g>
        <g id="Grupo_182591-2" data-name="Grupo 182591" transform="translate(0 0.001)">
          <g id="Grupo_182590-2" data-name="Grupo 182590" clip-path="url(#clip-path-9)">
            <rect id="Rectángulo_57422-2" data-name="Rectángulo 57422" width="176.195" height="195.649" transform="translate(-36.347 46.289) rotate(-51.86)" fill="#32d9cb"/>
          </g>
        </g>
        <g id="Grupo_182593-2" data-name="Grupo 182593" transform="translate(0.201 114.785)">
          <g id="Grupo_182592-2" data-name="Grupo 182592" clip-path="url(#clip-path-10)">
            <rect id="Rectángulo_57423-2" data-name="Rectángulo 57423" width="176.344" height="196.086" transform="matrix(0.618, -0.787, 0.787, 0.618, -36.766, 45.158)" fill="#32d9cb"/>
          </g>
        </g>
      </g>
      <g id="Grupo_182589-3" data-name="Grupo 182589" transform="translate(1020 894.001)">
        <g id="Grupo_182588-3" data-name="Grupo 182588" clip-path="url(#clip-path-2)">
          <g id="Grupo_182587-3" data-name="Grupo 182587" transform="translate(25.53 24.649)" opacity="0.85">
            <g id="Grupo_182586-3" data-name="Grupo 182586">
              <g id="Grupo_182585-3" data-name="Grupo 182585" clip-path="url(#clip-path-12)">
                <path id="Trazado_212856-3" data-name="Trazado 212856" d="M284.4,209.915a69.47,69.47,0,1,1-69.469-69.47,69.469,69.469,0,0,1,69.469,69.47" transform="translate(-145.459 -140.445)" fill="#ffe5d9"/>
              </g>
            </g>
          </g>
        </g>
      </g>
    </g>
    <g id="Grupo_182591-3" data-name="Grupo 182591" transform="translate(1020 894.001)">
      <g id="Grupo_182590-3" data-name="Grupo 182590" clip-path="url(#clip-path-13)">
        <rect id="Rectángulo_57422-3" data-name="Rectángulo 57422" width="176.195" height="195.649" transform="translate(-36.347 46.289) rotate(-51.86)" fill="#f37f4c"/>
      </g>
    </g>
    <g id="Grupo_182593-3" data-name="Grupo 182593" transform="translate(1020.201 1008.785)">
      <g id="Grupo_182592-3" data-name="Grupo 182592" clip-path="url(#clip-path-14)">
        <rect id="Rectángulo_57423-3" data-name="Rectángulo 57423" width="176.344" height="196.086" transform="matrix(0.618, -0.787, 0.787, 0.618, -36.766, 45.158)" fill="#f37f4c"/>
      </g>
    </g>
  </g>
</svg>
