<svg xmlns="http://www.w3.org/2000/svg" xmlns:xlink="http://www.w3.org/1999/xlink" width="230" height="203.615" viewBox="0 0 230 203.615">
  <defs>
    <clipPath id="clip-path">
      <rect id="Rectángulo_56989" data-name="Rectángulo 56989" width="150.621" height="125.897" fill="#12263f"/>
    </clipPath>
  </defs>
  <g id="Grupo_183237" data-name="Grupo 183237" transform="translate(-1000 -4448.102)">
    <path id="Icon_awesome-chalkboard-teacher" data-name="Icon awesome-chalkboard-teacher" d="M44.133,74.686a4.854,4.854,0,0,0-1.5.231,27.989,27.989,0,0,1-8.687,1.466,28.013,28.013,0,0,1-8.689-1.466,4.841,4.841,0,0,0-1.5-.231A23.765,23.765,0,0,0,0,98.582a10.158,10.158,0,0,0,10.185,10.053H57.713A10.158,10.158,0,0,0,67.9,98.582,23.765,23.765,0,0,0,44.133,74.686ZM33.949,67.9A20.369,20.369,0,1,0,13.58,47.528,20.369,20.369,0,0,0,33.949,67.9ZM125.609,0H44.133A10.369,10.369,0,0,0,33.949,10.522v9.847a26.851,26.851,0,0,1,13.579,3.777V13.579h74.687V74.686H108.635V61.107H81.476V74.686H65.3a27.042,27.042,0,0,1,8.421,13.579h51.888a10.369,10.369,0,0,0,10.185-10.522V10.522A10.369,10.369,0,0,0,125.609,0Z" transform="translate(1000 4448.103)" fill="#12263f"/>
    <g id="Grupo_181878" data-name="Grupo 181878" transform="translate(1079.379 4525.82)">
      <g id="Grupo_181877" data-name="Grupo 181877" clip-path="url(#clip-path)">
        <path id="Trazado_210781" data-name="Trazado 210781" d="M83.629,236.325H8.264a8.263,8.263,0,1,1,0-16.527H83.629a8.263,8.263,0,0,1,0,16.527M8.264,224.634a3.427,3.427,0,1,0,0,6.854H83.629a3.427,3.427,0,1,0,0-6.854Z" transform="translate(0 -136.867)" fill="#12263f"/>
        <path id="Trazado_210782" data-name="Trazado 210782" d="M95.343,264.324h-69a2.418,2.418,0,0,1-2.419-2.418V253.2a2.418,2.418,0,0,1,2.419-2.418h69a2.418,2.418,0,0,1,2.418,2.418v8.706a2.418,2.418,0,0,1-2.418,2.418m-66.582-4.837H92.925v-3.869H28.761Z" transform="translate(-14.897 -156.16)" fill="#12263f"/>
        <path id="Trazado_210783" data-name="Trazado 210783" d="M60,296.425H50.487a2.418,2.418,0,0,1-2.418-2.418V276.274a2.418,2.418,0,0,1,2.418-2.419H60a2.418,2.418,0,0,1,2.418,2.419v17.733A2.418,2.418,0,0,1,60,296.425m-7.094-4.836h4.676v-12.9H52.905Z" transform="translate(-29.932 -170.528)" fill="#12263f"/>
        <path id="Trazado_210784" data-name="Trazado 210784" d="M169.381,296.425h-9.512a2.418,2.418,0,0,1-2.419-2.418V276.274a2.418,2.418,0,0,1,2.419-2.419h9.512a2.418,2.418,0,0,1,2.418,2.419v17.733a2.418,2.418,0,0,1-2.418,2.418m-7.094-4.836h4.676v-12.9h-4.676Z" transform="translate(-98.043 -170.528)" fill="#12263f"/>
        <path id="Trazado_210785" data-name="Trazado 210785" d="M83.184,215.176a2.418,2.418,0,0,1-2.418-2.418v-5.731a2.418,2.418,0,1,1,4.836,0v5.731a2.418,2.418,0,0,1-2.418,2.418" transform="translate(-50.292 -127.408)" fill="#12263f"/>
        <path id="Trazado_210786" data-name="Trazado 210786" d="M152.383,215.176a2.418,2.418,0,0,1-2.419-2.418v-5.731a2.418,2.418,0,1,1,4.837,0v5.731a2.418,2.418,0,0,1-2.418,2.418" transform="translate(-93.382 -127.408)" fill="#12263f"/>
        <path id="Trazado_210787" data-name="Trazado 210787" d="M97.99,92.912c-7.946,0-14.411-6.774-14.411-15.1s6.465-15.1,14.411-15.1,14.411,6.774,14.411,15.1-6.465,15.1-14.411,15.1m0-25.365c-5.28,0-9.575,4.6-9.575,10.264S92.71,88.076,97.99,88.076s9.575-4.6,9.575-10.264-4.294-10.264-9.575-10.264" transform="translate(-52.044 -39.05)" fill="#12263f"/>
        <path id="Trazado_210788" data-name="Trazado 210788" d="M101.425,181.2H51.118a2.418,2.418,0,0,1-2.418-2.418V163.867A13.843,13.843,0,0,1,62.527,150.04H90.015a13.843,13.843,0,0,1,13.828,13.828v14.911a2.418,2.418,0,0,1-2.418,2.418M53.536,176.36h45.47V163.867a9,9,0,0,0-8.991-8.991H62.527a9,9,0,0,0-8.991,8.991Z" transform="translate(-30.325 -93.429)" fill="#12263f"/>
        <path id="Trazado_210789" data-name="Trazado 210789" d="M295.683,245.592H247.674a2.418,2.418,0,1,1,0-4.836h48.009a2.821,2.821,0,1,0,0-5.641H250.207a2.418,2.418,0,1,1,0-4.836h45.476a7.657,7.657,0,1,1,0,15.314" transform="translate(-152.719 -143.393)" fill="#12263f"/>
        <path id="Trazado_210790" data-name="Trazado 210790" d="M278.76,270.688H225.082a2.418,2.418,0,1,1,0-4.836h51.261v-2.967H233.606a2.418,2.418,0,1,1,0-4.836H278.76a2.418,2.418,0,0,1,2.418,2.418v7.8a2.418,2.418,0,0,1-2.418,2.418" transform="translate(-138.651 -160.685)" fill="#12263f"/>
        <path id="Trazado_210791" data-name="Trazado 210791" d="M233.606,299.46h-8.525a2.418,2.418,0,0,1-2.419-2.418V281.148a2.418,2.418,0,0,1,2.419-2.418h8.525a2.418,2.418,0,0,1,2.418,2.418v15.894a2.418,2.418,0,0,1-2.418,2.418m-6.106-4.836h3.687V283.566H227.5Z" transform="translate(-138.651 -173.563)" fill="#12263f"/>
        <path id="Trazado_210792" data-name="Trazado 210792" d="M331.644,299.46h-8.526a2.418,2.418,0,0,1-2.418-2.418V281.148a2.418,2.418,0,0,1,2.418-2.418h8.526a2.418,2.418,0,0,1,2.418,2.418v15.894a2.418,2.418,0,0,1-2.418,2.418m-6.108-4.836h3.689V283.566h-3.689Z" transform="translate(-199.697 -173.563)" fill="#12263f"/>
        <path id="Trazado_210793" data-name="Trazado 210793" d="M254.389,226.636a2.418,2.418,0,0,1-2.418-2.418v-5.137a2.418,2.418,0,0,1,4.837,0v5.137a2.418,2.418,0,0,1-2.419,2.418" transform="translate(-156.901 -134.915)" fill="#12263f"/>
        <path id="Trazado_210794" data-name="Trazado 210794" d="M316.408,226.636a2.418,2.418,0,0,1-2.418-2.418v-5.137a2.418,2.418,0,1,1,4.836,0v5.137a2.418,2.418,0,0,1-2.418,2.418" transform="translate(-195.52 -134.915)" fill="#12263f"/>
        <path id="Trazado_210795" data-name="Trazado 210795" d="M267.657,117.05c-7.26,0-13.168-6.184-13.168-13.786s5.908-13.786,13.168-13.786,13.166,6.184,13.166,13.786-5.906,13.786-13.166,13.786m0-22.735c-4.594,0-8.332,4.015-8.332,8.949s3.737,8.949,8.332,8.949,8.33-4.015,8.33-8.949-3.737-8.949-8.33-8.949" transform="translate(-158.469 -55.718)" fill="#12263f"/>
        <path id="Trazado_210796" data-name="Trazado 210796" d="M270.737,196.181H236.492a2.418,2.418,0,1,1,0-4.836h31.826V180.4a7.817,7.817,0,0,0-7.808-7.808H235.873a7.816,7.816,0,0,0-7.806,7.808,2.418,2.418,0,0,1-4.836,0,12.658,12.658,0,0,1,12.643-12.645H260.51A12.658,12.658,0,0,1,273.155,180.4v13.364a2.418,2.418,0,0,1-2.418,2.418" transform="translate(-139.004 -104.459)" fill="#12263f"/>
        <path id="Trazado_210797" data-name="Trazado 210797" d="M197.472,56a2.418,2.418,0,0,1-2.418-2.418V50.878a2.418,2.418,0,1,1,4.836,0v2.707A2.418,2.418,0,0,1,197.472,56" transform="translate(-121.459 -30.176)" fill="#12263f"/>
        <path id="Trazado_210798" data-name="Trazado 210798" d="M214.3,74.6H211.6a2.418,2.418,0,1,1,0-4.837H214.3a2.418,2.418,0,0,1,0,4.837" transform="translate(-130.254 -43.442)" fill="#12263f"/>
        <path id="Trazado_210799" data-name="Trazado 210799" d="M197.472,91.437a2.418,2.418,0,0,1-2.418-2.418V86.312a2.418,2.418,0,1,1,4.836,0v2.707a2.418,2.418,0,0,1-2.418,2.418" transform="translate(-121.459 -52.24)" fill="#12263f"/>
        <path id="Trazado_210800" data-name="Trazado 210800" d="M178.874,74.6h-2.707a2.418,2.418,0,0,1,0-4.837h2.707a2.418,2.418,0,0,1,0,4.837" transform="translate(-108.192 -43.442)" fill="#12263f"/>
        <path id="Trazado_210801" data-name="Trazado 210801" d="M259,7.544a2.418,2.418,0,0,1-2.418-2.418V2.419a2.418,2.418,0,1,1,4.836,0V5.126A2.418,2.418,0,0,1,259,7.544" transform="translate(-159.773 -0.001)" fill="#12263f"/>
        <path id="Trazado_210802" data-name="Trazado 210802" d="M275.833,26.14h-2.707a2.418,2.418,0,1,1,0-4.836h2.707a2.418,2.418,0,0,1,0,4.836" transform="translate(-168.568 -13.266)" fill="#12263f"/>
        <path id="Trazado_210803" data-name="Trazado 210803" d="M259,42.977a2.418,2.418,0,0,1-2.418-2.418V37.853a2.418,2.418,0,1,1,4.836,0v2.706A2.418,2.418,0,0,1,259,42.977" transform="translate(-159.773 -22.065)" fill="#12263f"/>
        <path id="Trazado_210804" data-name="Trazado 210804" d="M240.4,26.14H237.7a2.418,2.418,0,0,1,0-4.836H240.4a2.418,2.418,0,1,1,0,4.836" transform="translate(-146.505 -13.266)" fill="#12263f"/>
      </g>
    </g>
  </g>
</svg>
