<svg id="Grupo_183145" data-name="Grupo 183145" xmlns="http://www.w3.org/2000/svg" xmlns:xlink="http://www.w3.org/1999/xlink" width="48.644" height="50.534" viewBox="0 0 48.644 50.534">
  <defs>
    <clipPath id="clip-path">
      <rect id="Rectángulo_57778" data-name="Rectángulo 57778" width="48.644" height="50.534" fill="#32d9cb"/>
    </clipPath>
  </defs>
  <g id="Grupo_183144" data-name="Grupo 183144" clip-path="url(#clip-path)">
    <path id="Trazado_214122" data-name="Trazado 214122" d="M30.666,23.332a.854.854,0,0,0-1.308,1.1,5.313,5.313,0,0,1-4.075,8.723.853.853,0,1,0,0,1.706,7.021,7.021,0,0,0,5.383-11.526" transform="translate(8.286 7.81)" fill="#32d9cb"/>
    <path id="Trazado_214123" data-name="Trazado 214123" d="M27.24,22.231a.853.853,0,0,0-.853-.853,6.973,6.973,0,0,0-4.964,2.056.853.853,0,1,0,1.207,1.207,5.281,5.281,0,0,1,3.758-1.556.853.853,0,0,0,.853-.853" transform="translate(7.181 7.251)" fill="#32d9cb"/>
    <path id="Trazado_214124" data-name="Trazado 214124" d="M47.727,44.473l-.416-.416a.19.19,0,0,0,.005-.027V2.972a.853.853,0,0,0-.853-.853H17.708a.853.853,0,0,0,0,1.706h27.9v9.767H36.7a.854.854,0,0,0,0,1.707h8.914v9.671H37.265a.828.828,0,0,0-.208.042,10.343,10.343,0,0,0-6.9-.027.669.669,0,0,0-.071-.015h-9.6V20.988H40.2a.853.853,0,1,0,0-1.706h-8.06V9.609h8.464a.853.853,0,1,0,0-1.706H17.779a.853.853,0,1,0,0,1.706H30.438v9.673H19.628a.854.854,0,0,0-.854.853v5.689a.855.855,0,0,0,.854.854h7.427a10.551,10.551,0,0,0-3.122,4.028.82.82,0,0,0-.228-.047H14.08V20.135a.853.853,0,0,0-.853-.853H1.706V15.3H25.957a.854.854,0,0,0,0-1.707H1.706V3.825H4.2a.853.853,0,1,0,0-1.706H.853A.853.853,0,0,0,0,2.972V48.581a.853.853,0,0,0,.853.853H34.847a.853.853,0,1,0,0-1.706H1.706V43.746h5.31a.854.854,0,0,0,0-1.707H1.706V38.056H19.2a.853.853,0,1,0,0-1.706H1.706V20.988H12.374v9.671H8.035V25.516a.853.853,0,1,0-1.706,0v6a.853.853,0,0,0,.853.853H23.37a10.392,10.392,0,0,0,2.457,9.671H14.294a.854.854,0,1,0,0,1.707H27.833a10.487,10.487,0,0,0,10.751.435L43.3,48.9a3.129,3.129,0,1,0,4.425-4.425m-4.784-4.785a10.517,10.517,0,0,0,.675-1.632h1.991v4.3Zm2.666-13.01v9.671H43.985a10.352,10.352,0,0,0-3.906-9.671ZM24.748,34.93a8.818,8.818,0,1,1,8.818,8.82,8.828,8.828,0,0,1-8.818-8.82M46.52,47.691a1.457,1.457,0,0,1-2.011,0l-4.474-4.474a10.6,10.6,0,0,0,1.983-2.04l4.5,4.5a1.423,1.423,0,0,1,0,2.011" transform="translate(0 0.719)" fill="#32d9cb"/>
    <path id="Trazado_214125" data-name="Trazado 214125" d="M4.671,7.775H6.853v3.793a.853.853,0,0,0,1.706,0V6.922a.853.853,0,0,0-.853-.854H6.464L9.6,2.206,12.74,6.068H11.5a.854.854,0,0,0-.854.854v4.646a.854.854,0,0,0,1.707,0V7.775h2.18A.853.853,0,0,0,15.2,6.384L10.265.315a.854.854,0,0,0-1.324,0L4.008,6.384a.853.853,0,0,0,.663,1.391" transform="translate(1.295 0)" fill="#32d9cb"/>
  </g>
</svg>
