<svg xmlns="http://www.w3.org/2000/svg" xmlns:xlink="http://www.w3.org/1999/xlink" width="136" height="136" viewBox="0 0 136 136">
  <defs>
    <clipPath id="clip-path">
      <rect id="Rectángulo_57639" data-name="Rectángulo 57639" width="56.657" height="53.448" transform="translate(0 0)" fill="#fff"/>
    </clipPath>
  </defs>
  <g id="Grupo_183469" data-name="Grupo 183469" transform="translate(-285 -1060)">
    <circle id="Elipse_5545" data-name="Elipse 5545" cx="68" cy="68" r="68" transform="translate(285 1060)" fill="#00a3be"/>
    <g id="Grupo_183060" data-name="Grupo 183060" transform="translate(325.343 1099.275)">
      <g id="Grupo_183059" data-name="Grupo 183059" clip-path="url(#clip-path)">
        <path id="Trazado_213752" data-name="Trazado 213752" d="M53.884,38.705H2.773a2.773,2.773,0,0,1,0-5.546H53.884a2.773,2.773,0,1,1,0,5.546M2.773,34.971a.961.961,0,0,0,0,1.922H53.884a.961.961,0,1,0,0-1.922Z" fill="#fff"/>
        <path id="Trazado_213753" data-name="Trazado 213753" d="M51.915,53.448H4.742a.906.906,0,0,1-.906-.906V37.8a.906.906,0,0,1,.906-.906H51.915a.906.906,0,0,1,.906.906V52.542a.906.906,0,0,1-.906.906M5.648,51.636H51.009V38.7H5.648Z" fill="#fff"/>
        <path id="Trazado_213754" data-name="Trazado 213754" d="M14.593,49.645H9.2A1.644,1.644,0,0,1,7.585,47.98V42.361A1.644,1.644,0,0,1,9.2,40.7h5.389a1.645,1.645,0,0,1,1.619,1.665V47.98a1.645,1.645,0,0,1-1.619,1.665M9.4,47.833h5V42.508h-5Z" fill="#fff"/>
        <path id="Trazado_213755" data-name="Trazado 213755" d="M25.546,49.645H20.158a1.645,1.645,0,0,1-1.62-1.665V42.361a1.645,1.645,0,0,1,1.62-1.665h5.388a1.644,1.644,0,0,1,1.619,1.665V47.98a1.644,1.644,0,0,1-1.619,1.665m-5.2-1.812h5V42.508h-5Z" fill="#fff"/>
        <path id="Trazado_213756" data-name="Trazado 213756" d="M36.5,49.645H31.111a1.644,1.644,0,0,1-1.619-1.665V42.361A1.644,1.644,0,0,1,31.111,40.7H36.5a1.644,1.644,0,0,1,1.62,1.665V47.98a1.644,1.644,0,0,1-1.62,1.665M31.3,47.833h5V42.508h-5Z" fill="#fff"/>
        <path id="Trazado_213757" data-name="Trazado 213757" d="M47.453,49.645H42.064a1.644,1.644,0,0,1-1.618-1.665V42.361A1.644,1.644,0,0,1,42.064,40.7h5.389a1.644,1.644,0,0,1,1.619,1.665V47.98a1.644,1.644,0,0,1-1.619,1.665m-5.195-1.812h5V42.508h-5Z" fill="#fff"/>
        <path id="Trazado_213758" data-name="Trazado 213758" d="M21.829,34.971a.906.906,0,0,1-.906-.906V24.836a.906.906,0,0,1,1.812,0v9.229a.906.906,0,0,1-.906.906" fill="#fff"/>
        <path id="Trazado_213759" data-name="Trazado 213759" d="M34.828,34.971a.906.906,0,0,1-.906-.906V24.836a.906.906,0,1,1,1.812,0v9.229a.906.906,0,0,1-.906.906" fill="#fff"/>
        <path id="Trazado_213760" data-name="Trazado 213760" d="M32.354,34.971H16.4a.906.906,0,0,1-.906-.906V23.4a6.347,6.347,0,0,1,6.34-6.34h13a6.324,6.324,0,0,1,5.618,3.4.906.906,0,0,1-1.6.841,4.518,4.518,0,0,0-4.013-2.427h-13A4.534,4.534,0,0,0,17.3,23.4v9.759H32.354a.906.906,0,0,1,0,1.812" fill="#fff"/>
        <path id="Trazado_213761" data-name="Trazado 213761" d="M28.438,15.646c-.045,0-.09,0-.135,0-1.924.049-3.627-1.126-4.841-3.419a10.907,10.907,0,0,1-1.2-5.089V6.962a4.1,4.1,0,0,1,.121-.97.905.905,0,0,1,1.167-.642,1.258,1.258,0,0,0,1.686-1.207A1.309,1.309,0,0,0,25.2,3.86a.906.906,0,0,1,.6-1.054l.135-.048a.905.905,0,0,1,1.158.644,1.271,1.271,0,0,0,2.463.035.906.906,0,0,1,1.183-.606l.115.046a.974.974,0,0,1,.6,1.025,1.358,1.358,0,0,0-.025.241,1.255,1.255,0,0,0,1.66,1.215.907.907,0,0,1,1.135.6,4.075,4.075,0,0,1,.18,1.177,10.9,10.9,0,0,1-1.222,5.126c-1.185,2.217-2.821,3.384-4.737,3.384M28.3,13.834c1.32.03,2.394-.781,3.274-2.425a9.071,9.071,0,0,0,1.008-4.174,3.1,3.1,0,0,1-2.567-1.558,3.191,3.191,0,0,1-3.382.005,3.1,3.1,0,0,1-2.564,1.553,9.063,9.063,0,0,0,.991,4.142c.882,1.667,2,2.5,3.24,2.457" fill="#fff"/>
        <path id="Trazado_213762" data-name="Trazado 213762" d="M28.329,6.188A3.094,3.094,0,1,1,31.423,3.1a3.1,3.1,0,0,1-3.094,3.093m0-4.376A1.282,1.282,0,1,0,29.611,3.1a1.284,1.284,0,0,0-1.282-1.283" fill="#fff"/>
        <path id="Trazado_213763" data-name="Trazado 213763" d="M32.705,7.237A3.094,3.094,0,1,1,35.8,4.143a3.1,3.1,0,0,1-3.093,3.094m0-4.376a1.282,1.282,0,1,0,1.282,1.282,1.284,1.284,0,0,0-1.282-1.282" fill="#fff"/>
        <path id="Trazado_213764" data-name="Trazado 213764" d="M35.553,9.728a2.676,2.676,0,1,1,2.676-2.676,2.678,2.678,0,0,1-2.676,2.676m0-3.54a.864.864,0,1,0,.864.864.866.866,0,0,0-.864-.864" fill="#fff"/>
        <path id="Trazado_213765" data-name="Trazado 213765" d="M35.553,12.986a2.535,2.535,0,1,1,2.535-2.535,2.537,2.537,0,0,1-2.535,2.535m0-3.258a.723.723,0,1,0,.723.723.724.724,0,0,0-.723-.723" fill="#fff"/>
        <path id="Trazado_213766" data-name="Trazado 213766" d="M23.953,7.237a3.094,3.094,0,1,1,3.093-3.094,3.1,3.1,0,0,1-3.093,3.094m0-4.376a1.282,1.282,0,1,0,1.282,1.282,1.283,1.283,0,0,0-1.282-1.282" fill="#fff"/>
        <path id="Trazado_213767" data-name="Trazado 213767" d="M21.1,9.728a2.676,2.676,0,1,1,2.676-2.676A2.678,2.678,0,0,1,21.1,9.728m0-3.54a.864.864,0,1,0,.864.864.866.866,0,0,0-.864-.864" fill="#fff"/>
        <path id="Trazado_213768" data-name="Trazado 213768" d="M21.1,12.986a2.535,2.535,0,1,1,2.535-2.535A2.537,2.537,0,0,1,21.1,12.986m0-3.258a.723.723,0,1,0,.723.723.724.724,0,0,0-.723-.723" fill="#fff"/>
        <path id="Trazado_213769" data-name="Trazado 213769" d="M52.732,34.97H39.21a.906.906,0,0,1-.906-.905v-3.49a.906.906,0,0,1,.906-.906H52.732a.906.906,0,0,1,.906.906v3.49a.906.906,0,0,1-.906.905M40.116,33.159h11.71V31.481H40.116Z" fill="#fff"/>
        <path id="Trazado_213770" data-name="Trazado 213770" d="M51.915,31.481H38.393a.906.906,0,0,1-.905-.906v-3.49a.906.906,0,0,1,.905-.906H51.915a.906.906,0,0,1,.906.906v3.49a.906.906,0,0,1-.906.906M39.3,29.669h11.71V27.991H39.3Z" fill="#fff"/>
        <path id="Trazado_213771" data-name="Trazado 213771" d="M53.417,27.991H40.931a.906.906,0,0,1-.906-.906v-3.49a.906.906,0,0,1,.906-.906H53.417a.906.906,0,0,1,.906.906v3.49a.906.906,0,0,1-.906.906m-11.58-1.812H52.511V24.5H41.837Z" fill="#fff"/>
        <path id="Trazado_213772" data-name="Trazado 213772" d="M54.371,53.448H2.285a.906.906,0,1,1,0-1.812H54.371a.906.906,0,1,1,0,1.812" fill="#fff"/>
      </g>
    </g>
  </g>
</svg>
