<svg xmlns="http://www.w3.org/2000/svg" width="39.724" height="177.77" viewBox="0 0 39.724 177.77">
  <g id="Grupo_183475" data-name="Grupo 183475" transform="translate(-464.743 -973.73)">
    <path id="Trazado_214688" data-name="Trazado 214688" d="M22.559-12.2q0,6.05-2.717,9.331A9.39,9.39,0,0,1,12.182.41a9.441,9.441,0,0,1-7.711-3.3Q1.743-6.193,1.743-12.2v-5.455q0-6.05,2.717-9.331a9.413,9.413,0,0,1,7.68-3.281,9.417,9.417,0,0,1,7.69,3.3q2.728,3.3,2.728,9.331Zm-6.911-6.337a10.65,10.65,0,0,0-.841-4.809,2.811,2.811,0,0,0-2.666-1.589,2.744,2.744,0,0,0-2.594,1.477,10.032,10.032,0,0,0-.872,4.471v7.629A10.73,10.73,0,0,0,9.516-6.47a2.821,2.821,0,0,0,2.666,1.548,2.783,2.783,0,0,0,2.6-1.507,10.243,10.243,0,0,0,.861-4.727ZM41.467,0H34.535V-22.066l-6.809,1.989v-5.25l13.1-4.532h.636Z" transform="translate(463 1004)" fill="#00a3be"/>
    <path id="Trazado_214692" data-name="Trazado 214692" d="M0,0V72" transform="translate(485.5 1079.5)" fill="none" stroke="rgba(0,163,190,0)" stroke-width="4" stroke-dasharray="6"/>
  </g>
</svg>
