<svg id="Grupo_183426" data-name="Grupo 183426" xmlns="http://www.w3.org/2000/svg" xmlns:xlink="http://www.w3.org/1999/xlink" width="276.315" height="273.368" viewBox="0 0 276.315 273.368">
  <defs>
    <clipPath id="clip-path">
      <rect id="Rectángulo_58115" data-name="Rectángulo 58115" width="276.315" height="273.368" fill="none"/>
    </clipPath>
    <clipPath id="clip-path-3">
      <rect id="Rectángulo_58107" data-name="Rectángulo 58107" width="237.609" height="246.545" fill="none"/>
    </clipPath>
    <clipPath id="clip-path-4">
      <rect id="Rectángulo_58108" data-name="Rectángulo 58108" width="56.427" height="32.057" fill="none"/>
    </clipPath>
    <clipPath id="clip-path-5">
      <rect id="Rectángulo_58109" data-name="Rectángulo 58109" width="107.958" height="167.134" fill="none"/>
    </clipPath>
    <clipPath id="clip-path-6">
      <rect id="Rectángulo_58110" data-name="Rectángulo 58110" width="79.857" height="79.861" fill="none"/>
    </clipPath>
  </defs>
  <g id="Grupo_183425" data-name="Grupo 183425" clip-path="url(#clip-path)">
    <g id="Grupo_183424" data-name="Grupo 183424" transform="translate(0 0)">
      <g id="Grupo_183423" data-name="Grupo 183423" clip-path="url(#clip-path)">
        <g id="Grupo_183413" data-name="Grupo 183413" transform="translate(1.613 1.644)" opacity="0.7" style="mix-blend-mode: multiply;isolation: isolate">
          <g id="Grupo_183412" data-name="Grupo 183412">
            <g id="Grupo_183411" data-name="Grupo 183411" clip-path="url(#clip-path-3)">
              <path id="Trazado_214498" data-name="Trazado 214498" d="M238.317,137.091c0-41.9-31.22-77.14-73.655-87.617a28.218,28.218,0,0,0,.143-32.389c-.355-.518-.739-1.03-1.137-1.526-.571-.712-1.173-1.382-1.8-2.026-.5-.771-1.041-1.526-1.623-2.258a29.186,29.186,0,0,0-2.2-2.424c-.2-.2-.407-.371-.6-.557-.591-.55-1.191-1.075-1.814-1.564-.1-.075-.18-.166-.275-.241l-.05,0a28.221,28.221,0,0,0-28.819-3.208l-.064-.007c-.246.114-.487.243-.732.364-.157.077-.314.152-.471.234q-1.071.556-2.1,1.212c-.134.084-.266.173-.4.261-.707.464-1.4.953-2.078,1.494h0l-.045.032a28.06,28.06,0,0,0-6.535,7.517l-.048-.007c-.173.291-.325.589-.487.884-.066.118-.132.236-.2.357-.4.755-.778,1.521-1.105,2.306l-.014.032c-.309.741-.578,1.494-.823,2.253-.066.2-.127.407-.189.612-.2.662-.371,1.328-.518,2-.03.13-.064.257-.091.387-.164.8-.289,1.6-.384,2.4-.02.18-.032.357-.05.537-.064.648-.1,1.3-.125,1.953,0,.211-.014.423-.016.634,0,.134-.011.268-.009.4l.023,0a28.056,28.056,0,0,0,6.153,17.387c.573.718,1.18,1.394,1.805,2.04A119.1,119.1,0,0,0,73,69.185C61.718,55.495,37.4,51.35,22.5,63.541l27.462,31.7c-8.408,14.7-14.625,30.977-32.91,41.852H.71v37.157H22.2s8.126,18.688,33.885,34c4.6,12.667,9.095,30.8,9.095,39.017H89.394s1.928-14.29,9.027-23.176a199.381,199.381,0,0,0,40.01,3.8,108.49,108.49,0,0,0,35.381-5.882c2.81,8.695,4.863,18.558,4.863,25.254h24.217s-1.487-23.637,5.432-45.331c18.5-16.482,29.992-39.44,29.992-64.846" transform="translate(-0.708 -0.723)" fill="gray"/>
            </g>
          </g>
        </g>
        <path id="Trazado_214499" data-name="Trazado 214499" d="M137.721,20.053c-32.53,0-64.471,18.162-79.659,36.018-14.543,17.1-17.808,40.563-41.723,54.787H0v37.157H21.487s23.308,53.648,116.234,53.648c55.16,0,99.886-40.654,99.886-90.805s-44.726-90.805-99.886-90.805" transform="translate(0 25.542)" fill="#ff7e5c"/>
        <path id="Trazado_214500" data-name="Trazado 214500" d="M138.4,42.79a4.619,4.619,0,0,1-.757.871,3.72,3.72,0,0,1-4.256.364A84.5,84.5,0,0,0,89.626,32.111c-13.983,0-29.458,4.5-43.551,12.715a3.387,3.387,0,0,1-1.821.507A3.545,3.545,0,0,1,41.9,44.42a2.848,2.848,0,0,1-.8-.9A3.7,3.7,0,0,1,42.4,38.538c15.222-8.824,31.964-13.692,47.225-13.692a92.053,92.053,0,0,1,47.507,12.931A3.662,3.662,0,0,1,138.4,42.79" transform="translate(51.737 31.647)" fill="#e85f3b"/>
        <path id="Trazado_214501" data-name="Trazado 214501" d="M9.582,31.691c19.981-16.348,56.911-3.331,56.6,22.7L50.752,79.209Z" transform="translate(12.205 31.159)" fill="#ff7e5c"/>
        <path id="Trazado_214502" data-name="Trazado 214502" d="M22.031,86.192c5.566,8.174,14.377,39.1,14.377,50.6H60.623s3.224-23.972,16.735-29.126S22.031,86.192,22.031,86.192" transform="translate(28.061 109.784)" fill="#ff8d6e"/>
        <path id="Trazado_214503" data-name="Trazado 214503" d="M73.166,104.793c5.564,8.174,11.612,29.058,11.612,40.558h24.215s-2.515-39.692,14.029-63.409c8.276-11.864-49.856,22.851-49.856,22.851" transform="translate(93.192 101.223)" fill="#ff8d6e"/>
        <path id="Trazado_214504" data-name="Trazado 214504" d="M29.453,62.866c0,3.572-2.483,6.466-5.541,6.466s-5.541-2.894-5.541-6.466S20.854,56.4,23.912,56.4s5.541,2.9,5.541,6.471" transform="translate(23.399 71.831)" fill="#87412e"/>
        <path id="Trazado_214505" data-name="Trazado 214505" d="M136.93,40.61a3.72,3.72,0,0,1-4.256.362A84.532,84.532,0,0,0,88.909,29.06c-13.983,0-29.456,4.5-43.548,12.712a3.37,3.37,0,0,1-1.821.509,3.541,3.541,0,0,1-2.358-.912,1.519,1.519,0,0,1,.5-.432c15.22-8.829,31.964-13.7,47.223-13.7a92.083,92.083,0,0,1,47.507,12.933,1.521,1.521,0,0,1,.514.437" transform="translate(52.454 34.697)" fill="#87412e"/>
        <path id="Trazado_214506" data-name="Trazado 214506" d="M60.16,8.064a28.2,28.2,0,0,0-4.4,39.649L99.82,12.47A28.223,28.223,0,0,0,60.16,8.064" transform="translate(63.139 2.397)" fill="#f59905"/>
        <path id="Trazado_214507" data-name="Trazado 214507" d="M91.949,46.188a28.177,28.177,0,0,1-39.658-4.409L96.358,6.539c.4.493.78,1.007,1.137,1.526a28.205,28.205,0,0,1-5.546,38.123" transform="translate(66.604 8.329)" fill="#f59905"/>
        <path id="Trazado_214508" data-name="Trazado 214508" d="M98.312,10.584A28.216,28.216,0,1,0,93.9,50.242a28.225,28.225,0,0,0,4.409-39.658" transform="translate(61.225 0)" fill="#ffbf00"/>
        <path id="Trazado_214509" data-name="Trazado 214509" d="M58.962,7.235A23.443,23.443,0,0,0,55.3,40.2L91.949,10.889A23.472,23.472,0,0,0,58.962,7.235" transform="translate(63.885 2.66)" fill="#f59905"/>
        <path id="Trazado_214510" data-name="Trazado 214510" d="M89.065,5.959,52.42,35.272A23.463,23.463,0,1,0,89.065,5.959" transform="translate(66.768 7.59)" fill="#f59207"/>
        <path id="Trazado_214511" data-name="Trazado 214511" d="M56.076,35.991A19.912,19.912,0,1,1,84.07,39.1a19.93,19.93,0,0,1-27.994-3.113M86.487,11.674A19.023,19.023,0,1,0,83.51,38.422a19.041,19.041,0,0,0,2.976-26.748" transform="translate(65.879 4.654)" fill="#ffbf00"/>
        <path id="Trazado_214512" data-name="Trazado 214512" d="M67.989,8.694c3.934-3.09,7.121-1.671,9.6,1.262l2.362-1.869L82.02,10.7,79.65,12.6A23.655,23.655,0,0,1,82.59,18l-3.5,2.769c-1.171-1.767-3.376-4.807-4.445-6.164-1.246-1.61-2-2.278-3.5-1.087l-.682.541c-1.191.937-1.271,1.812-.121,3.254l1.751,2.2c3.22,4.079.568,7.567-1.639,9.311l-1.148.914c-4.666,3.695-7.924,1.76-10.093-.966l-2.246,1.776L54.9,27.939l2.283-1.808a18.259,18.259,0,0,1-2.985-5.486L57.675,17.9c.8,1.153,2.744,4,4.763,6.551.925,1.171,1.926,1.883,3.117.937l.8-.632c.975-.782,1.335-1.548.261-2.9L64.93,19.726c-3.893-4.916-.155-8.479,1.351-9.672Z" transform="translate(69.027 8.863)" fill="#ffbf00"/>
        <g id="Grupo_183416" data-name="Grupo 183416" transform="translate(109.293 2.578)" opacity="0.3" style="mix-blend-mode: screen;isolation: isolate">
          <g id="Grupo_183415" data-name="Grupo 183415">
            <g id="Grupo_183414" data-name="Grupo 183414" clip-path="url(#clip-path-4)">
              <path id="Trazado_214513" data-name="Trazado 214513" d="M87.46,4.355,58.527,1.133A28.178,28.178,0,0,0,52.745,4.7L92.319,9.1A27.852,27.852,0,0,0,87.46,4.355" transform="translate(-42.112 -1.135)" fill="#ffbf00"/>
              <path id="Trazado_214514" data-name="Trazado 214514" d="M103.084,11.694,52.076,6.019A28.386,28.386,0,0,0,48.07,20.778l55.683,6.194a28.316,28.316,0,0,0-.668-15.277" transform="translate(-48.068 5.088)" fill="#ffbf00"/>
            </g>
          </g>
        </g>
        <g id="Grupo_183419" data-name="Grupo 183419" transform="translate(168.357 106.234)" opacity="0.7" style="mix-blend-mode: multiply;isolation: isolate">
          <g id="Grupo_183418" data-name="Grupo 183418">
            <g id="Grupo_183417" data-name="Grupo 183417" clip-path="url(#clip-path-5)">
              <path id="Trazado_214515" data-name="Trazado 214515" d="M181.592,96.032c-2.4-29-24.185-49.31-53.375-49.31h-.387c-29.179,0-50.979,20.309-53.369,49.31-1.182,14.218-1.428,27.091,21.946,54.5,2.56,3.006,4.17,7.594,5.2,12.253h-4.62v7.4h2.688v7.521H96.992V185.1h2.688v7.51H96.992v7.408h3.12a7.206,7.206,0,0,0,2.015,1.53l19.349,10.791a14.915,14.915,0,0,0,13.106,0l19.342-10.791a7.275,7.275,0,0,0,2.014-1.53h3.122v-7.408h-2.688V185.1h2.688v-7.394h-2.688v-7.521h2.688v-7.4h-4.616c1.035-4.659,2.64-9.247,5.2-12.253,23.376-27.41,23.117-40.283,21.95-54.5" transform="translate(-74.045 -46.724)" fill="gray"/>
            </g>
          </g>
        </g>
        <path id="Trazado_214516" data-name="Trazado 214516" d="M127.13,45.83h-.191c-29.179,0-50.979,20.309-53.371,49.308-1.18,14.217-1.426,27.091,21.948,54.5,4.886,5.737,6.33,17.226,6.862,23.994.3,3.681,18.106,6.087,24.752,6.571h.007V45.83Z" transform="translate(93.175 58.374)" fill="#fefefe"/>
        <path id="Trazado_214517" data-name="Trazado 214517" d="M150.459,95.139c-2.4-29-24.185-49.308-53.375-49.308h-.189V180.2c6.653-.484,24.447-2.89,24.749-6.571.548-6.767,1.985-18.256,6.864-23.992,23.376-27.41,23.117-40.283,21.95-54.5" transform="translate(123.416 58.375)" fill="#fefefe"/>
        <path id="Trazado_214518" data-name="Trazado 214518" d="M112.776,96.876H84.427V133.3h0c.052.632.857,1.453,2.442,2.337l19.349,10.793a14.935,14.935,0,0,0,13.106,0l19.342-10.793c1.58-.884,2.385-1.705,2.449-2.337V96.876Z" transform="translate(107.536 123.392)" fill="#153152"/>
        <path id="Trazado_214519" data-name="Trazado 214519" d="M79.257,93.462a44.709,44.709,0,0,0,44.71,44.708V48.747a44.707,44.707,0,0,0-44.71,44.715" transform="translate(100.95 62.09)" fill="#eda73f"/>
        <path id="Trazado_214520" data-name="Trazado 214520" d="M143.63,93.462A44.662,44.662,0,0,1,98.92,138.17V48.747c1.014,0,2.021.041,3.017.109A44.7,44.7,0,0,1,143.63,93.462" transform="translate(125.995 62.09)" fill="#eda73f"/>
        <path id="Trazado_214521" data-name="Trazado 214521" d="M120.15,48.747a44.71,44.71,0,1,0,44.712,44.715A44.7,44.7,0,0,0,120.15,48.747" transform="translate(96.091 62.09)" fill="#ffce3b"/>
        <path id="Trazado_214522" data-name="Trazado 214522" d="M78.749,89.245a37.192,37.192,0,0,0,37.189,37.187V52.058A37.187,37.187,0,0,0,78.749,89.245" transform="translate(100.303 66.307)" fill="#eda73f"/>
        <path id="Trazado_214523" data-name="Trazado 214523" d="M95.1,52.058v74.373a37.187,37.187,0,1,0,0-74.373" transform="translate(121.136 66.307)" fill="#f59407"/>
        <path id="Trazado_214524" data-name="Trazado 214524" d="M112.779,117.64a31.552,31.552,0,1,1,31.545-31.55,31.584,31.584,0,0,1-31.545,31.55m0-61.7a30.149,30.149,0,1,0,30.14,30.149,30.177,30.177,0,0,0-30.14-30.149" transform="translate(103.462 69.462)" fill="#ffce3b"/>
        <path id="Trazado_214525" data-name="Trazado 214525" d="M89.1,72.68c.061-7.938,4.966-10.482,11.073-10.646l.014-4.768,5.3.025-.023,4.811a37.984,37.984,0,0,1,9.613,1.7l-.03,7.092c-3.351-.309-9.306-.587-12.044-.6-3.22-.05-4.8.2-4.818,3.263l-.007,1.369c-.007,2.4.982,3.361,3.922,3.372l4.452.023c8.238.043,9.927,6.782,9.907,11.241l-.023,2.317c-.036,9.425-5.666,11.55-11.178,11.525l-.023,4.541-5.289-.018.025-4.622a28.871,28.871,0,0,1-9.736-1.733l.043-7.037c2.217.175,7.671.575,12.817.6,2.353.014,4.243-.53,4.256-2.926l.011-1.612c0-2-.6-3.185-3.331-3.2l-4.306-.018c-9.936-.048-10.661-8.2-10.639-11.25Z" transform="translate(113.471 72.942)" fill="#ffce3b"/>
        <g id="Grupo_183422" data-name="Grupo 183422" transform="translate(171.534 110.837)" opacity="0.3" style="mix-blend-mode: screen;isolation: isolate">
          <g id="Grupo_183421" data-name="Grupo 183421">
            <g id="Grupo_183420" data-name="Grupo 183420" clip-path="url(#clip-path-6)">
              <path id="Trazado_214526" data-name="Trazado 214526" d="M109.363,50.067,76.752,82.676a44.831,44.831,0,0,0-1.31,10.693L120.05,48.748a44.908,44.908,0,0,0-10.686,1.319" transform="translate(-75.442 -48.746)" fill="#ffce3b"/>
              <path id="Trazado_214527" data-name="Trazado 214527" d="M134.164,49.974l-57.5,57.5a44.9,44.9,0,0,0,14.29,19.572L153.74,64.262a44.851,44.851,0,0,0-19.577-14.288" transform="translate(-73.883 -47.185)" fill="#ffce3b"/>
            </g>
          </g>
        </g>
        <rect id="Rectángulo_58111" data-name="Rectángulo 58111" width="62.068" height="7.401" transform="translate(189.275 220.268)" fill="#193a61"/>
        <rect id="Rectángulo_58112" data-name="Rectángulo 58112" width="62.068" height="7.394" transform="translate(189.275 235.188)" fill="#193a61"/>
        <rect id="Rectángulo_58113" data-name="Rectángulo 58113" width="62.068" height="7.408" transform="translate(189.275 250.092)" fill="#193a61"/>
      </g>
    </g>
  </g>
</svg>
