<svg xmlns="http://www.w3.org/2000/svg" xmlns:xlink="http://www.w3.org/1999/xlink" width="354" height="457" viewBox="0 0 354 457">
  <defs>
    <clipPath id="clip-path">
      <rect id="Rectángulo_57448" data-name="Rectángulo 57448" width="82.271" height="77.636" fill="none" stroke="#678589" stroke-width="5"/>
    </clipPath>
  </defs>
  <g id="Grupo_183476" data-name="Grupo 183476" transform="translate(-1066 -570.75)">
    <path id="Trazado_214685" data-name="Trazado 214685" d="M10,0H344a10,10,0,0,1,10,10V447a10,10,0,0,1-10,10H10A10,10,0,0,1,0,447V10A10,10,0,0,1,10,0Z" transform="translate(1066 570.75)" fill="#dee4f0"/>
    <path id="Trazado_214686" data-name="Trazado 214686" d="M56.455,16.2H49.822V23H45.709V5.938H57.123V9.113h-7.3v3.926h6.633ZM62.818,23H58.857V5h3.961ZM72.8,21.629a4.072,4.072,0,0,1-3.387,1.605,3.993,3.993,0,0,1-3.158-1.213,5.1,5.1,0,0,1-1.072-3.486V10.32h3.949v8.238a1.419,1.419,0,0,0,1.582,1.629,2.064,2.064,0,0,0,1.934-.973V10.32h3.973V23h-3.7ZM83.033,10.32V23.434A4.6,4.6,0,0,1,81.744,26.9a4.952,4.952,0,0,1-3.562,1.219,8.411,8.411,0,0,1-1.863-.2V24.934a7.556,7.556,0,0,0,1.113.105,1.445,1.445,0,0,0,1.641-1.629V10.32ZM78.779,7.039a1.778,1.778,0,0,1,.609-1.391,2.579,2.579,0,0,1,3.164,0,1.778,1.778,0,0,1,.609,1.391,1.778,1.778,0,0,1-.609,1.391,2.579,2.579,0,0,1-3.164,0A1.778,1.778,0,0,1,78.779,7.039Zm5.988,9.5a7.484,7.484,0,0,1,.738-3.381,5.28,5.28,0,0,1,2.121-2.279,6.388,6.388,0,0,1,3.246-.8,5.83,5.83,0,0,1,4.488,1.764A6.768,6.768,0,0,1,97,16.648v.141a6.566,6.566,0,0,1-1.646,4.705,5.846,5.846,0,0,1-4.459,1.74,5.912,5.912,0,0,1-4.348-1.623,6.348,6.348,0,0,1-1.77-4.4Zm3.949.246a4.718,4.718,0,0,0,.551,2.578,1.835,1.835,0,0,0,1.629.82q2.109,0,2.156-3.246v-.4q0-3.41-2.18-3.41-1.98,0-2.145,2.941Zm15.5-.223a7.746,7.746,0,0,1,1.3-4.746,4.282,4.282,0,0,1,3.633-1.734,3.641,3.641,0,0,1,2.859,1.336V5h3.961V23h-3.551l-.2-1.359a3.739,3.739,0,0,1-3.094,1.594,4.274,4.274,0,0,1-3.586-1.734A7.991,7.991,0,0,1,104.221,16.566Zm3.949.246q0,3.375,1.969,3.375a1.944,1.944,0,0,0,1.875-1.1V14.258a1.892,1.892,0,0,0-1.852-1.125q-1.828,0-1.98,2.953Zm16.184,6.422a6.518,6.518,0,0,1-4.723-1.74,6.009,6.009,0,0,1-1.8-4.529v-.328a7.787,7.787,0,0,1,.721-3.434,5.274,5.274,0,0,1,2.1-2.3,6.35,6.35,0,0,1,3.281-.814,5.489,5.489,0,0,1,4.219,1.658,6.516,6.516,0,0,1,1.547,4.623V17.9h-7.852a2.846,2.846,0,0,0,.926,1.676,2.755,2.755,0,0,0,1.852.609,3.549,3.549,0,0,0,2.93-1.312l1.8,2.133a5.045,5.045,0,0,1-2.092,1.623A7.069,7.069,0,0,1,124.354,23.234Zm-.445-10.1q-1.734,0-2.062,2.3h3.984v-.3a1.956,1.956,0,0,0-.48-1.471A1.912,1.912,0,0,0,123.908,13.133Zm18.715,7.055a1.756,1.756,0,0,0,1.289-.451,1.654,1.654,0,0,0,.445-1.26h3.7a4.384,4.384,0,0,1-1.494,3.422,5.558,5.558,0,0,1-3.85,1.336,5.627,5.627,0,0,1-4.359-1.734,6.834,6.834,0,0,1-1.594-4.8v-.164a7.723,7.723,0,0,1,.709-3.393,5.162,5.162,0,0,1,2.045-2.262,6.1,6.1,0,0,1,3.164-.791,5.488,5.488,0,0,1,3.926,1.371,4.863,4.863,0,0,1,1.453,3.715h-3.7a2.168,2.168,0,0,0-.48-1.512,1.658,1.658,0,0,0-1.289-.527q-1.535,0-1.793,1.957a13.809,13.809,0,0,0-.082,1.711,5.424,5.424,0,0,0,.457,2.648A1.582,1.582,0,0,0,142.623,20.188ZM156.873,23a4.459,4.459,0,0,1-.375-1.137,3.672,3.672,0,0,1-3.047,1.371A4.5,4.5,0,0,1,150.4,22.15a3.45,3.45,0,0,1-1.254-2.725,3.546,3.546,0,0,1,1.523-3.117,7.761,7.761,0,0,1,4.43-1.055h1.219v-.671q0-1.755-1.512-1.755a1.236,1.236,0,0,0-1.406,1.39h-3.949a3.54,3.54,0,0,1,1.564-2.985,6.575,6.575,0,0,1,3.99-1.147,5.764,5.764,0,0,1,3.832,1.184,4.115,4.115,0,0,1,1.441,3.246v5.613a5.748,5.748,0,0,0,.539,2.672V23ZM154.4,20.422a2.2,2.2,0,0,0,1.225-.316,1.983,1.983,0,0,0,.7-.715V17.363h-1.148q-2.062,0-2.062,1.852a1.131,1.131,0,0,0,.363.873A1.315,1.315,0,0,0,154.4,20.422Zm12.316-10.1V23.434a4.6,4.6,0,0,1-1.289,3.469,4.952,4.952,0,0,1-3.562,1.219,8.411,8.411,0,0,1-1.863-.2V24.934a7.556,7.556,0,0,0,1.113.105,1.445,1.445,0,0,0,1.641-1.629V10.32Zm-4.254-3.281a1.778,1.778,0,0,1,.609-1.391,2.579,2.579,0,0,1,3.164,0,1.778,1.778,0,0,1,.609,1.391,1.778,1.778,0,0,1-.609,1.391,2.579,2.579,0,0,1-3.164,0A1.778,1.778,0,0,1,162.463,7.039ZM176.092,23a4.459,4.459,0,0,1-.375-1.137,3.672,3.672,0,0,1-3.047,1.371,4.5,4.5,0,0,1-3.047-1.084,3.45,3.45,0,0,1-1.254-2.725,3.546,3.546,0,0,1,1.523-3.117,7.761,7.761,0,0,1,4.43-1.055h1.219v-.671q0-1.755-1.512-1.755a1.236,1.236,0,0,0-1.406,1.39h-3.949a3.54,3.54,0,0,1,1.564-2.985,6.575,6.575,0,0,1,3.99-1.147,5.764,5.764,0,0,1,3.832,1.184,4.115,4.115,0,0,1,1.441,3.246v5.613a5.748,5.748,0,0,0,.539,2.672V23Zm-2.473-2.578a2.2,2.2,0,0,0,1.225-.316,1.983,1.983,0,0,0,.7-.715V17.363h-1.148q-2.062,0-2.062,1.852a1.131,1.131,0,0,0,.363.873A1.315,1.315,0,0,0,173.619,20.422Z" transform="translate(1125 876.75)" fill="#12263f"/>
    <g id="Grupo_182633" data-name="Grupo 182633" transform="translate(1210 739.341)">
      <g id="Grupo_182632" data-name="Grupo 182632" clip-path="url(#clip-path)">
        <path id="Trazado_212876" data-name="Trazado 212876" d="M10.02,20.655H6.961A6.211,6.211,0,0,1,.75,14.444V12.961A6.211,6.211,0,0,1,6.961,6.75H73.334a6.211,6.211,0,0,1,6.211,6.211v1.483a6.211,6.211,0,0,1-6.211,6.211H70.275" transform="translate(0.988 8.893)" fill="none" stroke="#678589" stroke-linecap="round" stroke-linejoin="round" stroke-width="5"/>
        <path id="Trazado_212877" data-name="Trazado 212877" d="M.75,19.29V6.961A6.211,6.211,0,0,1,6.961.75H73.334a6.211,6.211,0,0,1,6.211,6.211V19.29" transform="translate(0.988 0.988)" fill="none" stroke="#678589" stroke-linecap="round" stroke-linejoin="round" stroke-width="5"/>
        <path id="Trazado_212878" data-name="Trazado 212878" d="M54.1,6.75V53.1H7.75V6.75" transform="translate(10.211 8.893)" fill="none" stroke="#678589" stroke-linecap="round" stroke-linejoin="round" stroke-width="5"/>
        <line id="Línea_838" data-name="Línea 838" x1="46.35" transform="translate(17.961 68.945)" fill="none" stroke="#678589" stroke-linecap="round" stroke-linejoin="round" stroke-width="5"/>
        <line id="Línea_839" data-name="Línea 839" x1="46.35" transform="translate(17.961 75.898)" fill="none" stroke="#678589" stroke-linecap="round" stroke-linejoin="round" stroke-width="5"/>
        <path id="Trazado_212879" data-name="Trazado 212879" d="M37.7,6.748a13.9,13.9,0,1,1-24.086,0" transform="translate(15.481 8.89)" fill="none" stroke="#678589" stroke-linecap="round" stroke-linejoin="round" stroke-width="5"/>
        <path id="Trazado_212880" data-name="Trazado 212880" d="M21.982,29.6a8.733,8.733,0,0,1,8.732-8.735" transform="translate(28.961 27.49)" fill="none" stroke="#678589" stroke-linecap="round" stroke-linejoin="round" stroke-width="5"/>
        <path id="Trazado_212881" data-name="Trazado 212881" d="M18.716,29.6a8.735,8.735,0,0,0-8.735-8.735" transform="translate(13.15 27.49)" fill="none" stroke="#678589" stroke-linecap="round" stroke-linejoin="round" stroke-width="5"/>
      </g>
    </g>
  </g>
</svg>
