<svg xmlns="http://www.w3.org/2000/svg" width="45.24" height="177.79" viewBox="0 0 45.24 177.79">
  <g id="Grupo_183477" data-name="Grupo 183477" transform="translate(-7581.743 10016.29)">
    <path id="Trazado_214691" data-name="Trazado 214691" d="M22.559-12.2q0,6.05-2.717,9.331A9.39,9.39,0,0,1,12.182.41a9.441,9.441,0,0,1-7.711-3.3Q1.743-6.193,1.743-12.2v-5.455q0-6.05,2.717-9.331a9.413,9.413,0,0,1,7.68-3.281,9.417,9.417,0,0,1,7.69,3.3q2.728,3.3,2.728,9.331Zm-6.911-6.337a10.65,10.65,0,0,0-.841-4.809,2.811,2.811,0,0,0-2.666-1.589,2.744,2.744,0,0,0-2.594,1.477,10.032,10.032,0,0,0-.872,4.471v7.629A10.73,10.73,0,0,0,9.516-6.47a2.821,2.821,0,0,0,2.666,1.548,2.783,2.783,0,0,0,2.6-1.507,10.243,10.243,0,0,0,.861-4.727Zm16.816.718h3.261q3.876,0,3.876-3.794a3.281,3.281,0,0,0-.923-2.41,3.5,3.5,0,0,0-2.6-.933,3.746,3.746,0,0,0-2.389.8,2.44,2.44,0,0,0-1.015,1.989H25.758a7.075,7.075,0,0,1,1.313-4.2,8.667,8.667,0,0,1,3.64-2.881,12.446,12.446,0,0,1,5.117-1.036q4.983,0,7.834,2.276a7.567,7.567,0,0,1,2.851,6.255,6.307,6.307,0,0,1-1.179,3.64A8.4,8.4,0,0,1,41.9-15.34a8.028,8.028,0,0,1,3.732,2.615,6.886,6.886,0,0,1,1.354,4.337,7.7,7.7,0,0,1-3.076,6.4,12.769,12.769,0,0,1-8.08,2.4A13.242,13.242,0,0,1,30.382-.708a8.531,8.531,0,0,1-3.8-3.1,8.051,8.051,0,0,1-1.292-4.5h6.952a3.112,3.112,0,0,0,1.107,2.379,3.91,3.91,0,0,0,2.728,1,4.1,4.1,0,0,0,2.912-1.015,3.393,3.393,0,0,0,1.087-2.594,3.967,3.967,0,0,0-1.128-3.2,4.715,4.715,0,0,0-3.117-.943H32.464Z" transform="translate(7580 -9986)" fill="#f37f4c"/>
    <line id="Línea_826" data-name="Línea 826" y2="72" transform="translate(7608 -9910.5)" fill="none" stroke="rgba(243,127,76,0)" stroke-width="4" stroke-dasharray="6"/>
  </g>
</svg>
