<svg xmlns="http://www.w3.org/2000/svg" width="1240" height="970" viewBox="0 0 1240 970">
  <g id="Grupo_183473" data-name="Grupo 183473" transform="translate(-180 -3400)">
    <rect id="Rectángulo_57766" data-name="Rectángulo 57766" width="1240" height="970" transform="translate(180 3400)" fill="#f3f3f3"/>
    <text id="Ley_454_de_1998._Direcciona_los_principios_y_fines_para_las_empresas_de_economía_solidaria._Herramienta:_mapa_estratégico._" data-name="Ley 454 de 1998. Direcciona los principios y fines para las empresas de economía solidaria.
Herramienta: mapa estratégico.
" transform="translate(390 3636.617)" fill="#12263f" font-size="16" font-family="Roboto-Regular, Roboto"><tspan x="0" y="15">Ley 454 de 1998. Direcciona los </tspan><tspan x="0" y="39">principios y fines para las empresas de </tspan><tspan x="0" y="63">economía solidaria.</tspan><tspan font-family="Roboto-Bold, Roboto" font-weight="700"><tspan x="0" y="87">Herramienta: </tspan><tspan y="87" font-family="Roboto-Regular, Roboto" font-weight="400">mapa estratégico.</tspan></tspan><tspan x="0" y="111"></tspan></text>
    <text id="Identidad_corporativa" data-name="Identidad corporativa" transform="translate(390 3625.617)" fill="#00a3be" font-size="18" font-family="Roboto-Black, Roboto" font-weight="800"><tspan x="0" y="0">Identidad corporativa</tspan></text>
    <text id="Marcan_el_camino_a_seguir_cumpliendo_que_sean:_específicos_mensurables_alcanzables_relevantes_y_temporales_SMART._Herramienta:_mapa_estratégico." data-name="Marcan el camino a seguir, cumpliendo que sean: específicos, mensurables, alcanzables, relevantes y temporales – SMART.
Herramienta: mapa estratégico." transform="translate(600 4028.331)" fill="#12263f" font-size="16" font-family="Roboto-Regular, Roboto"><tspan x="0" y="15">Marcan el camino a seguir, cumpliendo </tspan><tspan x="0" y="39">que sean: específicos, mensurables, </tspan><tspan x="0" y="63">alcanzables, relevantes y temporales – </tspan><tspan x="0" y="87">SMART.</tspan><tspan font-family="Roboto-Bold, Roboto" font-weight="700"><tspan x="0" y="111">Herramienta: </tspan><tspan y="111" font-family="Roboto-Regular, Roboto" font-weight="400">mapa estratégico.</tspan></tspan></text>
    <text id="Objetivos_estratégicos" data-name="Objetivos estratégicos" transform="translate(600 4015.643)" fill="#678589" font-size="18" font-family="Roboto-Black, Roboto" font-weight="800"><tspan x="0" y="0">Objetivos estratégicos</tspan></text>
    <text id="Bases_por_las_cuales_una_empresa:_crea_proporciona_y_capta_valor._Herramienta:_lienzo_Canvas." data-name="Bases por las cuales una empresa: crea, proporciona y capta valor.
Herramienta: lienzo Canvas." transform="translate(180 4028.643)" fill="#12263f" font-size="16" font-family="Roboto-Regular, Roboto"><tspan x="0" y="15">Bases por las cuales una empresa: crea, </tspan><tspan x="0" y="39">proporciona y capta valor.</tspan><tspan font-family="Roboto-Bold, Roboto" font-weight="700"><tspan x="0" y="63">Herramienta:</tspan><tspan y="63" xml:space="preserve" font-family="Roboto-Regular, Roboto" font-weight="400"> lienzo Canvas.</tspan></tspan></text>
    <text id="Modelo_de_negocio" data-name="Modelo de negocio" transform="translate(180 4015.643)" fill="#f37f4c" font-size="18" font-family="Roboto-Black, Roboto" font-weight="800"><tspan x="0" y="0">Modelo de negocio</tspan></text>
    <text id="Están_direccionados_con_el_desarrollo_integral_de_los_asociados_entre_los_cuales_se_encuentran:_-_Desarrollo_social._-_Desarrollo_económico._-_Desarrollo_de_la_cultura_solidaria._-_Desarrollo_de_la_cultura_ambiental._C" data-name="Están direccionados con el desarrollo integral de los asociados, entre los cuales se encuentran:

- Desarrollo social.                               
- Desarrollo económico.
- Desarrollo de la cultura solidaria.    
- Desarrollo de la cultura ambiental.

C" transform="translate(1020 4038.731)" fill="#12263f" font-size="16" font-family="Roboto-Regular, Roboto"><tspan x="0" y="15">Están direccionados con el desarrollo integral de los </tspan><tspan x="0" y="39">asociados, entre los cuales se encuentran:</tspan><tspan x="0" y="63"></tspan><tspan x="0" y="87" xml:space="preserve">- Desarrollo social.                               </tspan><tspan x="0" y="111">- Desarrollo económico.</tspan><tspan x="0" y="135" xml:space="preserve">- Desarrollo de la cultura solidaria.    </tspan><tspan x="0" y="159">- Desarrollo de la cultura ambiental.</tspan><tspan x="0" y="183"></tspan><tspan x="0" y="207">Cada programa para el desarrollo integral tendrá </tspan><tspan x="0" y="231">asignado un presupuesto.</tspan><tspan x="0" y="255"></tspan><tspan font-family="Roboto-Bold, Roboto" font-weight="700"><tspan x="0" y="279">Herramienta:</tspan><tspan y="279" xml:space="preserve" font-family="Roboto-Regular, Roboto" font-weight="400"> plan de acción.</tspan></tspan><tspan x="0" y="303"></tspan></text>
    <text id="Programas_y_presupuesto" data-name="Programas y presupuesto" transform="translate(1020 4015.643)" fill="#32d9cb" font-size="18" font-family="Roboto-Black, Roboto" font-weight="800"><tspan x="0" y="0">Programas y presupuesto</tspan></text>
    <circle id="Elipse_5421" data-name="Elipse 5421" cx="7.5" cy="7.5" r="7.5" transform="translate(950 3746.118)" fill="#12263f"/>
    <circle id="Elipse_5578" data-name="Elipse 5578" cx="7.5" cy="7.5" r="7.5" transform="translate(320 3962.722)" fill="#f37f4c"/>
    <path id="Trazado_210304" data-name="Trazado 210304" d="M20.25,0,0,35.073,20.25,70.147h40.5L81,35.073,60.75,0Z" transform="translate(289 3826.347)" fill="#f37f4c"/>
    <path id="Trazado_210305" data-name="Trazado 210305" d="M76.275,107.363l-15.9-27.539,15.9-27.538h31.8l15.9,27.538-15.9,27.539Z" transform="translate(237.325 3781.596)" fill="#fff"/>
    <text id="_01" data-name="01" transform="translate(315 3870.992)" fill="#f37f4c" font-size="25" font-family="Roboto-Black, Roboto" font-weight="800"><tspan x="0" y="0">01</tspan></text>
    <path id="Trazado_210306" data-name="Trazado 210306" d="M20.509,0,0,35.521,20.509,71.043H61.526L82.034,35.521,61.526,0Z" transform="translate(497.965 3826.346)" fill="#00a3be"/>
    <path id="Trazado_210307" data-name="Trazado 210307" d="M76.477,108.066l-16.1-27.89,16.1-27.89h32.2l16.1,27.89-16.1,27.89Z" transform="translate(446.403 3781.692)" fill="#fff"/>
    <text id="_02" data-name="02" transform="translate(520.707 3870.233)" fill="#00a3be" font-size="28" font-family="Roboto-Black, Roboto" font-weight="800"><tspan x="0" y="0">02</tspan></text>
    <path id="Trazado_210304-2" data-name="Trazado 210304" d="M21.25,0,0,36.805,21.25,73.612h42.5L85,36.805,63.75,0Z" transform="translate(705 3824.945)" fill="#678589"/>
    <path id="Trazado_210305-2" data-name="Trazado 210305" d="M77.06,110.082l-16.684-28.9,16.684-28.9h33.369l16.685,28.9-16.685,28.9Z" transform="translate(653.755 3780.979)" fill="#fff"/>
    <text id="_03" data-name="03" transform="translate(729.32 3872.923)" fill="#678589" font-size="31" font-family="Roboto-Black, Roboto" font-weight="800"><tspan x="0" y="0">03</tspan></text>
    <path id="Trazado_210308" data-name="Trazado 210308" d="M21.25,0,0,36.805,21.25,73.612h42.5L85,36.805,63.75,0Z" transform="translate(1125 3824.945)" fill="#32d9cb"/>
    <path id="Trazado_210309" data-name="Trazado 210309" d="M77.06,110.082l-16.684-28.9,16.684-28.9h33.369l16.685,28.9-16.685,28.9Z" transform="translate(1073.755 3780.566)" fill="#fff"/>
    <text id="_05" data-name="05" transform="translate(1148.949 3872.521)" fill="#32d9cb" font-size="31" font-family="Roboto-Black, Roboto" font-weight="800"><tspan x="0" y="0">05</tspan></text>
    <path id="Trazado_210306-2" data-name="Trazado 210306" d="M21.25,0,0,36.805,21.25,73.612h42.5L85,36.805,63.75,0Z" transform="translate(915 3824.945)" fill="#12263f"/>
    <path id="Trazado_210307-2" data-name="Trazado 210307" d="M77.059,110.082l-16.685-28.9,16.685-28.9h33.369l16.684,28.9-16.684,28.9Z" transform="translate(863.757 3779.676)" fill="#fff"/>
    <text id="_04" data-name="04" transform="translate(938.849 3871.479)" fill="#12263f" font-size="31" font-family="Roboto-Black, Roboto" font-weight="800"><tspan x="0" y="0">04</tspan></text>
    <line id="Línea_700" data-name="Línea 700" x1="1" y1="77.564" transform="translate(1167.479 3898.558)" fill="none" stroke="#32d9cb" stroke-width="3"/>
    <ellipse id="Elipse_5422" data-name="Elipse 5422" cx="8.167" cy="8.5" rx="8.167" ry="8.5" transform="translate(1159.333 3965.289)" fill="#32d9cb"/>
    <path id="Trazado_213867" data-name="Trazado 213867" d="M-7878-7108.667v74.728" transform="translate(8835.5 10861.285)" fill="none" stroke="#12263f" stroke-width="3"/>
    <path id="Trazado_214109" data-name="Trazado 214109" d="M-7878-7108.667v74.728" transform="translate(8205.5 11005.161)" fill="none" stroke="#f37f4c" stroke-width="3"/>
    <g id="Elipse_5579" data-name="Elipse 5579" transform="translate(530 3746.118)" fill="#00a3be" stroke="#00a3be" stroke-width="1">
      <circle cx="7.5" cy="7.5" r="7.5" stroke="none"/>
      <circle cx="7.5" cy="7.5" r="7" fill="none"/>
    </g>
    <path id="Trazado_214110" data-name="Trazado 214110" d="M-7878-7108.667v74.728" transform="translate(8415.5 10862.285)" fill="none" stroke="#00a3be" stroke-width="3"/>
    <text id="Atributos_de_la_estrategia:_-_Que_sea_clara._-_Que_sea_medible._-_Que_se_pueda_controlar._-_Que_tenga_recursos._-_Que_tenga_un_responsable._Características_de_las_políticas:_-_Declaración_o_enunciado._-_Definición_de" data-name="Atributos de la estrategia:
- Que sea clara.                          - Que sea medible.
- Que se pueda controlar.         - Que tenga recursos.
- Que tenga un responsable.

Características de las políticas:
- Declaración o enunciado.       - Definición de" transform="translate(810 3476.643)" fill="#12263f" font-size="16" font-family="Roboto-Regular, Roboto"><tspan x="0" y="15">Atributos de la estrategia:</tspan><tspan x="0" y="39" xml:space="preserve">- Que sea clara.                          - Que sea medible.</tspan><tspan x="0" y="63" xml:space="preserve">- Que se pueda controlar.         - Que tenga recursos.</tspan><tspan x="0" y="87">- Que tenga un responsable.</tspan><tspan x="0" y="111"></tspan><tspan x="0" y="135">Características de las políticas:</tspan><tspan x="0" y="159" xml:space="preserve">- Declaración o enunciado.       - Definición de un alcance.</tspan><tspan x="0" y="183">- Mecanismos de control.</tspan><tspan x="0" y="207"></tspan><tspan font-family="Roboto-Bold, Roboto" font-weight="700"><tspan x="0" y="231">Herramienta:</tspan><tspan y="231" xml:space="preserve" font-family="Roboto-Regular, Roboto" font-weight="400"> mapa estratégico.</tspan></tspan></text>
    <text id="Estrategias_y_políticas_" data-name="Estrategias y políticas " transform="translate(812 3458.643)" fill="#12263f" font-size="18" font-family="Roboto-Black, Roboto" font-weight="800"><tspan x="0" y="0">Estrategias y políticas </tspan></text>
    <g id="Elipse_5579-2" data-name="Elipse 5579" transform="translate(740 3963.785)" fill="#678589" stroke="#678589" stroke-width="1">
      <circle cx="7.5" cy="7.5" r="7.5" stroke="none"/>
      <circle cx="7.5" cy="7.5" r="7" fill="none"/>
    </g>
    <path id="Trazado_214110-2" data-name="Trazado 214110" d="M-7878-7033.939v-74.728" transform="translate(8625.5 11005.225)" fill="none" stroke="#678589" stroke-width="3"/>
    <line id="Línea_863" data-name="Línea 863" x2="125" transform="translate(370 3861.643)" fill="none" stroke="#707070" stroke-width="1" stroke-dasharray="8"/>
    <line id="Línea_864" data-name="Línea 864" x2="125" transform="translate(580 3861.643)" fill="none" stroke="#707070" stroke-width="1" stroke-dasharray="8"/>
    <line id="Línea_865" data-name="Línea 865" x2="125" transform="translate(790 3861.643)" fill="none" stroke="#707070" stroke-width="1" stroke-dasharray="8"/>
    <line id="Línea_866" data-name="Línea 866" x2="125" transform="translate(1000 3861.643)" fill="none" stroke="#707070" stroke-width="1" stroke-dasharray="8"/>
  </g>
</svg>
