<svg xmlns="http://www.w3.org/2000/svg" width="45.24" height="177.79" viewBox="0 0 45.24 177.79">
  <g id="Grupo_183476" data-name="Grupo 183476" transform="translate(-7265.743 10708.29)">
    <path id="Trazado_214690" data-name="Trazado 214690" d="M22.559-12.2q0,6.05-2.717,9.331A9.39,9.39,0,0,1,12.182.41a9.441,9.441,0,0,1-7.711-3.3Q1.743-6.193,1.743-12.2v-5.455q0-6.05,2.717-9.331a9.413,9.413,0,0,1,7.68-3.281,9.417,9.417,0,0,1,7.69,3.3q2.728,3.3,2.728,9.331Zm-6.911-6.337a10.65,10.65,0,0,0-.841-4.809,2.811,2.811,0,0,0-2.666-1.589,2.744,2.744,0,0,0-2.594,1.477,10.032,10.032,0,0,0-.872,4.471v7.629A10.73,10.73,0,0,0,9.516-6.47a2.821,2.821,0,0,0,2.666,1.548,2.783,2.783,0,0,0,2.6-1.507,10.243,10.243,0,0,0,.861-4.727ZM46.983,0H26.147V-4.512l9.6-10.09q3.548-4.04,3.548-6.419a4.465,4.465,0,0,0-.841-2.933,3,3,0,0,0-2.44-1,3.04,3.04,0,0,0-2.563,1.343,5.52,5.52,0,0,0-.984,3.353H25.532a9.806,9.806,0,0,1,1.374-5.076,9.635,9.635,0,0,1,3.814-3.64,11.331,11.331,0,0,1,5.455-1.312q4.84,0,7.455,2.235a7.98,7.98,0,0,1,2.615,6.419,9.321,9.321,0,0,1-.656,3.435,15.064,15.064,0,0,1-2.041,3.507,51.4,51.4,0,0,1-4.46,4.912l-3.855,4.45H46.983Z" transform="translate(7264 -10678)" fill="#32d9cb"/>
    <line id="Línea_824" data-name="Línea 824" y2="72" transform="translate(7288 -10602.5)" fill="none" stroke="#32d9cb" stroke-width="4" stroke-dasharray="6"/>
  </g>
</svg>
