<svg id="Grupo_183069" data-name="Grupo 183069" xmlns="http://www.w3.org/2000/svg" xmlns:xlink="http://www.w3.org/1999/xlink" width="456.667" height="394.38" viewBox="0 0 456.667 394.38">
  <defs>
    <clipPath id="clip-path">
      <rect id="Rectángulo_57697" data-name="Rectángulo 57697" width="456.667" height="394.38" fill="none"/>
    </clipPath>
  </defs>
  <g id="Grupo_183068" data-name="Grupo 183068" clip-path="url(#clip-path)">
    <path id="Trazado_213817" data-name="Trazado 213817" d="M294.611,0H104.591V335.927h252.9V49.176C337.082,7.664,294.611,0,294.611,0" transform="translate(-55.006 0)" fill="#f4f4f4"/>
    <rect id="Rectángulo_57649" data-name="Rectángulo 57649" width="83.343" height="18.361" transform="translate(194.581 33.849)" fill="#c4c4c4"/>
    <rect id="Rectángulo_57650" data-name="Rectángulo 57650" width="83.343" height="5.109" transform="translate(194.581 57.478)" fill="#c4c4c4"/>
    <rect id="Rectángulo_57651" data-name="Rectángulo 57651" width="83.343" height="5.11" transform="translate(194.581 63.864)" fill="#c4c4c4"/>
    <path id="Trazado_213818" data-name="Trazado 213818" d="M505.4,0c19.159,27.462,10.538,58.436,10.538,58.436,30.975-18.2,52.346-9.26,52.346-9.26C547.872,7.664,505.4,0,505.4,0" transform="translate(-265.796 0)" fill="#d8d8d8"/>
    <rect id="Rectángulo_57652" data-name="Rectángulo 57652" width="12.134" height="96.435" transform="translate(90.162 97.713)" fill="#42aa92"/>
    <rect id="Rectángulo_57653" data-name="Rectángulo 57653" width="12.134" height="60.245" transform="translate(105.49 133.903)" fill="#342f2d"/>
    <rect id="Rectángulo_57654" data-name="Rectángulo 57654" width="12.134" height="77.702" transform="translate(122.095 116.446)" fill="#41cfc1"/>
    <path id="Trazado_213819" data-name="Trazado 213819" d="M168.2,277.759V143.8h-1.6V279.355H301.36v-1.6Z" transform="translate(-87.62 -75.627)" fill="#3c3c3b"/>
    <rect id="Rectángulo_57655" data-name="Rectángulo 57655" width="12.135" height="50.134" transform="translate(176.379 144.015)" fill="#42aa92"/>
    <rect id="Rectángulo_57656" data-name="Rectángulo 57656" width="12.134" height="77.702" transform="translate(161.371 116.446)" fill="#342f2d"/>
    <rect id="Rectángulo_57657" data-name="Rectángulo 57657" width="12.134" height="67.697" transform="translate(192.346 126.451)" fill="#41cfc1"/>
    <path id="Trazado_213820" data-name="Trazado 213820" d="M343.419,86.746a21.075,21.075,0,1,1-21.075-21.075,21.075,21.075,0,0,1,21.075,21.075" transform="translate(-158.441 -34.537)" fill="#42aa92"/>
    <rect id="Rectángulo_57658" data-name="Rectángulo 57658" width="15.754" height="15.754" transform="translate(218.317 129.219)" fill="#42aa92"/>
    <rect id="Rectángulo_57659" data-name="Rectángulo 57659" width="15.754" height="15.754" transform="translate(218.317 154.765)" fill="#342f2d"/>
    <rect id="Rectángulo_57660" data-name="Rectángulo 57660" width="15.754" height="15.754" transform="translate(218.317 180.311)" fill="#41cfc1"/>
    <rect id="Rectángulo_57661" data-name="Rectángulo 57661" width="36.19" height="4.683" transform="translate(241.734 129.22)" fill="#c4c4c4"/>
    <rect id="Rectángulo_57662" data-name="Rectángulo 57662" width="36.19" height="6.806" transform="translate(241.734 136.088)" fill="#c4c4c4"/>
    <rect id="Rectángulo_57663" data-name="Rectángulo 57663" width="36.19" height="4.683" transform="translate(241.734 154.766)" fill="#c4c4c4"/>
    <rect id="Rectángulo_57664" data-name="Rectángulo 57664" width="36.19" height="6.806" transform="translate(241.734 161.634)" fill="#c4c4c4"/>
    <rect id="Rectángulo_57665" data-name="Rectángulo 57665" width="36.19" height="4.684" transform="translate(241.734 180.311)" fill="#c4c4c4"/>
    <rect id="Rectángulo_57666" data-name="Rectángulo 57666" width="36.19" height="6.806" transform="translate(241.734 187.18)" fill="#c4c4c4"/>
    <rect id="Rectángulo_57667" data-name="Rectángulo 57667" width="103.461" height="26.184" transform="translate(78.986 216.501)" fill="#c4c4c4"/>
    <rect id="Rectángulo_57668" data-name="Rectángulo 57668" width="43.109" height="41.086" transform="translate(78.986 248.22)" fill="#335951"/>
    <rect id="Rectángulo_57669" data-name="Rectángulo 57669" width="54.285" height="2.768" transform="translate(128.162 248.22)" fill="#c4c4c4"/>
    <rect id="Rectángulo_57670" data-name="Rectángulo 57670" width="54.285" height="2.767" transform="translate(128.162 254.607)" fill="#c4c4c4"/>
    <rect id="Rectángulo_57671" data-name="Rectángulo 57671" width="54.285" height="2.767" transform="translate(128.162 260.994)" fill="#c4c4c4"/>
    <rect id="Rectángulo_57672" data-name="Rectángulo 57672" width="54.285" height="2.767" transform="translate(128.162 267.38)" fill="#c4c4c4"/>
    <rect id="Rectángulo_57673" data-name="Rectángulo 57673" width="54.285" height="2.767" transform="translate(128.162 273.767)" fill="#c4c4c4"/>
    <rect id="Rectángulo_57674" data-name="Rectángulo 57674" width="54.285" height="2.767" transform="translate(128.162 280.153)" fill="#c4c4c4"/>
    <rect id="Rectángulo_57675" data-name="Rectángulo 57675" width="54.285" height="2.767" transform="translate(128.162 286.539)" fill="#c4c4c4"/>
    <rect id="Rectángulo_57676" data-name="Rectángulo 57676" width="103.461" height="10.857" transform="translate(78.986 295.693)" fill="#c4c4c4"/>
    <rect id="Rectángulo_57677" data-name="Rectángulo 57677" width="79.511" height="6.174" transform="translate(198.413 216.5)" fill="#c4c4c4"/>
    <rect id="Rectángulo_57678" data-name="Rectángulo 57678" width="79.511" height="45.557" transform="translate(198.413 229.593)" fill="#c4c4c4"/>
    <rect id="Rectángulo_57679" data-name="Rectángulo 57679" width="54.285" height="2.767" transform="translate(223.639 278.77)" fill="#c4c4c4"/>
    <rect id="Rectángulo_57680" data-name="Rectángulo 57680" width="54.285" height="2.767" transform="translate(223.639 285.156)" fill="#c4c4c4"/>
    <rect id="Rectángulo_57681" data-name="Rectángulo 57681" width="54.285" height="2.767" transform="translate(223.639 291.543)" fill="#c4c4c4"/>
    <path id="Rectángulo_57682" data-name="Rectángulo 57682" d="M16.553,0H156.066a16.553,16.553,0,0,1,16.553,16.553v191.62a16.55,16.55,0,0,1-16.55,16.55H16.549A16.549,16.549,0,0,1,0,208.174V16.553A16.553,16.553,0,0,1,16.553,0Z" transform="translate(284.048 147.816)" fill="#352f2d"/>
    <path id="Trazado_213821" data-name="Trazado 213821" d="M765.5,346.042H637.334a7.848,7.848,0,0,0-7.847,7.847v35.746a7.847,7.847,0,0,0,7.847,7.847H765.5a7.846,7.846,0,0,0,7.846-7.847V353.889a7.847,7.847,0,0,0-7.846-7.847" transform="translate(-331.054 -181.987)" fill="#88bfb7"/>
    <path id="Trazado_213822" data-name="Trazado 213822" d="M800.506,346.042h-16.85l-38.211,49.733a7.013,7.013,0,0,0-.961,1.707h17.241l37.543-48.862a6.93,6.93,0,0,0,1.237-2.577" transform="translate(-391.533 -181.987)" fill="#ccfef8"/>
    <path id="Trazado_213823" data-name="Trazado 213823" d="M839.138,376.914a3.789,3.789,0,0,0,5.313-.7l23.185-30.176H858.08L838.442,371.6a3.789,3.789,0,0,0,.7,5.313" transform="translate(-440.533 -181.987)" fill="#ccfef8"/>
    <path id="Rectángulo_57683" data-name="Rectángulo 57683" d="M16.551,0H18.76A16.55,16.55,0,0,1,35.31,16.55V52.326A16.551,16.551,0,0,1,18.759,68.877H16.551A16.551,16.551,0,0,1,0,52.326V16.551A16.551,16.551,0,0,1,16.551,0Z" transform="translate(406.763 286.334)" fill="#41cfc1"/>
    <path id="Rectángulo_57684" data-name="Rectángulo 57684" d="M11.487,0h8.72A11.489,11.489,0,0,1,31.7,11.489v8.719A11.488,11.488,0,0,1,20.208,31.7H11.489A11.489,11.489,0,0,1,0,20.207v-8.72A11.487,11.487,0,0,1,11.487,0Z" transform="translate(298.76 323.515)" fill="#776b69"/>
    <path id="Rectángulo_57685" data-name="Rectángulo 57685" d="M11.487,0h8.722A11.487,11.487,0,0,1,31.7,11.487v8.721A11.488,11.488,0,0,1,20.208,31.7H11.487A11.487,11.487,0,0,1,0,20.209V11.487A11.487,11.487,0,0,1,11.487,0Z" transform="translate(334.417 323.515)" fill="#776b69"/>
    <path id="Rectángulo_57686" data-name="Rectángulo 57686" d="M11.487,0h8.722A11.487,11.487,0,0,1,31.7,11.487v8.721A11.488,11.488,0,0,1,20.208,31.7H11.487A11.487,11.487,0,0,1,0,20.209V11.487A11.487,11.487,0,0,1,11.487,0Z" transform="translate(371.036 323.515)" fill="#776b69"/>
    <path id="Rectángulo_57687" data-name="Rectángulo 57687" d="M11.487,0h8.72A11.489,11.489,0,0,1,31.7,11.489v8.719A11.488,11.488,0,0,1,20.208,31.7H11.489A11.489,11.489,0,0,1,0,20.207v-8.72A11.487,11.487,0,0,1,11.487,0Z" transform="translate(298.76 286.334)" fill="#776b69"/>
    <path id="Rectángulo_57688" data-name="Rectángulo 57688" d="M11.487,0h8.722A11.487,11.487,0,0,1,31.7,11.487v8.721A11.488,11.488,0,0,1,20.208,31.7H11.487A11.487,11.487,0,0,1,0,20.209V11.487A11.487,11.487,0,0,1,11.487,0Z" transform="translate(334.417 286.334)" fill="#776b69"/>
    <path id="Rectángulo_57689" data-name="Rectángulo 57689" d="M11.487,0h8.72A11.489,11.489,0,0,1,31.7,11.489v8.719A11.488,11.488,0,0,1,20.208,31.7H11.487A11.487,11.487,0,0,1,0,20.209V11.487A11.487,11.487,0,0,1,11.487,0Z" transform="translate(371.036 286.334)" fill="#776b69"/>
    <rect id="Rectángulo_57690" data-name="Rectángulo 57690" width="31.696" height="31.697" rx="11.489" transform="translate(298.28 249.061)" fill="#776b69"/>
    <rect id="Rectángulo_57691" data-name="Rectángulo 57691" width="31.696" height="31.697" rx="11.489" transform="translate(333.937 249.061)" fill="#776b69"/>
    <rect id="Rectángulo_57692" data-name="Rectángulo 57692" width="31.696" height="31.697" rx="11.489" transform="translate(370.555 249.061)" fill="#776b69"/>
    <path id="Rectángulo_57693" data-name="Rectángulo 57693" d="M15.849,0h3.613A15.849,15.849,0,0,1,35.31,15.849v0A15.849,15.849,0,0,1,19.462,31.7H15.848A15.848,15.848,0,0,1,0,15.849v0A15.849,15.849,0,0,1,15.849,0Z" transform="translate(406.763 249.061)" fill="#42aa92"/>
    <path id="Rectángulo_57694" data-name="Rectángulo 57694" d="M7.956,0H96.014a7.956,7.956,0,0,1,7.956,7.956v0a7.956,7.956,0,0,1-7.956,7.956H7.956A7.956,7.956,0,0,1,0,7.956v0A7.956,7.956,0,0,1,7.956,0Z" transform="translate(298.28 224.649)" fill="#e04327"/>
    <rect id="Rectángulo_57695" data-name="Rectángulo 57695" width="33.1" height="16.458" rx="8.229" transform="translate(408.974 224.649)" fill="#982023"/>
    <path id="Trazado_213824" data-name="Trazado 213824" d="M23.4,418.669a7.2,7.2,0,0,1-10.109-1.223L1.534,402.455a7.2,7.2,0,0,1,1.223-10.11l3.9-3.055a7.2,7.2,0,0,1,10.109,1.223L28.518,405.5a7.2,7.2,0,0,1-1.223,10.111Z" transform="translate(0 -203.925)" fill="#352f2d"/>
    <path id="Trazado_213825" data-name="Trazado 213825" d="M139.545,543.743a7.2,7.2,0,0,0-1.149-2.136L53.271,433.051l-5-6.373-4.423-5.64c-.089-.113-.185-.217-.28-.322a7.2,7.2,0,0,0-9.829-.9l-9.208,7.221a7.2,7.2,0,0,0-1.223,10.109l4.422,5.639,5,6.374,85.125,108.557a7.144,7.144,0,0,0,1.906,1.688c.276.228.558.444.843.653,7.275,5.364,17.392,5.6,19.048,4.3,2.075-1.626,4.11-12.122-.109-20.617" transform="translate(-11.452 -219.979)" fill="#e04327"/>
    <path id="Trazado_213826" data-name="Trazado 213826" d="M269.563,724.511a2.4,2.4,0,0,1-3.369-.408l-7.683-9.8a2.4,2.4,0,1,1,3.777-2.963l7.682,9.8a2.4,2.4,0,0,1-.407,3.369" transform="translate(-135.684 -373.62)" fill="#352f2d"/>
    <path id="Trazado_213827" data-name="Trazado 213827" d="M163.831,567.058c2.075-1.626,4.111-12.122-.109-20.617a7.168,7.168,0,0,0-1.149-2.136L77.449,435.748l-5-6.373-4.423-5.64c-.089-.114-.186-.217-.28-.322l77.035,139.341c7.275,5.364,17.392,5.6,19.048,4.3" transform="translate(-35.629 -222.677)" fill="#ed5b48"/>
    <rect id="Rectángulo_57696" data-name="Rectángulo 57696" width="26.103" height="8.1" transform="matrix(0.787, -0.617, 0.617, 0.787, 16.28, 222.804)" fill="#352f2d"/>
    <path id="Trazado_213828" data-name="Trazado 213828" d="M84.622,480.287a2.949,2.949,0,0,1-4.142-.5l-32.4-41.315a2.95,2.95,0,0,1,4.644-3.641l32.4,41.315a2.949,2.949,0,0,1-.5,4.142" transform="translate(-24.956 -228.088)" fill="#352f2d"/>
    <path id="Trazado_213829" data-name="Trazado 213829" d="M695.3,38.611V91.188h52.576A52.576,52.576,0,0,0,695.3,38.611" transform="translate(-365.665 -20.306)" fill="#42aa92"/>
    <path id="Trazado_213830" data-name="Trazado 213830" d="M628.691,49.156a52.576,52.576,0,1,0,38.917,87.929l-38.917-35.353Z" transform="translate(-302.985 -25.852)" fill="#ed5b48"/>
    <path id="Trazado_213831" data-name="Trazado 213831" d="M696.054,156.29l38.916,35.352a52.387,52.387,0,0,0,13.659-35.352Z" transform="translate(-366.062 -82.195)" fill="#342f2d"/>
    <path id="Trazado_213832" data-name="Trazado 213832" d="M505.077,756.96c0-4.006-2.349-7.254-5.246-7.254H438.646c-2.9,0-5.246,3.249-5.246,7.254v7.609c0,.227.01.45.025.672-.009.144-.025.287-.025.431,0,8.818,16.045,15.967,35.838,15.967s35.839-7.148,35.839-15.967c0-.145-.016-.288-.026-.431.016-.222.026-.445.026-.672Z" transform="translate(-227.93 -394.278)" fill="#f4bd31"/>
    <path id="Trazado_213833" data-name="Trazado 213833" d="M505.077,744.967c0,8.818-16.046,15.967-35.839,15.967S433.4,753.785,433.4,744.967,449.445,729,469.238,729s35.839,7.148,35.839,15.967" transform="translate(-227.93 -383.389)" fill="#f2d453"/>
    <path id="Trazado_213834" data-name="Trazado 213834" d="M488.278,724.889c0-4.006-2.349-7.254-5.245-7.254H421.846c-2.9,0-5.244,3.248-5.244,7.254V732.5c0,.227.009.451.025.672-.009.144-.025.287-.025.432,0,8.818,16.045,15.966,35.838,15.966s35.838-7.148,35.838-15.966c0-.145-.016-.288-.026-.432.016-.221.026-.445.026-.672Z" transform="translate(-219.095 -377.412)" fill="#f4bd31"/>
    <path id="Trazado_213835" data-name="Trazado 213835" d="M488.278,712.9c0,8.819-16.046,15.967-35.838,15.967S416.6,721.715,416.6,712.9s16.045-15.966,35.838-15.966,35.838,7.148,35.838,15.966" transform="translate(-219.095 -366.523)" fill="#f2d453"/>
    <path id="Trazado_213836" data-name="Trazado 213836" d="M511.077,693.313c0-4.005-2.349-7.254-5.246-7.254H444.646c-2.9,0-5.246,3.249-5.246,7.254v7.61c0,.227.01.45.025.671-.009.144-.025.287-.025.432,0,8.818,16.045,15.967,35.838,15.967s35.839-7.149,35.839-15.967c0-.145-.016-.288-.026-.432.016-.221.026-.445.026-.671Z" transform="translate(-231.085 -360.806)" fill="#f4bd31"/>
    <path id="Trazado_213837" data-name="Trazado 213837" d="M511.077,681.323c0,8.818-16.046,15.967-35.839,15.967S439.4,690.142,439.4,681.323s16.045-15.966,35.838-15.966,35.839,7.148,35.839,15.966" transform="translate(-231.085 -349.918)" fill="#f2d453"/>
    <path id="Trazado_213838" data-name="Trazado 213838" d="M333.961,773.866c.085-3.866-2.112-7.05-4.907-7.112l-59.046-1.307c-2.795-.061-5.131,3.024-5.217,6.89l-.162,7.343c-.005.218,0,.434.009.648-.012.14-.03.277-.033.417-.189,8.51,15.143,15.751,34.244,16.173s34.737-6.133,34.925-14.643c0-.139-.009-.278-.014-.417.019-.214.033-.429.037-.648Z" transform="translate(-139.158 -402.556)" fill="#f4bd31"/>
    <path id="Trazado_213839" data-name="Trazado 213839" d="M334.217,763c-.187,8.509-15.825,15.065-34.925,14.643s-34.433-7.665-34.243-16.174,15.824-15.065,34.926-14.644,34.432,7.664,34.243,16.174" transform="translate(-139.391 -392.752)" fill="#f2d453"/>
    <path id="Trazado_213840" data-name="Trazado 213840" d="M124.3,730.654c0-4.025-2.36-7.289-5.27-7.289H57.552c-2.911,0-5.27,3.264-5.27,7.289V738.3c0,.228.009.452.025.675-.009.144-.025.288-.025.434,0,8.86,16.122,16.043,36.01,16.043s36.009-7.183,36.009-16.043c0-.146-.016-.29-.025-.434.014-.223.025-.448.025-.675Z" transform="translate(-27.496 -380.425)" fill="#f4bd31"/>
    <path id="Trazado_213841" data-name="Trazado 213841" d="M124.3,718.605c0,8.86-16.122,16.043-36.009,16.043s-36.01-7.183-36.01-16.043,16.122-16.043,36.01-16.043,36.009,7.182,36.009,16.043" transform="translate(-27.496 -369.485)" fill="#f2d453"/>
    <path id="Trazado_213842" data-name="Trazado 213842" d="M386.021,662.558c-2.8-2.689-6.637-3.229-8.58-1.207l-41.044,42.7c-1.943,2.021-1.252,5.839,1.544,8.526l5.31,5.1c.158.153.32.3.485.434.094.1.184.209.284.307,6.154,5.914,21.906-.486,35.183-14.3s19.052-29.8,12.9-35.718c-.1-.1-.212-.182-.318-.273-.145-.159-.294-.316-.452-.467Z" transform="translate(-176.334 -347.168)" fill="#f4bd31"/>
    <path id="Trazado_213843" data-name="Trazado 213843" d="M384.6,661.246c6.154,5.915.379,21.907-12.9,35.719s-29.029,20.213-35.183,14.3-.378-21.907,12.9-35.719,29.029-20.214,35.182-14.3" transform="translate(-175.684 -346.597)" fill="#f2d453"/>
    <path id="Trazado_213844" data-name="Trazado 213844" d="M112.3,703.59c0-4.025-2.36-7.289-5.27-7.289H45.552c-2.911,0-5.27,3.264-5.27,7.289v7.646c0,.227.009.451.025.675-.009.144-.025.288-.025.434,0,8.86,16.122,16.043,36.01,16.043S112.3,721.2,112.3,712.345c0-.146-.016-.29-.025-.434.014-.224.025-.448.025-.675Z" transform="translate(-21.185 -366.192)" fill="#f4bd31"/>
    <path id="Trazado_213845" data-name="Trazado 213845" d="M112.3,691.54c0,8.861-16.122,16.043-36.009,16.043s-36.01-7.182-36.01-16.043S56.4,675.5,76.292,675.5,112.3,682.68,112.3,691.54" transform="translate(-21.185 -355.251)" fill="#f2d453"/>
  </g>
</svg>
