<svg xmlns="http://www.w3.org/2000/svg" xmlns:xlink="http://www.w3.org/1999/xlink" width="355.407" height="225.485" viewBox="0 0 355.407 225.485">
  <defs>
    <clipPath id="clip-path">
      <rect id="Rect치ngulo_57004" data-name="Rect치ngulo 57004" width="187.207" height="159.547" fill="#12263f"/>
    </clipPath>
    <clipPath id="clip-path-2">
      <rect id="Rect치ngulo_57005" data-name="Rect치ngulo 57005" width="200.564" height="167.642" fill="#12263f"/>
    </clipPath>
  </defs>
  <g id="Grupo_183235" data-name="Grupo 183235" transform="translate(2856 5749.521)">
    <g id="Grupo_181896" data-name="Grupo 181896" transform="translate(-2856 -5749.521)">
      <g id="Grupo_181895" data-name="Grupo 181895" clip-path="url(#clip-path)">
        <path id="Trazado_210863" data-name="Trazado 210863" d="M70.022,36.933c-9.327,0-16.916-7.947-16.916-17.716S60.695,1.5,70.022,1.5,86.941,9.449,86.941,19.217,79.352,36.933,70.022,36.933m0-29.36c-5.981,0-10.845,5.225-10.845,11.644s4.864,11.645,10.845,11.645S80.87,25.637,80.87,19.217,76,7.573,70.022,7.573" transform="translate(-27.953 -0.791)" fill="#12263f"/>
        <path id="Trazado_210864" data-name="Trazado 210864" d="M85.449,273.187a3.035,3.035,0,0,1-3.035-3.036V218.928a3.035,3.035,0,0,1,6.071,0v51.223a3.035,3.035,0,0,1-3.035,3.036" transform="translate(-43.38 -113.64)" fill="#12263f"/>
        <path id="Trazado_210865" data-name="Trazado 210865" d="M175.456,330.114H3.035a3.036,3.036,0,0,1,0-6.071h172.42a3.036,3.036,0,0,1,0,6.071" transform="translate(0 -170.567)" fill="#12263f"/>
        <path id="Trazado_210866" data-name="Trazado 210866" d="M209.946,254.729a2.99,2.99,0,0,1-1.074-.2,3.036,3.036,0,0,1-1.765-3.913l25.679-67.828a3.035,3.035,0,1,1,5.677,2.148l-25.679,67.828a3.036,3.036,0,0,1-2.839,1.961" transform="translate(-108.911 -95.182)" fill="#12263f"/>
        <path id="Trazado_210867" data-name="Trazado 210867" d="M289.843,254.734A3.035,3.035,0,0,1,287,252.773l-19.8-52.311V251.7a3.036,3.036,0,1,1-6.071,0V183.871A3.035,3.035,0,0,1,267,182.8l25.679,67.828a3.036,3.036,0,0,1-1.764,3.913,2.994,2.994,0,0,1-1.075.2" transform="translate(-137.45 -95.187)" fill="#12263f"/>
        <path id="Trazado_210868" data-name="Trazado 210868" d="M190.7,116.393a3.035,3.035,0,0,1-1.608-5.611l21.956-13.677a3.046,3.046,0,0,1,3.178-.021l9.453,5.722,11.481-9.489a3.036,3.036,0,0,1,1.932-.695h12.249l6.789-12.863A3.036,3.036,0,0,1,261.5,82.6l-7.643,14.481a3.039,3.039,0,0,1-2.685,1.617H238.186l-12.3,10.167a3.033,3.033,0,0,1-3.5.256l-9.7-5.874L192.3,115.933a3.014,3.014,0,0,1-1.6.46" transform="translate(-98.78 -41.132)" fill="#12263f"/>
        <path id="Trazado_210869" data-name="Trazado 210869" d="M66.674,178.757H35.657a3.035,3.035,0,0,1-3.035-3.036V123.3a10.7,10.7,0,0,1-15.341-9.65V79.195A18.4,18.4,0,0,1,35.657,60.818h30.5c2.663-.977,17.339-6.794,31.722-21.187a10.9,10.9,0,0,1,14.386-.808,10.409,10.409,0,0,1,2.748,13.866c-7.262,12.076-22.876,26.2-45.3,30.581v92.452a3.035,3.035,0,0,1-3.035,3.036m-27.982-6.071H63.638V80.725a3.034,3.034,0,0,1,2.561-3c21.738-3.448,36.781-16.81,43.608-28.167a4.377,4.377,0,0,0-1.274-5.945,4.821,4.821,0,0,0-6.365.308C85.267,60.837,68.33,66.5,67.618,66.74a3.049,3.049,0,0,1-.944.149H35.657A12.321,12.321,0,0,0,23.351,79.195v34.458a4.635,4.635,0,1,0,9.27,0,3.035,3.035,0,0,1,6.071,0Z" transform="translate(-9.096 -19.21)" fill="#12263f"/>
        <path id="Trazado_210870" data-name="Trazado 210870" d="M52.706,170.127a3.035,3.035,0,0,1-3.035-3.036V141.052a3.035,3.035,0,1,1,6.071,0v26.039a3.035,3.035,0,0,1-3.035,3.036" transform="translate(-26.145 -72.648)" fill="#12263f"/>
        <path id="Trazado_210871" data-name="Trazado 210871" d="M249.05,91.719h-7.677a3.035,3.035,0,1,1,0-6.071h4.641V16.98a3.035,3.035,0,0,1,3.036-3.035h5.68V6.071H145.886v7.874h5.68A3.035,3.035,0,0,1,154.6,16.98V27.417a100.1,100.1,0,0,0,7.774-7,10.9,10.9,0,0,1,14.386-.809,10.409,10.409,0,0,1,2.748,13.866A66.539,66.539,0,0,1,154.6,56.687V85.648h65.052a3.035,3.035,0,1,1,0,6.071H151.566a3.036,3.036,0,0,1-3.035-3.035V54.86a3.037,3.037,0,0,1,1.648-2.7,61.451,61.451,0,0,0,24.128-21.809,4.377,4.377,0,0,0-1.274-5.946,4.819,4.819,0,0,0-6.365.309,106.864,106.864,0,0,1-13.335,11.3,3.037,3.037,0,0,1-4.8-2.469V20.016h-5.68a3.035,3.035,0,0,1-3.035-3.035V3.035A3.035,3.035,0,0,1,142.85,0H257.766A3.035,3.035,0,0,1,260.8,3.035V16.98a3.035,3.035,0,0,1-3.035,3.035h-5.68V88.684a3.035,3.035,0,0,1-3.036,3.035" transform="translate(-73.595 0)" fill="#12263f"/>
        <path id="Trazado_210872" data-name="Trazado 210872" d="M238.029,35.513H161.252a3.035,3.035,0,1,1,0-6.071h76.776a3.035,3.035,0,1,1,0,6.071" transform="translate(-83.281 -15.497)" fill="#12263f"/>
      </g>
    </g>
    <g id="Grupo_181898" data-name="Grupo 181898" transform="translate(-2701.158 -5691.678)">
      <g id="Grupo_181897" data-name="Grupo 181897" clip-path="url(#clip-path-2)">
        <path id="Trazado_210873" data-name="Trazado 210873" d="M111.359,241.8H11A11,11,0,1,1,11,219.8H111.359a11,11,0,1,1,0,22.007M11,226.238a4.563,4.563,0,1,0,0,9.127H111.359a4.563,4.563,0,1,0,0-9.127Z" transform="translate(0 -109.368)" fill="#12263f"/>
        <path id="Trazado_210874" data-name="Trazado 210874" d="M119.024,268.815H27.144a3.22,3.22,0,0,1-3.22-3.22V254a3.22,3.22,0,0,1,3.22-3.22h91.88a3.22,3.22,0,0,1,3.22,3.22v11.593a3.22,3.22,0,0,1-3.22,3.22m-88.66-6.44H115.8v-5.152H30.364Z" transform="translate(-11.904 -124.786)" fill="#12263f"/>
        <path id="Trazado_210875" data-name="Trazado 210875" d="M63.955,303.908H51.289a3.22,3.22,0,0,1-3.22-3.22V277.075a3.22,3.22,0,0,1,3.22-3.22H63.955a3.22,3.22,0,0,1,3.22,3.22v23.613a3.22,3.22,0,0,1-3.22,3.22m-9.446-6.44h6.226V280.3H54.509Z" transform="translate(-23.918 -136.267)" fill="#12263f"/>
        <path id="Trazado_210876" data-name="Trazado 210876" d="M173.337,303.908H160.67a3.22,3.22,0,0,1-3.22-3.22V277.075a3.22,3.22,0,0,1,3.22-3.22h12.666a3.22,3.22,0,0,1,3.22,3.22v23.613a3.22,3.22,0,0,1-3.22,3.22m-9.446-6.44h6.226V280.3H163.89Z" transform="translate(-78.345 -136.267)" fill="#12263f"/>
        <path id="Trazado_210877" data-name="Trazado 210877" d="M83.986,218.68a3.22,3.22,0,0,1-3.22-3.22v-7.631a3.22,3.22,0,1,1,6.44,0v7.631a3.22,3.22,0,0,1-3.22,3.22" transform="translate(-40.188 -101.81)" fill="#12263f"/>
        <path id="Trazado_210878" data-name="Trazado 210878" d="M153.184,218.68a3.22,3.22,0,0,1-3.22-3.22v-7.631a3.22,3.22,0,1,1,6.44,0v7.631a3.22,3.22,0,0,1-3.22,3.22" transform="translate(-74.62 -101.81)" fill="#12263f"/>
        <path id="Trazado_210879" data-name="Trazado 210879" d="M102.769,102.926c-10.581,0-19.19-9.02-19.19-20.108s8.609-20.108,19.19-20.108,19.19,9.02,19.19,20.108-8.609,20.108-19.19,20.108m0-33.775c-7.031,0-12.749,6.131-12.749,13.668s5.718,13.668,12.749,13.668,12.75-6.13,12.75-13.668-5.718-13.668-12.75-13.668" transform="translate(-41.588 -31.204)" fill="#12263f"/>
        <path id="Trazado_210880" data-name="Trazado 210880" d="M118.907,191.527H51.92a3.22,3.22,0,0,1-3.22-3.22V168.452A18.433,18.433,0,0,1,67.112,150.04h36.6a18.433,18.433,0,0,1,18.412,18.412v19.855a3.22,3.22,0,0,1-3.22,3.22m-63.767-6.44h60.547V168.452a11.986,11.986,0,0,0-11.972-11.972h-36.6A11.986,11.986,0,0,0,55.14,168.452Z" transform="translate(-24.232 -74.658)" fill="#12263f"/>
        <path id="Trazado_210881" data-name="Trazado 210881" d="M312.4,250.67H248.475a3.22,3.22,0,1,1,0-6.44H312.4a3.756,3.756,0,0,0,0-7.512H251.849a3.22,3.22,0,1,1,0-6.44H312.4a10.2,10.2,0,1,1,0,20.392" transform="translate(-122.035 -114.583)" fill="#12263f"/>
        <path id="Trazado_210882" data-name="Trazado 210882" d="M297.361,274.879H225.883a3.22,3.22,0,1,1,0-6.44h68.258v-3.951H237.234a3.22,3.22,0,1,1,0-6.44h60.127a3.219,3.219,0,0,1,3.22,3.22v10.391a3.219,3.219,0,0,1-3.22,3.22" transform="translate(-110.794 -128.401)" fill="#12263f"/>
        <path id="Trazado_210883" data-name="Trazado 210883" d="M237.235,306.334H225.883a3.22,3.22,0,0,1-3.221-3.22V281.95a3.22,3.22,0,0,1,3.221-3.22h11.351a3.22,3.22,0,0,1,3.22,3.22v21.164a3.22,3.22,0,0,1-3.22,3.22m-8.131-6.44h4.91V285.17H229.1Z" transform="translate(-110.794 -138.692)" fill="#12263f"/>
        <path id="Trazado_210884" data-name="Trazado 210884" d="M335.273,306.334H323.919a3.22,3.22,0,0,1-3.22-3.22V281.95a3.22,3.22,0,0,1,3.22-3.22h11.354a3.22,3.22,0,0,1,3.22,3.22v21.164a3.22,3.22,0,0,1-3.22,3.22m-8.133-6.44h4.913V285.17h-4.913Z" transform="translate(-159.575 -138.692)" fill="#12263f"/>
        <path id="Trazado_210885" data-name="Trazado 210885" d="M255.191,229.943a3.22,3.22,0,0,1-3.22-3.22v-6.84a3.22,3.22,0,0,1,6.44,0v6.84a3.22,3.22,0,0,1-3.22,3.22" transform="translate(-125.377 -107.809)" fill="#12263f"/>
        <path id="Trazado_210886" data-name="Trazado 210886" d="M317.21,229.943a3.22,3.22,0,0,1-3.22-3.22v-6.84a3.22,3.22,0,1,1,6.44,0v6.84a3.22,3.22,0,0,1-3.22,3.22" transform="translate(-156.237 -107.809)" fill="#12263f"/>
        <path id="Trazado_210887" data-name="Trazado 210887" d="M272.023,126.192c-9.668,0-17.534-8.235-17.534-18.357s7.866-18.357,17.534-18.357,17.532,8.235,17.532,18.357-7.864,18.357-17.532,18.357m0-30.273c-6.118,0-11.094,5.346-11.094,11.917s4.976,11.917,11.094,11.917,11.092-5.346,11.092-11.917-4.976-11.917-11.092-11.917" transform="translate(-126.63 -44.524)" fill="#12263f"/>
        <path id="Trazado_210888" data-name="Trazado 210888" d="M286.489,205.607h-45.6a3.22,3.22,0,1,1,0-6.44h42.379V184.591a10.409,10.409,0,0,0-10.4-10.4H240.065a10.408,10.408,0,0,0-10.395,10.4,3.22,3.22,0,0,1-6.44,0,16.855,16.855,0,0,1,16.835-16.837h32.807a16.856,16.856,0,0,1,16.837,16.837v17.8a3.219,3.219,0,0,1-3.22,3.22" transform="translate(-111.076 -83.472)" fill="#12263f"/>
        <path id="Trazado_210889" data-name="Trazado 210889" d="M198.274,58.5a3.22,3.22,0,0,1-3.22-3.22v-3.6a3.22,3.22,0,1,1,6.44,0v3.6a3.22,3.22,0,0,1-3.22,3.22" transform="translate(-97.056 -24.113)" fill="#12263f"/>
        <path id="Trazado_210890" data-name="Trazado 210890" d="M216,76.205h-3.6a3.22,3.22,0,1,1,0-6.44H216a3.22,3.22,0,0,1,0,6.44" transform="translate(-104.084 -34.714)" fill="#12263f"/>
        <path id="Trazado_210891" data-name="Trazado 210891" d="M198.274,93.939a3.22,3.22,0,0,1-3.22-3.22v-3.6a3.22,3.22,0,1,1,6.44,0v3.6a3.22,3.22,0,0,1-3.22,3.22" transform="translate(-97.056 -41.744)" fill="#12263f"/>
        <path id="Trazado_210892" data-name="Trazado 210892" d="M180.574,76.205h-3.6a3.22,3.22,0,0,1,0-6.44h3.6a3.22,3.22,0,0,1,0,6.44" transform="translate(-86.455 -34.714)" fill="#12263f"/>
        <path id="Trazado_210893" data-name="Trazado 210893" d="M259.8,10.045a3.22,3.22,0,0,1-3.22-3.22v-3.6a3.22,3.22,0,0,1,6.44,0v3.6a3.22,3.22,0,0,1-3.22,3.22" transform="translate(-127.672 0)" fill="#12263f"/>
        <path id="Trazado_210894" data-name="Trazado 210894" d="M277.533,27.744h-3.6a3.22,3.22,0,1,1,0-6.44h3.6a3.22,3.22,0,1,1,0,6.44" transform="translate(-134.7 -10.601)" fill="#12263f"/>
        <path id="Trazado_210895" data-name="Trazado 210895" d="M259.8,45.478a3.22,3.22,0,0,1-3.22-3.22v-3.6a3.22,3.22,0,1,1,6.44,0v3.6a3.22,3.22,0,0,1-3.22,3.22" transform="translate(-127.672 -17.631)" fill="#12263f"/>
        <path id="Trazado_210896" data-name="Trazado 210896" d="M242.1,27.744h-3.6a3.22,3.22,0,1,1,0-6.44h3.6a3.22,3.22,0,1,1,0,6.44" transform="translate(-117.07 -10.601)" fill="#12263f"/>
      </g>
    </g>
  </g>
</svg>
