<svg id="Grupo_183229" data-name="Grupo 183229" xmlns="http://www.w3.org/2000/svg" xmlns:xlink="http://www.w3.org/1999/xlink" width="202" height="189.301" viewBox="0 0 202 189.301">
  <defs>
    <clipPath id="clip-path">
      <rect id="Rectángulo_56991" data-name="Rectángulo 56991" width="202" height="189.301" fill="#12263f"/>
    </clipPath>
  </defs>
  <g id="Grupo_181881" data-name="Grupo 181881" clip-path="url(#clip-path)">
    <path id="Trazado_210827" data-name="Trazado 210827" d="M52.608,224.072H24.39a8.827,8.827,0,0,1-8.818-8.815V80.272a8.826,8.826,0,0,1,8.818-8.815H52.608a8.827,8.827,0,0,1,8.818,8.815V215.257a8.827,8.827,0,0,1-8.818,8.815M24.39,78.038a2.238,2.238,0,0,0-2.236,2.234V215.257a2.238,2.238,0,0,0,2.236,2.234H52.608a2.238,2.238,0,0,0,2.236-2.234V80.272a2.238,2.238,0,0,0-2.236-2.234Z" transform="translate(-7.577 -34.771)" fill="#12263f"/>
    <path id="Trazado_210828" data-name="Trazado 210828" d="M137.568,200H100.884a8.826,8.826,0,0,1-8.817-8.815V30.8a8.828,8.828,0,0,1,8.817-8.818h36.684a8.828,8.828,0,0,1,8.817,8.818v160.38A8.826,8.826,0,0,1,137.568,200M100.884,28.567A2.238,2.238,0,0,0,98.648,30.8v160.38a2.238,2.238,0,0,0,2.236,2.234h36.684a2.238,2.238,0,0,0,2.236-2.234V30.8a2.238,2.238,0,0,0-2.236-2.237Z" transform="translate(-44.8 -10.698)" fill="#12263f"/>
    <path id="Trazado_210829" data-name="Trazado 210829" d="M210.8,208.023H193.867a8.826,8.826,0,0,1-8.817-8.815V47.293a8.828,8.828,0,0,1,8.817-8.818H210.8a8.828,8.828,0,0,1,8.817,8.818V199.208a8.827,8.827,0,0,1-8.817,8.815M193.867,45.056a2.238,2.238,0,0,0-2.236,2.237V199.208a2.238,2.238,0,0,0,2.236,2.234H210.8a2.238,2.238,0,0,0,2.236-2.234V47.293a2.238,2.238,0,0,0-2.236-2.237Z" transform="translate(-90.045 -18.722)" fill="#12263f"/>
    <path id="Trazado_210830" data-name="Trazado 210830" d="M279.417,189.3H248.376a8.827,8.827,0,0,1-8.818-8.815V8.817A8.828,8.828,0,0,1,248.376,0h31.041a8.825,8.825,0,0,1,8.815,8.817V180.486a8.824,8.824,0,0,1-8.815,8.815M248.376,6.581a2.238,2.238,0,0,0-2.237,2.236V180.486a2.238,2.238,0,0,0,2.237,2.234h31.041a2.238,2.238,0,0,0,2.234-2.234V8.817a2.238,2.238,0,0,0-2.234-2.236Z" transform="translate(-116.568)" fill="#12263f"/>
    <path id="Trazado_210831" data-name="Trazado 210831" d="M341.651,200H330.363a8.826,8.826,0,0,1-8.817-8.815V30.8a8.829,8.829,0,0,1,8.817-8.818h11.288a8.828,8.828,0,0,1,8.817,8.818V49.087a3.29,3.29,0,0,1-6.581,0V30.8a2.238,2.238,0,0,0-2.236-2.236H330.363a2.238,2.238,0,0,0-2.236,2.236v160.38a2.237,2.237,0,0,0,2.236,2.234h11.288a2.237,2.237,0,0,0,2.236-2.234V68.665a3.29,3.29,0,0,1,6.581,0v122.52A8.826,8.826,0,0,1,341.651,200" transform="translate(-156.463 -10.698)" fill="#12263f"/>
    <path id="Trazado_210832" data-name="Trazado 210832" d="M58.135,148.871H18.863a3.29,3.29,0,0,1-3.291-3.29V134.293A3.291,3.291,0,0,1,18.863,131H58.135a3.291,3.291,0,0,1,3.29,3.291v11.288a3.29,3.29,0,0,1-3.29,3.29M22.153,142.29H54.845v-4.707H22.153Z" transform="translate(-7.577 -63.745)" fill="#12263f"/>
    <path id="Trazado_210833" data-name="Trazado 210833" d="M58.135,191.467H18.863a3.29,3.29,0,0,1-3.291-3.29V176.889a3.291,3.291,0,0,1,3.291-3.291H58.135a3.291,3.291,0,0,1,3.29,3.291v11.288a3.29,3.29,0,0,1-3.29,3.29m-35.982-6.581H54.845v-4.707H22.153Z" transform="translate(-7.577 -84.472)" fill="#12263f"/>
    <path id="Trazado_210834" data-name="Trazado 210834" d="M57.412,305.229H45.887a3.29,3.29,0,0,1,0-6.581H57.412a3.29,3.29,0,0,1,0,6.581" transform="translate(-20.728 -145.321)" fill="#12263f"/>
    <path id="Trazado_210835" data-name="Trazado 210835" d="M57.412,282.781H45.887a3.29,3.29,0,0,1,0-6.581H57.412a3.29,3.29,0,0,1,0,6.581" transform="translate(-20.728 -134.398)" fill="#12263f"/>
    <path id="Trazado_210836" data-name="Trazado 210836" d="M142.15,305.229H130.628a3.29,3.29,0,0,1,0-6.581H142.15a3.29,3.29,0,0,1,0,6.581" transform="translate(-61.962 -145.321)" fill="#12263f"/>
    <path id="Trazado_210837" data-name="Trazado 210837" d="M142.15,282.781H130.628a3.29,3.29,0,0,1,0-6.581H142.15a3.29,3.29,0,1,1,0,6.581" transform="translate(-61.962 -134.398)" fill="#12263f"/>
    <path id="Trazado_210838" data-name="Trazado 210838" d="M136.843,158.651H125.907a8.885,8.885,0,0,1-8.874-8.874V99.569a8.885,8.885,0,0,1,8.874-8.874h10.935a8.885,8.885,0,0,1,8.874,8.874v50.209a8.885,8.885,0,0,1-8.874,8.874M125.907,97.276a2.3,2.3,0,0,0-2.293,2.293v50.209a2.3,2.3,0,0,0,2.293,2.293h10.935a2.3,2.3,0,0,0,2.293-2.293V99.569a2.3,2.3,0,0,0-2.293-2.293Z" transform="translate(-56.948 -44.132)" fill="#12263f"/>
    <path id="Trazado_210839" data-name="Trazado 210839" d="M229.587,295.149H215.594a3.291,3.291,0,0,1,0-6.581h13.992a3.291,3.291,0,0,1,0,6.581" transform="translate(-103.306 -140.416)" fill="#12263f"/>
    <path id="Trazado_210840" data-name="Trazado 210840" d="M228.583,104.487H213.531a3.29,3.29,0,0,1,0-6.581h15.051a3.29,3.29,0,1,1,0,6.581" transform="translate(-102.303 -47.641)" fill="#12263f"/>
    <path id="Trazado_210841" data-name="Trazado 210841" d="M284.941,67.785H242.848a3.29,3.29,0,0,1-3.29-3.29V53.677a3.29,3.29,0,0,1,3.29-3.29h42.092a3.29,3.29,0,0,1,3.29,3.29V64.495a3.289,3.289,0,0,1-3.29,3.29m-38.8-6.581H281.65V56.968H246.139Z" transform="translate(-116.568 -24.518)" fill="#12263f"/>
    <path id="Trazado_210842" data-name="Trazado 210842" d="M284.941,172.22H242.848a3.29,3.29,0,0,1-3.29-3.29V158.112a3.29,3.29,0,0,1,3.29-3.29h42.092a3.289,3.289,0,0,1,3.29,3.29V168.93a3.29,3.29,0,0,1-3.29,3.29m-38.8-6.581H281.65V161.4H246.139Z" transform="translate(-116.568 -75.336)" fill="#12263f"/>
    <path id="Trazado_210843" data-name="Trazado 210843" d="M284.941,276.655H242.848a3.291,3.291,0,0,1-3.29-3.29V262.547a3.29,3.29,0,0,1,3.29-3.291h42.092a3.29,3.29,0,0,1,3.29,3.291v10.817a3.29,3.29,0,0,1-3.29,3.29m-38.8-6.581H281.65v-4.237H246.139Z" transform="translate(-116.568 -126.153)" fill="#12263f"/>
    <path id="Trazado_210844" data-name="Trazado 210844" d="M284.323,328.132H265.981a3.29,3.29,0,0,1,0-6.581h18.342a3.29,3.29,0,1,1,0,6.581" transform="translate(-127.825 -156.466)" fill="#12263f"/>
    <path id="Trazado_210845" data-name="Trazado 210845" d="M346.6,320.106a3.29,3.29,0,0,1-3.29-3.29v-8.468a3.29,3.29,0,1,1,6.581,0v8.468a3.29,3.29,0,0,1-3.29,3.29" transform="translate(-167.052 -148.44)" fill="#12263f"/>
    <path id="Trazado_210846" data-name="Trazado 210846" d="M346.6,264.675a3.29,3.29,0,0,1-3.29-3.29V237.927a3.29,3.29,0,1,1,6.581,0v23.457a3.29,3.29,0,0,1-3.29,3.29" transform="translate(-167.052 -114.174)" fill="#12263f"/>
    <path id="Trazado_210847" data-name="Trazado 210847" d="M346.6,80.354a3.29,3.29,0,0,1-3.29-3.29v-16.4a3.29,3.29,0,1,1,6.581,0v16.4a3.29,3.29,0,0,1-3.29,3.29" transform="translate(-167.052 -27.917)" fill="#12263f"/>
    <path id="Trazado_210848" data-name="Trazado 210848" d="M198.71,362.48H3.29a3.291,3.291,0,0,1,0-6.581H198.71a3.291,3.291,0,0,1,0,6.581" transform="translate(0 -173.179)" fill="#12263f"/>
  </g>
</svg>
