<svg xmlns="http://www.w3.org/2000/svg" xmlns:xlink="http://www.w3.org/1999/xlink" width="153" height="153" viewBox="0 0 153 153">
  <defs>
    <clipPath id="clip-path">
      <rect id="Rectángulo_57603" data-name="Rectángulo 57603" width="63.472" height="69.504" fill="#12263f"/>
    </clipPath>
  </defs>
  <g id="Grupo_183469" data-name="Grupo 183469" transform="translate(-1108 -2463.75)">
    <circle id="Elipse_5517" data-name="Elipse 5517" cx="76.5" cy="76.5" r="76.5" transform="translate(1108 2463.75)" fill="#fff"/>
    <g id="Grupo_183028" data-name="Grupo 183028" transform="translate(1152 2505.75)">
      <g id="Grupo_183027" data-name="Grupo 183027" clip-path="url(#clip-path)">
        <path id="Trazado_213550" data-name="Trazado 213550" d="M32.742,56.172a1.173,1.173,0,0,1-.523-.122,1.187,1.187,0,0,1-.665-1.066V44.014a1.189,1.189,0,0,1,1.188-1.188H46.9a1.188,1.188,0,0,1,.729,2.126c-4.276,3.333-9.835,7.634-14.159,10.973a1.181,1.181,0,0,1-.725.248M33.93,45.2v7.364c3.028-2.341,6.433-4.976,9.506-7.364Z" transform="translate(9.822 13.331)" fill="#12263f"/>
        <path id="Trazado_213551" data-name="Trazado 213551" d="M40.8,68.439H6.867a1.189,1.189,0,0,1-1.188-1.188V48.062a1.188,1.188,0,1,1,2.376,0v18H40.389C44.466,62.886,49.622,58.9,53.764,55.7V5.8H6.867a1.188,1.188,0,1,1,0-2.376H54.951a1.188,1.188,0,0,1,1.188,1.188V56.281a1.188,1.188,0,0,1-.462.94c-4.321,3.336-9.877,7.634-14.15,10.968a1.2,1.2,0,0,1-.73.25" transform="translate(1.768 1.065)" fill="#12263f"/>
        <path id="Trazado_213552" data-name="Trazado 213552" d="M40.659,11.488H15.676a1.188,1.188,0,0,1,0-2.376H40.659a1.188,1.188,0,1,1,0,2.376" transform="translate(4.51 2.836)" fill="#12263f"/>
        <path id="Trazado_213553" data-name="Trazado 213553" d="M45.953,16.126H13.037a1.188,1.188,0,0,1,0-2.376H45.953a1.188,1.188,0,1,1,0,2.376" transform="translate(3.688 4.28)" fill="#12263f"/>
        <path id="Trazado_213554" data-name="Trazado 213554" d="M45.472,20.765H14.583a1.188,1.188,0,0,1,0-2.376H45.472a1.188,1.188,0,0,1,0,2.376" transform="translate(4.17 5.724)" fill="#12263f"/>
        <path id="Trazado_213555" data-name="Trazado 213555" d="M44.99,25.4H16.13a1.188,1.188,0,0,1,0-2.376H44.99a1.188,1.188,0,1,1,0,2.376" transform="translate(4.651 7.168)" fill="#12263f"/>
        <path id="Trazado_213556" data-name="Trazado 213556" d="M44.027,30.043h-24.8a1.188,1.188,0,0,1,0-2.376h24.8a1.188,1.188,0,1,1,0,2.376" transform="translate(5.614 8.612)" fill="#12263f"/>
        <path id="Trazado_213557" data-name="Trazado 213557" d="M44.027,34.682h-24.8a1.188,1.188,0,0,1,0-2.376h24.8a1.188,1.188,0,1,1,0,2.376" transform="translate(5.614 10.056)" fill="#12263f"/>
        <path id="Trazado_213558" data-name="Trazado 213558" d="M28.143,46.61H12.265a1.188,1.188,0,0,1,0-2.376H28.143a1.188,1.188,0,1,1,0,2.376" transform="translate(3.448 13.769)" fill="#12263f"/>
        <path id="Trazado_213559" data-name="Trazado 213559" d="M13.6,50.987a1.186,1.186,0,0,1-1.143-.873L2.1,12.555a4.591,4.591,0,0,1,8.853-2.44L21.305,47.674a1.189,1.189,0,0,1-.83,1.461l-6.563,1.808a1.192,1.192,0,0,1-.316.043M6.526,9.12a2.217,2.217,0,0,0-2.136,2.8L14.428,48.338,18.7,47.16,8.662,10.747A2.218,2.218,0,0,0,6.526,9.12" transform="translate(0.602 2.099)" fill="#12263f"/>
        <path id="Trazado_213560" data-name="Trazado 213560" d="M16.663,48.81a1.187,1.187,0,0,1-.947-.471l-5.553-7.334a1.187,1.187,0,0,1,.633-1.862l6.56-1.808a1.188,1.188,0,0,1,1.5,1.276l-1.008,9.142a1.191,1.191,0,0,1-1.181,1.057m-3.547-7.842,2.693,3.559.49-4.436Z" transform="translate(3.089 11.608)" fill="#12263f"/>
        <path id="Trazado_213561" data-name="Trazado 213561" d="M4.663,31.941a1.19,1.19,0,0,1-1.145-.873L.21,19.06a5.75,5.75,0,0,1,4.014-7.07,1.188,1.188,0,0,1,.631,2.291A3.374,3.374,0,0,0,2.5,18.429l3.31,12.007a1.19,1.19,0,0,1-1.146,1.5" transform="translate(0 3.718)" fill="#12263f"/>
        <path id="Trazado_213562" data-name="Trazado 213562" d="M59.195,65.015H45.253a1.188,1.188,0,0,1-.728-2.127c2.708-2.1,5.486-4.247,7.918-6.125V6.866H11.111A1.189,1.189,0,0,1,9.923,5.678V1.188A1.189,1.189,0,0,1,11.111,0H59.195a1.188,1.188,0,0,1,1.188,1.188V63.827a1.188,1.188,0,0,1-1.188,1.188M48.727,62.639h9.28V2.376H12.3V4.49H53.631a1.188,1.188,0,0,1,1.188,1.188V57.347a1.192,1.192,0,0,1-.463.94c-1.732,1.338-3.662,2.83-5.629,4.352" transform="translate(3.089 -0.001)" fill="#12263f"/>
      </g>
    </g>
  </g>
</svg>
