<svg id="Grupo_181915" data-name="Grupo 181915" xmlns="http://www.w3.org/2000/svg" xmlns:xlink="http://www.w3.org/1999/xlink" width="115.5" height="103.804" viewBox="0 0 115.5 103.804">
  <defs>
    <clipPath id="clip-path">
      <rect id="Rectángulo_57014" data-name="Rectángulo 57014" width="115.5" height="103.804" fill="none" stroke="#12263f" stroke-width="3"/>
    </clipPath>
  </defs>
  <g id="Grupo_181914" data-name="Grupo 181914" clip-path="url(#clip-path)">
    <path id="Trazado_211013" data-name="Trazado 211013" d="M37.283,57.055V39.511l-20.72-20.72a5.847,5.847,0,0,0-8.269,0l-.5.5a5.847,5.847,0,0,0,0,8.269L21.2,40.973" transform="translate(11.695 32.859)" fill="none" stroke="#12263f" stroke-linecap="round" stroke-linejoin="round" stroke-width="3"/>
    <path id="Trazado_211014" data-name="Trazado 211014" d="M12.446,36.915h0V10.6a5.848,5.848,0,0,0-11.7,0V43.54A26.362,26.362,0,0,0,8.472,62.181l15.67,15.67v2.924" transform="translate(1.443 9.139)" fill="none" stroke="#12263f" stroke-linecap="round" stroke-linejoin="round" stroke-width="3"/>
    <path id="Trazado_211015" data-name="Trazado 211015" d="M22.75,57.055V39.511l20.72-20.72a5.847,5.847,0,0,1,8.269,0l.5.5a5.847,5.847,0,0,1,0,8.269l-13.41,13.41" transform="translate(43.772 32.859)" fill="none" stroke="#12263f" stroke-linecap="round" stroke-linejoin="round" stroke-width="3"/>
    <path id="Trazado_211016" data-name="Trazado 211016" d="M42.446,36.915h0V10.6a5.848,5.848,0,0,1,11.7,0V43.54A26.362,26.362,0,0,1,46.42,62.181L30.75,77.851v2.924" transform="translate(59.165 9.139)" fill="none" stroke="#12263f" stroke-linecap="round" stroke-linejoin="round" stroke-width="3"/>
    <circle id="Elipse_5504" data-name="Elipse 5504" cx="26.316" cy="26.316" r="26.316" transform="translate(31.434 2.193)" fill="none" stroke="#12263f" stroke-linecap="round" stroke-linejoin="round" stroke-width="3"/>
    <path id="Trazado_211017" data-name="Trazado 211017" d="M16.75,29.142h11.7a5.848,5.848,0,0,0,0-11.7H22.6a5.848,5.848,0,0,1,0-11.7h11.7" transform="translate(32.228 11.063)" fill="none" stroke="#12263f" stroke-linecap="round" stroke-linejoin="round" stroke-width="3"/>
    <line id="Línea_742" data-name="Línea 742" y2="5.848" transform="translate(57.75 10.965)" fill="none" stroke="#12263f" stroke-linecap="round" stroke-linejoin="round" stroke-width="3"/>
    <line id="Línea_743" data-name="Línea 743" y2="5.848" transform="translate(57.75 40.206)" fill="none" stroke="#12263f" stroke-linecap="round" stroke-linejoin="round" stroke-width="3"/>
    <path id="Trazado_211018" data-name="Trazado 211018" d="M7.75,38.6V32.75H36.991V38.6" transform="translate(14.911 63.013)" fill="none" stroke="#12263f" stroke-linecap="round" stroke-linejoin="round" stroke-width="3"/>
    <path id="Trazado_211019" data-name="Trazado 211019" d="M21.75,38.6V32.75H50.991V38.6" transform="translate(41.848 63.013)" fill="none" stroke="#12263f" stroke-linecap="round" stroke-linejoin="round" stroke-width="3"/>
  </g>
</svg>
