<svg id="Grupo_181884" data-name="Grupo 181884" xmlns="http://www.w3.org/2000/svg" xmlns:xlink="http://www.w3.org/1999/xlink" width="204.163" height="191.06" viewBox="0 0 204.163 191.06">
  <defs>
    <clipPath id="clip-path">
      <rect id="Rectángulo_56992" data-name="Rectángulo 56992" width="204.163" height="191.06" fill="#12263f"/>
    </clipPath>
  </defs>
  <g id="Grupo_181883" data-name="Grupo 181883" clip-path="url(#clip-path)">
    <path id="Trazado_210849" data-name="Trazado 210849" d="M38.079,341.832a3.469,3.469,0,0,1-3.469-3.469v-6.244a3.469,3.469,0,1,1,6.938,0v6.244a3.469,3.469,0,0,1-3.469,3.469" transform="translate(-15.878 -150.772)" fill="#12263f"/>
    <path id="Trazado_210850" data-name="Trazado 210850" d="M90.634,341.832a3.469,3.469,0,0,1-3.469-3.469v-6.244a3.469,3.469,0,1,1,6.938,0v6.244a3.469,3.469,0,0,1-3.469,3.469" transform="translate(-39.988 -150.772)" fill="#12263f"/>
    <path id="Trazado_210851" data-name="Trazado 210851" d="M53.28,256.973c-9.119,0-16.537-7.756-16.537-17.288S44.161,222.4,53.28,222.4s16.534,7.756,16.534,17.288S62.4,256.973,53.28,256.973m0-27.637c-5.293,0-9.6,4.642-9.6,10.35s4.307,10.35,9.6,10.35,9.6-4.643,9.6-10.35-4.3-10.35-9.6-10.35" transform="translate(-16.856 -102.028)" fill="#12263f"/>
    <path id="Trazado_210852" data-name="Trazado 210852" d="M68.532,322.819H13.724a3.468,3.468,0,0,1-3.469-3.469V303.1a15.914,15.914,0,0,1,15.9-15.9H56.1A15.916,15.916,0,0,1,72,303.1V319.35a3.469,3.469,0,0,1-3.469,3.469m-51.34-6.938H65.063V303.1a8.972,8.972,0,0,0-8.962-8.96H26.152a8.969,8.969,0,0,0-8.96,8.96Z" transform="translate(-4.705 -131.759)" fill="#12263f"/>
    <path id="Trazado_210853" data-name="Trazado 210853" d="M95.742,347.125H3.469a3.469,3.469,0,1,1,0-6.938H95.742a3.469,3.469,0,0,1,0,6.938" transform="translate(0 -156.065)" fill="#12263f"/>
    <path id="Trazado_210854" data-name="Trazado 210854" d="M168.411,154.945a77.149,77.149,0,0,1-52.283-20.328l-16.756-2.212a3.468,3.468,0,0,1-2.017-5.875l6.366-6.453a77.464,77.464,0,1,1,119.712,11.935,3.469,3.469,0,1,1-4.927-4.884,70.547,70.547,0,1,0-107.481-8.674,3.468,3.468,0,0,1-.352,4.455l-3.482,3.529,10.94,1.444a3.463,3.463,0,0,1,1.927.916,70.242,70.242,0,0,0,48.353,19.209c2.156,0,4.327-.1,6.452-.293a3.47,3.47,0,0,1,.629,6.911c-2.331.211-4.714.32-7.082.32" transform="translate(-41.72)" fill="#12263f"/>
    <path id="Trazado_210855" data-name="Trazado 210855" d="M243.634,279.235a3.469,3.469,0,0,1-.309-6.924c1.759-.16,3.523-.385,5.244-.672a3.468,3.468,0,1,1,1.144,6.84c-1.889.317-3.829.567-5.764.743-.106.008-.212.013-.314.013" transform="translate(-110.18 -124.596)" fill="#12263f"/>
    <path id="Trazado_210856" data-name="Trazado 210856" d="M282.618,267.438a3.469,3.469,0,0,1-1.309-6.681,71.57,71.57,0,0,0,6.992-3.3,3.469,3.469,0,1,1,3.3,6.1,78.314,78.314,0,0,1-7.675,3.623,3.437,3.437,0,0,1-1.309.258" transform="translate(-128.063 -117.918)" fill="#12263f"/>
    <path id="Trazado_210857" data-name="Trazado 210857" d="M320.76,243.718a3.469,3.469,0,0,1-2.277-6.089c1.331-1.154,2.629-2.369,3.856-3.61a3.469,3.469,0,0,1,4.932,4.878c-1.352,1.368-2.78,2.7-4.241,3.973a3.456,3.456,0,0,1-2.271.848" transform="translate(-145.56 -106.887)" fill="#12263f"/>
    <path id="Trazado_210858" data-name="Trazado 210858" d="M137.119,242.526a3.456,3.456,0,0,1-2.23-.813,78.226,78.226,0,0,1-7.525-7.241A3.469,3.469,0,1,1,132.5,229.8a71.019,71.019,0,0,0,6.859,6.6,3.469,3.469,0,0,1-2.236,6.125" transform="translate(-58.015 -104.906)" fill="#12263f"/>
    <path id="Trazado_210859" data-name="Trazado 210859" d="M212.786,127.911a3.468,3.468,0,0,1-3.469-3.469v-.3c0-11.818,5.537-23.274,15.193-31.429a18.1,18.1,0,0,0,6.444-14.607A18.469,18.469,0,0,0,213.5,60.653a18.253,18.253,0,0,0-13.323,5.068,18.038,18.038,0,0,0-5.572,13.1,3.469,3.469,0,1,1-6.938,0,25.12,25.12,0,0,1,26.1-25.1,25.121,25.121,0,0,1,15.225,44.3c-8.093,6.832-12.732,16.355-12.732,26.128v.3a3.468,3.468,0,0,1-3.469,3.469" transform="translate(-86.093 -24.636)" fill="#12263f"/>
    <path id="Trazado_210860" data-name="Trazado 210860" d="M225.406,215.236A10.233,10.233,0,1,1,235.639,205a10.245,10.245,0,0,1-10.233,10.233m0-13.529a3.3,3.3,0,1,0,3.3,3.3,3.3,3.3,0,0,0-3.3-3.3" transform="translate(-98.713 -89.353)" fill="#12263f"/>
  </g>
</svg>
