<svg xmlns="http://www.w3.org/2000/svg" xmlns:xlink="http://www.w3.org/1999/xlink" width="136" height="136" viewBox="0 0 136 136">
  <defs>
    <clipPath id="clip-path">
      <rect id="Rectángulo_57640" data-name="Rectángulo 57640" width="67.16" height="69" fill="#fff"/>
    </clipPath>
  </defs>
  <g id="Grupo_183084" data-name="Grupo 183084" transform="translate(-283 -2783)">
    <circle id="Elipse_5544" data-name="Elipse 5544" cx="68" cy="68" r="68" transform="translate(283 2783)" fill="#00a3be"/>
    <g id="Grupo_183062" data-name="Grupo 183062" transform="translate(316.355 2817)">
      <g id="Grupo_183061" data-name="Grupo 183061" transform="translate(0 0)" clip-path="url(#clip-path)">
        <path id="Trazado_213773" data-name="Trazado 213773" d="M19.211,51.943a1.182,1.182,0,0,1-.537-.129,24.375,24.375,0,0,1-9.286-8.378,1.176,1.176,0,1,1,1.973-1.282,22.009,22.009,0,0,0,8.067,7.4c.1-.01.207-.016.314-.016H39.688c.107,0,.212.006.315.016a21.9,21.9,0,0,0,.139-38.562,1.176,1.176,0,0,1,1.123-2.066,24.248,24.248,0,0,1-.51,42.89,1.169,1.169,0,0,1-.72.115,2.175,2.175,0,0,0-.348-.04H19.742a2.175,2.175,0,0,0-.348.04,1.138,1.138,0,0,1-.183.014" transform="translate(3.865 3.689)" fill="#fff"/>
        <path id="Trazado_213774" data-name="Trazado 213774" d="M9.537,40.311a1.174,1.174,0,0,1-1.085-.723A24.229,24.229,0,0,1,19.331,8.921a1.176,1.176,0,1,1,1.116,2.071,21.88,21.88,0,0,0-9.825,27.689,1.175,1.175,0,0,1-.632,1.538,1.159,1.159,0,0,1-.453.092" transform="translate(2.766 3.689)" fill="#fff"/>
        <path id="Trazado_213775" data-name="Trazado 213775" d="M25.428,44.559H16.783a1.176,1.176,0,0,1,0-2.352h8.645a1.176,1.176,0,1,1,0,2.352" transform="translate(6.559 17.737)" fill="#fff"/>
        <path id="Trazado_213776" data-name="Trazado 213776" d="M30.737,53.237H17.7a4.58,4.58,0,0,1-4.283-4.521,4.522,4.522,0,0,1,1.493-3.345,4.532,4.532,0,0,1,3.056-7.894H37.913a4.531,4.531,0,0,1,3.056,7.892,4.52,4.52,0,0,1-2.7,7.864ZM17.968,39.83a2.2,2.2,0,0,0-2.2,2.2A2.172,2.172,0,0,0,17.795,44.2a1.176,1.176,0,0,1,0,2.345,2.179,2.179,0,0,0,0,4.346l20.385,0a2.181,2.181,0,0,0-.094-4.342,1.176,1.176,0,0,1,0-2.345,2.173,2.173,0,0,0,2.024-2.173,2.2,2.2,0,0,0-2.2-2.2Z" transform="translate(5.639 15.749)" fill="#fff"/>
        <path id="Trazado_213777" data-name="Trazado 213777" d="M23.992,7.039a1.176,1.176,0,0,1-1.176-1.176V1.176a1.176,1.176,0,0,1,2.352,0V5.863a1.176,1.176,0,0,1-1.176,1.176" transform="translate(9.588 0)" fill="#fff"/>
        <path id="Trazado_213778" data-name="Trazado 213778" d="M32.388,8.771a1.165,1.165,0,0,1-.5-.111,1.177,1.177,0,0,1-.57-1.564L33.3,2.85a1.177,1.177,0,0,1,2.133.994L33.454,8.09a1.174,1.174,0,0,1-1.067.68" transform="translate(13.117 0.912)" fill="#fff"/>
        <path id="Trazado_213779" data-name="Trazado 213779" d="M39.212,13.64a1.177,1.177,0,0,1-.757-2.078l3.59-3.011a1.176,1.176,0,1,1,1.513,1.8l-3.59,3.011a1.165,1.165,0,0,1-.756.276" transform="translate(15.984 3.478)" fill="#fff"/>
        <path id="Trazado_213780" data-name="Trazado 213780" d="M43.183,20.737a1.177,1.177,0,0,1-.3-2.314l4.528-1.211a1.176,1.176,0,1,1,.608,2.272L43.488,20.7a1.194,1.194,0,0,1-.305.04" transform="translate(17.653 7.216)" fill="#fff"/>
        <path id="Trazado_213781" data-name="Trazado 213781" d="M48.175,29.784a1.133,1.133,0,0,1-.206-.018l-4.614-.814a1.176,1.176,0,1,1,.409-2.316l4.614.814a1.176,1.176,0,0,1-.2,2.335" transform="translate(17.811 11.185)" fill="#fff"/>
        <path id="Trazado_213782" data-name="Trazado 213782" d="M44.1,39.6a1.17,1.17,0,0,1-.673-.213L39.592,36.7a1.176,1.176,0,0,1,1.349-1.927l3.839,2.687A1.177,1.177,0,0,1,44.1,39.6" transform="translate(16.428 14.525)" fill="#fff"/>
        <path id="Trazado_213783" data-name="Trazado 213783" d="M16.182,8.771a1.174,1.174,0,0,1-1.067-.68L13.135,3.844a1.176,1.176,0,0,1,2.132-.994L17.248,7.1a1.177,1.177,0,0,1-.57,1.564,1.165,1.165,0,0,1-.5.111" transform="translate(5.473 0.912)" fill="#fff"/>
        <path id="Trazado_213784" data-name="Trazado 213784" d="M9.834,13.64a1.165,1.165,0,0,1-.756-.276L5.49,10.354A1.176,1.176,0,1,1,7,8.551l3.59,3.011a1.177,1.177,0,0,1-.757,2.078" transform="translate(2.13 3.478)" fill="#fff"/>
        <path id="Trazado_213785" data-name="Trazado 213785" d="M6.141,20.737a1.194,1.194,0,0,1-.305-.04L1.309,19.484a1.176,1.176,0,1,1,.609-2.272l4.526,1.211a1.177,1.177,0,0,1-.3,2.314" transform="translate(0.184 7.216)" fill="#fff"/>
        <path id="Trazado_213786" data-name="Trazado 213786" d="M1.175,29.784a1.176,1.176,0,0,1-.2-2.335l4.616-.814A1.176,1.176,0,0,1,6,28.952l-4.614.814a1.133,1.133,0,0,1-.206.018" transform="translate(0 11.185)" fill="#fff"/>
        <path id="Trazado_213787" data-name="Trazado 213787" d="M5.015,39.6a1.177,1.177,0,0,1-.676-2.14l3.839-2.687A1.176,1.176,0,1,1,9.527,36.7L5.688,39.391a1.17,1.17,0,0,1-.673.213" transform="translate(1.613 14.525)" fill="#fff"/>
        <path id="Trazado_213788" data-name="Trazado 213788" d="M58.873,49.279H5.039a1.176,1.176,0,0,1,0-2.352H58.873a1.176,1.176,0,0,1,0,2.352" transform="translate(1.623 19.72)" fill="#fff"/>
        <path id="Trazado_213789" data-name="Trazado 213789" d="M19.351,34.693a1.176,1.176,0,0,1-1.176-1.176V23.324a1.176,1.176,0,1,1,2.352,0V33.517a1.176,1.176,0,0,1-1.176,1.176" transform="translate(7.638 9.307)" fill="#fff"/>
        <path id="Trazado_213790" data-name="Trazado 213790" d="M28.633,34.693a1.176,1.176,0,0,1-1.176-1.176V23.324a1.176,1.176,0,1,1,2.352,0V33.517a1.176,1.176,0,0,1-1.176,1.176" transform="translate(11.539 9.307)" fill="#fff"/>
        <path id="Trazado_213791" data-name="Trazado 213791" d="M25.464,20.564a6.15,6.15,0,1,1,6.151-6.151,6.158,6.158,0,0,1-6.151,6.151m0-9.949a3.8,3.8,0,1,0,3.8,3.8,3.8,3.8,0,0,0-3.8-3.8" transform="translate(8.116 3.472)" fill="#fff"/>
        <path id="Trazado_213792" data-name="Trazado 213792" d="M29.193,41.138a1.176,1.176,0,0,1-1.176-1.176V35.432a1.175,1.175,0,0,1,1.176-1.176H32.35V21.518a1.575,1.575,0,0,0-1.572-1.574H27.3a1.176,1.176,0,1,1,0-2.352h3.477A3.93,3.93,0,0,1,34.7,21.518V35.432a1.177,1.177,0,0,1-1.177,1.176H30.369v3.355a1.176,1.176,0,0,1-1.176,1.176" transform="translate(10.978 7.393)" fill="#fff"/>
        <path id="Trazado_213793" data-name="Trazado 213793" d="M20.634,41.138a1.176,1.176,0,0,1-1.176-1.176V36.608H16.3a1.177,1.177,0,0,1-1.177-1.176V21.518a3.93,3.93,0,0,1,3.926-3.926h3.477a1.176,1.176,0,1,1,0,2.352H19.049a1.575,1.575,0,0,0-1.572,1.574V34.256h3.157a1.175,1.175,0,0,1,1.176,1.176v4.531a1.176,1.176,0,0,1-1.176,1.176" transform="translate(6.355 7.393)" fill="#fff"/>
        <path id="Trazado_213794" data-name="Trazado 213794" d="M24.407,24.923h-.641a1.176,1.176,0,1,1,0-2.352h.641a1.176,1.176,0,0,1,0,2.352" transform="translate(9.494 9.485)" fill="#fff"/>
        <path id="Trazado_213795" data-name="Trazado 213795" d="M24.407,28.089h-.641a1.176,1.176,0,1,1,0-2.352h.641a1.176,1.176,0,0,1,0,2.352" transform="translate(9.494 10.815)" fill="#fff"/>
        <path id="Trazado_213796" data-name="Trazado 213796" d="M24.407,31.254h-.641a1.176,1.176,0,1,1,0-2.352h.641a1.176,1.176,0,0,1,0,2.352" transform="translate(9.494 12.145)" fill="#fff"/>
        <path id="Trazado_213797" data-name="Trazado 213797" d="M32.238,44.559H28.733a1.177,1.177,0,0,1,0-2.353h3.505a1.177,1.177,0,0,1,0,2.353" transform="translate(11.581 17.736)" fill="#fff"/>
      </g>
    </g>
  </g>
</svg>
