<svg xmlns="http://www.w3.org/2000/svg" xmlns:xlink="http://www.w3.org/1999/xlink" width="190" height="188.238" viewBox="0 0 190 188.238">
  <defs>
    <clipPath id="clip-path">
      <rect id="Rectángulo_57424" data-name="Rectángulo 57424" width="190" height="188.238" fill="none"/>
    </clipPath>
    <clipPath id="clip-path-2">
      <rect id="Rectángulo_57421" data-name="Rectángulo 57421" width="189.999" height="188.237" fill="#afafaf"/>
    </clipPath>
    <clipPath id="clip-path-3">
      <rect id="Rectángulo_57420" data-name="Rectángulo 57420" width="138.939" height="138.939" fill="#d2f9ff"/>
    </clipPath>
    <clipPath id="clip-path-4">
      <path id="Trazado_212857" data-name="Trazado 212857" d="M95,0A94.7,94.7,0,0,0,6.971,60.922,6.606,6.606,0,0,0,0,67.5v.028a6.6,6.6,0,1,0,10.288-5.461,90.555,90.555,0,0,1,169.424,0A6.589,6.589,0,1,0,190,67.528V67.5a6.606,6.606,0,0,0-6.971-6.579A94.7,94.7,0,0,0,95,0Z" transform="translate(0 -0.004)" fill="#00a3be"/>
    </clipPath>
    <clipPath id="clip-path-5">
      <path id="Trazado_212858" data-name="Trazado 212858" d="M177.776,658.836a6.581,6.581,0,0,0,2.643,7.183,90.567,90.567,0,0,1-168.954,0,6.556,6.556,0,1,0-3.311,1.166,94.074,94.074,0,0,0,175.576,0,6.6,6.6,0,1,0-5.953-8.349" transform="translate(-1.143 -653.995)" fill="#00a3be"/>
    </clipPath>
  </defs>
  <g id="Grupo_183478" data-name="Grupo 183478" transform="translate(-390 -894)">
    <g id="Grupo_182594" data-name="Grupo 182594" transform="translate(390 894)" clip-path="url(#clip-path)">
      <g id="Grupo_182589" data-name="Grupo 182589" transform="translate(0 0.001)">
        <g id="Grupo_182588" data-name="Grupo 182588" clip-path="url(#clip-path-2)">
          <g id="Grupo_182587" data-name="Grupo 182587" transform="translate(25.53 24.649)">
            <g id="Grupo_182586" data-name="Grupo 182586">
              <g id="Grupo_182585" data-name="Grupo 182585" clip-path="url(#clip-path-3)">
                <path id="Trazado_212856" data-name="Trazado 212856" d="M284.4,209.915a69.47,69.47,0,1,1-69.469-69.47,69.469,69.469,0,0,1,69.469,69.47" transform="translate(-145.459 -140.445)" fill="#d2f9ff"/>
              </g>
            </g>
          </g>
        </g>
      </g>
      <g id="Grupo_182591" data-name="Grupo 182591" transform="translate(0 0.001)">
        <g id="Grupo_182590" data-name="Grupo 182590" clip-path="url(#clip-path-4)">
          <rect id="Rectángulo_57422" data-name="Rectángulo 57422" width="176.195" height="195.649" transform="translate(-36.347 46.289) rotate(-51.86)" fill="#00a3be"/>
        </g>
      </g>
      <g id="Grupo_182593" data-name="Grupo 182593" transform="translate(0.201 114.785)">
        <g id="Grupo_182592" data-name="Grupo 182592" clip-path="url(#clip-path-5)">
          <rect id="Rectángulo_57423" data-name="Rectángulo 57423" width="176.344" height="196.086" transform="matrix(0.618, -0.787, 0.787, 0.618, -36.766, 45.158)" fill="#00a3be"/>
        </g>
      </g>
    </g>
    <path id="Trazado_214688" data-name="Trazado 214688" d="M22.559-12.2q0,6.05-2.717,9.331A9.39,9.39,0,0,1,12.182.41a9.441,9.441,0,0,1-7.711-3.3Q1.743-6.193,1.743-12.2v-5.455q0-6.05,2.717-9.331a9.413,9.413,0,0,1,7.68-3.281,9.417,9.417,0,0,1,7.69,3.3q2.728,3.3,2.728,9.331Zm-6.911-6.337a10.65,10.65,0,0,0-.841-4.809,2.811,2.811,0,0,0-2.666-1.589,2.744,2.744,0,0,0-2.594,1.477,10.032,10.032,0,0,0-.872,4.471v7.629A10.73,10.73,0,0,0,9.516-6.47a2.821,2.821,0,0,0,2.666,1.548,2.783,2.783,0,0,0,2.6-1.507,10.243,10.243,0,0,0,.861-4.727ZM41.467,0H34.535V-22.066l-6.809,1.989v-5.25l13.1-4.532h.636Z" transform="translate(463 1004)" fill="#00a3be"/>
  </g>
</svg>
