<svg xmlns="http://www.w3.org/2000/svg" xmlns:xlink="http://www.w3.org/1999/xlink" width="153" height="153" viewBox="0 0 153 153">
  <defs>
    <clipPath id="clip-path">
      <rect id="Rectángulo_57604" data-name="Rectángulo 57604" width="74.282" height="68.261" fill="#12263f"/>
    </clipPath>
  </defs>
  <g id="Grupo_183470" data-name="Grupo 183470" transform="translate(-10829 9158)">
    <g id="Grupo_183109" data-name="Grupo 183109" transform="translate(10829 -9158)">
      <circle id="Elipse_5517" data-name="Elipse 5517" cx="76.5" cy="76.5" r="76.5" fill="#fff"/>
    </g>
    <g id="Grupo_183029" data-name="Grupo 183029" transform="translate(10869 -9116)" clip-path="url(#clip-path)">
      <path id="Trazado_213563" data-name="Trazado 213563" d="M62.669,50.775H11.614A11.628,11.628,0,0,1,0,39.16a1.209,1.209,0,0,1,1.209-1.209H73.074a1.209,1.209,0,0,1,1.209,1.209A11.628,11.628,0,0,1,62.669,50.775M2.5,40.37a9.208,9.208,0,0,0,9.115,7.984H62.669a9.208,9.208,0,0,0,9.115-7.984Z" transform="translate(0 17.486)" fill="#12263f"/>
      <path id="Trazado_213564" data-name="Trazado 213564" d="M70.367,53.548H2.617a1.209,1.209,0,0,1-1.209-1.209V13.462A4.119,4.119,0,0,1,5.521,9.349h25.8a1.21,1.21,0,1,1,0,2.42H5.521a1.7,1.7,0,0,0-1.694,1.693V51.129h65.33V13.462a1.7,1.7,0,0,0-1.694-1.693h-.819a1.21,1.21,0,0,1,0-2.42h.819a4.119,4.119,0,0,1,4.113,4.113V52.339a1.209,1.209,0,0,1-1.209,1.209" transform="translate(0.649 4.308)" fill="#12263f"/>
      <path id="Trazado_213565" data-name="Trazado 213565" d="M32.651,16.268H28.78a1.209,1.209,0,0,1,0-2.419h3.871a1.209,1.209,0,1,1,0,2.419" transform="translate(12.703 6.382)" fill="#12263f"/>
      <path id="Trazado_213566" data-name="Trazado 213566" d="M61.018,45.023H7.948a1.213,1.213,0,0,1-1.053-.614c-.158-.28-.308-.51-.437-.71a3.184,3.184,0,0,1-.688-1.775V16a2.169,2.169,0,0,1,2.178-2.155h3.938a1.21,1.21,0,1,1,0,2.42h-3.7V41.925c.019.025.175.267.3.462.045.069.092.142.14.216H60.336c.048-.075.095-.148.14-.216a4.037,4.037,0,0,0,.307-.52l-.007-25.6H57.133a1.21,1.21,0,0,1,0-2.42h3.886A2.169,2.169,0,0,1,63.2,16V41.925a3.184,3.184,0,0,1-.688,1.775c-.13.2-.279.429-.437.71a1.213,1.213,0,0,1-1.053.614" transform="translate(2.658 6.382)" fill="#12263f"/>
      <path id="Trazado_213567" data-name="Trazado 213567" d="M18.849,37.881a1.224,1.224,0,0,1-.193-.015,1.209,1.209,0,0,1-.917-.716l-2.511-5.814-4.417-.126A1.21,1.21,0,0,1,9.636,30V18.589a1.207,1.207,0,0,1,.958-1.183L32,12.865a1.208,1.208,0,0,1,1.456,1.082l1.268,15.065a1.209,1.209,0,0,1-1.082,1.3l-8.277.841-5.615,6.318a1.206,1.206,0,0,1-.9.406m-6.794-9.055,4.013.115a1.206,1.206,0,0,1,1.075.73l2.064,4.777,4.667-5.25a1.205,1.205,0,0,1,.781-.4l7.561-.768L31.163,15.516,12.055,19.569Z" transform="translate(4.44 5.915)" fill="#12263f"/>
      <path id="Trazado_213568" data-name="Trazado 213568" d="M19.862,20.848a1.655,1.655,0,1,1-1.655-1.655,1.655,1.655,0,0,1,1.655,1.655" transform="translate(7.626 8.844)" fill="#12263f"/>
      <path id="Trazado_213569" data-name="Trazado 213569" d="M16.463,21.491a1.655,1.655,0,1,1-1.655-1.655,1.655,1.655,0,0,1,1.655,1.655" transform="translate(6.06 9.14)" fill="#12263f"/>
      <path id="Trazado_213570" data-name="Trazado 213570" d="M23.261,20.138a1.655,1.655,0,1,1-1.655-1.655,1.655,1.655,0,0,1,1.655,1.655" transform="translate(9.192 8.517)" fill="#12263f"/>
      <path id="Trazado_213571" data-name="Trazado 213571" d="M41.6,25.045a1.209,1.209,0,0,1-.9-.406l-5.617-6.318L26.8,17.479a1.211,1.211,0,0,1-1.084-1.306L26.986,1.109A1.21,1.21,0,0,1,28.442.026L49.849,4.568a1.21,1.21,0,0,1,.96,1.183V17.164a1.21,1.21,0,0,1-1.176,1.209l-4.416.126-2.511,5.815a1.212,1.212,0,0,1-.919.714,1.069,1.069,0,0,1-.191.016M28.227,15.192l7.562.768a1.212,1.212,0,0,1,.781.4l4.667,5.25L43.3,16.832a1.211,1.211,0,0,1,1.077-.729l4.011-.114V6.731L29.281,2.679Z" transform="translate(11.847 0.001)" fill="#12263f"/>
      <path id="Trazado_213572" data-name="Trazado 213572" d="M33.71,8.011a1.655,1.655,0,1,0,1.655-1.655A1.655,1.655,0,0,0,33.71,8.011" transform="translate(15.532 2.929)" fill="#12263f"/>
      <path id="Trazado_213573" data-name="Trazado 213573" d="M37.109,8.653A1.655,1.655,0,1,0,38.764,7a1.655,1.655,0,0,0-1.655,1.655" transform="translate(17.098 3.225)" fill="#12263f"/>
      <path id="Trazado_213574" data-name="Trazado 213574" d="M30.311,7.3a1.655,1.655,0,1,0,1.655-1.655A1.655,1.655,0,0,0,30.311,7.3" transform="translate(13.966 2.602)" fill="#12263f"/>
      <path id="Trazado_213575" data-name="Trazado 213575" d="M26.272,33.395H13.044a1.209,1.209,0,1,1,0-2.419H26.272a1.209,1.209,0,0,1,0,2.419" transform="translate(5.453 14.273)" fill="#12263f"/>
      <path id="Trazado_213576" data-name="Trazado 213576" d="M43.763,20.558H32.148a1.209,1.209,0,1,1,0-2.419H43.763a1.209,1.209,0,1,1,0,2.419" transform="translate(14.255 8.358)" fill="#12263f"/>
      <path id="Trazado_213577" data-name="Trazado 213577" d="M45.773,28.5H27.786a1.209,1.209,0,1,1,0-2.419H45.773a1.209,1.209,0,1,1,0,2.419" transform="translate(12.245 12.017)" fill="#12263f"/>
      <path id="Trazado_213578" data-name="Trazado 213578" d="M41.253,43.931H17.77a1.21,1.21,0,0,1,0-2.42H41.253a1.21,1.21,0,0,1,0,2.42" transform="translate(7.63 19.127)" fill="#12263f"/>
    </g>
  </g>
</svg>
