<svg id="Grupo_183410" data-name="Grupo 183410" xmlns="http://www.w3.org/2000/svg" xmlns:xlink="http://www.w3.org/1999/xlink" width="276.315" height="240.452" viewBox="0 0 276.315 240.452">
  <defs>
    <clipPath id="clip-path">
      <rect id="Rectángulo_58106" data-name="Rectángulo 58106" width="276.315" height="240.452" fill="none"/>
    </clipPath>
    <clipPath id="clip-path-3">
      <rect id="Rectángulo_58068" data-name="Rectángulo 58068" width="273.164" height="237.3" fill="none"/>
    </clipPath>
    <clipPath id="clip-path-5">
      <rect id="Rectángulo_58087" data-name="Rectángulo 58087" width="42.526" height="29.108" fill="none"/>
    </clipPath>
    <clipPath id="clip-path-6">
      <rect id="Rectángulo_58088" data-name="Rectángulo 58088" width="57.772" height="39.541" fill="none"/>
    </clipPath>
    <clipPath id="clip-path-7">
      <rect id="Rectángulo_58089" data-name="Rectángulo 58089" width="28.586" height="42.593" fill="none"/>
    </clipPath>
    <clipPath id="clip-path-8">
      <rect id="Rectángulo_58103" data-name="Rectángulo 58103" width="42.83" height="19.091" fill="none"/>
    </clipPath>
    <clipPath id="clip-path-9">
      <rect id="Rectángulo_58104" data-name="Rectángulo 58104" width="39.366" height="69.06" fill="none"/>
    </clipPath>
  </defs>
  <g id="Grupo_183409" data-name="Grupo 183409" clip-path="url(#clip-path)">
    <g id="Grupo_183391" data-name="Grupo 183391" transform="translate(0 0)">
      <g id="Grupo_183390" data-name="Grupo 183390" clip-path="url(#clip-path)">
        <g id="Grupo_183389" data-name="Grupo 183389" transform="translate(3.151 3.151)" opacity="0.7" style="mix-blend-mode: multiply;isolation: isolate">
          <g id="Grupo_183388" data-name="Grupo 183388">
            <g id="Grupo_183387" data-name="Grupo 183387" clip-path="url(#clip-path-3)">
              <path id="Trazado_214400" data-name="Trazado 214400" d="M273.561,173.915l-31.736-40.472s0-.039-.032-.039c-.666-.862-1.569-1.3-2-1l-.027.027,0,0-.161-.216c-.387-.528-.95-.782-1.239-.564l-.2.148-1.817-2.3-.684-.855,1.069-.8a.981.981,0,0,0-.032-1.344l-1.307-1.762-2.385-3.2a.979.979,0,0,0-1.287-.412l-1.257.932-2.4-3.024L226.29,116.8a47.015,47.015,0,0,0,4.675-4.377,45.17,45.17,0,0,0,8.592-13.344q.8-1.91,1.419-3.895a45.529,45.529,0,0,0,1.207-4.766c.209-1.082.382-2.18.518-3.274.061-.5.116-1.007.155-1.514.039-.391.066-.789.093-1.185.025-.443.045-.88.059-1.323.034-.953.03-1.9.007-2.844a45.367,45.367,0,0,0-1.683-10.939c-.089-.339-.193-.668-.293-1.007-.291-.962-.614-1.892-.978-2.819a44.632,44.632,0,0,0-3.1-6.51,45.208,45.208,0,0,0-67.227-12.826c-.366.291-.7.616-1.062.916V17.006H94.488A16.783,16.783,0,0,0,77.755,1.386c-.389,0-.753.089-1.135.116-.384-.027-.748-.116-1.139-.116a16.766,16.766,0,0,0-16.7,15.62H1.386V211.568H51.342a21.334,21.334,0,0,0,.043,11.548l-.014.043c.032.111.082.218.116.33.164.534.352,1.06.559,1.587.086.223.164.446.257.664a22.191,22.191,0,0,0,.985,1.994c.034.059.055.123.089.182l0,0,.023.045a21.312,21.312,0,0,0,4.875,5.773l-.007.025c.084.07.18.123.264.191a21.745,21.745,0,0,0,2.1,1.51l.045.032a21.242,21.242,0,0,0,2.349,1.239c.193.089.389.168.587.255a21.911,21.911,0,0,0,2.083.757c.15.048.3.1.446.146a21.73,21.73,0,0,0,2.553.553c.059.007.116.03.175.039l0-.016a21.29,21.29,0,0,0,13.749-2.606c.6-.346,1.176-.719,1.733-1.112.632-.286,1.26-.6,1.876-.957a21.385,21.385,0,0,0,10.291-14.2,21.433,21.433,0,0,0,.109-8.015h33.985l14.966,9.77v9.42a5.856,5.856,0,0,0,5.864,5.855h53.716a5.856,5.856,0,0,0,5.864-5.855V168.274a5.863,5.863,0,0,0-5.864-5.864h-.991v-2.244a5.088,5.088,0,0,0-4.854-5.077l0-17.378-2.028-2.153-.8.85-.8-.85-1.967,2.08-1.96-2.08-.8.848-.8-.848-1.214,1.287-6.971-12.815c.255.1.5.207.755.3a.075.075,0,0,0,.036.011c.152.055.309.109.468.161s.314.109.473.161c.332.107.659.209.989.309a1.07,1.07,0,0,1,.182.061c.18.052.371.089.553.141a21.585,21.585,0,0,0,3.722,2.592c.616.336,1.246.637,1.88.909.566.384,1.153.75,1.769,1.087a21.249,21.249,0,0,0,27.41-5.971l2.319,3.315.4.575-1.264.941a.986.986,0,0,0,.034,1.346l3.695,4.964c.362.484.941.671,1.28.409l1.064-.787h0l.184.264.437.632,1.683,2.4-.193.141c-.289.216-.209.825.182,1.353l.15.2-.032.027c-.427.334-.23,1.332.4,2.233l2.162,3.135,27.873,38.6c.9,1.239,2,1.939,2.5,1.571l3.768-2.8,4.4-3.3,3.033-2.269c.532-.364.2-1.669-.734-2.831M81.35,13.087a5.7,5.7,0,0,1-1.621,3.92H73.558a5.7,5.7,0,0,1-1.612-3.92,5.825,5.825,0,0,1,4.7-5.723,5.848,5.848,0,0,1,4.707,5.723m148.687,49.59h0c.107.177.209.359.309.534.407.725.8,1.469,1.166,2.226a37.59,37.59,0,0,1,1.776,28.078c-.25.741-.523,1.469-.814,2.194l-.007,0c-.073.209-.166.418-.25.625l0,0c-.13.307-.268.614-.4.909-.337.734-.7,1.448-1.082,2.158l-.011.018a29.072,29.072,0,0,0-13.313-26.853c-.546-.35-1.11-.684-1.685-1-.825-.452-1.664-.853-2.512-1.216-.78-.532-1.589-1.037-2.435-1.5l-.061-.032h0c-.057-.032-.116-.05-.173-.082a28.865,28.865,0,0,0-2.826-1.321c-.266-.109-.534-.193-.8-.293-.773-.289-1.548-.548-2.333-.766-.125-.034-.248-.091-.373-.123l-.05.014A29.083,29.083,0,0,0,175.52,74.59a28.151,28.151,0,0,1,7.9-18.51c4.836-4.829,11.278-7.731,17.835-9.629-1.257.362-3.831-.491-5.236-.512a34.3,34.3,0,0,0-16.489,4A29.384,29.384,0,0,0,168.67,60.211V58.188c.136-.168.264-.343.4-.512a.593.593,0,0,1,.052-.064c.614-.725,1.253-1.428,1.91-2.112a37.315,37.315,0,0,1,27.96-11.232c.325.009.643.023.957.032v0a37.4,37.4,0,0,1,30.086,18.374m1.237-.457c.1.159.182.316.277.48s.166.314.255.464c.1.193.2.371.3.564a39.934,39.934,0,0,0-5.768-8.154c.2.216.427.4.621.618a38.626,38.626,0,0,1,4.318,6.028m-5.052-6.757a40.435,40.435,0,0,0-7.506-6.387,38.94,38.94,0,0,1,7.506,6.387" transform="translate(-1.385 -1.386)" fill="gray"/>
            </g>
          </g>
        </g>
      </g>
    </g>
    <rect id="Rectángulo_58070" data-name="Rectángulo 58070" width="157.759" height="194.561" transform="translate(9.527 15.62)" fill="#0e2036"/>
    <rect id="Rectángulo_58071" data-name="Rectángulo 58071" width="157.755" height="194.559" transform="translate(0 15.62)" fill="#153152"/>
    <rect id="Rectángulo_58072" data-name="Rectángulo 58072" width="138.703" height="175.501" transform="translate(11.366 25.147)" fill="#c4c4c4"/>
    <rect id="Rectángulo_58073" data-name="Rectángulo 58073" width="138.692" height="175.501" transform="translate(6.307 25.147)" fill="#fefefe"/>
    <g id="Grupo_183408" data-name="Grupo 183408" transform="translate(0 0)">
      <g id="Grupo_183407" data-name="Grupo 183407" clip-path="url(#clip-path)">
        <path id="Trazado_214401" data-name="Trazado 214401" d="M86.38,17.155h-12.6v-.339a16.839,16.839,0,0,0-33.678,0v.339H28.3a13.071,13.071,0,0,0-13.04,12.5H99.426a13.08,13.08,0,0,0-13.047-12.5M51.119,11.7a5.836,5.836,0,1,1,7.856,5.455H54.928A5.81,5.81,0,0,1,51.119,11.7" transform="translate(19.443 0)" fill="#eda73f"/>
        <path id="Trazado_214402" data-name="Trazado 214402" d="M85.382,17.155h-12.6v-.339a16.839,16.839,0,0,0-33.678,0v.339H27.314a13.07,13.07,0,0,0-13.049,12.5H98.424a13.078,13.078,0,0,0-13.042-12.5M50.121,11.7a5.836,5.836,0,1,1,7.856,5.455H53.925a5.813,5.813,0,0,1-3.8-5.455" transform="translate(18.169 0)" fill="#ffce3b"/>
        <path id="Trazado_214403" data-name="Trazado 214403" d="M20.517,17.21H36.995v5.05H31.481V38.453h-5.63V22.259H20.517Z" transform="translate(26.133 21.92)" fill="#5794d9"/>
        <path id="Trazado_214404" data-name="Trazado 214404" d="M33.508,17.21h6.646l6.439,21.243H40.82l-1.244-3.715H33.858l-1.223,3.715H26.862Zm4.936,12.74-1.537-5.689L35.136,29.95Z" transform="translate(34.214 21.921)" fill="#5794d9"/>
        <path id="Trazado_214405" data-name="Trazado 214405" d="M42.183,17.21,45.225,23.1l3.047-5.891h6.241L48.04,27.921l6.33,10.532H48.129l-2.9-5.689-2.96,5.689H36.031l6.353-10.532L35.942,17.21Z" transform="translate(45.78 21.92)" fill="#5794d9"/>
        <path id="Trazado_214406" data-name="Trazado 214406" d="M8.937,29.782h9.488c3.77,0,6.5,1.537,6.5,6.821,0,5.05-1.655,5.8-3.138,6.382l3.658,8.04H19.037L16.3,43.511,14.567,43.1v7.924H8.937ZM17.7,38.865c1.482,0,1.564-.755,1.564-2.262,0-1.278-.286-2.033-1.564-2.033h-3.1v4.3Z" transform="translate(11.383 37.934)" fill="#5794d9"/>
        <path id="Trazado_214407" data-name="Trazado 214407" d="M16.788,34.716c0-4.375,3.349-4.934,5.4-4.934a93.109,93.109,0,0,1,9.5.468v4.727H23.927c-1.51,0-1.51.844-1.51,1.626v1.278l7.806.321v4.67l-7.806.261v1.278c0,1.537.962,1.507,1.8,1.507h7.465v4.7c-2.994.4-9.2.491-9.2.491-1.88.059-5.691-.318-5.691-4.759Z" transform="translate(21.383 37.934)" fill="#5794d9"/>
        <path id="Trazado_214408" data-name="Trazado 214408" d="M23.772,29.782H40.257v5.05H34.745V51.025H29.113V34.832H23.772Z" transform="translate(30.279 37.934)" fill="#5794d9"/>
        <path id="Trazado_214409" data-name="Trazado 214409" d="M31.841,29.782h5.63V41.739c0,2.728.061,4.381,2.815,4.381,2.59,0,2.644-1.769,2.644-4.381V29.782h5.657V41.739c0,9.372-4.786,9.429-8.3,9.429-3.94,0-8.445.234-8.445-9.429Z" transform="translate(40.556 37.934)" fill="#5794d9"/>
        <path id="Trazado_214410" data-name="Trazado 214410" d="M40.194,29.782h9.488c3.77,0,6.5,1.537,6.5,6.821,0,5.05-1.655,5.8-3.138,6.382l3.658,8.04H50.294l-2.733-7.515L45.824,43.1v7.924h-5.63Zm8.761,9.083c1.482,0,1.564-.755,1.564-2.262,0-1.278-.286-2.033-1.564-2.033h-3.1v4.3Z" transform="translate(51.196 37.934)" fill="#5794d9"/>
        <path id="Trazado_214411" data-name="Trazado 214411" d="M48.109,29.782h5.684l6.071,10.855V29.782h5.63V51.025h-5.63l-6.1-10.564V51.025H48.109Z" transform="translate(61.276 37.934)" fill="#5794d9"/>
        <rect id="Rectángulo_58074" data-name="Rectángulo 58074" width="6.196" height="87.863" transform="translate(14.993 103.588)" fill="#e1e1e1"/>
        <rect id="Rectángulo_58075" data-name="Rectángulo 58075" width="6.194" height="87.87" transform="translate(50.945 101.705)" fill="#e1e1e1"/>
        <rect id="Rectángulo_58076" data-name="Rectángulo 58076" width="6.2" height="87.87" transform="translate(92.488 101.705)" fill="#e1e1e1"/>
        <rect id="Rectángulo_58077" data-name="Rectángulo 58077" width="6.2" height="87.87" transform="translate(130.234 101.705)" fill="#e1e1e1"/>
        <rect id="Rectángulo_58078" data-name="Rectángulo 58078" width="121.441" height="6.2" transform="translate(14.993 99.288)" fill="#e1e1e1"/>
        <rect id="Rectángulo_58079" data-name="Rectángulo 58079" width="20.841" height="12.926" transform="translate(25.477 111.253)" fill="#c4c4c4"/>
        <rect id="Rectángulo_58080" data-name="Rectángulo 58080" width="20.841" height="12.926" transform="translate(64.098 111.253)" fill="#c4c4c4"/>
        <rect id="Rectángulo_58081" data-name="Rectángulo 58081" width="20.841" height="12.921" transform="translate(64.098 139.181)" fill="#c4c4c4"/>
        <rect id="Rectángulo_58082" data-name="Rectángulo 58082" width="121.441" height="6.2" transform="translate(14.993 127.944)" fill="#e1e1e1"/>
        <rect id="Rectángulo_58083" data-name="Rectángulo 58083" width="121.441" height="6.196" transform="translate(14.993 156.604)" fill="#e1e1e1"/>
        <rect id="Rectángulo_58084" data-name="Rectángulo 58084" width="118.936" height="6.196" transform="translate(17.498 185.255)" fill="#e1e1e1"/>
        <path id="Trazado_214412" data-name="Trazado 214412" d="M121.513,128.175l-3.07,1.651L68.813,38.5l3.044-1.6Z" transform="translate(87.648 46.996)" fill="#6cb880"/>
        <rect id="Rectángulo_58085" data-name="Rectángulo 58085" width="54.863" height="103.94" transform="translate(108.258 111.688) rotate(-28.518)" fill="#82de9a"/>
        <path id="Trazado_214413" data-name="Trazado 214413" d="M60.271,65.5,88.322,50.258l38.685,71.188L98.97,136.687Zm-10.4-3.058,45.995,84.634L137.382,124.5,91.394,39.872Z" transform="translate(63.528 50.785)" fill="#447a52"/>
        <path id="Trazado_214414" data-name="Trazado 214414" d="M66.74,81.92A16.054,16.054,0,0,1,88.5,88.33L74.391,96Z" transform="translate(85.007 101.857)" fill="#447a52"/>
        <path id="Trazado_214415" data-name="Trazado 214415" d="M57.532,68.186a16.053,16.053,0,0,0,6.455-21.762L49.876,54.1Z" transform="translate(63.528 59.131)" fill="#447a52"/>
        <path id="Trazado_214416" data-name="Trazado 214416" d="M89.7,70.906a16.025,16.025,0,0,0-6.437,21.73l14.083-7.662Z" transform="translate(103.569 90.314)" fill="#447a52"/>
        <path id="Trazado_214417" data-name="Trazado 214417" d="M83.685,53.969a16.04,16.04,0,0,1-21.743-6.437l14.088-7.66Z" transform="translate(78.895 50.785)" fill="#447a52"/>
        <path id="Trazado_214418" data-name="Trazado 214418" d="M75.929,72.054A7.589,7.589,0,1,0,86.218,75.1a7.593,7.593,0,0,0-10.289-3.044" transform="translate(91.652 90.605)" fill="#447a52"/>
        <path id="Trazado_214419" data-name="Trazado 214419" d="M70.294,58.934A14.16,14.16,0,1,0,89.5,64.6a14.155,14.155,0,0,0-19.2-5.668" transform="translate(80.105 72.869)" fill="#447a52"/>
        <path id="Trazado_214420" data-name="Trazado 214420" d="M64.425,50.9a7.594,7.594,0,1,0,10.289,3.056A7.588,7.588,0,0,0,64.425,50.9" transform="translate(77.013 63.659)" fill="#447a52"/>
        <path id="Trazado_214421" data-name="Trazado 214421" d="M73.927,75.24c-3.04,1.655-5.052.318-6.394-1.98l-1.828,1L64.616,72.23l1.837-1a18.15,18.15,0,0,1-1.387-4.038L67.808,65.7c.571,1.348,1.714,3.69,2.276,4.736.668,1.239,1.091,1.792,2.278,1.139l.514-.271c.914-.5,1.089-1.087.471-2.2l-.925-1.714c-1.708-3.156.5-5.209,2.21-6.134l.884-.484c3.615-1.967,5.6-.259,6.744,1.858l1.764-.96,1.1,2.03-1.776.962a12.372,12.372,0,0,1,1.382,4.088l-2.7,1.46c-.389-.887-1.394-3.065-2.465-5.029-.482-.9-1.082-1.51-2.017-1l-.618.337c-.759.414-1.087.9-.527,1.953l.894,1.639c2.076,3.8-.9,5.787-2.065,6.425Z" transform="translate(82.302 76.302)" fill="#75c78a"/>
        <path id="Trazado_214422" data-name="Trazado 214422" d="M132.393,110.38l-1.912,2.917L43.441,56.486l1.917-2.863Z" transform="translate(55.332 68.3)" fill="#6cb880"/>
        <rect id="Rectángulo_58086" data-name="Rectángulo 58086" width="54.86" height="103.942" transform="matrix(0.547, -0.837, 0.837, 0.547, 68.785, 170.721)" fill="#82de9a"/>
        <path id="Trazado_214423" data-name="Trazado 214423" d="M43.166,94.522,60.614,67.8l67.848,44.287-17.453,26.73Zm-10.6,2.249,80.649,52.646,25.829-39.565L58.386,57.2Z" transform="translate(41.482 72.857)" fill="#447a52"/>
        <path id="Trazado_214424" data-name="Trazado 214424" d="M62.143,98a16.033,16.033,0,0,1,22.182-4.7l-8.779,13.449Z" transform="translate(79.152 115.527)" fill="#447a52"/>
        <path id="Trazado_214425" data-name="Trazado 214425" d="M46,90.9a16.051,16.051,0,0,0-4.654-22.214L32.568,82.137Z" transform="translate(41.482 87.489)" fill="#447a52"/>
        <path id="Trazado_214426" data-name="Trazado 214426" d="M74.959,76.5a16.026,16.026,0,0,0,4.657,22.18l8.761-13.422Z" transform="translate(92.154 97.445)" fill="#447a52"/>
        <path id="Trazado_214427" data-name="Trazado 214427" d="M62.264,65.966A16.042,16.042,0,0,1,40.07,70.625L48.831,57.2Z" transform="translate(51.038 72.857)" fill="#447a52"/>
        <path id="Trazado_214428" data-name="Trazado 214428" d="M64.547,84.347a7.592,7.592,0,1,0,10.5-2.19,7.6,7.6,0,0,0-10.5,2.19" transform="translate(80.644 103.064)" fill="#447a52"/>
        <path id="Trazado_214429" data-name="Trazado 214429" d="M52.061,77.67a14.159,14.159,0,1,0,19.586-4.127A14.138,14.138,0,0,0,52.061,77.67" transform="translate(63.366 90.741)" fill="#447a52"/>
        <path id="Trazado_214430" data-name="Trazado 214430" d="M44.388,71.191a7.591,7.591,0,1,0,10.5-2.2,7.6,7.6,0,0,0-10.5,2.2" transform="translate(54.967 86.3)" fill="#447a52"/>
        <path id="Trazado_214431" data-name="Trazado 214431" d="M63.649,89.863c-1.894,2.9-4.3,2.688-6.566,1.3l-1.137,1.73-1.93-1.26,1.157-1.751a17.587,17.587,0,0,1-3.138-2.906l1.7-2.6c1.148.923,3.258,2.437,4.252,3.09,1.187.769,1.814,1.057,2.551-.073l.318-.491c.573-.869.443-1.476-.625-2.162L58.6,83.669c-3.013-1.962-2.024-4.827-.969-6.446l.541-.848c2.26-3.447,4.809-2.876,6.826-1.567L66.1,73.135,68.024,74.4l-1.1,1.685a12.248,12.248,0,0,1,3.147,2.94l-1.68,2.567c-.759-.589-2.672-2.033-4.55-3.258-.855-.555-1.676-.809-2.251.07l-.389.593c-.471.728-.53,1.314.466,1.964l1.562,1.019c3.633,2.376,1.96,5.523,1.244,6.628Z" transform="translate(66.278 93.153)" fill="#75c78a"/>
        <path id="Trazado_214432" data-name="Trazado 214432" d="M81.929,49.907a21.409,21.409,0,0,0,8.49,29.067l20.566-37.55a21.4,21.4,0,0,0-29.056,8.483" transform="translate(100.993 49.401)" fill="#eda73f"/>
        <path id="Trazado_214433" data-name="Trazado 214433" d="M113.245,69.006a21.642,21.642,0,0,1-3.952,5.157A21.4,21.4,0,0,1,84.185,77.5l20.568-37.55c.421.234.844.473,1.246.734a21.411,21.411,0,0,1,7.246,28.326" transform="translate(107.227 50.88)" fill="#eda73f"/>
        <path id="Trazado_214434" data-name="Trazado 214434" d="M109.381,40.551A21.4,21.4,0,1,0,117.874,69.6a21.386,21.386,0,0,0-8.492-29.053" transform="translate(98.952 48.285)" fill="#ffce3b"/>
        <path id="Trazado_214435" data-name="Trazado 214435" d="M81.466,48.748a17.8,17.8,0,0,0,7.058,24.165l17.114-31.229a17.81,17.81,0,0,0-24.172,7.064" transform="translate(100.97 50.302)" fill="#eda73f"/>
        <path id="Trazado_214436" data-name="Trazado 214436" d="M100.456,40.455,83.34,71.684a17.806,17.806,0,0,0,17.116-31.229" transform="translate(106.151 51.528)" fill="#f59407"/>
        <path id="Trazado_214437" data-name="Trazado 214437" d="M88.314,69.036a15.106,15.106,0,1,1,20.5-5.991,15.121,15.121,0,0,1-20.5,5.991m14.195-25.909a14.438,14.438,0,1,0,5.718,19.6,14.456,14.456,0,0,0-5.718-19.6" transform="translate(102.484 51.816)" fill="#ffce3b"/>
        <path id="Trazado_214438" data-name="Trazado 214438" d="M89.044,46.306c1.855-3.324,4.5-3.258,7.1-1.919l1.107-2.005,2.21,1.237-1.105,2.01a18,18,0,0,1,3.64,2.933l-1.644,2.963c-1.335-.9-3.768-2.387-4.916-3.024-1.348-.762-2.067-1.021-2.776.264l-.316.571c-.559,1.007-.359,1.637.869,2.324l1.869,1.032c3.447,1.91,2.6,5.129,1.564,7l-.532.971c-2.194,3.945-5.041,3.542-7.344,2.267l-1.06,1.9L85.493,63.6l1.071-1.926A14.039,14.039,0,0,1,82.869,58.7l1.639-2.949c.891.587,3.09,2.008,5.248,3.206.982.552,1.9.748,2.458-.257l.377-.666c.457-.839.482-1.485-.662-2.112l-1.8-1c-4.165-2.306-2.594-5.9-1.889-7.178Z" transform="translate(105.551 53.982)" fill="#ffce3b"/>
        <g id="Grupo_183394" data-name="Grupo 183394" transform="translate(176.642 86.899)" opacity="0.3" style="mix-blend-mode: screen;isolation: isolate">
          <g id="Grupo_183393" data-name="Grupo 183393">
            <g id="Grupo_183392" data-name="Grupo 183392" clip-path="url(#clip-path-5)">
              <path id="Trazado_214439" data-name="Trazado 214439" d="M103.068,38.219,81.877,44.408A21.227,21.227,0,0,0,78.855,48.6l29-8.47a21.56,21.56,0,0,0-4.788-1.908" transform="translate(-76.203 -38.219)" fill="#ffce3b"/>
              <path id="Trazado_214440" data-name="Trazado 214440" d="M115.285,41.157,77.91,52.078a21.494,21.494,0,0,0,1.505,11.507l40.8-11.926a21.417,21.417,0,0,0-4.929-10.5" transform="translate(-77.689 -34.477)" fill="#ffce3b"/>
            </g>
          </g>
        </g>
        <path id="Trazado_214441" data-name="Trazado 214441" d="M78.913,44.41A29.078,29.078,0,0,0,90.445,83.889l27.946-51.011A29.074,29.074,0,0,0,78.913,44.41" transform="translate(95.949 37.311)" fill="#eda73f"/>
        <path id="Trazado_214442" data-name="Trazado 214442" d="M121.46,70.349a29.427,29.427,0,0,1-5.355,7.008,29.048,29.048,0,0,1-34.128,4.525l27.948-51.011c.575.311,1.139.646,1.685,1a29.076,29.076,0,0,1,9.85,38.483" transform="translate(104.415 39.321)" fill="#eda73f"/>
        <path id="Trazado_214443" data-name="Trazado 214443" d="M116.22,31.683a29.085,29.085,0,1,0,11.532,39.476A29.083,29.083,0,0,0,116.22,31.683" transform="translate(93.175 35.792)" fill="#ffce3b"/>
        <path id="Trazado_214444" data-name="Trazado 214444" d="M78.286,42.828a24.179,24.179,0,0,0,9.593,32.832l23.24-42.427a24.184,24.184,0,0,0-32.832,9.6" transform="translate(95.917 38.534)" fill="#eda73f"/>
        <path id="Trazado_214445" data-name="Trazado 214445" d="M104.076,31.564,80.834,73.991a24.188,24.188,0,1,0,23.242-42.427" transform="translate(102.959 40.203)" fill="#f59407"/>
        <path id="Trazado_214446" data-name="Trazado 214446" d="M87.575,70.391a20.525,20.525,0,1,1,27.862-8.144,20.549,20.549,0,0,1-27.862,8.144m19.29-35.2a19.613,19.613,0,1,0,7.778,26.623,19.642,19.642,0,0,0-7.778-26.623" transform="translate(97.975 40.591)" fill="#ffce3b"/>
        <path id="Trazado_214447" data-name="Trazado 214447" d="M88.582,39.507C91.1,35,94.689,35.089,98.222,36.9l1.5-2.717,3,1.669-1.51,2.74a24.16,24.16,0,0,1,4.95,3.979L103.941,46.6c-1.817-1.226-5.129-3.242-6.687-4.109-1.819-1.032-2.8-1.387-3.763.357l-.432.775c-.762,1.371-.5,2.228,1.187,3.156l2.526,1.405c4.684,2.594,3.545,6.964,2.133,9.5l-.73,1.321C95.2,64.372,91.337,63.827,88.2,62.09l-1.435,2.585-3.008-1.669,1.455-2.622a19.043,19.043,0,0,1-5.016-4.038l2.221-4.006c1.21.8,4.2,2.728,7.135,4.359,1.335.746,2.578,1.016,3.336-.346l.509-.909c.625-1.139.655-2.019-.9-2.874l-2.444-1.348c-5.652-3.14-3.524-8.013-2.56-9.747Z" transform="translate(102.144 43.538)" fill="#ffce3b"/>
        <g id="Grupo_183397" data-name="Grupo 183397" transform="translate(166.329 64.859)" opacity="0.3" style="mix-blend-mode: screen;isolation: isolate">
          <g id="Grupo_183396" data-name="Grupo 183396">
            <g id="Grupo_183395" data-name="Grupo 183395" clip-path="url(#clip-path-6)">
              <path id="Trazado_214448" data-name="Trazado 214448" d="M107.628,28.526l-28.8,8.41a28.848,28.848,0,0,0-4.09,5.693l39.4-11.519a29.256,29.256,0,0,0-6.51-2.585" transform="translate(-71.131 -28.526)" fill="#ffce3b"/>
              <path id="Trazado_214449" data-name="Trazado 214449" d="M124.231,32.517,73.457,47.351a29.143,29.143,0,0,0,2.037,15.634l55.431-16.2a29.08,29.08,0,0,0-6.694-14.268" transform="translate(-73.153 -23.442)" fill="#ffce3b"/>
            </g>
          </g>
        </g>
        <path id="Trazado_214450" data-name="Trazado 214450" d="M26.054,115.106a21.411,21.411,0,0,0,29.231,7.9L33.958,85.884a21.405,21.405,0,0,0-7.9,29.222" transform="translate(29.56 109.391)" fill="#eda73f"/>
        <path id="Trazado_214451" data-name="Trazado 214451" d="M57.167,95.383a21.756,21.756,0,0,1,2.342,6.053,21.428,21.428,0,0,1-6.933,20.82,20.984,20.984,0,0,1-3.313,2.349L27.936,87.48c.425-.239.844-.468,1.273-.68a21.417,21.417,0,0,1,27.958,8.583" transform="translate(35.582 107.796)" fill="#eda73f"/>
        <path id="Trazado_214452" data-name="Trazado 214452" d="M32.369,88.391a21.407,21.407,0,1,0,29.233,7.9,21.405,21.405,0,0,0-29.233-7.9" transform="translate(27.543 108.954)" fill="#ffce3b"/>
        <path id="Trazado_214453" data-name="Trazado 214453" d="M25.578,112.478a17.8,17.8,0,0,0,24.3,6.571L32.149,88.165a17.811,17.811,0,0,0-6.571,24.313" transform="translate(29.562 112.297)" fill="#eda73f"/>
        <path id="Trazado_214454" data-name="Trazado 214454" d="M27.141,89.491l17.73,30.884a17.806,17.806,0,1,0-17.73-30.884" transform="translate(34.57 110.971)" fill="#f59407"/>
        <path id="Trazado_214455" data-name="Trazado 214455" d="M47.024,116.522A15.11,15.11,0,1,1,52.606,95.9a15.117,15.117,0,0,1-5.582,20.623M32.313,90.9a14.434,14.434,0,1,0,19.706,5.327A14.443,14.443,0,0,0,32.313,90.9" transform="translate(31.076 112.486)" fill="#ffce3b"/>
        <path id="Trazado_214456" data-name="Trazado 214456" d="M27.981,100.344c-1.871-3.313-.432-5.541,2.053-7.062L28.9,91.3l2.205-1.248,1.139,2a18.223,18.223,0,0,1,4.4-1.585l1.676,2.951c-1.467.666-4,1.974-5.15,2.619-1.353.748-1.946,1.23-1.219,2.5l.323.575c.573,1,1.205,1.16,2.431.462l1.858-1.05c3.429-1.946,5.739.45,6.787,2.312l.555.964c2.226,3.931.4,6.144-1.894,7.449l1.073,1.9-2.208,1.246L39.8,110.471a14.117,14.117,0,0,1-4.463,1.594l-1.658-2.929c.962-.462,3.322-1.587,5.473-2.808.98-.553,1.626-1.232,1.064-2.233l-.377-.673c-.477-.816-1.016-1.178-2.146-.528L35.9,103.914c-4.134,2.342-6.38-.862-7.1-2.135Z" transform="translate(34.553 114.699)" fill="#ffce3b"/>
        <g id="Grupo_183400" data-name="Grupo 183400" transform="translate(49.987 194.495)" opacity="0.3" style="mix-blend-mode: screen;isolation: isolate">
          <g id="Grupo_183399" data-name="Grupo 183399">
            <g id="Grupo_183398" data-name="Grupo 183398" clip-path="url(#clip-path-7)">
              <path id="Trazado_214457" data-name="Trazado 214457" d="M27.749,89.9l-5.764,21.311a21.548,21.548,0,0,0,2.005,4.754L31.871,86.8a21.347,21.347,0,0,0-4.122,3.1" transform="translate(-21.985 -83.933)" fill="#ffce3b"/>
              <path id="Trazado_214458" data-name="Trazado 214458" d="M35.177,85.832l-10.159,37.58a21.476,21.476,0,0,0,10.6,4.72L46.709,87.1a21.4,21.4,0,0,0-11.532-1.264" transform="translate(-18.122 -85.541)" fill="#ffce3b"/>
            </g>
          </g>
        </g>
        <path id="Rectángulo_58090" data-name="Rectángulo 58090" d="M2.244,0H48.076a2.243,2.243,0,0,1,2.243,2.243V58.951a2.244,2.244,0,0,1-2.244,2.244H2.242A2.242,2.242,0,0,1,0,58.953V2.244A2.244,2.244,0,0,1,2.244,0Z" transform="translate(152.466 153.676)" fill="#1b1f19"/>
        <path id="Rectángulo_58091" data-name="Rectángulo 58091" d="M2.244,0H48.07a2.243,2.243,0,0,1,2.243,2.243V58.951a2.244,2.244,0,0,1-2.244,2.244H2.242A2.242,2.242,0,0,1,0,58.953V2.244A2.244,2.244,0,0,1,2.244,0Z" transform="translate(149.064 153.676)" fill="#153152"/>
        <path id="Trazado_214459" data-name="Trazado 214459" d="M112.719,61.163,110.69,59.01l-2.767,2.933-2.765-2.933-2.769,2.935-2.765-2.931-2.767,2.931L94.09,59.014l-2.763,2.931-2.169-2.3-.593-.634L85.8,61.945l-2.767-2.931-2.765,2.931L77.5,59.014l-2.76,2.931-2.767-2.931L69.2,61.949l-2.3-2.437.009,51.374,2.3,2.437,2.767-2.933,2.763,2.933,2.767-2.933,2.765,2.933,2.763-2.933,2.772,2.933,2.763-2.933.6.63,2.169,2.3,2.765-2.929,2.769,2.929,2.76-2.935,2.769,2.935,2.765-2.935,2.769,2.933,2.765-2.933,2.03,2.158Z" transform="translate(85.21 75.161)" fill="#e1e1e1"/>
        <path id="Trazado_214460" data-name="Trazado 214460" d="M112.011,61.163l-2.028-2.153-2.772,2.933-2.753-2.933-2.774,2.935-2.769-2.931-2.767,2.931-2.76-2.931-2.769,2.931-2.167-2.3-.593-.634L85.09,61.945l-2.765-2.931-2.767,2.931-2.767-2.931-2.765,2.931-2.765-2.931L68.5,61.949l-2.3-2.437.007,51.374,2.3,2.437,2.763-2.933,2.767,2.933,2.765-2.933,2.767,2.933,2.763-2.933,2.774,2.933,2.765-2.933.593.63,2.167,2.3,2.767-2.929,2.765,2.929,2.765-2.935,2.767,2.935,2.769-2.935,2.76,2.933,2.767-2.933,2.037,2.158Z" transform="translate(84.314 75.161)" fill="#fefefe"/>
        <rect id="Rectángulo_58092" data-name="Rectángulo 58092" width="9.581" height="4.404" transform="translate(183.513 140.481)" fill="#5794d9"/>
        <rect id="Rectángulo_58093" data-name="Rectángulo 58093" width="9.577" height="4.397" transform="translate(183.209 149.12)" fill="#5794d9"/>
        <path id="Trazado_214461" data-name="Trazado 214461" d="M72.629,70.82a5.865,5.865,0,0,0-5.864,5.864v62.484a5.859,5.859,0,0,0,5.864,5.857H95.678V70.82Z" transform="translate(85.039 90.204)" fill="#153152"/>
        <path id="Trazado_214462" data-name="Trazado 214462" d="M102.541,70.82H79.481v74.2h23.06a5.858,5.858,0,0,0,5.864-5.857V76.684a5.863,5.863,0,0,0-5.864-5.864" transform="translate(101.236 90.204)" fill="#153152"/>
        <rect id="Rectángulo_58094" data-name="Rectángulo 58094" width="20.071" height="4.401" transform="translate(152.386 140.485)" fill="#5794d9"/>
        <rect id="Rectángulo_58095" data-name="Rectángulo 58095" width="7.556" height="4.404" transform="translate(172.457 140.482)" fill="#5794d9"/>
        <rect id="Rectángulo_58096" data-name="Rectángulo 58096" width="7.556" height="4.397" transform="translate(172.459 149.121)" fill="#5794d9"/>
        <rect id="Rectángulo_58097" data-name="Rectángulo 58097" width="20.072" height="4.397" transform="translate(152.386 149.121)" fill="#5794d9"/>
        <rect id="Rectángulo_58098" data-name="Rectángulo 58098" width="7.556" height="4.402" transform="translate(172.459 157.764)" fill="#5794d9"/>
        <rect id="Rectángulo_58099" data-name="Rectángulo 58099" width="20.072" height="4.401" transform="translate(152.386 157.762)" fill="#5794d9"/>
        <rect id="Rectángulo_58100" data-name="Rectángulo 58100" width="9.58" height="4.398" transform="translate(183.209 157.76)" fill="#5794d9"/>
        <rect id="Rectángulo_58101" data-name="Rectángulo 58101" width="19.536" height="7.221" transform="translate(173.253 174.372)" fill="#5794d9"/>
        <path id="Trazado_214463" data-name="Trazado 214463" d="M69.284,70.82a5.863,5.863,0,0,0-5.864,5.864v62.484a5.858,5.858,0,0,0,5.864,5.857H92.337V70.82Z" transform="translate(80.779 90.204)" fill="#193a61"/>
        <path id="Trazado_214464" data-name="Trazado 214464" d="M99.2,70.82H76.137v74.2H99.2a5.858,5.858,0,0,0,5.857-5.857V76.684A5.863,5.863,0,0,0,99.2,70.82" transform="translate(96.976 90.204)" fill="#193a61"/>
        <path id="Trazado_214465" data-name="Trazado 214465" d="M77.459,84.249H67.91a2.028,2.028,0,0,0-2.033,2.033v5.07a2.03,2.03,0,0,0,2.033,2.033h9.55a2.033,2.033,0,0,0,2.033-2.033v-5.07a2.03,2.03,0,0,0-2.033-2.033" transform="translate(83.908 107.309)" fill="#e1e1e1"/>
        <path id="Trazado_214466" data-name="Trazado 214466" d="M77.459,89.92H67.91a2.029,2.029,0,0,0-2.033,2.033V97.03a2.028,2.028,0,0,0,2.033,2.026h9.55a2.031,2.031,0,0,0,2.033-2.026V91.953a2.032,2.032,0,0,0-2.033-2.033" transform="translate(83.908 114.532)" fill="#e1e1e1"/>
        <path id="Trazado_214467" data-name="Trazado 214467" d="M77.435,95.461H67.883a2.029,2.029,0,0,0-2.028,2.028v5.075a2.029,2.029,0,0,0,2.028,2.028h9.552a2.03,2.03,0,0,0,2.033-2.028V97.489a2.03,2.03,0,0,0-2.033-2.028" transform="translate(83.88 121.59)" fill="#e1e1e1"/>
        <path id="Trazado_214468" data-name="Trazado 214468" d="M84.751,84.226H75.2a2.028,2.028,0,0,0-2.033,2.028v5.075A2.029,2.029,0,0,0,75.2,93.362h9.55a2.035,2.035,0,0,0,2.033-2.033V86.254a2.034,2.034,0,0,0-2.033-2.028" transform="translate(93.196 107.28)" fill="#e1e1e1"/>
        <path id="Trazado_214469" data-name="Trazado 214469" d="M84.751,89.9H75.2a2.031,2.031,0,0,0-2.033,2.028V97a2.03,2.03,0,0,0,2.033,2.03h9.55A2.036,2.036,0,0,0,86.784,97V91.925A2.037,2.037,0,0,0,84.751,89.9" transform="translate(93.196 114.503)" fill="#e1e1e1"/>
        <path id="Trazado_214470" data-name="Trazado 214470" d="M84.751,95.461H75.2a2.028,2.028,0,0,0-2.033,2.028v5.075a2.028,2.028,0,0,0,2.033,2.028h9.55a2.034,2.034,0,0,0,2.033-2.028V97.489a2.034,2.034,0,0,0-2.033-2.028" transform="translate(93.196 121.59)" fill="#e1e1e1"/>
        <path id="Trazado_214471" data-name="Trazado 214471" d="M92.066,84.226H82.514a2.028,2.028,0,0,0-2.033,2.028v5.075a2.029,2.029,0,0,0,2.033,2.033h9.552a2.031,2.031,0,0,0,2.03-2.033V86.254a2.031,2.031,0,0,0-2.03-2.028" transform="translate(102.509 107.28)" fill="#e1e1e1"/>
        <path id="Trazado_214472" data-name="Trazado 214472" d="M92.066,89.9H82.514a2.031,2.031,0,0,0-2.033,2.028V97a2.03,2.03,0,0,0,2.033,2.03h9.552A2.032,2.032,0,0,0,94.1,97V91.925a2.033,2.033,0,0,0-2.03-2.028" transform="translate(102.509 114.503)" fill="#e1e1e1"/>
        <path id="Trazado_214473" data-name="Trazado 214473" d="M92.066,95.461H82.514a2.028,2.028,0,0,0-2.033,2.028v5.075a2.028,2.028,0,0,0,2.033,2.028h9.552a2.03,2.03,0,0,0,2.03-2.028V97.489a2.03,2.03,0,0,0-2.03-2.028" transform="translate(102.509 121.59)" fill="#e1e1e1"/>
        <path id="Trazado_214474" data-name="Trazado 214474" d="M76.835,84.249H67.283a2.026,2.026,0,0,0-2.03,2.033v5.07a2.029,2.029,0,0,0,2.03,2.033h9.552a2.03,2.03,0,0,0,2.026-2.033v-5.07a2.028,2.028,0,0,0-2.026-2.033" transform="translate(83.113 107.309)" fill="#fff"/>
        <path id="Trazado_214475" data-name="Trazado 214475" d="M76.835,89.92H67.283a2.027,2.027,0,0,0-2.03,2.033V97.03a2.026,2.026,0,0,0,2.03,2.026h9.552a2.028,2.028,0,0,0,2.026-2.026V91.953a2.029,2.029,0,0,0-2.026-2.033" transform="translate(83.113 114.532)" fill="#fff"/>
        <path id="Trazado_214476" data-name="Trazado 214476" d="M76.815,95.461H67.261a2.031,2.031,0,0,0-2.033,2.028v5.075a2.031,2.031,0,0,0,2.033,2.028h9.554a2.027,2.027,0,0,0,2.028-2.028V97.489a2.027,2.027,0,0,0-2.028-2.028" transform="translate(83.082 121.59)" fill="#fff"/>
        <path id="Trazado_214477" data-name="Trazado 214477" d="M84.132,84.226H74.573a2.035,2.035,0,0,0-2.03,2.028v5.075a2.036,2.036,0,0,0,2.03,2.033h9.559a2.038,2.038,0,0,0,2.033-2.033V86.254a2.037,2.037,0,0,0-2.033-2.028" transform="translate(92.399 107.28)" fill="#fff"/>
        <path id="Trazado_214478" data-name="Trazado 214478" d="M84.132,89.9H74.573a2.038,2.038,0,0,0-2.03,2.028V97a2.037,2.037,0,0,0,2.03,2.03h9.559A2.039,2.039,0,0,0,86.165,97V91.925A2.04,2.04,0,0,0,84.132,89.9" transform="translate(92.399 114.503)" fill="#fff"/>
        <path id="Trazado_214479" data-name="Trazado 214479" d="M84.132,95.461H74.573a2.035,2.035,0,0,0-2.03,2.028v5.075a2.035,2.035,0,0,0,2.03,2.028h9.559a2.037,2.037,0,0,0,2.033-2.028V97.489a2.037,2.037,0,0,0-2.033-2.028" transform="translate(92.399 121.59)" fill="#fff"/>
        <path id="Trazado_214480" data-name="Trazado 214480" d="M91.44,84.226h-9.55a2.028,2.028,0,0,0-2.033,2.028v5.075a2.029,2.029,0,0,0,2.033,2.033h9.55a2.035,2.035,0,0,0,2.033-2.033V86.254a2.034,2.034,0,0,0-2.033-2.028" transform="translate(101.716 107.28)" fill="#fff"/>
        <path id="Trazado_214481" data-name="Trazado 214481" d="M91.44,89.9h-9.55a2.031,2.031,0,0,0-2.033,2.028V97a2.03,2.03,0,0,0,2.033,2.03h9.55A2.036,2.036,0,0,0,93.473,97V91.925A2.037,2.037,0,0,0,91.44,89.9" transform="translate(101.716 114.503)" fill="#fff"/>
        <path id="Trazado_214482" data-name="Trazado 214482" d="M91.44,95.461h-9.55a2.028,2.028,0,0,0-2.033,2.028v5.075a2.028,2.028,0,0,0,2.033,2.028h9.55a2.034,2.034,0,0,0,2.033-2.028V97.489a2.034,2.034,0,0,0-2.033-2.028" transform="translate(101.716 121.59)" fill="#fff"/>
        <path id="Rectángulo_58102" data-name="Rectángulo 58102" d="M2.129,0H48.481a2.127,2.127,0,0,1,2.127,2.127V16.965a2.125,2.125,0,0,1-2.125,2.125H2.127A2.127,2.127,0,0,1,0,16.963V2.129A2.129,2.129,0,0,1,2.129,0Z" transform="translate(148.006 166.514)" fill="#5794d9"/>
        <path id="Trazado_214483" data-name="Trazado 214483" d="M74.9,77.228l1.81-1.119h2.217V86.1H76.68V78.278l-1.783.387Z" transform="translate(95.398 96.941)" fill="#fff"/>
        <path id="Trazado_214484" data-name="Trazado 214484" d="M77.108,76.486a13.869,13.869,0,0,1,4.445-.384,2.345,2.345,0,0,1,2.522,2.46v.632a1.83,1.83,0,0,1-1.1,1.96c.789.293,1.1,1.03,1.1,2.071v.5a2.316,2.316,0,0,1-2.617,2.494,13.5,13.5,0,0,1-4.263-.384l.009-1.664h3.256c.973,0,1.366-.041,1.366-.807v-.293c0-.737-.457-.841-1.291-.884l-2.5-.091V80.272l2.5-.136c.941-.041,1.314-.161,1.314-.841v-.323c0-.741-.6-.83-1.314-.83H77.108Z" transform="translate(98.213 96.918)" fill="#fff"/>
        <path id="Trazado_214485" data-name="Trazado 214485" d="M80.635,77.919c0-1.16.491-1.81,1.867-1.81h1.38c1.332,0,1.828.65,1.828,1.81v1.61c0,1.16-.475,1.812-1.855,1.812h-1.38c-1.335,0-1.839-.653-1.839-1.812Zm2.094,1.914H83.6c.548,0,.612-.232.612-.614v-1c0-.5-.168-.612-.582-.612h-.869c-.423,0-.616.114-.616.612v1c0,.391.093.614.584.614m6.405-3.724h1.512L84.58,86.1h-1.6Zm-1.173,6.532c0-1.16.471-1.808,1.858-1.808H91.2c1.339,0,1.833.648,1.833,1.808V84.26c0,1.153-.477,1.8-1.853,1.8H89.787c-1.337,0-1.826-.648-1.826-1.8Zm2.094,1.917h.85c.55,0,.637-.23.637-.612v-1c0-.5-.189-.607-.6-.607H90.08c-.421,0-.616.1-.616.607v1c0,.4.091.612.591.612" transform="translate(102.706 96.941)" fill="#fff"/>
        <path id="Trazado_214486" data-name="Trazado 214486" d="M114.981,75.536a4.848,4.848,0,0,0-3.354-1.369H70.69A4.84,4.84,0,0,0,65.856,79v9.425a4.859,4.859,0,0,0,.707,2.537,4.871,4.871,0,0,1-1.469-3.467V78.076a4.849,4.849,0,0,1,4.836-4.848h40.936a4.821,4.821,0,0,1,4.115,2.308" transform="translate(82.911 93.271)" fill="#447a52"/>
        <g id="Grupo_183403" data-name="Grupo 183403" transform="translate(148.091 166.513)" opacity="0.5" style="mix-blend-mode: screen;isolation: isolate">
          <g id="Grupo_183402" data-name="Grupo 183402">
            <g id="Grupo_183401" data-name="Grupo 183401" clip-path="url(#clip-path-8)">
              <path id="Trazado_214487" data-name="Trazado 214487" d="M78.6,73.234,65.132,88.3a4.791,4.791,0,0,0,1.76,2.954L83.3,73.234Z" transform="translate(-65.132 -73.234)" fill="#91cce1"/>
              <path id="Trazado_214488" data-name="Trazado 214488" d="M85.349,73.234,67.876,92.324h19.1l17.487-19.09Z" transform="translate(-61.637 -73.234)" fill="#91cce1"/>
            </g>
          </g>
        </g>
        <path id="Trazado_214489" data-name="Trazado 214489" d="M116.909,69.692l-1.055.787-4.391,3.267-1.658,1.237c-.318.236-.887.007-1.244-.5l-.387-.557-.841-1.194-1.683-2.4-.437-.63-.184-.266h0l-4.809-6.871-.4-.578-3.749-5.359-.612-.869a.81.81,0,0,1,.011-1.078l1.2-.894,4.4-3.274.507-.366a.783.783,0,0,1,1.028.291l.982,1.241,1.773,2.249,2.4,3.024,3.718,4.686,1.482,1.9.684.855,1.817,2.3.9,1.148.427.525c.387.493.446,1.094.13,1.335" transform="translate(121.328 63.739)" fill="#ebebeb"/>
        <path id="Trazado_214490" data-name="Trazado 214490" d="M114.533,64.666l-1.751,1.305-4.4,3.279L106.036,71c-.289.216-.855-.03-1.239-.564l-.493-.657-3.383-4.538-.157-.214c-.391-.525-.471-1.137-.182-1.353l.191-.141,2.174-1.612,4.4-3.283,1.544-1.146.2-.148c.289-.221.85.034,1.239.564l.161.216,1.455,1.953,2.412,3.24c.391.53.477,1.139.18,1.353" transform="translate(127.89 72.934)" fill="#dbdbdb"/>
        <path id="Trazado_214491" data-name="Trazado 214491" d="M144.884,102.016l-3.035,2.269-4.4,3.3-3.765,2.8c-.5.368-1.6-.332-2.5-1.573l-27.871-38.6-2.162-3.133c-.637-.9-.832-1.9-.407-2.233l.036-.03.7-.5,2.2-1.633.1-.07,4.3-3.2.1-.064,1.471-1.135.7-.5.03-.027c.432-.3,1.335.134,2,1,.03,0,.03.039.03.039l31.739,40.47c.937,1.164,1.266,2.469.734,2.833" transform="translate(128.028 73.343)" fill="#153152"/>
        <path id="Trazado_214492" data-name="Trazado 214492" d="M111.2,60.993l-1.476,1.1-4.388,3.272-2.115,1.573-.437-.632-.184-.266h0L97.79,59.168l-.4-.578-.223-.323,1.26-.937.614-.459,4.4-3.27,1.2-.9.682.857,3.718,4.686,1.482,1.892Z" transform="translate(123.757 67.129)" fill="#dbdbdb"/>
        <path id="Trazado_214493" data-name="Trazado 214493" d="M112.084,59.452l-1.071.8-1.442,1.069-4.4,3.274-.744.559-1.337,1-1.064.784c-.339.261-.921.077-1.28-.407l-3.695-4.966a.983.983,0,0,1-.034-1.344l1.264-.941,1.9-1.414,4.4-3.276,1.23-.916v0l1.257-.935a.984.984,0,0,1,1.287.412l2.385,3.2,1.307,1.762a.986.986,0,0,1,.034,1.346" transform="translate(123.261 67.019)" fill="#153152"/>
        <path id="Trazado_214494" data-name="Trazado 214494" d="M140.02,103.3l-4.4,3.265L101.951,61.621l4.3-3.2.1-.064Z" transform="translate(129.856 74.331)" fill="#193a61"/>
        <path id="Trazado_214495" data-name="Trazado 214495" d="M145.768,79.1c-.384.7-.782,1.4-1.205,2.076-.143.23-.3.457-.439.678-.173.261-.343.518-.523.773-.234.337-.466.675-.7.994-.175.234-.355.468-.532.7-.134.173-.266.332-.389.5a2.762,2.762,0,0,0-.23.282.147.147,0,0,1-.025.02,2.51,2.51,0,0,1-.164.2c-.111.134-.223.275-.337.4-.491.582-1,1.148-1.523,1.694-.084.086-.184.184-.268.264-.186.2-.364.384-.553.564-.537.534-1.1,1.053-1.673,1.551l-.284.248c-.2.171-.4.332-.6.507-.593.482-1.2.944-1.8,1.394-.048.032-.086.059-.121.086-.064.041-.134.093-.2.143-.136.1-.282.2-.432.3-.073.045-.141.107-.216.152-.173.116-.334.23-.509.346-.473.309-.953.607-1.437.9-.118.061-.23.139-.341.209-.082.041-.164.086-.252.141-.148.08-.3.166-.448.255-.693.384-1.394.746-2.108,1.082a3.011,3.011,0,0,1-.366.177c-.252.114-.5.236-.753.343-.746.334-1.5.632-2.274.914-.132.055-.264.1-.4.155-.171.055-.346.116-.525.175-.1.036-.191.064-.291.1-.8.268-1.623.509-2.451.721-.146.045-.291.068-.432.1-.161.045-.307.084-.468.118-.036.007-.064.016-.1.02v0c-.1.034-.211.052-.314.08q-1.183.259-2.385.443a.8.8,0,0,1-.155.023c-.53.08-1.064.148-1.6.214-1.06.109-2.124.182-3.2.209q-1.095.02-2.208,0c-.016,0-.036,0-.05,0-.125,0-.241-.007-.362-.014-.459-.02-.907-.048-1.36-.08-.4-.034-.809-.064-1.207-.109-.168-.02-.327-.034-.489-.059-.507-.061-1-.13-1.5-.209-.459-.068-.919-.157-1.369-.243l-.457-.093c-.2-.05-.418-.093-.621-.136-.348-.082-.687-.161-1.019-.255a.057.057,0,0,1-.032,0,.711.711,0,0,1-.123-.039c-1.13-.282-2.233-.632-3.32-1.012-.152-.066-.307-.118-.462-.173-.2-.08-.4-.155-.6-.236-.155-.052-.309-.116-.452-.171-.093-.052-.182-.08-.28-.125-.273-.107-.548-.223-.823-.346l-.712-.334-.043-.016c-.261-.121-.523-.248-.775-.38-.869-.432-1.714-.884-2.542-1.389-.143-.082-.286-.168-.432-.261s-.3-.184-.446-.277c-.53-.334-1.041-.68-1.553-1.041-.15-.1-.3-.209-.446-.311-.027-.02-.059-.039-.089-.061-.823-.607-1.63-1.244-2.41-1.91-.089-.075-.175-.148-.264-.225-.1-.093-.2-.175-.3-.261h0a1.624,1.624,0,0,1-.132-.123c-.455-.4-.9-.828-1.33-1.257a36.643,36.643,0,0,1-3.079-3.429c-.214-.255-.416-.518-.616-.778-.064-.089-.125-.166-.189-.252-.1-.146-.211-.286-.312-.434-.555-.764-1.089-1.557-1.582-2.365a.167.167,0,0,1-.032-.041c-.055-.1-.116-.189-.171-.291-.257-.418-.5-.848-.734-1.28-.309-.555-.6-1.114-.887-1.687-.364-.753-.709-1.521-1.025-2.3q-.416-1-.773-2.042c-.027-.082-.055-.159-.086-.236-.055-.173-.109-.341-.168-.516-.1-.311-.191-.625-.286-.941,0-.014-.014-.023-.014-.034a.152.152,0,0,1-.011-.043v-.011c-.041-.127-.086-.271-.121-.418a37.925,37.925,0,0,1-1.071-5.139c-.014-.061-.016-.134-.027-.193-.1-.766-.175-1.535-.23-2.31-.089-1.205-.116-2.417-.089-3.647,0-.132,0-.277.007-.412.009-.191.016-.373.023-.566.007-.123.011-.236.018-.352,0-.132.009-.268.02-.4.023-.35.055-.718.089-1.075s.068-.7.114-1.057c0-.025.007-.055.009-.089s.014-.107.02-.155a38.489,38.489,0,0,1,2.658-9.957c.325-.78.684-1.551,1.062-2.312.259-.537.541-1.069.837-1.592.343-.634.718-1.246,1.1-1.853.073-.123.152-.243.227-.35.284-.459.6-.9.9-1.339.091-.114.166-.23.255-.343.33-.452.664-.909,1.023-1.353.209-.259.423-.525.639-.789.068-.08.134-.155.2-.227a38.685,38.685,0,0,1,24.768-13.367H107a39.033,39.033,0,0,1,25.652,5.846,39.074,39.074,0,0,1,8.238,7.117,38.616,38.616,0,0,1,4.32,6.03c.1.157.182.316.277.48s.166.311.255.464c.1.191.2.371.3.562.066.121.134.246.2.373a38.6,38.6,0,0,1,1.648,3.711c.061.157.118.316.18.475.118.3.225.618.327.932.052.155.107.311.155.473.332.98.607,1.98.848,3,.15.63.284,1.26.4,1.894.107.58.2,1.178.286,1.769a38.819,38.819,0,0,1,.359,5.266c0,.437-.007.864-.023,1.3s-.027.887-.061,1.326l0,.007a38.231,38.231,0,0,1-1.271,7.608.613.613,0,0,1-.027.1c-.03.107-.057.207-.089.316-.127.457-.264.909-.412,1.353-.209.653-.432,1.289-.673,1.919q-.235.6-.487,1.2a36.1,36.1,0,0,1-1.628,3.365m7.724-1.03q.8-1.91,1.419-3.9a45.353,45.353,0,0,0,1.207-4.763c.209-1.082.382-2.18.518-3.276.061-.5.116-1,.155-1.514.039-.391.066-.789.093-1.185.023-.441.045-.878.059-1.321.034-.955.03-1.9.007-2.844a45.463,45.463,0,0,0-1.683-10.939c-.091-.341-.193-.668-.293-1.01-.291-.962-.614-1.892-.978-2.817a44.522,44.522,0,0,0-3.1-6.51,45.241,45.241,0,0,0-81.653,7.085c-.02.061-.043.116-.061.18l-.007.007c-.343.955-.655,1.928-.944,2.929-.214.743-.412,1.478-.58,2.231a45.708,45.708,0,0,0-1.141,8.765,46.475,46.475,0,0,0,.207,6.053c.059.609.136,1.226.223,1.826.1.668.214,1.341.327,2.008.141.7.284,1.405.455,2.1a44.526,44.526,0,0,0,1.492,4.954c.223.625.459,1.241.714,1.853a44.381,44.381,0,0,0,2.108,4.368c.3.562.607,1.1.93,1.633a43.094,43.094,0,0,0,2.626,3.877c.093.127.189.255.289.377.275.364.555.721.848,1.069a43.094,43.094,0,0,0,3.092,3.417q.522.5,1.057,1.007v.011a2.939,2.939,0,0,1,.261.246,45.847,45.847,0,0,0,3.577,2.956c.5.377,1,.734,1.512,1.078.784.546,1.6,1.057,2.412,1.542.357.209.714.418,1.082.625.189.107.384.214.575.316.425.23.846.443,1.264.659.155.075.312.143.466.218.33.166.659.323,1,.475.146.061.286.13.437.191,1.044.462,2.119.882,3.2,1.271a.08.08,0,0,0,.039.009c.15.057.309.111.466.161s.316.111.475.161c.332.107.659.209.989.309a1.889,1.889,0,0,1,.182.061c1.071.316,2.158.6,3.261.828a5.142,5.142,0,0,0,.525.114,1.524,1.524,0,0,0,.234.048c.325.07.659.127.991.189.048.007.1.018.15.03.764.13,1.526.243,2.294.334.08.007.168.02.248.025.191.023.38.048.573.066.209.027.423.043.632.061.721.057,1.444.109,2.171.136q.181.01.375.014c.241.011.477.018.712.025.541,0,1.073,0,1.605,0a.553.553,0,0,1,.082,0q1.371-.034,2.7-.141c.357-.023.716-.057,1.071-.1.243-.02.484-.05.716-.077a44.311,44.311,0,0,0,6.323-1.219q2.016-.546,3.952-1.262c1.412-.523,2.788-1.121,4.134-1.771.389-.186.766-.382,1.15-.584.648-.332,1.287-.689,1.912-1.057a45.842,45.842,0,0,0,4.552-3.058c.352-.28.707-.546,1.048-.828a47.552,47.552,0,0,0,4.675-4.377,45.228,45.228,0,0,0,8.592-13.344" transform="translate(84.682 19.626)" fill="#fff"/>
        <path id="Trazado_214496" data-name="Trazado 214496" d="M144.947,74.259A39.793,39.793,0,0,0,148.3,59.437a39.5,39.5,0,0,0-2.528-15.388c-.077-.2-.155-.416-.236-.612a39.511,39.511,0,0,0-1.73-3.8c-.066-.127-.134-.25-.2-.371a40.327,40.327,0,0,0-13.388-14.652,40.063,40.063,0,0,0-28.13-6.014l0,0A39.985,39.985,0,0,0,76.424,34.078c-.491.664-.969,1.332-1.426,2.033-.2.3-.4.618-.6.928-.027.043-.052.082-.08.121-.127.209-.25.418-.375.63-.407.691-.791,1.387-1.16,2.108-.161.309-.323.63-.473.941l0,.007c-.068.159-.143.314-.211.464l0,.007a39.8,39.8,0,0,0-3.581,13.822c-.036.434-.057.862-.077,1.3,0,.134-.014.275-.018.423,0,.082,0,.161,0,.25-.027.8-.02,1.6.007,2.387l0,.007a39.613,39.613,0,0,0,.666,6.041c.127.739.284,1.473.466,2.194A40.054,40.054,0,0,0,81.5,87.795h0a39.793,39.793,0,0,0,9.111,6.235c.309.155.625.309.939.452a39.874,39.874,0,0,0,8.131,2.749,39.814,39.814,0,0,0,4.006.68c.98.118,1.976.2,2.974.234a3.909,3.909,0,0,0,.4.018c.789.027,1.578.027,2.365.007a39.947,39.947,0,0,0,32.18-17.815c.437-.662.859-1.342,1.266-2.033.114-.189.221-.384.334-.575.221-.4.439-.8.653-1.212.387-.743.748-1.505,1.085-2.276m-3.413-36.041h0c.1.18.209.362.307.537.409.723.8,1.469,1.169,2.224a37.571,37.571,0,0,1,1.774,28.078c-.25.741-.521,1.469-.812,2.194l-.007,0c-.073.209-.166.421-.252.625l0,0c-.132.309-.268.614-.4.909-.337.734-.693,1.448-1.08,2.158a37.5,37.5,0,0,1-10.359,12.083c-.639.487-1.287.946-1.955,1.389a37.289,37.289,0,0,1-21.846,6.18c-.325-.011-.659-.032-.98-.048a36.955,36.955,0,0,1-6.694-1,35.347,35.347,0,0,1-4.2-1.291c-.766-.289-1.521-.591-2.267-.93-.332-.148-.671-.309-1-.466-.953-.468-1.894-.969-2.8-1.519-.95-.562-1.892-1.18-2.785-1.826q-1.439-1.044-2.772-2.215c-.2-.184-.4-.352-.584-.527-.787-.725-1.535-1.48-2.262-2.262A37.306,37.306,0,0,1,79.2,79.441a37.756,37.756,0,0,1-3.57-5.868c-.284-.6-.559-1.205-.823-1.828-.4-.946-.764-1.919-1.082-2.9a36.421,36.421,0,0,1-1-3.631c-.264-1.232-.471-2.492-.618-3.763a36.746,36.746,0,0,1-.216-5.455c.02-.632.055-1.246.114-1.864.025-.364.055-.737.1-1.1.027-.232.055-.462.084-.687.1-.78.23-1.555.377-2.319a37.253,37.253,0,0,1,5.28-13.106c.359-.566.748-1.13,1.148-1.669a3.732,3.732,0,0,1,.241-.33c.432-.58.875-1.146,1.337-1.7.016-.02.03-.043.05-.066q.921-1.088,1.912-2.112a37.31,37.31,0,0,1,27.958-11.232c.327.011.646.025.959.032v0a37.409,37.409,0,0,1,30.086,18.374" transform="translate(87.12 23.072)" fill="#cfcfcf"/>
        <g id="Grupo_183406" data-name="Grupo 183406" transform="translate(160.505 44.552)" opacity="0.34">
          <g id="Grupo_183405" data-name="Grupo 183405">
            <g id="Grupo_183404" data-name="Grupo 183404" clip-path="url(#clip-path-9)">
              <path id="Trazado_214497" data-name="Trazado 214497" d="M72.05,65.066a34.675,34.675,0,0,1,1.01-22.853C76.263,34.5,80.738,27.57,88.232,23.6a34.327,34.327,0,0,1,16.489-4c1.405.02,3.979.871,5.236.512-6.557,1.9-13,4.8-17.835,9.629a28.7,28.7,0,0,0-7.758,23.615,27.194,27.194,0,0,0,4.329,11.841c2.628,3.9,6.992,5.878,9.625,9.6a13.055,13.055,0,0,1,2.885,8.276c-.557,8.993-10.98,5.2-15.5,1.876A37.66,37.66,0,0,1,72.05,65.066" transform="translate(-70.592 -19.594)" fill="#f1f1f1"/>
            </g>
          </g>
        </g>
      </g>
    </g>
  </g>
</svg>
