<svg xmlns="http://www.w3.org/2000/svg" xmlns:xlink="http://www.w3.org/1999/xlink" width="201.107" height="218.814" viewBox="0 0 201.107 218.814">
  <defs>
    <clipPath id="clip-path">
      <rect id="Rectángulo_56990" data-name="Rectángulo 56990" width="201.107" height="218.814" fill="#12263f"/>
    </clipPath>
  </defs>
  <g id="Grupo_183222" data-name="Grupo 183222" transform="translate(3099 6698.907)">
    <g id="Grupo_181880" data-name="Grupo 181880" transform="translate(-3099 -6698.907)">
      <g id="Grupo_181879" data-name="Grupo 181879" clip-path="url(#clip-path)">
        <path id="Trazado_210805" data-name="Trazado 210805" d="M185.813,201.454H15.294A15.311,15.311,0,0,1,0,186.161V81.649A15.313,15.313,0,0,1,15.294,66.354a3.589,3.589,0,0,1,0,7.177,8.127,8.127,0,0,0-8.117,8.117V186.161a8.126,8.126,0,0,0,8.117,8.116H185.813a8.126,8.126,0,0,0,8.117-8.116V81.649a8.127,8.127,0,0,0-8.117-8.117,3.589,3.589,0,0,1,0-7.177,15.312,15.312,0,0,1,15.294,15.295V186.161a15.311,15.311,0,0,1-15.294,15.293" transform="translate(0 -29.203)" fill="#12263f"/>
        <path id="Trazado_210806" data-name="Trazado 210806" d="M197.519,270.023H3.589a3.588,3.588,0,1,1,0-7.177h193.93a3.588,3.588,0,1,1,0,7.177" transform="translate(0 -115.68)" fill="#12263f"/>
        <path id="Trazado_210807" data-name="Trazado 210807" d="M179.36,321.324H155.183a3.588,3.588,0,0,1-3.589-3.588V298.42a3.588,3.588,0,0,1,3.589-3.588H179.36a3.588,3.588,0,0,1,3.588,3.588v19.316a3.588,3.588,0,0,1-3.588,3.588m-20.588-7.177h17V302.009h-17Z" transform="translate(-66.718 -129.758)" fill="#12263f"/>
        <path id="Trazado_210808" data-name="Trazado 210808" d="M183.6,363.755H119.806a3.589,3.589,0,0,1-1.484-6.856c13.67-6.208,12.95-23.624,12.941-23.8a3.59,3.59,0,0,1,3.584-3.77h33.709a3.589,3.589,0,0,1,3.584,3.761c-.032.718-.641,17.64,12.941,23.807a3.589,3.589,0,0,1-1.484,6.856m-53.044-7.177h42.3c-5.867-6.735-7.4-15.244-7.781-20.07H138.335c-.378,4.826-1.915,13.334-7.781,20.07" transform="translate(-51.148 -144.941)" fill="#12263f"/>
        <path id="Trazado_210809" data-name="Trazado 210809" d="M187.365,385.173H88.354a3.588,3.588,0,1,1,0-7.177h99.011a3.588,3.588,0,1,1,0,7.177" transform="translate(-37.306 -166.359)" fill="#12263f"/>
        <path id="Trazado_210810" data-name="Trazado 210810" d="M169.454,184.193H141a3.588,3.588,0,0,1-3.589-3.588V124.592a9.863,9.863,0,0,1-2.716.378h-.578a9.9,9.9,0,0,1-9.892-9.892V83.85a16.041,16.041,0,0,1,16.022-16.024h29.958A16.041,16.041,0,0,1,186.227,83.85v31.229a9.9,9.9,0,0,1-9.892,9.892h-.578a9.861,9.861,0,0,1-2.715-.378V180.6a3.588,3.588,0,0,1-3.588,3.588m-24.865-7.177h21.277V115.079a3.588,3.588,0,1,1,7.177,0,2.719,2.719,0,0,0,2.715,2.715h.578a2.718,2.718,0,0,0,2.715-2.715V83.85A8.856,8.856,0,0,0,170.205,75H140.247A8.855,8.855,0,0,0,131.4,83.85v31.229a2.718,2.718,0,0,0,2.715,2.715h.578a2.719,2.719,0,0,0,2.716-2.715,3.589,3.589,0,0,1,7.177,0Z" transform="translate(-54.672 -29.851)" fill="#12263f"/>
        <path id="Trazado_210811" data-name="Trazado 210811" d="M151.365,136.306a3.589,3.589,0,0,1-3.589-3.589V111.492a3.589,3.589,0,0,1,7.177,0v21.225a3.588,3.588,0,0,1-3.588,3.589" transform="translate(-65.037 -47.489)" fill="#12263f"/>
        <path id="Trazado_210812" data-name="Trazado 210812" d="M202.185,136.306a3.588,3.588,0,0,1-3.588-3.589V111.492a3.588,3.588,0,1,1,7.177,0v21.225a3.588,3.588,0,0,1-3.588,3.589" transform="translate(-87.404 -47.489)" fill="#12263f"/>
        <path id="Trazado_210813" data-name="Trazado 210813" d="M166.5,34.821c-9.186,0-16.658-7.811-16.658-17.41S157.315,0,166.5,0s16.658,7.811,16.658,17.411-7.472,17.41-16.658,17.41m0-27.644c-5.229,0-9.482,4.591-9.482,10.234s4.253,10.233,9.482,10.233,9.481-4.591,9.481-10.233S171.729,7.177,166.5,7.177" transform="translate(-65.947)" fill="#12263f"/>
        <path id="Trazado_210814" data-name="Trazado 210814" d="M176.774,232.108a3.589,3.589,0,0,1-3.589-3.588V180.285a3.589,3.589,0,0,1,7.177,0V228.52a3.588,3.588,0,0,1-3.588,3.588" transform="translate(-76.22 -77.766)" fill="#12263f"/>
        <path id="Trazado_210815" data-name="Trazado 210815" d="M262.781,226.758a23.3,23.3,0,0,1-20.032-35.174,3.589,3.589,0,0,1,6.171,3.667,16.112,16.112,0,1,0,29.972,8.219,3.588,3.588,0,1,1,7.177,0,23.314,23.314,0,0,1-23.286,23.288" transform="translate(-105.402 -83.545)" fill="#12263f"/>
        <path id="Trazado_210816" data-name="Trazado 210816" d="M284.792,184.767a3.574,3.574,0,0,1-2.378-.9,16.373,16.373,0,0,0-17.465-2.549,3.588,3.588,0,1,1-3.028-6.507,23.663,23.663,0,0,1,25.252,3.684,3.588,3.588,0,0,1-2.381,6.274" transform="translate(-114.36 -76.008)" fill="#12263f"/>
        <path id="Trazado_210817" data-name="Trazado 210817" d="M278.907,118.389a19.048,19.048,0,1,1,19.048-19.048,3.588,3.588,0,1,1-7.177,0,11.871,11.871,0,1,0-11.871,11.871,11.738,11.738,0,0,0,7.42-2.6,3.589,3.589,0,0,1,4.491,5.6,19.105,19.105,0,0,1-11.911,4.181" transform="translate(-114.366 -35.337)" fill="#12263f"/>
        <path id="Trazado_210818" data-name="Trazado 210818" d="M258.808,115.081h-5.9a3.588,3.588,0,0,1,0-7.177h5.9a3.588,3.588,0,0,1,0,7.177" transform="translate(-109.726 -47.489)" fill="#12263f"/>
        <path id="Trazado_210819" data-name="Trazado 210819" d="M282.95,163.556a3.528,3.528,0,0,1-.484-.033,3.589,3.589,0,0,1-3.077-4.036l2.834-21.033a3.588,3.588,0,0,1,7.112.959L286.5,160.446a3.589,3.589,0,0,1-3.552,3.11" transform="translate(-122.947 -59.566)" fill="#12263f"/>
        <path id="Trazado_210820" data-name="Trazado 210820" d="M235.446,214.959h-9.712a3.589,3.589,0,1,1,0-7.177h9.712a3.589,3.589,0,0,1,0,7.177" transform="translate(-97.768 -91.446)" fill="#12263f"/>
        <path id="Trazado_210821" data-name="Trazado 210821" d="M59.8,226.758A23.315,23.315,0,0,1,36.51,203.47a3.588,3.588,0,1,1,7.177,0,16.111,16.111,0,1,0,29.972-8.219,3.589,3.589,0,0,1,6.171-3.667A23.294,23.294,0,0,1,59.8,226.758" transform="translate(-16.068 -83.545)" fill="#12263f"/>
        <path id="Trazado_210822" data-name="Trazado 210822" d="M51.967,184.765a3.589,3.589,0,0,1-2.382-6.274,23.655,23.655,0,0,1,25.252-3.684,3.588,3.588,0,0,1-3.027,6.507,16.377,16.377,0,0,0-17.465,2.549,3.575,3.575,0,0,1-2.377.9" transform="translate(-21.291 -76.006)" fill="#12263f"/>
        <path id="Trazado_210823" data-name="Trazado 210823" d="M50.335,118.389a19.114,19.114,0,0,1-11.909-4.18,3.589,3.589,0,0,1,4.489-5.6,11.74,11.74,0,0,0,7.421,2.6A11.871,11.871,0,1,0,38.464,99.341a3.588,3.588,0,0,1-7.177,0,19.048,19.048,0,1,1,19.048,19.048" transform="translate(-13.77 -35.337)" fill="#12263f"/>
        <path id="Trazado_210824" data-name="Trazado 210824" d="M96,115.081H90.1a3.588,3.588,0,1,1,0-7.177H96a3.588,3.588,0,1,1,0,7.177" transform="translate(-38.074 -47.489)" fill="#12263f"/>
        <path id="Trazado_210825" data-name="Trazado 210825" d="M68.369,163.556a3.589,3.589,0,0,1-3.552-3.11l-2.834-21.032a3.588,3.588,0,1,1,7.112-.959l2.835,21.033a3.589,3.589,0,0,1-3.077,4.036,3.527,3.527,0,0,1-.483.033" transform="translate(-27.265 -59.566)" fill="#12263f"/>
        <path id="Trazado_210826" data-name="Trazado 210826" d="M120.18,214.959h-9.711a3.589,3.589,0,0,1,0-7.177h9.711a3.589,3.589,0,0,1,0,7.177" transform="translate(-47.039 -91.446)" fill="#12263f"/>
      </g>
    </g>
  </g>
</svg>
