<svg xmlns="http://www.w3.org/2000/svg" xmlns:xlink="http://www.w3.org/1999/xlink" width="354" height="457" viewBox="0 0 354 457">
  <defs>
    <clipPath id="clip-path">
      <rect id="Rectángulo_57447" data-name="Rectángulo 57447" width="69.333" height="77.612" fill="none" stroke="#00a3be" stroke-width="5"/>
    </clipPath>
  </defs>
  <g id="Grupo_183475" data-name="Grupo 183475" transform="translate(-623 -570.75)">
    <path id="Trazado_214687" data-name="Trazado 214687" d="M10,0H344a10,10,0,0,1,10,10V447a10,10,0,0,1-10,10H10A10,10,0,0,1,0,447V10A10,10,0,0,1,10,0Z" transform="translate(623 570.75)" fill="#dee4f0"/>
    <path id="Trazado_214688" data-name="Trazado 214688" d="M71.262,15.758H64.793v4.078h7.641V23H60.68V5.938H72.457V9.113H64.793v3.6h6.469Zm9.3,3.68a.912.912,0,0,0-.527-.809,8.021,8.021,0,0,0-2-.633,9.138,9.138,0,0,1-2.437-.861,4.083,4.083,0,0,1-1.465-1.295,3.092,3.092,0,0,1-.5-1.746,3.5,3.5,0,0,1,1.441-2.877,5.938,5.938,0,0,1,3.773-1.131,6.579,6.579,0,0,1,4.031,1.137A3.555,3.555,0,0,1,84.4,14.211H80.438q0-1.523-1.605-1.523a1.591,1.591,0,0,0-1.043.346,1.07,1.07,0,0,0-.422.861.982.982,0,0,0,.516.855,4.872,4.872,0,0,0,1.646.539,14.228,14.228,0,0,1,1.986.5q2.859.984,2.859,3.527a3.321,3.321,0,0,1-1.541,2.824,6.758,6.758,0,0,1-3.99,1.09,6.9,6.9,0,0,1-2.906-.586,4.86,4.86,0,0,1-1.992-1.594,3.609,3.609,0,0,1-.715-2.121h3.691a1.526,1.526,0,0,0,.586,1.283,2.41,2.41,0,0,0,1.441.4,1.9,1.9,0,0,0,1.213-.328A1.05,1.05,0,0,0,80.566,19.438ZM90.82,7.168V10.32h2.086v2.742H90.82v5.8a1.481,1.481,0,0,0,.258,1,1.383,1.383,0,0,0,1.02.281,5.793,5.793,0,0,0,.984-.07v2.824a7.288,7.288,0,0,1-2.227.34,4.137,4.137,0,0,1-3.012-.961,3.939,3.939,0,0,1-.973-2.918V13.063H85.254V10.32h1.617V7.168ZM101.6,23a4.459,4.459,0,0,1-.375-1.137,3.672,3.672,0,0,1-3.047,1.371,4.5,4.5,0,0,1-3.047-1.084,3.45,3.45,0,0,1-1.254-2.725A3.546,3.546,0,0,1,95.4,16.309a7.761,7.761,0,0,1,4.43-1.055h1.219v-.671q0-1.755-1.512-1.755a1.236,1.236,0,0,0-1.406,1.39H94.184a3.54,3.54,0,0,1,1.564-2.985,6.575,6.575,0,0,1,3.99-1.147,5.764,5.764,0,0,1,3.832,1.184,4.115,4.115,0,0,1,1.441,3.246v5.613a5.748,5.748,0,0,0,.539,2.672V23Zm-2.473-2.578a2.2,2.2,0,0,0,1.225-.316,1.983,1.983,0,0,0,.7-.715V17.363H99.9q-2.062,0-2.062,1.852a1.131,1.131,0,0,0,.363.873A1.315,1.315,0,0,0,99.129,20.422Zm7.57-3.855A7.746,7.746,0,0,1,108,11.82a4.282,4.282,0,0,1,3.633-1.734,3.641,3.641,0,0,1,2.859,1.336V5h3.961V23H114.9l-.2-1.359a3.739,3.739,0,0,1-3.094,1.594,4.274,4.274,0,0,1-3.586-1.734A7.991,7.991,0,0,1,106.7,16.566Zm3.949.246q0,3.375,1.969,3.375a1.944,1.944,0,0,0,1.875-1.1V14.258a1.892,1.892,0,0,0-1.852-1.125q-1.828,0-1.98,2.953Zm9.551-.27a7.484,7.484,0,0,1,.738-3.381,5.28,5.28,0,0,1,2.121-2.279,6.388,6.388,0,0,1,3.246-.8,5.83,5.83,0,0,1,4.488,1.764,6.768,6.768,0,0,1,1.641,4.8v.141a6.566,6.566,0,0,1-1.646,4.705,5.846,5.846,0,0,1-4.459,1.74,5.912,5.912,0,0,1-4.348-1.623,6.348,6.348,0,0,1-1.77-4.4Zm3.949.246a4.718,4.718,0,0,0,.551,2.578,1.835,1.835,0,0,0,1.629.82q2.109,0,2.156-3.246v-.4q0-3.41-2.18-3.41-1.98,0-2.145,2.941Zm15.5-.223a7.746,7.746,0,0,1,1.3-4.746,4.282,4.282,0,0,1,3.633-1.734,3.641,3.641,0,0,1,2.859,1.336V5h3.961V23h-3.551l-.2-1.359a3.739,3.739,0,0,1-3.094,1.594,4.274,4.274,0,0,1-3.586-1.734A7.991,7.991,0,0,1,139.652,16.566Zm3.949.246q0,3.375,1.969,3.375a1.944,1.944,0,0,0,1.875-1.1V14.258a1.892,1.892,0,0,0-1.852-1.125q-1.828,0-1.98,2.953Zm16.184,6.422a6.518,6.518,0,0,1-4.723-1.74,6.009,6.009,0,0,1-1.8-4.529v-.328a7.787,7.787,0,0,1,.721-3.434,5.274,5.274,0,0,1,2.1-2.3,6.35,6.35,0,0,1,3.281-.814,5.489,5.489,0,0,1,4.219,1.658,6.516,6.516,0,0,1,1.547,4.623V17.9h-7.852a2.846,2.846,0,0,0,.926,1.676,2.755,2.755,0,0,0,1.852.609,3.549,3.549,0,0,0,2.93-1.312l1.8,2.133a5.045,5.045,0,0,1-2.092,1.623A7.069,7.069,0,0,1,159.785,23.234Zm-.445-10.1q-1.734,0-2.062,2.3h3.984v-.3a1.956,1.956,0,0,0-.48-1.471A1.912,1.912,0,0,0,159.34,13.133ZM63.973,43.895l-1.3-.094a2.336,2.336,0,0,0-2.391,1.172V53H56.332V40.32h3.7l.129,1.629a3.058,3.058,0,0,1,2.777-1.863,3.851,3.851,0,0,1,1.1.141Zm7.336,9.34a6.518,6.518,0,0,1-4.723-1.74,6.009,6.009,0,0,1-1.8-4.529v-.328A7.787,7.787,0,0,1,65.5,43.2a5.274,5.274,0,0,1,2.1-2.3,6.35,6.35,0,0,1,3.281-.814,5.489,5.489,0,0,1,4.219,1.658,6.516,6.516,0,0,1,1.547,4.623V47.9H68.8a2.846,2.846,0,0,0,.926,1.676,2.755,2.755,0,0,0,1.852.609,3.549,3.549,0,0,0,2.93-1.312l1.8,2.133a5.045,5.045,0,0,1-2.092,1.623A7.069,7.069,0,0,1,71.309,53.234Zm-.445-10.1q-1.734,0-2.062,2.3h3.984v-.3a1.956,1.956,0,0,0-.48-1.471A1.912,1.912,0,0,0,70.863,43.133Zm14.016,6.3a.912.912,0,0,0-.527-.809,8.021,8.021,0,0,0-2-.633,9.138,9.138,0,0,1-2.437-.861,4.083,4.083,0,0,1-1.465-1.295,3.092,3.092,0,0,1-.5-1.746,3.5,3.5,0,0,1,1.441-2.877,5.938,5.938,0,0,1,3.773-1.131,6.579,6.579,0,0,1,4.031,1.137,3.555,3.555,0,0,1,1.523,2.988H84.75q0-1.523-1.605-1.523a1.591,1.591,0,0,0-1.043.346,1.07,1.07,0,0,0-.422.861.982.982,0,0,0,.516.855,4.872,4.872,0,0,0,1.646.539,14.228,14.228,0,0,1,1.986.5q2.859.984,2.859,3.527a3.321,3.321,0,0,1-1.541,2.824,6.758,6.758,0,0,1-3.99,1.09,6.9,6.9,0,0,1-2.906-.586,4.86,4.86,0,0,1-1.992-1.594,3.609,3.609,0,0,1-.715-2.121h3.691a1.526,1.526,0,0,0,.586,1.283,2.41,2.41,0,0,0,1.441.4,1.9,1.9,0,0,0,1.213-.328A1.05,1.05,0,0,0,84.879,49.438Zm13.207,2.191A4.072,4.072,0,0,1,94.7,53.234a3.993,3.993,0,0,1-3.158-1.213,5.1,5.1,0,0,1-1.072-3.486V40.32h3.949v8.238A1.419,1.419,0,0,0,96,50.188a2.064,2.064,0,0,0,1.934-.973V40.32h3.973V53H98.2ZM108.234,53h-3.961V35h3.961Zm7.031-15.832V40.32h2.086v2.742h-2.086v5.8a1.481,1.481,0,0,0,.258,1,1.383,1.383,0,0,0,1.02.281,5.793,5.793,0,0,0,.984-.07v2.824a7.288,7.288,0,0,1-2.227.34,4.137,4.137,0,0,1-3.012-.961,3.939,3.939,0,0,1-.973-2.918V43.063H109.7V40.32h1.617V37.168ZM126.047,53a4.459,4.459,0,0,1-.375-1.137,3.672,3.672,0,0,1-3.047,1.371,4.5,4.5,0,0,1-3.047-1.084,3.45,3.45,0,0,1-1.254-2.725,3.546,3.546,0,0,1,1.523-3.117,7.761,7.761,0,0,1,4.43-1.055H125.5v-.671q0-1.755-1.512-1.755a1.236,1.236,0,0,0-1.406,1.39h-3.949a3.54,3.54,0,0,1,1.564-2.985,6.575,6.575,0,0,1,3.99-1.147,5.764,5.764,0,0,1,3.832,1.184,4.115,4.115,0,0,1,1.441,3.246v5.613A5.748,5.748,0,0,0,130,52.8V53Zm-2.473-2.578a2.2,2.2,0,0,0,1.225-.316,1.983,1.983,0,0,0,.7-.715V47.363h-1.148q-2.062,0-2.062,1.852a1.131,1.131,0,0,0,.363.873A1.315,1.315,0,0,0,123.574,50.422Zm7.57-3.855a7.746,7.746,0,0,1,1.3-4.746,4.282,4.282,0,0,1,3.633-1.734,3.641,3.641,0,0,1,2.859,1.336V35H142.9V53h-3.551l-.2-1.359a3.739,3.739,0,0,1-3.094,1.594,4.274,4.274,0,0,1-3.586-1.734A7.991,7.991,0,0,1,131.145,46.566Zm3.949.246q0,3.375,1.969,3.375a1.944,1.944,0,0,0,1.875-1.1V44.258a1.892,1.892,0,0,0-1.852-1.125q-1.828,0-1.98,2.953Zm9.551-.27a7.484,7.484,0,0,1,.738-3.381,5.28,5.28,0,0,1,2.121-2.279,6.388,6.388,0,0,1,3.246-.8,5.83,5.83,0,0,1,4.488,1.764,6.768,6.768,0,0,1,1.641,4.8v.141a6.566,6.566,0,0,1-1.646,4.705,5.846,5.846,0,0,1-4.459,1.74,5.912,5.912,0,0,1-4.348-1.623,6.348,6.348,0,0,1-1.77-4.4Zm3.949.246a4.718,4.718,0,0,0,.551,2.578,1.835,1.835,0,0,0,1.629.82q2.109,0,2.156-3.246v-.4q0-3.41-2.18-3.41-1.98,0-2.145,2.941Zm16.664,2.648a.912.912,0,0,0-.527-.809,8.021,8.021,0,0,0-2-.633,9.138,9.138,0,0,1-2.437-.861,4.083,4.083,0,0,1-1.465-1.295,3.092,3.092,0,0,1-.5-1.746,3.5,3.5,0,0,1,1.441-2.877,5.938,5.938,0,0,1,3.773-1.131,6.579,6.579,0,0,1,4.031,1.137,3.555,3.555,0,0,1,1.523,2.988h-3.961q0-1.523-1.605-1.523a1.591,1.591,0,0,0-1.043.346,1.07,1.07,0,0,0-.422.861.982.982,0,0,0,.516.855,4.872,4.872,0,0,0,1.646.539,14.228,14.228,0,0,1,1.986.5q2.859.984,2.859,3.527a3.321,3.321,0,0,1-1.541,2.824,6.758,6.758,0,0,1-3.99,1.09,6.9,6.9,0,0,1-2.906-.586,4.86,4.86,0,0,1-1.992-1.594,3.609,3.609,0,0,1-.715-2.121h3.691a1.526,1.526,0,0,0,.586,1.283,2.41,2.41,0,0,0,1.441.4,1.9,1.9,0,0,0,1.213-.328A1.05,1.05,0,0,0,165.258,49.438Z" transform="translate(684 876.75)" fill="#12263f"/>
    <g id="Grupo_182631" data-name="Grupo 182631" transform="translate(779 739.341)">
      <g id="Grupo_182630" data-name="Grupo 182630" clip-path="url(#clip-path)">
        <ellipse id="Elipse_5510" data-name="Elipse 5510" cx="20.696" cy="5.174" rx="20.696" ry="5.174" transform="translate(1.552 1.552)" fill="none" stroke="#00a3be" stroke-linecap="round" stroke-linejoin="round" stroke-width="5"/>
        <path id="Trazado_212870" data-name="Trazado 212870" d="M42.143,3.75v7.678c0,3.417-9.266,6.188-20.7,6.188S.75,14.845.75,11.428V3.75" transform="translate(0.802 4.011)" fill="none" stroke="#00a3be" stroke-linecap="round" stroke-linejoin="round" stroke-width="5"/>
        <path id="Trazado_212871" data-name="Trazado 212871" d="M42.143,7.75V17.5c0,3.417-9.266,6.188-20.7,6.188S.75,20.915.75,17.5V7.75" transform="translate(0.802 8.29)" fill="none" stroke="#00a3be" stroke-linecap="round" stroke-linejoin="round" stroke-width="5"/>
        <path id="Trazado_212872" data-name="Trazado 212872" d="M28.939,28.551a65.232,65.232,0,0,1-7.565.428C9.985,28.98.75,26.219.75,22.814V11.75" transform="translate(0.802 12.568)" fill="none" stroke="#00a3be" stroke-linecap="round" stroke-linejoin="round" stroke-width="5"/>
        <line id="Línea_835" data-name="Línea 835" y2="6.209" transform="translate(42.945 26.388)" fill="none" stroke="#00a3be" stroke-linecap="round" stroke-linejoin="round" stroke-width="5"/>
        <path id="Trazado_212873" data-name="Trazado 212873" d="M22.33,35.045q-.475.006-.956.006C9.985,35.051.75,32.293.75,28.886V15.75" transform="translate(0.802 16.847)" fill="none" stroke="#00a3be" stroke-linecap="round" stroke-linejoin="round" stroke-width="5"/>
        <path id="Trazado_212874" data-name="Trazado 212874" d="M23.576,38.272q-1.087.034-2.2.035C9.983,38.307.75,35.546.75,32.142V21.75" transform="translate(0.802 23.265)" fill="none" stroke="#00a3be" stroke-linecap="round" stroke-linejoin="round" stroke-width="5"/>
        <circle id="Elipse_5511" data-name="Elipse 5511" cx="18.627" cy="18.627" r="18.627" transform="translate(30.527 38.806)" fill="none" stroke="#00a3be" stroke-linecap="round" stroke-linejoin="round" stroke-width="5"/>
        <path id="Trazado_212875" data-name="Trazado 212875" d="M20.75,40.307h8.279a4.139,4.139,0,1,0,0-8.279H24.889a4.139,4.139,0,1,1,0-8.279h8.279" transform="translate(22.195 25.404)" fill="none" stroke="#00a3be" stroke-linecap="round" stroke-linejoin="round" stroke-width="5"/>
        <line id="Línea_836" data-name="Línea 836" y2="4.139" transform="translate(49.154 45.015)" fill="none" stroke="#00a3be" stroke-linecap="round" stroke-linejoin="round" stroke-width="5"/>
        <line id="Línea_837" data-name="Línea 837" y2="4.139" transform="translate(49.154 65.711)" fill="none" stroke="#00a3be" stroke-linecap="round" stroke-linejoin="round" stroke-width="5"/>
      </g>
    </g>
  </g>
</svg>
