<svg xmlns="http://www.w3.org/2000/svg" xmlns:xlink="http://www.w3.org/1999/xlink" width="1030" height="388.2" viewBox="0 0 1030 388.2">
  <defs>
    <linearGradient id="linear-gradient" x1="-1.721" y1="50.597" x2="-1.712" y2="50.597" gradientUnits="objectBoundingBox">
      <stop offset="0" stop-color="#ff9f55"/>
      <stop offset="1" stop-color="#ffd255"/>
    </linearGradient>
    <linearGradient id="linear-gradient-2" x1="-0.781" y1="3.095" x2="-0.777" y2="3.095" xlink:href="#linear-gradient"/>
  </defs>
  <g id="Grupo_183473" data-name="Grupo 183473" transform="translate(-285 -2693.985)">
    <path id="Trazado_210179" data-name="Trazado 210179" d="M273.091,150.983,13.723,1.237A9.149,9.149,0,0,0,0,9.16V308.652a9.149,9.149,0,0,0,13.723,7.923L273.091,166.829a9.149,9.149,0,0,0,0-15.846" transform="translate(285 2764.37)" fill="#f37f4c"/>
    <path id="Trazado_210180" data-name="Trazado 210180" d="M98.41,504.332a20.038,20.038,0,0,0,2.852,4.813l-1.7,3.557,3.425,2.569,3.425,2.569,2.94-2.624a20.038,20.038,0,0,0,5.419,1.391l1.315,3.712,4.238-.605,4.238-.605.223-3.931a20.035,20.035,0,0,0,4.813-2.852l3.557,1.7,2.569-3.425,2.569-3.425-2.624-2.94a20.039,20.039,0,0,0,1.391-5.419l3.712-1.315-.605-4.238-.605-4.238-3.931-.224a20.043,20.043,0,0,0-2.852-4.813l1.7-3.557-3.425-2.569-3.425-2.569-2.94,2.624a20.035,20.035,0,0,0-5.419-1.391l-1.315-3.712-4.238.605-4.238.605-.223,3.931a20.042,20.042,0,0,0-4.813,2.852l-3.557-1.7-2.569,3.425-2.569,3.425,2.624,2.94a20.04,20.04,0,0,0-1.391,5.419l-3.712,1.315.605,4.238.605,4.238ZM114.9,481.714a15,15,0,1,1-12.73,16.971,15,15,0,0,1,12.73-16.971" transform="translate(218.533 2242.229)" fill="#afafaf"/>
    <path id="Trazado_214107" data-name="Trazado 214107" d="M109.16,570.239a61.939,61.939,0,0,0,8.816,14.876l-5.243,10.995,10.586,7.94,10.586,7.941,9.088-8.11a61.935,61.935,0,0,0,16.749,4.3l4.064,11.473,13.1-1.87,13.1-1.871.691-12.151a61.926,61.926,0,0,0,14.876-8.816l10.995,5.243,7.94-10.586,7.94-10.585-8.111-9.088a61.94,61.94,0,0,0,4.3-16.749l11.472-4.063-1.871-13.1-1.871-13.1-12.151-.691a61.952,61.952,0,0,0-8.816-14.876l5.243-10.995-10.585-7.94-10.586-7.94-9.088,8.111a61.926,61.926,0,0,0-16.749-4.3l-4.064-11.473-13.1,1.871-13.1,1.871-.691,12.151a61.949,61.949,0,0,0-14.876,8.817l-10.995-5.243-7.94,10.585-7.94,10.585,8.111,9.088a61.94,61.94,0,0,0-4.3,16.749l-11.472,4.064,1.871,13.1,1.87,13.1Zm50.974-69.909a46.368,46.368,0,1,1-39.348,52.457,46.367,46.367,0,0,1,39.348-52.457" transform="translate(544.224 2242.229)" fill="#e6e4e4"/>
    <path id="Trazado_214108" data-name="Trazado 214108" d="M101.214,521.525a30.969,30.969,0,0,0,4.408,7.438L103,534.46l5.293,3.97,5.293,3.97,4.544-4.055a30.965,30.965,0,0,0,8.374,2.15l2.032,5.736,6.55-.935,6.55-.935.345-6.076a30.965,30.965,0,0,0,7.438-4.408l5.5,2.621,3.97-5.293,3.97-5.293L158.8,521.37a30.969,30.969,0,0,0,2.15-8.375l5.736-2.032-.935-6.55-.935-6.55-6.076-.345a30.976,30.976,0,0,0-4.408-7.438l2.622-5.5-5.293-3.97-5.293-3.97-4.544,4.055a30.963,30.963,0,0,0-8.374-2.15l-2.032-5.736-6.55.935-6.55.935-.345,6.075a30.975,30.975,0,0,0-7.438,4.408l-5.5-2.621-3.97,5.293-3.97,5.293,4.055,4.544A30.97,30.97,0,0,0,99,506.048l-5.736,2.032.935,6.55.935,6.55ZM126.7,486.57A23.184,23.184,0,1,1,107.027,512.8,23.184,23.184,0,0,1,126.7,486.57" transform="translate(401.731 2277.937)" fill="#e6e4e4"/>
    <path id="Trazado_210181" data-name="Trazado 210181" d="M115.029,247a9.428,9.428,0,0,0,1.342,2.264l-.8,1.674,1.611,1.209,1.611,1.209,1.383-1.235a9.434,9.434,0,0,0,2.549.655l.619,1.746,1.994-.285,1.994-.285.105-1.849a9.437,9.437,0,0,0,2.264-1.342l1.673.8,1.209-1.611,1.209-1.611-1.235-1.383a9.431,9.431,0,0,0,.655-2.549l1.746-.619-.285-1.994-.285-1.994-1.85-.105a9.423,9.423,0,0,0-1.342-2.264l.8-1.674-1.611-1.209-1.611-1.209-1.383,1.234a9.427,9.427,0,0,0-2.549-.655l-.619-1.746-1.994.285-1.994.285-.105,1.85a9.431,9.431,0,0,0-2.264,1.342l-1.673-.8-1.209,1.611-1.209,1.611,1.235,1.383a9.428,9.428,0,0,0-.655,2.549l-1.746.619.285,1.994.285,1.994Zm7.759-10.641a7.058,7.058,0,1,1-5.989,7.984,7.058,7.058,0,0,1,5.989-7.984" transform="translate(197.214 2785.938)" fill="#fff"/>
    <path id="Trazado_210182" data-name="Trazado 210182" d="M1428.164,838.889s18.233-5.924,19.714-5.263,1.681,1.706,0,2.334-17.482,6.254-17.482,6.254,22.529-3.247,23.868-2.991c.784.15,1.287,2.143.41,2.565s-23.092,4.978-23.092,4.978,21.038-2.992,22.082-2.422a1.58,1.58,0,0,1-.618,2.8c-1.551.334-20.98,4.267-20.98,4.267s15.4-1.17,15.985-.126c.359.638.872,2.335-3.1,2.507s-13.363,1.611-13.363,1.611Z" transform="translate(-886.955 1996.645)" fill="#eea886"/>
    <path id="Trazado_210183" data-name="Trazado 210183" d="M1315.1,823.611s5.9-2.345,6.323-6.068c.36-3.166,2.987-7.091,3.794-8.3,1.079-1.618,2.69-7.8,4.58-6.481s-2.195,10.3-2.7,12.347,7.546-2.315,9.56-1.92,7.5,14.517,1.674,16.852-13.335.851-14.292,1.472a38.555,38.555,0,0,1-4.183,1.873Z" transform="translate(-793.986 2022.134)" fill="#eea886"/>
    <path id="Trazado_210184" data-name="Trazado 210184" d="M290.822,814.845c.132,1.706.274,3.331.406,4.783H206.8c.031-1.422.071-3.036.1-4.783.284-14.076.7-37.151.518-45.865-.234-12.441-2.854-44.768-3.372-46.636,0,0-18.525-26.914-37.953,26.213-4.012,10.948,32.764,38.38,28.193,39.223s-4.377,9.516-4.377,9.516-34.632-30.164-33.921-39.05c.4-4.936,27.513-76.658,31.657-79.623,2.823-2.031,20.556-9.141,29.747-12.624a64.961,64.961,0,0,1,8.166-2.793c2.1-.132,28.041,2.356,28.041,2.356s3.717,1.27,7.525,3.016c6.49,2.976,16.605,7.637,23.857,11.09,2.346,1.117,5.281,2.62,7.718,3.91q-.442,13.223-1.564,28.376s-1.351,22.069-1.473,44.362c-1.168,5.048-.965,16.778-.965,16.778-.325,11.121.914,22.536,1.239,28.914.2,3.991.538,8.663.883,12.837" transform="translate(159.175 2136.745)" fill="#dbd8e3"/>
    <path id="Trazado_210185" data-name="Trazado 210185" d="M765.6,833.1c-1.219-7.891-2.377-16.108-3.331-23.968v-.061q-.229-1.919-.457-3.808a1.251,1.251,0,0,0-.02-.193c-.609-5.322-1.107-10.41-1.473-15.072a47.3,47.3,0,0,1,.467-10.481c1.442-23.836,2.163-48.973,2.163-48.973.762-10.3,1.2-19.906,1.493-28.873,0,0-32.57-15.387-35.526-16.27,0,0,6.175,14.5,10.806,46.931,1.787,12.451,5.088,33.413,7.485,54.812.945,8.439,2.5,16.981,3.981,25.024,1.4,7.586,2.742,14.736,3.463,20.932.051.376.091.752.132,1.127.112,1.066.244,2.3.4,3.656H766.35c-.254-1.574-.508-3.179-.751-4.783" transform="translate(-311.956 2118.486)" fill="#323657"/>
    <path id="Trazado_210186" data-name="Trazado 210186" d="M147.064,783.573c-1.483,14.381-3.108,26.02-4.418,37.923-.173,1.584-.345,3.179-.508,4.783H107.882q.67-2.376,1.3-4.783c3.676-13.863,6.611-28.011,6.611-36.592,0,0-7.129-51.268-9.516-59.525,0,0-21.561,15.945-26.6,26.985-4.509,9.872,28.528,40.025,28.142,41.041-2.244,5.941-10.847,16.8-10.847,16.8S45.818,755.258,46.5,748.483c.487-4.926,43.376-59.687,47.51-62.653,2.4-1.716,20.109-7.993,28.8-11.425,1.595-.63,6.774-2.58,8.2-3.118,1.838,2.051,14.8,16,19.286,68.99.762,8.937-1.625,27.848-3.229,43.3" transform="translate(249.207 2130.095)" fill="#323657"/>
    <path id="Trazado_210187" data-name="Trazado 210187" d="M544.226,550.283s-.178-8.9-3.61-26.92c-.918-4.822,28,12.689,28,12.689s-.089,1.689-.147,3.97c-.031,1.2-.05,2.572-.042,3.943,0,.484.008.964.019,1.441.027,1.274.085,2.495.194,3.532a16.582,16.582,0,0,0,.965,3.475c1.193,2.75-15.637,4.838-25.374-2.13" transform="translate(-157.098 2252.425)" fill="#eea987"/>
    <path id="Trazado_210188" data-name="Trazado 210188" d="M648.706,731.256l4.793,6.44s-2.808,3.76-7.8.984Z" transform="translate(-243.53 2080.782)" fill="#d44040"/>
    <path id="Trazado_210189" data-name="Trazado 210189" d="M664.022,768.174S682.2,838.161,678.453,892.64l-6.116,10.779-5.725-11.291S665.044,794.679,660.06,768Z" transform="translate(-255.336 2050.565)" fill="#d44040"/>
    <path id="Trazado_210190" data-name="Trazado 210190" d="M617.4,688.981l-5.132,6s-8.236-1.6-10.654-5.9,15.786-.106,15.786-.106" transform="translate(-207.094 2117.053)" fill="#eea987"/>
    <path id="Trazado_210191" data-name="Trazado 210191" d="M668.908,667.9s-.6,4.577-6.309,11.258l6.236,8.378,3.375-17.38Z" transform="translate(-257.424 2132.883)" fill="#c4c1cc"/>
    <path id="Trazado_210192" data-name="Trazado 210192" d="M536.457,643.393s10.194,12.32,18.521,15.612l-3.873,9.579-19.382-20.838Z" transform="translate(-149.804 2153.032)" fill="#c4c1cc"/>
    <path id="Trazado_210193" data-name="Trazado 210193" d="M927.78,802.634s-43.933,47.73-54.3,45.18c-4.793-1.179-12.052-9.452-18.051-17.231-1.978-2.562-3.917-5.25-5.762-7.911a.017.017,0,0,1-.005-.011c-7.36-10.626-13.127-20.812-13.127-20.812s-21.754-25.494-4.3-36.859c0,0,7.357-.742,11.542,2.345,3.864,2.85,13.264,20.8,14.79,24.125s13.4,26.779,14.5,27.473,12.766-6.3,19-10.5c10.071-6.778,22.724-18.592,22.724-18.592Z" transform="translate(-391.342 2053.105)" fill="#323657"/>
    <path id="Trazado_210194" data-name="Trazado 210194" d="M571.676,282.6s6.352,11.777,3.2,13.608c-2.6,1.513,3.048,13.071,3.787,14.959s-4.712,3.26-5.87,4.475-4.59,16.17-9.08,16.621S539,325.682,533.489,319.955s-10.028-31.6-6.352-42.51,33.327-15.414,44.538,5.158" transform="translate(-144.936 2461.544)" fill="#eea886"/>
    <path id="Trazado_210195" data-name="Trazado 210195" d="M548.046,247.606s6.484-12.719-5.294-22.154-33.5,7.124-35.944,7.756-16.336,1.585-9.324,25.971c6.022,20.94,6.863,21.821,6.863,21.821s4.494-12.131,7.041-13.979c3.977-2.887,12.7-2.194,12.7-2.194s-4.155-11.031,2.338-12.593,15.053-7.065,21.622-4.627" transform="translate(-120.038 2499.094)" fill="#16202e"/>
    <path id="Trazado_210196" data-name="Trazado 210196" d="M571.927,400c-.573-1.513-2.424-8.016-8-4.2s3.477,16.076,4.449,16.234,8.374.7,3.555-12.037" transform="translate(-174.798 2357.603)" fill="#eea886"/>
    <path id="Trazado_210197" data-name="Trazado 210197" d="M605.932,585.512c0,.484.008.964.019,1.441-16.539-5.55-19.742-13.905-19.742-13.905,5.159,3.649,19.766,8.521,19.766,8.521-.031,1.2-.05,2.572-.042,3.943" transform="translate(-194.607 2210.878)" fill="#a77860"/>
    <path id="Trazado_210198" data-name="Trazado 210198" d="M324.842,1356.672a7.532,7.532,0,0,0,4.175,1.681c3.708-.031,7.93-4.062,11.807-.4s-4.284,19.233-7.223,21.058-9.619-1.454-16.768-10.094,8.01-12.243,8.01-12.243" transform="translate(42.555 1556.894)" fill="#eea886"/>
    <path id="Trazado_210199" data-name="Trazado 210199" d="M372.839,1358.559a153.867,153.867,0,0,1,15.5,6.478c7.013,3.422,15.242,8.648,14.4,10.424-1.274,2.7-7.53-2.361-14.712-5.282-6.612-2.689-5.762-1.038-5.762-1.038s-.216-.484,6.416,3.864c7.131,4.675,14.6,10,13.936,11.463-.818,1.819-1.073,1.976-3.94.708,1.49,1.087,1.4,1.655,1.007,2.327-2.048,3.479-13.6-1.738-18.187-3.811,3.514,1.614,5.919,3.18,3.29,4.5-3.007,1.509-19.005-6.614-25.016-8.965-6.557-2.565,13.07-20.667,13.07-20.667" transform="translate(9.057 1555.244)" fill="#eea886"/>
    <path id="Trazado_210200" data-name="Trazado 210200" d="M232.471,1263.419s-1.63,9.544-14.046,21.751c0,0-28.457-31.394-33.534-37.271l22.267-12.919Z" transform="translate(142.658 1650.384)" fill="#323657"/>
    <path id="Trazado_210207" data-name="Trazado 210207" d="M1345.425,1468.159c1.1,4.788.913,15.912.913,15.912.3,10.551-.877,21.386-1.177,27.437-.009.187-.021.374-.029.564-.078,1.428-.17,2.942-.276,4.476h78.931c-.028-1.453-.057-2.951-.081-4.476-.158-8.932-.3-18.716-.312-25.7,18.038-4.764,37.517-10.981,37.152-15.526-.373-4.679-14.427-73.57-18.355-76.382-2.679-1.924-19.5-8.664-28.224-11.976a61.824,61.824,0,0,0-7.739-2.646c-2-.126-26.6,2.232-26.6,2.232s-3.531,1.209-7.134,2.865c-6.156,2.824-15.75,7.24-22.636,10.519-2.224,1.055-5,2.488-7.317,3.713q.421,12.54,1.486,26.91s1.278,20.936,1.4,42.079m78.2,7.97c.97-13.116,4.927-35.647,5.365-37.241.012,0,1.855,1.757,1.867,1.757s.609.085.617.077a4.638,4.638,0,0,1,.56.211s11.943,16.683,12.073,25.651c.065,4.278-9.265,7.341-20.481,9.545" transform="translate(-570.487 1547.516)" fill="#dbd8e3"/>
    <path id="Trazado_210208" data-name="Trazado 210208" d="M1339.687,1530.22h10.34q.353-2.185.759-4.476c1.753-9.874,4.058-21.029,5.288-31.983v0c2.272-20.3,5.4-40.18,7.09-51.993,4.4-30.757,10.255-44.518,10.255-44.518-2.8.836-33.695,15.438-33.695,15.438.276,8.5.69,17.624,1.412,27.384,0,0,.682,23.846,2.054,46.462a45.177,45.177,0,0,1,.442,9.938c-.345,4.424-.824,9.253-1.4,14.289-.008.069-.012.134-.02.191-.138,1.2-.284,2.4-.426,3.616,0,.021-.009.033-.009.053-.442,3.656-.933,7.39-1.453,11.128q-.31,2.24-.637,4.476" transform="translate(-568.248 1533.844)" fill="#323657"/>
    <path id="Trazado_210209" data-name="Trazado 210209" d="M1477.365,1487.2c2.35,5.543,10.446,19.232,10.446,19.232s5.86-1.437,14.479-3.669c.568,4.89,1.14,9.492,1.688,13.985.183,1.5.366,2.991.54,4.476h30.749q-.548-2.259-1.043-4.476c-1.879-8.328-3.2-16.074-3.388-21.727,20.619-5.888,40.829-12.487,40.517-15.644-.467-4.671-15.953-76.894-19.881-79.706-2.265-1.627-19.073-7.585-27.32-10.835-1.506-.6-6.651-2.529-8-3.044-1.749,1.948-13.806,15.255-18.067,65.527-.528,6.254.568,17.665,1.785,29.1-12.483,3.332-22.9,5.836-22.5,6.781m56.226-17.941c1.242-10.015,2.65-20.092,3.668-23.618a39.925,39.925,0,0,1,3.206,17.308c-.053,2.078-2.7,4.209-6.874,6.31" transform="translate(-676.355 1542.838)" fill="#323657"/>
    <path id="Trazado_210210" data-name="Trazado 210210" d="M1543.93,1297.352s-3.129-5.913-2.265-22.7c.239-4.651-24.43,11.03-24.43,11.03s.085,1.6.138,3.766c.029.9.044,1.887.044,2.9,0,.28,0,.56,0,.84,0,.459-.008.913-.016,1.368-.012.564-.032,1.116-.061,1.648-.028.6-.069,1.177-.126,1.7a15.542,15.542,0,0,1-.913,3.3c-1.132,2.609,18.4,2.76,27.632-3.847" transform="translate(-706.899 1630.792)" fill="#eea987"/>
    <path id="Trazado_210211" data-name="Trazado 210211" d="M1532.211,1433.253l-4.546,6.108s2.663,3.567,7.394.934Z" transform="translate(-715.863 1505.569)" fill="#e8734d"/>
    <path id="Trazado_210212" data-name="Trazado 210212" d="M1483.589,1462.261s-16.657,40.683-13.1,92.359l5.254,9.535,5.923-8.12s.956-68.632,5.684-93.937Z" transform="translate(-670.572 1482.917)" fill="#e8734d"/>
    <path id="Trazado_210213" data-name="Trazado 210213" d="M1526.166,1400.37l4.868,5.695s7.812-1.514,10.106-5.595-14.974-.1-14.974-.1" transform="translate(-714.687 1532.757)" fill="#eea987"/>
    <path id="Trazado_210214" data-name="Trazado 210214" d="M1509.512,1383.519s.566,4.342,5.985,10.679l-5.916,7.947-3.2-16.486Z" transform="translate(-699.149 1544.623)" fill="#c4c1cc"/>
    <path id="Trazado_210215" data-name="Trazado 210215" d="M1568.034,1359.2s-11.3,12.778-19.2,15.9l3.674,9.086,18.028-19.888Z" transform="translate(-732.49 1563.721)" fill="#c4c1cc"/>
    <path id="Trazado_210216" data-name="Trazado 210216" d="M1064.746,1553.961s14.995-14.542,24.829-16.961c4.546-1.118,10.535-7.394,16.225-14.772,1.876-2.43,3.715-4.98,5.466-7.5a.016.016,0,0,0,.005-.01c6.981-10.079,12.452-19.741,12.452-19.741s20.635-24.183,4.077-34.963c0,0-7.1-.154-10.99,1.96-4,2.173-12.541,19.991-13.988,23.147s-17.128,32.459-18.179,33.117-2.8,3.068-9.074,6.447c-7.682,4.136-19.75,16.242-19.75,16.242Z" transform="translate(-345.333 1484.56)" fill="#323657"/>
    <path id="Trazado_210217" data-name="Trazado 210217" d="M1398.4,1883.385a9.528,9.528,0,0,0,2.992-.568s1.567-1.005,2.724-1.652a9.025,9.025,0,0,1,.914-.461,17.47,17.47,0,0,0,5.037-2.4c1.971-1.5,8.4-7.516,8.4-7.516l-4.155-6.386-1.918-6.324s-14.986,1.49-16.985,2.678a5.936,5.936,0,0,0-.551.369c-1.6,1.17-2.29,2.711-3.058,3.42-.28.262-2.891,3.056-2.744,4.19a3.733,3.733,0,0,0,1.954,3.06s.529,3.063,2.112,4.432a5.548,5.548,0,0,0,2.851,3.984s.726,2.837,2.428,3.177" transform="translate(-607.015 1171.966)" fill="#efaa88"/>
    <path id="Trazado_210218" data-name="Trazado 210218" d="M1462.649,1074.27s-27.089-6.53-21.382,27.765,12.2,37.079,28.7,30.241,15.354-28.773,16.337-39.507-14.994-18-23.658-18.5" transform="translate(-647.396 1787.859)" fill="#eea886"/>
    <path id="Trazado_210219" data-name="Trazado 210219" d="M1608.84,1177.254c.4-3.012,6.383-4.031,6.8.5s-2.893,12.425-5.145,11.61-2.206-7.957-1.651-12.111" transform="translate(-779.358 1708.625)" fill="#eea886"/>
    <path id="Trazado_210220" data-name="Trazado 210220" d="M1479.239,1081.184s-.543-10.787-4.475-11.181-4.6,3.937-4.6,3.937l-3.986.692s1.395-9.427-2.511-11.135-25.541,4.826-28.656,2.007-1.348-21.957,4.4-24.5,21.588-8.182,33.019-.2c0,0,9.015-.894,10.243,6.389s-.9,28.62-3.43,33.984" transform="translate(-641.909 1816.976)" fill="#16202e"/>
    <path id="Trazado_210221" data-name="Trazado 210221" d="M1473.966,1824.558l11.184,19.229s29.629-7.634,36.542-9.584l-15.8-18.81s-23.3,5.323-31.923,9.165" transform="translate(-673.694 1205.482)" fill="#323657"/>
    <path id="Trazado_210222" data-name="Trazado 210222" d="M1521.308,1331.857h0a25.907,25.907,0,0,0,20.161-12.666,30.034,30.034,0,0,1-20.084,8.81c0,.28,0,.56,0,.84,0,.459-.008.913-.016,1.368-.012.564-.032,1.116-.061,1.648" transform="translate(-710.871 1595.139)" fill="#a77860"/>
    <path id="Trazado_210223" data-name="Trazado 210223" d="M1042.294,1662.011l7.9,73.464h-104l-7.9-73.464Z" transform="translate(-253.043 1325.931)" fill="#ffc955"/>
    <path id="Trazado_214684" data-name="Trazado 214684" d="M0,0H17.37V6.609H0Z" transform="translate(788.059 3054.797)" fill="#ffc955"/>
    <path id="Trazado_214685" data-name="Trazado 214685" d="M0,0H555V2.812H0Z" transform="translate(340 3061.881)" fill="#12263f"/>
    <path id="Trazado_210224" data-name="Trazado 210224" d="M1182.8,1804.464c.836,4.09-1.072,7.935-4.262,8.587s-6.453-2.136-7.289-6.226,1.072-7.935,4.261-8.587,6.453,2.136,7.289,6.226" transform="translate(-435.827 1219.029)" fill="#cfa345"/>
    <path id="Trazado_210225" data-name="Trazado 210225" d="M271.954,1315.9H168.01a6.908,6.908,0,0,1-6.908-6.908V1208.952a6.908,6.908,0,0,1,6.908-6.909H271.953a6.908,6.908,0,0,1,6.908,6.909v100.042a6.908,6.908,0,0,1-6.908,6.908" transform="translate(160.973 1675.741)" fill="#e0e0e0"/>
    <path id="Trazado_210226" data-name="Trazado 210226" d="M205.81,1447.246l-.816-.865,21.112-19.92,21.367,4.63,20.409-23.274,17.8,1,13.863-19.122.963.7-14.244,19.648-17.87-1.008L247.9,1432.4l-21.439-4.646Z" transform="translate(127.181 1531.271)" fill="#377b93"/>
    <path id="Trazado_210227" data-name="Trazado 210227" d="M383.006,1561.128a3.172,3.172,0,1,1-3.771-2.429,3.172,3.172,0,0,1,3.771,2.429" transform="translate(-5.037 1401.218)" fill="#e6e6e6"/>
    <path id="Trazado_210228" data-name="Trazado 210228" d="M378.715,1563.493a3.766,3.766,0,1,1,2.884-4.478,3.771,3.771,0,0,1-2.884,4.478m-1.342-6.2a2.577,2.577,0,1,0,3.064,1.973,2.58,2.58,0,0,0-3.064-1.973" transform="translate(-3.049 1403.205)" fill="#377b93"/>
    <path id="Trazado_210229" data-name="Trazado 210229" d="M471.839,1460.667a3.172,3.172,0,1,1-3.771-2.429,3.172,3.172,0,0,1,3.771,2.429" transform="translate(-73.427 1478.56)" fill="#e6e6e6"/>
    <path id="Trazado_210230" data-name="Trazado 210230" d="M467.547,1463.03a3.767,3.767,0,1,1,2.884-4.478,3.77,3.77,0,0,1-2.884,4.478m-1.342-6.2a2.577,2.577,0,1,0,3.064,1.973,2.58,2.58,0,0,0-3.064-1.973" transform="translate(-71.438 1480.55)" fill="#377b93"/>
    <path id="Trazado_210231" data-name="Trazado 210231" d="M548.619,1463.741a3.172,3.172,0,1,1-3.771-2.428,3.172,3.172,0,0,1,3.771,2.428" transform="translate(-132.537 1476.192)" fill="#e6e6e6"/>
    <path id="Trazado_210232" data-name="Trazado 210232" d="M544.328,1466.1a3.767,3.767,0,1,1,2.884-4.478,3.771,3.771,0,0,1-2.884,4.478m-1.342-6.2a2.577,2.577,0,1,0,3.064,1.973,2.58,2.58,0,0,0-3.064-1.973" transform="translate(-130.55 1478.183)" fill="#377b93"/>
    <path id="Trazado_210233" data-name="Trazado 210233" d="M289.929,1542.251a3.172,3.172,0,1,1-3.771-2.429,3.172,3.172,0,0,1,3.771,2.429" transform="translate(66.621 1415.75)" fill="#e6e6e6"/>
    <path id="Trazado_210234" data-name="Trazado 210234" d="M285.637,1544.614a3.767,3.767,0,1,1,2.884-4.478,3.771,3.771,0,0,1-2.884,4.478m-1.342-6.2a2.577,2.577,0,1,0,3.064,1.973,2.58,2.58,0,0,0-3.064-1.973" transform="translate(68.61 1417.739)" fill="#377b93"/>
    <path id="Trazado_214695" data-name="Trazado 214695" d="M0,0H12.985V2.5H0Z" transform="translate(350.277 2970.463)" fill="#fff"/>
    <path id="Trazado_214696" data-name="Trazado 214696" d="M0,0H12.985V2.5H0Z" transform="translate(359.308 2944.804)" fill="#fff"/>
    <path id="Trazado_214697" data-name="Trazado 214697" d="M0,0H12.985V2.5H0Z" transform="translate(386.242 2962.685)" fill="#fff"/>
    <path id="Trazado_214698" data-name="Trazado 214698" d="M0,0H12.985V2.5H0Z" transform="translate(397.89 2927.569)" fill="#fff"/>
    <path id="Trazado_214699" data-name="Trazado 214699" d="M0,0H12.985V2.5H0Z" transform="translate(416.749 2948.492)" fill="#fff"/>
    <path id="Trazado_214700" data-name="Trazado 214700" d="M0,0H46.243V4.539H0Z" transform="translate(330.736 2886.486)" fill="#4e8c63"/>
    <path id="Trazado_214701" data-name="Trazado 214701" d="M0,0H46.243V4.539H0Z" transform="translate(330.736 2898.697)" fill="#fff"/>
    <path id="Trazado_214702" data-name="Trazado 214702" d="M0,0H46.243V4.539H0Z" transform="translate(330.736 2910.908)" fill="#fff"/>
    <path id="Trazado_214703" data-name="Trazado 214703" d="M0,0H7.719V4.539H0Z" transform="translate(386.418 2886.486)" fill="#4e8c63"/>
    <path id="Trazado_214704" data-name="Trazado 214704" d="M0,0H7.719V4.539H0Z" transform="translate(386.418 2898.697)" fill="#fff"/>
    <path id="Trazado_214705" data-name="Trazado 214705" d="M0,0H7.719V4.539H0Z" transform="translate(386.418 2910.908)" fill="#fff"/>
    <path id="Trazado_214706" data-name="Trazado 214706" d="M0,0H12.175V5.039H0Z" transform="matrix(0.168, -0.986, 0.986, 0.168, 454.225, 2969.768)" fill="#2d3038"/>
    <path id="Trazado_210235" data-name="Trazado 210235" d="M997.843,1465.2s-8.116-18.386,1.3-16.864a34.312,34.312,0,0,1,6.495,8.047c2.492,4.089,7.672,14.91,7.48,18.571s-2.795,6.389-5.606,12.267c0,0-5.843,10.91-6.09,12.224l-6.177-3.208s5.234-10.431,8.924-19.6Z" transform="translate(-308.53 1440.516)" fill="#dbd8e3"/>
    <path id="Trazado_214694" data-name="Trazado 214694" d="M0,0H21.445V126.14H0Z" transform="translate(612.506 2939.671) rotate(-80.337)" fill="#e8734d"/>
    <path id="Trazado_210236" data-name="Trazado 210236" d="M802.08,1969.143h-1.532s.51-5.784-.907-5.841-4.932,4.706-7.031,5.444-12.87,1.359-12.927-.624,4.138-2.779,5.443-3.345,7.655-6.748,8.788-7.484,3.07-5.862,3.07-5.862l6.014-.267s.34,4.79.7,7.326a22.338,22.338,0,0,1,.248,2.375c.057,2.155-1.87,8.278-1.87,8.278" transform="translate(-159.745 1092.34)" fill="#eea886"/>
    <path id="Trazado_210237" data-name="Trazado 210237" d="M935.77,1966.379h-1.276V1961c-1.062.09-4.636,3.471-5.741,4.449s-2.622.934-7.279,1.23-5.1-2.491-4.359-3.44,3.119-1.364,4.359-1.956,6.131-6.109,7.435-7.414,2.1-5.041,2.1-5.041l5.443.474a33.331,33.331,0,0,0,.585,6.286h0a.114.114,0,0,1,.006.022q.079.367.174.718c.808,2.981-1.445,10.054-1.445,10.054" transform="translate(-254.693 1093.959)" fill="#eea886"/>
    <path id="Trazado_210238" data-name="Trazado 210238" d="M856.012,1600.526a54.321,54.321,0,0,0-2.239,6.093c-.182,1.229-5,12.87-6.39,20.717-.834,4.7-3.136,19.405-3.323,21.275-.319,3.2-1.826,10.265-2.058,13.533-.13,1.827-9.129,29.876-11.307,44.52a27,27,0,0,0,9.063-.262,153.416,153.416,0,0,0,12.288-36.6c2.642-12.929,4.979-19.823,7.026-25.149s13.64-20.406,14.85-22.1,8.793-11.058,1.613-21.2-19.524-.825-19.524-.825" transform="translate(-195.062 1337.795)" fill="#323657"/>
    <path id="Trazado_210239" data-name="Trazado 210239" d="M948.431,1638.281c-.656,4.367.034,10.1,1.405,26.072s-2.4,35.3-2.4,35.3c-4.74,1.622-10.2,0-10.2,0,.126-1.123,0-38.919,0-42.287s-.967-7.191-1.216-11.057c-.17-2.635-1.4-7.492-2.775-12.45-.413-1.485-.84-2.979-1.256-4.425v0c-.234-.811-.462-1.608-.685-2.379-1.942-6.736-4.554-32.746-4.554-32.746s14.477-11.661,21.525-.683,3.429,18.96,3.181,20.332-2.371,19.959-3.028,24.324" transform="translate(-261.563 1343.128)" fill="#323657"/>
    <path id="Trazado_210241" data-name="Trazado 210241" d="M935.77,1979.276h-1.276v-5.383c-1.062.09-4.636,3.471-5.741,4.449s-2.622.934-7.279,1.23-5.1-2.492-4.359-3.441,3.119-1.364,4.359-1.956c4.982.266,11.061-6.738,13.978-6.723,1.55.008,1.536.867,1.583,1.029v0a.107.107,0,0,1,.006.021q.079.366.174.718c.808,2.981-1.445,10.054-1.445,10.054" transform="translate(-254.693 1081.063)" fill="#c6c9cc"/>
    <path id="Trazado_210242" data-name="Trazado 210242" d="M802.08,1985.228h-1.532s.51-5.784-.907-5.841-4.932,4.705-7.031,5.444-12.87,1.36-12.927-.624,4.138-2.779,5.443-3.345c4.443-.01,11.669-4.9,13.91-5.892a8.087,8.087,0,0,1,4.666-.4,22.338,22.338,0,0,1,.248,2.375c.057,2.154-1.87,8.278-1.87,8.278" transform="translate(-159.745 1076.255)" fill="#c6c9cc"/>
    <path id="Trazado_210243" data-name="Trazado 210243" d="M954.517,1401.338s2.31,6.112.513,10.835c0,0,8.47-.551,8.791-1.54s-.341-10.146.824-12.852-10.129,3.557-10.129,3.557" transform="translate(-280.785 1475.924)" fill="#eea886"/>
    <path id="Trazado_210244" data-name="Trazado 210244" d="M920.585,1437.73s-5,1.78-7.267,2.274-6.994,2.736-6.609,11.175a176.286,176.286,0,0,0,2.31,19.382,76.454,76.454,0,0,1-.642,17.339,63.432,63.432,0,0,0,26.116,0s-2.5-7.647-2.438-9.625,8.342-18.262,8.727-20.833,2.053-13.91-1.733-16.416-6.866-2.175-8.47-3.3-7.653-.8-9.994,0" transform="translate(-247.672 1448.299)" fill="#dbd8e3"/>
    <path id="Trazado_210245" data-name="Trazado 210245" d="M931.791,1518.8c-20.5,5.438-36.815.021-36.815.021a50.757,50.757,0,0,0,3.374-9.062v0a54.309,54.309,0,0,0,1.262-6.081h0a55.09,55.09,0,0,0-.506-19.721c2.366-19.475,31.834-25.287,34.194-19.114s-4.573,32.7-4.925,34.978,3.414,18.983,3.414,18.983" transform="translate(-239.564 1430.66)" fill="#dbd8e3"/>
    <path id="Trazado_210246" data-name="Trazado 210246" d="M943.509,1329.691c-3.4-1.167-12.609-2.412-14.967,11.717s2.777,14.37,8.053,13.969,13.528-9.938,14.16-12.837,2.469-9.515-7.247-12.848" transform="translate(-262.396 1523.05)" fill="#eea886"/>
    <path id="Trazado_210247" data-name="Trazado 210247" d="M936.032,1332.581s2.811,6.015,6.5,8.111c0,0,2.31,6.391,7.313,8.975,0,0,13.277-8.795,5.572-19.246s-18.516-2.129-19.385,2.16" transform="translate(-267.988 1525.586)" fill="#16202e"/>
    <path id="Trazado_210248" data-name="Trazado 210248" d="M954.383,1366.082c.3-.735,2.288-1.93,3.181.086s-2.312,5.569-3.19,5.378-1.124-2.675.009-5.464" transform="translate(-280.164 1498.112)" fill="#eea886"/>
    <path id="Trazado_210249" data-name="Trazado 210249" d="M985.857,1343.96c.291-.453,9.082-4.523,10.911,3.982s-7.08,18.393-8.641,22.646.705,14.219.705,14.219-5.361-5.067-6.983-10.372c-1.781-5.824-2.379-20.512,4.008-30.475" transform="translate(-298.877 1513.662)" fill="#16202e"/>
    <path id="Trazado_210250" data-name="Trazado 210250" d="M991.916,1346.032a8.87,8.87,0,0,0-3.038,5.489s-.5-2.621.58-4.222a2.426,2.426,0,0,1,2.458-1.267" transform="translate(-304.493 1511.301)" fill="#e54242"/>
    <path id="Trazado_210252" data-name="Trazado 210252" d="M826.852,1619.311s-2.643,2.625-3.5,2.89-2.5-1.191-8.573-1.642c-.533-.04-1.47.44-1.249,1.144s2.862,2.619,3.993,2.912,6.465,2.412,9.065,1.371,4.369-4.349,4.369-4.349Z" transform="translate(-183.156 1322.086)" fill="#eea886"/>
    <path id="Trazado_210253" data-name="Trazado 210253" d="M868.617,1448.261s-7.02,2.783-7.436,12.54-.8,14.851-1.178,16.357-1.109,7.559-2.876,11.2c-1.714,3.534-12.963,14.717-12.963,14.717l5.444,5.119s15.682-15.736,16.635-18.613,4.873-22.9,5.185-26.275c.252-2.721,3.84-14.843-2.811-15.046" transform="translate(-204.386 1440.506)" fill="#dbd8e3"/>
    <path id="Trazado_210254" data-name="Trazado 210254" d="M350.333,1328.516c-.009.25-.026.5-.043.749h9.6c.018-.25.026-.5.035-.749Zm-107.1-2.652c0,.293,0,.577.009.87.017,1.214.069,2.42.172,3.617a57.01,57.01,0,0,0,1.628,9.972,58.092,58.092,0,0,0,15.338,26.852c.284.293.568.569.852.844,1.145,1.1,2.343,2.162,3.583,3.161a58.085,58.085,0,0,0,36.8,13.064c.233,0,.465,0,.7-.009a58.05,58.05,0,0,0,29.013-8.112,58.576,58.576,0,0,0,25.629-31.631q.684-2.054,1.231-4.168a58.7,58.7,0,0,0,1.421-7.725v-.009c.06-.56.121-1.119.164-1.688.052-.543.095-1.085.12-1.636.018-.25.026-.5.035-.749.026-.551.043-1.094.052-1.645.009-.336.009-.672.009-1.007a58.38,58.38,0,0,0-49.5-57.7c-.543-.086-1.085-.164-1.636-.233-.6-.069-1.206-.138-1.809-.19-.542-.052-1.094-.095-1.636-.129-1.257-.086-2.523-.121-3.789-.121-1.077,0-2.144.026-3.2.086-1.817.095-3.608.284-5.383.543a58.525,58.525,0,0,0-45.057,34.68c-.086.189-.164.388-.241.577s-.155.37-.224.551c-.448,1.076-.852,2.17-1.223,3.273a57.227,57.227,0,0,0-2.222,8.862c-.146.8-.258,1.61-.371,2.428-.008.138-.026.276-.043.422-.009.009-.009.017-.009.034a1.7,1.7,0,0,0-.017.207,2.044,2.044,0,0,0-.035.241v.06a.519.519,0,0,0-.017.121,1.293,1.293,0,0,0-.017.181c-.017.147-.034.293-.043.439-.086.9-.155,1.8-.2,2.7-.009.121-.017.25-.017.37q-.013.3-.026.594c-.025.663-.034,1.326-.034,2m13.082,18.162-.224-.569c-.163-.422-.318-.844-.474-1.274l-.353-1.033c-.086-.258-.173-.517-.25-.775-.009-.017-.009-.034-.017-.052a.931.931,0,0,1-.043-.147c-.138-.43-.258-.869-.379-1.309l-.138-.508c-.129-.465-.241-.939-.353-1.412-.009-.043-.026-.095-.035-.146-.095-.439-.189-.879-.275-1.318-.043-.181-.078-.361-.112-.543-.1-.551-.2-1.111-.284-1.671-.155-.982-.267-1.972-.362-2.971-.034-.336-.06-.681-.086-1.025,0,0,.008,0,0-.009,0-.112-.009-.215-.017-.327-.026-.465-.052-.93-.069-1.4v-.138c-.008-.1-.008-.215-.008-.327-.009-.4-.017-.81-.017-1.214,0-.379,0-.758.017-1.128a42.619,42.619,0,0,1,.31-4.478,4.2,4.2,0,0,1,.052-.465.033.033,0,0,1,.008-.026c-.008-.008,0-.008,0-.008a.016.016,0,0,1,0-.026.32.32,0,0,1,.009-.095v-.017c0-.017,0-.025.009-.034a48.444,48.444,0,0,1,7.243-19.954,48.982,48.982,0,0,1,17.706-16.561,47.441,47.441,0,0,1,5.925-2.755c.646-.25,1.309-.491,1.972-.706a47.732,47.732,0,0,1,11.634-2.368c1.292-.112,2.592-.163,3.91-.163.4,0,.784,0,1.18.017.456.009.9.026,1.361.043.327.017.654.043.982.069a2.587,2.587,0,0,1,.267.017c.542.034,1.094.086,1.636.147l.414.051c.215.026.439.052.654.086.25.026.491.06.741.1.551.078,1.093.172,1.636.267.052.009.1.017.146.026q.633.116,1.266.258c.026.009.052.009.078.017.172.034.353.077.525.12.4.086.784.181,1.171.285a4.834,4.834,0,0,1,.508.129c.448.12.9.241,1.344.379.43.12.852.258,1.274.4.2.06.4.129.586.2.844.284,1.679.594,2.5.93.224.086.448.181.672.276.344.146.68.293,1.025.448.276.121.551.241.818.379.4.181.8.379,1.2.577q.671.336,1.318.7c.5.267.982.543,1.464.827,1,.586,1.963,1.206,2.911,1.861.4.275.8.559,1.2.861.5.353.982.724,1.456,1.1.422.336.844.68,1.257,1.033.43.362.844.724,1.257,1.1a48.662,48.662,0,0,1,15.949,36.084c0,.336,0,.672-.008,1.007-.009.551-.026,1.094-.061,1.645-.009.25-.026.5-.043.749-.043.551-.086,1.094-.146,1.636q-.233,2.325-.689,4.581a47.586,47.586,0,0,1-1.231,4.84c-.388,1.258-.827,2.5-1.318,3.7a48.775,48.775,0,0,1-44.592,30.624c-.233.008-.465.008-.7.008a48.785,48.785,0,0,1-43.1-25.9c-.215-.413-.431-.827-.638-1.24l-.379-.792c-.155-.31-.292-.62-.439-.939l-.137-.31c-.121-.276-.241-.551-.354-.835Z" transform="translate(97.739 1625.354)" fill="#12263f"/>
    <path id="Trazado_210255" data-name="Trazado 210255" d="M285.648,1358.5a48.618,48.618,0,1,0,48.618-48.618,48.618,48.618,0,0,0-48.618,48.618" transform="translate(65.088 1592.717)" fill="#b8b8b8"/>
    <path id="Trazado_214707" data-name="Trazado 214707" d="M0,0H97.235V97.235H0Z" transform="translate(350.736 2902.603)" fill="none"/>
    <path id="Trazado_210256" data-name="Trazado 210256" d="M366.521,1321.835s-63.318-7.848-75.935,58.977h0a48.8,48.8,0,0,1,75.935-58.977" transform="translate(65.668 1593.295)" fill="#869ac2"/>
    <path id="Trazado_214708" data-name="Trazado 214708" d="M0,0H81.626V71.679H0Z" transform="translate(350.563 2902.428)" fill="none"/>
    <path id="Trazado_210271" data-name="Trazado 210271" d="M274.1,1796.159a.02.02,0,0,0-.012,0c.051.022.058.024.012,0" transform="translate(73.988 1218.35)" fill="#323657"/>
    <path id="Trazado_210260" data-name="Trazado 210260" d="M131.951,2152.352s-.463,3.212-.521,3.694-5.148-.284-5.148-.284l-.412-3.824s5.444-.04,6.08.414" transform="translate(375.503 894.46)" fill="#424773"/>
    <path id="Trazado_210262" data-name="Trazado 210262" d="M273.656,2152.484s-.463,3.212-.521,3.694-5.148-.284-5.148-.284l-.412-3.824s5.444-.039,6.08.414" transform="translate(266.407 894.357)" fill="#424773"/>
    <path id="Trazado_214709" data-name="Trazado 214709" d="M0,0H26.874V1.6H0Z" transform="translate(518.649 2978.42)" fill="url(#linear-gradient)"/>
    <path id="Trazado_214710" data-name="Trazado 214710" d="M0,0H26.874V1.6H0Z" transform="translate(518.649 2978.42)" fill="none"/>
    <path id="Trazado_214711" data-name="Trazado 214711" d="M0,0H2.355V72.55H0Z" transform="translate(522.251 2984.168)" fill="#706865"/>
    <path id="Trazado_214712" data-name="Trazado 214712" d="M0,0H7.074V21.485H0Z" transform="translate(547.12 2958.531)" fill="#ffab55"/>
    <path id="Trazado_214713" data-name="Trazado 214713" d="M0,0H103.5V4.125H0Z" transform="translate(509.009 2980.042)" fill="#b59074"/>
    <path id="Trazado_210257" data-name="Trazado 210257" d="M44.612,1731.928s-1.132,15.875,1.97,17.774c1.943,1.19,9.69,5.2,9.461,5.957s-4.374,6.7-4.374,6.7-14.881-9.8-15.361-12.887c-.469-3.017.732-23.243,2.778-24.175,1.532-.7,2.341-.121,4.271,1.313,2.71,2.011,1.256,5.321,1.256,5.321" transform="translate(444.533 1223.146)" fill="#ffc955"/>
    <path id="Trazado_210261" data-name="Trazado 210261" d="M128.823,2167.291A13.743,13.743,0,0,0,132,2170.07c1.56.844,4.011,1.178,4.933,2.051.666.63,2.425,3.344-4.053,3.289s-9.6.383-10.3-.657,1-7.68,1-7.68a13.7,13.7,0,0,0,5.239.218" transform="translate(378.164 882.807)" fill="#292c47"/>
    <path id="Trazado_210263" data-name="Trazado 210263" d="M270.528,2167.423a13.74,13.74,0,0,0,3.173,2.779c1.56.844,7.3,1.537,8.222,2.41.666.63,1.773,3.167-7.342,2.931-6.476-.169-9.6.383-10.3-.657s1-7.68,1-7.68,1.445.59,5.239.218" transform="translate(269.069 882.706)" fill="#292c47"/>
    <path id="Trazado_210264" data-name="Trazado 210264" d="M65.517,1912.641s18.5,3.131,22.684,3.788,26.841,6.3,29.675,8.014c2.256,1.367-1.183,34.217-1.986,46.75h-8.926l-.647-37.6c-10.711.268-18.355-2.506-26.155-1.321s-14.3,2.869-19.259-3.78c0,0-.184-14.4,4.614-15.856" transform="translate(425.52 1078.687)" fill="#292c47"/>
    <path id="Trazado_210265" data-name="Trazado 210265" d="M71.583,1984.612l-8.7-.538-.848-37.088a52.862,52.862,0,0,1-9.923-.63l-7.023-16.325c6.155,1.231,25.876,6.2,28.505,7.8,2.256,1.368-1.209,34.247-2.012,46.781" transform="translate(437.693 1065.299)" fill="#292c47"/>
    <path id="Trazado_210266" data-name="Trazado 210266" d="M102.383,1610.145s6.783-1.875,9.372,3.391,1.415,15.249-2,16.188-8.335-.142-9.754-3.42-2.551-7.935-2.212-10.951,2.8-4.488,4.6-5.209" transform="translate(397.172 1311.819)" fill="#eea886"/>
    <path id="Trazado_210267" data-name="Trazado 210267" d="M111.911,1676.306s-.075,4,.367,4.859-9.446.639-9.446.639,1.558-4.809.674-8.906c-.875-4.056,8.4,3.408,8.4,3.408" transform="translate(393.24 1264.188)" fill="#eea886"/>
    <path id="Trazado_210268" data-name="Trazado 210268" d="M97.725,1621.505s.528,1.075,3.088.9,5.935-3.261,7.021-3.537,1.151-.895,1.151-.895l.575,1.022,1.114.169s-.757-3.094.892-4.184-.742-9.865-9.088-7.749c0,0-6.369,1.167-6.455,4.723s.465,7.665,1.7,9.548" transform="translate(398.488 1314.063)" fill="#3a3f47"/>
    <path id="Trazado_210269" data-name="Trazado 210269" d="M113.231,1703.6s-.028-1.631-.767-1.788-7.772-1.124-8.68-.767l-.389,2.154s1.749,1.076,9.836.4" transform="translate(392.807 1241.646)" fill="#e2d2ca"/>
    <path id="Trazado_210273" data-name="Trazado 210273" d="M29.294,2153.44l.615,1.731,26-8.055-1.246-3.5Z" transform="translate(449.854 900.87)" fill="#918783"/>
    <path id="Trazado_214714" data-name="Trazado 214714" d="M0,0H2.955V28.264H0Z" transform="translate(503.697 3018.489)" fill="#918783"/>
    <path id="Trazado_210274" data-name="Trazado 210274" d="M167.45,2152.7l-.615,1.73-26-8.055,1.142-3.725Z" transform="translate(363.979 901.605)" fill="#918783"/>
    <path id="Trazado_210275" data-name="Trazado 210275" d="M149.133,2154.25v2.013l-8.3-9.883,1.142-3.725Z" transform="translate(363.98 901.605)" fill="#918783"/>
    <path id="Trazado_210276" data-name="Trazado 210276" d="M250.779,2188.655a2.43,2.43,0,1,1-2.43-2.43,2.429,2.429,0,0,1,2.43,2.43" transform="translate(283.08 868.063)" fill="#bfb2ac"/>
    <path id="Trazado_210277" data-name="Trazado 210277" d="M161.526,2188.655a2.43,2.43,0,1,1-2.429-2.43,2.429,2.429,0,0,1,2.429,2.43" transform="translate(351.793 868.063)" fill="#bfb2ac"/>
    <path id="Trazado_210278" data-name="Trazado 210278" d="M23.6,2188.655a2.43,2.43,0,1,1-2.429-2.43,2.429,2.429,0,0,1,2.429,2.43" transform="translate(457.983 868.063)" fill="#bfb2ac"/>
    <path id="Trazado_210279" data-name="Trazado 210279" d="M92,2003.033H55.645a2.465,2.465,0,0,1-2.465-2.465v-1.378a2.465,2.465,0,0,1,2.465-2.465H92a2.465,2.465,0,0,1,2.465,2.465v1.378A2.465,2.465,0,0,1,92,2003.033" transform="translate(431.465 1013.953)" fill="#e2d2ca"/>
    <path id="Trazado_214715" data-name="Trazado 214715" d="M0,0H2.355V72.55H0Z" transform="translate(596.909 2984.168)" fill="#706865"/>
    <path id="Trazado_214716" data-name="Trazado 214716" d="M0,0H61.081V43.09H0Z" transform="translate(520.116 2925.79)" fill="url(#linear-gradient-2)"/>
    <path id="Trazado_214717" data-name="Trazado 214717" d="M10.687,0H50.394A10.687,10.687,0,0,1,61.081,10.687V32.4A10.687,10.687,0,0,1,50.394,43.09H10.687A10.687,10.687,0,0,1,0,32.4V10.687A10.687,10.687,0,0,1,10.687,0Z" transform="translate(520.116 2925.79)" fill="none"/>
    <path id="Trazado_214718" data-name="Trazado 214718" d="M0,0H56.3V34.008H0Z" transform="translate(522.508 2928.12)" fill="#f5f7ff"/>
    <path id="Trazado_214719" data-name="Trazado 214719" d="M0,0H56.3V2.706H0Z" transform="translate(522.508 2928.12)" fill="#cecfd6"/>
    <path id="Trazado_210280" data-name="Trazado 210280" d="M236.189,1661.1H225.451a.822.822,0,0,1-.822-.822v-.873a.822.822,0,0,1,.822-.822h10.738a.822.822,0,0,1,.822.822v.873a.822.822,0,0,1-.822.822" transform="translate(299.471 1274.277)" fill="#cecfd6"/>
    <path id="Trazado_210281" data-name="Trazado 210281" d="M235.313,1700.514h-8.986a1.7,1.7,0,0,1-1.7-1.7v-20.266a1.7,1.7,0,0,1,1.7-1.7h8.986a1.7,1.7,0,0,1,1.7,1.7v20.266a1.7,1.7,0,0,1-1.7,1.7" transform="translate(299.471 1260.214)" fill="#cecfd6"/>
    <path id="Trazado_210282" data-name="Trazado 210282" d="M340.864,1845.32v-.767s-1.078-4.769-8.7-4.769-7.471,5.536-7.471,5.536Z" transform="translate(222.438 1134.777)" fill="#2e436e"/>
    <path id="Trazado_210283" data-name="Trazado 210283" d="M318.651,1832.981a7.526,7.526,0,0,0,2.263-.495c.607-.366,4.238-2.808,5.091-2.417s6.529,2.129,6.332,2.959-.722.75-1.123.6a29.189,29.189,0,0,0-4.886-.866s4.048,1.477,4.065,2.554-.847,1.34-1.231,1.748-.845,1.419-1.888,1.5-6.134-1.694-7.182-1.775a25.556,25.556,0,0,1-3.12-.106,29,29,0,0,1,1.678-3.7" transform="translate(228.384 1142.289)" fill="#eea886"/>
    <path id="Trazado_210284" data-name="Trazado 210284" d="M77.745,1713.331c-5.282-.928-10.841-2.261-10.841-2.261l-9.837-.4s-9.027,1.988-12.583,3.593c-.337.152-.339,8.054-1.264,10.125l2.948,6.219s1.7,12.318,2.056,17.8c.162,2.515-.459,24.306-.459,24.306s.884.436,7.6,1.176,23.487-.267,23.593-1.06-3.248-29.525-3.4-31.013c-.228-2.284.66-12.836.66-12.836,1.265,1.7,4.489,9.372,7.85,13.022,1.977,2.148,11.767,3.465,13.612,3.526,4.017.134,11.345.934,11.559.543.171-.235.638-6.5.179-6.657-.4-.134-14.009-.917-17.5-2.767-1.275-.677-5.088-8.99-5.088-8.99s-6.176-13.013-9.09-14.322" transform="translate(439.132 1234.179)" fill="#ffc955"/>
    <path id="Trazado_210285" data-name="Trazado 210285" d="M35.008,1845.6H16a4.733,4.733,0,0,1-4.734-4.733V1810.9A4.733,4.733,0,0,1,16,1806.167H35.008a4.733,4.733,0,0,1,4.733,4.733v29.968a4.733,4.733,0,0,1-4.733,4.733" transform="translate(463.731 1160.658)" fill="#e2d2ca"/>
    <path id="Trazado_210286" data-name="Trazado 210286" d="M63.413,1938.979a13.044,13.044,0,0,1-10.12-4.19c-5.692-6.284-4.669-17.33-4.623-17.8a1.584,1.584,0,0,1,3.153.312c-.012.126-.919,10.139,3.824,15.366a9.88,9.88,0,0,0,7.766,3.142,1.584,1.584,0,1,1,0,3.168" transform="translate(435.014 1076.438)" fill="#e2d2ca"/>
    <path id="Trazado_210288" data-name="Trazado 210288" d="M306.978,1730.775l.861,3.09a11.608,11.608,0,0,0,5.31,2.056q.518.064,1.051.081.191.006.383.006.567,0,1.12-.053a11.616,11.616,0,0,0,5.987-2.359c.165-1.022.342-2.152.5-3.21-.858-.319-3.59-1.248-5.313-1.831l-.072-.024-.112-.038-.292-.1-.268-.091-.691-.232h0l-.035-.012h-.02l-2.318.174-.389.029-.121.009-.053.013c-.14.036-.546.142-1.084.306h0c-1.373.42-3.6,1.218-4.439,2.183" transform="translate(236.073 1220.791)" fill="#d9c7c1"/>
    <path id="Trazado_210289" data-name="Trazado 210289" d="M329.482,1686.569s-2.779.469-2.308,4.821,2.925,3.968,3.089,3.962,2.468.052,2.589-5.268c0,0,.036-3.934-3.37-3.515" transform="translate(220.566 1252.757)" fill="#eea987"/>
    <path id="Trazado_210290" data-name="Trazado 210290" d="M331.818,1717.673a10.023,10.023,0,0,1-.073,2.181c-.169.39,2.232,1.623,3.724.219a15.4,15.4,0,0,1-.208-2.649c.094-.692-3.443.25-3.443.25" transform="translate(217.013 1229.175)" fill="#eea987"/>
    <path id="Trazado_210293" data-name="Trazado 210293" d="M326.268,1687.367c.1.6.186,1.038.186,1.038l.4.528a10.675,10.675,0,0,1,.038-1.351c.023-.07.051-.193.079-.326.046-.22.094-.469.127-.551a5.952,5.952,0,0,1,4.458.143s-.017.18-.016.38c0,.233.026.494.133.533.2.073.116,1.368.116,1.368l.323-.374s.094-.676.186-1.453v-.006c.021-.181.042-.367.062-.552a3.635,3.635,0,0,0-1.049-3.035,5.013,5.013,0,0,0-3.612.016,1.264,1.264,0,0,0-.537.141,5.161,5.161,0,0,0-.9,3.5" transform="translate(221.238 1255.181)" fill="#e8734d"/>
    <path id="Trazado_210295" data-name="Trazado 210295" d="M335.153,1728.182a3.028,3.028,0,0,1-2.158,1.42c-.9.077-1.673-1.059-2.037-1.617a5.432,5.432,0,0,1,4.2.2" transform="translate(217.611 1221.103)" fill="#eea987"/>
    <path id="Trazado_210296" data-name="Trazado 210296" d="M331.216,1727.3a7.708,7.708,0,0,0,1.779,1.542l-.753,1.16-1.284-2.291Z" transform="translate(217.611 1221.373)" fill="#eddad3"/>
    <path id="Trazado_210297" data-name="Trazado 210297" d="M341.626,1728.059a5.169,5.169,0,0,1-1.818,1.368l.826,1.195,1.444-2.09Z" transform="translate(210.798 1220.791)" fill="#eddad3"/>
    <path id="Trazado_210299" data-name="Trazado 210299" d="M303.74,1731.384l.018.065c.071.252.343,1.221.7,2.509q.2.174.41.338.236.186.481.36a11.607,11.607,0,0,0,5.31,2.056c-.173-4.042-.653-7.626-.653-7.626q-.568.149-1.077.3h0a24.741,24.741,0,0,0-4.977,1.88l-.012.006c-.134.075-.2.115-.2.115" transform="translate(238.566 1220)" fill="#323657"/>
    <path id="Trazado_210300" data-name="Trazado 210300" d="M350.029,1737.427a11.68,11.68,0,0,0,5.951-3.216c.072-.072.143-.146.212-.22.2-.868.341-1.434.349-1.471v0s-1.445-.949-6.555-2.313v0c0,.117,0,3.4.042,7.218" transform="translate(202.962 1219.139)" fill="#323657"/>
    <path id="Trazado_210301" data-name="Trazado 210301" d="M338.16,1737.545c.048,1.064.052,3.13.036,5.486.127,0,.255.006.383.006q.567,0,1.12-.053a35.856,35.856,0,0,0-.776-5.442c-.057-.236-.091-.353-.091-.353l-.685.113c0,.074.009.155.013.243" transform="translate(212.077 1213.763)" fill="#5073ab"/>
    <path id="Trazado_214736" data-name="Trazado 214736" d="M10,0H390a10,10,0,0,1,10,10V32.121a10,10,0,0,1-10,10H10a10,10,0,0,1-10-10V10A10,10,0,0,1,10,0Z" transform="translate(915 2693.985)" fill="#e8e8e8"/>
    <path id="Trazado_214737" data-name="Trazado 214737" d="M10,0H32.963a10,10,0,0,1,10,10V32.963a10,10,0,0,1-10,10H10a10,10,0,0,1-10-10V10A10,10,0,0,1,10,0Z" transform="translate(915 2693.985)" fill="#00a3be"/>
    <path id="Trazado_214738" data-name="Trazado 214738" d="M10.98-3.187H5.344L4.359,0H-.035L6.223-17.062H10.09L16.395,0H11.977ZM6.328-6.363H10l-1.84-5.918Z" transform="translate(928.479 2724.04)" fill="#fff"/>
    <path id="Trazado_214739" data-name="Trazado 214739" d="M3.258-11.375,6.977-2.094,10.7-11.375h1.945V0h-1.5V-4.43l.141-4.781L7.547,0H6.4L2.672-9.187,2.82-4.43V0H1.32V-11.375ZM14.68-4.3a4.993,4.993,0,0,1,.488-2.234A3.643,3.643,0,0,1,16.527-8.07a3.7,3.7,0,0,1,1.988-.539,3.565,3.565,0,0,1,2.793,1.2,4.6,4.6,0,0,1,1.066,3.18v.1A5.036,5.036,0,0,1,21.9-1.918,3.589,3.589,0,0,1,20.551-.391a3.743,3.743,0,0,1-2.02.547,3.556,3.556,0,0,1-2.785-1.2A4.575,4.575,0,0,1,14.68-4.2Zm1.453.172a3.616,3.616,0,0,0,.652,2.258,2.088,2.088,0,0,0,1.746.852,2.075,2.075,0,0,0,1.75-.863A3.955,3.955,0,0,0,20.93-4.3a3.61,3.61,0,0,0-.66-2.254,2.1,2.1,0,0,0-1.754-.863,2.075,2.075,0,0,0-1.727.852A3.925,3.925,0,0,0,16.133-4.133Zm7.7-.164a4.952,4.952,0,0,1,.922-3.129,2.915,2.915,0,0,1,2.414-1.184,2.932,2.932,0,0,1,2.352,1.016V-12h1.445V0H29.641l-.07-.906A2.943,2.943,0,0,1,27.156.156a2.887,2.887,0,0,1-2.395-1.2,5.008,5.008,0,0,1-.926-3.141Zm1.445.164a3.749,3.749,0,0,0,.594,2.25,1.92,1.92,0,0,0,1.641.813A2.108,2.108,0,0,0,29.523-2.3V-6.187a2.125,2.125,0,0,0-1.992-1.2,1.929,1.929,0,0,0-1.656.82A4.128,4.128,0,0,0,25.281-4.133ZM36.719.156a3.693,3.693,0,0,1-2.8-1.129,4.19,4.19,0,0,1-1.078-3.02v-.266a5.073,5.073,0,0,1,.48-2.246,3.748,3.748,0,0,1,1.344-1.547,3.378,3.378,0,0,1,1.871-.559A3.166,3.166,0,0,1,39.1-7.523a4.7,4.7,0,0,1,.914,3.109v.6H34.289a3,3,0,0,0,.73,2.02,2.3,2.3,0,0,0,1.777.77,2.517,2.517,0,0,0,1.3-.312,3.259,3.259,0,0,0,.93-.828l.883.688A3.55,3.55,0,0,1,36.719.156Zm-.18-7.578a1.928,1.928,0,0,0-1.469.637A3.1,3.1,0,0,0,34.336-5H38.57v-.109a2.753,2.753,0,0,0-.594-1.707A1.815,1.815,0,0,0,36.539-7.422ZM43.258,0H41.813V-12h1.445Zm1.93-4.3a4.993,4.993,0,0,1,.488-2.234A3.643,3.643,0,0,1,47.035-8.07a3.7,3.7,0,0,1,1.988-.539,3.565,3.565,0,0,1,2.793,1.2,4.6,4.6,0,0,1,1.066,3.18v.1a5.036,5.036,0,0,1-.473,2.215A3.589,3.589,0,0,1,51.059-.391a3.743,3.743,0,0,1-2.02.547,3.556,3.556,0,0,1-2.785-1.2A4.575,4.575,0,0,1,45.188-4.2Zm1.453.172a3.616,3.616,0,0,0,.652,2.258,2.088,2.088,0,0,0,1.746.852,2.075,2.075,0,0,0,1.75-.863A3.955,3.955,0,0,0,51.438-4.3a3.61,3.61,0,0,0-.66-2.254,2.1,2.1,0,0,0-1.754-.863A2.075,2.075,0,0,0,47.3-6.57,3.925,3.925,0,0,0,46.641-4.133ZM62.164.156a3.693,3.693,0,0,1-2.8-1.129,4.19,4.19,0,0,1-1.078-3.02v-.266A5.073,5.073,0,0,1,58.77-6.5a3.748,3.748,0,0,1,1.344-1.547,3.378,3.378,0,0,1,1.871-.559,3.166,3.166,0,0,1,2.563,1.086,4.7,4.7,0,0,1,.914,3.109v.6H59.734a3,3,0,0,0,.73,2.02,2.3,2.3,0,0,0,1.777.77,2.517,2.517,0,0,0,1.3-.312,3.259,3.259,0,0,0,.93-.828l.883.688A3.55,3.55,0,0,1,62.164.156Zm-.18-7.578a1.928,1.928,0,0,0-1.469.637A3.1,3.1,0,0,0,59.781-5h4.234v-.109a2.753,2.753,0,0,0-.594-1.707A1.815,1.815,0,0,0,61.984-7.422ZM68.7,0H67.258V-12H68.7Zm7.641-8.453.047,1.063a3.08,3.08,0,0,1,2.531-1.219q2.68,0,2.7,3.023V0H80.18V-5.594a1.946,1.946,0,0,0-.418-1.352,1.675,1.675,0,0,0-1.277-.437,2.086,2.086,0,0,0-1.234.375,2.546,2.546,0,0,0-.828.984V0H74.977V-8.453ZM87.313.156a3.693,3.693,0,0,1-2.8-1.129,4.19,4.19,0,0,1-1.078-3.02v-.266a5.073,5.073,0,0,1,.48-2.246,3.748,3.748,0,0,1,1.344-1.547,3.378,3.378,0,0,1,1.871-.559A3.166,3.166,0,0,1,89.7-7.523a4.7,4.7,0,0,1,.914,3.109v.6H84.883a3,3,0,0,0,.73,2.02,2.3,2.3,0,0,0,1.777.77,2.517,2.517,0,0,0,1.3-.312,3.259,3.259,0,0,0,.93-.828l.883.688A3.55,3.55,0,0,1,87.313.156Zm-.18-7.578a1.928,1.928,0,0,0-1.469.637A3.1,3.1,0,0,0,84.93-5h4.234v-.109a2.753,2.753,0,0,0-.594-1.707A1.815,1.815,0,0,0,87.133-7.422Zm4.8,3.125a4.968,4.968,0,0,1,.914-3.145,2.923,2.923,0,0,1,2.422-1.168,2.908,2.908,0,0,1,2.414,1.094l.07-.937h1.32V-.2a3.439,3.439,0,0,1-.973,2.586,3.589,3.589,0,0,1-2.613.945A4.348,4.348,0,0,1,93.7,2.938a3.08,3.08,0,0,1-1.336-1.07L93.117,1a2.826,2.826,0,0,0,2.273,1.148,2.214,2.214,0,0,0,1.645-.594,2.269,2.269,0,0,0,.59-1.672V-.844a2.971,2.971,0,0,1-2.367,1,2.887,2.887,0,0,1-2.4-1.2A5.224,5.224,0,0,1,91.938-4.3Zm1.453.164a3.79,3.79,0,0,0,.586,2.246,1.9,1.9,0,0,0,1.641.816,2.117,2.117,0,0,0,2.008-1.242V-6.172a2.142,2.142,0,0,0-1.992-1.211,1.921,1.921,0,0,0-1.648.82A4.128,4.128,0,0,0,93.391-4.133Zm7.484-.172a4.993,4.993,0,0,1,.488-2.234,3.643,3.643,0,0,1,1.359-1.531,3.7,3.7,0,0,1,1.988-.539,3.565,3.565,0,0,1,2.793,1.2,4.6,4.6,0,0,1,1.066,3.18v.1a5.036,5.036,0,0,1-.473,2.215,3.589,3.589,0,0,1-1.352,1.527,3.743,3.743,0,0,1-2.02.547,3.556,3.556,0,0,1-2.785-1.2A4.575,4.575,0,0,1,100.875-4.2Zm1.453.172a3.616,3.616,0,0,0,.652,2.258,2.088,2.088,0,0,0,1.746.852,2.075,2.075,0,0,0,1.75-.863,3.955,3.955,0,0,0,.648-2.418,3.61,3.61,0,0,0-.66-2.254,2.1,2.1,0,0,0-1.754-.863,2.075,2.075,0,0,0-1.727.852A3.925,3.925,0,0,0,102.328-4.133Zm11.445,3.109a2.082,2.082,0,0,0,1.352-.469,1.649,1.649,0,0,0,.641-1.172h1.367a2.621,2.621,0,0,1-.5,1.383A3.293,3.293,0,0,1,115.4-.234a3.55,3.55,0,0,1-1.629.391A3.482,3.482,0,0,1,111.027-1a4.59,4.59,0,0,1-1.02-3.152v-.242a5.089,5.089,0,0,1,.453-2.2,3.451,3.451,0,0,1,1.3-1.492,3.7,3.7,0,0,1,2-.531,3.39,3.39,0,0,1,2.363.852,3.043,3.043,0,0,1,1,2.211h-1.367a1.992,1.992,0,0,0-.621-1.348,1.932,1.932,0,0,0-1.379-.527,2.023,2.023,0,0,0-1.707.793,3.724,3.724,0,0,0-.605,2.293v.273a3.65,3.65,0,0,0,.6,2.25A2.033,2.033,0,0,0,113.773-1.023ZM120.328,0h-1.445V-8.453h1.445Zm-1.562-10.7a.863.863,0,0,1,.215-.594.807.807,0,0,1,.637-.242.819.819,0,0,1,.641.242.854.854,0,0,1,.219.594.826.826,0,0,1-.219.586.834.834,0,0,1-.641.234.821.821,0,0,1-.637-.234A.834.834,0,0,1,118.766-10.7ZM122.258-4.3a4.993,4.993,0,0,1,.488-2.234,3.643,3.643,0,0,1,1.359-1.531,3.7,3.7,0,0,1,1.988-.539,3.565,3.565,0,0,1,2.793,1.2,4.6,4.6,0,0,1,1.066,3.18v.1a5.036,5.036,0,0,1-.473,2.215,3.589,3.589,0,0,1-1.352,1.527,3.743,3.743,0,0,1-2.02.547,3.556,3.556,0,0,1-2.785-1.2A4.575,4.575,0,0,1,122.258-4.2Zm1.453.172a3.616,3.616,0,0,0,.652,2.258,2.088,2.088,0,0,0,1.746.852,2.075,2.075,0,0,0,1.75-.863,3.954,3.954,0,0,0,.648-2.418,3.61,3.61,0,0,0-.66-2.254,2.1,2.1,0,0,0-1.754-.863,2.075,2.075,0,0,0-1.727.852A3.925,3.925,0,0,0,123.711-4.133Zm11.961-.484a12.079,12.079,0,0,1,.473-3.391,9.85,9.85,0,0,1,1.41-2.953,6,6,0,0,1,1.945-1.875l.3.953a6.222,6.222,0,0,0-1.871,2.672,11.583,11.583,0,0,0-.8,4.023l-.008.664a11.643,11.643,0,0,0,1.1,5.234A6.252,6.252,0,0,0,139.8,2.789l-.3.883a6.192,6.192,0,0,1-1.984-1.937A10.859,10.859,0,0,1,135.672-4.617ZM142.766,0H141.32V-12h1.445Zm3.883,0H145.2V-8.453h1.445Zm-1.562-10.7a.863.863,0,0,1,.215-.594.807.807,0,0,1,.637-.242.819.819,0,0,1,.641.242.854.854,0,0,1,.219.594.826.826,0,0,1-.219.586.834.834,0,0,1-.641.234.821.821,0,0,1-.637-.234A.834.834,0,0,1,145.086-10.7ZM152.469.156a3.693,3.693,0,0,1-2.8-1.129,4.19,4.19,0,0,1-1.078-3.02v-.266a5.073,5.073,0,0,1,.48-2.246,3.748,3.748,0,0,1,1.344-1.547,3.378,3.378,0,0,1,1.871-.559,3.166,3.166,0,0,1,2.563,1.086,4.7,4.7,0,0,1,.914,3.109v.6h-5.727a3,3,0,0,0,.73,2.02,2.3,2.3,0,0,0,1.777.77,2.517,2.517,0,0,0,1.3-.312,3.258,3.258,0,0,0,.93-.828l.883.688A3.55,3.55,0,0,1,152.469.156Zm-.18-7.578a1.928,1.928,0,0,0-1.469.637A3.1,3.1,0,0,0,150.086-5h4.234v-.109a2.753,2.753,0,0,0-.594-1.707A1.815,1.815,0,0,0,152.289-7.422ZM158.8-8.453l.047,1.063a3.08,3.08,0,0,1,2.531-1.219q2.68,0,2.7,3.023V0h-1.445V-5.594a1.946,1.946,0,0,0-.418-1.352,1.675,1.675,0,0,0-1.277-.437,2.086,2.086,0,0,0-1.234.375,2.546,2.546,0,0,0-.828.984V0h-1.445V-8.453Zm8.82,7.273h4.945V0h-6.711V-1.062l4.664-6.2H165.93v-1.2h6.406V-7.43ZM173.688-4.3a4.993,4.993,0,0,1,.488-2.234,3.642,3.642,0,0,1,1.359-1.531,3.7,3.7,0,0,1,1.988-.539,3.565,3.565,0,0,1,2.793,1.2,4.6,4.6,0,0,1,1.066,3.18v.1a5.036,5.036,0,0,1-.473,2.215,3.589,3.589,0,0,1-1.352,1.527,3.743,3.743,0,0,1-2.02.547,3.556,3.556,0,0,1-2.785-1.2A4.575,4.575,0,0,1,173.688-4.2Zm1.453.172a3.616,3.616,0,0,0,.652,2.258,2.088,2.088,0,0,0,1.746.852,2.075,2.075,0,0,0,1.75-.863,3.954,3.954,0,0,0,.648-2.418,3.61,3.61,0,0,0-.66-2.254,2.1,2.1,0,0,0-1.754-.863,2.075,2.075,0,0,0-1.727.852A3.925,3.925,0,0,0,175.141-4.133Zm20.609.523a4.185,4.185,0,0,1-1.332,2.785,4.365,4.365,0,0,1-2.98.98,4.008,4.008,0,0,1-3.23-1.445,5.815,5.815,0,0,1-1.215-3.867V-6.25a6.481,6.481,0,0,1,.566-2.789,4.231,4.231,0,0,1,1.605-1.848,4.47,4.47,0,0,1,2.406-.645,4.11,4.11,0,0,1,2.906,1.012,4.235,4.235,0,0,1,1.273,2.8h-1.508a3.268,3.268,0,0,0-.848-1.975,2.565,2.565,0,0,0-1.824-.611,2.684,2.684,0,0,0-2.254,1.063,4.882,4.882,0,0,0-.816,3.026v1.1a5.018,5.018,0,0,0,.773,2.948,2.5,2.5,0,0,0,2.164,1.095,2.887,2.887,0,0,0,1.918-.566,3.143,3.143,0,0,0,.887-1.973ZM202.789,0a3.036,3.036,0,0,1-.2-.891A3.225,3.225,0,0,1,200.18.156a2.984,2.984,0,0,1-2.051-.707,2.287,2.287,0,0,1-.8-1.793,2.39,2.39,0,0,1,1-2.051,4.733,4.733,0,0,1,2.824-.73h1.406v-.664A1.623,1.623,0,0,0,202.109-7a1.821,1.821,0,0,0-1.336-.449,2.107,2.107,0,0,0-1.3.391,1.151,1.151,0,0,0-.523.945H197.5a2,2,0,0,1,.449-1.223,3.066,3.066,0,0,1,1.219-.934,4.1,4.1,0,0,1,1.691-.344,3.342,3.342,0,0,1,2.289.73,2.635,2.635,0,0,1,.859,2.012v3.891a4.757,4.757,0,0,0,.3,1.852V0Zm-2.4-1.1a2.54,2.54,0,0,0,1.289-.352,2.127,2.127,0,0,0,.883-.914V-4.1H201.43q-2.656,0-2.656,1.555a1.316,1.316,0,0,0,.453,1.063A1.742,1.742,0,0,0,200.391-1.1Zm7.25-7.352.047,1.063a3.08,3.08,0,0,1,2.531-1.219q2.68,0,2.7,3.023V0h-1.445V-5.594a1.946,1.946,0,0,0-.418-1.352,1.675,1.675,0,0,0-1.277-.437,2.086,2.086,0,0,0-1.234.375,2.546,2.546,0,0,0-.828.984V0h-1.445V-8.453Zm10.25,6.492,2.094-6.492h1.477L218.43,0h-1.1l-3.062-8.453h1.477ZM227.953,0a3.036,3.036,0,0,1-.2-.891A3.225,3.225,0,0,1,225.344.156a2.984,2.984,0,0,1-2.051-.707,2.287,2.287,0,0,1-.8-1.793,2.39,2.39,0,0,1,1-2.051,4.733,4.733,0,0,1,2.824-.73h1.406v-.664A1.623,1.623,0,0,0,227.273-7a1.821,1.821,0,0,0-1.336-.449,2.107,2.107,0,0,0-1.3.391,1.151,1.151,0,0,0-.523.945h-1.453a2,2,0,0,1,.449-1.223,3.066,3.066,0,0,1,1.219-.934,4.1,4.1,0,0,1,1.691-.344,3.342,3.342,0,0,1,2.289.73,2.635,2.635,0,0,1,.859,2.012v3.891a4.757,4.757,0,0,0,.3,1.852V0Zm-2.4-1.1a2.54,2.54,0,0,0,1.289-.352,2.127,2.127,0,0,0,.883-.914V-4.1h-1.133q-2.656,0-2.656,1.555a1.316,1.316,0,0,0,.453,1.063A1.742,1.742,0,0,0,225.555-1.1Zm10.8-1.141a1.064,1.064,0,0,0-.441-.91,4.249,4.249,0,0,0-1.539-.559,7.277,7.277,0,0,1-1.742-.562,2.479,2.479,0,0,1-.953-.781,1.869,1.869,0,0,1-.309-1.078,2.193,2.193,0,0,1,.879-1.758,3.432,3.432,0,0,1,2.246-.719,3.532,3.532,0,0,1,2.332.742,2.357,2.357,0,0,1,.895,1.9h-1.453a1.3,1.3,0,0,0-.5-1.023,1.888,1.888,0,0,0-1.27-.43,1.976,1.976,0,0,0-1.234.344,1.082,1.082,0,0,0-.445.9.877.877,0,0,0,.414.789,5.1,5.1,0,0,0,1.5.508,7.8,7.8,0,0,1,1.754.578,2.558,2.558,0,0,1,1,.809,1.988,1.988,0,0,1,.324,1.152A2.163,2.163,0,0,1,236.9-.527a3.8,3.8,0,0,1-2.352.684,4.257,4.257,0,0,1-1.8-.359,2.922,2.922,0,0,1-1.223-1,2.42,2.42,0,0,1-.441-1.395h1.445a1.5,1.5,0,0,0,.582,1.152,2.258,2.258,0,0,0,1.434.426,2.331,2.331,0,0,0,1.316-.332A1.02,1.02,0,0,0,236.359-2.242Zm6.664-2.3a12.084,12.084,0,0,1-.457,3.34,9.876,9.876,0,0,1-1.4,2.949A6.127,6.127,0,0,1,239.2,3.672l-.3-.883a6.281,6.281,0,0,0,1.934-2.863,12.387,12.387,0,0,0,.746-4.309v-.25a12.861,12.861,0,0,0-.344-3.051,10.3,10.3,0,0,0-.957-2.527,5.838,5.838,0,0,0-1.379-1.742l.3-.883a6.1,6.1,0,0,1,1.965,1.906,9.9,9.9,0,0,1,1.4,2.945A12.364,12.364,0,0,1,243.023-4.539Z" transform="translate(993 2721.54)" fill="#12263f"/>
    <path id="Trazado_214732" data-name="Trazado 214732" d="M10,0H390a10,10,0,0,1,10,10V32.121a10,10,0,0,1-10,10H10a10,10,0,0,1-10-10V10A10,10,0,0,1,10,0Z" transform="translate(915 2742.27)" fill="#e8e8e8"/>
    <path id="Trazado_214733" data-name="Trazado 214733" d="M10,0H32.963a10,10,0,0,1,10,10V32.963a10,10,0,0,1-10,10H10a10,10,0,0,1-10-10V10A10,10,0,0,1,10,0Z" transform="translate(915 2742.27)" fill="#00a3be"/>
    <path id="Trazado_214734" data-name="Trazado 214734" d="M1.289,0V-17.062H7.418a8.679,8.679,0,0,1,5.01,1.207,4.016,4.016,0,0,1,1.717,3.5,4.06,4.06,0,0,1-.609,2.262,3.551,3.551,0,0,1-1.793,1.383,3.6,3.6,0,0,1,2.051,1.313,3.816,3.816,0,0,1,.715,2.344A4.518,4.518,0,0,1,12.92-1.283,7.556,7.556,0,0,1,8.215,0ZM5.4-7.254v4.09H8.1a2.564,2.564,0,0,0,1.711-.51,1.784,1.784,0,0,0,.6-1.436A1.891,1.891,0,0,0,8.285-7.254Zm0-2.7H7.547a3.047,3.047,0,0,0,1.922-.494,1.752,1.752,0,0,0,.574-1.422,1.839,1.839,0,0,0-.621-1.557,3.324,3.324,0,0,0-2-.476H5.4Z" transform="translate(928.479 2772.324)" fill="#fff"/>
    <path id="Trazado_214735" data-name="Trazado 214735" d="M7.594-5.023H2.82V0H1.32V-11.375H8.367v1.227H2.82v3.9H7.594ZM11.508,0H10.063V-8.453h1.445ZM9.945-10.7a.863.863,0,0,1,.215-.594.807.807,0,0,1,.637-.242.819.819,0,0,1,.641.242.854.854,0,0,1,.219.594.826.826,0,0,1-.219.586.834.834,0,0,1-.641.234.821.821,0,0,1-.637-.234A.834.834,0,0,1,9.945-10.7ZM15.391,0H13.945V-12h1.445Zm1.93-4.3a4.993,4.993,0,0,1,.488-2.234A3.643,3.643,0,0,1,19.168-8.07a3.7,3.7,0,0,1,1.988-.539,3.565,3.565,0,0,1,2.793,1.2,4.6,4.6,0,0,1,1.066,3.18v.1a5.036,5.036,0,0,1-.473,2.215A3.589,3.589,0,0,1,23.191-.391a3.743,3.743,0,0,1-2.02.547,3.556,3.556,0,0,1-2.785-1.2A4.575,4.575,0,0,1,17.32-4.2Zm1.453.172a3.616,3.616,0,0,0,.652,2.258,2.088,2.088,0,0,0,1.746.852,2.075,2.075,0,0,0,1.75-.863A3.955,3.955,0,0,0,23.57-4.3a3.61,3.61,0,0,0-.66-2.254,2.1,2.1,0,0,0-1.754-.863,2.075,2.075,0,0,0-1.727.852A3.925,3.925,0,0,0,18.773-4.133ZM31.75-2.242a1.064,1.064,0,0,0-.441-.91,4.249,4.249,0,0,0-1.539-.559,7.277,7.277,0,0,1-1.742-.562,2.479,2.479,0,0,1-.953-.781,1.869,1.869,0,0,1-.309-1.078,2.193,2.193,0,0,1,.879-1.758,3.432,3.432,0,0,1,2.246-.719,3.532,3.532,0,0,1,2.332.742,2.357,2.357,0,0,1,.895,1.9H31.664a1.3,1.3,0,0,0-.5-1.023,1.888,1.888,0,0,0-1.27-.43,1.976,1.976,0,0,0-1.234.344,1.082,1.082,0,0,0-.445.9.877.877,0,0,0,.414.789,5.1,5.1,0,0,0,1.5.508,7.8,7.8,0,0,1,1.754.578,2.558,2.558,0,0,1,1,.809A1.988,1.988,0,0,1,33.2-2.344a2.163,2.163,0,0,1-.906,1.816,3.8,3.8,0,0,1-2.352.684,4.257,4.257,0,0,1-1.8-.359,2.922,2.922,0,0,1-1.223-1A2.42,2.42,0,0,1,26.477-2.6h1.445A1.5,1.5,0,0,0,28.5-1.449a2.258,2.258,0,0,0,1.434.426,2.331,2.331,0,0,0,1.316-.332A1.02,1.02,0,0,0,31.75-2.242ZM34.7-4.3a4.993,4.993,0,0,1,.488-2.234A3.643,3.643,0,0,1,36.543-8.07a3.7,3.7,0,0,1,1.988-.539,3.565,3.565,0,0,1,2.793,1.2,4.6,4.6,0,0,1,1.066,3.18v.1a5.036,5.036,0,0,1-.473,2.215A3.589,3.589,0,0,1,40.566-.391a3.743,3.743,0,0,1-2.02.547,3.556,3.556,0,0,1-2.785-1.2A4.575,4.575,0,0,1,34.7-4.2Zm1.453.172A3.616,3.616,0,0,0,36.8-1.875a2.088,2.088,0,0,0,1.746.852,2.075,2.075,0,0,0,1.75-.863A3.955,3.955,0,0,0,40.945-4.3a3.61,3.61,0,0,0-.66-2.254,2.1,2.1,0,0,0-1.754-.863A2.075,2.075,0,0,0,36.8-6.57,3.925,3.925,0,0,0,36.148-4.133ZM44.914,0V-7.336H43.578V-8.453h1.336V-9.32a2.878,2.878,0,0,1,.727-2.1,2.745,2.745,0,0,1,2.055-.742,3.816,3.816,0,0,1,.992.132l-.078,1.165a4.151,4.151,0,0,0-.781-.07,1.41,1.41,0,0,0-1.086.411,1.669,1.669,0,0,0-.383,1.18v.893h1.8v1.117h-1.8V0Zm6.414,0H49.875V-8.453h1.453Zm.016-11.977h1.75L51-9.68l-1.164,0ZM58.93,0a3.036,3.036,0,0,1-.2-.891A3.225,3.225,0,0,1,56.32.156,2.984,2.984,0,0,1,54.27-.551a2.287,2.287,0,0,1-.8-1.793,2.39,2.39,0,0,1,1-2.051,4.733,4.733,0,0,1,2.824-.73H58.7v-.664A1.623,1.623,0,0,0,58.25-7a1.821,1.821,0,0,0-1.336-.449,2.107,2.107,0,0,0-1.3.391,1.151,1.151,0,0,0-.523.945H53.641a2,2,0,0,1,.449-1.223,3.066,3.066,0,0,1,1.219-.934A4.1,4.1,0,0,1,57-8.609a3.342,3.342,0,0,1,2.289.73,2.635,2.635,0,0,1,.859,2.012v3.891a4.757,4.757,0,0,0,.3,1.852V0Zm-2.4-1.1a2.54,2.54,0,0,0,1.289-.352,2.127,2.127,0,0,0,.883-.914V-4.1H57.57q-2.656,0-2.656,1.555a1.316,1.316,0,0,0,.453,1.063A1.742,1.742,0,0,0,56.531-1.1ZM69.141-2.117l1.969-6.336h1.547L69.258,1.3q-.789,2.109-2.508,2.109l-.273-.023-.539-.1V2.117l.391.031a1.923,1.923,0,0,0,1.145-.3A2.149,2.149,0,0,0,68.148.766l.32-.859L65.453-8.453h1.578ZM80.7-1.961l2.094-6.492h1.477L81.234,0h-1.1L77.07-8.453h1.477ZM90.758,0a3.036,3.036,0,0,1-.2-.891A3.225,3.225,0,0,1,88.148.156,2.984,2.984,0,0,1,86.1-.551a2.288,2.288,0,0,1-.8-1.793,2.39,2.39,0,0,1,1-2.051,4.733,4.733,0,0,1,2.824-.73h1.406v-.664A1.623,1.623,0,0,0,90.078-7a1.821,1.821,0,0,0-1.336-.449,2.108,2.108,0,0,0-1.3.391,1.151,1.151,0,0,0-.523.945H85.469a2,2,0,0,1,.449-1.223,3.066,3.066,0,0,1,1.219-.934,4.1,4.1,0,0,1,1.691-.344,3.342,3.342,0,0,1,2.289.73,2.635,2.635,0,0,1,.859,2.012v3.891a4.757,4.757,0,0,0,.3,1.852V0Zm-2.4-1.1a2.54,2.54,0,0,0,1.289-.352,2.127,2.127,0,0,0,.883-.914V-4.1H89.4q-2.656,0-2.656,1.555A1.316,1.316,0,0,0,87.2-1.484,1.742,1.742,0,0,0,88.359-1.1ZM95.813,0H94.367V-12h1.445Zm1.93-4.3a4.993,4.993,0,0,1,.488-2.234A3.643,3.643,0,0,1,99.59-8.07a3.7,3.7,0,0,1,1.988-.539,3.565,3.565,0,0,1,2.793,1.2,4.6,4.6,0,0,1,1.066,3.18v.1a5.036,5.036,0,0,1-.473,2.215,3.589,3.589,0,0,1-1.352,1.527,3.743,3.743,0,0,1-2.02.547,3.556,3.556,0,0,1-2.785-1.2A4.575,4.575,0,0,1,97.742-4.2Zm1.453.172a3.616,3.616,0,0,0,.652,2.258,2.088,2.088,0,0,0,1.746.852,2.075,2.075,0,0,0,1.75-.863,3.955,3.955,0,0,0,.648-2.418,3.61,3.61,0,0,0-.66-2.254,2.1,2.1,0,0,0-1.754-.863,2.075,2.075,0,0,0-1.727.852A3.925,3.925,0,0,0,99.2-4.133Zm12.141-3.023a4.331,4.331,0,0,0-.711-.055A1.9,1.9,0,0,0,108.7-6V0H107.25V-8.453h1.406l.023.977A2.251,2.251,0,0,1,110.7-8.609a1.477,1.477,0,0,1,.641.109ZM116.023.156a3.693,3.693,0,0,1-2.8-1.129,4.19,4.19,0,0,1-1.078-3.02v-.266a5.073,5.073,0,0,1,.48-2.246,3.748,3.748,0,0,1,1.344-1.547,3.378,3.378,0,0,1,1.871-.559,3.166,3.166,0,0,1,2.563,1.086,4.7,4.7,0,0,1,.914,3.109v.6h-5.727a3,3,0,0,0,.73,2.02,2.3,2.3,0,0,0,1.777.77,2.517,2.517,0,0,0,1.3-.312,3.259,3.259,0,0,0,.93-.828l.883.688A3.55,3.55,0,0,1,116.023.156Zm-.18-7.578a1.928,1.928,0,0,0-1.469.637A3.1,3.1,0,0,0,113.641-5h4.234v-.109a2.753,2.753,0,0,0-.594-1.707A1.815,1.815,0,0,0,115.844-7.422Zm10.07,5.18a1.064,1.064,0,0,0-.441-.91,4.249,4.249,0,0,0-1.539-.559,7.277,7.277,0,0,1-1.742-.562,2.479,2.479,0,0,1-.953-.781,1.869,1.869,0,0,1-.309-1.078,2.193,2.193,0,0,1,.879-1.758,3.432,3.432,0,0,1,2.246-.719,3.532,3.532,0,0,1,2.332.742,2.357,2.357,0,0,1,.895,1.9h-1.453a1.3,1.3,0,0,0-.5-1.023,1.888,1.888,0,0,0-1.27-.43,1.976,1.976,0,0,0-1.234.344,1.082,1.082,0,0,0-.445.9.877.877,0,0,0,.414.789,5.1,5.1,0,0,0,1.5.508,7.8,7.8,0,0,1,1.754.578,2.558,2.558,0,0,1,1,.809,1.988,1.988,0,0,1,.324,1.152,2.163,2.163,0,0,1-.906,1.816A3.8,3.8,0,0,1,124.1.156,4.257,4.257,0,0,1,122.3-.2a2.922,2.922,0,0,1-1.223-1,2.42,2.42,0,0,1-.441-1.395h1.445a1.5,1.5,0,0,0,.582,1.152,2.258,2.258,0,0,0,1.434.426,2.331,2.331,0,0,0,1.316-.332A1.02,1.02,0,0,0,125.914-2.242Zm10.68,1.219a2.082,2.082,0,0,0,1.352-.469,1.649,1.649,0,0,0,.641-1.172h1.367a2.621,2.621,0,0,1-.5,1.383,3.293,3.293,0,0,1-1.23,1.047,3.55,3.55,0,0,1-1.629.391A3.482,3.482,0,0,1,133.848-1a4.59,4.59,0,0,1-1.02-3.152v-.242a5.089,5.089,0,0,1,.453-2.2,3.451,3.451,0,0,1,1.3-1.492,3.7,3.7,0,0,1,2-.531,3.39,3.39,0,0,1,2.363.852,3.043,3.043,0,0,1,1,2.211h-1.367a1.992,1.992,0,0,0-.621-1.348,1.932,1.932,0,0,0-1.379-.527,2.023,2.023,0,0,0-1.707.793,3.724,3.724,0,0,0-.605,2.293v.273a3.65,3.65,0,0,0,.6,2.25A2.033,2.033,0,0,0,136.594-1.023ZM141.2-4.3a4.993,4.993,0,0,1,.488-2.234,3.642,3.642,0,0,1,1.359-1.531,3.7,3.7,0,0,1,1.988-.539,3.565,3.565,0,0,1,2.793,1.2,4.6,4.6,0,0,1,1.066,3.18v.1a5.036,5.036,0,0,1-.473,2.215,3.589,3.589,0,0,1-1.352,1.527,3.743,3.743,0,0,1-2.02.547,3.556,3.556,0,0,1-2.785-1.2A4.575,4.575,0,0,1,141.2-4.2Zm1.453.172a3.616,3.616,0,0,0,.652,2.258,2.088,2.088,0,0,0,1.746.852,2.075,2.075,0,0,0,1.75-.863,3.954,3.954,0,0,0,.648-2.418,3.61,3.61,0,0,0-.66-2.254,2.1,2.1,0,0,0-1.754-.863,2.075,2.075,0,0,0-1.727.852A3.925,3.925,0,0,0,142.648-4.133Zm12.141-3.023a4.331,4.331,0,0,0-.711-.055A1.9,1.9,0,0,0,152.148-6V0H150.7V-8.453h1.406l.023.977a2.251,2.251,0,0,1,2.016-1.133,1.477,1.477,0,0,1,.641.109Zm8.469,3.023a5.062,5.062,0,0,1-.883,3.109,2.829,2.829,0,0,1-2.391,1.18,3.1,3.1,0,0,1-2.422-.977V3.25h-1.445v-11.7h1.32l.07.938a2.977,2.977,0,0,1,2.453-1.094,2.882,2.882,0,0,1,2.41,1.148,5.117,5.117,0,0,1,.887,3.2ZM161.813-4.3a3.735,3.735,0,0,0-.609-2.258,1.963,1.963,0,0,0-1.672-.828,2.125,2.125,0,0,0-1.969,1.164V-2.18a2.129,2.129,0,0,0,1.984,1.156,1.954,1.954,0,0,0,1.652-.824A4.077,4.077,0,0,0,161.813-4.3Zm2.9-.008a4.993,4.993,0,0,1,.488-2.234,3.642,3.642,0,0,1,1.359-1.531,3.7,3.7,0,0,1,1.988-.539,3.565,3.565,0,0,1,2.793,1.2,4.6,4.6,0,0,1,1.066,3.18v.1a5.036,5.036,0,0,1-.473,2.215,3.589,3.589,0,0,1-1.352,1.527,3.743,3.743,0,0,1-2.02.547,3.556,3.556,0,0,1-2.785-1.2A4.575,4.575,0,0,1,164.711-4.2Zm1.453.172a3.616,3.616,0,0,0,.652,2.258,2.088,2.088,0,0,0,1.746.852,2.075,2.075,0,0,0,1.75-.863,3.954,3.954,0,0,0,.648-2.418,3.61,3.61,0,0,0-.66-2.254,2.1,2.1,0,0,0-1.754-.863,2.075,2.075,0,0,0-1.727.852A3.925,3.925,0,0,0,166.164-4.133ZM178.3-7.156a4.331,4.331,0,0,0-.711-.055A1.9,1.9,0,0,0,175.664-6V0h-1.445V-8.453h1.406l.023.977a2.251,2.251,0,0,1,2.016-1.133,1.477,1.477,0,0,1,.641.109ZM184.539,0a3.036,3.036,0,0,1-.2-.891A3.225,3.225,0,0,1,181.93.156a2.984,2.984,0,0,1-2.051-.707,2.287,2.287,0,0,1-.8-1.793,2.39,2.39,0,0,1,1-2.051,4.733,4.733,0,0,1,2.824-.73h1.406v-.664A1.623,1.623,0,0,0,183.859-7a1.821,1.821,0,0,0-1.336-.449,2.107,2.107,0,0,0-1.3.391,1.151,1.151,0,0,0-.523.945H179.25a2,2,0,0,1,.449-1.223,3.066,3.066,0,0,1,1.219-.934,4.1,4.1,0,0,1,1.691-.344,3.342,3.342,0,0,1,2.289.73,2.635,2.635,0,0,1,.859,2.012v3.891a4.757,4.757,0,0,0,.3,1.852V0Zm-2.4-1.1a2.54,2.54,0,0,0,1.289-.352,2.127,2.127,0,0,0,.883-.914V-4.1H183.18q-2.656,0-2.656,1.555a1.316,1.316,0,0,0,.453,1.063A1.742,1.742,0,0,0,182.141-1.1Zm7.844-9.4v2.047h1.578v1.117h-1.578v5.249a1.173,1.173,0,0,0,.211.763.888.888,0,0,0,.719.254,3.5,3.5,0,0,0,.688-.094V0a4.215,4.215,0,0,1-1.109.155,1.8,1.8,0,0,1-1.461-.586,2.517,2.517,0,0,1-.492-1.664V-7.336H187V-8.453h1.539V-10.5ZM194.82,0h-1.445V-8.453h1.445Zm-1.562-10.7a.863.863,0,0,1,.215-.594.807.807,0,0,1,.637-.242.819.819,0,0,1,.641.242.854.854,0,0,1,.219.594.826.826,0,0,1-.219.586.834.834,0,0,1-.641.234.821.821,0,0,1-.637-.234A.834.834,0,0,1,193.258-10.7Zm6.664,8.734,2.094-6.492h1.477L200.461,0h-1.1L196.3-8.453h1.477ZM204.383-4.3a4.993,4.993,0,0,1,.488-2.234A3.642,3.642,0,0,1,206.23-8.07a3.7,3.7,0,0,1,1.988-.539,3.565,3.565,0,0,1,2.793,1.2,4.6,4.6,0,0,1,1.066,3.18v.1a5.036,5.036,0,0,1-.473,2.215,3.589,3.589,0,0,1-1.352,1.527,3.743,3.743,0,0,1-2.02.547,3.556,3.556,0,0,1-2.785-1.2A4.575,4.575,0,0,1,204.383-4.2Zm1.453.172a3.616,3.616,0,0,0,.652,2.258,2.088,2.088,0,0,0,1.746.852,2.075,2.075,0,0,0,1.75-.863,3.954,3.954,0,0,0,.648-2.418,3.61,3.61,0,0,0-.66-2.254,2.1,2.1,0,0,0-1.754-.863,2.075,2.075,0,0,0-1.727.852A3.925,3.925,0,0,0,205.836-4.133Zm12.977,1.891a1.064,1.064,0,0,0-.441-.91,4.249,4.249,0,0,0-1.539-.559,7.277,7.277,0,0,1-1.742-.562,2.479,2.479,0,0,1-.953-.781,1.869,1.869,0,0,1-.309-1.078,2.193,2.193,0,0,1,.879-1.758,3.432,3.432,0,0,1,2.246-.719,3.532,3.532,0,0,1,2.332.742,2.357,2.357,0,0,1,.895,1.9h-1.453a1.3,1.3,0,0,0-.5-1.023,1.888,1.888,0,0,0-1.27-.43,1.976,1.976,0,0,0-1.234.344,1.082,1.082,0,0,0-.445.9.877.877,0,0,0,.414.789,5.1,5.1,0,0,0,1.5.508,7.8,7.8,0,0,1,1.754.578,2.558,2.558,0,0,1,1,.809,1.988,1.988,0,0,1,.324,1.152,2.163,2.163,0,0,1-.906,1.816A3.8,3.8,0,0,1,217,.156,4.257,4.257,0,0,1,215.2-.2a2.922,2.922,0,0,1-1.223-1,2.42,2.42,0,0,1-.441-1.395h1.445a1.5,1.5,0,0,0,.582,1.152A2.258,2.258,0,0,0,217-1.023a2.331,2.331,0,0,0,1.316-.332A1.02,1.02,0,0,0,218.813-2.242Z" transform="translate(1005 2769.824)" fill="#12263f"/>
    <path id="Trazado_214720" data-name="Trazado 214720" d="M10,0H390a10,10,0,0,1,10,10V32.121a10,10,0,0,1-10,10H10a10,10,0,0,1-10-10V10A10,10,0,0,1,10,0Z" transform="translate(915 2791.553)" fill="#e8e8e8"/>
    <path id="Trazado_214721" data-name="Trazado 214721" d="M10,0H32.963a10,10,0,0,1,10,10V32.963a10,10,0,0,1-10,10H10a10,10,0,0,1-10-10V10A10,10,0,0,1,10,0Z" transform="translate(915 2791.553)" fill="#00a3be"/>
    <path id="Trazado_214722" data-name="Trazado 214722" d="M15.094-5.777a6.231,6.231,0,0,1-.961,3.146A5.8,5.8,0,0,1,11.666-.516a8.4,8.4,0,0,1-3.627.75,6.7,6.7,0,0,1-5.3-2.191A9.048,9.048,0,0,1,.809-8.145v-.844a10.328,10.328,0,0,1,.873-4.389A6.615,6.615,0,0,1,4.2-16.283a7.013,7.013,0,0,1,3.8-1.025,7.354,7.354,0,0,1,4.992,1.635,6.459,6.459,0,0,1,2.145,4.506h-4.1a3.056,3.056,0,0,0-.785-2.238,3.229,3.229,0,0,0-2.25-.68,2.457,2.457,0,0,0-2.25,1.148,7.381,7.381,0,0,0-.75,3.668v1.207a8.167,8.167,0,0,0,.686,3.9A2.509,2.509,0,0,0,8.039-2.988a3.159,3.159,0,0,0,2.168-.668A2.835,2.835,0,0,0,11-5.777Z" transform="translate(928.479 2821.607)" fill="#fff"/>
    <path id="Trazado_214723" data-name="Trazado 214723" d="M10.07-5.32A7.037,7.037,0,0,1,9.508-2.4,4.261,4.261,0,0,1,7.914-.5,4.385,4.385,0,0,1,5.508.156,4.347,4.347,0,0,1,3.125-.5,4.363,4.363,0,0,1,1.512-2.387a6.752,6.752,0,0,1-.59-2.832v-.82a6.953,6.953,0,0,1,.57-2.9,4.347,4.347,0,0,1,1.613-1.926,4.329,4.329,0,0,1,2.387-.668,4.41,4.41,0,0,1,2.41.66A4.253,4.253,0,0,1,9.508-8.957a7.071,7.071,0,0,1,.563,2.918ZM8.578-6.055A5.1,5.1,0,0,0,7.766-9.16a2.68,2.68,0,0,0-2.273-1.082A2.651,2.651,0,0,0,3.254-9.16a5,5,0,0,0-.84,3v.836a5.107,5.107,0,0,0,.824,3.082,2.662,2.662,0,0,0,2.27,1.121,2.652,2.652,0,0,0,2.25-1.059,5.079,5.079,0,0,0,.82-3.035ZM19.25-4.133a5.026,5.026,0,0,1-.891,3.113A2.846,2.846,0,0,1,15.969.156,2.947,2.947,0,0,1,13.492-.977L13.422,0H12.094V-12h1.445v4.477a2.93,2.93,0,0,1,2.414-1.086,2.863,2.863,0,0,1,2.418,1.164,5.177,5.177,0,0,1,.879,3.188ZM17.8-4.3a3.906,3.906,0,0,0-.57-2.281,1.888,1.888,0,0,0-1.641-.8,2.122,2.122,0,0,0-2.055,1.328V-2.4a2.181,2.181,0,0,0,2.07,1.328,1.878,1.878,0,0,0,1.617-.8A4.153,4.153,0,0,0,17.8-4.3Zm4.758-4.156V.977q0,2.437-2.211,2.438a2.7,2.7,0,0,1-.883-.14V2.125a2.794,2.794,0,0,0,.656.063.982.982,0,0,0,.738-.262,1.3,1.3,0,0,0,.254-.911V-8.453ZM20.969-10.7a.867.867,0,0,1,.215-.59.79.79,0,0,1,.629-.246.819.819,0,0,1,.641.242.854.854,0,0,1,.219.594.826.826,0,0,1-.219.586.834.834,0,0,1-.641.234.808.808,0,0,1-.633-.234A.843.843,0,0,1,20.969-10.7ZM28.4.156A3.693,3.693,0,0,1,25.6-.973a4.19,4.19,0,0,1-1.078-3.02v-.266A5.073,5.073,0,0,1,25-6.5a3.748,3.748,0,0,1,1.344-1.547,3.378,3.378,0,0,1,1.871-.559,3.166,3.166,0,0,1,2.563,1.086A4.7,4.7,0,0,1,31.7-4.414v.6H25.969a3,3,0,0,0,.73,2.02,2.3,2.3,0,0,0,1.777.77,2.517,2.517,0,0,0,1.3-.312,3.259,3.259,0,0,0,.93-.828l.883.688A3.55,3.55,0,0,1,28.4.156Zm-.18-7.578a1.928,1.928,0,0,0-1.469.637A3.1,3.1,0,0,0,26.016-5H30.25v-.109a2.753,2.753,0,0,0-.594-1.707A1.815,1.815,0,0,0,28.219-7.422ZM35.328-10.5v2.047h1.578v1.117H35.328v5.249a1.173,1.173,0,0,0,.211.763.888.888,0,0,0,.719.254,3.5,3.5,0,0,0,.688-.094V0a4.215,4.215,0,0,1-1.109.155A1.8,1.8,0,0,1,34.375-.43a2.517,2.517,0,0,1-.492-1.664V-7.336H32.344V-8.453h1.539V-10.5ZM40.164,0H38.719V-8.453h1.445ZM38.6-10.7a.863.863,0,0,1,.215-.594.807.807,0,0,1,.637-.242.819.819,0,0,1,.641.242.854.854,0,0,1,.219.594.826.826,0,0,1-.219.586.834.834,0,0,1-.641.234.821.821,0,0,1-.637-.234A.834.834,0,0,1,38.6-10.7Zm6.664,8.734,2.094-6.492h1.477L45.8,0H44.7L41.641-8.453h1.477ZM49.727-4.3a4.993,4.993,0,0,1,.488-2.234A3.643,3.643,0,0,1,51.574-8.07a3.7,3.7,0,0,1,1.988-.539,3.565,3.565,0,0,1,2.793,1.2,4.6,4.6,0,0,1,1.066,3.18v.1a5.036,5.036,0,0,1-.473,2.215A3.589,3.589,0,0,1,55.6-.391a3.743,3.743,0,0,1-2.02.547,3.556,3.556,0,0,1-2.785-1.2A4.575,4.575,0,0,1,49.727-4.2Zm1.453.172a3.616,3.616,0,0,0,.652,2.258,2.088,2.088,0,0,0,1.746.852,2.075,2.075,0,0,0,1.75-.863A3.955,3.955,0,0,0,55.977-4.3a3.61,3.61,0,0,0-.66-2.254,2.1,2.1,0,0,0-1.754-.863,2.075,2.075,0,0,0-1.727.852A3.925,3.925,0,0,0,51.18-4.133ZM64.156-2.242a1.064,1.064,0,0,0-.441-.91,4.249,4.249,0,0,0-1.539-.559,7.277,7.277,0,0,1-1.742-.562,2.479,2.479,0,0,1-.953-.781,1.869,1.869,0,0,1-.309-1.078,2.193,2.193,0,0,1,.879-1.758A3.432,3.432,0,0,1,62.3-8.609a3.532,3.532,0,0,1,2.332.742,2.357,2.357,0,0,1,.895,1.9H64.07a1.3,1.3,0,0,0-.5-1.023,1.888,1.888,0,0,0-1.27-.43,1.976,1.976,0,0,0-1.234.344,1.082,1.082,0,0,0-.445.9.877.877,0,0,0,.414.789,5.1,5.1,0,0,0,1.5.508,7.8,7.8,0,0,1,1.754.578,2.558,2.558,0,0,1,1,.809A1.988,1.988,0,0,1,65.6-2.344,2.163,2.163,0,0,1,64.7-.527a3.8,3.8,0,0,1-2.352.684,4.257,4.257,0,0,1-1.8-.359,2.922,2.922,0,0,1-1.223-1A2.42,2.42,0,0,1,58.883-2.6h1.445a1.5,1.5,0,0,0,.582,1.152,2.258,2.258,0,0,0,1.434.426,2.331,2.331,0,0,0,1.316-.332A1.02,1.02,0,0,0,64.156-2.242Zm10.8,2.4a3.693,3.693,0,0,1-2.8-1.129,4.19,4.19,0,0,1-1.078-3.02v-.266a5.073,5.073,0,0,1,.48-2.246A3.748,3.748,0,0,1,72.9-8.051a3.378,3.378,0,0,1,1.871-.559,3.166,3.166,0,0,1,2.563,1.086,4.7,4.7,0,0,1,.914,3.109v.6H72.523a3,3,0,0,0,.73,2.02,2.3,2.3,0,0,0,1.777.77,2.517,2.517,0,0,0,1.3-.312,3.259,3.259,0,0,0,.93-.828l.883.688A3.55,3.55,0,0,1,74.953.156Zm-.18-7.578a1.928,1.928,0,0,0-1.469.637A3.1,3.1,0,0,0,72.57-5H76.8v-.109a2.753,2.753,0,0,0-.594-1.707A1.815,1.815,0,0,0,74.773-7.422Zm10.07,5.18a1.064,1.064,0,0,0-.441-.91,4.249,4.249,0,0,0-1.539-.559,7.277,7.277,0,0,1-1.742-.562,2.479,2.479,0,0,1-.953-.781,1.869,1.869,0,0,1-.309-1.078,2.193,2.193,0,0,1,.879-1.758,3.432,3.432,0,0,1,2.246-.719,3.532,3.532,0,0,1,2.332.742,2.357,2.357,0,0,1,.895,1.9H84.758a1.3,1.3,0,0,0-.5-1.023,1.888,1.888,0,0,0-1.27-.43,1.976,1.976,0,0,0-1.234.344,1.082,1.082,0,0,0-.445.9.877.877,0,0,0,.414.789,5.1,5.1,0,0,0,1.5.508,7.8,7.8,0,0,1,1.754.578,2.558,2.558,0,0,1,1,.809,1.988,1.988,0,0,1,.324,1.152,2.163,2.163,0,0,1-.906,1.816,3.8,3.8,0,0,1-2.352.684,4.257,4.257,0,0,1-1.8-.359,2.922,2.922,0,0,1-1.223-1A2.42,2.42,0,0,1,79.57-2.6h1.445A1.5,1.5,0,0,0,81.6-1.449a2.258,2.258,0,0,0,1.434.426,2.331,2.331,0,0,0,1.316-.332A1.02,1.02,0,0,0,84.844-2.242ZM90.133-10.5v2.047h1.578v1.117H90.133v5.249a1.173,1.173,0,0,0,.211.763.888.888,0,0,0,.719.254,3.5,3.5,0,0,0,.688-.094V0a4.215,4.215,0,0,1-1.109.155A1.8,1.8,0,0,1,89.18-.43a2.517,2.517,0,0,1-.492-1.664V-7.336H87.148V-8.453h1.539V-10.5Zm7.352,3.344a4.331,4.331,0,0,0-.711-.055A1.9,1.9,0,0,0,94.844-6V0H93.4V-8.453H94.8l.023.977a2.251,2.251,0,0,1,2.016-1.133,1.477,1.477,0,0,1,.641.109ZM103.719,0a3.036,3.036,0,0,1-.2-.891A3.225,3.225,0,0,1,101.109.156a2.984,2.984,0,0,1-2.051-.707,2.288,2.288,0,0,1-.8-1.793,2.39,2.39,0,0,1,1-2.051,4.733,4.733,0,0,1,2.824-.73h1.406v-.664A1.623,1.623,0,0,0,103.039-7a1.821,1.821,0,0,0-1.336-.449,2.108,2.108,0,0,0-1.3.391,1.151,1.151,0,0,0-.523.945H98.43a2,2,0,0,1,.449-1.223,3.066,3.066,0,0,1,1.219-.934,4.1,4.1,0,0,1,1.691-.344,3.342,3.342,0,0,1,2.289.73,2.635,2.635,0,0,1,.859,2.012v3.891a4.757,4.757,0,0,0,.3,1.852V0Zm-2.4-1.1a2.54,2.54,0,0,0,1.289-.352,2.127,2.127,0,0,0,.883-.914V-4.1h-1.133Q99.7-4.1,99.7-2.547a1.316,1.316,0,0,0,.453,1.063A1.742,1.742,0,0,0,101.32-1.1Zm7.844-9.4v2.047h1.578v1.117h-1.578v5.249a1.173,1.173,0,0,0,.211.763.888.888,0,0,0,.719.254,3.5,3.5,0,0,0,.688-.094V0a4.215,4.215,0,0,1-1.109.155,1.8,1.8,0,0,1-1.461-.586,2.517,2.517,0,0,1-.492-1.664V-7.336H106.18V-8.453h1.539V-10.5ZM115.938.156a3.693,3.693,0,0,1-2.8-1.129,4.19,4.19,0,0,1-1.078-3.02v-.266a5.073,5.073,0,0,1,.48-2.246,3.748,3.748,0,0,1,1.344-1.547,3.378,3.378,0,0,1,1.871-.559,3.166,3.166,0,0,1,2.563,1.086,4.7,4.7,0,0,1,.914,3.109v.6h-5.727a3,3,0,0,0,.73,2.02,2.3,2.3,0,0,0,1.777.77,2.517,2.517,0,0,0,1.3-.312,3.259,3.259,0,0,0,.93-.828l.883.688A3.55,3.55,0,0,1,115.938.156Zm-.18-7.578a1.928,1.928,0,0,0-1.469.637A3.1,3.1,0,0,0,113.555-5h4.234v-.109a2.753,2.753,0,0,0-.594-1.707A1.815,1.815,0,0,0,115.758-7.422Zm.7-4.562h1.75l-2.094,2.3-1.164,0Zm4.1,7.688a4.968,4.968,0,0,1,.914-3.145A2.923,2.923,0,0,1,123.9-8.609a2.908,2.908,0,0,1,2.414,1.094l.07-.937h1.32V-.2a3.439,3.439,0,0,1-.973,2.586,3.589,3.589,0,0,1-2.613.945,4.348,4.348,0,0,1-1.789-.391,3.08,3.08,0,0,1-1.336-1.07l.75-.867a2.826,2.826,0,0,0,2.273,1.148,2.214,2.214,0,0,0,1.645-.594,2.269,2.269,0,0,0,.59-1.672V-.844a2.971,2.971,0,0,1-2.367,1,2.887,2.887,0,0,1-2.4-1.2A5.224,5.224,0,0,1,120.563-4.3Zm1.453.164a3.79,3.79,0,0,0,.586,2.246,1.9,1.9,0,0,0,1.641.816,2.117,2.117,0,0,0,2.008-1.242V-6.172a2.142,2.142,0,0,0-1.992-1.211,1.921,1.921,0,0,0-1.648.82A4.128,4.128,0,0,0,122.016-4.133ZM131.453,0h-1.445V-8.453h1.445Zm-1.562-10.7a.863.863,0,0,1,.215-.594.807.807,0,0,1,.637-.242.819.819,0,0,1,.641.242.854.854,0,0,1,.219.594.826.826,0,0,1-.219.586.834.834,0,0,1-.641.234.821.821,0,0,1-.637-.234A.834.834,0,0,1,129.891-10.7Zm7.266,9.672a2.082,2.082,0,0,0,1.352-.469,1.649,1.649,0,0,0,.641-1.172h1.367a2.621,2.621,0,0,1-.5,1.383,3.293,3.293,0,0,1-1.23,1.047,3.55,3.55,0,0,1-1.629.391A3.482,3.482,0,0,1,134.41-1a4.59,4.59,0,0,1-1.02-3.152v-.242a5.089,5.089,0,0,1,.453-2.2,3.451,3.451,0,0,1,1.3-1.492,3.7,3.7,0,0,1,2-.531,3.39,3.39,0,0,1,2.363.852,3.043,3.043,0,0,1,1,2.211h-1.367a1.992,1.992,0,0,0-.621-1.348,1.932,1.932,0,0,0-1.379-.527,2.023,2.023,0,0,0-1.707.793,3.724,3.724,0,0,0-.605,2.293v.273a3.65,3.65,0,0,0,.6,2.25A2.033,2.033,0,0,0,137.156-1.023Zm4.6-3.281a4.993,4.993,0,0,1,.488-2.234,3.642,3.642,0,0,1,1.359-1.531,3.7,3.7,0,0,1,1.988-.539,3.565,3.565,0,0,1,2.793,1.2,4.6,4.6,0,0,1,1.066,3.18v.1a5.036,5.036,0,0,1-.473,2.215,3.589,3.589,0,0,1-1.352,1.527,3.743,3.743,0,0,1-2.02.547,3.556,3.556,0,0,1-2.785-1.2A4.575,4.575,0,0,1,141.758-4.2Zm1.453.172a3.616,3.616,0,0,0,.652,2.258,2.088,2.088,0,0,0,1.746.852,2.075,2.075,0,0,0,1.75-.863,3.954,3.954,0,0,0,.648-2.418,3.61,3.61,0,0,0-.66-2.254,2.1,2.1,0,0,0-1.754-.863,2.075,2.075,0,0,0-1.727.852A3.925,3.925,0,0,0,143.211-4.133Zm12.977,1.891a1.064,1.064,0,0,0-.441-.91,4.249,4.249,0,0,0-1.539-.559,7.277,7.277,0,0,1-1.742-.562,2.479,2.479,0,0,1-.953-.781,1.869,1.869,0,0,1-.309-1.078,2.193,2.193,0,0,1,.879-1.758,3.432,3.432,0,0,1,2.246-.719,3.532,3.532,0,0,1,2.332.742,2.357,2.357,0,0,1,.895,1.9H156.1a1.3,1.3,0,0,0-.5-1.023,1.888,1.888,0,0,0-1.27-.43,1.976,1.976,0,0,0-1.234.344,1.082,1.082,0,0,0-.445.9.877.877,0,0,0,.414.789,5.1,5.1,0,0,0,1.5.508,7.8,7.8,0,0,1,1.754.578,2.558,2.558,0,0,1,1,.809,1.988,1.988,0,0,1,.324,1.152,2.163,2.163,0,0,1-.906,1.816,3.8,3.8,0,0,1-2.352.684,4.257,4.257,0,0,1-1.8-.359,2.922,2.922,0,0,1-1.223-1,2.42,2.42,0,0,1-.441-1.395h1.445a1.5,1.5,0,0,0,.582,1.152,2.258,2.258,0,0,0,1.434.426,2.331,2.331,0,0,0,1.316-.332A1.02,1.02,0,0,0,156.188-2.242Z" transform="translate(1052 2819.107)" fill="#12263f"/>
    <path id="Trazado_214724" data-name="Trazado 214724" d="M10,0H390a10,10,0,0,1,10,10V32.121a10,10,0,0,1-10,10H10a10,10,0,0,1-10-10V10A10,10,0,0,1,10,0Z" transform="translate(915 2873.557)" fill="#e8e8e8"/>
    <path id="Trazado_214725" data-name="Trazado 214725" d="M10,0H32.963a10,10,0,0,1,10,10V32.963a10,10,0,0,1-10,10H10a10,10,0,0,1-10-10V10A10,10,0,0,1,10,0Z" transform="translate(915 2873.557)" fill="#32d9cb"/>
    <path id="Trazado_214726" data-name="Trazado 214726" d="M1.289,0V-17.062h5.5a8.085,8.085,0,0,1,4.066,1.025,7.208,7.208,0,0,1,2.818,2.895A8.739,8.739,0,0,1,14.7-8.953v.785a8.79,8.79,0,0,1-.99,4.2,7.239,7.239,0,0,1-2.789,2.906A7.907,7.907,0,0,1,6.9,0ZM5.4-13.887V-3.164h1.43a3.2,3.2,0,0,0,2.719-1.26A6.173,6.173,0,0,0,10.5-8.168v-.738a6.123,6.123,0,0,0-.949-3.727,3.256,3.256,0,0,0-2.766-1.254Z" transform="translate(926.794 2903.611)" fill="#12263f"/>
    <path id="Trazado_214727" data-name="Trazado 214727" d="M7.75-5.258H2.82v4.031H8.547V0H1.32V-11.375H8.469v1.227H2.82v3.664H7.75Zm7.359,3.016a1.064,1.064,0,0,0-.441-.91,4.249,4.249,0,0,0-1.539-.559,7.277,7.277,0,0,1-1.742-.562,2.479,2.479,0,0,1-.953-.781,1.869,1.869,0,0,1-.309-1.078A2.193,2.193,0,0,1,11-7.891a3.432,3.432,0,0,1,2.246-.719,3.532,3.532,0,0,1,2.332.742,2.357,2.357,0,0,1,.895,1.9H15.023a1.3,1.3,0,0,0-.5-1.023,1.888,1.888,0,0,0-1.27-.43,1.976,1.976,0,0,0-1.234.344,1.082,1.082,0,0,0-.445.9.877.877,0,0,0,.414.789,5.1,5.1,0,0,0,1.5.508,7.8,7.8,0,0,1,1.754.578,2.558,2.558,0,0,1,1,.809,1.988,1.988,0,0,1,.324,1.152,2.163,2.163,0,0,1-.906,1.816A3.8,3.8,0,0,1,13.3.156,4.257,4.257,0,0,1,11.5-.2a2.922,2.922,0,0,1-1.223-1A2.42,2.42,0,0,1,9.836-2.6h1.445a1.5,1.5,0,0,0,.582,1.152,2.258,2.258,0,0,0,1.434.426,2.331,2.331,0,0,0,1.316-.332A1.02,1.02,0,0,0,15.109-2.242ZM20.4-10.5v2.047h1.578v1.117H20.4v5.249a1.173,1.173,0,0,0,.211.763.888.888,0,0,0,.719.254,3.5,3.5,0,0,0,.688-.094V0a4.215,4.215,0,0,1-1.109.155A1.8,1.8,0,0,1,19.445-.43a2.517,2.517,0,0,1-.492-1.664V-7.336H17.414V-8.453h1.539V-10.5ZM27.75-7.156a4.331,4.331,0,0,0-.711-.055A1.9,1.9,0,0,0,25.109-6V0H23.664V-8.453H25.07l.023.977a2.251,2.251,0,0,1,2.016-1.133,1.477,1.477,0,0,1,.641.109ZM33.984,0a3.036,3.036,0,0,1-.2-.891A3.225,3.225,0,0,1,31.375.156a2.984,2.984,0,0,1-2.051-.707,2.287,2.287,0,0,1-.8-1.793,2.39,2.39,0,0,1,1-2.051,4.733,4.733,0,0,1,2.824-.73h1.406v-.664A1.623,1.623,0,0,0,33.3-7a1.821,1.821,0,0,0-1.336-.449,2.108,2.108,0,0,0-1.3.391,1.151,1.151,0,0,0-.523.945H28.7a2,2,0,0,1,.449-1.223,3.066,3.066,0,0,1,1.219-.934,4.1,4.1,0,0,1,1.691-.344,3.342,3.342,0,0,1,2.289.73A2.635,2.635,0,0,1,35.2-5.867v3.891a4.757,4.757,0,0,0,.3,1.852V0Zm-2.4-1.1a2.54,2.54,0,0,0,1.289-.352,2.127,2.127,0,0,0,.883-.914V-4.1H32.625q-2.656,0-2.656,1.555a1.316,1.316,0,0,0,.453,1.063A1.742,1.742,0,0,0,31.586-1.1Zm7.844-9.4v2.047h1.578v1.117H39.43v5.249a1.173,1.173,0,0,0,.211.763.888.888,0,0,0,.719.254,3.5,3.5,0,0,0,.688-.094V0a4.215,4.215,0,0,1-1.109.155A1.8,1.8,0,0,1,38.477-.43a2.517,2.517,0,0,1-.492-1.664V-7.336H36.445V-8.453h1.539V-10.5ZM46.2.156a3.693,3.693,0,0,1-2.8-1.129,4.19,4.19,0,0,1-1.078-3.02v-.266a5.073,5.073,0,0,1,.48-2.246,3.748,3.748,0,0,1,1.344-1.547,3.378,3.378,0,0,1,1.871-.559,3.166,3.166,0,0,1,2.563,1.086A4.7,4.7,0,0,1,49.5-4.414v.6H43.773a3,3,0,0,0,.73,2.02,2.3,2.3,0,0,0,1.777.77,2.517,2.517,0,0,0,1.3-.312,3.259,3.259,0,0,0,.93-.828l.883.688A3.55,3.55,0,0,1,46.2.156Zm-.18-7.578a1.928,1.928,0,0,0-1.469.637A3.1,3.1,0,0,0,43.82-5h4.234v-.109a2.753,2.753,0,0,0-.594-1.707A1.815,1.815,0,0,0,46.023-7.422Zm4.8,3.125a4.968,4.968,0,0,1,.914-3.145,2.923,2.923,0,0,1,2.422-1.168,2.908,2.908,0,0,1,2.414,1.094l.07-.937h1.32V-.2A3.439,3.439,0,0,1,57,2.383a3.589,3.589,0,0,1-2.613.945,4.348,4.348,0,0,1-1.789-.391,3.08,3.08,0,0,1-1.336-1.07L52.008,1a2.826,2.826,0,0,0,2.273,1.148,2.214,2.214,0,0,0,1.645-.594,2.269,2.269,0,0,0,.59-1.672V-.844a2.971,2.971,0,0,1-2.367,1,2.887,2.887,0,0,1-2.4-1.2A5.224,5.224,0,0,1,50.828-4.3Zm1.453.164a3.79,3.79,0,0,0,.586,2.246,1.9,1.9,0,0,0,1.641.816,2.117,2.117,0,0,0,2.008-1.242V-6.172a2.142,2.142,0,0,0-1.992-1.211,1.921,1.921,0,0,0-1.648.82A4.128,4.128,0,0,0,52.281-4.133ZM61.719,0H60.273V-8.453h1.445ZM60.156-10.7a.863.863,0,0,1,.215-.594.807.807,0,0,1,.637-.242.819.819,0,0,1,.641.242.854.854,0,0,1,.219.594.826.826,0,0,1-.219.586.834.834,0,0,1-.641.234.821.821,0,0,1-.637-.234A.834.834,0,0,1,60.156-10.7ZM69.25,0a3.036,3.036,0,0,1-.2-.891A3.225,3.225,0,0,1,66.641.156,2.984,2.984,0,0,1,64.59-.551a2.288,2.288,0,0,1-.8-1.793,2.39,2.39,0,0,1,1-2.051,4.733,4.733,0,0,1,2.824-.73h1.406v-.664A1.623,1.623,0,0,0,68.57-7a1.821,1.821,0,0,0-1.336-.449,2.108,2.108,0,0,0-1.3.391,1.151,1.151,0,0,0-.523.945H63.961a2,2,0,0,1,.449-1.223,3.066,3.066,0,0,1,1.219-.934,4.1,4.1,0,0,1,1.691-.344,3.342,3.342,0,0,1,2.289.73,2.635,2.635,0,0,1,.859,2.012v3.891a4.757,4.757,0,0,0,.3,1.852V0Zm-2.4-1.1a2.54,2.54,0,0,0,1.289-.352,2.127,2.127,0,0,0,.883-.914V-4.1H67.891q-2.656,0-2.656,1.555a1.316,1.316,0,0,0,.453,1.063A1.742,1.742,0,0,0,66.852-1.1Zm10.8-1.141a1.064,1.064,0,0,0-.441-.91,4.249,4.249,0,0,0-1.539-.559,7.277,7.277,0,0,1-1.742-.562,2.479,2.479,0,0,1-.953-.781,1.869,1.869,0,0,1-.309-1.078,2.193,2.193,0,0,1,.879-1.758A3.432,3.432,0,0,1,75.8-8.609a3.532,3.532,0,0,1,2.332.742,2.357,2.357,0,0,1,.895,1.9H77.57a1.3,1.3,0,0,0-.5-1.023,1.888,1.888,0,0,0-1.27-.43,1.976,1.976,0,0,0-1.234.344,1.082,1.082,0,0,0-.445.9.877.877,0,0,0,.414.789,5.1,5.1,0,0,0,1.5.508,7.8,7.8,0,0,1,1.754.578,2.558,2.558,0,0,1,1,.809A1.988,1.988,0,0,1,79.1-2.344,2.163,2.163,0,0,1,78.2-.527a3.8,3.8,0,0,1-2.352.684,4.257,4.257,0,0,1-1.8-.359,2.922,2.922,0,0,1-1.223-1A2.42,2.42,0,0,1,72.383-2.6h1.445a1.5,1.5,0,0,0,.582,1.152,2.258,2.258,0,0,0,1.434.426,2.331,2.331,0,0,0,1.316-.332A1.02,1.02,0,0,0,77.656-2.242Z" transform="translate(1075 2900.509)" fill="#12263f"/>
    <path id="Trazado_214728" data-name="Trazado 214728" d="M10,0H390a10,10,0,0,1,10,10V32.121a10,10,0,0,1-10,10H10a10,10,0,0,1-10-10V10A10,10,0,0,1,10,0Z" transform="translate(915 2922.84)" fill="#e8e8e8"/>
    <path id="Trazado_214729" data-name="Trazado 214729" d="M10,0H32.963a10,10,0,0,1,10,10V32.963a10,10,0,0,1-10,10H10a10,10,0,0,1-10-10V10A10,10,0,0,1,10,0Z" transform="translate(915 2922.84)" fill="#32d9cb"/>
    <path id="Trazado_214730" data-name="Trazado 214730" d="M11.871-7.242H5.4v4.078h7.641V0H1.289V-17.062H13.066v3.176H5.4v3.6h6.469Z" transform="translate(926.794 2952.895)" fill="#12263f"/>
    <path id="Trazado_214731" data-name="Trazado 214731" d="M2.82-4.453V0H1.32V-11.375h4.2a4.215,4.215,0,0,1,2.926.953A3.231,3.231,0,0,1,9.5-7.9,3.189,3.189,0,0,1,8.465-5.348,4.4,4.4,0,0,1,5.5-4.453Zm0-1.227h2.7a2.7,2.7,0,0,0,1.844-.567A2.075,2.075,0,0,0,8-7.887a2.143,2.143,0,0,0-.641-1.628A2.525,2.525,0,0,0,5.6-10.148H2.82ZM10.7-4.3a4.993,4.993,0,0,1,.488-2.234A3.643,3.643,0,0,1,12.551-8.07a3.7,3.7,0,0,1,1.988-.539,3.565,3.565,0,0,1,2.793,1.2A4.6,4.6,0,0,1,18.4-4.234v.1a5.036,5.036,0,0,1-.473,2.215A3.589,3.589,0,0,1,16.574-.391a3.743,3.743,0,0,1-2.02.547,3.556,3.556,0,0,1-2.785-1.2A4.575,4.575,0,0,1,10.7-4.2Zm1.453.172a3.616,3.616,0,0,0,.652,2.258,2.088,2.088,0,0,0,1.746.852,2.075,2.075,0,0,0,1.75-.863A3.955,3.955,0,0,0,16.953-4.3a3.61,3.61,0,0,0-.66-2.254,2.1,2.1,0,0,0-1.754-.863,2.075,2.075,0,0,0-1.727.852A3.925,3.925,0,0,0,12.156-4.133ZM21.781,0H20.336V-12h1.445Zm3.883,0H24.211V-8.453h1.453Zm.016-11.977h1.75l-2.094,2.3-1.164,0ZM30.008-10.5v2.047h1.578v1.117H30.008v5.249a1.173,1.173,0,0,0,.211.763.888.888,0,0,0,.719.254,3.5,3.5,0,0,0,.688-.094V0a4.215,4.215,0,0,1-1.109.155A1.8,1.8,0,0,1,29.055-.43a2.517,2.517,0,0,1-.492-1.664V-7.336H27.023V-8.453h1.539V-10.5ZM34.844,0H33.4V-8.453h1.445ZM33.281-10.7a.863.863,0,0,1,.215-.594.807.807,0,0,1,.637-.242.819.819,0,0,1,.641.242.854.854,0,0,1,.219.594.826.826,0,0,1-.219.586.834.834,0,0,1-.641.234.821.821,0,0,1-.637-.234A.834.834,0,0,1,33.281-10.7Zm7.266,9.672A2.082,2.082,0,0,0,41.9-1.492a1.649,1.649,0,0,0,.641-1.172h1.367a2.621,2.621,0,0,1-.5,1.383,3.293,3.293,0,0,1-1.23,1.047,3.55,3.55,0,0,1-1.629.391A3.482,3.482,0,0,1,37.8-1a4.59,4.59,0,0,1-1.02-3.152v-.242a5.089,5.089,0,0,1,.453-2.2,3.451,3.451,0,0,1,1.3-1.492,3.7,3.7,0,0,1,2-.531,3.39,3.39,0,0,1,2.363.852,3.043,3.043,0,0,1,1,2.211H42.539a1.992,1.992,0,0,0-.621-1.348,1.932,1.932,0,0,0-1.379-.527,2.023,2.023,0,0,0-1.707.793,3.724,3.724,0,0,0-.605,2.293v.273a3.65,3.65,0,0,0,.6,2.25A2.033,2.033,0,0,0,40.547-1.023ZM50.75,0a3.036,3.036,0,0,1-.2-.891A3.225,3.225,0,0,1,48.141.156,2.984,2.984,0,0,1,46.09-.551a2.287,2.287,0,0,1-.8-1.793,2.39,2.39,0,0,1,1-2.051,4.733,4.733,0,0,1,2.824-.73h1.406v-.664A1.623,1.623,0,0,0,50.07-7a1.821,1.821,0,0,0-1.336-.449,2.107,2.107,0,0,0-1.3.391,1.151,1.151,0,0,0-.523.945H45.461a2,2,0,0,1,.449-1.223,3.066,3.066,0,0,1,1.219-.934,4.1,4.1,0,0,1,1.691-.344,3.342,3.342,0,0,1,2.289.73,2.635,2.635,0,0,1,.859,2.012v3.891a4.757,4.757,0,0,0,.3,1.852V0Zm-2.4-1.1a2.54,2.54,0,0,0,1.289-.352,2.127,2.127,0,0,0,.883-.914V-4.1H49.391q-2.656,0-2.656,1.555a1.316,1.316,0,0,0,.453,1.063A1.742,1.742,0,0,0,48.352-1.1Zm10.8-1.141a1.064,1.064,0,0,0-.441-.91,4.249,4.249,0,0,0-1.539-.559,7.277,7.277,0,0,1-1.742-.562,2.479,2.479,0,0,1-.953-.781,1.869,1.869,0,0,1-.309-1.078,2.193,2.193,0,0,1,.879-1.758A3.432,3.432,0,0,1,57.3-8.609a3.532,3.532,0,0,1,2.332.742,2.357,2.357,0,0,1,.895,1.9H59.07a1.3,1.3,0,0,0-.5-1.023,1.888,1.888,0,0,0-1.27-.43,1.976,1.976,0,0,0-1.234.344,1.082,1.082,0,0,0-.445.9.877.877,0,0,0,.414.789,5.1,5.1,0,0,0,1.5.508,7.8,7.8,0,0,1,1.754.578,2.558,2.558,0,0,1,1,.809A1.988,1.988,0,0,1,60.6-2.344,2.163,2.163,0,0,1,59.7-.527a3.8,3.8,0,0,1-2.352.684,4.257,4.257,0,0,1-1.8-.359,2.922,2.922,0,0,1-1.223-1A2.42,2.42,0,0,1,53.883-2.6h1.445a1.5,1.5,0,0,0,.582,1.152,2.258,2.258,0,0,0,1.434.426,2.331,2.331,0,0,0,1.316-.332A1.02,1.02,0,0,0,59.156-2.242Z" transform="translate(1085 2949.792)" fill="#12263f"/>
    <path id="Trazado_214686" data-name="Trazado 214686" d="M10,0H390a10,10,0,0,1,10,10V32.121a10,10,0,0,1-10,10H10a10,10,0,0,1-10-10V10A10,10,0,0,1,10,0Z" transform="translate(915 2972.123)" fill="#e8e8e8"/>
    <path id="Trazado_214687" data-name="Trazado 214687" d="M10,0H32.963a10,10,0,0,1,10,10V32.963a10,10,0,0,1-10,10H10a10,10,0,0,1-10-10V10A10,10,0,0,1,10,0Z" transform="translate(915 2972.123)" fill="#32d9cb"/>
    <path id="Trazado_214688" data-name="Trazado 214688" d="M12.035-6.8H5.4V0H1.289V-17.062H12.7v3.176H5.4v3.926h6.633Z" transform="translate(926.794 3002.178)" fill="#12263f"/>
    <path id="Trazado_214689" data-name="Trazado 214689" d="M2.82-4.453V0H1.32V-11.375h4.2a4.215,4.215,0,0,1,2.926.953A3.231,3.231,0,0,1,9.5-7.9,3.189,3.189,0,0,1,8.465-5.348,4.4,4.4,0,0,1,5.5-4.453Zm0-1.227h2.7a2.7,2.7,0,0,0,1.844-.567A2.075,2.075,0,0,0,8-7.887a2.143,2.143,0,0,0-.641-1.628A2.525,2.525,0,0,0,5.6-10.148H2.82ZM15.273-7.156a4.331,4.331,0,0,0-.711-.055A1.9,1.9,0,0,0,12.633-6V0H11.188V-8.453h1.406l.023.977a2.251,2.251,0,0,1,2.016-1.133,1.477,1.477,0,0,1,.641.109ZM16.063-4.3a4.993,4.993,0,0,1,.488-2.234A3.643,3.643,0,0,1,17.91-8.07,3.7,3.7,0,0,1,19.9-8.609a3.565,3.565,0,0,1,2.793,1.2,4.6,4.6,0,0,1,1.066,3.18v.1a5.036,5.036,0,0,1-.473,2.215A3.589,3.589,0,0,1,21.934-.391a3.743,3.743,0,0,1-2.02.547,3.556,3.556,0,0,1-2.785-1.2A4.575,4.575,0,0,1,16.063-4.2Zm1.453.172a3.616,3.616,0,0,0,.652,2.258,2.088,2.088,0,0,0,1.746.852,2.075,2.075,0,0,0,1.75-.863A3.955,3.955,0,0,0,22.313-4.3a3.61,3.61,0,0,0-.66-2.254A2.1,2.1,0,0,0,19.9-7.422a2.075,2.075,0,0,0-1.727.852A3.925,3.925,0,0,0,17.516-4.133ZM25.227-4.3a4.968,4.968,0,0,1,.914-3.145,2.923,2.923,0,0,1,2.422-1.168,2.908,2.908,0,0,1,2.414,1.094l.07-.937h1.32V-.2a3.439,3.439,0,0,1-.973,2.586,3.589,3.589,0,0,1-2.613.945,4.348,4.348,0,0,1-1.789-.391,3.08,3.08,0,0,1-1.336-1.07L26.406,1A2.826,2.826,0,0,0,28.68,2.148a2.214,2.214,0,0,0,1.645-.594,2.269,2.269,0,0,0,.59-1.672V-.844a2.971,2.971,0,0,1-2.367,1,2.887,2.887,0,0,1-2.4-1.2A5.224,5.224,0,0,1,25.227-4.3Zm1.453.164a3.79,3.79,0,0,0,.586,2.246,1.9,1.9,0,0,0,1.641.816,2.117,2.117,0,0,0,2.008-1.242V-6.172a2.142,2.142,0,0,0-1.992-1.211,1.921,1.921,0,0,0-1.648.82A4.128,4.128,0,0,0,26.68-4.133ZM38.633-7.156a4.331,4.331,0,0,0-.711-.055A1.9,1.9,0,0,0,35.992-6V0H34.547V-8.453h1.406l.023.977a2.251,2.251,0,0,1,2.016-1.133,1.477,1.477,0,0,1,.641.109ZM44.867,0a3.036,3.036,0,0,1-.2-.891A3.225,3.225,0,0,1,42.258.156a2.984,2.984,0,0,1-2.051-.707,2.287,2.287,0,0,1-.8-1.793,2.39,2.39,0,0,1,1-2.051,4.733,4.733,0,0,1,2.824-.73h1.406v-.664A1.623,1.623,0,0,0,44.188-7a1.821,1.821,0,0,0-1.336-.449,2.107,2.107,0,0,0-1.3.391,1.151,1.151,0,0,0-.523.945H39.578a2,2,0,0,1,.449-1.223,3.066,3.066,0,0,1,1.219-.934,4.1,4.1,0,0,1,1.691-.344,3.342,3.342,0,0,1,2.289.73,2.635,2.635,0,0,1,.859,2.012v3.891a4.757,4.757,0,0,0,.3,1.852V0Zm-2.4-1.1a2.54,2.54,0,0,0,1.289-.352,2.127,2.127,0,0,0,.883-.914V-4.1H43.508q-2.656,0-2.656,1.555A1.316,1.316,0,0,0,41.3-1.484,1.742,1.742,0,0,0,42.469-1.1Zm7.242-7.352.039.938a3.122,3.122,0,0,1,2.508-1.094A2.417,2.417,0,0,1,54.672-7.25a3.2,3.2,0,0,1,1.1-.984,3.242,3.242,0,0,1,1.6-.375q2.781,0,2.828,2.945V0H58.75V-5.578a1.941,1.941,0,0,0-.414-1.355,1.823,1.823,0,0,0-1.391-.449,1.917,1.917,0,0,0-1.336.48,1.949,1.949,0,0,0-.617,1.293V0H53.539V-5.539a1.613,1.613,0,0,0-1.8-1.844,1.934,1.934,0,0,0-1.945,1.211V0H48.344V-8.453ZM67.594,0a3.036,3.036,0,0,1-.2-.891A3.225,3.225,0,0,1,64.984.156a2.984,2.984,0,0,1-2.051-.707,2.287,2.287,0,0,1-.8-1.793,2.39,2.39,0,0,1,1-2.051,4.733,4.733,0,0,1,2.824-.73h1.406v-.664A1.623,1.623,0,0,0,66.914-7a1.821,1.821,0,0,0-1.336-.449,2.108,2.108,0,0,0-1.3.391,1.151,1.151,0,0,0-.523.945H62.3a2,2,0,0,1,.449-1.223,3.066,3.066,0,0,1,1.219-.934,4.1,4.1,0,0,1,1.691-.344,3.342,3.342,0,0,1,2.289.73,2.635,2.635,0,0,1,.859,2.012v3.891a4.757,4.757,0,0,0,.3,1.852V0ZM65.2-1.1a2.54,2.54,0,0,0,1.289-.352,2.127,2.127,0,0,0,.883-.914V-4.1H66.234q-2.656,0-2.656,1.555a1.316,1.316,0,0,0,.453,1.063A1.742,1.742,0,0,0,65.2-1.1ZM76-2.242a1.064,1.064,0,0,0-.441-.91,4.249,4.249,0,0,0-1.539-.559,7.277,7.277,0,0,1-1.742-.562,2.479,2.479,0,0,1-.953-.781,1.869,1.869,0,0,1-.309-1.078,2.193,2.193,0,0,1,.879-1.758,3.432,3.432,0,0,1,2.246-.719,3.532,3.532,0,0,1,2.332.742,2.357,2.357,0,0,1,.895,1.9H75.914a1.3,1.3,0,0,0-.5-1.023,1.888,1.888,0,0,0-1.27-.43,1.976,1.976,0,0,0-1.234.344,1.082,1.082,0,0,0-.445.9.877.877,0,0,0,.414.789,5.1,5.1,0,0,0,1.5.508,7.8,7.8,0,0,1,1.754.578,2.558,2.558,0,0,1,1,.809,1.988,1.988,0,0,1,.324,1.152,2.163,2.163,0,0,1-.906,1.816,3.8,3.8,0,0,1-2.352.684,4.257,4.257,0,0,1-1.8-.359,2.922,2.922,0,0,1-1.223-1A2.42,2.42,0,0,1,70.727-2.6h1.445a1.5,1.5,0,0,0,.582,1.152,2.258,2.258,0,0,0,1.434.426A2.331,2.331,0,0,0,75.5-1.355,1.02,1.02,0,0,0,76-2.242Z" transform="translate(1076 2999.074)" fill="#12263f"/>
    <path id="Trazado_214690" data-name="Trazado 214690" d="M10,0H390a10,10,0,0,1,10,10V32.121a10,10,0,0,1-10,10H10a10,10,0,0,1-10-10V10A10,10,0,0,1,10,0Z" transform="translate(915 3021.406)" fill="#e8e8e8"/>
    <path id="Trazado_214691" data-name="Trazado 214691" d="M10,0H32.963a10,10,0,0,1,10,10V32.963a10,10,0,0,1-10,10H10a10,10,0,0,1-10-10V10A10,10,0,0,1,10,0Z" transform="translate(915 3021.406)" fill="#32d9cb"/>
    <path id="Trazado_214692" data-name="Trazado 214692" d="M15.258-2.109A6.614,6.614,0,0,1,12.48-.41,11.979,11.979,0,0,1,8.473.234,7.146,7.146,0,0,1,3.117-1.816,8.3,8.3,0,0,1,.973-7.523L.961-9a10.182,10.182,0,0,1,.891-4.4A6.614,6.614,0,0,1,4.4-16.295a7.21,7.21,0,0,1,3.838-1.014,7.559,7.559,0,0,1,4.951,1.459A6.182,6.182,0,0,1,15.246-11.5H11.285a3.235,3.235,0,0,0-.914-2.039,2.949,2.949,0,0,0-1.992-.609,2.684,2.684,0,0,0-2.391,1.313,7.008,7.008,0,0,0-.855,3.75v1.031a6.86,6.86,0,0,0,.873,3.838A3.088,3.088,0,0,0,8.754-2.93a3.456,3.456,0,0,0,2.391-.715V-6.293H8.285V-9.117h6.973Z" transform="translate(926.794 3051.461)" fill="#12263f"/>
    <path id="Trazado_214693" data-name="Trazado 214693" d="M2.82-4.453V0H1.32V-11.375h4.2a4.215,4.215,0,0,1,2.926.953A3.231,3.231,0,0,1,9.5-7.9,3.189,3.189,0,0,1,8.465-5.348,4.4,4.4,0,0,1,5.5-4.453Zm0-1.227h2.7a2.7,2.7,0,0,0,1.844-.567A2.075,2.075,0,0,0,8-7.887a2.143,2.143,0,0,0-.641-1.628A2.525,2.525,0,0,0,5.6-10.148H2.82ZM15.273-7.156a4.331,4.331,0,0,0-.711-.055A1.9,1.9,0,0,0,12.633-6V0H11.188V-8.453h1.406l.023.977a2.251,2.251,0,0,1,2.016-1.133,1.477,1.477,0,0,1,.641.109ZM19.961.156a3.693,3.693,0,0,1-2.8-1.129,4.19,4.19,0,0,1-1.078-3.02v-.266a5.073,5.073,0,0,1,.48-2.246A3.748,3.748,0,0,1,17.91-8.051a3.378,3.378,0,0,1,1.871-.559,3.166,3.166,0,0,1,2.563,1.086,4.7,4.7,0,0,1,.914,3.109v.6H17.531a3,3,0,0,0,.73,2.02,2.3,2.3,0,0,0,1.777.77,2.517,2.517,0,0,0,1.3-.312,3.259,3.259,0,0,0,.93-.828l.883.688A3.55,3.55,0,0,1,19.961.156Zm-.18-7.578a1.928,1.928,0,0,0-1.469.637A3.1,3.1,0,0,0,17.578-5h4.234v-.109a2.753,2.753,0,0,0-.594-1.707A1.815,1.815,0,0,0,19.781-7.422Zm10.07,5.18a1.064,1.064,0,0,0-.441-.91,4.249,4.249,0,0,0-1.539-.559,7.277,7.277,0,0,1-1.742-.562,2.479,2.479,0,0,1-.953-.781,1.869,1.869,0,0,1-.309-1.078,2.193,2.193,0,0,1,.879-1.758,3.432,3.432,0,0,1,2.246-.719,3.532,3.532,0,0,1,2.332.742,2.357,2.357,0,0,1,.895,1.9H29.766a1.3,1.3,0,0,0-.5-1.023,1.888,1.888,0,0,0-1.27-.43,1.976,1.976,0,0,0-1.234.344,1.082,1.082,0,0,0-.445.9.877.877,0,0,0,.414.789,5.1,5.1,0,0,0,1.5.508,7.8,7.8,0,0,1,1.754.578,2.558,2.558,0,0,1,1,.809A1.988,1.988,0,0,1,31.3-2.344a2.163,2.163,0,0,1-.906,1.816,3.8,3.8,0,0,1-2.352.684,4.257,4.257,0,0,1-1.8-.359,2.922,2.922,0,0,1-1.223-1A2.42,2.42,0,0,1,24.578-2.6h1.445a1.5,1.5,0,0,0,.582,1.152,2.258,2.258,0,0,0,1.434.426,2.331,2.331,0,0,0,1.316-.332A1.02,1.02,0,0,0,29.852-2.242ZM38.4-.836a3.07,3.07,0,0,1-2.477.992,2.628,2.628,0,0,1-2.059-.785,3.4,3.4,0,0,1-.715-2.324v-5.5h1.445v5.461q0,1.922,1.563,1.922a2.163,2.163,0,0,0,2.2-1.234V-8.453H39.8V0H38.43Zm10.742-3.3a5.062,5.062,0,0,1-.883,3.109A2.829,2.829,0,0,1,45.867.156,3.1,3.1,0,0,1,43.445-.82V3.25H42v-11.7h1.32l.07.938a2.977,2.977,0,0,1,2.453-1.094,2.882,2.882,0,0,1,2.41,1.148,5.117,5.117,0,0,1,.887,3.2ZM47.7-4.3a3.735,3.735,0,0,0-.609-2.258,1.963,1.963,0,0,0-1.672-.828,2.125,2.125,0,0,0-1.969,1.164V-2.18A2.129,2.129,0,0,0,45.43-1.023a1.954,1.954,0,0,0,1.652-.824A4.077,4.077,0,0,0,47.7-4.3ZM56.2-.836a3.07,3.07,0,0,1-2.477.992A2.628,2.628,0,0,1,51.66-.629a3.4,3.4,0,0,1-.715-2.324v-5.5h1.445v5.461q0,1.922,1.563,1.922a2.163,2.163,0,0,0,2.2-1.234V-8.453H57.6V0H56.227ZM63.3.156a3.693,3.693,0,0,1-2.8-1.129,4.19,4.19,0,0,1-1.078-3.02v-.266A5.073,5.073,0,0,1,59.91-6.5a3.748,3.748,0,0,1,1.344-1.547,3.378,3.378,0,0,1,1.871-.559,3.166,3.166,0,0,1,2.563,1.086A4.7,4.7,0,0,1,66.6-4.414v.6H60.875a3,3,0,0,0,.73,2.02,2.3,2.3,0,0,0,1.777.77,2.517,2.517,0,0,0,1.3-.312,3.259,3.259,0,0,0,.93-.828l.883.688A3.55,3.55,0,0,1,63.3.156Zm-.18-7.578a1.928,1.928,0,0,0-1.469.637A3.1,3.1,0,0,0,60.922-5h4.234v-.109a2.753,2.753,0,0,0-.594-1.707A1.815,1.815,0,0,0,63.125-7.422ZM73.2-2.242a1.064,1.064,0,0,0-.441-.91,4.249,4.249,0,0,0-1.539-.559,7.277,7.277,0,0,1-1.742-.562,2.479,2.479,0,0,1-.953-.781,1.869,1.869,0,0,1-.309-1.078,2.193,2.193,0,0,1,.879-1.758,3.432,3.432,0,0,1,2.246-.719,3.532,3.532,0,0,1,2.332.742,2.357,2.357,0,0,1,.895,1.9H73.109a1.3,1.3,0,0,0-.5-1.023,1.888,1.888,0,0,0-1.27-.43,1.976,1.976,0,0,0-1.234.344,1.082,1.082,0,0,0-.445.9.877.877,0,0,0,.414.789,5.1,5.1,0,0,0,1.5.508A7.8,7.8,0,0,1,73.32-4.3a2.558,2.558,0,0,1,1,.809,1.988,1.988,0,0,1,.324,1.152,2.163,2.163,0,0,1-.906,1.816,3.8,3.8,0,0,1-2.352.684,4.257,4.257,0,0,1-1.8-.359,2.922,2.922,0,0,1-1.223-1A2.42,2.42,0,0,1,67.922-2.6h1.445a1.5,1.5,0,0,0,.582,1.152,2.258,2.258,0,0,0,1.434.426A2.331,2.331,0,0,0,72.7-1.355,1.02,1.02,0,0,0,73.2-2.242ZM78.484-10.5v2.047h1.578v1.117H78.484v5.249a1.173,1.173,0,0,0,.211.763.888.888,0,0,0,.719.254,3.5,3.5,0,0,0,.688-.094V0a4.215,4.215,0,0,1-1.109.155A1.8,1.8,0,0,1,77.531-.43a2.517,2.517,0,0,1-.492-1.664V-7.336H75.5V-8.453h1.539V-10.5Zm2.727,6.2A4.993,4.993,0,0,1,81.7-6.539,3.643,3.643,0,0,1,83.059-8.07a3.7,3.7,0,0,1,1.988-.539,3.565,3.565,0,0,1,2.793,1.2,4.6,4.6,0,0,1,1.066,3.18v.1a5.036,5.036,0,0,1-.473,2.215A3.589,3.589,0,0,1,87.082-.391a3.743,3.743,0,0,1-2.02.547,3.556,3.556,0,0,1-2.785-1.2A4.575,4.575,0,0,1,81.211-4.2Zm1.453.172a3.616,3.616,0,0,0,.652,2.258,2.088,2.088,0,0,0,1.746.852,2.075,2.075,0,0,0,1.75-.863A3.955,3.955,0,0,0,87.461-4.3a3.61,3.61,0,0,0-.66-2.254,2.1,2.1,0,0,0-1.754-.863,2.075,2.075,0,0,0-1.727.852A3.925,3.925,0,0,0,82.664-4.133ZM95.641-2.242a1.064,1.064,0,0,0-.441-.91,4.249,4.249,0,0,0-1.539-.559,7.277,7.277,0,0,1-1.742-.562,2.479,2.479,0,0,1-.953-.781,1.869,1.869,0,0,1-.309-1.078,2.193,2.193,0,0,1,.879-1.758,3.432,3.432,0,0,1,2.246-.719,3.532,3.532,0,0,1,2.332.742,2.357,2.357,0,0,1,.895,1.9H95.555a1.3,1.3,0,0,0-.5-1.023,1.888,1.888,0,0,0-1.27-.43,1.976,1.976,0,0,0-1.234.344,1.082,1.082,0,0,0-.445.9.877.877,0,0,0,.414.789,5.1,5.1,0,0,0,1.5.508,7.8,7.8,0,0,1,1.754.578,2.558,2.558,0,0,1,1,.809,1.988,1.988,0,0,1,.324,1.152A2.163,2.163,0,0,1,96.18-.527a3.8,3.8,0,0,1-2.352.684,4.257,4.257,0,0,1-1.8-.359,2.922,2.922,0,0,1-1.223-1A2.42,2.42,0,0,1,90.367-2.6h1.445a1.5,1.5,0,0,0,.582,1.152,2.258,2.258,0,0,0,1.434.426,2.331,2.331,0,0,0,1.316-.332A1.02,1.02,0,0,0,95.641-2.242Z" transform="translate(1066 3048.357)" fill="#12263f"/>
  </g>
</svg>
