<svg id="Grupo_183143" data-name="Grupo 183143" xmlns="http://www.w3.org/2000/svg" xmlns:xlink="http://www.w3.org/1999/xlink" width="65" height="56.929" viewBox="0 0 65 56.929">
  <defs>
    <clipPath id="clip-path">
      <rect id="Rectángulo_57777" data-name="Rectángulo 57777" width="65" height="56.928" fill="#32d9cb"/>
    </clipPath>
  </defs>
  <g id="Grupo_183142" data-name="Grupo 183142" clip-path="url(#clip-path)">
    <path id="Trazado_214112" data-name="Trazado 214112" d="M5.487,17.805l-.53-4.444,6.055-.723a1.118,1.118,0,0,0-.265-2.22l-6.426.766a1.865,1.865,0,0,0-1.628,2.07l.575,4.816a1.116,1.116,0,0,0,1.108.986,1.159,1.159,0,0,0,.133-.009,1.116,1.116,0,0,0,.977-1.242" transform="translate(2.02 7.847)" fill="#32d9cb"/>
    <path id="Trazado_214113" data-name="Trazado 214113" d="M19.355,21.5l-6.407.765a1.118,1.118,0,0,0,.13,2.227,1.164,1.164,0,0,0,.135-.009l6.407-.765a1.117,1.117,0,1,0-.265-2.219" transform="translate(9.018 16.205)" fill="#32d9cb"/>
    <path id="Trazado_214114" data-name="Trazado 214114" d="M12.937,24.084l-6.53.779-.454-3.809a1.117,1.117,0,1,0-2.219.265l.5,4.181a1.863,1.863,0,0,0,1.849,1.64,1.909,1.909,0,0,0,.221-.012l6.9-.824a1.117,1.117,0,1,0-.265-2.219" transform="translate(2.809 15.13)" fill="#32d9cb"/>
    <path id="Trazado_214115" data-name="Trazado 214115" d="M37.4,33.338a7.143,7.143,0,1,0-4.664-13.13l-.684-5.737a3.9,3.9,0,0,0-4.337-3.413l-5.292.631A7.739,7.739,0,1,0,8.731,13.324l-5.292.63A3.908,3.908,0,0,0,.028,18.293l2.9,24.276a3.9,3.9,0,0,0,4.337,3.411l5.407-.644a7.735,7.735,0,0,0,7.156,10.632,7.952,7.952,0,0,0,.933-.056A7.727,7.727,0,0,0,26.13,43.73l5.407-.645a3.9,3.9,0,0,0,3.413-4.337l-.684-5.735a7.111,7.111,0,0,0,3.136.326m-3.82-3.194a1.117,1.117,0,0,0-1.787,1.021l.937,7.847a1.67,1.67,0,0,1-1.459,1.854l-7.659.914a1.118,1.118,0,0,0-.528,2.012,5.445,5.445,0,0,1,2.22,3.785,5.5,5.5,0,1,1-10.93,1.3,5.446,5.446,0,0,1,1.268-4.2,1.117,1.117,0,0,0-.854-1.838,1.152,1.152,0,0,0-.133.007L7,43.762A1.668,1.668,0,0,1,5.142,42.3l-2.9-24.276a1.67,1.67,0,0,1,1.459-1.854l7.445-.887a1.119,1.119,0,0,0,.568-1.982,5.5,5.5,0,1,1,7.8-.931,1.118,1.118,0,0,0,1.017,1.792l7.447-.887a1.668,1.668,0,0,1,1.854,1.458l.935,7.847a1.118,1.118,0,0,0,1.978.572,4.906,4.906,0,0,1,8.682,2.51v0a4.905,4.905,0,0,1-7.849,4.481" transform="translate(0 0.959)" fill="#32d9cb"/>
    <path id="Trazado_214116" data-name="Trazado 214116" d="M27.217,25.468a1.116,1.116,0,0,0,.977,1.242l6.975.833a1.887,1.887,0,0,0,.221.012,1.866,1.866,0,0,0,1.849-1.64l.654-5.5a1.117,1.117,0,1,0-2.219-.265l-.612,5.125-6.6-.788a1.118,1.118,0,0,0-1.242.977" transform="translate(20.514 14.452)" fill="#32d9cb"/>
    <path id="Trazado_214117" data-name="Trazado 214117" d="M36.359,18.969a1.159,1.159,0,0,0,.133.009,1.116,1.116,0,0,0,1.108-.986l.552-4.629A1.861,1.861,0,0,0,36.525,11.3l-6.261-.749A1.118,1.118,0,1,0,30,12.767l5.89.7-.507,4.257a1.118,1.118,0,0,0,.977,1.242" transform="translate(21.873 7.945)" fill="#32d9cb"/>
    <path id="Trazado_214118" data-name="Trazado 214118" d="M50.067,11.222a3.876,3.876,0,0,0-2.6-1.461l-24.276-2.9a3.9,3.9,0,0,0-4.337,3.411l-.144,1.2a1.118,1.118,0,0,0,2.22.265l.142-1.2a1.668,1.668,0,0,1,1.854-1.458l24.276,2.9a1.665,1.665,0,0,1,1.458,1.854l-2.9,24.274a1.667,1.667,0,0,1-1.852,1.459l-7.661-.914a1.1,1.1,0,0,0-1.115.581,1.117,1.117,0,0,0,.13,1.251,5.5,5.5,0,1,1-7.444-.887,1.117,1.117,0,0,0-.526-2.012l-4.132-.493a1.117,1.117,0,1,0-.265,2.219l1.88.224a7.733,7.733,0,0,0,5.372,12.183,7.589,7.589,0,0,0,.933.056,7.727,7.727,0,0,0,7.154-10.632l5.409.644a3.9,3.9,0,0,0,4.337-3.411l2.9-24.276a3.877,3.877,0,0,0-.809-2.876" transform="translate(14.096 5.154)" fill="#32d9cb"/>
    <path id="Trazado_214119" data-name="Trazado 214119" d="M18.874,8.57a1.117,1.117,0,0,0,1.117-1.117V1.119a1.117,1.117,0,1,0-2.234,0V7.452A1.117,1.117,0,0,0,18.874,8.57" transform="translate(13.387 0)" fill="#32d9cb"/>
    <path id="Trazado_214120" data-name="Trazado 214120" d="M20.838,8.612a1.116,1.116,0,0,0,1.538-.367L25.356,3.4a1.117,1.117,0,1,0-1.9-1.172L20.471,7.074a1.118,1.118,0,0,0,.367,1.538" transform="translate(15.309 1.281)" fill="#32d9cb"/>
    <path id="Trazado_214121" data-name="Trazado 214121" d="M16.654,8.246a1.117,1.117,0,1,0,1.9-1.172l-2.98-4.843a1.117,1.117,0,1,0-1.9,1.172Z" transform="translate(10.184 1.281)" fill="#32d9cb"/>
  </g>
</svg>
