<svg id="Grupo_183465" data-name="Grupo 183465" xmlns="http://www.w3.org/2000/svg" xmlns:xlink="http://www.w3.org/1999/xlink" width="276.315" height="162.343" viewBox="0 0 276.315 162.343">
  <defs>
    <clipPath id="clip-path">
      <rect id="Rectángulo_58235" data-name="Rectángulo 58235" width="276.315" height="162.343" fill="none"/>
    </clipPath>
    <clipPath id="clip-path-3">
      <rect id="Rectángulo_58193" data-name="Rectángulo 58193" width="274.153" height="160.181" fill="none"/>
    </clipPath>
    <clipPath id="clip-path-5">
      <rect id="Rectángulo_58233" data-name="Rectángulo 58233" width="73.802" height="73.808" fill="none"/>
    </clipPath>
  </defs>
  <g id="Grupo_183464" data-name="Grupo 183464" clip-path="url(#clip-path)">
    <g id="Grupo_183458" data-name="Grupo 183458" transform="translate(0 0)">
      <g id="Grupo_183457" data-name="Grupo 183457" clip-path="url(#clip-path)">
        <g id="Grupo_183456" data-name="Grupo 183456" transform="translate(2.162 2.162)" opacity="0.7" style="mix-blend-mode: multiply;isolation: isolate">
          <g id="Grupo_183455" data-name="Grupo 183455">
            <g id="Grupo_183454" data-name="Grupo 183454" clip-path="url(#clip-path-3)">
              <path id="Trazado_214612" data-name="Trazado 214612" d="M231.737,142.948v-2.188h-6.13v-4.011c.159-.359.285-.734.433-1.1l49.311-19.988-1.089-2.806-18.014-44.5-21.687,8.78L248.1,60.77l-2.3-1.95L208.822,28.212l-9.817,11.855L149.859,1.2H88.374L13.654,60.283v2.743h4.614a4.837,4.837,0,0,0,6.4,7.09v57.968H21.611v8.149H12.62v4.527H6.49v4.527H1.2v4.531H151.152c.626.6,1.266,1.181,1.93,1.744.233.2.465.4.7.593.155.126.3.262.456.386l.023-.025a41.106,41.106,0,0,0,25.521,8.863c1.355,0,2.689-.074,4.009-.2,1.32.128,2.657.2,4.011.2a41.1,41.1,0,0,0,28.654-11.561h20.565v-4.531h-5.288ZM130.385,63.029h0Zm-16.822,0h0Zm-20.55,0h0Zm69.046.171h-3.443c-.043-.06-.094-.114-.141-.171h3.584Zm-11.125-.171h0Zm-74.742,0v0H63.181l0,0Zm-20.55,0c-.047.058-.1.112-.142.173h-9c-.045-.061-.1-.115-.142-.173Zm-16.824,0,0,0h-13l0,0Z" transform="translate(-1.2 -1.199)" fill="gray"/>
            </g>
          </g>
        </g>
      </g>
    </g>
    <rect id="Rectángulo_58195" data-name="Rectángulo 58195" width="43.326" height="79.07" transform="translate(160.859 56.509)" fill="#153152"/>
    <path id="Trazado_214613" data-name="Trazado 214613" d="M54.231,0,40.995,61.826l148.406,0V58.275L115.716,0Z" transform="translate(32.944 0)" fill="#ebebeb"/>
    <rect id="Rectángulo_58196" data-name="Rectángulo 58196" width="7.128" height="61.682" transform="translate(84.946 65.203)" fill="#767778"/>
    <rect id="Rectángulo_58197" data-name="Rectángulo 58197" width="8.169" height="61.682" transform="translate(92.074 65.203)" fill="#767778"/>
    <rect id="Rectángulo_58198" data-name="Rectángulo 58198" width="10.183" height="8.149" transform="translate(81.891 126.886)" fill="#767778"/>
    <rect id="Rectángulo_58199" data-name="Rectángulo 58199" width="11.68" height="8.149" transform="translate(92.073 126.884)" fill="#767778"/>
    <rect id="Rectángulo_58200" data-name="Rectángulo 58200" width="10.185" height="8.149" transform="translate(119.284 126.886)" fill="#767778"/>
    <rect id="Rectángulo_58201" data-name="Rectángulo 58201" width="11.682" height="8.149" transform="translate(129.47 126.884)" fill="#767778"/>
    <rect id="Rectángulo_58202" data-name="Rectángulo 58202" width="10.178" height="8.149" transform="translate(194.04 126.886)" fill="#b9babb"/>
    <rect id="Rectángulo_58203" data-name="Rectángulo 58203" width="11.675" height="8.149" transform="translate(204.216 126.884)" fill="#cdced0"/>
    <rect id="Rectángulo_58204" data-name="Rectángulo 58204" width="15.545" height="6.035" transform="translate(84.247 61.83)" fill="#767778"/>
    <g id="Grupo_183463" data-name="Grupo 183463" transform="translate(0 0)">
      <g id="Grupo_183462" data-name="Grupo 183462" clip-path="url(#clip-path)">
        <path id="Trazado_214614" data-name="Trazado 214614" d="M52.654,38.121A4.852,4.852,0,1,1,47.8,33.264a4.844,4.844,0,0,1,4.857,4.857" transform="translate(34.516 26.731)" fill="#767778"/>
        <path id="Trazado_214615" data-name="Trazado 214615" d="M49.76,37.228a2.85,2.85,0,1,1-2.855-2.852,2.845,2.845,0,0,1,2.855,2.852" transform="translate(35.408 27.625)" fill="#767778"/>
        <path id="Trazado_214616" data-name="Trazado 214616" d="M64.053,38.121A4.854,4.854,0,1,1,59.2,33.264a4.846,4.846,0,0,1,4.854,4.857" transform="translate(43.671 26.731)" fill="#767778"/>
        <path id="Trazado_214617" data-name="Trazado 214617" d="M61.155,37.228A2.85,2.85,0,1,1,58.3,34.376a2.848,2.848,0,0,1,2.852,2.852" transform="translate(44.565 27.625)" fill="#767778"/>
        <rect id="Rectángulo_58205" data-name="Rectángulo 58205" width="7.128" height="61.682" transform="translate(122.319 65.202)" fill="#767778"/>
        <rect id="Rectángulo_58206" data-name="Rectángulo 58206" width="8.165" height="61.682" transform="translate(129.447 65.202)" fill="#767778"/>
        <rect id="Rectángulo_58207" data-name="Rectángulo 58207" width="15.551" height="6.035" transform="translate(121.617 61.83)" fill="#767778"/>
        <path id="Trazado_214618" data-name="Trazado 214618" d="M73.372,38.121a4.85,4.85,0,1,1-4.846-4.857,4.838,4.838,0,0,1,4.846,4.857" transform="translate(51.168 26.731)" fill="#767778"/>
        <path id="Trazado_214619" data-name="Trazado 214619" d="M70.486,37.228a2.853,2.853,0,1,1-2.852-2.852,2.849,2.849,0,0,1,2.852,2.852" transform="translate(52.057 27.625)" fill="#767778"/>
        <path id="Trazado_214620" data-name="Trazado 214620" d="M84.77,38.121a4.852,4.852,0,1,1-4.857-4.857,4.846,4.846,0,0,1,4.857,4.857" transform="translate(60.325 26.731)" fill="#767778"/>
        <path id="Trazado_214621" data-name="Trazado 214621" d="M81.873,37.228a2.848,2.848,0,1,1-2.852-2.852,2.845,2.845,0,0,1,2.852,2.852" transform="translate(61.217 27.625)" fill="#767778"/>
        <rect id="Rectángulo_58208" data-name="Rectángulo 58208" width="7.122" height="61.682" transform="translate(197.064 65.202)" fill="#cdced0"/>
        <rect id="Rectángulo_58209" data-name="Rectángulo 58209" width="8.169" height="61.682" transform="translate(204.185 65.202)" fill="#b9babb"/>
        <rect id="Rectángulo_58210" data-name="Rectángulo 58210" width="15.547" height="6.035" transform="translate(196.359 61.83)" fill="#b9babb"/>
        <path id="Trazado_214622" data-name="Trazado 214622" d="M114.816,38.121a4.853,4.853,0,1,1-4.848-4.857,4.841,4.841,0,0,1,4.848,4.857" transform="translate(84.468 26.731)" fill="#a1a4a6"/>
        <path id="Trazado_214623" data-name="Trazado 214623" d="M111.921,37.228a2.849,2.849,0,1,1-2.848-2.852,2.845,2.845,0,0,1,2.848,2.852" transform="translate(85.362 27.625)" fill="#b9babb"/>
        <path id="Trazado_214624" data-name="Trazado 214624" d="M126.208,38.121a4.85,4.85,0,1,1-4.846-4.857,4.841,4.841,0,0,1,4.846,4.857" transform="translate(93.627 26.731)" fill="#a1a4a6"/>
        <path id="Trazado_214625" data-name="Trazado 214625" d="M123.312,37.228a2.846,2.846,0,1,1-2.846-2.852,2.848,2.848,0,0,1,2.846,2.852" transform="translate(94.521 27.625)" fill="#b9babb"/>
        <path id="Trazado_214626" data-name="Trazado 214626" d="M40.418,74.869V79.4H191.927V74.869Z" transform="translate(32.48 60.165)" fill="#cdced0"/>
        <path id="Trazado_214627" data-name="Trazado 214627" d="M37.014,77.379v4.527h163.78V77.379Z" transform="translate(29.745 62.182)" fill="#b8b8b8"/>
        <path id="Trazado_214628" data-name="Trazado 214628" d="M34.088,79.889V84.42H208.432V79.889Z" transform="translate(27.394 64.199)" fill="#cdced0"/>
        <rect id="Rectángulo_58211" data-name="Rectángulo 58211" width="134.497" height="73.598" transform="translate(26.362 62.001)" fill="#193a61"/>
        <path id="Trazado_214629" data-name="Trazado 214629" d="M155.31,58.275,81.627,0,6.905,59.084v2.743l148.4,0Z" transform="translate(5.549 0)" fill="#fff"/>
        <path id="Trazado_214630" data-name="Trazado 214630" d="M131.54,50.017,74.186,4.646,16.023,50.634v2.134l115.518.009Z" transform="translate(12.876 3.733)" fill="#5794d9"/>
        <rect id="Rectángulo_58212" data-name="Rectángulo 58212" width="7.126" height="61.682" transform="translate(23.469 65.202)" fill="#fff"/>
        <rect id="Rectángulo_58213" data-name="Rectángulo 58213" width="8.163" height="61.682" transform="translate(30.595 65.202)" fill="#f0f0f0"/>
        <rect id="Rectángulo_58214" data-name="Rectángulo 58214" width="10.183" height="8.149" transform="translate(20.413 126.886)" fill="#f0f0f0"/>
        <rect id="Rectángulo_58215" data-name="Rectángulo 58215" width="11.68" height="8.149" transform="translate(30.595 126.884)" fill="#fff"/>
        <rect id="Rectángulo_58216" data-name="Rectángulo 58216" width="10.19" height="8.149" transform="translate(57.808 126.886)" fill="#f0f0f0"/>
        <rect id="Rectángulo_58217" data-name="Rectángulo 58217" width="11.671" height="8.149" transform="translate(68 126.884)" fill="#fff"/>
        <rect id="Rectángulo_58218" data-name="Rectángulo 58218" width="10.178" height="8.149" transform="translate(95.186 126.886)" fill="#f0f0f0"/>
        <rect id="Rectángulo_58219" data-name="Rectángulo 58219" width="11.675" height="8.149" transform="translate(105.363 126.884)" fill="#fff"/>
        <rect id="Rectángulo_58220" data-name="Rectángulo 58220" width="10.178" height="8.149" transform="translate(132.556 126.886)" fill="#f0f0f0"/>
        <rect id="Rectángulo_58221" data-name="Rectángulo 58221" width="11.678" height="8.149" transform="translate(142.734 126.884)" fill="#fff"/>
        <rect id="Rectángulo_58222" data-name="Rectángulo 58222" width="15.553" height="6.035" transform="translate(22.762 61.83)" fill="#f0f0f0"/>
        <path id="Trazado_214631" data-name="Trazado 214631" d="M18.574,38.121a4.855,4.855,0,1,1-4.854-4.857,4.849,4.849,0,0,1,4.854,4.857" transform="translate(7.122 26.731)" fill="#dedede"/>
        <path id="Trazado_214632" data-name="Trazado 214632" d="M15.676,37.228a2.852,2.852,0,1,1-2.848-2.852,2.849,2.849,0,0,1,2.848,2.852" transform="translate(8.014 27.625)" fill="#f0f0f0"/>
        <path id="Trazado_214633" data-name="Trazado 214633" d="M29.962,38.121a4.853,4.853,0,1,1-4.854-4.857,4.846,4.846,0,0,1,4.854,4.857" transform="translate(16.279 26.731)" fill="#dedede"/>
        <path id="Trazado_214634" data-name="Trazado 214634" d="M27.069,37.228a2.851,2.851,0,1,1-2.852-2.852,2.852,2.852,0,0,1,2.852,2.852" transform="translate(17.172 27.625)" fill="#f0f0f0"/>
        <rect id="Rectángulo_58223" data-name="Rectángulo 58223" width="7.128" height="61.682" transform="translate(60.836 65.202)" fill="#fff"/>
        <rect id="Rectángulo_58224" data-name="Rectángulo 58224" width="8.169" height="61.682" transform="translate(67.964 65.202)" fill="#f0f0f0"/>
        <rect id="Rectángulo_58225" data-name="Rectángulo 58225" width="15.547" height="6.035" transform="translate(60.136 61.83)" fill="#f0f0f0"/>
        <path id="Trazado_214635" data-name="Trazado 214635" d="M39.286,38.121a4.85,4.85,0,1,1-4.85-4.857,4.84,4.84,0,0,1,4.85,4.857" transform="translate(23.776 26.731)" fill="#dedede"/>
        <path id="Trazado_214636" data-name="Trazado 214636" d="M36.394,37.228a2.851,2.851,0,1,1-2.848-2.852,2.847,2.847,0,0,1,2.848,2.852" transform="translate(24.665 27.625)" fill="#f0f0f0"/>
        <path id="Trazado_214637" data-name="Trazado 214637" d="M50.684,38.121a4.853,4.853,0,1,1-4.852-4.857,4.846,4.846,0,0,1,4.852,4.857" transform="translate(32.931 26.731)" fill="#dedede"/>
        <path id="Trazado_214638" data-name="Trazado 214638" d="M47.788,37.228a2.85,2.85,0,1,1-2.848-2.852,2.847,2.847,0,0,1,2.848,2.852" transform="translate(33.823 27.625)" fill="#f0f0f0"/>
        <rect id="Rectángulo_58226" data-name="Rectángulo 58226" width="7.128" height="61.682" transform="translate(98.208 65.202)" fill="#fff"/>
        <rect id="Rectángulo_58227" data-name="Rectángulo 58227" width="8.165" height="61.682" transform="translate(105.336 65.202)" fill="#f0f0f0"/>
        <rect id="Rectángulo_58228" data-name="Rectángulo 58228" width="15.553" height="6.035" transform="translate(97.5 61.83)" fill="#f0f0f0"/>
        <path id="Trazado_214639" data-name="Trazado 214639" d="M60.008,38.121a4.852,4.852,0,1,1-4.852-4.857,4.845,4.845,0,0,1,4.852,4.857" transform="translate(40.426 26.731)" fill="#dedede"/>
        <path id="Trazado_214640" data-name="Trazado 214640" d="M57.111,37.228a2.848,2.848,0,1,1-2.846-2.852,2.846,2.846,0,0,1,2.846,2.852" transform="translate(41.318 27.625)" fill="#f0f0f0"/>
        <path id="Trazado_214641" data-name="Trazado 214641" d="M71.4,38.121a4.853,4.853,0,1,1-4.854-4.857A4.847,4.847,0,0,1,71.4,38.121" transform="translate(49.582 26.731)" fill="#dedede"/>
        <path id="Trazado_214642" data-name="Trazado 214642" d="M68.5,37.228a2.846,2.846,0,1,1-2.848-2.852A2.843,2.843,0,0,1,68.5,37.228" transform="translate(50.476 27.625)" fill="#f0f0f0"/>
        <rect id="Rectángulo_58229" data-name="Rectángulo 58229" width="7.133" height="61.682" transform="translate(135.581 65.202)" fill="#fff"/>
        <rect id="Rectángulo_58230" data-name="Rectángulo 58230" width="8.163" height="61.682" transform="translate(142.714 65.202)" fill="#f0f0f0"/>
        <rect id="Rectángulo_58231" data-name="Rectángulo 58231" width="15.553" height="6.035" transform="translate(134.876 61.83)" fill="#f0f0f0"/>
        <path id="Trazado_214643" data-name="Trazado 214643" d="M80.728,38.121a4.851,4.851,0,1,1-4.846-4.857,4.843,4.843,0,0,1,4.846,4.857" transform="translate(57.077 26.731)" fill="#dedede"/>
        <path id="Trazado_214644" data-name="Trazado 214644" d="M77.833,37.228a2.85,2.85,0,1,1-2.842-2.852,2.842,2.842,0,0,1,2.842,2.852" transform="translate(57.968 27.625)" fill="#f0f0f0"/>
        <path id="Trazado_214645" data-name="Trazado 214645" d="M92.123,38.121a4.851,4.851,0,1,1-4.85-4.857,4.844,4.844,0,0,1,4.85,4.857" transform="translate(66.234 26.731)" fill="#dedede"/>
        <path id="Trazado_214646" data-name="Trazado 214646" d="M89.223,37.228a2.847,2.847,0,1,1-2.841-2.852,2.842,2.842,0,0,1,2.841,2.852" transform="translate(67.125 27.625)" fill="#f0f0f0"/>
        <path id="Trazado_214647" data-name="Trazado 214647" d="M6.333,74.869V79.4H157.84V74.869Z" transform="translate(5.089 60.165)" fill="#fff"/>
        <path id="Trazado_214648" data-name="Trazado 214648" d="M2.933,77.379v4.527H166.7V77.379Z" transform="translate(2.357 62.182)" fill="#e5e5e5"/>
        <path id="Trazado_214649" data-name="Trazado 214649" d="M0,79.889V84.42H174.346V79.889Z" transform="translate(0 64.199)" fill="#fff"/>
        <path id="Trazado_214650" data-name="Trazado 214650" d="M44.878,29.92c0,3.178-2.541,4.175-6.058,4.175H34.46V19.607h3.789c3.733,0,6,1.055,6,3.694a3.152,3.152,0,0,1-2.684,3.118c1.659.316,3.315,1.093,3.315,3.5m-7.653-4.359h1.7c1.517,0,2.494-.664,2.494-2.031,0-1.466-1.006-1.881-2.891-1.881h-1.3Zm4.758,4.262c0-1.748-1.235-2.334-2.848-2.334h-1.91v4.525h1.614c1.818,0,3.144-.375,3.144-2.191" transform="translate(27.692 15.756)" fill="#fff"/>
        <path id="Trazado_214651" data-name="Trazado 214651" d="M44.127,30.736l-.9,3.36H40.352l4.511-14.49h3.411L52.766,34.1H49.83l-.9-3.36Zm2.392-9.013-1.845,6.924h3.685Z" transform="translate(32.427 15.755)" fill="#fff"/>
        <path id="Trazado_214652" data-name="Trazado 214652" d="M55.238,34.1,50.272,22.374a46.866,46.866,0,0,1,.373,5.806V34.1H48.128V19.607h3.5l5.052,11.74a35.754,35.754,0,0,1-.375-4.944v-6.8h2.512V34.1Z" transform="translate(38.676 15.756)" fill="#fff"/>
        <path id="Trazado_214653" data-name="Trazado 214653" d="M55.942,19.607h2.763V34.1H55.942ZM67.227,34.1H63.941l-5.11-7.736,5.01-6.753h3l-5.009,6.565Z" transform="translate(44.956 15.756)" fill="#fff"/>
        <path id="Trazado_214654" data-name="Trazado 214654" d="M105.789,98.87l-1.138-2.832,84.313-34.132,1.089,2.806Z" transform="translate(84.098 49.749)" fill="#6cb880"/>
        <rect id="Rectángulo_58232" data-name="Rectángulo 58232" width="90.959" height="48.006" transform="translate(170.737 101.286) rotate(-22.036)" fill="#82de9a"/>
        <path id="Trazado_214655" data-name="Trazado 214655" d="M171.514,48.371l10.481,25.891-65.718,26.607L105.794,74.985Zm3.683-8.737L97.066,71.268l15.527,38.318,78.123-31.628Z" transform="translate(78.003 31.85)" fill="#447a52"/>
        <path id="Trazado_214656" data-name="Trazado 214656" d="M110.07,54.254a14.05,14.05,0,0,1-7.719,18.287L97.066,59.519Z" transform="translate(78.003 43.599)" fill="#447a52"/>
        <path id="Trazado_214657" data-name="Trazado 214657" d="M133.176,44.9a14.044,14.044,0,0,0,18.28,7.759l-5.277-13.029Z" transform="translate(107.022 31.85)" fill="#447a52"/>
        <path id="Trazado_214658" data-name="Trazado 214658" d="M121.009,79.4a14.021,14.021,0,0,0-18.254-7.734l5.267,13Z" transform="translate(82.575 56.769)" fill="#447a52"/>
        <path id="Trazado_214659" data-name="Trazado 214659" d="M142.234,71.943a14.037,14.037,0,0,1,7.747-18.271l5.267,13Z" transform="translate(113.475 43.131)" fill="#447a52"/>
        <path id="Trazado_214660" data-name="Trazado 214660" d="M119.292,64.893a6.641,6.641,0,1,0-3.672,8.646,6.657,6.657,0,0,0,3.672-8.646" transform="translate(85.58 48.81)" fill="#447a52"/>
        <path id="Trazado_214661" data-name="Trazado 214661" d="M140.047,59.9a12.392,12.392,0,1,0-6.832,16.141A12.386,12.386,0,0,0,140.047,59.9" transform="translate(93.351 41.913)" fill="#447a52"/>
        <path id="Trazado_214662" data-name="Trazado 214662" d="M143.91,54.924a6.642,6.642,0,1,0-3.669,8.641,6.646,6.646,0,0,0,3.669-8.641" transform="translate(105.362 40.802)" fill="#447a52"/>
        <path id="Trazado_214663" data-name="Trazado 214663" d="M119.755,61.652c-1.138-2.8.216-4.424,2.35-5.366l-.682-1.683,1.87-.749.689,1.7a15.606,15.606,0,0,1,3.649-.808l1.017,2.529c-1.232.364-3.38,1.127-4.345,1.51-1.14.462-1.663.774-1.216,1.872l.184.471c.348.844.842,1.052,1.876.629l1.575-.635c2.915-1.183,4.486.956,5.119,2.525l.335.824c1.351,3.335-.334,4.893-2.282,5.672l.66,1.634-1.878.75-.658-1.641a10.681,10.681,0,0,1-3.685.8L123.323,69.2c.812-.256,2.8-.913,4.621-1.645.826-.334,1.419-.8,1.068-1.656l-.227-.572c-.287-.7-.682-1.033-1.647-.655l-1.517.619c-3.508,1.428-4.938-1.353-5.377-2.431Z" transform="translate(95.905 43.278)" fill="#75c78a"/>
        <path id="Trazado_214664" data-name="Trazado 214664" d="M105.8,103.962l-2.339-1.95,57.988-70.065,2.3,1.95Z" transform="translate(83.144 25.673)" fill="#6cb880"/>
        <path id="Trazado_214665" data-name="Trazado 214665" d="M119.944,115.651,82.955,85.036l58-70.059,36.972,30.609Z" transform="translate(66.664 12.036)" fill="#82de9a"/>
        <path id="Trazado_214666" data-name="Trazado 214666" d="M140.2,27.015l21.512,17.807L116.511,99.435,95,81.626Zm-.9-9.442L85.557,82.5l31.854,26.362,53.739-64.926Z" transform="translate(68.755 14.122)" fill="#447a52"/>
        <path id="Trazado_214667" data-name="Trazado 214667" d="M94.491,47.584a14.029,14.029,0,0,1,1.892,19.753L85.556,58.384Z" transform="translate(68.754 38.239)" fill="#447a52"/>
        <path id="Trazado_214668" data-name="Trazado 214668" d="M110.391,28.381a14.049,14.049,0,0,0,19.777-1.852l-10.823-8.955Z" transform="translate(88.711 14.122)" fill="#447a52"/>
        <path id="Trazado_214669" data-name="Trazado 214669" d="M116.974,63.637a14.023,14.023,0,0,0-19.75,1.858l10.809,8.942Z" transform="translate(78.13 48.548)" fill="#447a52"/>
        <path id="Trazado_214670" data-name="Trazado 214670" d="M130.319,46.99a14.035,14.035,0,0,1-1.861-19.759l10.805,8.942Z" transform="translate(100.64 21.883)" fill="#447a52"/>
        <path id="Trazado_214671" data-name="Trazado 214671" d="M107.731,51.573a6.642,6.642,0,1,0,.869,9.35,6.653,6.653,0,0,0-.869-9.35" transform="translate(77.831 40.22)" fill="#447a52"/>
        <path id="Trazado_214672" data-name="Trazado 214672" d="M122.717,38.855a12.392,12.392,0,1,0,1.647,17.439,12.385,12.385,0,0,0-1.647-17.439" transform="translate(82.307 28.933)" fill="#447a52"/>
        <path id="Trazado_214673" data-name="Trazado 214673" d="M124.664,31.113a6.645,6.645,0,1,0,.869,9.346,6.651,6.651,0,0,0-.869-9.346" transform="translate(91.443 23.78)" fill="#447a52"/>
        <path id="Trazado_214674" data-name="Trazado 214674" d="M106.671,48.148c-2.339-1.93-1.915-4-.478-5.84L104.8,41.15l1.286-1.551,1.41,1.174a15.535,15.535,0,0,1,2.832-2.438l2.1,1.737c-.916.905-2.448,2.588-3.108,3.391-.788.952-1.1,1.477-.195,2.222l.4.328c.7.581,1.232.527,1.948-.33l1.088-1.309c2-2.424,4.39-1.277,5.7-.2l.68.556c2.776,2.3,2.027,4.464.685,6.085l1.355,1.115-1.291,1.553-1.358-1.122a10.564,10.564,0,0,1-2.868,2.442L113.4,53.083c.588-.6,2.029-2.117,3.284-3.632.563-.682.868-1.373.155-1.959l-.471-.4c-.586-.483-1.091-.586-1.757.209L113.57,48.56c-2.422,2.925-5,1.158-5.892.429Z" transform="translate(84.219 30.806)" fill="#75c78a"/>
        <path id="Trazado_214675" data-name="Trazado 214675" d="M80.551,84.312a41.324,41.324,0,0,0,41.324,41.323V42.988A41.32,41.32,0,0,0,80.551,84.312" transform="translate(64.732 34.545)" fill="#eda73f"/>
        <path id="Trazado_214676" data-name="Trazado 214676" d="M144.787,84.312a41.272,41.272,0,0,1-41.324,41.323V42.988c.934,0,1.869.032,2.787.094a41.327,41.327,0,0,1,38.538,41.231" transform="translate(83.144 34.545)" fill="#eda73f"/>
        <path id="Trazado_214677" data-name="Trazado 214677" d="M117.429,42.988a41.323,41.323,0,1,0,41.323,41.324,41.32,41.32,0,0,0-41.323-41.324" transform="translate(61.159 34.545)" fill="#ffce3b"/>
        <path id="Trazado_214678" data-name="Trazado 214678" d="M79.959,81.215a34.372,34.372,0,0,0,34.373,34.368V46.842A34.377,34.377,0,0,0,79.959,81.215" transform="translate(64.256 37.643)" fill="#eda73f"/>
        <path id="Trazado_214679" data-name="Trazado 214679" d="M99.017,46.842v68.743a34.371,34.371,0,1,0,0-68.743" transform="translate(79.571 37.643)" fill="#f59407"/>
        <path id="Trazado_214680" data-name="Trazado 214680" d="M112.012,108.057A29.163,29.163,0,1,1,141.169,78.9a29.2,29.2,0,0,1-29.157,29.161m0-57.027A27.866,27.866,0,1,0,139.873,78.9a27.892,27.892,0,0,0-27.86-27.866" transform="translate(66.576 39.963)" fill="#ffce3b"/>
        <path id="Trazado_214681" data-name="Trazado 214681" d="M87.649,62.893c0-3.768,1.681-5.99,6.161-5.99h4.477c4.343,0,6.073,2.222,6.073,5.99v5c0,3.771-1.685,5.988-6.163,5.988H93.72c-4.343,0-6.071-2.217-6.071-5.988Zm7.18,5.451h2.262c1.508,0,1.726-.8,1.726-1.773V64.215c0-1.457-.53-1.769-1.639-1.769H94.919c-.976,0-1.735.265-1.735,1.769V66.57c0,.978.182,1.773,1.645,1.773m20.39-11.44h5.492L100.9,89.35H95.1Zm-3.458,21.324c0-3.773,1.639-5.988,6.116-5.988H122.4c4.343,0,6.071,2.215,6.071,5.988v5.01c0,3.762-1.685,5.983-6.163,5.983h-4.518c-4.345,0-6.028-2.22-6.028-5.983Zm7.178,5.449h2.218c1.506,0,1.775-.8,1.775-1.771v-2.35c0-1.465-.579-1.769-1.69-1.769H119.03c-.976,0-1.73.26-1.73,1.769V81.9c0,.976.179,1.771,1.639,1.771" transform="translate(70.436 45.728)" fill="#ffce3b"/>
        <g id="Grupo_183461" data-name="Grupo 183461" transform="translate(137.267 77.534)" opacity="0.3" style="mix-blend-mode: screen;isolation: isolate">
          <g id="Grupo_183460" data-name="Grupo 183460">
            <g id="Grupo_183459" data-name="Grupo 183459" clip-path="url(#clip-path-5)">
              <path id="Trazado_214682" data-name="Trazado 214682" d="M107.462,44.205,77.316,74.349a41.073,41.073,0,0,0-1.21,9.875l41.231-41.236a41.177,41.177,0,0,0-9.875,1.217" transform="translate(-76.107 -42.988)" fill="#ffce3b"/>
              <path id="Trazado_214683" data-name="Trazado 214683" d="M130.677,44.417,77.532,97.56a41.446,41.446,0,0,0,13.2,18.087l58.028-58.031a41.481,41.481,0,0,0-18.087-13.2" transform="translate(-74.961 -41.84)" fill="#ffce3b"/>
            </g>
          </g>
        </g>
      </g>
    </g>
  </g>
</svg>
