<svg xmlns="http://www.w3.org/2000/svg" xmlns:xlink="http://www.w3.org/1999/xlink" width="335" height="104.328" viewBox="0 0 335 104.328">
  <defs>
    <clipPath id="clip-path">
      <rect id="Rect치ngulo_57002" data-name="Rect치ngulo 57002" width="150.95" height="104.328" fill="#12263f"/>
    </clipPath>
    <clipPath id="clip-path-2">
      <rect id="Rect치ngulo_57003" data-name="Rect치ngulo 57003" width="171.408" height="98.469" fill="#12263f"/>
    </clipPath>
  </defs>
  <g id="Grupo_183471" data-name="Grupo 183471" transform="translate(2841 6213)">
    <g id="Grupo_183234" data-name="Grupo 183234" transform="translate(-30 -92.672)">
      <g id="Grupo_181891" data-name="Grupo 181891" transform="translate(-2811 -6120.328)">
        <g id="Grupo_181890" data-name="Grupo 181890" clip-path="url(#clip-path)">
          <path id="Trazado_210861" data-name="Trazado 210861" d="M9.374,0H141.657a9.664,9.664,0,0,1,6.6,2.691,9.461,9.461,0,0,1,2.69,6.519,9.316,9.316,0,0,1-2.69,6.52,10.005,10.005,0,0,1-5.3,2.69v85.907H80.855V18.5H22.5v83.625H10.758V18.5H9.374a9.241,9.241,0,0,1-6.6-2.771A9.045,9.045,0,0,1,0,9.21,9.183,9.183,0,0,1,2.771,2.691,9.661,9.661,0,0,1,9.374,0M25.593,22.659H77.839V35.048H25.593Zm86.315,55.995A4.164,4.164,0,1,1,108,82.812a4.077,4.077,0,0,1,3.913-4.158m0-27.385a4,4,0,0,1,3.912,4.074,3.92,3.92,0,1,1-7.825,0,4,4,0,0,1,3.913-4.074m0-28.365A4.165,4.165,0,1,1,108,27.06a4.075,4.075,0,0,1,3.913-4.156m-25.1,46.7h50.207V49.638H86.8Zm50.207,6.275H86.8v22.17h50.207ZM86.8,43.362h50.207v-23.8H86.8Z" fill="#12263f" fill-rule="evenodd"/>
        </g>
      </g>
      <g id="Grupo_181893" data-name="Grupo 181893" transform="translate(-2647.408 -6120.328)">
        <g id="Grupo_181892" data-name="Grupo 181892" transform="translate(0 0)" clip-path="url(#clip-path-2)">
          <path id="Trazado_210862" data-name="Trazado 210862" d="M49.6,0H72.954A11.4,11.4,0,0,1,84.095,11.488V33.975A11.346,11.346,0,0,1,72.954,45.46H49.6A11.348,11.348,0,0,1,38.453,33.975V11.488A11.4,11.4,0,0,1,49.6,0M171.076,92.523a3.839,3.839,0,0,1,.332,1.688,4.139,4.139,0,0,1-4.129,4.258H156.141a4.192,4.192,0,0,1-4.129-4.258,5.625,5.625,0,0,1,.329-1.688H137.737v-.078a11.663,11.663,0,0,1-1.649.078H19.063a5.625,5.625,0,0,1,.329,1.688,4.19,4.19,0,0,1-4.126,4.258H4.126A4.138,4.138,0,0,1,0,94.212a4.188,4.188,0,0,1,.329-1.767V33.011c0-5.141,7.6-9.4,16.75-9.4H33.918v40.4h5.036a8.1,8.1,0,0,0,4.123,4.258,17.957,17.957,0,0,0,8.091,1.767H71.383a17.957,17.957,0,0,0,8.091-1.767A8.107,8.107,0,0,0,83.6,64.013H87.15a7.8,7.8,0,0,0,4.126,4.258,17.694,17.694,0,0,0,8.086,1.767H119.5a18.062,18.062,0,0,0,8.171-1.767,8.425,8.425,0,0,0,4.126-4.258h5.941v-40.4H154.49c9.245,0,16.753,4.258,16.753,9.4V92.523ZM51.168,47.389H71.383c5.283,0,9.574,2.249,9.574,4.979v9.716c0,2.647-4.292,4.9-9.574,4.9H51.168c-5.285,0-9.577-2.251-9.577-4.9V52.368c0-2.731,4.292-4.979,9.577-4.979m48.194,0H119.5c5.28,0,9.657,2.249,9.657,4.979v9.716c0,2.647-4.377,4.9-9.657,4.9H99.362c-5.285,0-9.574-2.251-9.574-4.9V52.368c0-2.731,4.289-4.979,9.574-4.979M97.8,0h23.272a11.344,11.344,0,0,1,11.141,11.488V33.975c0,9.638-6.024,10.36-12.71,10.36H99.362c-6.6,0-12.71-.722-12.71-10.36V11.488A11.4,11.4,0,0,1,97.8,0" transform="translate(0 0.001)" fill="#12263f" fill-rule="evenodd"/>
        </g>
      </g>
    </g>
  </g>
</svg>
